<svg xmlns="http://www.w3.org/2000/svg" xmlns:xlink="http://www.w3.org/1999/xlink" version="1.1" width="223.92pt" height="132pt" viewBox="0 0 223.92 132">
<defs>
<clipPath id="clip_0">
<path transform="matrix(.24,0,0,.24,0,0)" d="M0 0H933.3334V548.6688H0Z" fill-rule="evenodd"/>
</clipPath>
<clipPath id="clip_1">
<path transform="matrix(.24,0,0,.24,0,0)" d="M0 0H933.3334V542.705H0Z" fill-rule="evenodd"/>
</clipPath>
</defs>
<g clip-path="url(#clip_0)">
<path transform="matrix(.71565499,0,0,.71565499,0,0)" d="M0 0H313V184H0Z" fill="#ffffff"/>
</g>
<g clip-path="url(#clip_1)">
<path transform="matrix(.71565499,0,0,.71565499,.35782749,.35782749)" d="M150.6 20H301.4C302.0303 20 302.65458 20.061488 303.27284 20.18446 303.89103 20.307435 304.49134 20.489533 305.0737 20.730753 305.65608 20.971976 306.2093 21.267687 306.73344 21.61789 307.25758 21.968092 307.7425 22.366053 308.18824 22.811774 308.63395 23.257494 309.0319 23.74241 309.38209 24.266524 309.73228 24.790635 310.02799 25.343873 310.26924 25.926236 310.51048 26.508599 310.69258 27.108897 310.81553 27.727129 310.93849 28.345364 310.99998 28.969655 311 29.6V170.4C310.99998 171.03034 310.93849 171.65462 310.81553 172.27286 310.69258 172.89107 310.51048 173.49137 310.26924 174.07375 310.02799 174.6561 309.73228 175.20934 309.38209 175.73345 309.0319 176.25756 308.63395 176.74248 308.18824 177.18822 307.7425 177.63394 307.25758 178.03189 306.73344 178.3821 306.2093 178.7323 305.65608 179.028 305.0737 179.26923 304.49134 179.51045 303.89103 179.69257 303.27284 179.81554 302.65458 179.9385 302.0303 180 301.4 180H150.6C149.96965 180 149.34537 179.9385 148.72713 179.81554 148.1089 179.69257 147.5086 179.51047 146.92624 179.26924 146.34387 179.02802 145.79064 178.7323 145.26653 178.3821 144.74242 178.03189 144.25749 177.63394 143.81177 177.18822 143.36605 176.74248 142.96808 176.25756 142.61788 175.73345 142.26767 175.20932 141.97196 174.65608 141.73073 174.07373 141.4895 173.49137 141.3074 172.89107 141.18444 172.27286 141.06147 171.65462 140.99999 171.03034 141 170.4V29.6C140.99999 28.969655 141.06147 28.345366 141.18444 27.72713 141.3074 27.108897 141.4895 26.508599 141.73073 25.926238 141.97196 25.343874 142.26767 24.790637 142.61788 24.266524 142.96808 23.74241 143.36605 23.257494 143.81177 22.811774 144.25749 22.366053 144.74242 21.968092 145.26653 21.61789 145.79064 21.267687 146.34387 20.971976 146.92624 20.730753 147.5086 20.489533 148.1089 20.307435 148.72713 20.18446 149.34537 20.061488 149.96965 20 150.6 20Z" fill="#ffffff"/>
<path transform="matrix(.71565499,0,0,.71565499,.35782749,.35782749)" d="M156.6 19.5H159.6V20.5H156.6V19.5ZM162.6 19.5H165.6V20.5H162.6V19.5ZM168.6 19.5H171.6V20.5H168.6V19.5ZM174.6 19.5H177.6V20.5H174.6V19.5ZM180.6 19.5H183.6V20.5H180.6V19.5ZM186.6 19.5H189.6V20.5H186.6V19.5ZM192.6 19.5H195.6V20.5H192.6V19.5ZM198.6 19.5H201.6V20.5H198.6V19.5ZM204.6 19.5H207.6V20.5H204.6V19.5ZM210.6 19.5H213.6V20.5H210.6V19.5ZM216.6 19.5H219.6V20.5H216.6V19.5ZM222.6 19.5H225.6V20.5H222.6V19.5ZM228.6 19.5H231.6V20.5H228.6V19.5ZM234.6 19.5H237.6V20.5H234.6V19.5ZM240.6 19.5H243.6V20.5H240.6V19.5ZM246.6 19.5H249.6V20.5H246.6V19.5ZM252.6 19.5H255.6V20.5H252.6V19.5ZM258.6 19.5H261.6V20.5H258.6V19.5ZM264.6 19.5H267.6V20.5H264.6V19.5ZM270.6 19.5H273.6V20.5H270.6V19.5ZM276.6 19.5H279.6V20.5H276.6V19.5ZM282.6 19.5H285.6V20.5H282.6V19.5ZM288.6 19.5H291.6V20.5H288.6V19.5ZM294.6 19.5H297.6V20.5H294.6V19.5ZM300.6 19.5H301.4C302.16206 19.500002 302.91447 19.58516 303.6573 19.755473L303.43379 20.730177C302.76454 20.576725 302.0866 20.5 301.4 20.5H300.6V19.5ZM306.61756 20.952038C307.54176 21.509676 308.35563 22.197726 309.0592 23.01619L308.3009 23.668065C307.66703 22.930653 306.93373 22.31072 306.10096 21.808266L306.61756 20.952038ZM310.71888 25.70531C311.13499 26.70083 311.38508 27.73637 311.4692 28.811932L310.47227 28.889958C310.39643 27.92091 310.17109 26.9879 309.7962 26.090928L310.71888 25.70531ZM311.5 31.81753V34.817529H310.5V31.81753H311.5ZM311.5 37.817529V40.817529H310.5V37.817529H311.5ZM311.5 43.817529V46.817529H310.5V43.817529H311.5ZM311.5 49.817529V52.817529H310.5V49.817529H311.5ZM311.5 55.817529V58.817529H310.5V55.817529H311.5ZM311.5 61.817529V64.81753H310.5V61.817529H311.5ZM311.5 67.81753V70.81753H310.5V67.81753H311.5ZM311.5 73.81753V76.81753H310.5V73.81753H311.5ZM311.5 79.81753V82.81753H310.5V79.81753H311.5ZM311.5 85.81753V88.81753H310.5V85.81753H311.5ZM311.5 91.81753V94.81753H310.5V91.81753H311.5ZM311.5 97.81753V100.81753H310.5V97.81753H311.5ZM311.5 103.81753V106.81753H310.5V103.81753H311.5ZM311.5 109.81753V112.81753H310.5V109.81753H311.5ZM311.5 115.81753V118.81753H310.5V115.81753H311.5ZM311.5 121.81753V124.817539H310.5V121.81753H311.5ZM311.5 127.81753V130.81754H310.5V127.81753H311.5ZM311.5 133.81754V136.81754H310.5V133.81754H311.5ZM311.5 139.81754V142.81754H310.5V139.81754H311.5ZM311.5 145.81754V148.81754H310.5V145.81754H311.5ZM311.5 151.81754V154.81754H310.5V151.81754H311.5ZM311.5 157.81754V160.81754H310.5V157.81754H311.5ZM311.5 163.81754V166.81754H310.5V163.81754H311.5ZM311.5 169.81754V170.4C311.50004 171.24118 311.3965 172.06955 311.18949 172.8851L310.22026 172.63904C310.40678 171.9043 310.50004 171.15795 310.5 170.4V169.81754H311.5ZM309.9266 175.81362C309.34754 176.72568 308.64039 177.52422 307.80516 178.20923L307.171 177.43604C307.9235 176.81884 308.5606 176.09937 309.08238 175.27764L309.9266 175.81362ZM305.08406 179.80414C304.08125 180.19702 303.04216 180.42366 301.9668 180.48407L301.9107 179.48566C302.87959 179.43123 303.81578 179.22704 304.7193 178.87305L305.08406 179.80414ZM298.9649 180.5H295.9649V179.5H298.9649V180.5ZM292.9649 180.5H289.9649V179.5H292.9649V180.5ZM286.9649 180.5H283.9649V179.5H286.9649V180.5ZM280.9649 180.5H277.9649V179.5H280.9649V180.5ZM274.9649 180.5H271.9649V179.5H274.9649V180.5ZM268.9649 180.5H265.9649V179.5H268.9649V180.5ZM262.9649 180.5H259.9649V179.5H262.9649V180.5ZM256.9649 180.5H253.9649V179.5H256.9649V180.5ZM250.9649 180.5H247.9649V179.5H250.9649V180.5ZM244.9649 180.5H241.9649V179.5H244.9649V180.5ZM238.9649 180.5H235.9649V179.5H238.9649V180.5ZM232.9649 180.5H229.9649V179.5H232.9649V180.5ZM226.9649 180.5H223.9649V179.5H226.9649V180.5ZM220.9649 180.5H217.9649V179.5H220.9649V180.5ZM214.9649 180.5H211.9649V179.5H214.9649V180.5ZM208.9649 180.5H205.9649V179.5H208.9649V180.5ZM202.9649 180.5H199.9649V179.5H202.9649V180.5ZM196.9649 180.5H193.9649V179.5H196.9649V180.5ZM190.9649 180.5H187.9649V179.5H190.9649V180.5ZM184.9649 180.5H181.9649V179.5H184.9649V180.5ZM178.9649 180.5H175.9649V179.5H178.9649V180.5ZM172.9649 180.5H169.9649V179.5H172.9649V180.5ZM166.9649 180.5H163.9649V179.5H166.9649V180.5ZM160.9649 180.5H157.9649V179.5H160.9649V180.5ZM154.9649 180.5H151.9649V179.5H154.9649V180.5ZM148.93264 180.36142C147.86768 180.1832 146.85727 179.8429 145.90139 179.34052L146.3666 178.45532C147.22785 178.90795 148.13822 179.21456 149.0977 179.37516L148.93264 180.36142ZM143.3498 177.43167C142.60277 176.6614 141.99393 175.79412 141.52327 174.82978L142.42195 174.39118C142.846 175.26007 143.39455 176.0415 144.06763 176.73548L143.3498 177.43167ZM140.59319 171.76883C140.53107 171.31467 140.5 170.85839 140.5 170.4V168.7474H141.5V170.4C141.5 170.81296 141.52799 171.22406 141.58397 171.6333L140.59319 171.76883ZM140.5 165.7474V162.7474H141.5V165.7474H140.5ZM140.5 159.7474V156.7474H141.5V159.7474H140.5ZM140.5 153.7474V150.7474H141.5V153.7474H140.5ZM140.5 147.7474V144.7474H141.5V147.7474H140.5ZM140.5 141.7474V138.7474H141.5V141.7474H140.5ZM140.5 135.7474V132.7474H141.5V135.7474H140.5ZM140.5 129.7474V126.747409H141.5V129.7474H140.5ZM140.5 123.747409V120.747409H141.5V123.747409H140.5ZM140.5 117.747409V114.747409H141.5V117.747409H140.5ZM140.5 111.747409V108.747409H141.5V111.747409H140.5ZM140.5 105.747409V102.747409H141.5V105.747409H140.5ZM140.5 99.747409V96.747409H141.5V99.747409H140.5ZM140.5 93.747409V90.747409H141.5V93.747409H140.5ZM140.5 87.747409V84.747409H141.5V87.747409H140.5ZM140.5 81.747409V78.747409H141.5V81.747409H140.5ZM140.5 75.747409V72.747409H141.5V75.747409H140.5ZM140.5 69.747409V66.7474H141.5V69.747409H140.5ZM140.5 63.747407V60.747407H141.5V63.747407H140.5ZM140.5 57.747407V54.747407H141.5V57.747407H140.5ZM140.5 51.747407V48.747407H141.5V51.747407H140.5ZM140.5 45.747407V42.7474H141.5V45.747407H140.5ZM140.5 39.747407V36.747407H141.5V39.747407H140.5ZM140.5 33.747407V30.747406H141.5V33.747407H140.5ZM140.67919 27.705954C140.8816 26.645726 141.24463 25.64375 141.76824 24.700024L142.64266 25.185177C142.17089 26.035429 141.84381 26.938195 141.66146 27.893473L140.67919 27.705954ZM143.73796 22.189047C144.52358 21.461575 145.4027 20.8739 146.37532 20.426022L146.7936 21.334343C145.91728 21.737877 145.12522 22.26736 144.41738 22.922797L143.73796 22.189047ZM149.45581 19.565022C149.83599 19.521674 150.21739 19.5 150.6 19.5H153.6V20.5H150.6C150.25527 20.5 149.91162 20.519528 149.56909 20.558583L149.45581 19.565022Z" fill="#969696"/>
<path transform="matrix(.71565499,0,0,.71565499,.35782749,.35782749)" d="M19 20H103C104.18189 20 105.35243 20.115288 106.51162 20.345864 107.67081 20.57644 108.796367 20.917876 109.88829 21.370167 110.980228 21.822459 112.01755 22.376917 113.00026 23.033543 113.98296 23.69017 114.89218 24.436348 115.72791 25.272076 116.56364 26.107802 117.309818 27.017022 117.96644 27.999732 118.62306 28.982443 119.17753 30.019764 119.62982 31.111695 120.082118 32.203626 120.42355 33.32918 120.65413 34.48837 120.88471 35.647558 121 36.8181 121 38V142C121 143.1819 120.88471 144.35243 120.65413 145.51161 120.42355 146.6708 120.082118 147.79636 119.62982 148.88829 119.17753 149.98021 118.62306 151.01752 117.96644 152.00023 117.309818 152.98294 116.56364 153.89217 115.72791 154.7279 114.89218 155.56362 113.98296 156.30979 113.00026 156.96642 112.01755 157.62305 110.980228 158.1775 109.88829 158.6298 108.796367 159.08209 107.67081 159.42354 106.51162 159.65412 105.35243 159.88469 104.18189 159.99999 103 160H19C17.818102 159.99999 16.647559 159.88469 15.488373 159.65412 14.3291859 159.42354 13.203627 159.08209 12.111697 158.6298 11.019767 158.1775 9.982446 157.62305 8.999735 156.96642 8.017024 156.30979 7.107805 155.56362 6.2720777 154.7279 5.4363505 153.89217 4.690173 152.98294 4.0335466 152.00023 3.3769198 151.01752 2.8224605 149.98021 2.3701683 148.88829 1.9178758 147.79636 1.5764414 146.6708 1.3458648 145.51161 1.1152881 144.35243 .99999997 143.1819 1 142V38C.99999997 36.8181 1.1152881 35.647558 1.3458648 34.48837 1.5764414 33.32918 1.9178758 32.203626 2.3701683 31.111695 2.8224605 30.019764 3.3769198 28.982443 4.0335466 27.999732 4.690173 27.017022 5.4363505 26.107802 6.2720777 25.272076 7.107805 24.436348 8.017024 23.69017 8.999736 23.033543 9.982447 22.376917 11.019767 21.822459 12.111697 21.370167 13.203627 20.917876 14.3291859 20.57644 15.488373 20.345864 16.647559 20.115288 17.818102 20 19 20Z" fill="#ffffff"/>
<path transform="matrix(.71565499,0,0,.71565499,.35782749,.35782749)" stroke-width="1" stroke-linecap="butt" stroke-miterlimit="4" stroke-linejoin="miter" fill="none" stroke="#969696" d="M19 20H103C104.18189 20 105.35243 20.115288 106.51162 20.345864 107.67081 20.57644 108.796367 20.917876 109.88829 21.370167 110.980228 21.822459 112.01755 22.376917 113.00026 23.033543 113.98296 23.69017 114.89218 24.436348 115.72791 25.272076 116.56364 26.107802 117.309818 27.017022 117.96644 27.999732 118.62306 28.982443 119.17753 30.019764 119.62982 31.111695 120.082118 32.203626 120.42355 33.32918 120.65413 34.48837 120.88471 35.647558 121 36.8181 121 38V142C121 143.1819 120.88471 144.35243 120.65413 145.51161 120.42355 146.6708 120.082118 147.79636 119.62982 148.88829 119.17753 149.98021 118.62306 151.01752 117.96644 152.00023 117.309818 152.98294 116.56364 153.89217 115.72791 154.7279 114.89218 155.56362 113.98296 156.30979 113.00026 156.96642 112.01755 157.62305 110.980228 158.1775 109.88829 158.6298 108.796367 159.08209 107.67081 159.42354 106.51162 159.65412 105.35243 159.88469 104.18189 159.99999 103 160H19C17.818102 159.99999 16.647559 159.88469 15.488373 159.65412 14.3291859 159.42354 13.203627 159.08209 12.111697 158.6298 11.019767 158.1775 9.982446 157.62305 8.999735 156.96642 8.017024 156.30979 7.107805 155.56362 6.2720777 154.7279 5.4363505 153.89217 4.690173 152.98294 4.0335466 152.00023 3.3769198 151.01752 2.8224605 149.98021 2.3701683 148.88829 1.9178758 147.79636 1.5764414 146.6708 1.3458648 145.51161 1.1152881 144.35243 .99999997 143.1819 1 142V38C.99999997 36.8181 1.1152881 35.647558 1.3458648 34.48837 1.5764414 33.32918 1.9178758 32.203626 2.3701683 31.111695 2.8224605 30.019764 3.3769198 28.982443 4.0335466 27.999732 4.690173 27.017022 5.4363505 26.107802 6.2720777 25.272076 7.107805 24.436348 8.017024 23.69017 8.999736 23.033543 9.982447 22.376917 11.019767 21.822459 12.111697 21.370167 13.203627 20.917876 14.3291859 20.57644 15.488373 20.345864 16.647559 20.115288 17.818102 20 19 20Z"/>
<path transform="matrix(.71565499,0,0,.71565499,.35782749,.35782749)" stroke-width="1" stroke-linecap="butt" stroke-miterlimit="10" stroke-linejoin="miter" fill="none" stroke="#000000" d="M211 80C211 80 211 81.293338 211 83.88"/>
<path transform="matrix(.71565499,0,0,.71565499,.35782749,.35782749)" d="M211 88.88 209.33 83.88H212.67L211 88.88Z"/>
<path transform="matrix(.71565499,0,0,.71565499,.35782749,.35782749)" stroke-width="1" stroke-linecap="butt" stroke-miterlimit="10" stroke-linejoin="miter" fill="none" stroke="#000000" d="M211 88.88 209.33 83.88H212.67L211 88.88Z"/>
<path transform="matrix(.71565499,0,0,.71565499,.35782749,.35782749)" d="M158.5 30H263.5C263.99247 30 264.48017 30.048037 264.96318 30.14411 265.44615 30.240183 265.9151 30.382447 266.3701 30.5709 266.82508 30.759356 267.25727 30.990382 267.66673 31.263976 268.0762 31.537569 268.45506 31.848477 268.80329 32.196699 269.1515 32.544916 269.46238 32.923757 269.73597 33.333219 270.00956 33.742685 270.2406 34.1749 270.42906 34.62987 270.6175 35.08484 270.75978 35.55382 270.85588 36.03682 270.95195 36.519819 270.99998 37.00754 271 37.5V72.5C270.99998 72.992458 270.95195 73.48017 270.85588 73.963169 270.75978 74.44616 270.6175 74.915149 270.42906 75.37012 270.2406 75.82509 270.00956 76.25731 269.73597 76.66677 269.46238 77.07623 269.1515 77.45508 268.80329 77.8033 268.45506 78.15151 268.0762 78.46242 267.66676 78.736019 267.2573 79.009609 266.82508 79.24063 266.3701 79.42909 265.9151 79.617549 265.44615 79.75981 264.96318 79.85589 264.48017 79.95196 263.99247 79.99999 263.5 80H158.5C158.00754 79.99999 157.5198 79.95196 157.03682 79.85589 156.5538 79.75981 156.08483 79.617549 155.62985 79.42909 155.17488 79.24063 154.74268 79.009609 154.3332 78.736019 153.92375 78.46242 153.54492 78.15151 153.1967 77.8033 152.84848 77.45508 152.53757 77.07623 152.26396 76.66677 151.99037 76.25731 151.75936 75.82509 151.57089 75.37012 151.38243 74.915149 151.24018 74.44616 151.1441 73.963169 151.04804 73.48017 151 72.992458 151 72.5V37.5C151 37.00754 151.04804 36.519819 151.1441 36.03682 151.24018 35.55382 151.38243 35.08484 151.57089 34.62987 151.75936 34.1749 151.99037 33.742685 152.26396 33.33322 152.53757 32.923757 152.84848 32.544916 153.1967 32.196699 153.54492 31.848477 153.92375 31.537569 154.33319 31.263976 154.74266 30.990382 155.17488 30.759356 155.62985 30.5709 156.08483 30.382447 156.5538 30.240183 157.03682 30.144108 157.5198 30.048037 158.00754 30 158.5 30Z" fill="#f8cecc"/>
<path transform="matrix(.71565499,0,0,.71565499,.35782749,.35782749)" stroke-width="1" stroke-linecap="butt" stroke-miterlimit="4" stroke-linejoin="miter" fill="none" stroke="#b85450" d="M158.5 30H263.5C263.99247 30 264.48017 30.048037 264.96318 30.14411 265.44615 30.240183 265.9151 30.382447 266.3701 30.5709 266.82508 30.759356 267.25727 30.990382 267.66673 31.263976 268.0762 31.537569 268.45506 31.848477 268.80329 32.196699 269.1515 32.544916 269.46238 32.923757 269.73597 33.333219 270.00956 33.742685 270.2406 34.1749 270.42906 34.62987 270.6175 35.08484 270.75978 35.55382 270.85588 36.03682 270.95195 36.519819 270.99998 37.00754 271 37.5V72.5C270.99998 72.992458 270.95195 73.48017 270.85588 73.963169 270.75978 74.44616 270.6175 74.915149 270.42906 75.37012 270.2406 75.82509 270.00956 76.25731 269.73597 76.66677 269.46238 77.07623 269.1515 77.45508 268.80329 77.8033 268.45506 78.15151 268.0762 78.46242 267.66676 78.736019 267.2573 79.009609 266.82508 79.24063 266.3701 79.42909 265.9151 79.617549 265.44615 79.75981 264.96318 79.85589 264.48017 79.95196 263.99247 79.99999 263.5 80H158.5C158.00754 79.99999 157.5198 79.95196 157.03682 79.85589 156.5538 79.75981 156.08483 79.617549 155.62985 79.42909 155.17488 79.24063 154.74268 79.009609 154.3332 78.736019 153.92375 78.46242 153.54492 78.15151 153.1967 77.8033 152.84848 77.45508 152.53757 77.07623 152.26396 76.66677 151.99037 76.25731 151.75936 75.82509 151.57089 75.37012 151.38243 74.915149 151.24018 74.44616 151.1441 73.963169 151.04804 73.48017 151 72.992458 151 72.5V37.5C151 37.00754 151.04804 36.519819 151.1441 36.03682 151.24018 35.55382 151.38243 35.08484 151.57089 34.62987 151.75936 34.1749 151.99037 33.742685 152.26396 33.33322 152.53757 32.923757 152.84848 32.544916 153.1967 32.196699 153.54492 31.848477 153.92375 31.537569 154.33319 31.263976 154.74266 30.990382 155.17488 30.759356 155.62985 30.5709 156.08483 30.382447 156.5538 30.240183 157.03682 30.144108 157.5198 30.048037 158.00754 30 158.5 30Z"/>
<text xml:space="preserve" transform="matrix(.71565499 0 0 .71565499 0 0)" font-size="12" font-family="LiberationSans"><tspan y="52" x="165.64063 174.30463 176.96863 183.64063 190.31262 194.30863 196.97263 203.64463 209.64463 216.31662 218.98062 222.31662 228.98862 235.66062 238.32462 240.98862 246.98862 252.98862">High-level policy:</tspan></text>
<text xml:space="preserve" transform="matrix(.71565499 0 0 .71565499 0 0)" font-size="12" font-family="LiberationSans"><tspan y="67" x="169.64063 177.64463 184.31662 186.98062 193.65262 199.65262 202.98862 206.32462 212.99662 219.66861 225.66861 229.00461 232.3406 238.3406 244.3406 247.00461 249.66861">Select best skill</tspan></text>
<path transform="matrix(.71565499,0,0,.71565499,.35782749,.35782749)" d="M158.5 90H263.5C263.99247 90 264.48017 90.048038 264.96318 90.144107 265.44615 90.24018 265.9151 90.382457 266.3701 90.57091 266.82508 90.75936 267.25727 90.99039 267.66673 91.26398 268.0762 91.537578 268.45506 91.84848 268.80329 92.1967 269.1515 92.54492 269.46238 92.92376 269.73597 93.33322 270.00956 93.74268 270.2406 94.174907 270.42906 94.62987 270.6175 95.08483 270.75978 95.55382 270.85588 96.03682 270.95195 96.51981 270.99998 97.007549 271 97.5V132.5C270.99998 132.99246 270.95195 133.4802 270.85588 133.96318 270.75978 134.44617 270.6175 134.91515 270.42906 135.37012 270.2406 135.82509 270.00956 136.2573 269.73597 136.66677 269.46238 137.07624 269.1515 137.45508 268.80329 137.8033 268.45506 138.1515 268.0762 138.4624 267.66676 138.73601 267.2573 139.0096 266.82508 139.24062 266.3701 139.42908 265.9151 139.61754 265.44615 139.7598 264.96318 139.85588 264.48017 139.95197 263.99247 140 263.5 140H158.5C158.00754 140 157.5198 139.95197 157.03682 139.85588 156.5538 139.7598 156.08483 139.61754 155.62985 139.42908 155.17488 139.24062 154.74268 139.0096 154.3332 138.73601 153.92375 138.4624 153.54492 138.1515 153.1967 137.8033 152.84848 137.45508 152.53757 137.07624 152.26396 136.66677 151.99037 136.2573 151.75936 135.82509 151.57089 135.37012 151.38243 134.91515 151.24018 134.44617 151.1441 133.96318 151.04804 133.4802 151 132.99246 151 132.5V97.5C151 97.007549 151.04804 96.51982 151.1441 96.03683 151.24018 95.55382 151.38243 95.08483 151.57089 94.62987 151.75936 94.174907 151.99037 93.74268 152.26396 93.33322 152.53757 92.92376 152.84848 92.54492 153.1967 92.1967 153.54492 91.84848 153.92375 91.53757 154.33319 91.26397 154.74266 90.99038 155.17488 90.75935 155.62985 90.5709 156.08483 90.38245 156.5538 90.24018 157.03682 90.144107 157.5198 90.048038 158.00754 90 158.5 90Z" fill="#e1d5e7"/>
<path transform="matrix(.71565499,0,0,.71565499,.35782749,.35782749)" stroke-width="1" stroke-linecap="butt" stroke-miterlimit="4" stroke-linejoin="miter" fill="none" stroke="#9673a6" d="M158.5 90H263.5C263.99247 90 264.48017 90.048038 264.96318 90.144107 265.44615 90.24018 265.9151 90.382457 266.3701 90.57091 266.82508 90.75936 267.25727 90.99039 267.66673 91.26398 268.0762 91.537578 268.45506 91.84848 268.80329 92.1967 269.1515 92.54492 269.46238 92.92376 269.73597 93.33322 270.00956 93.74268 270.2406 94.174907 270.42906 94.62987 270.6175 95.08483 270.75978 95.55382 270.85588 96.03682 270.95195 96.51981 270.99998 97.007549 271 97.5V132.5C270.99998 132.99246 270.95195 133.4802 270.85588 133.96318 270.75978 134.44617 270.6175 134.91515 270.42906 135.37012 270.2406 135.82509 270.00956 136.2573 269.73597 136.66677 269.46238 137.07624 269.1515 137.45508 268.80329 137.8033 268.45506 138.1515 268.0762 138.4624 267.66676 138.73601 267.2573 139.0096 266.82508 139.24062 266.3701 139.42908 265.9151 139.61754 265.44615 139.7598 264.96318 139.85588 264.48017 139.95197 263.99247 140 263.5 140H158.5C158.00754 140 157.5198 139.95197 157.03682 139.85588 156.5538 139.7598 156.08483 139.61754 155.62985 139.42908 155.17488 139.24062 154.74268 139.0096 154.3332 138.73601 153.92375 138.4624 153.54492 138.1515 153.1967 137.8033 152.84848 137.45508 152.53757 137.07624 152.26396 136.66677 151.99037 136.2573 151.75936 135.82509 151.57089 135.37012 151.38243 134.91515 151.24018 134.44617 151.1441 133.96318 151.04804 133.4802 151 132.99246 151 132.5V97.5C151 97.007549 151.04804 96.51982 151.1441 96.03683 151.24018 95.55382 151.38243 95.08483 151.57089 94.62987 151.75936 94.174907 151.99037 93.74268 152.26396 93.33322 152.53757 92.92376 152.84848 92.54492 153.1967 92.1967 153.54492 91.84848 153.92375 91.53757 154.33319 91.26397 154.74266 90.99038 155.17488 90.75935 155.62985 90.5709 156.08483 90.38245 156.5538 90.24018 157.03682 90.144107 157.5198 90.048038 158.00754 90 158.5 90Z"/>
<text xml:space="preserve" transform="matrix(.71565499 0 0 .71565499 0 0)" font-size="12" font-family="LiberationSans"><tspan y="112" x="166.96875 173.64075 180.31275 188.97675 192.97275 195.63675 202.30875 208.30875 214.98075 217.64475 220.98075 227.65274 234.32474 236.98874 239.65274 245.65274 251.65274">Low-level policy:</tspan></text>
<text xml:space="preserve" transform="matrix(.71565499 0 0 .71565499 0 0)" font-size="12" font-family="LiberationSans"><tspan y="127" x="174.64063 177.97663 187.97263 194.64463 198.64063 205.31262 211.31262 217.98462 221.32062 227.32062 233.32062 235.98462 238.64862 241.31262">Improve skills</tspan></text>
<path transform="matrix(.71565499,0,0,.71565499,0,0)" stroke-width="4" stroke-linecap="butt" stroke-miterlimit="10" stroke-linejoin="miter" fill="none" stroke="#bababa" d="M121 55H136.53"/>
<path transform="matrix(.71565499,0,0,.71565499,0,0)" d="M146.53 55 136.53 58.33V51.67L146.53 55Z" fill="#bababa"/>
<path transform="matrix(.71565499,0,0,.71565499,0,0)" stroke-width="4" stroke-linecap="butt" stroke-miterlimit="10" stroke-linejoin="miter" fill="none" stroke="#bababa" d="M146.53 55 136.53 58.33V51.67L146.53 55Z"/>
<path transform="matrix(.71565499,0,0,.71565499,0,0)" stroke-width="4" stroke-linecap="butt" stroke-miterlimit="10" stroke-linejoin="miter" fill="none" stroke="#bababa" d="M120.52 114.92 136.53 114.96"/>
<path transform="matrix(.71565499,0,0,.71565499,0,0)" d="M146.53 114.99 136.52 118.3 136.54 111.63 146.53 114.99Z" fill="#bababa"/>
<path transform="matrix(.71565499,0,0,.71565499,0,0)" stroke-width="4" stroke-linecap="butt" stroke-miterlimit="10" stroke-linejoin="miter" fill="none" stroke="#bababa" d="M146.53 114.99 136.52 118.3 136.54 111.63 146.53 114.99Z"/>
<path transform="matrix(.71565499,0,0,.71565499,.35782749,.35782749)" stroke-width="1" stroke-linecap="butt" stroke-miterlimit="10" stroke-linejoin="miter" fill="none" stroke="#000000" d="M271 160C291 160 301 142.5 301 107.5 301 72.5 293.04 55 277.12 55"/>
<path transform="matrix(.71565499,0,0,.71565499,.35782749,.35782749)" d="M272.12 55 277.12 53.33V56.67L272.12 55Z"/>
<path transform="matrix(.71565499,0,0,.71565499,.35782749,.35782749)" stroke-width="1" stroke-linecap="butt" stroke-miterlimit="10" stroke-linejoin="miter" fill="none" stroke="#000000" d="M272.12 55 277.12 53.33V56.67L272.12 55Z"/>
<path transform="matrix(.71565499,0,0,.71565499,.35782749,.35782749)" stroke-width="1" stroke-linecap="butt" stroke-miterlimit="10" stroke-linejoin="miter" fill="none" stroke="#000000" d="M271 160C284.33335 160 291 152.5 291 137.5 291 122.5 286.37333 115 277.12 115"/>
<path transform="matrix(.71565499,0,0,.71565499,.35782749,.35782749)" d="M272.12 115 277.12 113.33V116.67L272.12 115Z"/>
<path transform="matrix(.71565499,0,0,.71565499,.35782749,.35782749)" stroke-width="1" stroke-linecap="butt" stroke-miterlimit="10" stroke-linejoin="miter" fill="none" stroke="#000000" d="M272.12 115 277.12 113.33V116.67L272.12 115Z"/>
<path transform="matrix(.71565499,0,0,.71565499,.35782749,.35782749)" d="M154 150H268C268.3978 150 268.78047 150.07611 269.14799 150.22835 269.51554 150.38059 269.83998 150.59737 270.12129 150.87866 270.40257 151.15996 270.61936 151.48439 270.7716 151.85193 270.92387 152.21947 270.99998 152.60216 271 153V167C270.99998 167.39781 270.92387 167.78049 270.7716 168.14803 270.61936 168.51557 270.40257 168.84 270.12129 169.1213 269.83998 169.4026 269.51554 169.61939 269.148 169.77162 268.7805 169.92386 268.3978 169.99999 268 170H154C153.60216 169.99999 153.21947 169.92386 152.85193 169.77162 152.48439 169.61939 152.15998 169.4026 151.87868 169.1213 151.59737 168.84 151.38059 168.51557 151.22835 168.14803 151.07611 167.78049 150.99999 167.39781 151 167V153C150.99999 152.60216 151.07611 152.21947 151.22835 151.85193 151.38059 151.48439 151.59737 151.15996 151.87868 150.87866 152.15998 150.59737 152.48439 150.38059 152.85193 150.22835 153.21947 150.07611 153.60216 150 154 150Z" fill="#f5f5f5"/>
<path transform="matrix(.71565499,0,0,.71565499,.35782749,.35782749)" stroke-width="1" stroke-linecap="butt" stroke-miterlimit="4" stroke-linejoin="miter" fill="none" stroke="#666666" d="M154 150H268C268.3978 150 268.78047 150.07611 269.14799 150.22835 269.51554 150.38059 269.83998 150.59737 270.12129 150.87866 270.40257 151.15996 270.61936 151.48439 270.7716 151.85193 270.92387 152.21947 270.99998 152.60216 271 153V167C270.99998 167.39781 270.92387 167.78049 270.7716 168.14803 270.61936 168.51557 270.40257 168.84 270.12129 169.1213 269.83998 169.4026 269.51554 169.61939 269.148 169.77162 268.7805 169.92386 268.3978 169.99999 268 170H154C153.60216 169.99999 153.21947 169.92386 152.85193 169.77162 152.48439 169.61939 152.15998 169.4026 151.87868 169.1213 151.59737 168.84 151.38059 168.51557 151.22835 168.14803 151.07611 167.78049 150.99999 167.39781 151 167V153C150.99999 152.60216 151.07611 152.21947 151.22835 151.85193 151.38059 151.48439 151.59737 151.15996 151.87868 150.87866 152.15998 150.59737 152.48439 150.38059 152.85193 150.22835 153.21947 150.07611 153.60216 150 154 150Z"/>
<text fill="#333333" xml:space="preserve" transform="matrix(.71565499 0 0 .71565499 0 0)" font-size="12" font-family="LiberationSans"><tspan y="164" x="177.3125 185.3165 191.9885 197.9885 200.6525 204.6485 211.3205 217.9925 227.9885 234.66049 241.33249">Environment</tspan></text>
<text fill="#4a4a4a" xml:space="preserve" transform="matrix(.71565499 0 0 .71565499 0 0)" font-size="12" font-family="LiberationSans"><tspan y="14" x="152.79688 160.80088 166.80088 169.46488 172.12888 174.79288 178.78888 185.46088 192.13288 194.79688 201.46887 208.14087 214.81287 218.14887 226.81287 229.47687 236.14887 240.14487 246.81687 250.81287 256.81288 263.48487 266.14888 272.14888 278.82087 281.48487 284.82087 293.48487">Skill-guided Hierarchical RL</tspan></text>
<path transform="matrix(.71565499,0,0,.71565499,0,0)" d="M29 27H93V41H29Z" fill="#f8f9fa"/>
<text fill="#4a4a4a" xml:space="preserve" transform="matrix(.71565499 0 0 .71565499 0 0)" font-size="12" font-family="LiberationSans"><tspan y="38" x="28.984375 36.988378 43.660379 50.33238 54.328378 61.000379 67.67238 71.00838 73.67238 83.66838 90.34038">Sub-optimal</tspan></text>
<path transform="matrix(.71565499,0,0,.71565499,0,0)" d="M19 41H103V55H19Z" fill="#f8f9fa"/>
<text fill="#4a4a4a" xml:space="preserve" transform="matrix(.71565499 0 0 .71565499 0 0)" font-size="12" font-family="LiberationSans"><tspan y="52" x="18.96875 27.632752 34.304754 44.30075 50.97275 57.644754 63.644754 66.98075 70.97675 77.64876 80.98476 83.64876 90.320758 96.99275">Demonstrations</tspan></text>
<path transform="matrix(.71565499,0,0,.71565499,.35782749,.35782749)" d="M28 70H94C94.59673 70 95.17076 70.11418 95.72207 70.34254 96.27338 70.5709 96.76002 70.89606 97.18198 71.318019 97.60393 71.73997 97.929088 72.2266 98.15745 72.777919 98.38581 73.32923 98.49999 73.90326 98.5 74.5V95.5C98.49999 96.09673 98.38581 96.67076 98.15745 97.22207 97.929088 97.77338 97.60393 98.26002 97.18198 98.68198 96.76002 99.10392 96.27338 99.42908 95.72207 99.65745 95.17076 99.8858 94.59673 99.99999 94 100H28C27.403262 99.99999 26.829234 99.8858 26.27792 99.65744 25.726609 99.42908 25.239975 99.10392 24.818018 98.68198 24.39606 98.26002 24.0709 97.77338 23.842539 97.22206 23.614178 96.67075 23.499999 96.09673 23.5 95.5V74.5C23.499999 73.90326 23.614176 73.32923 23.842537 72.777919 24.0709 72.2266 24.39606 71.73997 24.818018 71.318019 25.239975 70.89606 25.726609 70.5709 26.27792 70.34254 26.829234 70.11418 27.403262 70 28 70Z" fill="#ffffff"/>
<path transform="matrix(.71565499,0,0,.71565499,.35782749,.35782749)" stroke-width="1" stroke-linecap="butt" stroke-miterlimit="4" stroke-linejoin="miter" fill="none" stroke="#cc0000" d="M28 70H94C94.59673 70 95.17076 70.11418 95.72207 70.34254 96.27338 70.5709 96.76002 70.89606 97.18198 71.318019 97.60393 71.73997 97.929088 72.2266 98.15745 72.777919 98.38581 73.32923 98.49999 73.90326 98.5 74.5V95.5C98.49999 96.09673 98.38581 96.67076 98.15745 97.22207 97.929088 97.77338 97.60393 98.26002 97.18198 98.68198 96.76002 99.10392 96.27338 99.42908 95.72207 99.65745 95.17076 99.8858 94.59673 99.99999 94 100H28C27.403262 99.99999 26.829234 99.8858 26.27792 99.65744 25.726609 99.42908 25.239975 99.10392 24.818018 98.68198 24.39606 98.26002 24.0709 97.77338 23.842539 97.22206 23.614178 96.67075 23.499999 96.09673 23.5 95.5V74.5C23.499999 73.90326 23.614176 73.32923 23.842537 72.777919 24.0709 72.2266 24.39606 71.73997 24.818018 71.318019 25.239975 70.89606 25.726609 70.5709 26.27792 70.34254 26.829234 70.11418 27.403262 70 28 70Z"/>
<text fill="#cc0000" xml:space="preserve" transform="matrix(.71565499 0 0 .71565499 0 0)" font-size="12" font-family="LiberationSans"><tspan y="89" x="36.828126 44.832128 50.832128 53.496129 56.16013 58.82413 62.160135 68.83214 72.82814 75.49214 82.16414">Skill prior</tspan></text>
<path transform="matrix(.71565499,0,0,.71565499,.35782749,.35782749)" d="M28 110H94C94.59673 110 95.17076 110.11418 95.72207 110.34254 96.27338 110.57089 96.76002 110.89605 97.18198 111.31801 97.60393 111.73996 97.929088 112.22659 98.15745 112.77791 98.38581 113.32922 98.49999 113.90325 98.5 114.5V135.5C98.49999 136.09673 98.38581 136.67075 98.15745 137.22205 97.929088 137.77336 97.60393 138.26001 97.18198 138.68198 96.76002 139.10393 96.27338 139.42908 95.72207 139.65744 95.17076 139.8858 94.59673 139.99999 94 140H28C27.403262 139.99999 26.829234 139.8858 26.27792 139.65744 25.726609 139.42908 25.239975 139.10393 24.818018 138.68198 24.39606 138.26001 24.0709 137.77336 23.842539 137.22205 23.614178 136.67075 23.499999 136.09673 23.5 135.5V114.5C23.499999 113.90325 23.614176 113.32922 23.842537 112.77791 24.0709 112.22659 24.39606 111.73996 24.818018 111.31801 25.239975 110.89605 25.726609 110.57089 26.27792 110.34254 26.829234 110.11418 27.403262 110 28 110Z" fill="#ffffff"/>
<path transform="matrix(.71565499,0,0,.71565499,.35782749,.35782749)" stroke-width="1" stroke-linecap="butt" stroke-miterlimit="4" stroke-linejoin="miter" fill="none" stroke="#4c0099" d="M28 110H94C94.59673 110 95.17076 110.11418 95.72207 110.34254 96.27338 110.57089 96.76002 110.89605 97.18198 111.31801 97.60393 111.73996 97.929088 112.22659 98.15745 112.77791 98.38581 113.32922 98.49999 113.90325 98.5 114.5V135.5C98.49999 136.09673 98.38581 136.67075 98.15745 137.22205 97.929088 137.77336 97.60393 138.26001 97.18198 138.68198 96.76002 139.10393 96.27338 139.42908 95.72207 139.65744 95.17076 139.8858 94.59673 139.99999 94 140H28C27.403262 139.99999 26.829234 139.8858 26.27792 139.65744 25.726609 139.42908 25.239975 139.10393 24.818018 138.68198 24.39606 138.26001 24.0709 137.77336 23.842539 137.22205 23.614178 136.67075 23.499999 136.09673 23.5 135.5V114.5C23.499999 113.90325 23.614176 113.32922 23.842537 112.77791 24.0709 112.22659 24.39606 111.73996 24.818018 111.31801 25.239975 110.89605 25.726609 110.57089 26.27792 110.34254 26.829234 110.11418 27.403262 110 28 110Z"/>
<text fill="#4c0099" xml:space="preserve" transform="matrix(.71565499 0 0 .71565499 0 0)" font-size="12" font-family="LiberationSans"><tspan y="129" x="27.140625 35.144628 41.144628 43.808629 46.47263 49.13663 52.472635 59.144636 65.816638 71.816638 78.48863 85.16063 91.83263">Skill decoder</tspan></text>
<path transform="matrix(.71565499,0,0,.71565499,.35782749,.35782749)" stroke-width="1" stroke-linecap="butt" stroke-miterlimit="10" stroke-linejoin="miter" fill="none" stroke="#000000" d="M211 140C211 140 211 141.29334 211 143.88"/>
<path transform="matrix(.71565499,0,0,.71565499,.35782749,.35782749)" d="M211 148.88 209.33 143.88H212.67L211 148.88Z"/>
<path transform="matrix(.71565499,0,0,.71565499,.35782749,.35782749)" stroke-width="1" stroke-linecap="butt" stroke-miterlimit="10" stroke-linejoin="miter" fill="none" stroke="#000000" d="M211 148.88 209.33 143.88H212.67L211 148.88Z"/>
</g>
</svg>
