<svg xmlns="http://www.w3.org/2000/svg" xmlns:xlink="http://www.w3.org/1999/xlink" version="1.1" width="227.04pt" height="171.12pt" viewBox="0 0 227.04 171.12">
<defs>
<clipPath id="clip_0">
<path transform="matrix(.24,0,0,.24,0,0)" d="M0 0H945.8334V710.121H0Z" fill-rule="evenodd"/>
</clipPath>
<clipPath id="clip_1">
<path transform="matrix(.24,0,0,.24,0,0)" d="M0 0H945.8334V704.15359H0Z" fill-rule="evenodd"/>
</clipPath>
</defs>
<g clip-path="url(#clip_0)">
<path transform="matrix(.71608838,0,0,.71608838,0,0)" d="M0 0H317V238H0Z" fill="#ffffff"/>
</g>
<g clip-path="url(#clip_1)">
<path transform="matrix(.71608838,0,0,.71608838,.35804419,.35804419)" d="M7.75 130H205.25C205.64395 130 206.03412 130.03842 206.42052 130.11528 206.80692 130.19214 207.1821 130.30596 207.54607 130.45671 207.91005 130.60747 208.25583 130.79228 208.5834 131.01117 208.91097 131.23006 209.21405 131.47878 209.49263 131.75736 209.7712 132.03594 210.01992 132.339 210.2388 132.66657 210.45769 132.99414 210.6425 133.33992 210.79326 133.70389 210.94402 134.06786 211.05783 134.44304 211.1347 134.82944 211.21157 135.21584 211.25 135.60604 211.25 136V164C211.25 164.39397 211.21157 164.78414 211.1347 165.17053 211.05783 165.55693 210.94402 165.93212 210.79326 166.29608 210.6425 166.66005 210.45769 167.00583 210.2388 167.33342 210.01992 167.66098 209.7712 167.96405 209.49263 168.24263 209.21405 168.5212 208.91097 168.76992 208.5834 168.9888 208.25583 169.20769 207.91005 169.3925 207.54608 169.54326 207.1821 169.69402 206.80692 169.80783 206.42053 169.8847 206.03414 169.96157 205.64395 170 205.25 170H7.75C7.3560345 170 6.9658539 169.96157 6.5794579 169.8847 6.193062 169.80783 5.817876 169.69402 5.453899 169.54326 5.089922 169.3925 4.7441484 169.20769 4.416578 168.9888 4.089008 168.76992 3.7859348 168.5212 3.507359 168.24263 3.2287834 167.96405 2.9800578 167.66098 2.761182 167.33342 2.5423065 167.00583 2.3574868 166.66005 2.2067226 166.29608 2.0559586 165.93212 1.942147 165.55693 1.8652881 165.17053 1.7884293 164.78414 1.7499999 164.39397 1.75 164V136C1.7499999 135.60604 1.7884292 135.21584 1.865288 134.82944 1.9421469 134.44304 2.0559586 134.06784 2.2067226 133.70388 2.3574868 133.3399 2.5423065 132.99413 2.761182 132.66657 2.9800578 132.339 3.2287834 132.03594 3.507359 131.75736 3.7859348 131.47878 4.089008 131.23006 4.4165785 131.01117 4.7441489 130.79228 5.089922 130.60747 5.453899 130.45671 5.817876 130.30596 6.193062 130.19214 6.5794575 130.11528 6.965853 130.03842 7.3560345 130 7.75 130Z" fill="#f8cecc"/>
<path transform="matrix(.71608838,0,0,.71608838,.35804419,.35804419)" stroke-width="3" stroke-linecap="butt" stroke-miterlimit="4" stroke-linejoin="miter" fill="none" stroke="#b85450" d="M7.75 130H205.25C205.64395 130 206.03412 130.03842 206.42052 130.11528 206.80692 130.19214 207.1821 130.30596 207.54607 130.45671 207.91005 130.60747 208.25583 130.79228 208.5834 131.01117 208.91097 131.23006 209.21405 131.47878 209.49263 131.75736 209.7712 132.03594 210.01992 132.339 210.2388 132.66657 210.45769 132.99414 210.6425 133.33992 210.79326 133.70389 210.94402 134.06786 211.05783 134.44304 211.1347 134.82944 211.21157 135.21584 211.25 135.60604 211.25 136V164C211.25 164.39397 211.21157 164.78414 211.1347 165.17053 211.05783 165.55693 210.94402 165.93212 210.79326 166.29608 210.6425 166.66005 210.45769 167.00583 210.2388 167.33342 210.01992 167.66098 209.7712 167.96405 209.49263 168.24263 209.21405 168.5212 208.91097 168.76992 208.5834 168.9888 208.25583 169.20769 207.91005 169.3925 207.54608 169.54326 207.1821 169.69402 206.80692 169.80783 206.42053 169.8847 206.03414 169.96157 205.64395 170 205.25 170H7.75C7.3560345 170 6.9658539 169.96157 6.5794579 169.8847 6.193062 169.80783 5.817876 169.69402 5.453899 169.54326 5.089922 169.3925 4.7441484 169.20769 4.416578 168.9888 4.089008 168.76992 3.7859348 168.5212 3.507359 168.24263 3.2287834 167.96405 2.9800578 167.66098 2.761182 167.33342 2.5423065 167.00583 2.3574868 166.66005 2.2067226 166.29608 2.0559586 165.93212 1.942147 165.55693 1.8652881 165.17053 1.7884293 164.78414 1.7499999 164.39397 1.75 164V136C1.7499999 135.60604 1.7884292 135.21584 1.865288 134.82944 1.9421469 134.44304 2.0559586 134.06784 2.2067226 133.70388 2.3574868 133.3399 2.5423065 132.99413 2.761182 132.66657 2.9800578 132.339 3.2287834 132.03594 3.507359 131.75736 3.7859348 131.47878 4.089008 131.23006 4.4165785 131.01117 4.7441489 130.79228 5.089922 130.60747 5.453899 130.45671 5.817876 130.30596 6.193062 130.19214 6.5794575 130.11528 6.965853 130.03842 7.3560345 130 7.75 130Z"/>
<text fill="#b85450" xml:space="preserve" transform="matrix(.71608838 0 0 .71608838 0 0)" font-size="15" font-family="LiberationSerif" font-weight="bold"><tspan y="147" x="11.15625 21.986252 29.486252 37.826253 43.66125 51.16125 55.331254 59.081254 69.08626 75.74626 84.086269 91.586269 99.086269 103.25626 110.75626 117.14502 120.62402 129.51563 136.17563 143.67563 152.01563 157.85063 162.84563 170.34563 177.00563 189.50063 196.16063">Causal Behavior Transformer</tspan></text>
<text fill="#b85450" xml:space="preserve" transform="matrix(.71608838 0 0 .71608838 0 0)" font-size="15" font-family="LiberationSerif" font-weight="bold"><tspan y="165" x="54 57.75 61.5">&#x00a0; (</tspan></text>
<text fill="#b85450" xml:space="preserve" transform="matrix(.71608838 0 0 .71608838 0 0)" font-size="15" font-family="LiberationSerif" font-weight="bold" font-style="italic"><tspan y="165" x="66.5 70.67 76.505 84.005 88.174999 96.515 103.175 110.675 114.425 121.925 126.646488 131.64148 135.81148 139.98148 148.32147 154.98148">trained offline)</tspan></text>
<path transform="matrix(.71608838,0,0,.71608838,.35804419,.35804419)" stroke-width="1" stroke-linecap="butt" stroke-miterlimit="10" stroke-linejoin="miter" fill="none" stroke="#969696" d="M243.5 80V60 80 68.12"/>
<path transform="matrix(.71608838,0,0,.71608838,.35804419,.35804419)" d="M243.5 61.12 247 68.12H240L243.5 61.12Z" fill="#969696"/>
<path transform="matrix(.71608838,0,0,.71608838,.35804419,.35804419)" stroke-width="1" stroke-linecap="butt" stroke-miterlimit="10" stroke-linejoin="miter" fill="none" stroke="#969696" d="M243.5 61.12 247 68.12H240L243.5 61.12Z"/>
<path transform="matrix(.71608838,0,0,.71608838,.35804419,.35804419)" d="M179.5 80H307.5C307.89396 80 308.28413 80.03843 308.67054 80.11528 309.05693 80.19214 309.4321 80.30595 309.79609 80.45671 310.16007 80.607479 310.50584 80.7923 310.83338 81.01118 311.16096 81.23005 311.46403 81.478778 311.7426 81.757358 312.02119 82.03593 312.2699 82.339 312.48878 82.666568 312.7076 82.99413 312.89244 83.33991 313.0432 83.703899 313.194 84.06787 313.30784 84.443058 313.3847 84.82945 313.46159 85.21584 313.5 85.606029 313.5 86V114C313.5 114.39396 313.46159 114.784137 313.3847 115.170528 313.30784 115.55692 313.194 115.93211 313.0432 116.29609 312.89244 116.660068 312.7076 117.00584 312.48878 117.333408 312.2699 117.66097 312.02119 117.96405 311.7426 118.24263 311.46403 118.5212 311.16096 118.76993 310.83338 118.98881 310.50584 119.20767 310.16007 119.392498 309.79609 119.54326 309.4321 119.69402 309.05693 119.80784 308.67054 119.8847 308.28413 119.961559 307.89396 119.99999 307.5 120H179.5C179.10604 119.99999 178.71584 119.961559 178.32944 119.8847 177.94304 119.80784 177.56784 119.69402 177.20386 119.54326 176.83989 119.392498 176.49413 119.20767 176.16655 118.98879 175.83899 118.76993 175.53592 118.5212 175.25734 118.24263 174.97876 117.96405 174.73004 117.66097 174.51116 117.333408 174.29227 117.00584 174.10746 116.660068 173.9567 116.29609 173.80593 115.93211 173.69213 115.55692 173.61528 115.17053 173.53842 114.784137 173.49999 114.39396 173.5 114V86C173.49999 85.606029 173.53842 85.21584 173.61528 84.82945 173.69213 84.443058 173.80593 84.06787 173.9567 83.703899 174.10746 83.33991 174.29227 82.99413 174.51116 82.666568 174.73004 82.339 174.97876 82.03593 175.25734 81.757358 175.53592 81.478778 175.83899 81.23005 176.16655 81.01118 176.49413 80.7923 176.83989 80.607479 177.20386 80.45671 177.56784 80.30595 177.94304 80.19214 178.32944 80.11528 178.71584 80.03843 179.10604 80 179.5 80Z" fill="#d5e8d4"/>
<path transform="matrix(.71608838,0,0,.71608838,.35804419,.35804419)" stroke-width="3" stroke-linecap="butt" stroke-miterlimit="4" stroke-linejoin="miter" fill="none" stroke="#82b366" d="M179.5 80H307.5C307.89396 80 308.28413 80.03843 308.67054 80.11528 309.05693 80.19214 309.4321 80.30595 309.79609 80.45671 310.16007 80.607479 310.50584 80.7923 310.83338 81.01118 311.16096 81.23005 311.46403 81.478778 311.7426 81.757358 312.02119 82.03593 312.2699 82.339 312.48878 82.666568 312.7076 82.99413 312.89244 83.33991 313.0432 83.703899 313.194 84.06787 313.30784 84.443058 313.3847 84.82945 313.46159 85.21584 313.5 85.606029 313.5 86V114C313.5 114.39396 313.46159 114.784137 313.3847 115.170528 313.30784 115.55692 313.194 115.93211 313.0432 116.29609 312.89244 116.660068 312.7076 117.00584 312.48878 117.333408 312.2699 117.66097 312.02119 117.96405 311.7426 118.24263 311.46403 118.5212 311.16096 118.76993 310.83338 118.98881 310.50584 119.20767 310.16007 119.392498 309.79609 119.54326 309.4321 119.69402 309.05693 119.80784 308.67054 119.8847 308.28413 119.961559 307.89396 119.99999 307.5 120H179.5C179.10604 119.99999 178.71584 119.961559 178.32944 119.8847 177.94304 119.80784 177.56784 119.69402 177.20386 119.54326 176.83989 119.392498 176.49413 119.20767 176.16655 118.98879 175.83899 118.76993 175.53592 118.5212 175.25734 118.24263 174.97876 117.96405 174.73004 117.66097 174.51116 117.333408 174.29227 117.00584 174.10746 116.660068 173.9567 116.29609 173.80593 115.93211 173.69213 115.55692 173.61528 115.17053 173.53842 114.784137 173.49999 114.39396 173.5 114V86C173.49999 85.606029 173.53842 85.21584 173.61528 84.82945 173.69213 84.443058 173.80593 84.06787 173.9567 83.703899 174.10746 83.33991 174.29227 82.99413 174.51116 82.666568 174.73004 82.339 174.97876 82.03593 175.25734 81.757358 175.53592 81.478778 175.83899 81.23005 176.16655 81.01118 176.49413 80.7923 176.83989 80.607479 177.20386 80.45671 177.56784 80.30595 177.94304 80.19214 178.32944 80.11528 178.71584 80.03843 179.10604 80 179.5 80Z"/>
<text fill="#82b366" xml:space="preserve" transform="matrix(.71608838 0 0 .71608838 0 0)" font-size="15" font-family="LiberationSerif" font-weight="bold"><tspan y="97" x="192.73438 203.56438 210.22438 216.05939 220.22939 228.56938 236.90938 244.40938 248.57938 252.32938 261.4944 268.9944 273.1644 277.3344 283.99443 291.49443">Residual Policy&#x00a0;</tspan></text>
<text fill="#82b366" xml:space="preserve" transform="matrix(.71608838 0 0 .71608838 0 0)" font-size="15" font-family="LiberationSerif" font-weight="bold" font-style="italic"><tspan y="115" x="181.90625 186.90125 191.07125 196.90625 204.40625 208.57625 216.91625 223.57625 231.07625 234.82625 244.83126 249.00125 253.17125 261.51127 265.26127 276.09126 286.09626 291.93125 301.09626">(trained with GAIL)</tspan></text>
<path transform="matrix(.71608838,0,0,.71608838,.35804419,.35804419)" stroke-width="1" stroke-linecap="butt" stroke-miterlimit="10" stroke-linejoin="miter" fill="none" stroke="#969696" d="M106.5 40V20 45 33.12"/>
<path transform="matrix(.71608838,0,0,.71608838,.35804419,.35804419)" d="M106.5 26.12 110 33.12H103L106.5 26.12Z" fill="#969696"/>
<path transform="matrix(.71608838,0,0,.71608838,.35804419,.35804419)" stroke-width="1" stroke-linecap="butt" stroke-miterlimit="10" stroke-linejoin="miter" fill="none" stroke="#969696" d="M106.5 26.12 110 33.12H103L106.5 26.12Z"/>
<path transform="matrix(.71608838,0,0,.71608838,.35804419,.35804419)" d="M116.5 50C116.49999 50.65661 116.43594 51.306909 116.30784 51.9509 116.17973 52.594896 115.99005 53.220205 115.73878 53.826829 115.4875 54.433454 115.17947 55.009744 114.814678 55.555696 114.44988 56.101648 114.03534 56.60677 113.57105 57.071065 113.10676 57.535356 112.60163 57.949899 112.05568 58.31469 111.50973 58.67948 110.93344 58.987516 110.32682 59.23879 109.7202 59.490064 109.09489 59.67975 108.45089 59.807847 107.8069 59.935945 107.15661 59.999998 106.5 60 105.84339 59.999998 105.193088 59.935945 104.549098 59.807844 103.9051 59.67975 103.279788 59.490064 102.67316 59.23879 102.06653 58.987516 101.490238 58.67948 100.94428 58.31469 100.39834 57.949899 99.89322 57.535356 99.42893 57.071065 98.96464 56.60677 98.550098 56.101648 98.1853 55.555696 97.82051 55.009744 97.512477 54.433454 97.2612 53.826829 97.009929 53.220205 96.820247 52.594896 96.69215 51.9509 96.56405 51.306909 96.5 50.65661 96.5 50 96.5 49.343389 96.56405 48.693086 96.69215 48.04909 96.820247 47.405099 97.009929 46.77979 97.2612 46.17316 97.512477 45.566534 97.82051 44.990243 98.185298 44.44429 98.550098 43.898344 98.96464 43.39322 99.42893 42.92893 99.89322 42.464635 100.39834 42.05009 100.94429 41.6853 101.49024 41.320508 102.06653 41.012475 102.67316 40.7612 103.279788 40.50993 103.9051 40.320245 104.549098 40.192148 105.193088 40.06405 105.84339 40 106.5 40 107.15661 40 107.8069 40.06405 108.45089 40.192148 109.09489 40.320245 109.7202 40.50993 110.32682 40.7612 110.93344 41.012475 111.50973 41.320508 112.05568 41.6853 112.60163 42.05009 113.10676 42.464635 113.57105 42.92893 114.03534 43.39322 114.44988 43.898344 114.814678 44.44429 115.17947 44.990243 115.4875 45.566534 115.73878 46.17316 115.99005 46.77979 116.17973 47.405099 116.30784 48.04909 116.43594 48.693086 116.49999 49.343389 116.5 50Z" fill="#f5f5f5"/>
<path transform="matrix(.71608838,0,0,.71608838,.35804419,.35804419)" stroke-width="1" stroke-linecap="butt" stroke-miterlimit="4" stroke-linejoin="miter" fill="none" stroke="#666666" d="M116.5 50C116.49999 50.65661 116.43594 51.306909 116.30784 51.9509 116.17973 52.594896 115.99005 53.220205 115.73878 53.826829 115.4875 54.433454 115.17947 55.009744 114.814678 55.555696 114.44988 56.101648 114.03534 56.60677 113.57105 57.071065 113.10676 57.535356 112.60163 57.949899 112.05568 58.31469 111.50973 58.67948 110.93344 58.987516 110.32682 59.23879 109.7202 59.490064 109.09489 59.67975 108.45089 59.807847 107.8069 59.935945 107.15661 59.999998 106.5 60 105.84339 59.999998 105.193088 59.935945 104.549098 59.807844 103.9051 59.67975 103.279788 59.490064 102.67316 59.23879 102.06653 58.987516 101.490238 58.67948 100.94428 58.31469 100.39834 57.949899 99.89322 57.535356 99.42893 57.071065 98.96464 56.60677 98.550098 56.101648 98.1853 55.555696 97.82051 55.009744 97.512477 54.433454 97.2612 53.826829 97.009929 53.220205 96.820247 52.594896 96.69215 51.9509 96.56405 51.306909 96.5 50.65661 96.5 50 96.5 49.343389 96.56405 48.693086 96.69215 48.04909 96.820247 47.405099 97.009929 46.77979 97.2612 46.17316 97.512477 45.566534 97.82051 44.990243 98.185298 44.44429 98.550098 43.898344 98.96464 43.39322 99.42893 42.92893 99.89322 42.464635 100.39834 42.05009 100.94429 41.6853 101.49024 41.320508 102.06653 41.012475 102.67316 40.7612 103.279788 40.50993 103.9051 40.320245 104.549098 40.192148 105.193088 40.06405 105.84339 40 106.5 40 107.15661 40 107.8069 40.06405 108.45089 40.192148 109.09489 40.320245 109.7202 40.50993 110.32682 40.7612 110.93344 41.012475 111.50973 41.320508 112.05568 41.6853 112.60163 42.05009 113.10676 42.464635 113.57105 42.92893 114.03534 43.39322 114.44988 43.898344 114.814678 44.44429 115.17947 44.990243 115.4875 45.566534 115.73878 46.17316 115.99005 46.77979 116.17973 47.405099 116.30784 48.04909 116.43594 48.693086 116.49999 49.343389 116.5 50Z"/>
<text fill="#969696" xml:space="preserve" transform="matrix(.71608838 0 0 .71608838 0 0)" font-size="14" font-family="LiberationSans" font-weight="bold"><tspan y="55" x="102.90625">+</tspan></text>
<text fill="#969696" xml:space="preserve" transform="matrix(.71608838 0 0 .71608838 0 0)" font-size="12" font-family="LiberationSerif" font-weight="bold"><tspan y="19" x="123.28125 129.28125 134.60926 138.60526 141.94126 147.94126 154.61325 157.61325 161.60926 167.60926 170.60926 175.93726 182.60926 188.60926 191.94525 197.05078 203.05078 209.72278 219.71878 225.04679 231.71878">action to environment</tspan></text>
<text fill="#969696" xml:space="preserve" transform="matrix(.71608838 0 0 .71608838 0 0)" font-size="12" font-family="LiberationSerif" font-weight="bold"><tspan y="224" x="33.75 37.746 43.073999 49.073999 53.069997 58.397996 63.725996 67.72199 73.72199 79.049999 85.049999 88.049999 92.046 97.14844 103.14844 113.14444 116.14444 121.47244 128.14444 134.14444 137.48044 142.58789 148.58789 155.25989 165.25589 170.5839 177.25589">trajectory from environment</tspan></text>
<path transform="matrix(.71608838,0,0,.71608838,.35804419,.35804419)" d="M116.5 15C116.49999 15.656609 116.43594 16.30691 116.30784 16.950901 116.17973 17.594895 115.99005 18.220206 115.73878 18.826832 115.4875 19.433459 115.17947 20.009749 114.814678 20.555699 114.44988 21.10165 114.03534 21.606774 113.57105 22.071066 113.10676 22.535359 112.60163 22.9499 112.05568 23.314692 111.50973 23.679486 110.93344 23.987519 110.32682 24.23879 109.7202 24.490065 109.09489 24.67975 108.45089 24.807848 107.8069 24.935948 107.15661 24.999999 106.5 25 105.84339 24.999999 105.193088 24.93595 104.549098 24.80785 103.9051 24.67975 103.279788 24.490065 102.67316 24.23879 102.06653 23.987519 101.490238 23.679486 100.94428 23.314692 100.39834 22.9499 99.89322 22.535359 99.42893 22.071066 98.96464 21.606774 98.550098 21.10165 98.1853 20.5557 97.82051 20.009749 97.512477 19.433459 97.2612 18.826832 97.009929 18.220206 96.820247 17.594895 96.69215 16.950901 96.56405 16.30691 96.5 15.656609 96.5 15 96.5 14.3433899 96.56405 13.693088 96.69215 13.049095 96.820247 12.405102 97.009929 11.779791 97.2612 11.173163 97.512477 10.566536 97.82051 9.990247 98.185298 9.444296 98.550098 8.898345 98.96464 8.393224 99.42893 7.9289319 99.89322 7.4646389 100.39834 7.0500957 100.94429 6.685303 101.49024 6.3205106 102.06653 6.0124776 102.67316 5.761204 103.279788 5.5099308 103.9051 5.3202455 104.549098 5.1921474 105.193088 5.0640494 105.84339 5 106.5 5 107.15661 5 107.8069 5.0640494 108.45089 5.1921474 109.09489 5.3202455 109.7202 5.5099308 110.32682 5.761204 110.93344 6.0124776 111.50973 6.3205106 112.05568 6.685303 112.60163 7.0500957 113.10676 7.4646389 113.57105 7.9289319 114.03534 8.393224 114.44988 8.898345 114.814678 9.444296 115.17947 9.990247 115.4875 10.566536 115.73878 11.173163 115.99005 11.779791 116.17973 12.405102 116.30784 13.049095 116.43594 13.693088 116.49999 14.3433899 116.5 15Z" fill="#f5f5f5"/>
<path transform="matrix(.71608838,0,0,.71608838,.35804419,.35804419)" stroke-width="1" stroke-linecap="butt" stroke-miterlimit="4" stroke-linejoin="miter" fill="none" stroke="#666666" d="M116.5 15C116.49999 15.656609 116.43594 16.30691 116.30784 16.950901 116.17973 17.594895 115.99005 18.220206 115.73878 18.826832 115.4875 19.433459 115.17947 20.009749 114.814678 20.555699 114.44988 21.10165 114.03534 21.606774 113.57105 22.071066 113.10676 22.535359 112.60163 22.9499 112.05568 23.314692 111.50973 23.679486 110.93344 23.987519 110.32682 24.23879 109.7202 24.490065 109.09489 24.67975 108.45089 24.807848 107.8069 24.935948 107.15661 24.999999 106.5 25 105.84339 24.999999 105.193088 24.93595 104.549098 24.80785 103.9051 24.67975 103.279788 24.490065 102.67316 24.23879 102.06653 23.987519 101.490238 23.679486 100.94428 23.314692 100.39834 22.9499 99.89322 22.535359 99.42893 22.071066 98.96464 21.606774 98.550098 21.10165 98.1853 20.5557 97.82051 20.009749 97.512477 19.433459 97.2612 18.826832 97.009929 18.220206 96.820247 17.594895 96.69215 16.950901 96.56405 16.30691 96.5 15.656609 96.5 15 96.5 14.3433899 96.56405 13.693088 96.69215 13.049095 96.820247 12.405102 97.009929 11.779791 97.2612 11.173163 97.512477 10.566536 97.82051 9.990247 98.185298 9.444296 98.550098 8.898345 98.96464 8.393224 99.42893 7.9289319 99.89322 7.4646389 100.39834 7.0500957 100.94429 6.685303 101.49024 6.3205106 102.06653 6.0124776 102.67316 5.761204 103.279788 5.5099308 103.9051 5.3202455 104.549098 5.1921474 105.193088 5.0640494 105.84339 5 106.5 5 107.15661 5 107.8069 5.0640494 108.45089 5.1921474 109.09489 5.3202455 109.7202 5.5099308 110.32682 5.761204 110.93344 6.0124776 111.50973 6.3205106 112.05568 6.685303 112.60163 7.0500957 113.10676 7.4646389 113.57105 7.9289319 114.03534 8.393224 114.44988 8.898345 114.814678 9.444296 115.17947 9.990247 115.4875 10.566536 115.73878 11.173163 115.99005 11.779791 116.17973 12.405102 116.30784 13.049095 116.43594 13.693088 116.49999 14.3433899 116.5 15Z"/>
<path transform="matrix(.016243969,0,0,-.01587197,72.32492,14.877824)" d="M33 157C33 224.33335 58.333333 288.33335 109 349 159.66667 409.66667 216.66666 440.33335 280 441 314 441 344 424.66667 370 392 380.66667 412 396 422 416 422 424.66667 422 432.33335 419.33335 439 414 445.66667 408.66667 449 402 449 394 449 385.33335 436.66667 332 412 234 387.33335 136 374.66667 80.666667 374 68 374 51.333333 376.33335 40.333333 381 35 385.66667 29.666666 392.66667 26.666666 402 26 408 26.666666 414.66667 29.666666 422 35 436 48.333337 449.66667 80.33333 463 131 467 144.33333 470.33335 151.33333 473 152 474.33335 152.66667 477.66667 153 483 153H487C499.66667 153 506 150 506 144 506 140 504.33335 131 501 117 497.66667 103 491 85 481 63 471 41 460.33335 24.333334 449 13 440.33335 4.333333 429.66667-2.6666666 417-8 411.66667-9.333333 403.66667-10 393-10 370.33335-10 351.33335-5 336 5 320.66667 15 310.66667 25.333333 306 36L300 51C299.33335 51.666669 298 51.333333 296 50 294.66667 48.666669 293.33335 47.333333 292 46 252.66666 8.666664 212.66667-10 172-10 135.33333-10 103 3.333332 75 30 47 56.666669 33 99 33 157ZM351 328C351 332 349.33335 339.33335 346 350 342.66667 360.66667 335 372.33335 323 385 311 397.66667 295.66667 404.33335 277 405 253.66667 405 231.33333 394.66667 210 374 188.66667 353.33335 172 326.33335 160 293 140.66667 240.33333 127 185.66667 119 129 119 127 119 123.333339 119 118 119 112.666667 118.666667 108.666667 118 106 118 76 124 55.333337 136 44 148 32.666666 162.33333 26.666666 179 26 204.33333 26 229.33333 37 254 59 278.66667 81 293.33335 98 298 110 299.33335 112.666667 308.33335 148.33333 325 217 341.66667 285.6667 350.33335 322.66667 351 328Z" fill="#969696"/>
<path transform="matrix(.016243969,0,0,-.01587197,72.32492,14.877824)" stroke-width="0" stroke-linecap="butt" stroke-miterlimit="4" stroke-linejoin="miter" fill="none" stroke="#969696" stroke-opacity=".2007" d="M33 157C33 224.33335 58.333333 288.33335 109 349 159.66667 409.66667 216.66666 440.33335 280 441 314 441 344 424.66667 370 392 380.66667 412 396 422 416 422 424.66667 422 432.33335 419.33335 439 414 445.66667 408.66667 449 402 449 394 449 385.33335 436.66667 332 412 234 387.33335 136 374.66667 80.666667 374 68 374 51.333333 376.33335 40.333333 381 35 385.66667 29.666666 392.66667 26.666666 402 26 408 26.666666 414.66667 29.666666 422 35 436 48.333337 449.66667 80.33333 463 131 467 144.33333 470.33335 151.33333 473 152 474.33335 152.66667 477.66667 153 483 153H487C499.66667 153 506 150 506 144 506 140 504.33335 131 501 117 497.66667 103 491 85 481 63 471 41 460.33335 24.333334 449 13 440.33335 4.333333 429.66667-2.6666666 417-8 411.66667-9.333333 403.66667-10 393-10 370.33335-10 351.33335-5 336 5 320.66667 15 310.66667 25.333333 306 36L300 51C299.33335 51.666669 298 51.333333 296 50 294.66667 48.666669 293.33335 47.333333 292 46 252.66666 8.666664 212.66667-10 172-10 135.33333-10 103 3.333332 75 30 47 56.666669 33 99 33 157ZM351 328C351 332 349.33335 339.33335 346 350 342.66667 360.66667 335 372.33335 323 385 311 397.66667 295.66667 404.33335 277 405 253.66667 405 231.33333 394.66667 210 374 188.66667 353.33335 172 326.33335 160 293 140.66667 240.33333 127 185.66667 119 129 119 127 119 123.333339 119 118 119 112.666667 118.666667 108.666667 118 106 118 76 124 55.333337 136 44 148 32.666666 162.33333 26.666666 179 26 204.33333 26 229.33333 37 254 59 278.66667 81 293.33335 98 298 110 299.33335 112.666667 308.33335 148.33333 325 217 341.66667 285.6667 350.33335 322.66667 351 328Z"/>
<path transform="matrix(.71608838,0,0,.71608838,.35804419,.35804419)" stroke-width="1" stroke-linecap="butt" stroke-miterlimit="10" stroke-linejoin="miter" fill="none" stroke="#969696" d="M233.5 50H124.62"/>
<path transform="matrix(.71608838,0,0,.71608838,.35804419,.35804419)" d="M117.62 50 124.62 46.5V53.5L117.62 50Z" fill="#969696"/>
<path transform="matrix(.71608838,0,0,.71608838,.35804419,.35804419)" stroke-width="1" stroke-linecap="butt" stroke-miterlimit="10" stroke-linejoin="miter" fill="none" stroke="#969696" d="M117.62 50 124.62 46.5V53.5L117.62 50Z"/>
<path transform="matrix(.71608838,0,0,.71608838,.35804419,.35804419)" d="M253.5 50C253.5 50.65661 253.43595 51.306909 253.30785 51.9509 253.17975 52.594896 252.99005 53.220205 252.73879 53.826829 252.48752 54.433454 252.17948 55.009744 251.81467 55.555696 251.44989 56.101648 251.03536 56.60677 250.57106 57.071065 250.10677 57.535356 249.60164 57.949899 249.0557 58.31469 248.50974 58.67948 247.93344 58.987516 247.32682 59.23879 246.7202 59.490064 246.09488 59.67975 245.45088 59.807847 244.80689 59.935945 244.1566 59.999998 243.5 60 242.84339 59.999998 242.19309 59.935945 241.54909 59.807844 240.90509 59.67975 240.27979 59.490064 239.67314 59.23879 239.06653 58.987516 238.49024 58.67948 237.94428 58.31469 237.39833 57.949899 236.8932 57.535356 236.42893 57.071065 235.96462 56.60677 235.55007 56.101648 235.18527 55.555696 234.82048 55.009744 234.51244 54.433454 234.26117 53.826829 234.0099 53.220205 233.82022 52.594896 233.69213 51.9509 233.56403 51.306909 233.49999 50.65661 233.5 50 233.49999 49.343389 233.56403 48.693086 233.69213 48.04909 233.82022 47.405099 234.0099 46.77979 234.26117 46.17316 234.51244 45.566534 234.82048 44.990243 235.18529 44.44429 235.55008 43.898344 235.96462 43.39322 236.42893 42.92893 236.8932 42.464635 237.39833 42.05009 237.94429 41.6853 238.49024 41.320508 239.06653 41.012475 239.67314 40.7612 240.27979 40.50993 240.90509 40.320245 241.54909 40.192148 242.19309 40.06405 242.84339 40 243.5 40 244.1566 40 244.80689 40.06405 245.45087 40.192148 246.09488 40.320245 246.7202 40.50993 247.32682 40.7612 247.93344 41.012475 248.50974 41.320508 249.05568 41.6853 249.60164 42.05009 250.10677 42.464635 250.57106 42.92893 251.03536 43.39322 251.44989 43.898344 251.81467 44.44429 252.17948 44.990243 252.48752 45.566534 252.73879 46.17316 252.99005 46.77979 253.17975 47.405099 253.30785 48.04909 253.43595 48.693086 253.5 49.343389 253.5 50Z" fill="#f5f5f5"/>
<path transform="matrix(.71608838,0,0,.71608838,.35804419,.35804419)" stroke-width="1" stroke-linecap="butt" stroke-miterlimit="4" stroke-linejoin="miter" fill="none" stroke="#666666" d="M253.5 50C253.5 50.65661 253.43595 51.306909 253.30785 51.9509 253.17975 52.594896 252.99005 53.220205 252.73879 53.826829 252.48752 54.433454 252.17948 55.009744 251.81467 55.555696 251.44989 56.101648 251.03536 56.60677 250.57106 57.071065 250.10677 57.535356 249.60164 57.949899 249.0557 58.31469 248.50974 58.67948 247.93344 58.987516 247.32682 59.23879 246.7202 59.490064 246.09488 59.67975 245.45088 59.807847 244.80689 59.935945 244.1566 59.999998 243.5 60 242.84339 59.999998 242.19309 59.935945 241.54909 59.807844 240.90509 59.67975 240.27979 59.490064 239.67314 59.23879 239.06653 58.987516 238.49024 58.67948 237.94428 58.31469 237.39833 57.949899 236.8932 57.535356 236.42893 57.071065 235.96462 56.60677 235.55007 56.101648 235.18527 55.555696 234.82048 55.009744 234.51244 54.433454 234.26117 53.826829 234.0099 53.220205 233.82022 52.594896 233.69213 51.9509 233.56403 51.306909 233.49999 50.65661 233.5 50 233.49999 49.343389 233.56403 48.693086 233.69213 48.04909 233.82022 47.405099 234.0099 46.77979 234.26117 46.17316 234.51244 45.566534 234.82048 44.990243 235.18529 44.44429 235.55008 43.898344 235.96462 43.39322 236.42893 42.92893 236.8932 42.464635 237.39833 42.05009 237.94429 41.6853 238.49024 41.320508 239.06653 41.012475 239.67314 40.7612 240.27979 40.50993 240.90509 40.320245 241.54909 40.192148 242.19309 40.06405 242.84339 40 243.5 40 244.1566 40 244.80689 40.06405 245.45087 40.192148 246.09488 40.320245 246.7202 40.50993 247.32682 40.7612 247.93344 41.012475 248.50974 41.320508 249.05568 41.6853 249.60164 42.05009 250.10677 42.464635 250.57106 42.92893 251.03536 43.39322 251.44989 43.898344 251.81467 44.44429 252.17948 44.990243 252.48752 45.566534 252.73879 46.17316 252.99005 46.77979 253.17975 47.405099 253.30785 48.04909 253.43595 48.693086 253.5 49.343389 253.5 50Z"/>
<path transform="matrix(.013528961,0,0,-.013191102,171.14714,39.969034)" d="M33 157C33 224.33335 58.333333 288.33335 109 349 159.66667 409.66667 216.66666 440.33335 280 441 314 441 344 424.66667 370 392 380.66667 412 396 422 416 422 424.66667 422 432.33335 419.33335 439 414 445.66667 408.66667 449 402 449 394 449 385.33335 436.66667 332 412 234 387.33335 136 374.66667 80.666667 374 68 374 51.333333 376.33335 40.333333 381 35 385.66667 29.666666 392.66667 26.666666 402 26 408 26.666666 414.66667 29.666666 422 35 436 48.333337 449.66667 80.33333 463 131 467 144.33333 470.33335 151.33333 473 152 474.33335 152.66667 477.66667 153 483 153H487C499.66667 153 506 150 506 144 506 140 504.33335 131 501 117 497.66667 103 491 85 481 63 471 41 460.33335 24.333334 449 13 440.33335 4.333333 429.66667-2.6666666 417-8 411.66667-9.333333 403.66667-10 393-10 370.33335-10 351.33335-5 336 5 320.66667 15 310.66667 25.333333 306 36L300 51C299.33335 51.666669 298 51.333333 296 50 294.66667 48.666669 293.33335 47.333333 292 46 252.66666 8.666664 212.66667-10 172-10 135.33333-10 103 3.333332 75 30 47 56.666669 33 99 33 157ZM351 328C351 332 349.33335 339.33335 346 350 342.66667 360.66667 335 372.33335 323 385 311 397.66667 295.66667 404.33335 277 405 253.66667 405 231.33333 394.66667 210 374 188.66667 353.33335 172 326.33335 160 293 140.66667 240.33333 127 185.66667 119 129 119 127 119 123.333339 119 118 119 112.666667 118.666667 108.666667 118 106 118 76 124 55.333337 136 44 148 32.666666 162.33333 26.666666 179 26 204.33333 26 229.33333 37 254 59 278.66667 81 293.33335 98 298 110 299.33335 112.666667 308.33335 148.33333 325 217 341.66667 285.6667 350.33335 322.66667 351 328Z" fill="#969696"/>
<path transform="matrix(.013528961,0,0,-.013191102,171.14714,39.969034)" stroke-width="0" stroke-linecap="butt" stroke-miterlimit="4" stroke-linejoin="miter" fill="none" stroke="#969696" stroke-opacity=".167" d="M33 157C33 224.33335 58.333333 288.33335 109 349 159.66667 409.66667 216.66666 440.33335 280 441 314 441 344 424.66667 370 392 380.66667 412 396 422 416 422 424.66667 422 432.33335 419.33335 439 414 445.66667 408.66667 449 402 449 394 449 385.33335 436.66667 332 412 234 387.33335 136 374.66667 80.666667 374 68 374 51.333333 376.33335 40.333333 381 35 385.66667 29.666666 392.66667 26.666666 402 26 408 26.666666 414.66667 29.666666 422 35 436 48.333337 449.66667 80.33333 463 131 467 144.33333 470.33335 151.33333 473 152 474.33335 152.66667 477.66667 153 483 153H487C499.66667 153 506 150 506 144 506 140 504.33335 131 501 117 497.66667 103 491 85 481 63 471 41 460.33335 24.333334 449 13 440.33335 4.333333 429.66667-2.6666666 417-8 411.66667-9.333333 403.66667-10 393-10 370.33335-10 351.33335-5 336 5 320.66667 15 310.66667 25.333333 306 36L300 51C299.33335 51.666669 298 51.333333 296 50 294.66667 48.666669 293.33335 47.333333 292 46 252.66666 8.666664 212.66667-10 172-10 135.33333-10 103 3.333332 75 30 47 56.666669 33 99 33 157ZM351 328C351 332 349.33335 339.33335 346 350 342.66667 360.66667 335 372.33335 323 385 311 397.66667 295.66667 404.33335 277 405 253.66667 405 231.33333 394.66667 210 374 188.66667 353.33335 172 326.33335 160 293 140.66667 240.33333 127 185.66667 119 129 119 127 119 123.333339 119 118 119 112.666667 118.666667 108.666667 118 106 118 76 124 55.333337 136 44 148 32.666666 162.33333 26.666666 179 26 204.33333 26 229.33333 37 254 59 278.66667 81 293.33335 98 298 110 299.33335 112.666667 308.33335 148.33333 325 217 341.66667 285.6667 350.33335 322.66667 351 328Z"/>
<path transform="matrix(.013528961,0,0,-.013191102,171.3433,35.589593)" d="M179 251C169 251 159.66667 249 151 245 142.33333 241 135.66667 237.33333 131 234 126.333339 230.66667 119.666667 224.33333 111 215L97 227 83 238C83 238.66667 87 243.66667 95 253 103 262.33335 111.666667 272.33335 121 283 130.33333 293.66667 137.33333 300.66667 142 304 157.33333 313.33335 172.33333 318 187 318 201.66667 318 223.66667 312 253 300 282.33335 288 304.66667 282 320 282 330 282 339.33335 284 348 288 356.66667 292 363.33335 295.66667 368 299 372.66667 302.33335 379.33335 308.66667 388 318L402 306 416 295C388.66667 255.66666 364.66667 231.33333 344 222 334.66667 217.33333 324.33335 215 313 215 299 215 277.33335 221 248 233 218.66667 245 195.66667 251 179 251Z" fill="#969696"/>
<path transform="matrix(.013528961,0,0,-.013191102,171.3433,35.589593)" stroke-width="0" stroke-linecap="butt" stroke-miterlimit="4" stroke-linejoin="miter" fill="none" stroke="#969696" stroke-opacity=".167" d="M179 251C169 251 159.66667 249 151 245 142.33333 241 135.66667 237.33333 131 234 126.333339 230.66667 119.666667 224.33333 111 215L97 227 83 238C83 238.66667 87 243.66667 95 253 103 262.33335 111.666667 272.33335 121 283 130.33333 293.66667 137.33333 300.66667 142 304 157.33333 313.33335 172.33333 318 187 318 201.66667 318 223.66667 312 253 300 282.33335 288 304.66667 282 320 282 330 282 339.33335 284 348 288 356.66667 292 363.33335 295.66667 368 299 372.66667 302.33335 379.33335 308.66667 388 318L402 306 416 295C388.66667 255.66666 364.66667 231.33333 344 222 334.66667 217.33333 324.33335 215 313 215 299 215 277.33335 221 248 233 218.66667 245 195.66667 251 179 251Z"/>
<path transform="matrix(.71608838,0,0,.71608838,.35804419,.35804419)" stroke-width="1" stroke-linecap="butt" stroke-miterlimit="10" stroke-linejoin="miter" fill="none" stroke="#969696" d="M116.5 100H165.38"/>
<path transform="matrix(.71608838,0,0,.71608838,.35804419,.35804419)" d="M172.38 100 165.38 103.5V96.5L172.38 100Z" fill="#969696"/>
<path transform="matrix(.71608838,0,0,.71608838,.35804419,.35804419)" stroke-width="1" stroke-linecap="butt" stroke-miterlimit="10" stroke-linejoin="miter" fill="none" stroke="#969696" d="M172.38 100 165.38 103.5V96.5L172.38 100Z"/>
<path transform="matrix(.71608838,0,0,.71608838,.35804419,.35804419)" d="M116.5 100C116.49999 100.65661 116.43594 101.3069 116.30784 101.95089 116.17973 102.59488 115.99005 103.22019 115.73878 103.82682 115.4875 104.43344 115.17947 105.009738 114.814678 105.55569 114.44988 106.10164 114.03534 106.606769 113.57105 107.07106 113.10676 107.53535 112.60163 107.94989 112.05568 108.31468 111.50973 108.679477 110.93344 108.98751 110.32682 109.238788 109.7202 109.49006 109.09489 109.67974 108.45089 109.807849 107.8069 109.93594 107.15661 109.99999 106.5 110 105.84339 109.99999 105.193088 109.93594 104.549098 109.80784 103.9051 109.67974 103.279788 109.49005 102.67316 109.23878 102.06653 108.9875 101.490238 108.679477 100.94428 108.31468 100.39834 107.94989 99.89322 107.53535 99.42893 107.07106 98.96464 106.606769 98.550098 106.10164 98.1853 105.55568 97.82051 105.00973 97.512477 104.43344 97.2612 103.82682 97.009929 103.22019 96.820247 102.59489 96.69215 101.9509 96.56405 101.30691 96.5 100.65661 96.5 100 96.5 99.34339 96.56405 98.693088 96.69215 98.049098 96.820247 97.4051 97.009929 96.779788 97.2612 96.17316 97.512477 95.566539 97.82051 94.99024 98.185298 94.44429 98.550098 93.89834 98.96464 93.39322 99.42893 92.92893 99.89322 92.46463 100.39834 92.05009 100.94429 91.685298 101.49024 91.3205 102.06653 91.012477 102.67316 90.7612 103.279788 90.509929 103.9051 90.320247 104.549098 90.19215 105.193088 90.06405 105.84339 90 106.5 90 107.15661 90 107.8069 90.06405 108.45089 90.19215 109.09489 90.320247 109.7202 90.509929 110.32682 90.7612 110.93344 91.012477 111.50973 91.3205 112.05568 91.685298 112.60163 92.05009 113.10676 92.46463 113.57105 92.92893 114.03534 93.39322 114.44988 93.89834 114.814678 94.44429 115.17947 94.99024 115.4875 95.566539 115.73878 96.17316 115.99005 96.779788 116.17973 97.4051 116.30784 98.049098 116.43594 98.693088 116.49999 99.34339 116.5 100Z" fill="#f5f5f5"/>
<path transform="matrix(.71608838,0,0,.71608838,.35804419,.35804419)" stroke-width="1" stroke-linecap="butt" stroke-miterlimit="4" stroke-linejoin="miter" fill="none" stroke="#666666" d="M116.5 100C116.49999 100.65661 116.43594 101.3069 116.30784 101.95089 116.17973 102.59488 115.99005 103.22019 115.73878 103.82682 115.4875 104.43344 115.17947 105.009738 114.814678 105.55569 114.44988 106.10164 114.03534 106.606769 113.57105 107.07106 113.10676 107.53535 112.60163 107.94989 112.05568 108.31468 111.50973 108.679477 110.93344 108.98751 110.32682 109.238788 109.7202 109.49006 109.09489 109.67974 108.45089 109.807849 107.8069 109.93594 107.15661 109.99999 106.5 110 105.84339 109.99999 105.193088 109.93594 104.549098 109.80784 103.9051 109.67974 103.279788 109.49005 102.67316 109.23878 102.06653 108.9875 101.490238 108.679477 100.94428 108.31468 100.39834 107.94989 99.89322 107.53535 99.42893 107.07106 98.96464 106.606769 98.550098 106.10164 98.1853 105.55568 97.82051 105.00973 97.512477 104.43344 97.2612 103.82682 97.009929 103.22019 96.820247 102.59489 96.69215 101.9509 96.56405 101.30691 96.5 100.65661 96.5 100 96.5 99.34339 96.56405 98.693088 96.69215 98.049098 96.820247 97.4051 97.009929 96.779788 97.2612 96.17316 97.512477 95.566539 97.82051 94.99024 98.185298 94.44429 98.550098 93.89834 98.96464 93.39322 99.42893 92.92893 99.89322 92.46463 100.39834 92.05009 100.94429 91.685298 101.49024 91.3205 102.06653 91.012477 102.67316 90.7612 103.279788 90.509929 103.9051 90.320247 104.549098 90.19215 105.193088 90.06405 105.84339 90 106.5 90 107.15661 90 107.8069 90.06405 108.45089 90.19215 109.09489 90.320247 109.7202 90.509929 110.32682 90.7612 110.93344 91.012477 111.50973 91.3205 112.05568 91.685298 112.60163 92.05009 113.10676 92.46463 113.57105 92.92893 114.03534 93.39322 114.44988 93.89834 114.814678 94.44429 115.17947 94.99024 115.4875 95.566539 115.73878 96.17316 115.99005 96.779788 116.17973 97.4051 116.30784 98.049098 116.43594 98.693088 116.49999 99.34339 116.5 100Z"/>
<path transform="matrix(.013536642,0,0,-.013098015,73.04101,75.7739)" d="M33 157C33 224.33335 58.333333 288.33335 109 349 159.66667 409.66667 216.66666 440.33335 280 441 314 441 344 424.66667 370 392 380.66667 412 396 422 416 422 424.66667 422 432.33335 419.33335 439 414 445.66667 408.66667 449 402 449 394 449 385.33335 436.66667 332 412 234 387.33335 136 374.66667 80.666667 374 68 374 51.333333 376.33335 40.333333 381 35 385.66667 29.666666 392.66667 26.666666 402 26 408 26.666666 414.66667 29.666666 422 35 436 48.333337 449.66667 80.33333 463 131 467 144.33333 470.33335 151.33333 473 152 474.33335 152.66667 477.66667 153 483 153H487C499.66667 153 506 150 506 144 506 140 504.33335 131 501 117 497.66667 103 491 85 481 63 471 41 460.33335 24.333334 449 13 440.33335 4.333333 429.66667-2.6666666 417-8 411.66667-9.333333 403.66667-10 393-10 370.33335-10 351.33335-5 336 5 320.66667 15 310.66667 25.333333 306 36L300 51C299.33335 51.666669 298 51.333333 296 50 294.66667 48.666669 293.33335 47.333333 292 46 252.66666 8.666664 212.66667-10 172-10 135.33333-10 103 3.333332 75 30 47 56.666669 33 99 33 157ZM351 328C351 332 349.33335 339.33335 346 350 342.66667 360.66667 335 372.33335 323 385 311 397.66667 295.66667 404.33335 277 405 253.66667 405 231.33333 394.66667 210 374 188.66667 353.33335 172 326.33335 160 293 140.66667 240.33333 127 185.66667 119 129 119 127 119 123.333339 119 118 119 112.666667 118.666667 108.666667 118 106 118 76 124 55.333337 136 44 148 32.666666 162.33333 26.666666 179 26 204.33333 26 229.33333 37 254 59 278.66667 81 293.33335 98 298 110 299.33335 112.666667 308.33335 148.33333 325 217 341.66667 285.6667 350.33335 322.66667 351 328Z" fill="#969696"/>
<path transform="matrix(.013536642,0,0,-.013098015,73.04101,75.7739)" stroke-width="0" stroke-linecap="butt" stroke-miterlimit="4" stroke-linejoin="miter" fill="none" stroke="#969696" stroke-opacity=".1664" d="M33 157C33 224.33335 58.333333 288.33335 109 349 159.66667 409.66667 216.66666 440.33335 280 441 314 441 344 424.66667 370 392 380.66667 412 396 422 416 422 424.66667 422 432.33335 419.33335 439 414 445.66667 408.66667 449 402 449 394 449 385.33335 436.66667 332 412 234 387.33335 136 374.66667 80.666667 374 68 374 51.333333 376.33335 40.333333 381 35 385.66667 29.666666 392.66667 26.666666 402 26 408 26.666666 414.66667 29.666666 422 35 436 48.333337 449.66667 80.33333 463 131 467 144.33333 470.33335 151.33333 473 152 474.33335 152.66667 477.66667 153 483 153H487C499.66667 153 506 150 506 144 506 140 504.33335 131 501 117 497.66667 103 491 85 481 63 471 41 460.33335 24.333334 449 13 440.33335 4.333333 429.66667-2.6666666 417-8 411.66667-9.333333 403.66667-10 393-10 370.33335-10 351.33335-5 336 5 320.66667 15 310.66667 25.333333 306 36L300 51C299.33335 51.666669 298 51.333333 296 50 294.66667 48.666669 293.33335 47.333333 292 46 252.66666 8.666664 212.66667-10 172-10 135.33333-10 103 3.333332 75 30 47 56.666669 33 99 33 157ZM351 328C351 332 349.33335 339.33335 346 350 342.66667 360.66667 335 372.33335 323 385 311 397.66667 295.66667 404.33335 277 405 253.66667 405 231.33333 394.66667 210 374 188.66667 353.33335 172 326.33335 160 293 140.66667 240.33333 127 185.66667 119 129 119 127 119 123.333339 119 118 119 112.666667 118.666667 108.666667 118 106 118 76 124 55.333337 136 44 148 32.666666 162.33333 26.666666 179 26 204.33333 26 229.33333 37 254 59 278.66667 81 293.33335 98 298 110 299.33335 112.666667 308.33335 148.33333 325 217 341.66667 285.6667 350.33335 322.66667 351 328Z"/>
<path transform="matrix(.013536642,0,0,-.013098015,73.2373,75.56434)" d="M112 560 249 694 257 686C343.6667 603.3333 387 561.3333 387 560L361 531C359.66667 531.6667 340.33335 548.3333 303 581L250 627 195 580C186.33333 572.6667 177.66667 565 169 557 160.33333 549 153.33333 542.6667 148 538L140 532C138.66667 530.6667 133.66667 535.3333 125 546L112 560Z" fill="#969696"/>
<path transform="matrix(.013536642,0,0,-.013098015,73.2373,75.56434)" stroke-width="0" stroke-linecap="butt" stroke-miterlimit="4" stroke-linejoin="miter" fill="none" stroke="#969696" stroke-opacity=".1664" d="M112 560 249 694 257 686C343.6667 603.3333 387 561.3333 387 560L361 531C359.66667 531.6667 340.33335 548.3333 303 581L250 627 195 580C186.33333 572.6667 177.66667 565 169 557 160.33333 549 153.33333 542.6667 148 538L140 532C138.66667 530.6667 133.66667 535.3333 125 546L112 560Z"/>
<text fill="#5e5e5e" xml:space="preserve" transform="matrix(.71608838 0 0 .71608838 0 0)" font-size="9" font-family="LiberationSerif" font-style="italic"><tspan y="209" x="147.25 149.752 152.002 154.999 157.249">t - 1</tspan></text>
<path transform="matrix(.71608838,0,0,.71608838,.35804419,.35804419)" d="M148 196C147.99999 196.6566 147.93593 197.3069 147.80783 197.95088 147.67974 198.59487 147.49004 199.22017 147.23877 199.82682 146.9875 200.43343 146.67948 201.00972 146.31468 201.55568 145.94989 202.10163 145.53536 202.60675 145.07106 203.07106 144.60675 203.53534 144.10163 203.94989 143.55567 204.31468 143.00972 204.67946 142.43344 204.98749 141.82682 205.23877 141.22019 205.49004 140.59488 205.67974 139.95088 205.80783 139.3069 205.93593 138.6566 205.99999 138 206 137.34339 205.99999 136.69309 205.93593 136.04909 205.80783 135.40509 205.67974 134.77979 205.49004 134.17314 205.23877 133.56653 204.98749 132.99024 204.67946 132.44428 204.31467 131.89833 203.94988 131.39322 203.53534 130.92893 203.07106 130.46463 202.60675 130.05008 202.10163 129.68529 201.55568 129.3205 201.00972 129.01247 200.43343 128.76119 199.82682 128.50992 199.22017 128.32024 198.59487 128.19214 197.95088 128.06404 197.3069 127.99999 196.6566 128 196 127.99999 195.34339 128.06403 194.69307 128.19213 194.04907 128.32022 193.40508 128.50992 192.77976 128.76119 192.17313 129.01247 191.5665 129.3205 190.9902 129.68529 190.44426 130.05008 189.89832 130.46463 189.39319 130.92893 188.92891 131.39322 188.46462 131.89833 188.05008 132.44428 187.68529 132.99024 187.3205 133.56653 187.01245 134.17314 186.76119 134.77979 186.50992 135.40509 186.32025 136.04909 186.19216 136.69309 186.06406 137.34339 186.00002 138 186 138.6566 186.00002 139.3069 186.06406 139.95088 186.19216 140.59488 186.32025 141.22019 186.50992 141.82682 186.76119 142.43344 187.01245 143.00974 187.3205 143.55568 187.68529 144.10163 188.05008 144.60675 188.46462 145.07106 188.92891 145.53536 189.39319 145.94989 189.89832 146.31468 190.44426 146.67948 190.9902 146.9875 191.5665 147.23877 192.17313 147.49004 192.77976 147.67974 193.40508 147.80783 194.04907 147.93593 194.69307 147.99999 195.34339 148 196Z" fill="#f5f5f5"/>
<path transform="matrix(.71608838,0,0,.71608838,.35804419,.35804419)" stroke-width="1" stroke-linecap="butt" stroke-miterlimit="4" stroke-linejoin="miter" fill="none" stroke="#666666" d="M148 196C147.99999 196.6566 147.93593 197.3069 147.80783 197.95088 147.67974 198.59487 147.49004 199.22017 147.23877 199.82682 146.9875 200.43343 146.67948 201.00972 146.31468 201.55568 145.94989 202.10163 145.53536 202.60675 145.07106 203.07106 144.60675 203.53534 144.10163 203.94989 143.55567 204.31468 143.00972 204.67946 142.43344 204.98749 141.82682 205.23877 141.22019 205.49004 140.59488 205.67974 139.95088 205.80783 139.3069 205.93593 138.6566 205.99999 138 206 137.34339 205.99999 136.69309 205.93593 136.04909 205.80783 135.40509 205.67974 134.77979 205.49004 134.17314 205.23877 133.56653 204.98749 132.99024 204.67946 132.44428 204.31467 131.89833 203.94988 131.39322 203.53534 130.92893 203.07106 130.46463 202.60675 130.05008 202.10163 129.68529 201.55568 129.3205 201.00972 129.01247 200.43343 128.76119 199.82682 128.50992 199.22017 128.32024 198.59487 128.19214 197.95088 128.06404 197.3069 127.99999 196.6566 128 196 127.99999 195.34339 128.06403 194.69307 128.19213 194.04907 128.32022 193.40508 128.50992 192.77976 128.76119 192.17313 129.01247 191.5665 129.3205 190.9902 129.68529 190.44426 130.05008 189.89832 130.46463 189.39319 130.92893 188.92891 131.39322 188.46462 131.89833 188.05008 132.44428 187.68529 132.99024 187.3205 133.56653 187.01245 134.17314 186.76119 134.77979 186.50992 135.40509 186.32025 136.04909 186.19216 136.69309 186.06406 137.34339 186.00002 138 186 138.6566 186.00002 139.3069 186.06406 139.95088 186.19216 140.59488 186.32025 141.22019 186.50992 141.82682 186.76119 142.43344 187.01245 143.00974 187.3205 143.55568 187.68529 144.10163 188.05008 144.60675 188.46462 145.07106 188.92891 145.53536 189.39319 145.94989 189.89832 146.31468 190.44426 146.67948 190.9902 146.9875 191.5665 147.23877 192.17313 147.49004 192.77976 147.67974 193.40508 147.80783 194.04907 147.93593 194.69307 147.99999 195.34339 148 196Z"/>
<path transform="matrix(.016243969,0,0,-.01587197,94.52366,144.4898)" d="M33 157C33 224.33335 58.333333 288.33335 109 349 159.66667 409.66667 216.66666 440.33335 280 441 314 441 344 424.66667 370 392 380.66667 412 396 422 416 422 424.66667 422 432.33335 419.33335 439 414 445.66667 408.66667 449 402 449 394 449 385.33335 436.66667 332 412 234 387.33335 136 374.66667 80.666667 374 68 374 51.333333 376.33335 40.333333 381 35 385.66667 29.666666 392.66667 26.666666 402 26 408 26.666666 414.66667 29.666666 422 35 436 48.333337 449.66667 80.33333 463 131 467 144.33333 470.33335 151.33333 473 152 474.33335 152.66667 477.66667 153 483 153H487C499.66667 153 506 150 506 144 506 140 504.33335 131 501 117 497.66667 103 491 85 481 63 471 41 460.33335 24.333334 449 13 440.33335 4.333333 429.66667-2.6666666 417-8 411.66667-9.333333 403.66667-10 393-10 370.33335-10 351.33335-5 336 5 320.66667 15 310.66667 25.333333 306 36L300 51C299.33335 51.666669 298 51.333333 296 50 294.66667 48.666669 293.33335 47.333333 292 46 252.66666 8.666664 212.66667-10 172-10 135.33333-10 103 3.333332 75 30 47 56.666669 33 99 33 157ZM351 328C351 332 349.33335 339.33335 346 350 342.66667 360.66667 335 372.33335 323 385 311 397.66667 295.66667 404.33335 277 405 253.66667 405 231.33333 394.66667 210 374 188.66667 353.33335 172 326.33335 160 293 140.66667 240.33333 127 185.66667 119 129 119 127 119 123.333339 119 118 119 112.666667 118.666667 108.666667 118 106 118 76 124 55.333337 136 44 148 32.666666 162.33333 26.666666 179 26 204.33333 26 229.33333 37 254 59 278.66667 81 293.33335 98 298 110 299.33335 112.666667 308.33335 148.33333 325 217 341.66667 285.6667 350.33335 322.66667 351 328Z" fill="#969696"/>
<path transform="matrix(.016243969,0,0,-.01587197,94.52366,144.4898)" stroke-width="0" stroke-linecap="butt" stroke-miterlimit="4" stroke-linejoin="miter" fill="none" stroke="#969696" stroke-opacity=".2007" d="M33 157C33 224.33335 58.333333 288.33335 109 349 159.66667 409.66667 216.66666 440.33335 280 441 314 441 344 424.66667 370 392 380.66667 412 396 422 416 422 424.66667 422 432.33335 419.33335 439 414 445.66667 408.66667 449 402 449 394 449 385.33335 436.66667 332 412 234 387.33335 136 374.66667 80.666667 374 68 374 51.333333 376.33335 40.333333 381 35 385.66667 29.666666 392.66667 26.666666 402 26 408 26.666666 414.66667 29.666666 422 35 436 48.333337 449.66667 80.33333 463 131 467 144.33333 470.33335 151.33333 473 152 474.33335 152.66667 477.66667 153 483 153H487C499.66667 153 506 150 506 144 506 140 504.33335 131 501 117 497.66667 103 491 85 481 63 471 41 460.33335 24.333334 449 13 440.33335 4.333333 429.66667-2.6666666 417-8 411.66667-9.333333 403.66667-10 393-10 370.33335-10 351.33335-5 336 5 320.66667 15 310.66667 25.333333 306 36L300 51C299.33335 51.666669 298 51.333333 296 50 294.66667 48.666669 293.33335 47.333333 292 46 252.66666 8.666664 212.66667-10 172-10 135.33333-10 103 3.333332 75 30 47 56.666669 33 99 33 157ZM351 328C351 332 349.33335 339.33335 346 350 342.66667 360.66667 335 372.33335 323 385 311 397.66667 295.66667 404.33335 277 405 253.66667 405 231.33333 394.66667 210 374 188.66667 353.33335 172 326.33335 160 293 140.66667 240.33333 127 185.66667 119 129 119 127 119 123.333339 119 118 119 112.666667 118.666667 108.666667 118 106 118 76 124 55.333337 136 44 148 32.666666 162.33333 26.666666 179 26 204.33333 26 229.33333 37 254 59 278.66667 81 293.33335 98 298 110 299.33335 112.666667 308.33335 148.33333 325 217 341.66667 285.6667 350.33335 322.66667 351 328Z"/>
<path transform="matrix(.71608838,0,0,.71608838,.35804419,.35804419)" d="M99 196C98.99999 196.33152 98.93656 196.6504 98.80969 196.9567 98.68282 197.26297 98.50218 197.53333 98.26776 197.76775 98.03333 198.00217 97.76298 198.1828 97.456699 198.30968 97.15041 198.43654 96.83152 198.49999 96.5 198.5 96.16847 198.49999 95.84956 198.43654 95.54328 198.30968 95.23699 198.1828 94.96664 198.00217 94.73222 197.76775 94.4978 197.53333 94.31716 197.26297 94.19029 196.95668 94.06342 196.6504 93.99999 196.33152 94 196 93.99999 195.66847 94.06342 195.34957 94.19029 195.04328 94.31716 194.73699 94.4978 194.46663 94.73222 194.23223 94.96664 193.9978 95.23699 193.81716 95.54328 193.69029 95.84956 193.56343 96.16847 193.5 96.5 193.5 96.83152 193.5 97.15041 193.56343 97.456699 193.69029 97.76298 193.81716 98.03333 193.9978 98.26776 194.23223 98.50218 194.46663 98.68282 194.73699 98.80969 195.04328 98.93656 195.34957 98.99999 195.66847 99 196Z" fill="#f5f5f5"/>
<path transform="matrix(.71608838,0,0,.71608838,.35804419,.35804419)" stroke-width="1" stroke-linecap="butt" stroke-miterlimit="4" stroke-linejoin="miter" fill="none" stroke="#666666" d="M99 196C98.99999 196.33152 98.93656 196.6504 98.80969 196.9567 98.68282 197.26297 98.50218 197.53333 98.26776 197.76775 98.03333 198.00217 97.76298 198.1828 97.456699 198.30968 97.15041 198.43654 96.83152 198.49999 96.5 198.5 96.16847 198.49999 95.84956 198.43654 95.54328 198.30968 95.23699 198.1828 94.96664 198.00217 94.73222 197.76775 94.4978 197.53333 94.31716 197.26297 94.19029 196.95668 94.06342 196.6504 93.99999 196.33152 94 196 93.99999 195.66847 94.06342 195.34957 94.19029 195.04328 94.31716 194.73699 94.4978 194.46663 94.73222 194.23223 94.96664 193.9978 95.23699 193.81716 95.54328 193.69029 95.84956 193.56343 96.16847 193.5 96.5 193.5 96.83152 193.5 97.15041 193.56343 97.456699 193.69029 97.76298 193.81716 98.03333 193.9978 98.26776 194.23223 98.50218 194.46663 98.68282 194.73699 98.80969 195.04328 98.93656 195.34957 98.99999 195.66847 99 196Z"/>
<path transform="matrix(.71608838,0,0,.71608838,.35804419,.35804419)" d="M109 196C109 196.33152 108.93656 196.6504 108.80969 196.9567 108.68282 197.26297 108.50218 197.53333 108.26776 197.76775 108.03334 198.00217 107.762989 198.1828 107.4567 198.30968 107.15042 198.43654 106.83152 198.49999 106.5 198.5 106.16847 198.49999 105.84956 198.43654 105.543277 198.30968 105.236988 198.1828 104.96663 198.00217 104.732219 197.76775 104.49779 197.53333 104.31715 197.26297 104.190288 196.95668 104.063419 196.6504 103.99999 196.33152 104 196 103.99999 195.66847 104.063419 195.34957 104.190288 195.04328 104.31715 194.73699 104.49779 194.46663 104.732219 194.23223 104.96663 193.9978 105.236988 193.81716 105.543277 193.69029 105.84956 193.56343 106.16847 193.5 106.5 193.5 106.83152 193.5 107.15042 193.56343 107.4567 193.69029 107.762989 193.81716 108.03334 193.9978 108.26776 194.23223 108.50218 194.46663 108.68282 194.73699 108.80969 195.04328 108.93656 195.34957 109 195.66847 109 196Z" fill="#f5f5f5"/>
<path transform="matrix(.71608838,0,0,.71608838,.35804419,.35804419)" stroke-width="1" stroke-linecap="butt" stroke-miterlimit="4" stroke-linejoin="miter" fill="none" stroke="#666666" d="M109 196C109 196.33152 108.93656 196.6504 108.80969 196.9567 108.68282 197.26297 108.50218 197.53333 108.26776 197.76775 108.03334 198.00217 107.762989 198.1828 107.4567 198.30968 107.15042 198.43654 106.83152 198.49999 106.5 198.5 106.16847 198.49999 105.84956 198.43654 105.543277 198.30968 105.236988 198.1828 104.96663 198.00217 104.732219 197.76775 104.49779 197.53333 104.31715 197.26297 104.190288 196.95668 104.063419 196.6504 103.99999 196.33152 104 196 103.99999 195.66847 104.063419 195.34957 104.190288 195.04328 104.31715 194.73699 104.49779 194.46663 104.732219 194.23223 104.96663 193.9978 105.236988 193.81716 105.543277 193.69029 105.84956 193.56343 106.16847 193.5 106.5 193.5 106.83152 193.5 107.15042 193.56343 107.4567 193.69029 107.762989 193.81716 108.03334 193.9978 108.26776 194.23223 108.50218 194.46663 108.68282 194.73699 108.80969 195.04328 108.93656 195.34957 109 195.66847 109 196Z"/>
<path transform="matrix(.71608838,0,0,.71608838,.35804419,.35804419)" d="M119 196C118.99999 196.33152 118.93655 196.6504 118.80968 196.9567 118.68281 197.26297 118.502178 197.53333 118.26776 197.76775 118.03334 198.00217 117.762989 198.1828 117.4567 198.30968 117.15042 198.43654 116.83152 198.49999 116.5 198.5 116.168468 198.49999 115.849559 198.43654 115.54327 198.30968 115.236988 198.1828 114.96664 198.00217 114.73222 197.76775 114.497798 197.53333 114.317157 197.26297 114.19029 196.95668 114.06342 196.6504 113.99999 196.33152 114 196 113.99999 195.66847 114.06342 195.34957 114.19029 195.04328 114.317157 194.73699 114.497798 194.46663 114.73222 194.23223 114.96664 193.9978 115.236988 193.81716 115.54327 193.69029 115.849559 193.56343 116.168468 193.5 116.5 193.5 116.83152 193.5 117.15042 193.56343 117.4567 193.69029 117.762989 193.81716 118.03334 193.9978 118.26776 194.23223 118.502178 194.46663 118.68281 194.73699 118.80968 195.04328 118.93655 195.34957 118.99999 195.66847 119 196Z" fill="#f5f5f5"/>
<path transform="matrix(.71608838,0,0,.71608838,.35804419,.35804419)" stroke-width="1" stroke-linecap="butt" stroke-miterlimit="4" stroke-linejoin="miter" fill="none" stroke="#666666" d="M119 196C118.99999 196.33152 118.93655 196.6504 118.80968 196.9567 118.68281 197.26297 118.502178 197.53333 118.26776 197.76775 118.03334 198.00217 117.762989 198.1828 117.4567 198.30968 117.15042 198.43654 116.83152 198.49999 116.5 198.5 116.168468 198.49999 115.849559 198.43654 115.54327 198.30968 115.236988 198.1828 114.96664 198.00217 114.73222 197.76775 114.497798 197.53333 114.317157 197.26297 114.19029 196.95668 114.06342 196.6504 113.99999 196.33152 114 196 113.99999 195.66847 114.06342 195.34957 114.19029 195.04328 114.317157 194.73699 114.497798 194.46663 114.73222 194.23223 114.96664 193.9978 115.236988 193.81716 115.54327 193.69029 115.849559 193.56343 116.168468 193.5 116.5 193.5 116.83152 193.5 117.15042 193.56343 117.4567 193.69029 117.762989 193.81716 118.03334 193.9978 118.26776 194.23223 118.502178 194.46663 118.68281 194.73699 118.80968 195.04328 118.93655 195.34957 118.99999 195.66847 119 196Z"/>
<path transform="matrix(.71608838,0,0,.71608838,.35804419,.35804419)" d="M41.5 196C41.5 196.6566 41.43595 197.3069 41.30785 197.95088 41.179754 198.59487 40.990068 199.22017 40.738798 199.82682 40.487524 200.43343 40.17949 201.00972 39.814699 201.55568 39.4499 202.10163 39.03536 202.60675 38.571069 203.07106 38.106779 203.53534 37.601655 203.94989 37.0557 204.31468 36.50975 204.67946 35.93346 204.98749 35.326829 205.23877 34.720205 205.49004 34.09489 205.67974 33.450899 205.80783 32.806909 205.93593 32.15661 205.99999 31.5 206 30.84339 205.99999 30.193089 205.93593 29.549096 205.80783 28.9051 205.67974 28.279789 205.49004 27.673163 205.23877 27.066534 204.98749 26.490246 204.67946 25.944296 204.31467 25.398346 203.94988 24.893225 203.53534 24.428933 203.07106 23.96464 202.60675 23.550097 202.10163 23.185305 201.55568 22.82051 201.00972 22.512476 200.43343 22.261204 199.82682 22.009928 199.22017 21.820242 198.59487 21.692147 197.95088 21.564049 197.3069 21.5 196.6566 21.5 196 21.5 195.34339 21.564049 194.69307 21.692147 194.04907 21.820242 193.40508 22.009928 192.77976 22.261204 192.17313 22.512476 191.5665 22.820509 190.9902 23.185303 190.44426 23.550097 189.89832 23.96464 189.39319 24.428933 188.92891 24.893225 188.46462 25.398346 188.05008 25.944296 187.68529 26.490246 187.3205 27.066536 187.01245 27.673165 186.76119 28.27979 186.50992 28.905102 186.32025 29.549094 186.19216 30.193089 186.06406 30.84339 186.00002 31.5 186 32.15661 186.00002 32.806909 186.06406 33.450899 186.19216 34.09489 186.32025 34.720205 186.50992 35.326829 186.76119 35.93346 187.01245 36.50975 187.3205 37.0557 187.68529 37.601655 188.05008 38.106779 188.46462 38.571069 188.92891 39.03536 189.39319 39.4499 189.89832 39.814699 190.44426 40.17949 190.9902 40.487524 191.5665 40.738798 192.17313 40.990068 192.77976 41.179754 193.40508 41.30785 194.04907 41.43595 194.69307 41.5 195.34339 41.5 196Z" fill="#f5f5f5"/>
<path transform="matrix(.71608838,0,0,.71608838,.35804419,.35804419)" stroke-width="1" stroke-linecap="butt" stroke-miterlimit="4" stroke-linejoin="miter" fill="none" stroke="#666666" d="M41.5 196C41.5 196.6566 41.43595 197.3069 41.30785 197.95088 41.179754 198.59487 40.990068 199.22017 40.738798 199.82682 40.487524 200.43343 40.17949 201.00972 39.814699 201.55568 39.4499 202.10163 39.03536 202.60675 38.571069 203.07106 38.106779 203.53534 37.601655 203.94989 37.0557 204.31468 36.50975 204.67946 35.93346 204.98749 35.326829 205.23877 34.720205 205.49004 34.09489 205.67974 33.450899 205.80783 32.806909 205.93593 32.15661 205.99999 31.5 206 30.84339 205.99999 30.193089 205.93593 29.549096 205.80783 28.9051 205.67974 28.279789 205.49004 27.673163 205.23877 27.066534 204.98749 26.490246 204.67946 25.944296 204.31467 25.398346 203.94988 24.893225 203.53534 24.428933 203.07106 23.96464 202.60675 23.550097 202.10163 23.185305 201.55568 22.82051 201.00972 22.512476 200.43343 22.261204 199.82682 22.009928 199.22017 21.820242 198.59487 21.692147 197.95088 21.564049 197.3069 21.5 196.6566 21.5 196 21.5 195.34339 21.564049 194.69307 21.692147 194.04907 21.820242 193.40508 22.009928 192.77976 22.261204 192.17313 22.512476 191.5665 22.820509 190.9902 23.185303 190.44426 23.550097 189.89832 23.96464 189.39319 24.428933 188.92891 24.893225 188.46462 25.398346 188.05008 25.944296 187.68529 26.490246 187.3205 27.066536 187.01245 27.673165 186.76119 28.27979 186.50992 28.905102 186.32025 29.549094 186.19216 30.193089 186.06406 30.84339 186.00002 31.5 186 32.15661 186.00002 32.806909 186.06406 33.450899 186.19216 34.09489 186.32025 34.720205 186.50992 35.326829 186.76119 35.93346 187.01245 36.50975 187.3205 37.0557 187.68529 37.601655 188.05008 38.106779 188.46462 38.571069 188.92891 39.03536 189.39319 39.4499 189.89832 39.814699 190.44426 40.17949 190.9902 40.487524 191.5665 40.738798 192.17313 40.990068 192.77976 41.179754 193.40508 41.30785 194.04907 41.43595 194.69307 41.5 195.34339 41.5 196Z"/>
<path transform="matrix(.015268409,0,0,-.015826159,19.334385,144.48787)" d="M131 289C131 310.33335 136.33333 332 147 354 157.66667 376 176.33333 396.33335 203 415 229.66667 433.66667 262 442.66667 300 442 341.33335 442 371.33335 433 390 415 408.66667 397 418.33335 377 419 355 419 333.66667 413.33335 318 402 308 390.66667 298 378 292.66667 364 292 355.33335 292 347.33335 294.66667 340 300 332.66667 305.33335 328.66667 314 328 326 328 336.66667 331 346 337 354 343 362 348.66667 368 354 372 359.33335 376 363.66667 378 367 378 367.66667 378 368 378.33335 368 379 368 381 365.66667 384 361 388 356.33335 392 348 395.66667 336 399 324 402.33335 311 404.33335 297 405 265 405 241.66667 396.33335 227 379 212.33333 361.66667 204.66667 344 204 326 204 309.33335 210.33333 297.66667 223 291 235.66667 284.33335 254 278.66667 278 274 302 269.33335 319.33335 264.33335 330 259 374 239.66667 396 207.66667 396 163 396 144.33333 392.33335 125.66667 385 107 377.66667 88.33333 366.66667 69.66667 352 51 337.33335 32.333333 316.33335 17.666668 289 7 261.66667-3.666667 230.33335-9.333333 195-10 143.66666-10 107.333339-.33333398 86 19 64.666667 38.333337 53.666669 61 53 87 53 113 60 131.66667 74 143 88 154.33333 102.666667 160 118 160 128 160 137.33333 157 146 151 154.66667 145 159.33333 134.66667 160 120 160 102.666667 154 88 142 76 130 64 119.666667 58 111 58 109.666667 57.333333 108.666667 57 108 57 107.333339 57 107 56.333333 107 55 107.666667 53 110.333339 50.333333 115 47 119.666667 43.666669 130 39.333333 146 34 162 28.666666 180.33333 26.333334 201 27 225 27 245.66667 30.666666 263 38 280.33335 45.333333 293 54.666666 301 66 309 77.333339 314.66667 87.666667 318 97 321.33335 106.333339 323 114.666667 323 122 323 140.66667 316 154.66667 302 164 288 173.33333 272 179 254 181 236 183 216.33333 188 195 196 173.66667 204 158 215.66667 148 231 136.66667 247.66667 131 267 131 289Z" fill="#969696"/>
<path transform="matrix(.015268409,0,0,-.015826159,19.334385,144.48787)" stroke-width="0" stroke-linecap="butt" stroke-miterlimit="4" stroke-linejoin="miter" fill="none" stroke="#969696" stroke-opacity=".1943" d="M131 289C131 310.33335 136.33333 332 147 354 157.66667 376 176.33333 396.33335 203 415 229.66667 433.66667 262 442.66667 300 442 341.33335 442 371.33335 433 390 415 408.66667 397 418.33335 377 419 355 419 333.66667 413.33335 318 402 308 390.66667 298 378 292.66667 364 292 355.33335 292 347.33335 294.66667 340 300 332.66667 305.33335 328.66667 314 328 326 328 336.66667 331 346 337 354 343 362 348.66667 368 354 372 359.33335 376 363.66667 378 367 378 367.66667 378 368 378.33335 368 379 368 381 365.66667 384 361 388 356.33335 392 348 395.66667 336 399 324 402.33335 311 404.33335 297 405 265 405 241.66667 396.33335 227 379 212.33333 361.66667 204.66667 344 204 326 204 309.33335 210.33333 297.66667 223 291 235.66667 284.33335 254 278.66667 278 274 302 269.33335 319.33335 264.33335 330 259 374 239.66667 396 207.66667 396 163 396 144.33333 392.33335 125.66667 385 107 377.66667 88.33333 366.66667 69.66667 352 51 337.33335 32.333333 316.33335 17.666668 289 7 261.66667-3.666667 230.33335-9.333333 195-10 143.66666-10 107.333339-.33333398 86 19 64.666667 38.333337 53.666669 61 53 87 53 113 60 131.66667 74 143 88 154.33333 102.666667 160 118 160 128 160 137.33333 157 146 151 154.66667 145 159.33333 134.66667 160 120 160 102.666667 154 88 142 76 130 64 119.666667 58 111 58 109.666667 57.333333 108.666667 57 108 57 107.333339 57 107 56.333333 107 55 107.666667 53 110.333339 50.333333 115 47 119.666667 43.666669 130 39.333333 146 34 162 28.666666 180.33333 26.333334 201 27 225 27 245.66667 30.666666 263 38 280.33335 45.333333 293 54.666666 301 66 309 77.333339 314.66667 87.666667 318 97 321.33335 106.333339 323 114.666667 323 122 323 140.66667 316 154.66667 302 164 288 173.33333 272 179 254 181 236 183 216.33333 188 195 196 173.66667 204 158 215.66667 148 231 136.66667 247.66667 131 267 131 289Z"/>
<text fill="#5e5e5e" xml:space="preserve" transform="matrix(.71608838 0 0 .71608838 0 0)" font-size="9" font-family="LiberationSerif" font-style="italic"><tspan y="209" x="39.25 41.752 44.002 46.999 49.249">t - H</tspan></text>
<path transform="matrix(.71608838,0,0,.71608838,.35804419,.35804419)" d="M80 196C79.99999 196.6566 79.93594 197.3069 79.807849 197.95088 79.67974 198.59487 79.49006 199.22017 79.238788 199.82682 78.98751 200.43343 78.679477 201.00972 78.31468 201.55568 77.94989 202.10163 77.53535 202.60675 77.07106 203.07106 76.606769 203.53534 76.10165 203.94989 75.555698 204.31468 75.00974 204.67946 74.43346 204.98749 73.82683 205.23877 73.2202 205.49004 72.59489 205.67974 71.9509 205.80783 71.30691 205.93593 70.65661 205.99999 70 206 69.34338 205.99999 68.69308 205.93593 68.04909 205.80783 67.4051 205.67974 66.779788 205.49004 66.17316 205.23877 65.56653 204.98749 64.99024 204.67946 64.44429 204.31467 63.89834 203.94988 63.39322 203.53534 62.92893 203.07106 62.464635 202.60675 62.05009 202.10163 61.6853 201.55568 61.320505 201.00972 61.01247 200.43343 60.761198 199.82682 60.509923 199.22017 60.320238 198.59487 60.19214 197.95088 60.06404 197.3069 59.999998 196.6566 60 196 59.999998 195.34339 60.06404 194.69307 60.19214 194.04907 60.320238 193.40508 60.509923 192.77976 60.761198 192.17313 61.01247 191.5665 61.320505 190.9902 61.685297 190.44426 62.05009 189.89832 62.464635 189.39319 62.92893 188.92891 63.39322 188.46462 63.89834 188.05008 64.44429 187.68529 64.99024 187.3205 65.56653 187.01245 66.17316 186.76119 66.779788 186.50992 67.4051 186.32025 68.04909 186.19216 68.69308 186.06406 69.34338 186.00002 70 186 70.65661 186.00002 71.30691 186.06406 71.9509 186.19216 72.59489 186.32025 73.2202 186.50992 73.82683 186.76119 74.43346 187.01245 75.00974 187.3205 75.555698 187.68529 76.10165 188.05008 76.606769 188.46462 77.07106 188.92891 77.53535 189.39319 77.94989 189.89832 78.31468 190.44426 78.679477 190.9902 78.98751 191.5665 79.238788 192.17313 79.49006 192.77976 79.67974 193.40508 79.807849 194.04907 79.93594 194.69307 79.99999 195.34339 80 196Z" fill="#f5f5f5"/>
<path transform="matrix(.71608838,0,0,.71608838,.35804419,.35804419)" stroke-width="1" stroke-linecap="butt" stroke-miterlimit="4" stroke-linejoin="miter" fill="none" stroke="#666666" d="M80 196C79.99999 196.6566 79.93594 197.3069 79.807849 197.95088 79.67974 198.59487 79.49006 199.22017 79.238788 199.82682 78.98751 200.43343 78.679477 201.00972 78.31468 201.55568 77.94989 202.10163 77.53535 202.60675 77.07106 203.07106 76.606769 203.53534 76.10165 203.94989 75.555698 204.31468 75.00974 204.67946 74.43346 204.98749 73.82683 205.23877 73.2202 205.49004 72.59489 205.67974 71.9509 205.80783 71.30691 205.93593 70.65661 205.99999 70 206 69.34338 205.99999 68.69308 205.93593 68.04909 205.80783 67.4051 205.67974 66.779788 205.49004 66.17316 205.23877 65.56653 204.98749 64.99024 204.67946 64.44429 204.31467 63.89834 203.94988 63.39322 203.53534 62.92893 203.07106 62.464635 202.60675 62.05009 202.10163 61.6853 201.55568 61.320505 201.00972 61.01247 200.43343 60.761198 199.82682 60.509923 199.22017 60.320238 198.59487 60.19214 197.95088 60.06404 197.3069 59.999998 196.6566 60 196 59.999998 195.34339 60.06404 194.69307 60.19214 194.04907 60.320238 193.40508 60.509923 192.77976 60.761198 192.17313 61.01247 191.5665 61.320505 190.9902 61.685297 190.44426 62.05009 189.89832 62.464635 189.39319 62.92893 188.92891 63.39322 188.46462 63.89834 188.05008 64.44429 187.68529 64.99024 187.3205 65.56653 187.01245 66.17316 186.76119 66.779788 186.50992 67.4051 186.32025 68.04909 186.19216 68.69308 186.06406 69.34338 186.00002 70 186 70.65661 186.00002 71.30691 186.06406 71.9509 186.19216 72.59489 186.32025 73.2202 186.50992 73.82683 186.76119 74.43346 187.01245 75.00974 187.3205 75.555698 187.68529 76.10165 188.05008 76.606769 188.46462 77.07106 188.92891 77.53535 189.39319 77.94989 189.89832 78.31468 190.44426 78.679477 190.9902 78.98751 191.5665 79.238788 192.17313 79.49006 192.77976 79.67974 193.40508 79.807849 194.04907 79.93594 194.69307 79.99999 195.34339 80 196Z"/>
<path transform="matrix(.016243969,0,0,-.01587197,45.829656,144.4898)" d="M33 157C33 224.33335 58.333333 288.33335 109 349 159.66667 409.66667 216.66666 440.33335 280 441 314 441 344 424.66667 370 392 380.66667 412 396 422 416 422 424.66667 422 432.33335 419.33335 439 414 445.66667 408.66667 449 402 449 394 449 385.33335 436.66667 332 412 234 387.33335 136 374.66667 80.666667 374 68 374 51.333333 376.33335 40.333333 381 35 385.66667 29.666666 392.66667 26.666666 402 26 408 26.666666 414.66667 29.666666 422 35 436 48.333337 449.66667 80.33333 463 131 467 144.33333 470.33335 151.33333 473 152 474.33335 152.66667 477.66667 153 483 153H487C499.66667 153 506 150 506 144 506 140 504.33335 131 501 117 497.66667 103 491 85 481 63 471 41 460.33335 24.333334 449 13 440.33335 4.333333 429.66667-2.6666666 417-8 411.66667-9.333333 403.66667-10 393-10 370.33335-10 351.33335-5 336 5 320.66667 15 310.66667 25.333333 306 36L300 51C299.33335 51.666669 298 51.333333 296 50 294.66667 48.666669 293.33335 47.333333 292 46 252.66666 8.666664 212.66667-10 172-10 135.33333-10 103 3.333332 75 30 47 56.666669 33 99 33 157ZM351 328C351 332 349.33335 339.33335 346 350 342.66667 360.66667 335 372.33335 323 385 311 397.66667 295.66667 404.33335 277 405 253.66667 405 231.33333 394.66667 210 374 188.66667 353.33335 172 326.33335 160 293 140.66667 240.33333 127 185.66667 119 129 119 127 119 123.333339 119 118 119 112.666667 118.666667 108.666667 118 106 118 76 124 55.333337 136 44 148 32.666666 162.33333 26.666666 179 26 204.33333 26 229.33333 37 254 59 278.66667 81 293.33335 98 298 110 299.33335 112.666667 308.33335 148.33333 325 217 341.66667 285.6667 350.33335 322.66667 351 328Z" fill="#969696"/>
<path transform="matrix(.016243969,0,0,-.01587197,45.829656,144.4898)" stroke-width="0" stroke-linecap="butt" stroke-miterlimit="4" stroke-linejoin="miter" fill="none" stroke="#969696" stroke-opacity=".2007" d="M33 157C33 224.33335 58.333333 288.33335 109 349 159.66667 409.66667 216.66666 440.33335 280 441 314 441 344 424.66667 370 392 380.66667 412 396 422 416 422 424.66667 422 432.33335 419.33335 439 414 445.66667 408.66667 449 402 449 394 449 385.33335 436.66667 332 412 234 387.33335 136 374.66667 80.666667 374 68 374 51.333333 376.33335 40.333333 381 35 385.66667 29.666666 392.66667 26.666666 402 26 408 26.666666 414.66667 29.666666 422 35 436 48.333337 449.66667 80.33333 463 131 467 144.33333 470.33335 151.33333 473 152 474.33335 152.66667 477.66667 153 483 153H487C499.66667 153 506 150 506 144 506 140 504.33335 131 501 117 497.66667 103 491 85 481 63 471 41 460.33335 24.333334 449 13 440.33335 4.333333 429.66667-2.6666666 417-8 411.66667-9.333333 403.66667-10 393-10 370.33335-10 351.33335-5 336 5 320.66667 15 310.66667 25.333333 306 36L300 51C299.33335 51.666669 298 51.333333 296 50 294.66667 48.666669 293.33335 47.333333 292 46 252.66666 8.666664 212.66667-10 172-10 135.33333-10 103 3.333332 75 30 47 56.666669 33 99 33 157ZM351 328C351 332 349.33335 339.33335 346 350 342.66667 360.66667 335 372.33335 323 385 311 397.66667 295.66667 404.33335 277 405 253.66667 405 231.33333 394.66667 210 374 188.66667 353.33335 172 326.33335 160 293 140.66667 240.33333 127 185.66667 119 129 119 127 119 123.333339 119 118 119 112.666667 118.666667 108.666667 118 106 118 76 124 55.333337 136 44 148 32.666666 162.33333 26.666666 179 26 204.33333 26 229.33333 37 254 59 278.66667 81 293.33335 98 298 110 299.33335 112.666667 308.33335 148.33333 325 217 341.66667 285.6667 350.33335 322.66667 351 328Z"/>
<text fill="#5e5e5e" xml:space="preserve" transform="matrix(.71608838 0 0 .71608838 0 0)" font-size="9" font-family="LiberationSerif" font-style="italic"><tspan y="209" x="78.25 80.752 83.002 85.999 88.249">t - H</tspan></text>
<path transform="matrix(.71608838,0,0,.71608838,.35804419,.35804419)" stroke-width="1" stroke-linecap="butt" stroke-miterlimit="10" stroke-linejoin="miter" fill="none" stroke="#969696" d="M185.5 196H243.5V128.12"/>
<path transform="matrix(.71608838,0,0,.71608838,.35804419,.35804419)" d="M243.5 121.12 247 128.12H240L243.5 121.12Z" fill="#969696"/>
<path transform="matrix(.71608838,0,0,.71608838,.35804419,.35804419)" stroke-width="1" stroke-linecap="butt" stroke-miterlimit="10" stroke-linejoin="miter" fill="none" stroke="#969696" d="M243.5 121.12 247 128.12H240L243.5 121.12Z"/>
<path transform="matrix(.71608838,0,0,.71608838,.35804419,.35804419)" d="M185.5 196C185.49999 196.6566 185.43593 197.3069 185.30783 197.95088 185.17974 198.59487 184.99004 199.22017 184.73877 199.82682 184.4875 200.43343 184.17948 201.00972 183.81468 201.55568 183.44989 202.10163 183.03534 202.60675 182.57106 203.07106 182.10677 203.53534 181.60164 203.94989 181.05568 204.31468 180.50974 204.67946 179.93344 204.98749 179.32682 205.23877 178.72019 205.49004 178.09488 205.67974 177.4509 205.80783 176.8069 205.93593 176.1566 205.99999 175.5 206 174.84339 205.99999 174.19309 205.93593 173.54909 205.80783 172.90509 205.67974 172.27979 205.49004 171.67316 205.23877 171.06652 204.98749 170.49022 204.67946 169.94428 204.31467 169.39833 203.94988 168.89322 203.53534 168.42893 203.07106 167.96463 202.60675 167.55008 202.10163 167.18529 201.55568 166.8205 201.00972 166.51245 200.43343 166.26119 199.82682 166.0099 199.22017 165.82022 198.59487 165.69213 197.95088 165.56403 197.3069 165.49999 196.6566 165.5 196 165.49999 195.34339 165.56403 194.69307 165.69213 194.04907 165.82022 193.40508 166.0099 192.77976 166.26119 192.17313 166.51245 191.5665 166.82048 190.9902 167.18527 190.44426 167.55008 189.89832 167.96463 189.39319 168.42893 188.92891 168.89322 188.46462 169.39833 188.05008 169.94428 187.68529 170.49022 187.3205 171.06652 187.01245 171.67316 186.76119 172.27979 186.50992 172.90509 186.32025 173.54909 186.19216 174.19309 186.06406 174.84339 186.00002 175.5 186 176.1566 186.00002 176.8069 186.06406 177.4509 186.19216 178.09488 186.32025 178.72019 186.50992 179.32682 186.76119 179.93344 187.01245 180.50974 187.3205 181.05568 187.68529 181.60164 188.05008 182.10677 188.46462 182.57106 188.92891 183.03534 189.39319 183.44989 189.89832 183.81468 190.44426 184.17948 190.9902 184.4875 191.5665 184.73877 192.17313 184.99004 192.77976 185.17974 193.40508 185.30783 194.04907 185.43593 194.69307 185.49999 195.34339 185.5 196Z" fill="#f5f5f5"/>
<path transform="matrix(.71608838,0,0,.71608838,.35804419,.35804419)" stroke-width="1" stroke-linecap="butt" stroke-miterlimit="4" stroke-linejoin="miter" fill="none" stroke="#666666" d="M185.5 196C185.49999 196.6566 185.43593 197.3069 185.30783 197.95088 185.17974 198.59487 184.99004 199.22017 184.73877 199.82682 184.4875 200.43343 184.17948 201.00972 183.81468 201.55568 183.44989 202.10163 183.03534 202.60675 182.57106 203.07106 182.10677 203.53534 181.60164 203.94989 181.05568 204.31468 180.50974 204.67946 179.93344 204.98749 179.32682 205.23877 178.72019 205.49004 178.09488 205.67974 177.4509 205.80783 176.8069 205.93593 176.1566 205.99999 175.5 206 174.84339 205.99999 174.19309 205.93593 173.54909 205.80783 172.90509 205.67974 172.27979 205.49004 171.67316 205.23877 171.06652 204.98749 170.49022 204.67946 169.94428 204.31467 169.39833 203.94988 168.89322 203.53534 168.42893 203.07106 167.96463 202.60675 167.55008 202.10163 167.18529 201.55568 166.8205 201.00972 166.51245 200.43343 166.26119 199.82682 166.0099 199.22017 165.82022 198.59487 165.69213 197.95088 165.56403 197.3069 165.49999 196.6566 165.5 196 165.49999 195.34339 165.56403 194.69307 165.69213 194.04907 165.82022 193.40508 166.0099 192.77976 166.26119 192.17313 166.51245 191.5665 166.82048 190.9902 167.18527 190.44426 167.55008 189.89832 167.96463 189.39319 168.42893 188.92891 168.89322 188.46462 169.39833 188.05008 169.94428 187.68529 170.49022 187.3205 171.06652 187.01245 171.67316 186.76119 172.27979 186.50992 172.90509 186.32025 173.54909 186.19216 174.19309 186.06406 174.84339 186.00002 175.5 186 176.1566 186.00002 176.8069 186.06406 177.4509 186.19216 178.09488 186.32025 178.72019 186.50992 179.32682 186.76119 179.93344 187.01245 180.50974 187.3205 181.05568 187.68529 181.60164 188.05008 182.10677 188.46462 182.57106 188.92891 183.03534 189.39319 183.44989 189.89832 183.81468 190.44426 184.17948 190.9902 184.4875 191.5665 184.73877 192.17313 184.99004 192.77976 185.17974 193.40508 185.30783 194.04907 185.43593 194.69307 185.49999 195.34339 185.5 196Z"/>
<path transform="matrix(.015268409,0,0,-.015826159,122.4511,144.48787)" d="M131 289C131 310.33335 136.33333 332 147 354 157.66667 376 176.33333 396.33335 203 415 229.66667 433.66667 262 442.66667 300 442 341.33335 442 371.33335 433 390 415 408.66667 397 418.33335 377 419 355 419 333.66667 413.33335 318 402 308 390.66667 298 378 292.66667 364 292 355.33335 292 347.33335 294.66667 340 300 332.66667 305.33335 328.66667 314 328 326 328 336.66667 331 346 337 354 343 362 348.66667 368 354 372 359.33335 376 363.66667 378 367 378 367.66667 378 368 378.33335 368 379 368 381 365.66667 384 361 388 356.33335 392 348 395.66667 336 399 324 402.33335 311 404.33335 297 405 265 405 241.66667 396.33335 227 379 212.33333 361.66667 204.66667 344 204 326 204 309.33335 210.33333 297.66667 223 291 235.66667 284.33335 254 278.66667 278 274 302 269.33335 319.33335 264.33335 330 259 374 239.66667 396 207.66667 396 163 396 144.33333 392.33335 125.66667 385 107 377.66667 88.33333 366.66667 69.66667 352 51 337.33335 32.333333 316.33335 17.666668 289 7 261.66667-3.666667 230.33335-9.333333 195-10 143.66666-10 107.333339-.33333398 86 19 64.666667 38.333337 53.666669 61 53 87 53 113 60 131.66667 74 143 88 154.33333 102.666667 160 118 160 128 160 137.33333 157 146 151 154.66667 145 159.33333 134.66667 160 120 160 102.666667 154 88 142 76 130 64 119.666667 58 111 58 109.666667 57.333333 108.666667 57 108 57 107.333339 57 107 56.333333 107 55 107.666667 53 110.333339 50.333333 115 47 119.666667 43.666669 130 39.333333 146 34 162 28.666666 180.33333 26.333334 201 27 225 27 245.66667 30.666666 263 38 280.33335 45.333333 293 54.666666 301 66 309 77.333339 314.66667 87.666667 318 97 321.33335 106.333339 323 114.666667 323 122 323 140.66667 316 154.66667 302 164 288 173.33333 272 179 254 181 236 183 216.33333 188 195 196 173.66667 204 158 215.66667 148 231 136.66667 247.66667 131 267 131 289Z" fill="#969696"/>
<path transform="matrix(.015268409,0,0,-.015826159,122.4511,144.48787)" stroke-width="0" stroke-linecap="butt" stroke-miterlimit="4" stroke-linejoin="miter" fill="none" stroke="#969696" stroke-opacity=".1943" d="M131 289C131 310.33335 136.33333 332 147 354 157.66667 376 176.33333 396.33335 203 415 229.66667 433.66667 262 442.66667 300 442 341.33335 442 371.33335 433 390 415 408.66667 397 418.33335 377 419 355 419 333.66667 413.33335 318 402 308 390.66667 298 378 292.66667 364 292 355.33335 292 347.33335 294.66667 340 300 332.66667 305.33335 328.66667 314 328 326 328 336.66667 331 346 337 354 343 362 348.66667 368 354 372 359.33335 376 363.66667 378 367 378 367.66667 378 368 378.33335 368 379 368 381 365.66667 384 361 388 356.33335 392 348 395.66667 336 399 324 402.33335 311 404.33335 297 405 265 405 241.66667 396.33335 227 379 212.33333 361.66667 204.66667 344 204 326 204 309.33335 210.33333 297.66667 223 291 235.66667 284.33335 254 278.66667 278 274 302 269.33335 319.33335 264.33335 330 259 374 239.66667 396 207.66667 396 163 396 144.33333 392.33335 125.66667 385 107 377.66667 88.33333 366.66667 69.66667 352 51 337.33335 32.333333 316.33335 17.666668 289 7 261.66667-3.666667 230.33335-9.333333 195-10 143.66666-10 107.333339-.33333398 86 19 64.666667 38.333337 53.666669 61 53 87 53 113 60 131.66667 74 143 88 154.33333 102.666667 160 118 160 128 160 137.33333 157 146 151 154.66667 145 159.33333 134.66667 160 120 160 102.666667 154 88 142 76 130 64 119.666667 58 111 58 109.666667 57.333333 108.666667 57 108 57 107.333339 57 107 56.333333 107 55 107.666667 53 110.333339 50.333333 115 47 119.666667 43.666669 130 39.333333 146 34 162 28.666666 180.33333 26.333334 201 27 225 27 245.66667 30.666666 263 38 280.33335 45.333333 293 54.666666 301 66 309 77.333339 314.66667 87.666667 318 97 321.33335 106.333339 323 114.666667 323 122 323 140.66667 316 154.66667 302 164 288 173.33333 272 179 254 181 236 183 216.33333 188 195 196 173.66667 204 158 215.66667 148 231 136.66667 247.66667 131 267 131 289Z"/>
<text fill="#5e5e5e" xml:space="preserve" transform="matrix(.71608838 0 0 .71608838 0 0)" font-size="9" font-family="LiberationSerif" font-style="italic"><tspan y="209" x="187.125 189.627">t&#x00a0;</tspan></text>
<path transform="matrix(.71608838,0,0,.71608838,.35804419,.35804419)" stroke-width="1" stroke-linecap="butt" stroke-miterlimit="10" stroke-linejoin="miter" fill="none" stroke="#969696" d="M176 186V179.12"/>
<path transform="matrix(.71608838,0,0,.71608838,.35804419,.35804419)" d="M176 172.12 179.5 179.12H172.5L176 172.12Z" fill="#969696"/>
<path transform="matrix(.71608838,0,0,.71608838,.35804419,.35804419)" stroke-width="1" stroke-linecap="butt" stroke-miterlimit="10" stroke-linejoin="miter" fill="none" stroke="#969696" d="M176 172.12 179.5 179.12H172.5L176 172.12Z"/>
<path transform="matrix(.71608838,0,0,.71608838,.35804419,.35804419)" stroke-width="1" stroke-linecap="butt" stroke-miterlimit="10" stroke-linejoin="miter" fill="none" stroke="#969696" d="M138 186V179.12"/>
<path transform="matrix(.71608838,0,0,.71608838,.35804419,.35804419)" d="M138 172.12 141.5 179.12H134.5L138 172.12Z" fill="#969696"/>
<path transform="matrix(.71608838,0,0,.71608838,.35804419,.35804419)" stroke-width="1" stroke-linecap="butt" stroke-miterlimit="10" stroke-linejoin="miter" fill="none" stroke="#969696" d="M138 172.12 141.5 179.12H134.5L138 172.12Z"/>
<path transform="matrix(.71608838,0,0,.71608838,.35804419,.35804419)" stroke-width="1" stroke-linecap="butt" stroke-miterlimit="10" stroke-linejoin="miter" fill="none" stroke="#969696" d="M70 186V179.12"/>
<path transform="matrix(.71608838,0,0,.71608838,.35804419,.35804419)" d="M70 172.12 73.5 179.12H66.5L70 172.12Z" fill="#969696"/>
<path transform="matrix(.71608838,0,0,.71608838,.35804419,.35804419)" stroke-width="1" stroke-linecap="butt" stroke-miterlimit="10" stroke-linejoin="miter" fill="none" stroke="#969696" d="M70 172.12 73.5 179.12H66.5L70 172.12Z"/>
<path transform="matrix(.71608838,0,0,.71608838,.35804419,.35804419)" stroke-width="1" stroke-linecap="butt" stroke-miterlimit="10" stroke-linejoin="miter" fill="none" stroke="#969696" d="M31 186V179.12"/>
<path transform="matrix(.71608838,0,0,.71608838,.35804419,.35804419)" d="M31 172.12 34.5 179.12H27.5L31 172.12Z" fill="#969696"/>
<path transform="matrix(.71608838,0,0,.71608838,.35804419,.35804419)" stroke-width="1" stroke-linecap="butt" stroke-miterlimit="10" stroke-linejoin="miter" fill="none" stroke="#969696" d="M31 172.12 34.5 179.12H27.5L31 172.12Z"/>
<path transform="matrix(.71608838,0,0,.71608838,.35804419,.35804419)" stroke-width="1" stroke-linecap="butt" stroke-miterlimit="10" stroke-linejoin="miter" fill="none" stroke="#969696" d="M106.5 130 106.36 118.12"/>
<path transform="matrix(.71608838,0,0,.71608838,.35804419,.35804419)" d="M106.27 111.12 109.86 118.08 102.86 118.16 106.27 111.12Z" fill="#969696"/>
<path transform="matrix(.71608838,0,0,.71608838,.35804419,.35804419)" stroke-width="1" stroke-linecap="butt" stroke-miterlimit="10" stroke-linejoin="miter" fill="none" stroke="#969696" d="M106.27 111.12 109.86 118.08 102.86 118.16 106.27 111.12Z"/>
<path transform="matrix(.71608838,0,0,.71608838,.35804419,.35804419)" stroke-width="1" stroke-linecap="butt" stroke-miterlimit="10" stroke-linejoin="miter" fill="none" stroke="#969696" d="M106.5 90V68.12"/>
<path transform="matrix(.71608838,0,0,.71608838,.35804419,.35804419)" d="M106.5 61.12 110 68.12H103L106.5 61.12Z" fill="#969696"/>
<path transform="matrix(.71608838,0,0,.71608838,.35804419,.35804419)" stroke-width="1" stroke-linecap="butt" stroke-miterlimit="10" stroke-linejoin="miter" fill="none" stroke="#969696" d="M106.5 61.12 110 68.12H103L106.5 61.12Z"/>
<text fill="#5e5e5e" xml:space="preserve" transform="matrix(.71608838 0 0 .71608838 0 0)" font-size="9" font-family="LiberationSerif" font-style="italic"><tspan y="28" x="116.125 118.627">t&#x00a0;</tspan></text>
<text fill="#5e5e5e" xml:space="preserve" transform="matrix(.71608838 0 0 .71608838 0 0)" font-size="9" font-family="LiberationSerif" font-style="italic"><tspan y="113" x="115.125 117.627">t&#x00a0;</tspan></text>
<text fill="#5e5e5e" xml:space="preserve" transform="matrix(.71608838 0 0 .71608838 0 0)" font-size="9" font-family="LiberationSerif" font-style="italic"><tspan y="62" x="253.125 255.627">t&#x00a0;</tspan></text>
</g>
</svg>
