<?xml version="1.0" encoding="utf-8" standalone="no"?>
<!DOCTYPE svg PUBLIC "-//W3C//DTD SVG 1.1//EN"
  "http://www.w3.org/Graphics/SVG/1.1/DTD/svg11.dtd">
<!-- Created with matplotlib (https://matplotlib.org/) -->
<svg height="288pt" version="1.1" viewBox="0 0 432 288" width="432pt" xmlns="http://www.w3.org/2000/svg" xmlns:xlink="http://www.w3.org/1999/xlink">
 <metadata>
  <rdf:RDF xmlns:cc="http://creativecommons.org/ns#" xmlns:dc="http://purl.org/dc/elements/1.1/" xmlns:rdf="http://www.w3.org/1999/02/22-rdf-syntax-ns#">
   <cc:Work>
    <dc:type rdf:resource="http://purl.org/dc/dcmitype/StillImage"/>
    <dc:date>2022-11-03T18:30:33.350834</dc:date>
    <dc:format>image/svg+xml</dc:format>
    <dc:creator>
     <cc:Agent>
      <dc:title>Matplotlib v3.3.0, https://matplotlib.org/</dc:title>
     </cc:Agent>
    </dc:creator>
   </cc:Work>
  </rdf:RDF>
 </metadata>
 <defs>
  <style type="text/css">*{stroke-linecap:butt;stroke-linejoin:round;}</style>
 </defs>
 <g id="figure_1">
  <g id="patch_1">
   <path d="M 0 288 
L 432 288 
L 432 0 
L 0 0 
z
" style="fill:#ffffff;"/>
  </g>
  <g id="axes_1">
   <g id="matplotlib.axis_1"/>
   <g id="matplotlib.axis_2"/>
   <g id="line2d_1">
    <path clip-path="url(#pb2a1f4fb59)" d="M 99.524631 166.688058 
L 104.755575 165.721625 
L 110.041415 164.832396 
L 115.344401 164.039899 
L 120.66932 163.250499 
L 125.933864 162.384751 
L 131.023883 161.605619 
L 135.915259 160.812768 
L 140.578429 160.050264 
L 145.03534 159.242516 
L 149.330566 158.368004 
L 153.46618 157.409866 
L 157.438626 156.424691 
L 161.223678 155.495525 
L 164.82129 154.543295 
L 168.299993 153.712713 
L 171.612585 152.867785 
L 174.745109 151.981378 
L 177.698335 151.028926 
L 180.541376 150.121094 
L 183.21909 149.211154 
L 185.740693 148.283535 
L 188.105564 147.35015 
L 190.312015 146.392376 
L 192.383964 145.41308 
L 194.339861 144.414221 
L 196.143477 143.39757 
L 197.817763 142.358131 
L 199.375365 141.308693 
L 200.809852 140.284308 
L 202.12808 139.285956 
L 201.450508 139.227004 
" style="fill:none;stroke:#1f77b4;stroke-dasharray:9.6,2.4,1.5,2.4;stroke-dashoffset:0;stroke-opacity:0.9;stroke-width:1.5;"/>
   </g>
   <g id="line2d_2">
    <defs>
     <path d="M 0 3 
C 0.795609 3 1.55874 2.683901 2.12132 2.12132 
C 2.683901 1.55874 3 0.795609 3 0 
C 3 -0.795609 2.683901 -1.55874 2.12132 -2.12132 
C 1.55874 -2.683901 0.795609 -3 0 -3 
C -0.795609 -3 -1.55874 -2.683901 -2.12132 -2.12132 
C -2.683901 -1.55874 -3 -0.795609 -3 0 
C -3 0.795609 -2.683901 1.55874 -2.12132 2.12132 
C -1.55874 2.683901 -0.795609 3 0 3 
z
" id="ma515d9f446" style="stroke:#1f77b4;stroke-opacity:0.7;"/>
    </defs>
    <g clip-path="url(#pb2a1f4fb59)">
     <use style="fill:#1f77b4;fill-opacity:0.7;stroke:#1f77b4;stroke-opacity:0.7;" x="201.450508" xlink:href="#ma515d9f446" y="139.227004"/>
    </g>
   </g>
   <g id="line2d_3">
    <path clip-path="url(#pb2a1f4fb59)" d="M 99.524631 166.688058 
L 104.734596 165.693222 
L 109.795694 164.863387 
L 114.773134 164.170793 
L 129.245054 162.54588 
L 138.030192 161.264773 
L 142.125081 160.626044 
L 149.816353 159.082191 
L 160.264712 156.55615 
L 166.325173 154.724292 
L 169.096858 153.73457 
L 171.719613 152.609943 
L 174.163561 151.38892 
L 177.507047 149.422275 
L 179.526806 148.081877 
L 183.013347 145.393792 
L 184.614242 143.870019 
L 186.064706 142.225333 
L 187.427301 140.450869 
L 188.662473 138.556953 
L 190.895967 134.509262 
L 191.906283 132.375734 
L 193.705302 127.910149 
L 195.085064 123.411469 
L 195.920253 119.312422 
L 196.214094 117.211956 
L 196.403975 115.044499 
L 196.463221 112.824908 
L 196.398107 110.564639 
L 196.214373 108.27092 
L 195.914501 105.950319 
L 195.494709 103.607734 
L 194.948603 101.248204 
L 193.508275 96.489363 
L 191.88109 91.754803 
L 189.951107 86.901256 
L 185.277166 75.810875 
L 183.954568 71.929826 
L 183.463928 70.106316 
L 182.853387 66.699645 
L 182.52548 63.743168 
L 182.520017 60.159305 
L 182.666796 55.663535 
L 182.944972 54.791361 
L 183.422707 53.698057 
L 184.660601 51.749579 
L 186.095472 50.054991 
L 187.432315 48.945603 
L 189.108081 47.932386 
L 191.131561 47.108793 
L 193.478035 46.56862 
L 197.454465 45.990852 
L 201.857952 45.059835 
L 204.873085 44.801579 
L 206.369174 44.81039 
L 215.151438 45.678298 
L 217.010235 46.058809 
L 218.89702 46.565009 
L 220.808166 47.206233 
L 225.316829 49.131221 
L 231.484152 52.481073 
L 238.687127 56.787614 
L 242.284509 59.255881 
L 244.163497 60.812672 
L 245.94589 62.834252 
L 247.927875 65.6239 
L 251.318264 71.20595 
L 255.848175 77.174457 
L 258.041864 80.695061 
L 260.002151 84.654491 
L 261.009664 86.704923 
L 261.009664 86.704923 
" style="fill:none;stroke:#ff7f0e;stroke-dasharray:1.5,2.475;stroke-dashoffset:0;stroke-opacity:0.9;stroke-width:1.5;"/>
   </g>
   <g id="line2d_4">
    <defs>
     <path d="M 0 3 
C 0.795609 3 1.55874 2.683901 2.12132 2.12132 
C 2.683901 1.55874 3 0.795609 3 0 
C 3 -0.795609 2.683901 -1.55874 2.12132 -2.12132 
C 1.55874 -2.683901 0.795609 -3 0 -3 
C -0.795609 -3 -1.55874 -2.683901 -2.12132 -2.12132 
C -2.683901 -1.55874 -3 -0.795609 -3 0 
C -3 0.795609 -2.683901 1.55874 -2.12132 2.12132 
C -1.55874 2.683901 -0.795609 3 0 3 
z
" id="m49ca9a9d57" style="stroke:#ff7f0e;stroke-opacity:0.7;"/>
    </defs>
    <g clip-path="url(#pb2a1f4fb59)">
     <use style="fill:#ff7f0e;fill-opacity:0.7;stroke:#ff7f0e;stroke-opacity:0.7;" x="261.009664" xlink:href="#m49ca9a9d57" y="86.704923"/>
    </g>
   </g>
   <g id="line2d_5">
    <path clip-path="url(#pb2a1f4fb59)" d="M 99.524631 166.688058 
L 104.734596 165.693222 
L 114.666343 164.173383 
L 123.832905 162.634191 
L 132.366849 160.733328 
L 140.214918 158.548177 
L 147.307712 156.199295 
L 153.775586 153.716524 
L 159.570229 150.97822 
L 167.237253 146.912568 
L 171.786949 144.334094 
L 175.676512 141.804706 
L 178.992239 139.270374 
L 180.440496 137.998063 
L 183.214734 135.198316 
L 184.176102 134.075994 
L 185.099824 132.752092 
L 185.968012 131.282194 
L 187.495424 128.050825 
L 188.16441 126.304377 
L 188.742448 124.458018 
L 189.226869 122.516015 
L 189.673114 120.139895 
L 190.135216 115.804762 
L 190.375625 111.258484 
L 190.404003 106.583271 
L 190.065715 101.707323 
L 189.388054 96.817532 
L 188.993476 94.355599 
L 187.910681 89.71158 
L 186.449996 85.183128 
L 184.129494 79.242695 
L 180.749997 70.806263 
L 179.91303 67.338619 
L 179.956978 66.569141 
L 180.130389 65.753356 
L 180.452837 64.94414 
L 180.914529 64.157348 
L 181.516296 63.409328 
L 183.813512 61.203518 
L 185.276271 59.323 
L 186.838286 57.231266 
L 190.999708 52.44007 
L 192.996124 50.129241 
L 195.530603 47.701997 
L 197.472728 46.023767 
L 199.032476 45.126767 
L 200.92242 44.373116 
L 203.132629 43.901122 
L 204.34001 43.80399 
L 211.16605 43.939972 
L 214.189915 44.377249 
L 216.86808 45.157153 
L 224.705899 47.8163 
L 226.338954 48.644369 
L 229.596437 50.683808 
L 236.381155 55.721186 
L 238.131179 57.202957 
L 239.850458 58.825634 
L 241.474452 60.52696 
L 242.872413 62.200645 
L 245.582897 65.897163 
L 248.334817 69.93885 
L 255.74554 81.367161 
L 258.846569 86.492754 
L 260.369842 89.198515 
L 263.256076 94.880827 
L 270.53516 110.171551 
L 270.53516 110.171551 
" style="fill:none;stroke:#2ca02c;stroke-dasharray:5.55,2.4;stroke-dashoffset:0;stroke-opacity:0.9;stroke-width:1.5;"/>
   </g>
   <g id="line2d_6">
    <defs>
     <path d="M 0 3 
C 0.795609 3 1.55874 2.683901 2.12132 2.12132 
C 2.683901 1.55874 3 0.795609 3 0 
C 3 -0.795609 2.683901 -1.55874 2.12132 -2.12132 
C 1.55874 -2.683901 0.795609 -3 0 -3 
C -0.795609 -3 -1.55874 -2.683901 -2.12132 -2.12132 
C -2.683901 -1.55874 -3 -0.795609 -3 0 
C -3 0.795609 -2.683901 1.55874 -2.12132 2.12132 
C -1.55874 2.683901 -0.795609 3 0 3 
z
" id="mac9c06df55" style="stroke:#2ca02c;stroke-opacity:0.7;"/>
    </defs>
    <g clip-path="url(#pb2a1f4fb59)">
     <use style="fill:#2ca02c;fill-opacity:0.7;stroke:#2ca02c;stroke-opacity:0.7;" x="270.53516" xlink:href="#mac9c06df55" y="110.171551"/>
    </g>
   </g>
   <g id="line2d_7">
    <path clip-path="url(#pb2a1f4fb59)" d="M 99.524631 166.688058 
L 104.734596 165.693222 
L 109.795654 164.873809 
L 124.026365 162.875351 
L 128.442233 162.054641 
L 136.81953 160.156886 
L 140.71135 159.127522 
L 144.445021 157.987271 
L 151.473767 155.520865 
L 154.723428 154.282197 
L 157.819798 152.970765 
L 160.732595 151.562753 
L 163.458739 150.113245 
L 169.28441 146.683139 
L 171.498133 145.185398 
L 175.490824 142.144987 
L 177.204222 140.660687 
L 180.176912 137.616349 
L 181.441871 136.126134 
L 182.54719 134.644699 
L 184.63614 131.248921 
L 185.590847 129.408335 
L 187.23919 125.461002 
L 187.928367 123.383626 
L 189.029242 119.069569 
L 189.909298 114.544704 
L 190.482806 109.804051 
L 190.638072 107.405493 
L 190.69232 102.422096 
L 190.636028 99.922567 
L 189.866797 92.216908 
L 189.031492 86.994783 
L 188.013577 81.773779 
L 185.93174 72.402982 
L 185.124015 68.242637 
L 184.616382 64.449709 
L 184.390905 61.062858 
L 184.476901 58.167863 
L 184.997279 52.818477 
L 185.099496 52.01077 
L 185.784521 50.316112 
L 186.395925 49.139396 
L 187.371383 47.867472 
L 188.633831 46.579203 
L 190.262379 45.375273 
L 192.267103 44.348958 
L 194.628222 43.611296 
L 195.929994 43.383774 
L 197.303584 43.265803 
L 198.738012 43.260111 
L 204.148675 43.738639 
L 207.587167 43.749952 
L 211.239007 43.666731 
L 214.311481 43.851034 
L 217.965615 44.384312 
L 220.436325 45.232287 
L 222.966213 46.467976 
L 225.571882 47.963741 
L 231.530247 50.920081 
L 234.319844 52.771 
L 238.304012 56.173605 
L 242.543306 60.272394 
L 245.587243 63.366693 
L 248.678034 66.860249 
L 250.08045 68.718395 
L 252.639892 72.713781 
L 255.054676 76.988375 
L 257.38992 81.610763 
L 259.720446 86.611627 
L 262.319722 91.771177 
L 263.554347 94.47016 
L 264.693341 97.265562 
L 266.716444 103.157424 
L 268.812177 109.264714 
L 273.585033 121.821629 
L 273.585033 121.821629 
" style="fill:none;stroke:#d62728;stroke-linecap:square;stroke-opacity:0.7;stroke-width:1.5;"/>
   </g>
   <g id="line2d_8">
    <defs>
     <path d="M 0 3 
C 0.795609 3 1.55874 2.683901 2.12132 2.12132 
C 2.683901 1.55874 3 0.795609 3 0 
C 3 -0.795609 2.683901 -1.55874 2.12132 -2.12132 
C 1.55874 -2.683901 0.795609 -3 0 -3 
C -0.795609 -3 -1.55874 -2.683901 -2.12132 -2.12132 
C -2.683901 -1.55874 -3 -0.795609 -3 0 
C -3 0.795609 -2.683901 1.55874 -2.12132 2.12132 
C -1.55874 2.683901 -0.795609 3 0 3 
z
" id="ma1c7cf3e32" style="stroke:#d62728;stroke-opacity:0.7;"/>
    </defs>
    <g clip-path="url(#pb2a1f4fb59)">
     <use style="fill:#d62728;fill-opacity:0.7;stroke:#d62728;stroke-opacity:0.7;" x="273.585033" xlink:href="#ma1c7cf3e32" y="121.821629"/>
    </g>
   </g>
   <g id="line2d_9">
    <defs>
     <path d="M 0 -3 
L -0.673542 -0.927051 
L -2.85317 -0.927051 
L -1.089814 0.354102 
L -1.763356 2.427051 
L -0 1.145898 
L 1.763356 2.427051 
L 1.089814 0.354102 
L 2.85317 -0.927051 
L 0.673542 -0.927051 
z
" id="mb1b2d46af8" style="stroke:#000000;stroke-linejoin:bevel;"/>
    </defs>
    <g clip-path="url(#pb2a1f4fb59)">
     <use style="stroke:#000000;stroke-linejoin:bevel;" x="99.524631" xlink:href="#mb1b2d46af8" y="166.688058"/>
    </g>
   </g>
   <g id="line2d_10">
    <path clip-path="url(#pb2a1f4fb59)" d="M 100.559341 174.516948 
L 108.301396 173.161398 
L 115.633109 171.670016 
L 122.540693 170.044361 
L 129.751933 168.100219 
L 135.844463 166.23985 
L 140.332142 164.675942 
L 144.614005 162.968699 
L 149.2671 160.86185 
L 153.149091 158.878757 
L 156.852548 156.745185 
L 160.357356 154.459563 
L 163.655808 152.033425 
L 166.744413 149.477718 
L 169.606395 146.77918 
L 172.271505 143.962218 
L 173.9751 141.856185 
L 176.13851 138.800267 
L 179.011761 134.364973 
L 181.030843 130.727727 
L 182.600286 127.482197 
L 183.954423 124.178535 
L 185.082917 120.827992 
L 185.976021 117.44109 
L 186.63425 114.02148 
L 187.07476 110.561644 
L 187.308997 107.076901 
L 187.34315 103.573635 
L 187.168542 100.058209 
L 186.781562 96.553495 
L 186.184959 93.096883 
L 183.922231 81.828962 
L 183.580472 78.253904 
L 183.479801 74.808014 
L 183.599096 71.906258 
L 183.960312 68.715647 
L 184.535139 65.662623 
L 185.292778 62.743193 
L 186.129147 60.31605 
L 187.28421 57.688296 
L 188.463516 55.528788 
L 189.804498 53.52955 
L 191.291079 51.698441 
L 193.146753 49.817751 
L 194.899812 48.377914 
L 196.762476 47.138692 
L 198.725042 46.110108 
L 200.775353 45.290989 
L 202.913981 44.663829 
L 205.146213 44.23138 
L 207.795501 43.968335 
L 210.532322 43.949555 
L 213.330859 44.1764 
L 216.170597 44.648415 
L 219.03152 45.36746 
L 221.896047 46.334326 
L 224.74842 47.556477 
L 227.579283 49.017344 
L 230.737818 50.916243 
L 233.86778 53.066382 
L 236.96116 55.46411 
L 240.000718 58.113975 
L 242.968772 61.018435 
L 245.856571 64.169739 
L 248.651506 67.565028 
L 251.036629 70.793973 
L 253.596761 74.657482 
L 256.037916 78.747314 
L 258.630382 83.538032 
L 261.637006 89.581476 
L 264.543853 95.924624 
L 266.634015 100.88431 
L 269.548577 108.332178 
L 273.237795 118.542901 
L 278.679859 133.674067 
L 282.221068 142.780067 
L 285.26608 150.031392 
L 288.285133 156.658852 
L 291.237229 162.631562 
L 294.414648 168.580185 
L 297.437765 173.797923 
L 300.696611 178.954921 
L 304.179692 184.040325 
L 307.892732 189.041236 
L 311.830069 193.946233 
L 315.465549 198.145059 
L 319.285949 202.239139 
L 323.283007 206.224866 
L 328.044714 210.657776 
L 332.38475 214.417059 
L 336.902604 218.031842 
L 341.594465 221.472382 
L 346.425898 224.715894 
L 350.695606 227.310157 
L 356.532162 230.568697 
L 361.010591 232.81475 
L 365.539124 234.845771 
L 370.102849 236.674283 
L 375.483643 238.520261 
L 380.119534 239.874602 
L 385.557841 241.186892 
L 391.015853 242.27638 
L 396.486699 243.120436 
L 401.168516 243.654038 
L 401.168516 243.654038 
" style="fill:none;stroke:#000000;stroke-dasharray:5.55,2.4;stroke-dashoffset:0;stroke-opacity:0.25;stroke-width:1.5;"/>
   </g>
   <g id="line2d_11">
    <path clip-path="url(#pb2a1f4fb59)" d="M 29.454545 168.028625 
L 75.925161 162.433054 
L 159.333947 152.465546 
L 163.016526 151.481098 
L 165.5948 150.539141 
L 167.671612 149.463162 
L 168.934085 148.631738 
L 171.334417 146.750062 
L 172.414426 145.714317 
L 173.787628 144.044089 
L 174.92424 142.224412 
L 175.684195 140.113675 
L 176.208448 137.909449 
L 176.37773 135.623227 
L 176.308846 132.202511 
L 175.969282 128.904906 
L 174.042571 115.707082 
L 170.47954 88.12154 
L 168.680854 74.834941 
L 168.536379 72.652923 
L 168.368628 67.248138 
L 168.530515 64.082429 
L 168.878325 60.982323 
L 169.505478 57.825195 
L 170.185343 55.461836 
L 171.151214 52.86543 
L 172.324663 50.320009 
L 173.690948 47.877343 
L 175.227371 45.584509 
L 176.897395 43.47104 
L 178.691534 41.569246 
L 181.511711 38.870476 
L 183.626061 37.271244 
L 186.932545 34.999557 
L 189.246793 33.680154 
L 191.622838 32.555156 
L 195.193052 31.108762 
L 197.637632 30.343388 
L 200.244165 29.756895 
L 202.94316 29.317054 
L 205.691911 29.096001 
L 208.444307 29.044896 
L 211.15419 29.22084 
L 215.060661 29.833942 
L 217.602292 30.421638 
L 220.134026 31.225797 
L 223.877019 32.737942 
L 227.430492 34.618718 
L 229.669271 36.009769 
L 231.69693 37.475492 
L 234.26174 39.668799 
L 235.803757 41.191858 
L 237.264535 42.822541 
L 239.205883 45.550356 
L 242.730689 51.329578 
L 263.958265 87.828761 
L 295.748889 143.571726 
L 300.846908 152.806814 
L 313.100014 175.863363 
L 319.975103 188.784441 
L 326.183497 199.65859 
L 330.012636 205.837397 
L 332.921878 210.080452 
L 336.010984 214.067228 
L 339.908359 218.386098 
L 344.146718 222.479968 
L 350.230877 227.500365 
L 354.132297 230.473236 
L 358.944397 233.753517 
L 362.217538 235.666547 
L 364.699386 236.95679 
L 370.811204 239.507251 
L 374.463898 240.639629 
L 379.099879 241.726591 
L 383.735003 242.453854 
L 386.525535 242.740441 
L 393.261139 242.936103 
L 398.168318 242.78479 
L 401.117802 242.429436 
L 401.117802 242.429436 
" style="fill:none;stroke:#000000;stroke-linecap:square;stroke-opacity:0.25;"/>
   </g>
   <g id="line2d_12">
    <path clip-path="url(#pb2a1f4fb59)" d="M 31.274531 183.14824 
L 113.581767 173.304281 
L 115.723846 173.333869 
L 117.868563 173.385266 
L 121.133387 173.109397 
L 158.892563 168.824876 
L 163.489579 167.937646 
L 167.923808 166.695205 
L 171.076006 165.47297 
L 173.180853 164.512901 
L 175.405134 163.329279 
L 178.908559 161.093799 
L 182.16525 158.392742 
L 183.222377 157.455333 
L 185.975929 154.360598 
L 186.818092 153.299079 
L 188.248603 151.073293 
L 189.494697 148.659207 
L 190.506275 146.05904 
L 191.30106 143.334131 
L 191.854479 140.546565 
L 192.213881 137.758488 
L 192.339274 135.019784 
L 192.265096 131.522748 
L 191.388178 124.372069 
L 189.673906 112.102899 
L 186.18348 85.450399 
L 184.658326 74.141262 
L 184.332174 70.074989 
L 184.401002 66.11738 
L 184.673605 63.28939 
L 185.170901 60.739857 
L 185.668177 59.288045 
L 186.329866 57.886507 
L 188.34034 54.606751 
L 190.381725 52.432883 
L 192.844261 50.269025 
L 195.605341 48.406858 
L 198.531312 46.957072 
L 201.449678 45.850229 
L 203.743511 45.343973 
L 206.097067 44.95901 
L 209.217085 45.03065 
L 211.445658 45.349735 
L 214.513069 46.226408 
L 216.049152 46.760243 
L 218.967522 48.134787 
L 221.661246 49.777164 
L 223.007437 50.940884 
L 224.345994 52.324617 
L 225.579447 53.843772 
L 229.244278 59.891852 
L 246.761293 89.939048 
L 285.425237 157.843174 
L 296.211062 177.90742 
L 307.955115 200.029198 
L 311.696898 206.647922 
L 316.242035 213.996329 
L 320.504541 220.176901 
L 322.460158 222.756503 
L 326.133337 227.010243 
L 329.332298 230.309319 
L 335.278891 235.831276 
L 338.788489 238.885523 
L 344.304536 243.130696 
L 350.015692 246.977014 
L 353.928105 249.28972 
L 359.114137 251.887572 
L 362.363401 253.319591 
L 368.026773 255.256883 
L 372.639632 256.585349 
L 376.131508 257.401292 
L 384.28051 258.553558 
L 388.810524 258.809968 
L 394.503575 258.94367 
L 401.395253 258.403905 
L 402.545455 258.29032 
L 402.545455 258.29032 
" style="fill:none;stroke:#000000;stroke-linecap:square;stroke-opacity:0.25;"/>
   </g>
   <g id="line2d_13">
    <defs>
     <path d="M 0 3 
C 0.795609 3 1.55874 2.683901 2.12132 2.12132 
C 2.683901 1.55874 3 0.795609 3 0 
C 3 -0.795609 2.683901 -1.55874 2.12132 -2.12132 
C 1.55874 -2.683901 0.795609 -3 0 -3 
C -0.795609 -3 -1.55874 -2.683901 -2.12132 -2.12132 
C -2.683901 -1.55874 -3 -0.795609 -3 0 
C -3 0.795609 -2.683901 1.55874 -2.12132 2.12132 
C -1.55874 2.683901 -0.795609 3 0 3 
z
" id="m312489e9d9" style="stroke:#000000;stroke-opacity:0.25;"/>
    </defs>
    <g clip-path="url(#pb2a1f4fb59)">
     <use style="fill-opacity:0.25;stroke:#000000;stroke-opacity:0.25;" x="401.948418" xlink:href="#m312489e9d9" y="243.726467"/>
    </g>
   </g>
   <g id="legend_1">
    <g id="patch_2">
     <path d="M 289.271875 123.546875 
L 414.2 123.546875 
Q 416.2 123.546875 416.2 121.546875 
L 416.2 17.8 
Q 416.2 15.8 414.2 15.8 
L 289.271875 15.8 
Q 287.271875 15.8 287.271875 17.8 
L 287.271875 121.546875 
Q 287.271875 123.546875 289.271875 123.546875 
z
" style="fill:#ffffff;opacity:0.8;stroke:#cccccc;stroke-linejoin:miter;"/>
    </g>
    <g id="line2d_14">
     <path d="M 292.271875 24.898438 
L 332.271875 24.898438 
" style="fill:none;stroke:#1f77b4;stroke-dasharray:9.6,2.4,1.5,2.4;stroke-dashoffset:0;stroke-opacity:0.9;stroke-width:1.5;"/>
    </g>
    <g id="line2d_15"/>
    <g id="text_1">
     <!-- Fixed Ref -->
     <g transform="translate(340.271875 28.398438)scale(0.1 -0.1)">
      <defs>
       <path d="M 9.8125 72.90625 
L 51.703125 72.90625 
L 51.703125 64.59375 
L 19.671875 64.59375 
L 19.671875 43.109375 
L 48.578125 43.109375 
L 48.578125 34.8125 
L 19.671875 34.8125 
L 19.671875 0 
L 9.8125 0 
z
" id="DejaVuSans-70"/>
       <path d="M 9.421875 54.6875 
L 18.40625 54.6875 
L 18.40625 0 
L 9.421875 0 
z
M 9.421875 75.984375 
L 18.40625 75.984375 
L 18.40625 64.59375 
L 9.421875 64.59375 
z
" id="DejaVuSans-105"/>
       <path d="M 54.890625 54.6875 
L 35.109375 28.078125 
L 55.90625 0 
L 45.3125 0 
L 29.390625 21.484375 
L 13.484375 0 
L 2.875 0 
L 24.125 28.609375 
L 4.6875 54.6875 
L 15.28125 54.6875 
L 29.78125 35.203125 
L 44.28125 54.6875 
z
" id="DejaVuSans-120"/>
       <path d="M 56.203125 29.59375 
L 56.203125 25.203125 
L 14.890625 25.203125 
Q 15.484375 15.921875 20.484375 11.0625 
Q 25.484375 6.203125 34.421875 6.203125 
Q 39.59375 6.203125 44.453125 7.46875 
Q 49.3125 8.734375 54.109375 11.28125 
L 54.109375 2.78125 
Q 49.265625 0.734375 44.1875 -0.34375 
Q 39.109375 -1.421875 33.890625 -1.421875 
Q 20.796875 -1.421875 13.15625 6.1875 
Q 5.515625 13.8125 5.515625 26.8125 
Q 5.515625 40.234375 12.765625 48.109375 
Q 20.015625 56 32.328125 56 
Q 43.359375 56 49.78125 48.890625 
Q 56.203125 41.796875 56.203125 29.59375 
z
M 47.21875 32.234375 
Q 47.125 39.59375 43.09375 43.984375 
Q 39.0625 48.390625 32.421875 48.390625 
Q 24.90625 48.390625 20.390625 44.140625 
Q 15.875 39.890625 15.1875 32.171875 
z
" id="DejaVuSans-101"/>
       <path d="M 45.40625 46.390625 
L 45.40625 75.984375 
L 54.390625 75.984375 
L 54.390625 0 
L 45.40625 0 
L 45.40625 8.203125 
Q 42.578125 3.328125 38.25 0.953125 
Q 33.9375 -1.421875 27.875 -1.421875 
Q 17.96875 -1.421875 11.734375 6.484375 
Q 5.515625 14.40625 5.515625 27.296875 
Q 5.515625 40.1875 11.734375 48.09375 
Q 17.96875 56 27.875 56 
Q 33.9375 56 38.25 53.625 
Q 42.578125 51.265625 45.40625 46.390625 
z
M 14.796875 27.296875 
Q 14.796875 17.390625 18.875 11.75 
Q 22.953125 6.109375 30.078125 6.109375 
Q 37.203125 6.109375 41.296875 11.75 
Q 45.40625 17.390625 45.40625 27.296875 
Q 45.40625 37.203125 41.296875 42.84375 
Q 37.203125 48.484375 30.078125 48.484375 
Q 22.953125 48.484375 18.875 42.84375 
Q 14.796875 37.203125 14.796875 27.296875 
z
" id="DejaVuSans-100"/>
       <path id="DejaVuSans-32"/>
       <path d="M 44.390625 34.1875 
Q 47.5625 33.109375 50.5625 29.59375 
Q 53.5625 26.078125 56.59375 19.921875 
L 66.609375 0 
L 56 0 
L 46.6875 18.703125 
Q 43.0625 26.03125 39.671875 28.421875 
Q 36.28125 30.8125 30.421875 30.8125 
L 19.671875 30.8125 
L 19.671875 0 
L 9.8125 0 
L 9.8125 72.90625 
L 32.078125 72.90625 
Q 44.578125 72.90625 50.734375 67.671875 
Q 56.890625 62.453125 56.890625 51.90625 
Q 56.890625 45.015625 53.6875 40.46875 
Q 50.484375 35.9375 44.390625 34.1875 
z
M 19.671875 64.796875 
L 19.671875 38.921875 
L 32.078125 38.921875 
Q 39.203125 38.921875 42.84375 42.21875 
Q 46.484375 45.515625 46.484375 51.90625 
Q 46.484375 58.296875 42.84375 61.546875 
Q 39.203125 64.796875 32.078125 64.796875 
z
" id="DejaVuSans-82"/>
       <path d="M 37.109375 75.984375 
L 37.109375 68.5 
L 28.515625 68.5 
Q 23.6875 68.5 21.796875 66.546875 
Q 19.921875 64.59375 19.921875 59.515625 
L 19.921875 54.6875 
L 34.71875 54.6875 
L 34.71875 47.703125 
L 19.921875 47.703125 
L 19.921875 0 
L 10.890625 0 
L 10.890625 47.703125 
L 2.296875 47.703125 
L 2.296875 54.6875 
L 10.890625 54.6875 
L 10.890625 58.5 
Q 10.890625 67.625 15.140625 71.796875 
Q 19.390625 75.984375 28.609375 75.984375 
z
" id="DejaVuSans-102"/>
      </defs>
      <use xlink:href="#DejaVuSans-70"/>
      <use x="50.269531" xlink:href="#DejaVuSans-105"/>
      <use x="78.052734" xlink:href="#DejaVuSans-120"/>
      <use x="134.107422" xlink:href="#DejaVuSans-101"/>
      <use x="195.630859" xlink:href="#DejaVuSans-100"/>
      <use x="259.107422" xlink:href="#DejaVuSans-32"/>
      <use x="290.894531" xlink:href="#DejaVuSans-82"/>
      <use x="355.876953" xlink:href="#DejaVuSans-101"/>
      <use x="417.400391" xlink:href="#DejaVuSans-102"/>
     </g>
    </g>
    <g id="line2d_16">
     <path d="M 292.271875 39.576563 
L 332.271875 39.576563 
" style="fill:none;stroke:#ff7f0e;stroke-dasharray:1.5,2.475;stroke-dashoffset:0;stroke-opacity:0.9;stroke-width:1.5;"/>
    </g>
    <g id="line2d_17"/>
    <g id="text_2">
     <!-- 2nd ord. DMP -->
     <g transform="translate(340.271875 43.076563)scale(0.1 -0.1)">
      <defs>
       <path d="M 19.1875 8.296875 
L 53.609375 8.296875 
L 53.609375 0 
L 7.328125 0 
L 7.328125 8.296875 
Q 12.9375 14.109375 22.625 23.890625 
Q 32.328125 33.6875 34.8125 36.53125 
Q 39.546875 41.84375 41.421875 45.53125 
Q 43.3125 49.21875 43.3125 52.78125 
Q 43.3125 58.59375 39.234375 62.25 
Q 35.15625 65.921875 28.609375 65.921875 
Q 23.96875 65.921875 18.8125 64.3125 
Q 13.671875 62.703125 7.8125 59.421875 
L 7.8125 69.390625 
Q 13.765625 71.78125 18.9375 73 
Q 24.125 74.21875 28.421875 74.21875 
Q 39.75 74.21875 46.484375 68.546875 
Q 53.21875 62.890625 53.21875 53.421875 
Q 53.21875 48.921875 51.53125 44.890625 
Q 49.859375 40.875 45.40625 35.40625 
Q 44.1875 33.984375 37.640625 27.21875 
Q 31.109375 20.453125 19.1875 8.296875 
z
" id="DejaVuSans-50"/>
       <path d="M 54.890625 33.015625 
L 54.890625 0 
L 45.90625 0 
L 45.90625 32.71875 
Q 45.90625 40.484375 42.875 44.328125 
Q 39.84375 48.1875 33.796875 48.1875 
Q 26.515625 48.1875 22.3125 43.546875 
Q 18.109375 38.921875 18.109375 30.90625 
L 18.109375 0 
L 9.078125 0 
L 9.078125 54.6875 
L 18.109375 54.6875 
L 18.109375 46.1875 
Q 21.34375 51.125 25.703125 53.5625 
Q 30.078125 56 35.796875 56 
Q 45.21875 56 50.046875 50.171875 
Q 54.890625 44.34375 54.890625 33.015625 
z
" id="DejaVuSans-110"/>
       <path d="M 30.609375 48.390625 
Q 23.390625 48.390625 19.1875 42.75 
Q 14.984375 37.109375 14.984375 27.296875 
Q 14.984375 17.484375 19.15625 11.84375 
Q 23.34375 6.203125 30.609375 6.203125 
Q 37.796875 6.203125 41.984375 11.859375 
Q 46.1875 17.53125 46.1875 27.296875 
Q 46.1875 37.015625 41.984375 42.703125 
Q 37.796875 48.390625 30.609375 48.390625 
z
M 30.609375 56 
Q 42.328125 56 49.015625 48.375 
Q 55.71875 40.765625 55.71875 27.296875 
Q 55.71875 13.875 49.015625 6.21875 
Q 42.328125 -1.421875 30.609375 -1.421875 
Q 18.84375 -1.421875 12.171875 6.21875 
Q 5.515625 13.875 5.515625 27.296875 
Q 5.515625 40.765625 12.171875 48.375 
Q 18.84375 56 30.609375 56 
z
" id="DejaVuSans-111"/>
       <path d="M 41.109375 46.296875 
Q 39.59375 47.171875 37.8125 47.578125 
Q 36.03125 48 33.890625 48 
Q 26.265625 48 22.1875 43.046875 
Q 18.109375 38.09375 18.109375 28.8125 
L 18.109375 0 
L 9.078125 0 
L 9.078125 54.6875 
L 18.109375 54.6875 
L 18.109375 46.1875 
Q 20.953125 51.171875 25.484375 53.578125 
Q 30.03125 56 36.53125 56 
Q 37.453125 56 38.578125 55.875 
Q 39.703125 55.765625 41.0625 55.515625 
z
" id="DejaVuSans-114"/>
       <path d="M 10.6875 12.40625 
L 21 12.40625 
L 21 0 
L 10.6875 0 
z
" id="DejaVuSans-46"/>
       <path d="M 19.671875 64.796875 
L 19.671875 8.109375 
L 31.59375 8.109375 
Q 46.6875 8.109375 53.6875 14.9375 
Q 60.6875 21.78125 60.6875 36.53125 
Q 60.6875 51.171875 53.6875 57.984375 
Q 46.6875 64.796875 31.59375 64.796875 
z
M 9.8125 72.90625 
L 30.078125 72.90625 
Q 51.265625 72.90625 61.171875 64.09375 
Q 71.09375 55.28125 71.09375 36.53125 
Q 71.09375 17.671875 61.125 8.828125 
Q 51.171875 0 30.078125 0 
L 9.8125 0 
z
" id="DejaVuSans-68"/>
       <path d="M 9.8125 72.90625 
L 24.515625 72.90625 
L 43.109375 23.296875 
L 61.8125 72.90625 
L 76.515625 72.90625 
L 76.515625 0 
L 66.890625 0 
L 66.890625 64.015625 
L 48.09375 14.015625 
L 38.1875 14.015625 
L 19.390625 64.015625 
L 19.390625 0 
L 9.8125 0 
z
" id="DejaVuSans-77"/>
       <path d="M 19.671875 64.796875 
L 19.671875 37.40625 
L 32.078125 37.40625 
Q 38.96875 37.40625 42.71875 40.96875 
Q 46.484375 44.53125 46.484375 51.125 
Q 46.484375 57.671875 42.71875 61.234375 
Q 38.96875 64.796875 32.078125 64.796875 
z
M 9.8125 72.90625 
L 32.078125 72.90625 
Q 44.34375 72.90625 50.609375 67.359375 
Q 56.890625 61.8125 56.890625 51.125 
Q 56.890625 40.328125 50.609375 34.8125 
Q 44.34375 29.296875 32.078125 29.296875 
L 19.671875 29.296875 
L 19.671875 0 
L 9.8125 0 
z
" id="DejaVuSans-80"/>
      </defs>
      <use xlink:href="#DejaVuSans-50"/>
      <use x="63.623047" xlink:href="#DejaVuSans-110"/>
      <use x="127.001953" xlink:href="#DejaVuSans-100"/>
      <use x="190.478516" xlink:href="#DejaVuSans-32"/>
      <use x="222.265625" xlink:href="#DejaVuSans-111"/>
      <use x="283.447266" xlink:href="#DejaVuSans-114"/>
      <use x="322.810547" xlink:href="#DejaVuSans-100"/>
      <use x="386.287109" xlink:href="#DejaVuSans-46"/>
      <use x="418.074219" xlink:href="#DejaVuSans-32"/>
      <use x="449.861328" xlink:href="#DejaVuSans-68"/>
      <use x="526.863281" xlink:href="#DejaVuSans-77"/>
      <use x="613.142578" xlink:href="#DejaVuSans-80"/>
     </g>
    </g>
    <g id="line2d_18">
     <path d="M 292.271875 54.254688 
L 332.271875 54.254688 
" style="fill:none;stroke:#2ca02c;stroke-dasharray:5.55,2.4;stroke-dashoffset:0;stroke-opacity:0.9;stroke-width:1.5;"/>
    </g>
    <g id="line2d_19"/>
    <g id="text_3">
     <!-- Vel. goal DMP -->
     <g transform="translate(340.271875 57.754688)scale(0.1 -0.1)">
      <defs>
       <path d="M 28.609375 0 
L 0.78125 72.90625 
L 11.078125 72.90625 
L 34.1875 11.53125 
L 57.328125 72.90625 
L 67.578125 72.90625 
L 39.796875 0 
z
" id="DejaVuSans-86"/>
       <path d="M 9.421875 75.984375 
L 18.40625 75.984375 
L 18.40625 0 
L 9.421875 0 
z
" id="DejaVuSans-108"/>
       <path d="M 45.40625 27.984375 
Q 45.40625 37.75 41.375 43.109375 
Q 37.359375 48.484375 30.078125 48.484375 
Q 22.859375 48.484375 18.828125 43.109375 
Q 14.796875 37.75 14.796875 27.984375 
Q 14.796875 18.265625 18.828125 12.890625 
Q 22.859375 7.515625 30.078125 7.515625 
Q 37.359375 7.515625 41.375 12.890625 
Q 45.40625 18.265625 45.40625 27.984375 
z
M 54.390625 6.78125 
Q 54.390625 -7.171875 48.1875 -13.984375 
Q 42 -20.796875 29.203125 -20.796875 
Q 24.46875 -20.796875 20.265625 -20.09375 
Q 16.0625 -19.390625 12.109375 -17.921875 
L 12.109375 -9.1875 
Q 16.0625 -11.328125 19.921875 -12.34375 
Q 23.78125 -13.375 27.78125 -13.375 
Q 36.625 -13.375 41.015625 -8.765625 
Q 45.40625 -4.15625 45.40625 5.171875 
L 45.40625 9.625 
Q 42.625 4.78125 38.28125 2.390625 
Q 33.9375 0 27.875 0 
Q 17.828125 0 11.671875 7.65625 
Q 5.515625 15.328125 5.515625 27.984375 
Q 5.515625 40.671875 11.671875 48.328125 
Q 17.828125 56 27.875 56 
Q 33.9375 56 38.28125 53.609375 
Q 42.625 51.21875 45.40625 46.390625 
L 45.40625 54.6875 
L 54.390625 54.6875 
z
" id="DejaVuSans-103"/>
       <path d="M 34.28125 27.484375 
Q 23.390625 27.484375 19.1875 25 
Q 14.984375 22.515625 14.984375 16.5 
Q 14.984375 11.71875 18.140625 8.90625 
Q 21.296875 6.109375 26.703125 6.109375 
Q 34.1875 6.109375 38.703125 11.40625 
Q 43.21875 16.703125 43.21875 25.484375 
L 43.21875 27.484375 
z
M 52.203125 31.203125 
L 52.203125 0 
L 43.21875 0 
L 43.21875 8.296875 
Q 40.140625 3.328125 35.546875 0.953125 
Q 30.953125 -1.421875 24.3125 -1.421875 
Q 15.921875 -1.421875 10.953125 3.296875 
Q 6 8.015625 6 15.921875 
Q 6 25.140625 12.171875 29.828125 
Q 18.359375 34.515625 30.609375 34.515625 
L 43.21875 34.515625 
L 43.21875 35.40625 
Q 43.21875 41.609375 39.140625 45 
Q 35.0625 48.390625 27.6875 48.390625 
Q 23 48.390625 18.546875 47.265625 
Q 14.109375 46.140625 10.015625 43.890625 
L 10.015625 52.203125 
Q 14.9375 54.109375 19.578125 55.046875 
Q 24.21875 56 28.609375 56 
Q 40.484375 56 46.34375 49.84375 
Q 52.203125 43.703125 52.203125 31.203125 
z
" id="DejaVuSans-97"/>
      </defs>
      <use xlink:href="#DejaVuSans-86"/>
      <use x="60.658203" xlink:href="#DejaVuSans-101"/>
      <use x="122.181641" xlink:href="#DejaVuSans-108"/>
      <use x="149.964844" xlink:href="#DejaVuSans-46"/>
      <use x="181.751953" xlink:href="#DejaVuSans-32"/>
      <use x="213.539062" xlink:href="#DejaVuSans-103"/>
      <use x="277.015625" xlink:href="#DejaVuSans-111"/>
      <use x="338.197266" xlink:href="#DejaVuSans-97"/>
      <use x="399.476562" xlink:href="#DejaVuSans-108"/>
      <use x="427.259766" xlink:href="#DejaVuSans-32"/>
      <use x="459.046875" xlink:href="#DejaVuSans-68"/>
      <use x="536.048828" xlink:href="#DejaVuSans-77"/>
      <use x="622.328125" xlink:href="#DejaVuSans-80"/>
     </g>
    </g>
    <g id="line2d_20">
     <path d="M 292.271875 68.932813 
L 332.271875 68.932813 
" style="fill:none;stroke:#d62728;stroke-linecap:square;stroke-opacity:0.7;stroke-width:1.5;"/>
    </g>
    <g id="line2d_21"/>
    <g id="text_4">
     <!-- Acc. goal DMP -->
     <g transform="translate(340.271875 72.432813)scale(0.1 -0.1)">
      <defs>
       <path d="M 34.1875 63.1875 
L 20.796875 26.90625 
L 47.609375 26.90625 
z
M 28.609375 72.90625 
L 39.796875 72.90625 
L 67.578125 0 
L 57.328125 0 
L 50.6875 18.703125 
L 17.828125 18.703125 
L 11.1875 0 
L 0.78125 0 
z
" id="DejaVuSans-65"/>
       <path d="M 48.78125 52.59375 
L 48.78125 44.1875 
Q 44.96875 46.296875 41.140625 47.34375 
Q 37.3125 48.390625 33.40625 48.390625 
Q 24.65625 48.390625 19.8125 42.84375 
Q 14.984375 37.3125 14.984375 27.296875 
Q 14.984375 17.28125 19.8125 11.734375 
Q 24.65625 6.203125 33.40625 6.203125 
Q 37.3125 6.203125 41.140625 7.25 
Q 44.96875 8.296875 48.78125 10.40625 
L 48.78125 2.09375 
Q 45.015625 0.34375 40.984375 -0.53125 
Q 36.96875 -1.421875 32.421875 -1.421875 
Q 20.0625 -1.421875 12.78125 6.34375 
Q 5.515625 14.109375 5.515625 27.296875 
Q 5.515625 40.671875 12.859375 48.328125 
Q 20.21875 56 33.015625 56 
Q 37.15625 56 41.109375 55.140625 
Q 45.0625 54.296875 48.78125 52.59375 
z
" id="DejaVuSans-99"/>
      </defs>
      <use xlink:href="#DejaVuSans-65"/>
      <use x="66.658203" xlink:href="#DejaVuSans-99"/>
      <use x="121.638672" xlink:href="#DejaVuSans-99"/>
      <use x="176.619141" xlink:href="#DejaVuSans-46"/>
      <use x="208.40625" xlink:href="#DejaVuSans-32"/>
      <use x="240.193359" xlink:href="#DejaVuSans-103"/>
      <use x="303.669922" xlink:href="#DejaVuSans-111"/>
      <use x="364.851562" xlink:href="#DejaVuSans-97"/>
      <use x="426.130859" xlink:href="#DejaVuSans-108"/>
      <use x="453.914062" xlink:href="#DejaVuSans-32"/>
      <use x="485.701172" xlink:href="#DejaVuSans-68"/>
      <use x="562.703125" xlink:href="#DejaVuSans-77"/>
      <use x="648.982422" xlink:href="#DejaVuSans-80"/>
     </g>
    </g>
    <g id="line2d_22">
     <path d="M 292.271875 83.610938 
L 332.271875 83.610938 
" style="fill:none;stroke:#000000;stroke-dasharray:5.55,2.4;stroke-dashoffset:0;stroke-opacity:0.25;stroke-width:1.5;"/>
    </g>
    <g id="line2d_23"/>
    <g id="text_5">
     <!-- Reference -->
     <g transform="translate(340.271875 87.110938)scale(0.1 -0.1)">
      <use xlink:href="#DejaVuSans-82"/>
      <use x="64.982422" xlink:href="#DejaVuSans-101"/>
      <use x="126.505859" xlink:href="#DejaVuSans-102"/>
      <use x="161.710938" xlink:href="#DejaVuSans-101"/>
      <use x="223.234375" xlink:href="#DejaVuSans-114"/>
      <use x="262.097656" xlink:href="#DejaVuSans-101"/>
      <use x="323.621094" xlink:href="#DejaVuSans-110"/>
      <use x="387" xlink:href="#DejaVuSans-99"/>
      <use x="441.980469" xlink:href="#DejaVuSans-101"/>
     </g>
    </g>
    <g id="line2d_24"/>
    <g id="line2d_25">
     <g>
      <use style="stroke:#000000;stroke-linejoin:bevel;" x="312.271875" xlink:href="#mb1b2d46af8" y="98.289063"/>
     </g>
    </g>
    <g id="text_6">
     <!-- Start -->
     <g transform="translate(340.271875 101.789063)scale(0.1 -0.1)">
      <defs>
       <path d="M 53.515625 70.515625 
L 53.515625 60.890625 
Q 47.90625 63.578125 42.921875 64.890625 
Q 37.9375 66.21875 33.296875 66.21875 
Q 25.25 66.21875 20.875 63.09375 
Q 16.5 59.96875 16.5 54.203125 
Q 16.5 49.359375 19.40625 46.890625 
Q 22.3125 44.4375 30.421875 42.921875 
L 36.375 41.703125 
Q 47.40625 39.59375 52.65625 34.296875 
Q 57.90625 29 57.90625 20.125 
Q 57.90625 9.515625 50.796875 4.046875 
Q 43.703125 -1.421875 29.984375 -1.421875 
Q 24.8125 -1.421875 18.96875 -0.25 
Q 13.140625 0.921875 6.890625 3.21875 
L 6.890625 13.375 
Q 12.890625 10.015625 18.65625 8.296875 
Q 24.421875 6.59375 29.984375 6.59375 
Q 38.421875 6.59375 43.015625 9.90625 
Q 47.609375 13.234375 47.609375 19.390625 
Q 47.609375 24.75 44.3125 27.78125 
Q 41.015625 30.8125 33.5 32.328125 
L 27.484375 33.5 
Q 16.453125 35.6875 11.515625 40.375 
Q 6.59375 45.0625 6.59375 53.421875 
Q 6.59375 63.09375 13.40625 68.65625 
Q 20.21875 74.21875 32.171875 74.21875 
Q 37.3125 74.21875 42.625 73.28125 
Q 47.953125 72.359375 53.515625 70.515625 
z
" id="DejaVuSans-83"/>
       <path d="M 18.3125 70.21875 
L 18.3125 54.6875 
L 36.8125 54.6875 
L 36.8125 47.703125 
L 18.3125 47.703125 
L 18.3125 18.015625 
Q 18.3125 11.328125 20.140625 9.421875 
Q 21.96875 7.515625 27.59375 7.515625 
L 36.8125 7.515625 
L 36.8125 0 
L 27.59375 0 
Q 17.1875 0 13.234375 3.875 
Q 9.28125 7.765625 9.28125 18.015625 
L 9.28125 47.703125 
L 2.6875 47.703125 
L 2.6875 54.6875 
L 9.28125 54.6875 
L 9.28125 70.21875 
z
" id="DejaVuSans-116"/>
      </defs>
      <use xlink:href="#DejaVuSans-83"/>
      <use x="63.476562" xlink:href="#DejaVuSans-116"/>
      <use x="102.685547" xlink:href="#DejaVuSans-97"/>
      <use x="163.964844" xlink:href="#DejaVuSans-114"/>
      <use x="205.078125" xlink:href="#DejaVuSans-116"/>
     </g>
    </g>
    <g id="line2d_26">
     <path d="M 292.271875 112.967188 
L 299.271875 112.967188 
" style="fill:none;stroke:#1f77b4;stroke-linecap:square;stroke-opacity:0.7;stroke-width:1.5;"/>
    </g>
    <g id="line2d_27">
     <g>
      <use style="fill:#1f77b4;fill-opacity:0.7;stroke:#1f77b4;stroke-opacity:0.7;" x="295.771875" xlink:href="#ma515d9f446" y="112.967188"/>
     </g>
    </g>
    <g id="line2d_28">
     <path d="M 303.271875 112.967188 
L 310.271875 112.967188 
" style="fill:none;stroke:#ff7f0e;stroke-linecap:square;stroke-opacity:0.7;stroke-width:1.5;"/>
    </g>
    <g id="line2d_29">
     <g>
      <use style="fill:#ff7f0e;fill-opacity:0.7;stroke:#ff7f0e;stroke-opacity:0.7;" x="306.771875" xlink:href="#m49ca9a9d57" y="112.967188"/>
     </g>
    </g>
    <g id="line2d_30">
     <path d="M 314.271875 112.967188 
L 321.271875 112.967188 
" style="fill:none;stroke:#2ca02c;stroke-linecap:square;stroke-opacity:0.7;stroke-width:1.5;"/>
    </g>
    <g id="line2d_31">
     <g>
      <use style="fill:#2ca02c;fill-opacity:0.7;stroke:#2ca02c;stroke-opacity:0.7;" x="317.771875" xlink:href="#mac9c06df55" y="112.967188"/>
     </g>
    </g>
    <g id="line2d_32">
     <path d="M 325.271875 112.967188 
L 332.271875 112.967188 
" style="fill:none;stroke:#d62728;stroke-linecap:square;stroke-opacity:0.7;stroke-width:1.5;"/>
    </g>
    <g id="line2d_33">
     <g>
      <use style="fill:#d62728;fill-opacity:0.7;stroke:#d62728;stroke-opacity:0.7;" x="328.771875" xlink:href="#ma1c7cf3e32" y="112.967188"/>
     </g>
    </g>
    <g id="text_7">
     <!-- End -->
     <g transform="translate(340.271875 116.467188)scale(0.1 -0.1)">
      <defs>
       <path d="M 9.8125 72.90625 
L 55.90625 72.90625 
L 55.90625 64.59375 
L 19.671875 64.59375 
L 19.671875 43.015625 
L 54.390625 43.015625 
L 54.390625 34.71875 
L 19.671875 34.71875 
L 19.671875 8.296875 
L 56.78125 8.296875 
L 56.78125 0 
L 9.8125 0 
z
" id="DejaVuSans-69"/>
      </defs>
      <use xlink:href="#DejaVuSans-69"/>
      <use x="63.183594" xlink:href="#DejaVuSans-110"/>
      <use x="126.5625" xlink:href="#DejaVuSans-100"/>
     </g>
    </g>
   </g>
  </g>
 </g>
 <defs>
  <clipPath id="pb2a1f4fb59">
   <rect height="266.4" width="410.4" x="10.8" y="10.8"/>
  </clipPath>
 </defs>
</svg>
