<?xml version="1.0" encoding="utf-8" standalone="no"?>
<!DOCTYPE svg PUBLIC "-//W3C//DTD SVG 1.1//EN"
  "http://www.w3.org/Graphics/SVG/1.1/DTD/svg11.dtd">
<!-- Created with matplotlib (https://matplotlib.org/) -->
<svg height="328.1525pt" version="1.1" viewBox="0 0 568.433125 328.1525" width="568.433125pt" xmlns="http://www.w3.org/2000/svg" xmlns:xlink="http://www.w3.org/1999/xlink">
 <metadata>
  <rdf:RDF xmlns:cc="http://creativecommons.org/ns#" xmlns:dc="http://purl.org/dc/elements/1.1/" xmlns:rdf="http://www.w3.org/1999/02/22-rdf-syntax-ns#">
   <cc:Work>
    <dc:type rdf:resource="http://purl.org/dc/dcmitype/StillImage"/>
    <dc:date>2022-08-03T00:03:17.175053</dc:date>
    <dc:format>image/svg+xml</dc:format>
    <dc:creator>
     <cc:Agent>
      <dc:title>Matplotlib v3.3.0, https://matplotlib.org/</dc:title>
     </cc:Agent>
    </dc:creator>
   </cc:Work>
  </rdf:RDF>
 </metadata>
 <defs>
  <style type="text/css">*{stroke-linecap:butt;stroke-linejoin:round;}</style>
 </defs>
 <g id="figure_1">
  <g id="patch_1">
   <path d="M 0 328.1525 
L 568.433125 328.1525 
L 568.433125 0 
L 0 0 
z
" style="fill:#ffffff;"/>
  </g>
  <g id="axes_1">
   <g id="patch_2">
    <path d="M 40.603125 290.59625 
L 275.849283 290.59625 
L 275.849283 55.35625 
L 40.603125 55.35625 
z
" style="fill:#ffffff;"/>
   </g>
   <g id="matplotlib.axis_1">
    <g id="xtick_1">
     <g id="line2d_1">
      <defs>
       <path d="M 0 0 
L 0 3.5 
" id="md40762c104" style="stroke:#000000;stroke-width:0.8;"/>
      </defs>
      <g>
       <use style="stroke:#000000;stroke-width:0.8;" x="51.296132" xlink:href="#md40762c104" y="290.59625"/>
      </g>
     </g>
     <g id="text_1">
      <!-- 0.0 -->
      <g transform="translate(43.34457 305.194687)scale(0.1 -0.1)">
       <defs>
        <path d="M 31.78125 66.40625 
Q 24.171875 66.40625 20.328125 58.90625 
Q 16.5 51.421875 16.5 36.375 
Q 16.5 21.390625 20.328125 13.890625 
Q 24.171875 6.390625 31.78125 6.390625 
Q 39.453125 6.390625 43.28125 13.890625 
Q 47.125 21.390625 47.125 36.375 
Q 47.125 51.421875 43.28125 58.90625 
Q 39.453125 66.40625 31.78125 66.40625 
z
M 31.78125 74.21875 
Q 44.046875 74.21875 50.515625 64.515625 
Q 56.984375 54.828125 56.984375 36.375 
Q 56.984375 17.96875 50.515625 8.265625 
Q 44.046875 -1.421875 31.78125 -1.421875 
Q 19.53125 -1.421875 13.0625 8.265625 
Q 6.59375 17.96875 6.59375 36.375 
Q 6.59375 54.828125 13.0625 64.515625 
Q 19.53125 74.21875 31.78125 74.21875 
z
" id="DejaVuSans-48"/>
        <path d="M 10.6875 12.40625 
L 21 12.40625 
L 21 0 
L 10.6875 0 
z
" id="DejaVuSans-46"/>
       </defs>
       <use xlink:href="#DejaVuSans-48"/>
       <use x="63.623047" xlink:href="#DejaVuSans-46"/>
       <use x="95.410156" xlink:href="#DejaVuSans-48"/>
      </g>
     </g>
    </g>
    <g id="xtick_2">
     <g id="line2d_2">
      <g>
       <use style="stroke:#000000;stroke-width:0.8;" x="89.760187" xlink:href="#md40762c104" y="290.59625"/>
      </g>
     </g>
     <g id="text_2">
      <!-- 2.5 -->
      <g transform="translate(81.808624 305.194687)scale(0.1 -0.1)">
       <defs>
        <path d="M 19.1875 8.296875 
L 53.609375 8.296875 
L 53.609375 0 
L 7.328125 0 
L 7.328125 8.296875 
Q 12.9375 14.109375 22.625 23.890625 
Q 32.328125 33.6875 34.8125 36.53125 
Q 39.546875 41.84375 41.421875 45.53125 
Q 43.3125 49.21875 43.3125 52.78125 
Q 43.3125 58.59375 39.234375 62.25 
Q 35.15625 65.921875 28.609375 65.921875 
Q 23.96875 65.921875 18.8125 64.3125 
Q 13.671875 62.703125 7.8125 59.421875 
L 7.8125 69.390625 
Q 13.765625 71.78125 18.9375 73 
Q 24.125 74.21875 28.421875 74.21875 
Q 39.75 74.21875 46.484375 68.546875 
Q 53.21875 62.890625 53.21875 53.421875 
Q 53.21875 48.921875 51.53125 44.890625 
Q 49.859375 40.875 45.40625 35.40625 
Q 44.1875 33.984375 37.640625 27.21875 
Q 31.109375 20.453125 19.1875 8.296875 
z
" id="DejaVuSans-50"/>
        <path d="M 10.796875 72.90625 
L 49.515625 72.90625 
L 49.515625 64.59375 
L 19.828125 64.59375 
L 19.828125 46.734375 
Q 21.96875 47.46875 24.109375 47.828125 
Q 26.265625 48.1875 28.421875 48.1875 
Q 40.625 48.1875 47.75 41.5 
Q 54.890625 34.8125 54.890625 23.390625 
Q 54.890625 11.625 47.5625 5.09375 
Q 40.234375 -1.421875 26.90625 -1.421875 
Q 22.3125 -1.421875 17.546875 -0.640625 
Q 12.796875 0.140625 7.71875 1.703125 
L 7.71875 11.625 
Q 12.109375 9.234375 16.796875 8.0625 
Q 21.484375 6.890625 26.703125 6.890625 
Q 35.15625 6.890625 40.078125 11.328125 
Q 45.015625 15.765625 45.015625 23.390625 
Q 45.015625 31 40.078125 35.4375 
Q 35.15625 39.890625 26.703125 39.890625 
Q 22.75 39.890625 18.8125 39.015625 
Q 14.890625 38.140625 10.796875 36.28125 
z
" id="DejaVuSans-53"/>
       </defs>
       <use xlink:href="#DejaVuSans-50"/>
       <use x="63.623047" xlink:href="#DejaVuSans-46"/>
       <use x="95.410156" xlink:href="#DejaVuSans-53"/>
      </g>
     </g>
    </g>
    <g id="xtick_3">
     <g id="line2d_3">
      <g>
       <use style="stroke:#000000;stroke-width:0.8;" x="128.224241" xlink:href="#md40762c104" y="290.59625"/>
      </g>
     </g>
     <g id="text_3">
      <!-- 5.0 -->
      <g transform="translate(120.272679 305.194687)scale(0.1 -0.1)">
       <use xlink:href="#DejaVuSans-53"/>
       <use x="63.623047" xlink:href="#DejaVuSans-46"/>
       <use x="95.410156" xlink:href="#DejaVuSans-48"/>
      </g>
     </g>
    </g>
    <g id="xtick_4">
     <g id="line2d_4">
      <g>
       <use style="stroke:#000000;stroke-width:0.8;" x="166.688296" xlink:href="#md40762c104" y="290.59625"/>
      </g>
     </g>
     <g id="text_4">
      <!-- 7.5 -->
      <g transform="translate(158.736733 305.194687)scale(0.1 -0.1)">
       <defs>
        <path d="M 8.203125 72.90625 
L 55.078125 72.90625 
L 55.078125 68.703125 
L 28.609375 0 
L 18.3125 0 
L 43.21875 64.59375 
L 8.203125 64.59375 
z
" id="DejaVuSans-55"/>
       </defs>
       <use xlink:href="#DejaVuSans-55"/>
       <use x="63.623047" xlink:href="#DejaVuSans-46"/>
       <use x="95.410156" xlink:href="#DejaVuSans-53"/>
      </g>
     </g>
    </g>
    <g id="xtick_5">
     <g id="line2d_5">
      <g>
       <use style="stroke:#000000;stroke-width:0.8;" x="205.15235" xlink:href="#md40762c104" y="290.59625"/>
      </g>
     </g>
     <g id="text_5">
      <!-- 10.0 -->
      <g transform="translate(194.019538 305.194687)scale(0.1 -0.1)">
       <defs>
        <path d="M 12.40625 8.296875 
L 28.515625 8.296875 
L 28.515625 63.921875 
L 10.984375 60.40625 
L 10.984375 69.390625 
L 28.421875 72.90625 
L 38.28125 72.90625 
L 38.28125 8.296875 
L 54.390625 8.296875 
L 54.390625 0 
L 12.40625 0 
z
" id="DejaVuSans-49"/>
       </defs>
       <use xlink:href="#DejaVuSans-49"/>
       <use x="63.623047" xlink:href="#DejaVuSans-48"/>
       <use x="127.246094" xlink:href="#DejaVuSans-46"/>
       <use x="159.033203" xlink:href="#DejaVuSans-48"/>
      </g>
     </g>
    </g>
    <g id="xtick_6">
     <g id="line2d_6">
      <g>
       <use style="stroke:#000000;stroke-width:0.8;" x="243.616405" xlink:href="#md40762c104" y="290.59625"/>
      </g>
     </g>
     <g id="text_6">
      <!-- 12.5 -->
      <g transform="translate(232.483592 305.194687)scale(0.1 -0.1)">
       <use xlink:href="#DejaVuSans-49"/>
       <use x="63.623047" xlink:href="#DejaVuSans-50"/>
       <use x="127.246094" xlink:href="#DejaVuSans-46"/>
       <use x="159.033203" xlink:href="#DejaVuSans-53"/>
      </g>
     </g>
    </g>
    <g id="text_7">
     <!-- Time (s) -->
     <g transform="translate(137.897298 318.872812)scale(0.1 -0.1)">
      <defs>
       <path d="M -0.296875 72.90625 
L 61.375 72.90625 
L 61.375 64.59375 
L 35.5 64.59375 
L 35.5 0 
L 25.59375 0 
L 25.59375 64.59375 
L -0.296875 64.59375 
z
" id="DejaVuSans-84"/>
       <path d="M 9.421875 54.6875 
L 18.40625 54.6875 
L 18.40625 0 
L 9.421875 0 
z
M 9.421875 75.984375 
L 18.40625 75.984375 
L 18.40625 64.59375 
L 9.421875 64.59375 
z
" id="DejaVuSans-105"/>
       <path d="M 52 44.1875 
Q 55.375 50.25 60.0625 53.125 
Q 64.75 56 71.09375 56 
Q 79.640625 56 84.28125 50.015625 
Q 88.921875 44.046875 88.921875 33.015625 
L 88.921875 0 
L 79.890625 0 
L 79.890625 32.71875 
Q 79.890625 40.578125 77.09375 44.375 
Q 74.3125 48.1875 68.609375 48.1875 
Q 61.625 48.1875 57.5625 43.546875 
Q 53.515625 38.921875 53.515625 30.90625 
L 53.515625 0 
L 44.484375 0 
L 44.484375 32.71875 
Q 44.484375 40.625 41.703125 44.40625 
Q 38.921875 48.1875 33.109375 48.1875 
Q 26.21875 48.1875 22.15625 43.53125 
Q 18.109375 38.875 18.109375 30.90625 
L 18.109375 0 
L 9.078125 0 
L 9.078125 54.6875 
L 18.109375 54.6875 
L 18.109375 46.1875 
Q 21.1875 51.21875 25.484375 53.609375 
Q 29.78125 56 35.6875 56 
Q 41.65625 56 45.828125 52.96875 
Q 50 49.953125 52 44.1875 
z
" id="DejaVuSans-109"/>
       <path d="M 56.203125 29.59375 
L 56.203125 25.203125 
L 14.890625 25.203125 
Q 15.484375 15.921875 20.484375 11.0625 
Q 25.484375 6.203125 34.421875 6.203125 
Q 39.59375 6.203125 44.453125 7.46875 
Q 49.3125 8.734375 54.109375 11.28125 
L 54.109375 2.78125 
Q 49.265625 0.734375 44.1875 -0.34375 
Q 39.109375 -1.421875 33.890625 -1.421875 
Q 20.796875 -1.421875 13.15625 6.1875 
Q 5.515625 13.8125 5.515625 26.8125 
Q 5.515625 40.234375 12.765625 48.109375 
Q 20.015625 56 32.328125 56 
Q 43.359375 56 49.78125 48.890625 
Q 56.203125 41.796875 56.203125 29.59375 
z
M 47.21875 32.234375 
Q 47.125 39.59375 43.09375 43.984375 
Q 39.0625 48.390625 32.421875 48.390625 
Q 24.90625 48.390625 20.390625 44.140625 
Q 15.875 39.890625 15.1875 32.171875 
z
" id="DejaVuSans-101"/>
       <path id="DejaVuSans-32"/>
       <path d="M 31 75.875 
Q 24.46875 64.65625 21.28125 53.65625 
Q 18.109375 42.671875 18.109375 31.390625 
Q 18.109375 20.125 21.3125 9.0625 
Q 24.515625 -2 31 -13.1875 
L 23.1875 -13.1875 
Q 15.875 -1.703125 12.234375 9.375 
Q 8.59375 20.453125 8.59375 31.390625 
Q 8.59375 42.28125 12.203125 53.3125 
Q 15.828125 64.359375 23.1875 75.875 
z
" id="DejaVuSans-40"/>
       <path d="M 44.28125 53.078125 
L 44.28125 44.578125 
Q 40.484375 46.53125 36.375 47.5 
Q 32.28125 48.484375 27.875 48.484375 
Q 21.1875 48.484375 17.84375 46.4375 
Q 14.5 44.390625 14.5 40.28125 
Q 14.5 37.15625 16.890625 35.375 
Q 19.28125 33.59375 26.515625 31.984375 
L 29.59375 31.296875 
Q 39.15625 29.25 43.1875 25.515625 
Q 47.21875 21.78125 47.21875 15.09375 
Q 47.21875 7.46875 41.1875 3.015625 
Q 35.15625 -1.421875 24.609375 -1.421875 
Q 20.21875 -1.421875 15.453125 -0.5625 
Q 10.6875 0.296875 5.421875 2 
L 5.421875 11.28125 
Q 10.40625 8.6875 15.234375 7.390625 
Q 20.0625 6.109375 24.8125 6.109375 
Q 31.15625 6.109375 34.5625 8.28125 
Q 37.984375 10.453125 37.984375 14.40625 
Q 37.984375 18.0625 35.515625 20.015625 
Q 33.0625 21.96875 24.703125 23.78125 
L 21.578125 24.515625 
Q 13.234375 26.265625 9.515625 29.90625 
Q 5.8125 33.546875 5.8125 39.890625 
Q 5.8125 47.609375 11.28125 51.796875 
Q 16.75 56 26.8125 56 
Q 31.78125 56 36.171875 55.265625 
Q 40.578125 54.546875 44.28125 53.078125 
z
" id="DejaVuSans-115"/>
       <path d="M 8.015625 75.875 
L 15.828125 75.875 
Q 23.140625 64.359375 26.78125 53.3125 
Q 30.421875 42.28125 30.421875 31.390625 
Q 30.421875 20.453125 26.78125 9.375 
Q 23.140625 -1.703125 15.828125 -13.1875 
L 8.015625 -13.1875 
Q 14.5 -2 17.703125 9.0625 
Q 20.90625 20.125 20.90625 31.390625 
Q 20.90625 42.671875 17.703125 53.65625 
Q 14.5 64.65625 8.015625 75.875 
z
" id="DejaVuSans-41"/>
      </defs>
      <use xlink:href="#DejaVuSans-84"/>
      <use x="57.958984" xlink:href="#DejaVuSans-105"/>
      <use x="85.742188" xlink:href="#DejaVuSans-109"/>
      <use x="183.154297" xlink:href="#DejaVuSans-101"/>
      <use x="244.677734" xlink:href="#DejaVuSans-32"/>
      <use x="276.464844" xlink:href="#DejaVuSans-40"/>
      <use x="315.478516" xlink:href="#DejaVuSans-115"/>
      <use x="367.578125" xlink:href="#DejaVuSans-41"/>
     </g>
    </g>
   </g>
   <g id="matplotlib.axis_2">
    <g id="ytick_1">
     <g id="line2d_7">
      <defs>
       <path d="M 0 0 
L -3.5 0 
" id="m4886be1836" style="stroke:#000000;stroke-width:0.8;"/>
      </defs>
      <g>
       <use style="stroke:#000000;stroke-width:0.8;" x="40.603125" xlink:href="#m4886be1836" y="279.903523"/>
      </g>
     </g>
     <g id="text_8">
      <!-- 0 -->
      <g transform="translate(27.240625 283.702741)scale(0.1 -0.1)">
       <use xlink:href="#DejaVuSans-48"/>
      </g>
     </g>
    </g>
    <g id="ytick_2">
     <g id="line2d_8">
      <g>
       <use style="stroke:#000000;stroke-width:0.8;" x="40.603125" xlink:href="#m4886be1836" y="253.012109"/>
      </g>
     </g>
     <g id="text_9">
      <!-- 5 -->
      <g transform="translate(27.240625 256.811328)scale(0.1 -0.1)">
       <use xlink:href="#DejaVuSans-53"/>
      </g>
     </g>
    </g>
    <g id="ytick_3">
     <g id="line2d_9">
      <g>
       <use style="stroke:#000000;stroke-width:0.8;" x="40.603125" xlink:href="#m4886be1836" y="226.120696"/>
      </g>
     </g>
     <g id="text_10">
      <!-- 10 -->
      <g transform="translate(20.878125 229.919915)scale(0.1 -0.1)">
       <use xlink:href="#DejaVuSans-49"/>
       <use x="63.623047" xlink:href="#DejaVuSans-48"/>
      </g>
     </g>
    </g>
    <g id="ytick_4">
     <g id="line2d_10">
      <g>
       <use style="stroke:#000000;stroke-width:0.8;" x="40.603125" xlink:href="#m4886be1836" y="199.229283"/>
      </g>
     </g>
     <g id="text_11">
      <!-- 15 -->
      <g transform="translate(20.878125 203.028501)scale(0.1 -0.1)">
       <use xlink:href="#DejaVuSans-49"/>
       <use x="63.623047" xlink:href="#DejaVuSans-53"/>
      </g>
     </g>
    </g>
    <g id="ytick_5">
     <g id="line2d_11">
      <g>
       <use style="stroke:#000000;stroke-width:0.8;" x="40.603125" xlink:href="#m4886be1836" y="172.337869"/>
      </g>
     </g>
     <g id="text_12">
      <!-- 20 -->
      <g transform="translate(20.878125 176.137088)scale(0.1 -0.1)">
       <use xlink:href="#DejaVuSans-50"/>
       <use x="63.623047" xlink:href="#DejaVuSans-48"/>
      </g>
     </g>
    </g>
    <g id="ytick_6">
     <g id="line2d_12">
      <g>
       <use style="stroke:#000000;stroke-width:0.8;" x="40.603125" xlink:href="#m4886be1836" y="145.446456"/>
      </g>
     </g>
     <g id="text_13">
      <!-- 25 -->
      <g transform="translate(20.878125 149.245675)scale(0.1 -0.1)">
       <use xlink:href="#DejaVuSans-50"/>
       <use x="63.623047" xlink:href="#DejaVuSans-53"/>
      </g>
     </g>
    </g>
    <g id="ytick_7">
     <g id="line2d_13">
      <g>
       <use style="stroke:#000000;stroke-width:0.8;" x="40.603125" xlink:href="#m4886be1836" y="118.555043"/>
      </g>
     </g>
     <g id="text_14">
      <!-- 30 -->
      <g transform="translate(20.878125 122.354261)scale(0.1 -0.1)">
       <defs>
        <path d="M 40.578125 39.3125 
Q 47.65625 37.796875 51.625 33 
Q 55.609375 28.21875 55.609375 21.1875 
Q 55.609375 10.40625 48.1875 4.484375 
Q 40.765625 -1.421875 27.09375 -1.421875 
Q 22.515625 -1.421875 17.65625 -0.515625 
Q 12.796875 0.390625 7.625 2.203125 
L 7.625 11.71875 
Q 11.71875 9.328125 16.59375 8.109375 
Q 21.484375 6.890625 26.8125 6.890625 
Q 36.078125 6.890625 40.9375 10.546875 
Q 45.796875 14.203125 45.796875 21.1875 
Q 45.796875 27.640625 41.28125 31.265625 
Q 36.765625 34.90625 28.71875 34.90625 
L 20.21875 34.90625 
L 20.21875 43.015625 
L 29.109375 43.015625 
Q 36.375 43.015625 40.234375 45.921875 
Q 44.09375 48.828125 44.09375 54.296875 
Q 44.09375 59.90625 40.109375 62.90625 
Q 36.140625 65.921875 28.71875 65.921875 
Q 24.65625 65.921875 20.015625 65.03125 
Q 15.375 64.15625 9.8125 62.3125 
L 9.8125 71.09375 
Q 15.4375 72.65625 20.34375 73.4375 
Q 25.25 74.21875 29.59375 74.21875 
Q 40.828125 74.21875 47.359375 69.109375 
Q 53.90625 64.015625 53.90625 55.328125 
Q 53.90625 49.265625 50.4375 45.09375 
Q 46.96875 40.921875 40.578125 39.3125 
z
" id="DejaVuSans-51"/>
       </defs>
       <use xlink:href="#DejaVuSans-51"/>
       <use x="63.623047" xlink:href="#DejaVuSans-48"/>
      </g>
     </g>
    </g>
    <g id="ytick_8">
     <g id="line2d_14">
      <g>
       <use style="stroke:#000000;stroke-width:0.8;" x="40.603125" xlink:href="#m4886be1836" y="91.663629"/>
      </g>
     </g>
     <g id="text_15">
      <!-- 35 -->
      <g transform="translate(20.878125 95.462848)scale(0.1 -0.1)">
       <use xlink:href="#DejaVuSans-51"/>
       <use x="63.623047" xlink:href="#DejaVuSans-53"/>
      </g>
     </g>
    </g>
    <g id="ytick_9">
     <g id="line2d_15">
      <g>
       <use style="stroke:#000000;stroke-width:0.8;" x="40.603125" xlink:href="#m4886be1836" y="64.772216"/>
      </g>
     </g>
     <g id="text_16">
      <!-- 40 -->
      <g transform="translate(20.878125 68.571435)scale(0.1 -0.1)">
       <defs>
        <path d="M 37.796875 64.3125 
L 12.890625 25.390625 
L 37.796875 25.390625 
z
M 35.203125 72.90625 
L 47.609375 72.90625 
L 47.609375 25.390625 
L 58.015625 25.390625 
L 58.015625 17.1875 
L 47.609375 17.1875 
L 47.609375 0 
L 37.796875 0 
L 37.796875 17.1875 
L 4.890625 17.1875 
L 4.890625 26.703125 
z
" id="DejaVuSans-52"/>
       </defs>
       <use xlink:href="#DejaVuSans-52"/>
       <use x="63.623047" xlink:href="#DejaVuSans-48"/>
      </g>
     </g>
    </g>
    <g id="text_17">
     <!-- Mean Magnitude of Throttle/Brake -->
     <g transform="translate(14.798438 258.312187)rotate(-90)scale(0.1 -0.1)">
      <defs>
       <path d="M 9.8125 72.90625 
L 24.515625 72.90625 
L 43.109375 23.296875 
L 61.8125 72.90625 
L 76.515625 72.90625 
L 76.515625 0 
L 66.890625 0 
L 66.890625 64.015625 
L 48.09375 14.015625 
L 38.1875 14.015625 
L 19.390625 64.015625 
L 19.390625 0 
L 9.8125 0 
z
" id="DejaVuSans-77"/>
       <path d="M 34.28125 27.484375 
Q 23.390625 27.484375 19.1875 25 
Q 14.984375 22.515625 14.984375 16.5 
Q 14.984375 11.71875 18.140625 8.90625 
Q 21.296875 6.109375 26.703125 6.109375 
Q 34.1875 6.109375 38.703125 11.40625 
Q 43.21875 16.703125 43.21875 25.484375 
L 43.21875 27.484375 
z
M 52.203125 31.203125 
L 52.203125 0 
L 43.21875 0 
L 43.21875 8.296875 
Q 40.140625 3.328125 35.546875 0.953125 
Q 30.953125 -1.421875 24.3125 -1.421875 
Q 15.921875 -1.421875 10.953125 3.296875 
Q 6 8.015625 6 15.921875 
Q 6 25.140625 12.171875 29.828125 
Q 18.359375 34.515625 30.609375 34.515625 
L 43.21875 34.515625 
L 43.21875 35.40625 
Q 43.21875 41.609375 39.140625 45 
Q 35.0625 48.390625 27.6875 48.390625 
Q 23 48.390625 18.546875 47.265625 
Q 14.109375 46.140625 10.015625 43.890625 
L 10.015625 52.203125 
Q 14.9375 54.109375 19.578125 55.046875 
Q 24.21875 56 28.609375 56 
Q 40.484375 56 46.34375 49.84375 
Q 52.203125 43.703125 52.203125 31.203125 
z
" id="DejaVuSans-97"/>
       <path d="M 54.890625 33.015625 
L 54.890625 0 
L 45.90625 0 
L 45.90625 32.71875 
Q 45.90625 40.484375 42.875 44.328125 
Q 39.84375 48.1875 33.796875 48.1875 
Q 26.515625 48.1875 22.3125 43.546875 
Q 18.109375 38.921875 18.109375 30.90625 
L 18.109375 0 
L 9.078125 0 
L 9.078125 54.6875 
L 18.109375 54.6875 
L 18.109375 46.1875 
Q 21.34375 51.125 25.703125 53.5625 
Q 30.078125 56 35.796875 56 
Q 45.21875 56 50.046875 50.171875 
Q 54.890625 44.34375 54.890625 33.015625 
z
" id="DejaVuSans-110"/>
       <path d="M 45.40625 27.984375 
Q 45.40625 37.75 41.375 43.109375 
Q 37.359375 48.484375 30.078125 48.484375 
Q 22.859375 48.484375 18.828125 43.109375 
Q 14.796875 37.75 14.796875 27.984375 
Q 14.796875 18.265625 18.828125 12.890625 
Q 22.859375 7.515625 30.078125 7.515625 
Q 37.359375 7.515625 41.375 12.890625 
Q 45.40625 18.265625 45.40625 27.984375 
z
M 54.390625 6.78125 
Q 54.390625 -7.171875 48.1875 -13.984375 
Q 42 -20.796875 29.203125 -20.796875 
Q 24.46875 -20.796875 20.265625 -20.09375 
Q 16.0625 -19.390625 12.109375 -17.921875 
L 12.109375 -9.1875 
Q 16.0625 -11.328125 19.921875 -12.34375 
Q 23.78125 -13.375 27.78125 -13.375 
Q 36.625 -13.375 41.015625 -8.765625 
Q 45.40625 -4.15625 45.40625 5.171875 
L 45.40625 9.625 
Q 42.625 4.78125 38.28125 2.390625 
Q 33.9375 0 27.875 0 
Q 17.828125 0 11.671875 7.65625 
Q 5.515625 15.328125 5.515625 27.984375 
Q 5.515625 40.671875 11.671875 48.328125 
Q 17.828125 56 27.875 56 
Q 33.9375 56 38.28125 53.609375 
Q 42.625 51.21875 45.40625 46.390625 
L 45.40625 54.6875 
L 54.390625 54.6875 
z
" id="DejaVuSans-103"/>
       <path d="M 18.3125 70.21875 
L 18.3125 54.6875 
L 36.8125 54.6875 
L 36.8125 47.703125 
L 18.3125 47.703125 
L 18.3125 18.015625 
Q 18.3125 11.328125 20.140625 9.421875 
Q 21.96875 7.515625 27.59375 7.515625 
L 36.8125 7.515625 
L 36.8125 0 
L 27.59375 0 
Q 17.1875 0 13.234375 3.875 
Q 9.28125 7.765625 9.28125 18.015625 
L 9.28125 47.703125 
L 2.6875 47.703125 
L 2.6875 54.6875 
L 9.28125 54.6875 
L 9.28125 70.21875 
z
" id="DejaVuSans-116"/>
       <path d="M 8.5 21.578125 
L 8.5 54.6875 
L 17.484375 54.6875 
L 17.484375 21.921875 
Q 17.484375 14.15625 20.5 10.265625 
Q 23.53125 6.390625 29.59375 6.390625 
Q 36.859375 6.390625 41.078125 11.03125 
Q 45.3125 15.671875 45.3125 23.6875 
L 45.3125 54.6875 
L 54.296875 54.6875 
L 54.296875 0 
L 45.3125 0 
L 45.3125 8.40625 
Q 42.046875 3.421875 37.71875 1 
Q 33.40625 -1.421875 27.6875 -1.421875 
Q 18.265625 -1.421875 13.375 4.4375 
Q 8.5 10.296875 8.5 21.578125 
z
M 31.109375 56 
z
" id="DejaVuSans-117"/>
       <path d="M 45.40625 46.390625 
L 45.40625 75.984375 
L 54.390625 75.984375 
L 54.390625 0 
L 45.40625 0 
L 45.40625 8.203125 
Q 42.578125 3.328125 38.25 0.953125 
Q 33.9375 -1.421875 27.875 -1.421875 
Q 17.96875 -1.421875 11.734375 6.484375 
Q 5.515625 14.40625 5.515625 27.296875 
Q 5.515625 40.1875 11.734375 48.09375 
Q 17.96875 56 27.875 56 
Q 33.9375 56 38.25 53.625 
Q 42.578125 51.265625 45.40625 46.390625 
z
M 14.796875 27.296875 
Q 14.796875 17.390625 18.875 11.75 
Q 22.953125 6.109375 30.078125 6.109375 
Q 37.203125 6.109375 41.296875 11.75 
Q 45.40625 17.390625 45.40625 27.296875 
Q 45.40625 37.203125 41.296875 42.84375 
Q 37.203125 48.484375 30.078125 48.484375 
Q 22.953125 48.484375 18.875 42.84375 
Q 14.796875 37.203125 14.796875 27.296875 
z
" id="DejaVuSans-100"/>
       <path d="M 30.609375 48.390625 
Q 23.390625 48.390625 19.1875 42.75 
Q 14.984375 37.109375 14.984375 27.296875 
Q 14.984375 17.484375 19.15625 11.84375 
Q 23.34375 6.203125 30.609375 6.203125 
Q 37.796875 6.203125 41.984375 11.859375 
Q 46.1875 17.53125 46.1875 27.296875 
Q 46.1875 37.015625 41.984375 42.703125 
Q 37.796875 48.390625 30.609375 48.390625 
z
M 30.609375 56 
Q 42.328125 56 49.015625 48.375 
Q 55.71875 40.765625 55.71875 27.296875 
Q 55.71875 13.875 49.015625 6.21875 
Q 42.328125 -1.421875 30.609375 -1.421875 
Q 18.84375 -1.421875 12.171875 6.21875 
Q 5.515625 13.875 5.515625 27.296875 
Q 5.515625 40.765625 12.171875 48.375 
Q 18.84375 56 30.609375 56 
z
" id="DejaVuSans-111"/>
       <path d="M 37.109375 75.984375 
L 37.109375 68.5 
L 28.515625 68.5 
Q 23.6875 68.5 21.796875 66.546875 
Q 19.921875 64.59375 19.921875 59.515625 
L 19.921875 54.6875 
L 34.71875 54.6875 
L 34.71875 47.703125 
L 19.921875 47.703125 
L 19.921875 0 
L 10.890625 0 
L 10.890625 47.703125 
L 2.296875 47.703125 
L 2.296875 54.6875 
L 10.890625 54.6875 
L 10.890625 58.5 
Q 10.890625 67.625 15.140625 71.796875 
Q 19.390625 75.984375 28.609375 75.984375 
z
" id="DejaVuSans-102"/>
       <path d="M 54.890625 33.015625 
L 54.890625 0 
L 45.90625 0 
L 45.90625 32.71875 
Q 45.90625 40.484375 42.875 44.328125 
Q 39.84375 48.1875 33.796875 48.1875 
Q 26.515625 48.1875 22.3125 43.546875 
Q 18.109375 38.921875 18.109375 30.90625 
L 18.109375 0 
L 9.078125 0 
L 9.078125 75.984375 
L 18.109375 75.984375 
L 18.109375 46.1875 
Q 21.34375 51.125 25.703125 53.5625 
Q 30.078125 56 35.796875 56 
Q 45.21875 56 50.046875 50.171875 
Q 54.890625 44.34375 54.890625 33.015625 
z
" id="DejaVuSans-104"/>
       <path d="M 41.109375 46.296875 
Q 39.59375 47.171875 37.8125 47.578125 
Q 36.03125 48 33.890625 48 
Q 26.265625 48 22.1875 43.046875 
Q 18.109375 38.09375 18.109375 28.8125 
L 18.109375 0 
L 9.078125 0 
L 9.078125 54.6875 
L 18.109375 54.6875 
L 18.109375 46.1875 
Q 20.953125 51.171875 25.484375 53.578125 
Q 30.03125 56 36.53125 56 
Q 37.453125 56 38.578125 55.875 
Q 39.703125 55.765625 41.0625 55.515625 
z
" id="DejaVuSans-114"/>
       <path d="M 9.421875 75.984375 
L 18.40625 75.984375 
L 18.40625 0 
L 9.421875 0 
z
" id="DejaVuSans-108"/>
       <path d="M 25.390625 72.90625 
L 33.6875 72.90625 
L 8.296875 -9.28125 
L 0 -9.28125 
z
" id="DejaVuSans-47"/>
       <path d="M 19.671875 34.8125 
L 19.671875 8.109375 
L 35.5 8.109375 
Q 43.453125 8.109375 47.28125 11.40625 
Q 51.125 14.703125 51.125 21.484375 
Q 51.125 28.328125 47.28125 31.5625 
Q 43.453125 34.8125 35.5 34.8125 
z
M 19.671875 64.796875 
L 19.671875 42.828125 
L 34.28125 42.828125 
Q 41.5 42.828125 45.03125 45.53125 
Q 48.578125 48.25 48.578125 53.8125 
Q 48.578125 59.328125 45.03125 62.0625 
Q 41.5 64.796875 34.28125 64.796875 
z
M 9.8125 72.90625 
L 35.015625 72.90625 
Q 46.296875 72.90625 52.390625 68.21875 
Q 58.5 63.53125 58.5 54.890625 
Q 58.5 48.1875 55.375 44.234375 
Q 52.25 40.28125 46.1875 39.3125 
Q 53.46875 37.75 57.5 32.78125 
Q 61.53125 27.828125 61.53125 20.40625 
Q 61.53125 10.640625 54.890625 5.3125 
Q 48.25 0 35.984375 0 
L 9.8125 0 
z
" id="DejaVuSans-66"/>
       <path d="M 9.078125 75.984375 
L 18.109375 75.984375 
L 18.109375 31.109375 
L 44.921875 54.6875 
L 56.390625 54.6875 
L 27.390625 29.109375 
L 57.625 0 
L 45.90625 0 
L 18.109375 26.703125 
L 18.109375 0 
L 9.078125 0 
z
" id="DejaVuSans-107"/>
      </defs>
      <use xlink:href="#DejaVuSans-77"/>
      <use x="86.279297" xlink:href="#DejaVuSans-101"/>
      <use x="147.802734" xlink:href="#DejaVuSans-97"/>
      <use x="209.082031" xlink:href="#DejaVuSans-110"/>
      <use x="272.460938" xlink:href="#DejaVuSans-32"/>
      <use x="304.248047" xlink:href="#DejaVuSans-77"/>
      <use x="390.527344" xlink:href="#DejaVuSans-97"/>
      <use x="451.806641" xlink:href="#DejaVuSans-103"/>
      <use x="515.283203" xlink:href="#DejaVuSans-110"/>
      <use x="578.662109" xlink:href="#DejaVuSans-105"/>
      <use x="606.445312" xlink:href="#DejaVuSans-116"/>
      <use x="645.654297" xlink:href="#DejaVuSans-117"/>
      <use x="709.033203" xlink:href="#DejaVuSans-100"/>
      <use x="772.509766" xlink:href="#DejaVuSans-101"/>
      <use x="834.033203" xlink:href="#DejaVuSans-32"/>
      <use x="865.820312" xlink:href="#DejaVuSans-111"/>
      <use x="927.001953" xlink:href="#DejaVuSans-102"/>
      <use x="962.207031" xlink:href="#DejaVuSans-32"/>
      <use x="993.994141" xlink:href="#DejaVuSans-84"/>
      <use x="1055.078125" xlink:href="#DejaVuSans-104"/>
      <use x="1118.457031" xlink:href="#DejaVuSans-114"/>
      <use x="1157.320312" xlink:href="#DejaVuSans-111"/>
      <use x="1218.501953" xlink:href="#DejaVuSans-116"/>
      <use x="1257.710938" xlink:href="#DejaVuSans-116"/>
      <use x="1296.919922" xlink:href="#DejaVuSans-108"/>
      <use x="1324.703125" xlink:href="#DejaVuSans-101"/>
      <use x="1386.226562" xlink:href="#DejaVuSans-47"/>
      <use x="1419.917969" xlink:href="#DejaVuSans-66"/>
      <use x="1488.521484" xlink:href="#DejaVuSans-114"/>
      <use x="1529.634766" xlink:href="#DejaVuSans-97"/>
      <use x="1590.914062" xlink:href="#DejaVuSans-107"/>
      <use x="1645.199219" xlink:href="#DejaVuSans-101"/>
     </g>
    </g>
   </g>
   <g id="line2d_16">
    <path clip-path="url(#pbbe525c757)" d="M 51.296132 279.903523 
L 265.156275 279.903523 
L 265.156275 279.903523 
" style="fill:none;stroke:#000000;stroke-linecap:square;stroke-width:0.5;"/>
   </g>
   <g id="line2d_17">
    <path clip-path="url(#pbbe525c757)" d="M 51.296132 274.52524 
L 265.156275 274.52524 
L 265.156275 274.52524 
" style="fill:none;stroke:#000000;stroke-linecap:square;stroke-width:0.5;"/>
   </g>
   <g id="line2d_18">
    <path clip-path="url(#pbbe525c757)" d="M 51.296132 240.670278 
L 52.834694 243.18134 
L 54.373257 243.624561 
L 55.911819 239.637899 
L 57.450381 246.179621 
L 58.988943 246.559873 
L 60.527505 245.009423 
L 62.066067 240.931007 
L 63.60463 241.003021 
L 65.143192 238.382999 
L 66.681754 237.32043 
L 68.220316 224.740652 
L 69.758878 208.837697 
L 71.297441 197.843343 
L 72.836003 183.915669 
L 74.374565 161.014238 
L 75.913127 130.720292 
L 77.451689 115.556728 
L 78.990251 76.42558 
L 80.528814 79.666613 
L 82.067376 89.60188 
L 83.605938 66.048977 
L 85.1445 81.049909 
L 86.683062 72.393903 
L 88.221625 76.197437 
L 89.760187 94.944275 
L 91.298749 92.835021 
L 92.837311 113.827559 
L 94.375873 113.530821 
L 95.914435 79.463634 
L 97.452998 139.273164 
L 98.99156 83.333772 
L 100.530122 145.532816 
L 102.068684 149.28379 
L 103.607246 159.025015 
L 105.145809 171.755349 
L 106.684371 169.875002 
L 108.222933 157.195085 
L 109.761495 165.390433 
L 111.300057 174.729851 
L 112.838619 177.750345 
L 114.377182 184.380127 
L 115.915744 187.799488 
L 117.454306 188.005069 
L 118.992868 192.604981 
L 120.53143 192.043536 
L 122.069993 187.412461 
L 123.608555 184.220771 
L 125.147117 186.696036 
L 126.685679 194.21576 
L 128.224241 193.205366 
L 129.762803 199.289779 
L 131.301366 186.798739 
L 132.839928 189.39815 
L 134.37849 198.494077 
L 135.917052 203.429312 
L 137.455614 202.305618 
L 138.994177 204.3959 
L 140.532739 205.566151 
L 142.071301 207.106766 
L 143.609863 212.60457 
L 145.148425 215.21549 
L 146.686987 215.154319 
L 148.22555 212.690079 
L 149.764112 212.580594 
L 151.302674 221.244297 
L 152.841236 224.609398 
L 154.379798 222.744843 
L 155.918361 225.586849 
L 157.456923 222.899615 
L 158.995485 224.478944 
L 160.534047 225.686013 
L 162.072609 223.073103 
L 163.611171 219.787666 
L 165.149734 228.515922 
L 166.688296 222.357201 
L 168.226858 222.408527 
L 169.76542 216.670205 
L 171.303982 215.916205 
L 172.842545 218.638167 
L 174.381107 216.191684 
L 175.919669 213.162146 
L 177.458231 211.711813 
L 178.996793 212.994316 
L 180.535355 217.347965 
L 182.073918 219.672641 
L 183.61248 221.353409 
L 185.151042 226.736543 
L 186.689604 226.379519 
L 188.228166 227.81296 
L 191.305291 233.422734 
L 192.843853 233.982124 
L 194.382415 231.283097 
L 195.920977 234.820776 
L 197.459539 236.014554 
L 198.998102 237.78984 
L 200.536664 238.478383 
L 202.075226 238.077279 
L 203.613788 237.059563 
L 205.15235 235.479631 
L 206.690913 234.70198 
L 208.229475 235.104511 
L 209.768037 237.807804 
L 211.306599 231.484055 
L 212.845161 220.974859 
L 214.383723 232.544687 
L 215.922286 234.03327 
L 217.460848 233.888065 
L 218.99941 228.382722 
L 220.537972 235.984462 
L 222.076534 236.365316 
L 223.615097 240.094203 
L 225.153659 239.118395 
L 226.692221 239.937245 
L 228.230783 239.875731 
L 229.769345 244.175887 
L 231.307907 245.23193 
L 232.84647 244.42082 
L 234.385032 245.176677 
L 235.923594 243.073179 
L 237.462156 244.10236 
L 239.000718 243.032655 
L 240.539281 244.487147 
L 243.616405 243.056971 
L 245.154967 242.858069 
L 246.693529 243.385489 
L 248.232091 240.134591 
L 249.770654 242.276906 
L 251.309216 241.775491 
L 252.847778 238.796862 
L 254.38634 239.142289 
L 255.924902 235.770879 
L 257.463465 237.636467 
L 259.002027 236.397209 
L 260.540589 236.870881 
L 262.079151 236.661449 
L 263.617713 238.671391 
L 265.156275 239.304476 
L 265.156275 239.304476 
" style="fill:none;stroke:#1f77b4;stroke-linecap:square;stroke-width:1.5;"/>
   </g>
   <g id="line2d_19">
    <path clip-path="url(#pbbe525c757)" d="M 51.296132 279.903523 
L 265.156275 279.903523 
L 265.156275 279.903523 
" style="fill:none;stroke:#000000;stroke-linecap:square;stroke-width:0.5;"/>
   </g>
   <g id="line2d_20">
    <path clip-path="url(#pbbe525c757)" d="M 51.296132 274.52524 
L 265.156275 274.52524 
L 265.156275 274.52524 
" style="fill:none;stroke:#000000;stroke-linecap:square;stroke-width:0.5;"/>
   </g>
   <g id="line2d_21">
    <path clip-path="url(#pbbe525c757)" d="M 51.296132 216.116202 
L 52.834694 236.775681 
L 54.373257 227.747811 
L 57.450381 221.044138 
L 58.988943 217.699869 
L 60.527505 213.798773 
L 62.066067 215.45743 
L 63.60463 218.491809 
L 65.143192 215.324226 
L 66.681754 208.590552 
L 68.220316 209.515328 
L 69.758878 210.786878 
L 71.297441 210.770758 
L 72.836003 211.803537 
L 74.374565 206.054386 
L 75.913127 209.887548 
L 77.451689 208.945244 
L 78.990251 205.700348 
L 80.528814 204.104188 
L 82.067376 205.326613 
L 83.605938 208.074722 
L 85.1445 206.273762 
L 86.683062 211.898669 
L 88.221625 209.820427 
L 89.760187 205.335164 
L 91.298749 199.866916 
L 92.837311 201.356634 
L 94.375873 198.823232 
L 95.914435 199.043544 
L 97.452998 200.03656 
L 98.99156 200.869476 
L 100.530122 200.695717 
L 102.068684 200.828413 
L 103.607246 198.348772 
L 105.145809 194.96542 
L 106.684371 196.002169 
L 108.222933 190.927531 
L 109.761495 189.244498 
L 111.300057 186.346101 
L 112.838619 185.424819 
L 114.377182 177.674142 
L 115.915744 175.950882 
L 117.454306 176.55152 
L 120.53143 176.9429 
L 122.069993 171.043347 
L 123.608555 170.706311 
L 125.147117 166.102712 
L 126.685679 169.647896 
L 128.224241 166.326308 
L 129.762803 173.471441 
L 131.301366 174.993411 
L 132.839928 170.985502 
L 134.37849 170.614368 
L 135.917052 168.377545 
L 137.455614 174.228557 
L 138.994177 171.094457 
L 140.532739 173.838451 
L 142.071301 177.300008 
L 143.609863 171.020409 
L 145.148425 170.388016 
L 146.686987 175.097689 
L 148.22555 170.218818 
L 149.764112 168.868464 
L 151.302674 181.985023 
L 152.841236 176.321838 
L 154.379798 179.998166 
L 155.918361 173.842185 
L 157.456923 179.31251 
L 158.995485 179.146552 
L 160.534047 177.128044 
L 162.072609 178.947077 
L 163.611171 175.577992 
L 165.149734 176.37034 
L 166.688296 182.991515 
L 169.76542 181.526647 
L 171.303982 182.165761 
L 172.842545 180.106805 
L 174.381107 177.519711 
L 175.919669 176.659637 
L 177.458231 177.25586 
L 178.996793 182.972064 
L 180.535355 186.368115 
L 182.073918 181.824892 
L 183.61248 185.235889 
L 185.151042 185.231407 
L 186.689604 179.209108 
L 188.228166 181.836297 
L 189.766729 178.611855 
L 191.305291 175.763053 
L 192.843853 173.45358 
L 194.382415 171.850116 
L 195.920977 174.518026 
L 197.459539 181.338855 
L 198.998102 177.589372 
L 200.536664 177.970613 
L 202.075226 177.495518 
L 203.613788 179.548698 
L 205.15235 173.811416 
L 206.690913 171.749363 
L 208.229475 169.060404 
L 209.768037 173.364515 
L 211.306599 172.938405 
L 212.845161 177.000851 
L 214.383723 177.195954 
L 215.922286 174.874888 
L 217.460848 171.369364 
L 218.99941 176.798086 
L 220.537972 178.399605 
L 222.076534 180.337718 
L 223.615097 177.069649 
L 225.153659 178.20157 
L 226.692221 174.073386 
L 228.230783 174.19903 
L 229.769345 179.443005 
L 231.307907 178.755295 
L 232.84647 175.082438 
L 234.385032 177.511354 
L 235.923594 179.115412 
L 237.462156 177.286351 
L 239.000718 178.350687 
L 240.539281 179.16647 
L 242.077843 175.018934 
L 245.154967 177.369251 
L 246.693529 180.058152 
L 248.232091 185.187224 
L 249.770654 178.937755 
L 251.309216 181.742856 
L 252.847778 184.029527 
L 254.38634 180.736348 
L 255.924902 187.026592 
L 257.463465 180.637268 
L 259.002027 178.896596 
L 262.079151 185.675384 
L 263.617713 188.152226 
L 265.156275 187.430579 
L 265.156275 187.430579 
" style="fill:none;stroke:#ff7f0e;stroke-linecap:square;stroke-width:1.5;"/>
   </g>
   <g id="line2d_22">
    <path clip-path="url(#pbbe525c757)" d="M 51.296132 279.903523 
L 265.156275 279.903523 
L 265.156275 279.903523 
" style="fill:none;stroke:#000000;stroke-linecap:square;stroke-width:0.5;"/>
   </g>
   <g id="line2d_23">
    <path clip-path="url(#pbbe525c757)" d="M 51.296132 274.52524 
L 265.156275 274.52524 
L 265.156275 274.52524 
" style="fill:none;stroke:#000000;stroke-linecap:square;stroke-width:0.5;"/>
   </g>
   <g id="line2d_24">
    <path clip-path="url(#pbbe525c757)" d="M 51.296132 262.177654 
L 52.834694 260.707236 
L 54.373257 262.886303 
L 55.911819 260.455618 
L 57.450381 260.405038 
L 58.988943 257.273157 
L 60.527505 255.533433 
L 62.066067 254.038812 
L 63.60463 251.106204 
L 65.143192 249.414991 
L 68.220316 249.098233 
L 69.758878 247.745054 
L 71.297441 246.562579 
L 72.836003 244.194088 
L 74.374565 244.811587 
L 75.913127 245.060001 
L 77.451689 246.655048 
L 78.990251 247.236155 
L 80.528814 247.140872 
L 82.067376 247.322718 
L 83.605938 246.774786 
L 85.1445 244.459302 
L 86.683062 245.395885 
L 88.221625 243.57871 
L 89.760187 243.558346 
L 91.298749 240.860258 
L 92.837311 239.164675 
L 94.375873 239.660528 
L 95.914435 242.651217 
L 97.452998 241.450565 
L 98.99156 241.916002 
L 100.530122 242.60795 
L 102.068684 244.050383 
L 103.607246 241.959566 
L 106.684371 241.407879 
L 108.222933 239.90657 
L 109.761495 240.372036 
L 111.300057 238.799284 
L 112.838619 236.830355 
L 114.377182 234.614658 
L 115.915744 236.928597 
L 118.992868 235.880084 
L 120.53143 236.524085 
L 122.069993 234.795022 
L 123.608555 229.254299 
L 125.147117 230.61889 
L 126.685679 229.214787 
L 128.224241 222.903561 
L 129.762803 227.42318 
L 131.301366 227.495198 
L 132.839928 226.964867 
L 134.37849 227.470135 
L 135.917052 227.221551 
L 137.455614 229.342583 
L 138.994177 227.130661 
L 140.532739 223.845304 
L 142.071301 228.425555 
L 143.609863 229.136018 
L 145.148425 231.290888 
L 146.686987 229.625604 
L 148.22555 231.616114 
L 151.302674 230.878573 
L 152.841236 232.506277 
L 154.379798 231.640321 
L 155.918361 231.217522 
L 157.456923 232.308096 
L 158.995485 231.869396 
L 160.534047 233.683819 
L 162.072609 234.692779 
L 163.611171 235.108723 
L 165.149734 234.793274 
L 166.688296 235.184444 
L 169.76542 235.176135 
L 171.303982 235.380367 
L 172.842545 237.441919 
L 174.381107 237.088065 
L 175.919669 236.487772 
L 177.458231 236.066243 
L 178.996793 237.40689 
L 180.535355 236.167815 
L 182.073918 237.063441 
L 183.61248 238.435669 
L 186.689604 235.434145 
L 188.228166 235.693414 
L 189.766729 236.546657 
L 191.305291 236.622907 
L 192.843853 236.971157 
L 194.382415 234.58086 
L 195.920977 234.530285 
L 197.459539 233.063594 
L 198.998102 232.283604 
L 200.536664 233.528201 
L 202.075226 222.967105 
L 203.613788 226.125478 
L 205.15235 231.176621 
L 206.690913 229.558843 
L 208.229475 231.096622 
L 209.768037 230.362619 
L 211.306599 230.737531 
L 214.383723 233.790055 
L 215.922286 234.258921 
L 217.460848 234.0826 
L 218.99941 234.589599 
L 220.537972 234.246521 
L 222.076534 237.749616 
L 223.615097 238.528288 
L 225.153659 238.767328 
L 226.692221 238.884968 
L 228.230783 232.116282 
L 229.769345 232.545686 
L 231.307907 233.209712 
L 232.84647 239.405819 
L 234.385032 240.188863 
L 235.923594 239.937362 
L 237.462156 240.117927 
L 239.000718 241.89585 
L 240.539281 241.432251 
L 242.077843 241.334133 
L 243.616405 240.933497 
L 245.154967 241.592133 
L 246.693529 240.879094 
L 248.232091 241.156256 
L 249.770654 241.73294 
L 251.309216 241.374677 
L 252.847778 242.539223 
L 255.924902 242.995949 
L 257.463465 242.812108 
L 259.002027 241.55331 
L 260.540589 242.084454 
L 262.079151 240.878807 
L 263.617713 241.18743 
L 265.156275 242.933645 
L 265.156275 242.933645 
" style="fill:none;stroke:#2ca02c;stroke-linecap:square;stroke-width:1.5;"/>
   </g>
   <g id="line2d_25">
    <path clip-path="url(#pbbe525c757)" d="M 51.296132 279.903523 
L 265.156275 279.903523 
L 265.156275 279.903523 
" style="fill:none;stroke:#000000;stroke-linecap:square;stroke-width:0.5;"/>
   </g>
   <g id="line2d_26">
    <path clip-path="url(#pbbe525c757)" d="M 51.296132 274.52524 
L 265.156275 274.52524 
L 265.156275 274.52524 
" style="fill:none;stroke:#000000;stroke-linecap:square;stroke-width:0.5;"/>
   </g>
   <g id="line2d_27">
    <path clip-path="url(#pbbe525c757)" d="M 51.296132 264.755297 
L 52.834694 264.567342 
L 54.373257 265.720044 
L 55.911819 264.345594 
L 57.450381 262.449469 
L 58.988943 258.190482 
L 60.527505 254.4644 
L 62.066067 252.04805 
L 63.60463 250.371097 
L 65.143192 250.375513 
L 66.681754 249.113768 
L 68.220316 248.768146 
L 69.758878 249.63476 
L 71.297441 247.802367 
L 72.836003 247.597973 
L 74.374565 247.622794 
L 75.913127 247.922001 
L 77.451689 247.593997 
L 78.990251 248.13786 
L 80.528814 246.57932 
L 82.067376 247.93815 
L 83.605938 246.264429 
L 85.1445 240.94586 
L 86.683062 237.249798 
L 88.221625 241.818921 
L 89.760187 240.159463 
L 91.298749 236.204031 
L 92.837311 246.205429 
L 94.375873 244.04213 
L 95.914435 244.438633 
L 97.452998 243.67164 
L 98.99156 243.699855 
L 100.530122 242.932113 
L 102.068684 244.057835 
L 103.607246 244.187836 
L 105.145809 243.801498 
L 106.684371 245.102156 
L 109.761495 243.920292 
L 111.300057 243.589608 
L 112.838619 242.987524 
L 114.377182 241.130355 
L 115.915744 238.965286 
L 117.454306 237.981662 
L 118.992868 238.583413 
L 120.53143 237.464475 
L 122.069993 235.935578 
L 123.608555 231.937646 
L 125.147117 233.631153 
L 126.685679 226.648601 
L 128.224241 221.665466 
L 129.762803 228.171863 
L 131.301366 230.109037 
L 132.839928 230.182221 
L 134.37849 228.737299 
L 135.917052 227.866267 
L 137.455614 229.491391 
L 138.994177 231.633869 
L 140.532739 232.409277 
L 142.071301 232.951566 
L 143.609863 231.040255 
L 145.148425 230.906471 
L 146.686987 232.771827 
L 148.22555 237.410691 
L 149.764112 236.176876 
L 151.302674 236.315393 
L 152.841236 236.653445 
L 154.379798 235.750269 
L 155.918361 236.192218 
L 157.456923 235.509364 
L 158.995485 236.991532 
L 160.534047 237.793219 
L 162.072609 238.406443 
L 163.611171 234.918463 
L 165.149734 236.788769 
L 166.688296 239.234378 
L 168.226858 241.962817 
L 169.76542 241.054808 
L 171.303982 240.284947 
L 172.842545 240.670993 
L 174.381107 239.129531 
L 175.919669 239.087697 
L 177.458231 239.732736 
L 178.996793 240.070008 
L 180.535355 239.088689 
L 182.073918 239.995858 
L 183.61248 241.043233 
L 185.151042 240.702985 
L 186.689604 240.612842 
L 188.228166 241.856016 
L 189.766729 240.632852 
L 191.305291 231.057026 
L 192.843853 233.204098 
L 194.382415 228.04648 
L 195.920977 231.017867 
L 197.459539 230.560767 
L 198.998102 236.715085 
L 200.536664 234.476887 
L 202.075226 236.300565 
L 203.613788 234.386577 
L 205.15235 234.478533 
L 206.690913 234.371479 
L 208.229475 233.646041 
L 209.768037 234.783504 
L 211.306599 235.479763 
L 212.845161 234.934423 
L 214.383723 238.056376 
L 215.922286 239.23817 
L 217.460848 238.686833 
L 218.99941 239.250368 
L 220.537972 240.883328 
L 222.076534 240.889646 
L 223.615097 241.837875 
L 225.153659 241.963591 
L 226.692221 242.562983 
L 228.230783 242.15808 
L 229.769345 242.365994 
L 231.307907 243.474503 
L 232.84647 241.781528 
L 234.385032 243.139603 
L 235.923594 243.517633 
L 237.462156 243.386055 
L 239.000718 245.320597 
L 240.539281 245.941375 
L 242.077843 246.807652 
L 243.616405 246.149873 
L 246.693529 248.220044 
L 248.232091 250.221381 
L 249.770654 247.744203 
L 251.309216 248.193295 
L 252.847778 247.184922 
L 254.38634 245.948401 
L 255.924902 247.649206 
L 257.463465 247.762076 
L 259.002027 246.629809 
L 260.540589 246.28959 
L 262.079151 243.996056 
L 263.617713 243.16236 
L 265.156275 245.247725 
L 265.156275 245.247725 
" style="fill:none;stroke:#d62728;stroke-linecap:square;stroke-width:1.5;"/>
   </g>
   <g id="patch_3">
    <path d="M 40.603125 290.59625 
L 40.603125 55.35625 
" style="fill:none;stroke:#000000;stroke-linecap:square;stroke-linejoin:miter;stroke-width:0.8;"/>
   </g>
   <g id="patch_4">
    <path d="M 275.849283 290.59625 
L 275.849283 55.35625 
" style="fill:none;stroke:#000000;stroke-linecap:square;stroke-linejoin:miter;stroke-width:0.8;"/>
   </g>
   <g id="patch_5">
    <path d="M 40.603125 290.59625 
L 275.849283 290.59625 
" style="fill:none;stroke:#000000;stroke-linecap:square;stroke-linejoin:miter;stroke-width:0.8;"/>
   </g>
   <g id="patch_6">
    <path d="M 40.603125 55.35625 
L 275.849283 55.35625 
" style="fill:none;stroke:#000000;stroke-linecap:square;stroke-linejoin:miter;stroke-width:0.8;"/>
   </g>
  </g>
  <g id="axes_2">
   <g id="patch_7">
    <path d="M 325.986967 290.59625 
L 561.233125 290.59625 
L 561.233125 55.35625 
L 325.986967 55.35625 
z
" style="fill:#ffffff;"/>
   </g>
   <g id="matplotlib.axis_3">
    <g id="xtick_7">
     <g id="line2d_28">
      <g>
       <use style="stroke:#000000;stroke-width:0.8;" x="340.511784" xlink:href="#md40762c104" y="290.59625"/>
      </g>
     </g>
     <g id="text_18">
      <!-- −5000 -->
      <g transform="translate(323.59694 305.194687)scale(0.1 -0.1)">
       <defs>
        <path d="M 10.59375 35.5 
L 73.1875 35.5 
L 73.1875 27.203125 
L 10.59375 27.203125 
z
" id="DejaVuSans-8722"/>
       </defs>
       <use xlink:href="#DejaVuSans-8722"/>
       <use x="83.789062" xlink:href="#DejaVuSans-53"/>
       <use x="147.412109" xlink:href="#DejaVuSans-48"/>
       <use x="211.035156" xlink:href="#DejaVuSans-48"/>
       <use x="274.658203" xlink:href="#DejaVuSans-48"/>
      </g>
     </g>
    </g>
    <g id="xtick_8">
     <g id="line2d_29">
      <g>
       <use style="stroke:#000000;stroke-width:0.8;" x="374.622925" xlink:href="#md40762c104" y="290.59625"/>
      </g>
     </g>
     <g id="text_19">
      <!-- −4000 -->
      <g transform="translate(357.708081 305.194687)scale(0.1 -0.1)">
       <use xlink:href="#DejaVuSans-8722"/>
       <use x="83.789062" xlink:href="#DejaVuSans-52"/>
       <use x="147.412109" xlink:href="#DejaVuSans-48"/>
       <use x="211.035156" xlink:href="#DejaVuSans-48"/>
       <use x="274.658203" xlink:href="#DejaVuSans-48"/>
      </g>
     </g>
    </g>
    <g id="xtick_9">
     <g id="line2d_30">
      <g>
       <use style="stroke:#000000;stroke-width:0.8;" x="408.734065" xlink:href="#md40762c104" y="290.59625"/>
      </g>
     </g>
     <g id="text_20">
      <!-- −3000 -->
      <g transform="translate(391.819221 305.194687)scale(0.1 -0.1)">
       <use xlink:href="#DejaVuSans-8722"/>
       <use x="83.789062" xlink:href="#DejaVuSans-51"/>
       <use x="147.412109" xlink:href="#DejaVuSans-48"/>
       <use x="211.035156" xlink:href="#DejaVuSans-48"/>
       <use x="274.658203" xlink:href="#DejaVuSans-48"/>
      </g>
     </g>
    </g>
    <g id="xtick_10">
     <g id="line2d_31">
      <g>
       <use style="stroke:#000000;stroke-width:0.8;" x="442.845205" xlink:href="#md40762c104" y="290.59625"/>
      </g>
     </g>
     <g id="text_21">
      <!-- −2000 -->
      <g transform="translate(425.930362 305.194687)scale(0.1 -0.1)">
       <use xlink:href="#DejaVuSans-8722"/>
       <use x="83.789062" xlink:href="#DejaVuSans-50"/>
       <use x="147.412109" xlink:href="#DejaVuSans-48"/>
       <use x="211.035156" xlink:href="#DejaVuSans-48"/>
       <use x="274.658203" xlink:href="#DejaVuSans-48"/>
      </g>
     </g>
    </g>
    <g id="xtick_11">
     <g id="line2d_32">
      <g>
       <use style="stroke:#000000;stroke-width:0.8;" x="476.956346" xlink:href="#md40762c104" y="290.59625"/>
      </g>
     </g>
     <g id="text_22">
      <!-- −1000 -->
      <g transform="translate(460.041502 305.194687)scale(0.1 -0.1)">
       <use xlink:href="#DejaVuSans-8722"/>
       <use x="83.789062" xlink:href="#DejaVuSans-49"/>
       <use x="147.412109" xlink:href="#DejaVuSans-48"/>
       <use x="211.035156" xlink:href="#DejaVuSans-48"/>
       <use x="274.658203" xlink:href="#DejaVuSans-48"/>
      </g>
     </g>
    </g>
    <g id="xtick_12">
     <g id="line2d_33">
      <g>
       <use style="stroke:#000000;stroke-width:0.8;" x="511.067486" xlink:href="#md40762c104" y="290.59625"/>
      </g>
     </g>
     <g id="text_23">
      <!-- 0 -->
      <g transform="translate(507.886236 305.194687)scale(0.1 -0.1)">
       <use xlink:href="#DejaVuSans-48"/>
      </g>
     </g>
    </g>
    <g id="xtick_13">
     <g id="line2d_34">
      <g>
       <use style="stroke:#000000;stroke-width:0.8;" x="545.178627" xlink:href="#md40762c104" y="290.59625"/>
      </g>
     </g>
     <g id="text_24">
      <!-- 1000 -->
      <g transform="translate(532.453627 305.194687)scale(0.1 -0.1)">
       <use xlink:href="#DejaVuSans-49"/>
       <use x="63.623047" xlink:href="#DejaVuSans-48"/>
       <use x="127.246094" xlink:href="#DejaVuSans-48"/>
       <use x="190.869141" xlink:href="#DejaVuSans-48"/>
      </g>
     </g>
    </g>
    <g id="text_25">
     <!-- Throttle/Brake -->
     <g transform="translate(407.974109 318.872812)scale(0.1 -0.1)">
      <use xlink:href="#DejaVuSans-84"/>
      <use x="61.083984" xlink:href="#DejaVuSans-104"/>
      <use x="124.462891" xlink:href="#DejaVuSans-114"/>
      <use x="163.326172" xlink:href="#DejaVuSans-111"/>
      <use x="224.507812" xlink:href="#DejaVuSans-116"/>
      <use x="263.716797" xlink:href="#DejaVuSans-116"/>
      <use x="302.925781" xlink:href="#DejaVuSans-108"/>
      <use x="330.708984" xlink:href="#DejaVuSans-101"/>
      <use x="392.232422" xlink:href="#DejaVuSans-47"/>
      <use x="425.923828" xlink:href="#DejaVuSans-66"/>
      <use x="494.527344" xlink:href="#DejaVuSans-114"/>
      <use x="535.640625" xlink:href="#DejaVuSans-97"/>
      <use x="596.919922" xlink:href="#DejaVuSans-107"/>
      <use x="651.205078" xlink:href="#DejaVuSans-101"/>
     </g>
    </g>
   </g>
   <g id="matplotlib.axis_4">
    <g id="ytick_10">
     <g id="line2d_35">
      <g>
       <use style="stroke:#000000;stroke-width:0.8;" x="325.986967" xlink:href="#m4886be1836" y="279.903523"/>
      </g>
     </g>
     <g id="text_26">
      <!-- $\mathdefault{10^{0}}$ -->
      <g transform="translate(301.386967 283.702741)scale(0.1 -0.1)">
       <use transform="translate(0 0.765625)" xlink:href="#DejaVuSans-49"/>
       <use transform="translate(63.623047 0.765625)" xlink:href="#DejaVuSans-48"/>
       <use transform="translate(128.203125 39.046875)scale(0.7)" xlink:href="#DejaVuSans-48"/>
      </g>
     </g>
    </g>
    <g id="ytick_11">
     <g id="line2d_36">
      <g>
       <use style="stroke:#000000;stroke-width:0.8;" x="325.986967" xlink:href="#m4886be1836" y="237.839533"/>
      </g>
     </g>
     <g id="text_27">
      <!-- $\mathdefault{10^{1}}$ -->
      <g transform="translate(301.386967 241.638752)scale(0.1 -0.1)">
       <use transform="translate(0 0.684375)" xlink:href="#DejaVuSans-49"/>
       <use transform="translate(63.623047 0.684375)" xlink:href="#DejaVuSans-48"/>
       <use transform="translate(128.203125 38.965625)scale(0.7)" xlink:href="#DejaVuSans-49"/>
      </g>
     </g>
    </g>
    <g id="ytick_12">
     <g id="line2d_37">
      <g>
       <use style="stroke:#000000;stroke-width:0.8;" x="325.986967" xlink:href="#m4886be1836" y="195.775543"/>
      </g>
     </g>
     <g id="text_28">
      <!-- $\mathdefault{10^{2}}$ -->
      <g transform="translate(301.386967 199.574762)scale(0.1 -0.1)">
       <use transform="translate(0 0.765625)" xlink:href="#DejaVuSans-49"/>
       <use transform="translate(63.623047 0.765625)" xlink:href="#DejaVuSans-48"/>
       <use transform="translate(128.203125 39.046875)scale(0.7)" xlink:href="#DejaVuSans-50"/>
      </g>
     </g>
    </g>
    <g id="ytick_13">
     <g id="line2d_38">
      <g>
       <use style="stroke:#000000;stroke-width:0.8;" x="325.986967" xlink:href="#m4886be1836" y="153.711554"/>
      </g>
     </g>
     <g id="text_29">
      <!-- $\mathdefault{10^{3}}$ -->
      <g transform="translate(301.386967 157.510772)scale(0.1 -0.1)">
       <use transform="translate(0 0.765625)" xlink:href="#DejaVuSans-49"/>
       <use transform="translate(63.623047 0.765625)" xlink:href="#DejaVuSans-48"/>
       <use transform="translate(128.203125 39.046875)scale(0.7)" xlink:href="#DejaVuSans-51"/>
      </g>
     </g>
    </g>
    <g id="ytick_14">
     <g id="line2d_39">
      <g>
       <use style="stroke:#000000;stroke-width:0.8;" x="325.986967" xlink:href="#m4886be1836" y="111.647564"/>
      </g>
     </g>
     <g id="text_30">
      <!-- $\mathdefault{10^{4}}$ -->
      <g transform="translate(301.386967 115.446783)scale(0.1 -0.1)">
       <use transform="translate(0 0.684375)" xlink:href="#DejaVuSans-49"/>
       <use transform="translate(63.623047 0.684375)" xlink:href="#DejaVuSans-48"/>
       <use transform="translate(128.203125 38.965625)scale(0.7)" xlink:href="#DejaVuSans-52"/>
      </g>
     </g>
    </g>
    <g id="ytick_15">
     <g id="line2d_40">
      <g>
       <use style="stroke:#000000;stroke-width:0.8;" x="325.986967" xlink:href="#m4886be1836" y="69.583574"/>
      </g>
     </g>
     <g id="text_31">
      <!-- $\mathdefault{10^{5}}$ -->
      <g transform="translate(301.386967 73.382793)scale(0.1 -0.1)">
       <use transform="translate(0 0.684375)" xlink:href="#DejaVuSans-49"/>
       <use transform="translate(63.623047 0.684375)" xlink:href="#DejaVuSans-48"/>
       <use transform="translate(128.203125 38.965625)scale(0.7)" xlink:href="#DejaVuSans-53"/>
      </g>
     </g>
    </g>
    <g id="ytick_16">
     <g id="line2d_41">
      <defs>
       <path d="M 0 0 
L -2 0 
" id="maf5fd24a86" style="stroke:#000000;stroke-width:0.6;"/>
      </defs>
      <g>
       <use style="stroke:#000000;stroke-width:0.6;" x="325.986967" xlink:href="#maf5fd24a86" y="289.235366"/>
      </g>
     </g>
    </g>
    <g id="ytick_17">
     <g id="line2d_42">
      <g>
       <use style="stroke:#000000;stroke-width:0.6;" x="325.986967" xlink:href="#maf5fd24a86" y="286.419317"/>
      </g>
     </g>
    </g>
    <g id="ytick_18">
     <g id="line2d_43">
      <g>
       <use style="stroke:#000000;stroke-width:0.6;" x="325.986967" xlink:href="#maf5fd24a86" y="283.979945"/>
      </g>
     </g>
    </g>
    <g id="ytick_19">
     <g id="line2d_44">
      <g>
       <use style="stroke:#000000;stroke-width:0.6;" x="325.986967" xlink:href="#maf5fd24a86" y="281.828265"/>
      </g>
     </g>
    </g>
    <g id="ytick_20">
     <g id="line2d_45">
      <g>
       <use style="stroke:#000000;stroke-width:0.6;" x="325.986967" xlink:href="#maf5fd24a86" y="267.241"/>
      </g>
     </g>
    </g>
    <g id="ytick_21">
     <g id="line2d_46">
      <g>
       <use style="stroke:#000000;stroke-width:0.6;" x="325.986967" xlink:href="#maf5fd24a86" y="259.833899"/>
      </g>
     </g>
    </g>
    <g id="ytick_22">
     <g id="line2d_47">
      <g>
       <use style="stroke:#000000;stroke-width:0.6;" x="325.986967" xlink:href="#maf5fd24a86" y="254.578477"/>
      </g>
     </g>
    </g>
    <g id="ytick_23">
     <g id="line2d_48">
      <g>
       <use style="stroke:#000000;stroke-width:0.6;" x="325.986967" xlink:href="#maf5fd24a86" y="250.502056"/>
      </g>
     </g>
    </g>
    <g id="ytick_24">
     <g id="line2d_49">
      <g>
       <use style="stroke:#000000;stroke-width:0.6;" x="325.986967" xlink:href="#maf5fd24a86" y="247.171377"/>
      </g>
     </g>
    </g>
    <g id="ytick_25">
     <g id="line2d_50">
      <g>
       <use style="stroke:#000000;stroke-width:0.6;" x="325.986967" xlink:href="#maf5fd24a86" y="244.355327"/>
      </g>
     </g>
    </g>
    <g id="ytick_26">
     <g id="line2d_51">
      <g>
       <use style="stroke:#000000;stroke-width:0.6;" x="325.986967" xlink:href="#maf5fd24a86" y="241.915955"/>
      </g>
     </g>
    </g>
    <g id="ytick_27">
     <g id="line2d_52">
      <g>
       <use style="stroke:#000000;stroke-width:0.6;" x="325.986967" xlink:href="#maf5fd24a86" y="239.764276"/>
      </g>
     </g>
    </g>
    <g id="ytick_28">
     <g id="line2d_53">
      <g>
       <use style="stroke:#000000;stroke-width:0.6;" x="325.986967" xlink:href="#maf5fd24a86" y="225.17701"/>
      </g>
     </g>
    </g>
    <g id="ytick_29">
     <g id="line2d_54">
      <g>
       <use style="stroke:#000000;stroke-width:0.6;" x="325.986967" xlink:href="#maf5fd24a86" y="217.769909"/>
      </g>
     </g>
    </g>
    <g id="ytick_30">
     <g id="line2d_55">
      <g>
       <use style="stroke:#000000;stroke-width:0.6;" x="325.986967" xlink:href="#maf5fd24a86" y="212.514488"/>
      </g>
     </g>
    </g>
    <g id="ytick_31">
     <g id="line2d_56">
      <g>
       <use style="stroke:#000000;stroke-width:0.6;" x="325.986967" xlink:href="#maf5fd24a86" y="208.438066"/>
      </g>
     </g>
    </g>
    <g id="ytick_32">
     <g id="line2d_57">
      <g>
       <use style="stroke:#000000;stroke-width:0.6;" x="325.986967" xlink:href="#maf5fd24a86" y="205.107387"/>
      </g>
     </g>
    </g>
    <g id="ytick_33">
     <g id="line2d_58">
      <g>
       <use style="stroke:#000000;stroke-width:0.6;" x="325.986967" xlink:href="#maf5fd24a86" y="202.291338"/>
      </g>
     </g>
    </g>
    <g id="ytick_34">
     <g id="line2d_59">
      <g>
       <use style="stroke:#000000;stroke-width:0.6;" x="325.986967" xlink:href="#maf5fd24a86" y="199.851965"/>
      </g>
     </g>
    </g>
    <g id="ytick_35">
     <g id="line2d_60">
      <g>
       <use style="stroke:#000000;stroke-width:0.6;" x="325.986967" xlink:href="#maf5fd24a86" y="197.700286"/>
      </g>
     </g>
    </g>
    <g id="ytick_36">
     <g id="line2d_61">
      <g>
       <use style="stroke:#000000;stroke-width:0.6;" x="325.986967" xlink:href="#maf5fd24a86" y="183.113021"/>
      </g>
     </g>
    </g>
    <g id="ytick_37">
     <g id="line2d_62">
      <g>
       <use style="stroke:#000000;stroke-width:0.6;" x="325.986967" xlink:href="#maf5fd24a86" y="175.70592"/>
      </g>
     </g>
    </g>
    <g id="ytick_38">
     <g id="line2d_63">
      <g>
       <use style="stroke:#000000;stroke-width:0.6;" x="325.986967" xlink:href="#maf5fd24a86" y="170.450498"/>
      </g>
     </g>
    </g>
    <g id="ytick_39">
     <g id="line2d_64">
      <g>
       <use style="stroke:#000000;stroke-width:0.6;" x="325.986967" xlink:href="#maf5fd24a86" y="166.374076"/>
      </g>
     </g>
    </g>
    <g id="ytick_40">
     <g id="line2d_65">
      <g>
       <use style="stroke:#000000;stroke-width:0.6;" x="325.986967" xlink:href="#maf5fd24a86" y="163.043397"/>
      </g>
     </g>
    </g>
    <g id="ytick_41">
     <g id="line2d_66">
      <g>
       <use style="stroke:#000000;stroke-width:0.6;" x="325.986967" xlink:href="#maf5fd24a86" y="160.227348"/>
      </g>
     </g>
    </g>
    <g id="ytick_42">
     <g id="line2d_67">
      <g>
       <use style="stroke:#000000;stroke-width:0.6;" x="325.986967" xlink:href="#maf5fd24a86" y="157.787975"/>
      </g>
     </g>
    </g>
    <g id="ytick_43">
     <g id="line2d_68">
      <g>
       <use style="stroke:#000000;stroke-width:0.6;" x="325.986967" xlink:href="#maf5fd24a86" y="155.636296"/>
      </g>
     </g>
    </g>
    <g id="ytick_44">
     <g id="line2d_69">
      <g>
       <use style="stroke:#000000;stroke-width:0.6;" x="325.986967" xlink:href="#maf5fd24a86" y="141.049031"/>
      </g>
     </g>
    </g>
    <g id="ytick_45">
     <g id="line2d_70">
      <g>
       <use style="stroke:#000000;stroke-width:0.6;" x="325.986967" xlink:href="#maf5fd24a86" y="133.64193"/>
      </g>
     </g>
    </g>
    <g id="ytick_46">
     <g id="line2d_71">
      <g>
       <use style="stroke:#000000;stroke-width:0.6;" x="325.986967" xlink:href="#maf5fd24a86" y="128.386508"/>
      </g>
     </g>
    </g>
    <g id="ytick_47">
     <g id="line2d_72">
      <g>
       <use style="stroke:#000000;stroke-width:0.6;" x="325.986967" xlink:href="#maf5fd24a86" y="124.310086"/>
      </g>
     </g>
    </g>
    <g id="ytick_48">
     <g id="line2d_73">
      <g>
       <use style="stroke:#000000;stroke-width:0.6;" x="325.986967" xlink:href="#maf5fd24a86" y="120.979407"/>
      </g>
     </g>
    </g>
    <g id="ytick_49">
     <g id="line2d_74">
      <g>
       <use style="stroke:#000000;stroke-width:0.6;" x="325.986967" xlink:href="#maf5fd24a86" y="118.163358"/>
      </g>
     </g>
    </g>
    <g id="ytick_50">
     <g id="line2d_75">
      <g>
       <use style="stroke:#000000;stroke-width:0.6;" x="325.986967" xlink:href="#maf5fd24a86" y="115.723986"/>
      </g>
     </g>
    </g>
    <g id="ytick_51">
     <g id="line2d_76">
      <g>
       <use style="stroke:#000000;stroke-width:0.6;" x="325.986967" xlink:href="#maf5fd24a86" y="113.572306"/>
      </g>
     </g>
    </g>
    <g id="ytick_52">
     <g id="line2d_77">
      <g>
       <use style="stroke:#000000;stroke-width:0.6;" x="325.986967" xlink:href="#maf5fd24a86" y="98.985041"/>
      </g>
     </g>
    </g>
    <g id="ytick_53">
     <g id="line2d_78">
      <g>
       <use style="stroke:#000000;stroke-width:0.6;" x="325.986967" xlink:href="#maf5fd24a86" y="91.57794"/>
      </g>
     </g>
    </g>
    <g id="ytick_54">
     <g id="line2d_79">
      <g>
       <use style="stroke:#000000;stroke-width:0.6;" x="325.986967" xlink:href="#maf5fd24a86" y="86.322519"/>
      </g>
     </g>
    </g>
    <g id="ytick_55">
     <g id="line2d_80">
      <g>
       <use style="stroke:#000000;stroke-width:0.6;" x="325.986967" xlink:href="#maf5fd24a86" y="82.246097"/>
      </g>
     </g>
    </g>
    <g id="ytick_56">
     <g id="line2d_81">
      <g>
       <use style="stroke:#000000;stroke-width:0.6;" x="325.986967" xlink:href="#maf5fd24a86" y="78.915418"/>
      </g>
     </g>
    </g>
    <g id="ytick_57">
     <g id="line2d_82">
      <g>
       <use style="stroke:#000000;stroke-width:0.6;" x="325.986967" xlink:href="#maf5fd24a86" y="76.099369"/>
      </g>
     </g>
    </g>
    <g id="ytick_58">
     <g id="line2d_83">
      <g>
       <use style="stroke:#000000;stroke-width:0.6;" x="325.986967" xlink:href="#maf5fd24a86" y="73.659996"/>
      </g>
     </g>
    </g>
    <g id="ytick_59">
     <g id="line2d_84">
      <g>
       <use style="stroke:#000000;stroke-width:0.6;" x="325.986967" xlink:href="#maf5fd24a86" y="71.508317"/>
      </g>
     </g>
    </g>
    <g id="ytick_60">
     <g id="line2d_85">
      <g>
       <use style="stroke:#000000;stroke-width:0.6;" x="325.986967" xlink:href="#maf5fd24a86" y="56.921051"/>
      </g>
     </g>
    </g>
    <g id="text_32">
     <!-- Frequency -->
     <g transform="translate(295.30728 198.805937)rotate(-90)scale(0.1 -0.1)">
      <defs>
       <path d="M 9.8125 72.90625 
L 51.703125 72.90625 
L 51.703125 64.59375 
L 19.671875 64.59375 
L 19.671875 43.109375 
L 48.578125 43.109375 
L 48.578125 34.8125 
L 19.671875 34.8125 
L 19.671875 0 
L 9.8125 0 
z
" id="DejaVuSans-70"/>
       <path d="M 14.796875 27.296875 
Q 14.796875 17.390625 18.875 11.75 
Q 22.953125 6.109375 30.078125 6.109375 
Q 37.203125 6.109375 41.296875 11.75 
Q 45.40625 17.390625 45.40625 27.296875 
Q 45.40625 37.203125 41.296875 42.84375 
Q 37.203125 48.484375 30.078125 48.484375 
Q 22.953125 48.484375 18.875 42.84375 
Q 14.796875 37.203125 14.796875 27.296875 
z
M 45.40625 8.203125 
Q 42.578125 3.328125 38.25 0.953125 
Q 33.9375 -1.421875 27.875 -1.421875 
Q 17.96875 -1.421875 11.734375 6.484375 
Q 5.515625 14.40625 5.515625 27.296875 
Q 5.515625 40.1875 11.734375 48.09375 
Q 17.96875 56 27.875 56 
Q 33.9375 56 38.25 53.625 
Q 42.578125 51.265625 45.40625 46.390625 
L 45.40625 54.6875 
L 54.390625 54.6875 
L 54.390625 -20.796875 
L 45.40625 -20.796875 
z
" id="DejaVuSans-113"/>
       <path d="M 48.78125 52.59375 
L 48.78125 44.1875 
Q 44.96875 46.296875 41.140625 47.34375 
Q 37.3125 48.390625 33.40625 48.390625 
Q 24.65625 48.390625 19.8125 42.84375 
Q 14.984375 37.3125 14.984375 27.296875 
Q 14.984375 17.28125 19.8125 11.734375 
Q 24.65625 6.203125 33.40625 6.203125 
Q 37.3125 6.203125 41.140625 7.25 
Q 44.96875 8.296875 48.78125 10.40625 
L 48.78125 2.09375 
Q 45.015625 0.34375 40.984375 -0.53125 
Q 36.96875 -1.421875 32.421875 -1.421875 
Q 20.0625 -1.421875 12.78125 6.34375 
Q 5.515625 14.109375 5.515625 27.296875 
Q 5.515625 40.671875 12.859375 48.328125 
Q 20.21875 56 33.015625 56 
Q 37.15625 56 41.109375 55.140625 
Q 45.0625 54.296875 48.78125 52.59375 
z
" id="DejaVuSans-99"/>
       <path d="M 32.171875 -5.078125 
Q 28.375 -14.84375 24.75 -17.8125 
Q 21.140625 -20.796875 15.09375 -20.796875 
L 7.90625 -20.796875 
L 7.90625 -13.28125 
L 13.1875 -13.28125 
Q 16.890625 -13.28125 18.9375 -11.515625 
Q 21 -9.765625 23.484375 -3.21875 
L 25.09375 0.875 
L 2.984375 54.6875 
L 12.5 54.6875 
L 29.59375 11.921875 
L 46.6875 54.6875 
L 56.203125 54.6875 
z
" id="DejaVuSans-121"/>
      </defs>
      <use xlink:href="#DejaVuSans-70"/>
      <use x="50.269531" xlink:href="#DejaVuSans-114"/>
      <use x="89.132812" xlink:href="#DejaVuSans-101"/>
      <use x="150.65625" xlink:href="#DejaVuSans-113"/>
      <use x="214.132812" xlink:href="#DejaVuSans-117"/>
      <use x="277.511719" xlink:href="#DejaVuSans-101"/>
      <use x="339.035156" xlink:href="#DejaVuSans-110"/>
      <use x="402.414062" xlink:href="#DejaVuSans-99"/>
      <use x="457.394531" xlink:href="#DejaVuSans-121"/>
     </g>
    </g>
   </g>
   <g id="patch_8">
    <path clip-path="url(#p1b6d7deeb8)" d="M 336.679975 329.1525 
L 336.679975 279.903523 
L 355.142223 279.903523 
L 355.142223 329.1525 
M 373.604472 329.1525 
L 373.604472 267.241 
L 392.06672 267.241 
L 392.06672 254.578477 
L 410.528969 254.578477 
L 410.528969 259.833899 
L 428.991217 259.833899 
L 428.991217 279.903523 
L 447.453466 279.903523 
L 447.453466 259.833899 
L 465.915714 259.833899 
L 465.915714 193.22235 
L 484.377963 193.22235 
L 484.377963 155.758492 
L 502.840211 155.758492 
L 502.840211 67.070933 
L 521.30246 67.070933 
L 521.30246 329.1525 
" style="fill:none;stroke:#1f77b4;stroke-linejoin:miter;"/>
   </g>
   <g id="patch_9">
    <path clip-path="url(#p1b6d7deeb8)" d="M 497.784676 329.1525 
L 497.784676 254.578477 
L 500.832706 254.578477 
L 500.832706 221.100589 
L 503.880735 221.100589 
L 503.880735 179.555405 
L 506.928765 179.555405 
L 506.928765 128.844334 
L 509.976794 128.844334 
L 509.976794 68.0941 
L 513.024824 68.0941 
L 513.024824 120.073608 
L 516.072853 120.073608 
L 516.072853 171.973726 
L 519.120883 171.973726 
L 519.120883 209.183809 
L 522.168913 209.183809 
L 522.168913 267.241 
L 525.216942 267.241 
L 525.216942 259.833899 
L 528.264972 259.833899 
L 528.264972 329.1525 
" style="fill:none;stroke:#ff7f0e;stroke-linejoin:miter;"/>
   </g>
   <g id="patch_10">
    <path clip-path="url(#p1b6d7deeb8)" d="M 507.621488 329.1525 
L 507.621488 66.862925 
L 511.913351 66.862925 
L 511.913351 121.42319 
L 516.205214 121.42319 
L 516.205214 329.1525 
M 524.78894 329.1525 
L 524.78894 254.578477 
L 529.080803 254.578477 
L 529.080803 329.1525 
M 537.664529 329.1525 
L 537.664529 267.241 
L 541.956392 267.241 
L 541.956392 279.903523 
L 546.248255 279.903523 
L 546.248255 267.241 
L 550.540118 267.241 
L 550.540118 329.1525 
" style="fill:none;stroke:#2ca02c;stroke-linejoin:miter;"/>
   </g>
   <g id="patch_11">
    <path clip-path="url(#p1b6d7deeb8)" d="M 498.145942 329.1525 
L 498.145942 279.903523 
L 503.309788 279.903523 
L 503.309788 267.241 
L 508.473634 267.241 
L 508.473634 66.048977 
L 513.63748 66.048977 
L 513.63748 189.891671 
L 518.801326 189.891671 
L 518.801326 279.903523 
L 523.965172 279.903523 
L 523.965172 231.692805 
L 529.129018 231.692805 
L 529.129018 259.833899 
L 534.292863 259.833899 
L 534.292863 259.833899 
L 539.456709 259.833899 
L 539.456709 279.903523 
L 544.620555 279.903523 
L 544.620555 250.502056 
L 549.784401 250.502056 
L 549.784401 329.1525 
" style="fill:none;stroke:#d62728;stroke-linejoin:miter;"/>
   </g>
   <g id="patch_12">
    <path d="M 325.986967 290.59625 
L 325.986967 55.35625 
" style="fill:none;stroke:#000000;stroke-linecap:square;stroke-linejoin:miter;stroke-width:0.8;"/>
   </g>
   <g id="patch_13">
    <path d="M 561.233125 290.59625 
L 561.233125 55.35625 
" style="fill:none;stroke:#000000;stroke-linecap:square;stroke-linejoin:miter;stroke-width:0.8;"/>
   </g>
   <g id="patch_14">
    <path d="M 325.986967 290.59625 
L 561.233125 290.59625 
" style="fill:none;stroke:#000000;stroke-linecap:square;stroke-linejoin:miter;stroke-width:0.8;"/>
   </g>
   <g id="patch_15">
    <path d="M 325.986967 55.35625 
L 561.233125 55.35625 
" style="fill:none;stroke:#000000;stroke-linecap:square;stroke-linejoin:miter;stroke-width:0.8;"/>
   </g>
  </g>
  <g id="legend_1">
   <g id="patch_16">
    <path d="M 118.103437 39.55625 
L 449.962812 39.55625 
Q 451.962812 39.55625 451.962812 37.55625 
L 451.962812 9.2 
Q 451.962812 7.2 449.962812 7.2 
L 118.103437 7.2 
Q 116.103437 7.2 116.103437 9.2 
L 116.103437 37.55625 
Q 116.103437 39.55625 118.103437 39.55625 
z
" style="fill:#ffffff;opacity:0.8;stroke:#cccccc;stroke-linejoin:miter;"/>
   </g>
   <g id="line2d_86">
    <path d="M 120.103437 15.298437 
L 140.103437 15.298437 
" style="fill:none;stroke:#1f77b4;stroke-linecap:square;stroke-width:1.5;"/>
   </g>
   <g id="line2d_87"/>
   <g id="text_33">
    <!-- Fixed Ref -->
    <g transform="translate(148.103437 18.798437)scale(0.1 -0.1)">
     <defs>
      <path d="M 54.890625 54.6875 
L 35.109375 28.078125 
L 55.90625 0 
L 45.3125 0 
L 29.390625 21.484375 
L 13.484375 0 
L 2.875 0 
L 24.125 28.609375 
L 4.6875 54.6875 
L 15.28125 54.6875 
L 29.78125 35.203125 
L 44.28125 54.6875 
z
" id="DejaVuSans-120"/>
      <path d="M 44.390625 34.1875 
Q 47.5625 33.109375 50.5625 29.59375 
Q 53.5625 26.078125 56.59375 19.921875 
L 66.609375 0 
L 56 0 
L 46.6875 18.703125 
Q 43.0625 26.03125 39.671875 28.421875 
Q 36.28125 30.8125 30.421875 30.8125 
L 19.671875 30.8125 
L 19.671875 0 
L 9.8125 0 
L 9.8125 72.90625 
L 32.078125 72.90625 
Q 44.578125 72.90625 50.734375 67.671875 
Q 56.890625 62.453125 56.890625 51.90625 
Q 56.890625 45.015625 53.6875 40.46875 
Q 50.484375 35.9375 44.390625 34.1875 
z
M 19.671875 64.796875 
L 19.671875 38.921875 
L 32.078125 38.921875 
Q 39.203125 38.921875 42.84375 42.21875 
Q 46.484375 45.515625 46.484375 51.90625 
Q 46.484375 58.296875 42.84375 61.546875 
Q 39.203125 64.796875 32.078125 64.796875 
z
" id="DejaVuSans-82"/>
     </defs>
     <use xlink:href="#DejaVuSans-70"/>
     <use x="50.269531" xlink:href="#DejaVuSans-105"/>
     <use x="78.052734" xlink:href="#DejaVuSans-120"/>
     <use x="134.107422" xlink:href="#DejaVuSans-101"/>
     <use x="195.630859" xlink:href="#DejaVuSans-100"/>
     <use x="259.107422" xlink:href="#DejaVuSans-32"/>
     <use x="290.894531" xlink:href="#DejaVuSans-82"/>
     <use x="355.876953" xlink:href="#DejaVuSans-101"/>
     <use x="417.400391" xlink:href="#DejaVuSans-102"/>
    </g>
   </g>
   <g id="line2d_88">
    <path d="M 120.103437 29.976562 
L 140.103437 29.976562 
" style="fill:none;stroke:#ff7f0e;stroke-linecap:square;stroke-width:1.5;"/>
   </g>
   <g id="line2d_89"/>
   <g id="text_34">
    <!-- 2nd ord. DMP -->
    <g transform="translate(148.103437 33.476562)scale(0.1 -0.1)">
     <defs>
      <path d="M 19.671875 64.796875 
L 19.671875 8.109375 
L 31.59375 8.109375 
Q 46.6875 8.109375 53.6875 14.9375 
Q 60.6875 21.78125 60.6875 36.53125 
Q 60.6875 51.171875 53.6875 57.984375 
Q 46.6875 64.796875 31.59375 64.796875 
z
M 9.8125 72.90625 
L 30.078125 72.90625 
Q 51.265625 72.90625 61.171875 64.09375 
Q 71.09375 55.28125 71.09375 36.53125 
Q 71.09375 17.671875 61.125 8.828125 
Q 51.171875 0 30.078125 0 
L 9.8125 0 
z
" id="DejaVuSans-68"/>
      <path d="M 19.671875 64.796875 
L 19.671875 37.40625 
L 32.078125 37.40625 
Q 38.96875 37.40625 42.71875 40.96875 
Q 46.484375 44.53125 46.484375 51.125 
Q 46.484375 57.671875 42.71875 61.234375 
Q 38.96875 64.796875 32.078125 64.796875 
z
M 9.8125 72.90625 
L 32.078125 72.90625 
Q 44.34375 72.90625 50.609375 67.359375 
Q 56.890625 61.8125 56.890625 51.125 
Q 56.890625 40.328125 50.609375 34.8125 
Q 44.34375 29.296875 32.078125 29.296875 
L 19.671875 29.296875 
L 19.671875 0 
L 9.8125 0 
z
" id="DejaVuSans-80"/>
     </defs>
     <use xlink:href="#DejaVuSans-50"/>
     <use x="63.623047" xlink:href="#DejaVuSans-110"/>
     <use x="127.001953" xlink:href="#DejaVuSans-100"/>
     <use x="190.478516" xlink:href="#DejaVuSans-32"/>
     <use x="222.265625" xlink:href="#DejaVuSans-111"/>
     <use x="283.447266" xlink:href="#DejaVuSans-114"/>
     <use x="322.810547" xlink:href="#DejaVuSans-100"/>
     <use x="386.287109" xlink:href="#DejaVuSans-46"/>
     <use x="418.074219" xlink:href="#DejaVuSans-32"/>
     <use x="449.861328" xlink:href="#DejaVuSans-68"/>
     <use x="526.863281" xlink:href="#DejaVuSans-77"/>
     <use x="613.142578" xlink:href="#DejaVuSans-80"/>
    </g>
   </g>
   <g id="line2d_90">
    <path d="M 235.447187 15.298437 
L 255.447187 15.298437 
" style="fill:none;stroke:#2ca02c;stroke-linecap:square;stroke-width:1.5;"/>
   </g>
   <g id="line2d_91"/>
   <g id="text_35">
    <!-- 3rd ord. DMP -->
    <g transform="translate(263.447187 18.798437)scale(0.1 -0.1)">
     <use xlink:href="#DejaVuSans-51"/>
     <use x="63.623047" xlink:href="#DejaVuSans-114"/>
     <use x="102.986328" xlink:href="#DejaVuSans-100"/>
     <use x="166.462891" xlink:href="#DejaVuSans-32"/>
     <use x="198.25" xlink:href="#DejaVuSans-111"/>
     <use x="259.431641" xlink:href="#DejaVuSans-114"/>
     <use x="298.794922" xlink:href="#DejaVuSans-100"/>
     <use x="362.271484" xlink:href="#DejaVuSans-46"/>
     <use x="394.058594" xlink:href="#DejaVuSans-32"/>
     <use x="425.845703" xlink:href="#DejaVuSans-68"/>
     <use x="502.847656" xlink:href="#DejaVuSans-77"/>
     <use x="589.126953" xlink:href="#DejaVuSans-80"/>
    </g>
   </g>
   <g id="line2d_92">
    <path d="M 348.389375 15.298437 
L 368.389375 15.298437 
" style="fill:none;stroke:#d62728;stroke-linecap:square;stroke-width:1.5;"/>
   </g>
   <g id="line2d_93"/>
   <g id="text_36">
    <!-- Proposed DMP -->
    <g transform="translate(376.389375 18.798437)scale(0.1 -0.1)">
     <defs>
      <path d="M 18.109375 8.203125 
L 18.109375 -20.796875 
L 9.078125 -20.796875 
L 9.078125 54.6875 
L 18.109375 54.6875 
L 18.109375 46.390625 
Q 20.953125 51.265625 25.265625 53.625 
Q 29.59375 56 35.59375 56 
Q 45.5625 56 51.78125 48.09375 
Q 58.015625 40.1875 58.015625 27.296875 
Q 58.015625 14.40625 51.78125 6.484375 
Q 45.5625 -1.421875 35.59375 -1.421875 
Q 29.59375 -1.421875 25.265625 0.953125 
Q 20.953125 3.328125 18.109375 8.203125 
z
M 48.6875 27.296875 
Q 48.6875 37.203125 44.609375 42.84375 
Q 40.53125 48.484375 33.40625 48.484375 
Q 26.265625 48.484375 22.1875 42.84375 
Q 18.109375 37.203125 18.109375 27.296875 
Q 18.109375 17.390625 22.1875 11.75 
Q 26.265625 6.109375 33.40625 6.109375 
Q 40.53125 6.109375 44.609375 11.75 
Q 48.6875 17.390625 48.6875 27.296875 
z
" id="DejaVuSans-112"/>
     </defs>
     <use xlink:href="#DejaVuSans-80"/>
     <use x="58.552734" xlink:href="#DejaVuSans-114"/>
     <use x="97.416016" xlink:href="#DejaVuSans-111"/>
     <use x="158.597656" xlink:href="#DejaVuSans-112"/>
     <use x="222.074219" xlink:href="#DejaVuSans-111"/>
     <use x="283.255859" xlink:href="#DejaVuSans-115"/>
     <use x="335.355469" xlink:href="#DejaVuSans-101"/>
     <use x="396.878906" xlink:href="#DejaVuSans-100"/>
     <use x="460.355469" xlink:href="#DejaVuSans-32"/>
     <use x="492.142578" xlink:href="#DejaVuSans-68"/>
     <use x="569.144531" xlink:href="#DejaVuSans-77"/>
     <use x="655.423828" xlink:href="#DejaVuSans-80"/>
    </g>
   </g>
  </g>
 </g>
 <defs>
  <clipPath id="pbbe525c757">
   <rect height="235.24" width="235.246158" x="40.603125" y="55.35625"/>
  </clipPath>
  <clipPath id="p1b6d7deeb8">
   <rect height="235.24" width="235.246158" x="325.986967" y="55.35625"/>
  </clipPath>
 </defs>
</svg>
