<?xml version="1.0" encoding="utf-8" standalone="no"?>
<!DOCTYPE svg PUBLIC "-//W3C//DTD SVG 1.1//EN"
  "http://www.w3.org/Graphics/SVG/1.1/DTD/svg11.dtd">
<!-- Created with matplotlib (https://matplotlib.org/) -->
<svg height="165.22825pt" version="1.1" viewBox="0 0 496.433125 165.22825" width="496.433125pt" xmlns="http://www.w3.org/2000/svg" xmlns:xlink="http://www.w3.org/1999/xlink">
 <metadata>
  <rdf:RDF xmlns:cc="http://creativecommons.org/ns#" xmlns:dc="http://purl.org/dc/elements/1.1/" xmlns:rdf="http://www.w3.org/1999/02/22-rdf-syntax-ns#">
   <cc:Work>
    <dc:type rdf:resource="http://purl.org/dc/dcmitype/StillImage"/>
    <dc:date>2022-08-03T17:16:27.285404</dc:date>
    <dc:format>image/svg+xml</dc:format>
    <dc:creator>
     <cc:Agent>
      <dc:title>Matplotlib v3.3.0, https://matplotlib.org/</dc:title>
     </cc:Agent>
    </dc:creator>
   </cc:Work>
  </rdf:RDF>
 </metadata>
 <defs>
  <style type="text/css">*{stroke-linecap:butt;stroke-linejoin:round;}</style>
 </defs>
 <g id="figure_1">
  <g id="patch_1">
   <path d="M 0 165.22825 
L 496.433125 165.22825 
L 496.433125 0 
L 0 0 
z
" style="fill:#ffffff;"/>
  </g>
  <g id="axes_1">
   <g id="patch_2">
    <path d="M 40.603125 127.672 
L 118.889125 127.672 
L 118.889125 7.2 
L 40.603125 7.2 
z
" style="fill:#ffffff;"/>
   </g>
   <g id="PolyCollection_1">
    <defs>
     <path d="M 44.673587 -152.061391 
L 44.673587 -76.675962 
L 45.185595 -76.314701 
L 45.697603 -75.583477 
L 46.209611 -74.524374 
L 46.721619 -73.357891 
L 47.233627 -72.009407 
L 47.745634 -70.579182 
L 48.257642 -68.833176 
L 48.76965 -66.796249 
L 49.281658 -64.792142 
L 49.793666 -62.974433 
L 50.305674 -61.224824 
L 50.817682 -59.861423 
L 51.329689 -58.643267 
L 51.841697 -57.71845 
L 52.353705 -56.990218 
L 52.865713 -56.399362 
L 53.377721 -55.882137 
L 53.889729 -55.646949 
L 54.401737 -55.532538 
L 54.913744 -55.268571 
L 55.425752 -55.393717 
L 55.93776 -54.95113 
L 56.449768 -54.120444 
L 56.961776 -53.353768 
L 57.473784 -52.457701 
L 57.985791 -51.727827 
L 58.497799 -50.723979 
L 59.009807 -49.79597 
L 59.521815 -49.029174 
L 60.033823 -48.54288 
L 60.545831 -48.145688 
L 61.057839 -47.686818 
L 61.569846 -47.341872 
L 62.081854 -47.164994 
L 62.593862 -46.628429 
L 63.10587 -46.231736 
L 63.617878 -45.631667 
L 64.129886 -45.735869 
L 64.641893 -45.462251 
L 65.153901 -45.367493 
L 65.665909 -45.428421 
L 66.177917 -45.163225 
L 66.689925 -44.952123 
L 67.201933 -45.289628 
L 67.713941 -44.995092 
L 68.225948 -44.546751 
L 68.737956 -44.195921 
L 69.249964 -44.019108 
L 69.761972 -43.97464 
L 70.27398 -43.719407 
L 70.785988 -43.304276 
L 71.297996 -43.03225 
L 71.810003 -43.256748 
L 72.322011 -43.675567 
L 72.834019 -44.489601 
L 73.346027 -44.533316 
L 73.858035 -44.916371 
L 74.370043 -45.205823 
L 74.88205 -45.565925 
L 75.394058 -45.447193 
L 75.906066 -45.237097 
L 76.418074 -45.073058 
L 76.930082 -44.947985 
L 77.44209 -44.88754 
L 77.954098 -44.948017 
L 78.466105 -44.934283 
L 78.978113 -44.978304 
L 79.490121 -44.877491 
L 80.002129 -44.86277 
L 80.514137 -45.047181 
L 81.026145 -45.044627 
L 81.538152 -45.373286 
L 82.05016 -45.443597 
L 82.562168 -45.571874 
L 83.074176 -45.637666 
L 83.586184 -45.553036 
L 84.098192 -45.623074 
L 84.6102 -46.247695 
L 85.122207 -46.339767 
L 85.634215 -46.567508 
L 86.146223 -46.985315 
L 86.658231 -47.237975 
L 87.170239 -47.732507 
L 87.682247 -47.759796 
L 88.194254 -48.09721 
L 88.706262 -48.371361 
L 89.21827 -48.794481 
L 89.730278 -49.170287 
L 90.242286 -49.599916 
L 90.754294 -49.822743 
L 91.266302 -50.129789 
L 91.778309 -50.441006 
L 92.290317 -50.83703 
L 92.802325 -50.97601 
L 93.314333 -52.391707 
L 93.826341 -52.760249 
L 94.338349 -52.902594 
L 94.850357 -52.952348 
L 95.362364 -53.164074 
L 95.874372 -53.265759 
L 96.38638 -53.257397 
L 96.898388 -53.401375 
L 97.410396 -53.402133 
L 97.922404 -53.526019 
L 98.434411 -53.404731 
L 98.946419 -53.491299 
L 99.458427 -53.853944 
L 99.970435 -53.919379 
L 100.482443 -54.041043 
L 100.994451 -54.456696 
L 101.506459 -54.619792 
L 102.018466 -54.781034 
L 102.530474 -56.463888 
L 103.042482 -56.457519 
L 103.55449 -56.51553 
L 104.066498 -56.651772 
L 104.578506 -56.820893 
L 105.090513 -57.017737 
L 105.602521 -57.161184 
L 106.114529 -57.177076 
L 106.626537 -59.631218 
L 107.138545 -60.728016 
L 107.650553 -60.831515 
L 108.162561 -60.823641 
L 108.674568 -60.547386 
L 109.186576 -60.482926 
L 109.698584 -60.706469 
L 110.210592 -60.52514 
L 110.7226 -60.545684 
L 111.234608 -60.27302 
L 111.746616 -60.362321 
L 112.258623 -60.202178 
L 112.770631 -60.168983 
L 113.282639 -59.819047 
L 113.794647 -59.862714 
L 114.306655 -59.691487 
L 114.818663 -59.484516 
L 115.33067 -59.325564 
L 115.33067 -78.93868 
L 115.33067 -78.93868 
L 114.818663 -78.476387 
L 114.306655 -78.232617 
L 113.794647 -78.033388 
L 113.282639 -78.020584 
L 112.770631 -77.575692 
L 112.258623 -77.546185 
L 111.746616 -77.416097 
L 111.234608 -77.569349 
L 110.7226 -77.383696 
L 110.210592 -77.694499 
L 109.698584 -77.442493 
L 109.186576 -78.018254 
L 108.674568 -78.059176 
L 108.162561 -77.887298 
L 107.650553 -77.991099 
L 107.138545 -78.027673 
L 106.626537 -79.592538 
L 106.114529 -82.718893 
L 105.602521 -82.989865 
L 105.090513 -83.310543 
L 104.578506 -83.264894 
L 104.066498 -83.309396 
L 103.55449 -83.426443 
L 103.042482 -83.681568 
L 102.530474 -83.929567 
L 102.018466 -86.409695 
L 101.506459 -86.108639 
L 100.994451 -86.204345 
L 100.482443 -86.915679 
L 99.970435 -87.091222 
L 99.458427 -86.973426 
L 98.946419 -87.74498 
L 98.434411 -88.219805 
L 97.922404 -88.003833 
L 97.410396 -88.264069 
L 96.898388 -88.654825 
L 96.38638 -89.202474 
L 95.874372 -89.216067 
L 95.362364 -89.513424 
L 94.850357 -89.948225 
L 94.338349 -90.495764 
L 93.826341 -91.190036 
L 93.314333 -91.931588 
L 92.802325 -93.869675 
L 92.290317 -94.219818 
L 91.778309 -95.008229 
L 91.266302 -95.330248 
L 90.754294 -95.828448 
L 90.242286 -96.416512 
L 89.730278 -97.537538 
L 89.21827 -98.090702 
L 88.706262 -98.513827 
L 88.194254 -99.055687 
L 87.682247 -99.761034 
L 87.170239 -100.442699 
L 86.658231 -101.151549 
L 86.146223 -101.190994 
L 85.634215 -101.478749 
L 85.122207 -101.986889 
L 84.6102 -102.395065 
L 84.098192 -103.787244 
L 83.586184 -104.33743 
L 83.074176 -104.879875 
L 82.562168 -105.267221 
L 82.05016 -105.545253 
L 81.538152 -105.840067 
L 81.026145 -106.382899 
L 80.514137 -106.703327 
L 80.002129 -106.925514 
L 79.490121 -107.372134 
L 78.978113 -107.949326 
L 78.466105 -108.120036 
L 77.954098 -108.466539 
L 77.44209 -109.172732 
L 76.930082 -109.757495 
L 76.418074 -109.976716 
L 75.906066 -110.382057 
L 75.394058 -110.804062 
L 74.88205 -111.219589 
L 74.370043 -112.140304 
L 73.858035 -113.241433 
L 73.346027 -114.82345 
L 72.834019 -114.967591 
L 72.322011 -117.029461 
L 71.810003 -118.594844 
L 71.297996 -119.822927 
L 70.785988 -120.114039 
L 70.27398 -120.505462 
L 69.761972 -120.63148 
L 69.249964 -120.634984 
L 68.737956 -120.836691 
L 68.225948 -121.147414 
L 67.713941 -121.383795 
L 67.201933 -121.203956 
L 66.689925 -122.389127 
L 66.177917 -123.138454 
L 65.665909 -123.762066 
L 65.153901 -125.42307 
L 64.641893 -126.39071 
L 64.129886 -127.233158 
L 63.617878 -129.342192 
L 63.10587 -129.071011 
L 62.593862 -129.677892 
L 62.081854 -129.556601 
L 61.569846 -130.57444 
L 61.057839 -130.859404 
L 60.545831 -130.228051 
L 60.033823 -131.125495 
L 59.521815 -130.709931 
L 59.009807 -129.870172 
L 58.497799 -128.455238 
L 57.985791 -126.514209 
L 57.473784 -124.278767 
L 56.961776 -121.991276 
L 56.449768 -120.038038 
L 55.93776 -117.790313 
L 55.425752 -115.353275 
L 54.913744 -113.40189 
L 54.401737 -110.867663 
L 53.889729 -108.707727 
L 53.377721 -107.09517 
L 52.865713 -106.167514 
L 52.353705 -106.09696 
L 51.841697 -106.969834 
L 51.329689 -108.809733 
L 50.817682 -111.516117 
L 50.305674 -114.846621 
L 49.793666 -118.853677 
L 49.281658 -122.577677 
L 48.76965 -126.960586 
L 48.257642 -131.199369 
L 47.745634 -135.375614 
L 47.233627 -139.299644 
L 46.721619 -142.93347 
L 46.209611 -146.078211 
L 45.697603 -148.779828 
L 45.185595 -150.769362 
L 44.673587 -152.061391 
z
" id="mddc0f564f6" style="stroke:#1f77b4;stroke-opacity:0.25;"/>
    </defs>
    <g clip-path="url(#p69e71bf49e)">
     <use style="fill:#1f77b4;fill-opacity:0.25;stroke:#1f77b4;stroke-opacity:0.25;" x="0" xlink:href="#mddc0f564f6" y="165.22825"/>
    </g>
   </g>
   <g id="matplotlib.axis_1">
    <g id="xtick_1">
     <g id="line2d_1">
      <defs>
       <path d="M 0 0 
L 0 3.5 
" id="m5cbbdbf136" style="stroke:#000000;stroke-width:0.8;"/>
      </defs>
      <g>
       <use style="stroke:#000000;stroke-width:0.8;" x="44.16158" xlink:href="#m5cbbdbf136" y="127.672"/>
      </g>
     </g>
     <g id="text_1">
      <!-- 0 -->
      <g transform="translate(40.98033 142.270438)scale(0.1 -0.1)">
       <defs>
        <path d="M 31.78125 66.40625 
Q 24.171875 66.40625 20.328125 58.90625 
Q 16.5 51.421875 16.5 36.375 
Q 16.5 21.390625 20.328125 13.890625 
Q 24.171875 6.390625 31.78125 6.390625 
Q 39.453125 6.390625 43.28125 13.890625 
Q 47.125 21.390625 47.125 36.375 
Q 47.125 51.421875 43.28125 58.90625 
Q 39.453125 66.40625 31.78125 66.40625 
z
M 31.78125 74.21875 
Q 44.046875 74.21875 50.515625 64.515625 
Q 56.984375 54.828125 56.984375 36.375 
Q 56.984375 17.96875 50.515625 8.265625 
Q 44.046875 -1.421875 31.78125 -1.421875 
Q 19.53125 -1.421875 13.0625 8.265625 
Q 6.59375 17.96875 6.59375 36.375 
Q 6.59375 54.828125 13.0625 64.515625 
Q 19.53125 74.21875 31.78125 74.21875 
z
" id="DejaVuSans-48"/>
       </defs>
       <use xlink:href="#DejaVuSans-48"/>
      </g>
     </g>
    </g>
    <g id="xtick_2">
     <g id="line2d_2">
      <g>
       <use style="stroke:#000000;stroke-width:0.8;" x="95.362364" xlink:href="#m5cbbdbf136" y="127.672"/>
      </g>
     </g>
     <g id="text_2">
      <!-- 10 -->
      <g transform="translate(88.999864 142.270438)scale(0.1 -0.1)">
       <defs>
        <path d="M 12.40625 8.296875 
L 28.515625 8.296875 
L 28.515625 63.921875 
L 10.984375 60.40625 
L 10.984375 69.390625 
L 28.421875 72.90625 
L 38.28125 72.90625 
L 38.28125 8.296875 
L 54.390625 8.296875 
L 54.390625 0 
L 12.40625 0 
z
" id="DejaVuSans-49"/>
       </defs>
       <use xlink:href="#DejaVuSans-49"/>
       <use x="63.623047" xlink:href="#DejaVuSans-48"/>
      </g>
     </g>
    </g>
   </g>
   <g id="matplotlib.axis_2">
    <g id="ytick_1">
     <g id="line2d_3">
      <defs>
       <path d="M 0 0 
L -3.5 0 
" id="m415ab7e14c" style="stroke:#000000;stroke-width:0.8;"/>
      </defs>
      <g>
       <use style="stroke:#000000;stroke-width:0.8;" x="40.603125" xlink:href="#m415ab7e14c" y="102.741651"/>
      </g>
     </g>
     <g id="text_3">
      <!-- 0 -->
      <g transform="translate(27.240625 106.54087)scale(0.1 -0.1)">
       <use xlink:href="#DejaVuSans-48"/>
      </g>
     </g>
    </g>
    <g id="ytick_2">
     <g id="line2d_4">
      <g>
       <use style="stroke:#000000;stroke-width:0.8;" x="40.603125" xlink:href="#m415ab7e14c" y="64.36687"/>
      </g>
     </g>
     <g id="text_4">
      <!-- 5 -->
      <g transform="translate(27.240625 68.166089)scale(0.1 -0.1)">
       <defs>
        <path d="M 10.796875 72.90625 
L 49.515625 72.90625 
L 49.515625 64.59375 
L 19.828125 64.59375 
L 19.828125 46.734375 
Q 21.96875 47.46875 24.109375 47.828125 
Q 26.265625 48.1875 28.421875 48.1875 
Q 40.625 48.1875 47.75 41.5 
Q 54.890625 34.8125 54.890625 23.390625 
Q 54.890625 11.625 47.5625 5.09375 
Q 40.234375 -1.421875 26.90625 -1.421875 
Q 22.3125 -1.421875 17.546875 -0.640625 
Q 12.796875 0.140625 7.71875 1.703125 
L 7.71875 11.625 
Q 12.109375 9.234375 16.796875 8.0625 
Q 21.484375 6.890625 26.703125 6.890625 
Q 35.15625 6.890625 40.078125 11.328125 
Q 45.015625 15.765625 45.015625 23.390625 
Q 45.015625 31 40.078125 35.4375 
Q 35.15625 39.890625 26.703125 39.890625 
Q 22.75 39.890625 18.8125 39.015625 
Q 14.890625 38.140625 10.796875 36.28125 
z
" id="DejaVuSans-53"/>
       </defs>
       <use xlink:href="#DejaVuSans-53"/>
      </g>
     </g>
    </g>
    <g id="ytick_3">
     <g id="line2d_5">
      <g>
       <use style="stroke:#000000;stroke-width:0.8;" x="40.603125" xlink:href="#m415ab7e14c" y="25.992088"/>
      </g>
     </g>
     <g id="text_5">
      <!-- 10 -->
      <g transform="translate(20.878125 29.791307)scale(0.1 -0.1)">
       <use xlink:href="#DejaVuSans-49"/>
       <use x="63.623047" xlink:href="#DejaVuSans-48"/>
      </g>
     </g>
    </g>
    <g id="text_6">
     <!-- Position Error (m) -->
     <g transform="translate(14.798438 111.035219)rotate(-90)scale(0.1 -0.1)">
      <defs>
       <path d="M 19.671875 64.796875 
L 19.671875 37.40625 
L 32.078125 37.40625 
Q 38.96875 37.40625 42.71875 40.96875 
Q 46.484375 44.53125 46.484375 51.125 
Q 46.484375 57.671875 42.71875 61.234375 
Q 38.96875 64.796875 32.078125 64.796875 
z
M 9.8125 72.90625 
L 32.078125 72.90625 
Q 44.34375 72.90625 50.609375 67.359375 
Q 56.890625 61.8125 56.890625 51.125 
Q 56.890625 40.328125 50.609375 34.8125 
Q 44.34375 29.296875 32.078125 29.296875 
L 19.671875 29.296875 
L 19.671875 0 
L 9.8125 0 
z
" id="DejaVuSans-80"/>
       <path d="M 30.609375 48.390625 
Q 23.390625 48.390625 19.1875 42.75 
Q 14.984375 37.109375 14.984375 27.296875 
Q 14.984375 17.484375 19.15625 11.84375 
Q 23.34375 6.203125 30.609375 6.203125 
Q 37.796875 6.203125 41.984375 11.859375 
Q 46.1875 17.53125 46.1875 27.296875 
Q 46.1875 37.015625 41.984375 42.703125 
Q 37.796875 48.390625 30.609375 48.390625 
z
M 30.609375 56 
Q 42.328125 56 49.015625 48.375 
Q 55.71875 40.765625 55.71875 27.296875 
Q 55.71875 13.875 49.015625 6.21875 
Q 42.328125 -1.421875 30.609375 -1.421875 
Q 18.84375 -1.421875 12.171875 6.21875 
Q 5.515625 13.875 5.515625 27.296875 
Q 5.515625 40.765625 12.171875 48.375 
Q 18.84375 56 30.609375 56 
z
" id="DejaVuSans-111"/>
       <path d="M 44.28125 53.078125 
L 44.28125 44.578125 
Q 40.484375 46.53125 36.375 47.5 
Q 32.28125 48.484375 27.875 48.484375 
Q 21.1875 48.484375 17.84375 46.4375 
Q 14.5 44.390625 14.5 40.28125 
Q 14.5 37.15625 16.890625 35.375 
Q 19.28125 33.59375 26.515625 31.984375 
L 29.59375 31.296875 
Q 39.15625 29.25 43.1875 25.515625 
Q 47.21875 21.78125 47.21875 15.09375 
Q 47.21875 7.46875 41.1875 3.015625 
Q 35.15625 -1.421875 24.609375 -1.421875 
Q 20.21875 -1.421875 15.453125 -0.5625 
Q 10.6875 0.296875 5.421875 2 
L 5.421875 11.28125 
Q 10.40625 8.6875 15.234375 7.390625 
Q 20.0625 6.109375 24.8125 6.109375 
Q 31.15625 6.109375 34.5625 8.28125 
Q 37.984375 10.453125 37.984375 14.40625 
Q 37.984375 18.0625 35.515625 20.015625 
Q 33.0625 21.96875 24.703125 23.78125 
L 21.578125 24.515625 
Q 13.234375 26.265625 9.515625 29.90625 
Q 5.8125 33.546875 5.8125 39.890625 
Q 5.8125 47.609375 11.28125 51.796875 
Q 16.75 56 26.8125 56 
Q 31.78125 56 36.171875 55.265625 
Q 40.578125 54.546875 44.28125 53.078125 
z
" id="DejaVuSans-115"/>
       <path d="M 9.421875 54.6875 
L 18.40625 54.6875 
L 18.40625 0 
L 9.421875 0 
z
M 9.421875 75.984375 
L 18.40625 75.984375 
L 18.40625 64.59375 
L 9.421875 64.59375 
z
" id="DejaVuSans-105"/>
       <path d="M 18.3125 70.21875 
L 18.3125 54.6875 
L 36.8125 54.6875 
L 36.8125 47.703125 
L 18.3125 47.703125 
L 18.3125 18.015625 
Q 18.3125 11.328125 20.140625 9.421875 
Q 21.96875 7.515625 27.59375 7.515625 
L 36.8125 7.515625 
L 36.8125 0 
L 27.59375 0 
Q 17.1875 0 13.234375 3.875 
Q 9.28125 7.765625 9.28125 18.015625 
L 9.28125 47.703125 
L 2.6875 47.703125 
L 2.6875 54.6875 
L 9.28125 54.6875 
L 9.28125 70.21875 
z
" id="DejaVuSans-116"/>
       <path d="M 54.890625 33.015625 
L 54.890625 0 
L 45.90625 0 
L 45.90625 32.71875 
Q 45.90625 40.484375 42.875 44.328125 
Q 39.84375 48.1875 33.796875 48.1875 
Q 26.515625 48.1875 22.3125 43.546875 
Q 18.109375 38.921875 18.109375 30.90625 
L 18.109375 0 
L 9.078125 0 
L 9.078125 54.6875 
L 18.109375 54.6875 
L 18.109375 46.1875 
Q 21.34375 51.125 25.703125 53.5625 
Q 30.078125 56 35.796875 56 
Q 45.21875 56 50.046875 50.171875 
Q 54.890625 44.34375 54.890625 33.015625 
z
" id="DejaVuSans-110"/>
       <path id="DejaVuSans-32"/>
       <path d="M 9.8125 72.90625 
L 55.90625 72.90625 
L 55.90625 64.59375 
L 19.671875 64.59375 
L 19.671875 43.015625 
L 54.390625 43.015625 
L 54.390625 34.71875 
L 19.671875 34.71875 
L 19.671875 8.296875 
L 56.78125 8.296875 
L 56.78125 0 
L 9.8125 0 
z
" id="DejaVuSans-69"/>
       <path d="M 41.109375 46.296875 
Q 39.59375 47.171875 37.8125 47.578125 
Q 36.03125 48 33.890625 48 
Q 26.265625 48 22.1875 43.046875 
Q 18.109375 38.09375 18.109375 28.8125 
L 18.109375 0 
L 9.078125 0 
L 9.078125 54.6875 
L 18.109375 54.6875 
L 18.109375 46.1875 
Q 20.953125 51.171875 25.484375 53.578125 
Q 30.03125 56 36.53125 56 
Q 37.453125 56 38.578125 55.875 
Q 39.703125 55.765625 41.0625 55.515625 
z
" id="DejaVuSans-114"/>
       <path d="M 31 75.875 
Q 24.46875 64.65625 21.28125 53.65625 
Q 18.109375 42.671875 18.109375 31.390625 
Q 18.109375 20.125 21.3125 9.0625 
Q 24.515625 -2 31 -13.1875 
L 23.1875 -13.1875 
Q 15.875 -1.703125 12.234375 9.375 
Q 8.59375 20.453125 8.59375 31.390625 
Q 8.59375 42.28125 12.203125 53.3125 
Q 15.828125 64.359375 23.1875 75.875 
z
" id="DejaVuSans-40"/>
       <path d="M 52 44.1875 
Q 55.375 50.25 60.0625 53.125 
Q 64.75 56 71.09375 56 
Q 79.640625 56 84.28125 50.015625 
Q 88.921875 44.046875 88.921875 33.015625 
L 88.921875 0 
L 79.890625 0 
L 79.890625 32.71875 
Q 79.890625 40.578125 77.09375 44.375 
Q 74.3125 48.1875 68.609375 48.1875 
Q 61.625 48.1875 57.5625 43.546875 
Q 53.515625 38.921875 53.515625 30.90625 
L 53.515625 0 
L 44.484375 0 
L 44.484375 32.71875 
Q 44.484375 40.625 41.703125 44.40625 
Q 38.921875 48.1875 33.109375 48.1875 
Q 26.21875 48.1875 22.15625 43.53125 
Q 18.109375 38.875 18.109375 30.90625 
L 18.109375 0 
L 9.078125 0 
L 9.078125 54.6875 
L 18.109375 54.6875 
L 18.109375 46.1875 
Q 21.1875 51.21875 25.484375 53.609375 
Q 29.78125 56 35.6875 56 
Q 41.65625 56 45.828125 52.96875 
Q 50 49.953125 52 44.1875 
z
" id="DejaVuSans-109"/>
       <path d="M 8.015625 75.875 
L 15.828125 75.875 
Q 23.140625 64.359375 26.78125 53.3125 
Q 30.421875 42.28125 30.421875 31.390625 
Q 30.421875 20.453125 26.78125 9.375 
Q 23.140625 -1.703125 15.828125 -13.1875 
L 8.015625 -13.1875 
Q 14.5 -2 17.703125 9.0625 
Q 20.90625 20.125 20.90625 31.390625 
Q 20.90625 42.671875 17.703125 53.65625 
Q 14.5 64.65625 8.015625 75.875 
z
" id="DejaVuSans-41"/>
      </defs>
      <use xlink:href="#DejaVuSans-80"/>
      <use x="56.677734" xlink:href="#DejaVuSans-111"/>
      <use x="117.859375" xlink:href="#DejaVuSans-115"/>
      <use x="169.958984" xlink:href="#DejaVuSans-105"/>
      <use x="197.742188" xlink:href="#DejaVuSans-116"/>
      <use x="236.951172" xlink:href="#DejaVuSans-105"/>
      <use x="264.734375" xlink:href="#DejaVuSans-111"/>
      <use x="325.916016" xlink:href="#DejaVuSans-110"/>
      <use x="389.294922" xlink:href="#DejaVuSans-32"/>
      <use x="421.082031" xlink:href="#DejaVuSans-69"/>
      <use x="484.265625" xlink:href="#DejaVuSans-114"/>
      <use x="523.628906" xlink:href="#DejaVuSans-114"/>
      <use x="562.492188" xlink:href="#DejaVuSans-111"/>
      <use x="623.673828" xlink:href="#DejaVuSans-114"/>
      <use x="664.787109" xlink:href="#DejaVuSans-32"/>
      <use x="696.574219" xlink:href="#DejaVuSans-40"/>
      <use x="735.587891" xlink:href="#DejaVuSans-109"/>
      <use x="833" xlink:href="#DejaVuSans-41"/>
     </g>
    </g>
   </g>
   <g id="line2d_6">
    <path clip-path="url(#p69e71bf49e)" d="M 44.16158 102.741651 
L 115.33067 102.741651 
L 115.33067 102.741651 
" style="fill:none;stroke:#000000;stroke-linecap:square;stroke-width:0.5;"/>
   </g>
   <g id="line2d_7">
    <path clip-path="url(#p69e71bf49e)" d="M 44.16158 49.876426 
L 45.697603 53.046598 
L 46.721619 57.082569 
L 47.745634 62.250852 
L 50.817682 79.53948 
L 51.329689 81.50175 
L 51.841697 82.884108 
L 52.353705 83.684661 
L 52.865713 83.944812 
L 53.377721 83.739597 
L 53.889729 83.050912 
L 56.449768 78.149009 
L 57.473784 76.860016 
L 57.985791 76.107232 
L 58.497799 75.638642 
L 59.009807 75.395179 
L 60.033823 75.394063 
L 60.545831 76.04138 
L 61.057839 75.955139 
L 61.569846 76.270094 
L 62.081854 76.867452 
L 62.593862 77.07509 
L 63.10587 77.576876 
L 63.617878 77.741321 
L 64.129886 78.743736 
L 65.153901 79.832968 
L 65.665909 80.633006 
L 67.201933 81.981458 
L 67.713941 82.038806 
L 68.737956 82.711944 
L 69.249964 82.901204 
L 69.761972 82.92519 
L 70.27398 83.115816 
L 71.810003 84.302454 
L 72.834019 85.499654 
L 73.346027 85.549867 
L 73.858035 86.149348 
L 74.88205 86.835493 
L 78.466105 88.70109 
L 78.978113 88.764435 
L 80.002129 89.334108 
L 80.514137 89.352996 
L 82.05016 89.733825 
L 83.074176 89.969479 
L 84.6102 90.90687 
L 85.634215 91.205121 
L 86.658231 91.033488 
L 87.170239 91.140647 
L 87.682247 91.467835 
L 88.706262 91.785656 
L 89.730278 91.874338 
L 90.242286 92.220036 
L 91.266302 92.498232 
L 91.778309 92.503632 
L 95.874372 93.987337 
L 96.38638 93.998314 
L 97.410396 94.395149 
L 97.922404 94.463324 
L 98.434411 94.415982 
L 99.458427 94.814565 
L 99.970435 94.72295 
L 100.482443 94.749889 
L 100.994451 94.897729 
L 101.506459 94.864034 
L 102.018466 94.632886 
L 102.530474 95.031523 
L 103.55449 95.257264 
L 104.578506 95.185356 
L 105.090513 95.06411 
L 106.114529 95.280265 
L 107.138545 95.850406 
L 108.162561 95.872781 
L 109.186576 95.97766 
L 109.698584 96.153769 
L 110.210592 96.118431 
L 111.234608 96.307065 
L 112.770631 96.355913 
L 115.33067 96.096128 
L 115.33067 96.096128 
" style="fill:none;stroke:#1f77b4;stroke-linecap:square;stroke-width:1.5;"/>
   </g>
   <g id="line2d_8">
    <path clip-path="url(#p69e71bf49e)" d="M 44.673587 13.166859 
L 45.185595 14.458888 
L 45.697603 16.448422 
L 46.721619 22.29478 
L 47.745634 29.852636 
L 50.305674 50.381629 
L 51.329689 56.418517 
L 51.841697 58.258416 
L 52.353705 59.13129 
L 52.865713 59.060736 
L 53.377721 58.13308 
L 53.889729 56.520523 
L 55.93776 47.437937 
L 57.985791 38.714041 
L 58.497799 36.773012 
L 59.009807 35.358078 
L 59.521815 34.518319 
L 60.033823 34.102755 
L 60.545831 35.000199 
L 61.057839 34.368846 
L 61.569846 34.65381 
L 62.081854 35.671649 
L 62.593862 35.550358 
L 63.10587 36.157239 
L 63.617878 35.886058 
L 64.129886 37.995092 
L 65.153901 39.80518 
L 65.665909 41.466184 
L 66.689925 42.839123 
L 67.201933 44.024294 
L 67.713941 43.844455 
L 69.249964 44.593266 
L 69.761972 44.59677 
L 70.27398 44.722788 
L 71.297996 45.405323 
L 71.810003 46.633406 
L 72.322011 48.198789 
L 72.834019 50.260659 
L 73.346027 50.4048 
L 73.858035 51.986817 
L 74.88205 54.008661 
L 76.418074 55.251534 
L 76.930082 55.470755 
L 78.466105 57.108214 
L 78.978113 57.278924 
L 80.002129 58.302736 
L 81.026145 58.845351 
L 81.538152 59.388183 
L 83.074176 60.348375 
L 84.098192 61.441006 
L 84.6102 62.833185 
L 86.146223 64.037256 
L 86.658231 64.076701 
L 88.194254 66.172563 
L 89.730278 67.690712 
L 90.242286 68.811738 
L 91.266302 69.898002 
L 91.778309 70.220021 
L 92.290317 71.008432 
L 92.802325 71.358575 
L 93.314333 73.296662 
L 94.338349 74.732486 
L 95.362364 75.714826 
L 95.874372 76.012183 
L 96.38638 76.025776 
L 97.410396 76.964181 
L 97.922404 77.224417 
L 98.434411 77.008445 
L 98.946419 77.48327 
L 99.458427 78.254824 
L 99.970435 78.137028 
L 100.482443 78.312571 
L 100.994451 79.023905 
L 101.506459 79.119611 
L 102.018466 78.818555 
L 102.530474 81.298683 
L 103.55449 81.801807 
L 104.578506 81.963356 
L 105.090513 81.917707 
L 106.114529 82.509357 
L 106.626537 85.635712 
L 107.138545 87.200577 
L 108.162561 87.340952 
L 108.674568 87.169074 
L 109.186576 87.209996 
L 109.698584 87.785757 
L 110.210592 87.533751 
L 110.7226 87.844554 
L 111.234608 87.658901 
L 111.746616 87.812153 
L 112.770631 87.652558 
L 113.282639 87.207666 
L 113.794647 87.194862 
L 114.818663 86.751863 
L 115.33067 86.28957 
L 115.33067 86.28957 
" style="fill:none;stroke:#1f77b4;stroke-dasharray:5.55,2.4;stroke-dashoffset:0;stroke-width:1.5;"/>
   </g>
   <g id="line2d_9">
    <path clip-path="url(#p69e71bf49e)" d="M 44.673587 88.552288 
L 45.185595 88.913549 
L 45.697603 89.644773 
L 46.721619 91.870359 
L 47.745634 94.649068 
L 48.76965 98.432001 
L 50.305674 104.003426 
L 51.329689 106.584983 
L 52.353705 108.238032 
L 53.377721 109.346113 
L 54.913744 109.959679 
L 55.425752 109.834533 
L 55.93776 110.27712 
L 59.521815 116.199076 
L 61.057839 117.541432 
L 61.569846 117.886378 
L 62.081854 118.063256 
L 63.617878 119.596583 
L 64.129886 119.492381 
L 64.641893 119.765999 
L 65.153901 119.860757 
L 65.665909 119.799829 
L 66.689925 120.276127 
L 67.201933 119.938622 
L 67.713941 120.233158 
L 68.737956 121.032329 
L 69.249964 121.209142 
L 69.761972 121.25361 
L 70.27398 121.508843 
L 70.785988 121.923974 
L 71.297996 122.196 
L 71.810003 121.971502 
L 72.322011 121.552683 
L 72.834019 120.738649 
L 73.346027 120.694934 
L 74.88205 119.662325 
L 75.906066 119.991153 
L 76.930082 120.280265 
L 77.44209 120.34071 
L 78.978113 120.249946 
L 80.002129 120.36548 
L 80.514137 120.181069 
L 81.026145 120.183623 
L 81.538152 119.854964 
L 84.098192 119.605176 
L 84.6102 118.980555 
L 85.122207 118.888483 
L 85.634215 118.660742 
L 86.146223 118.242935 
L 86.658231 117.990275 
L 87.170239 117.495743 
L 87.682247 117.468454 
L 89.730278 116.057963 
L 90.242286 115.628334 
L 91.266302 115.098461 
L 92.802325 114.25224 
L 93.314333 112.836543 
L 93.826341 112.468001 
L 95.874372 111.962491 
L 96.38638 111.970853 
L 96.898388 111.826875 
L 97.410396 111.826117 
L 97.922404 111.702231 
L 98.434411 111.823519 
L 98.946419 111.736951 
L 99.458427 111.374306 
L 100.482443 111.187207 
L 100.994451 110.771554 
L 102.018466 110.447216 
L 102.530474 108.764362 
L 103.55449 108.71272 
L 106.114529 108.051174 
L 106.626537 105.597032 
L 107.138545 104.500234 
L 108.162561 104.404609 
L 108.674568 104.680864 
L 109.186576 104.745324 
L 109.698584 104.521781 
L 110.210592 104.70311 
L 110.7226 104.682566 
L 111.234608 104.95523 
L 111.746616 104.865929 
L 112.258623 105.026072 
L 112.770631 105.059267 
L 113.282639 105.409203 
L 113.794647 105.365536 
L 115.33067 105.902686 
L 115.33067 105.902686 
" style="fill:none;stroke:#1f77b4;stroke-dasharray:5.55,2.4;stroke-dashoffset:0;stroke-width:1.5;"/>
   </g>
   <g id="patch_3">
    <path d="M 40.603125 127.672 
L 40.603125 7.2 
" style="fill:none;stroke:#000000;stroke-linecap:square;stroke-linejoin:miter;stroke-width:0.8;"/>
   </g>
   <g id="patch_4">
    <path d="M 118.889125 127.672 
L 118.889125 7.2 
" style="fill:none;stroke:#000000;stroke-linecap:square;stroke-linejoin:miter;stroke-width:0.8;"/>
   </g>
   <g id="patch_5">
    <path d="M 40.603125 127.672 
L 118.889125 127.672 
" style="fill:none;stroke:#000000;stroke-linecap:square;stroke-linejoin:miter;stroke-width:0.8;"/>
   </g>
   <g id="patch_6">
    <path d="M 40.603125 7.2 
L 118.889125 7.2 
" style="fill:none;stroke:#000000;stroke-linecap:square;stroke-linejoin:miter;stroke-width:0.8;"/>
   </g>
  </g>
  <g id="axes_2">
   <g id="patch_7">
    <path d="M 133.189125 127.672 
L 211.475125 127.672 
L 211.475125 7.2 
L 133.189125 7.2 
z
" style="fill:#ffffff;"/>
   </g>
   <g id="PolyCollection_2">
    <defs>
     <path d="M 137.259587 -152.551914 
L 137.259587 -76.876714 
L 137.771595 -76.426566 
L 138.283603 -75.606537 
L 138.795611 -74.131443 
L 139.307619 -72.339661 
L 139.819627 -70.422834 
L 140.331634 -68.924703 
L 140.843642 -67.191685 
L 141.35565 -65.338726 
L 141.867658 -64.064636 
L 142.379666 -62.68624 
L 142.891674 -61.400131 
L 143.403682 -60.670253 
L 143.915689 -60.189086 
L 144.427697 -59.813124 
L 144.939705 -59.52748 
L 145.451713 -59.003014 
L 145.963721 -58.64504 
L 146.475729 -58.038412 
L 146.987737 -57.43231 
L 147.499744 -56.767475 
L 148.011752 -56.015924 
L 148.52376 -55.193723 
L 149.035768 -54.279379 
L 149.547776 -53.056002 
L 150.059784 -51.882031 
L 150.571791 -50.864597 
L 151.083799 -50.146989 
L 151.595807 -49.567693 
L 152.107815 -49.169409 
L 152.619823 -48.802285 
L 153.131831 -48.348626 
L 153.643839 -47.858816 
L 154.155846 -47.439974 
L 154.667854 -47.151586 
L 155.179862 -46.609585 
L 155.69187 -45.997567 
L 156.203878 -45.852138 
L 156.715886 -45.363421 
L 157.227893 -45.009467 
L 157.739901 -45.31903 
L 158.251909 -45.328896 
L 158.763917 -45.391112 
L 159.275925 -45.493267 
L 159.787933 -45.672918 
L 160.299941 -46.481139 
L 160.811948 -46.328993 
L 161.323956 -46.290265 
L 161.835964 -46.447283 
L 162.347972 -46.495094 
L 162.85998 -46.540207 
L 163.371988 -46.834756 
L 163.883996 -46.805459 
L 164.396003 -46.677978 
L 164.908011 -46.759851 
L 165.420019 -46.848376 
L 165.932027 -46.908921 
L 166.444035 -46.932021 
L 166.956043 -47.108544 
L 167.46805 -47.404913 
L 167.980058 -47.549136 
L 168.492066 -47.366928 
L 169.004074 -47.277372 
L 169.516082 -47.402997 
L 170.02809 -47.466156 
L 170.540098 -47.521491 
L 171.052105 -47.595767 
L 171.564113 -47.701924 
L 172.076121 -47.725954 
L 172.588129 -47.756685 
L 173.100137 -47.785281 
L 173.612145 -47.814605 
L 174.124152 -48.210269 
L 174.63616 -48.706345 
L 175.148168 -48.558409 
L 175.660176 -48.510941 
L 176.172184 -48.452452 
L 176.684192 -48.406205 
L 177.1962 -48.451163 
L 177.708207 -48.428832 
L 178.220215 -48.369128 
L 178.732223 -48.268344 
L 179.244231 -48.169376 
L 179.756239 -48.095065 
L 180.268247 -47.972821 
L 180.780254 -47.899029 
L 181.292262 -47.756572 
L 181.80427 -47.73229 
L 182.316278 -47.783308 
L 182.828286 -47.696499 
L 183.340294 -47.625459 
L 183.852302 -47.599609 
L 184.364309 -47.647317 
L 184.876317 -47.779442 
L 185.388325 -47.953367 
L 185.900333 -48.199742 
L 186.412341 -48.183724 
L 186.924349 -48.149458 
L 187.436357 -48.021825 
L 187.948364 -47.801942 
L 188.460372 -47.890452 
L 188.97238 -47.958295 
L 189.484388 -47.875052 
L 189.996396 -47.727557 
L 190.508404 -47.640009 
L 191.020411 -47.461635 
L 191.532419 -47.334092 
L 192.044427 -47.319061 
L 192.556435 -47.248545 
L 193.068443 -47.129842 
L 193.580451 -47.052557 
L 194.092459 -47.068173 
L 194.604466 -47.234158 
L 195.116474 -47.362714 
L 195.628482 -47.66933 
L 196.14049 -47.843151 
L 196.652498 -47.848725 
L 197.164506 -47.704212 
L 197.676513 -47.600901 
L 198.188521 -47.62347 
L 198.700529 -48.23204 
L 199.212537 -48.149225 
L 199.724545 -47.976195 
L 200.236553 -47.799832 
L 200.748561 -47.746323 
L 201.260568 -47.914372 
L 201.772576 -47.932232 
L 202.284584 -47.886591 
L 202.796592 -47.868114 
L 203.3086 -47.831385 
L 203.820608 -47.789938 
L 204.332616 -47.641978 
L 204.844623 -47.35675 
L 205.356631 -47.021332 
L 205.868639 -46.80948 
L 206.380647 -46.581681 
L 206.892655 -46.407305 
L 207.404663 -46.716859 
L 207.91667 -46.918398 
L 207.91667 -118.09997 
L 207.91667 -118.09997 
L 207.404663 -118.908804 
L 206.892655 -119.764862 
L 206.380647 -119.694967 
L 205.868639 -119.579605 
L 205.356631 -119.075729 
L 204.844623 -118.785675 
L 204.332616 -118.680889 
L 203.820608 -118.378307 
L 203.3086 -118.125687 
L 202.796592 -117.798113 
L 202.284584 -117.547703 
L 201.772576 -117.375431 
L 201.260568 -117.281104 
L 200.748561 -117.732152 
L 200.236553 -117.535018 
L 199.724545 -117.399071 
L 199.212537 -117.492944 
L 198.700529 -117.420293 
L 198.188521 -118.601444 
L 197.676513 -118.493575 
L 197.164506 -118.551251 
L 196.652498 -118.648723 
L 196.14049 -118.733409 
L 195.628482 -118.796265 
L 195.116474 -119.542015 
L 194.604466 -119.703673 
L 194.092459 -119.723685 
L 193.580451 -119.686621 
L 193.068443 -119.861698 
L 192.556435 -120.00274 
L 192.044427 -119.916888 
L 191.532419 -119.905264 
L 191.020411 -119.787661 
L 190.508404 -119.724177 
L 189.996396 -119.69685 
L 189.484388 -119.730993 
L 188.97238 -119.701776 
L 188.460372 -119.559584 
L 187.948364 -119.864385 
L 187.436357 -119.873451 
L 186.924349 -119.807625 
L 186.412341 -119.778778 
L 185.900333 -119.63252 
L 185.388325 -120.266171 
L 184.876317 -119.925225 
L 184.364309 -119.627411 
L 183.852302 -119.574472 
L 183.340294 -120.213245 
L 182.828286 -120.460582 
L 182.316278 -120.513375 
L 181.80427 -120.576218 
L 181.292262 -120.590969 
L 180.780254 -120.779083 
L 180.268247 -121.023379 
L 179.756239 -121.085224 
L 179.244231 -121.278345 
L 178.732223 -121.352714 
L 178.220215 -121.520005 
L 177.708207 -121.716616 
L 177.1962 -121.767197 
L 176.684192 -122.163188 
L 176.172184 -122.235578 
L 175.660176 -122.38571 
L 175.148168 -122.630113 
L 174.63616 -122.750456 
L 174.124152 -124.50338 
L 173.612145 -125.569372 
L 173.100137 -125.689579 
L 172.588129 -125.799047 
L 172.076121 -125.935125 
L 171.564113 -126.204696 
L 171.052105 -126.586216 
L 170.540098 -127.011577 
L 170.02809 -127.557279 
L 169.516082 -128.066534 
L 169.004074 -128.598605 
L 168.492066 -129.166521 
L 167.980058 -129.836032 
L 167.46805 -130.410142 
L 166.956043 -130.874989 
L 166.444035 -131.223299 
L 165.932027 -131.58451 
L 165.420019 -131.821722 
L 164.908011 -132.063142 
L 164.396003 -132.3467 
L 163.883996 -132.648065 
L 163.371988 -132.933713 
L 162.85998 -134.1239 
L 162.347972 -134.507405 
L 161.835964 -134.695204 
L 161.323956 -134.820099 
L 160.811948 -134.945294 
L 160.299941 -135.265572 
L 159.787933 -137.409631 
L 159.275925 -137.390473 
L 158.763917 -137.379396 
L 158.251909 -138.229532 
L 157.739901 -138.527041 
L 157.227893 -139.742573 
L 156.715886 -139.871306 
L 156.203878 -139.69642 
L 155.69187 -140.266475 
L 155.179862 -139.829168 
L 154.667854 -139.174688 
L 154.155846 -138.383539 
L 153.643839 -137.449952 
L 153.131831 -136.116455 
L 152.619823 -134.921054 
L 152.107815 -133.644412 
L 151.595807 -132.708954 
L 151.083799 -131.322597 
L 150.571791 -130.018081 
L 150.059784 -128.146452 
L 149.547776 -126.375727 
L 149.035768 -124.709697 
L 148.52376 -123.410509 
L 148.011752 -121.885749 
L 147.499744 -119.848275 
L 146.987737 -118.011319 
L 146.475729 -116.602829 
L 145.963721 -115.763082 
L 145.451713 -115.318028 
L 144.939705 -115.129079 
L 144.427697 -115.466153 
L 143.915689 -116.30152 
L 143.403682 -117.682167 
L 142.891674 -119.795114 
L 142.379666 -122.624466 
L 141.867658 -125.671047 
L 141.35565 -128.950884 
L 140.843642 -132.666594 
L 140.331634 -136.265959 
L 139.819627 -139.979279 
L 139.307619 -143.701404 
L 138.795611 -147.010344 
L 138.283603 -149.792421 
L 137.771595 -151.526345 
L 137.259587 -152.551914 
z
" id="m2323f3a814" style="stroke:#ff7f0e;stroke-opacity:0.25;"/>
    </defs>
    <g clip-path="url(#pbfdf880e30)">
     <use style="fill:#ff7f0e;fill-opacity:0.25;stroke:#ff7f0e;stroke-opacity:0.25;" x="0" xlink:href="#m2323f3a814" y="165.22825"/>
    </g>
   </g>
   <g id="matplotlib.axis_3">
    <g id="xtick_3">
     <g id="line2d_10">
      <g>
       <use style="stroke:#000000;stroke-width:0.8;" x="136.74758" xlink:href="#m5cbbdbf136" y="127.672"/>
      </g>
     </g>
     <g id="text_7">
      <!-- 0 -->
      <g transform="translate(133.56633 142.270438)scale(0.1 -0.1)">
       <use xlink:href="#DejaVuSans-48"/>
      </g>
     </g>
    </g>
    <g id="xtick_4">
     <g id="line2d_11">
      <g>
       <use style="stroke:#000000;stroke-width:0.8;" x="187.948364" xlink:href="#m5cbbdbf136" y="127.672"/>
      </g>
     </g>
     <g id="text_8">
      <!-- 10 -->
      <g transform="translate(181.585864 142.270438)scale(0.1 -0.1)">
       <use xlink:href="#DejaVuSans-49"/>
       <use x="63.623047" xlink:href="#DejaVuSans-48"/>
      </g>
     </g>
    </g>
   </g>
   <g id="matplotlib.axis_4">
    <g id="ytick_4">
     <g id="line2d_12">
      <g>
       <use style="stroke:#000000;stroke-width:0.8;" x="133.189125" xlink:href="#m415ab7e14c" y="102.741651"/>
      </g>
     </g>
    </g>
    <g id="ytick_5">
     <g id="line2d_13">
      <g>
       <use style="stroke:#000000;stroke-width:0.8;" x="133.189125" xlink:href="#m415ab7e14c" y="64.36687"/>
      </g>
     </g>
    </g>
    <g id="ytick_6">
     <g id="line2d_14">
      <g>
       <use style="stroke:#000000;stroke-width:0.8;" x="133.189125" xlink:href="#m415ab7e14c" y="25.992088"/>
      </g>
     </g>
    </g>
   </g>
   <g id="line2d_15">
    <path clip-path="url(#pbfdf880e30)" d="M 136.74758 102.741651 
L 207.91667 102.741651 
L 207.91667 102.741651 
" style="fill:none;stroke:#000000;stroke-linecap:square;stroke-width:0.5;"/>
   </g>
   <g id="line2d_16">
    <path clip-path="url(#pbfdf880e30)" d="M 136.74758 49.876158 
L 137.771595 51.251794 
L 138.283603 52.528771 
L 139.307619 57.207717 
L 141.35565 68.083445 
L 142.891674 74.630627 
L 143.403682 76.05204 
L 143.915689 76.982947 
L 144.427697 77.588611 
L 144.939705 77.899971 
L 145.451713 78.067729 
L 146.475729 77.907629 
L 146.987737 77.506435 
L 148.011752 76.277413 
L 148.52376 75.926134 
L 149.547776 75.512386 
L 150.059784 75.214009 
L 151.083799 74.493457 
L 153.643839 72.573866 
L 154.667854 72.065113 
L 155.179862 72.008873 
L 155.69187 72.096229 
L 156.203878 72.453971 
L 157.227893 72.85223 
L 157.739901 73.305215 
L 158.251909 73.449036 
L 158.763917 73.842996 
L 159.787933 73.686975 
L 160.299941 74.354895 
L 160.811948 74.591106 
L 162.85998 74.896197 
L 163.371988 75.344015 
L 165.420019 75.893201 
L 167.46805 76.320722 
L 167.980058 76.535666 
L 169.004074 77.290261 
L 172.076121 78.39771 
L 173.612145 78.536261 
L 174.124152 78.871426 
L 174.63616 79.499849 
L 177.1962 80.11907 
L 178.220215 80.283683 
L 181.292262 81.05448 
L 182.828286 81.14971 
L 183.340294 81.308898 
L 183.852302 81.64121 
L 184.364309 81.590886 
L 185.388325 81.118481 
L 185.900333 81.312119 
L 186.924349 81.249708 
L 187.948364 81.395087 
L 188.460372 81.503232 
L 188.97238 81.398215 
L 192.556435 81.602608 
L 193.580451 81.858661 
L 195.116474 81.775885 
L 195.628482 81.995452 
L 196.652498 81.979526 
L 197.676513 82.181012 
L 198.188521 82.115793 
L 198.700529 82.402083 
L 199.212537 82.407166 
L 200.236553 82.560825 
L 200.748561 82.489013 
L 201.260568 82.630512 
L 202.796592 82.395137 
L 204.332616 82.066816 
L 205.356631 82.17972 
L 205.868639 82.033707 
L 206.892655 82.142167 
L 207.91667 82.719066 
L 207.91667 82.719066 
" style="fill:none;stroke:#ff7f0e;stroke-linecap:square;stroke-width:1.5;"/>
   </g>
   <g id="line2d_17">
    <path clip-path="url(#pbfdf880e30)" d="M 137.259587 12.676336 
L 137.771595 13.701905 
L 138.283603 15.435829 
L 139.307619 21.526846 
L 141.867658 39.557203 
L 142.891674 45.433136 
L 143.403682 47.546083 
L 143.915689 48.92673 
L 144.427697 49.762097 
L 144.939705 50.099171 
L 145.451713 49.910222 
L 145.963721 49.465168 
L 146.475729 48.625421 
L 146.987737 47.216931 
L 148.52376 41.817741 
L 149.035768 40.518553 
L 151.595807 32.519296 
L 152.107815 31.583838 
L 153.643839 27.778298 
L 154.667854 26.053562 
L 155.179862 25.399082 
L 155.69187 24.961775 
L 156.203878 25.53183 
L 156.715886 25.356944 
L 157.227893 25.485677 
L 157.739901 26.701209 
L 158.251909 26.998718 
L 158.763917 27.848854 
L 159.787933 27.818619 
L 160.299941 29.962678 
L 160.811948 30.282956 
L 162.347972 30.720845 
L 162.85998 31.10435 
L 163.371988 32.294537 
L 166.956043 34.353261 
L 167.980058 35.392218 
L 169.004074 36.629645 
L 171.052105 38.642034 
L 172.076121 39.293125 
L 173.612145 39.658878 
L 174.124152 40.72487 
L 174.63616 42.477794 
L 175.148168 42.598137 
L 176.172184 42.992672 
L 176.684192 43.065062 
L 177.1962 43.461053 
L 177.708207 43.511634 
L 178.732223 43.875536 
L 179.244231 43.949905 
L 179.756239 44.143026 
L 180.268247 44.204871 
L 181.292262 44.637281 
L 182.828286 44.767668 
L 183.340294 45.015005 
L 183.852302 45.653778 
L 184.364309 45.600839 
L 185.388325 44.962079 
L 185.900333 45.59573 
L 186.412341 45.449472 
L 187.948364 45.363865 
L 188.460372 45.668666 
L 189.484388 45.497257 
L 190.508404 45.504073 
L 192.556435 45.22551 
L 193.580451 45.541629 
L 194.604466 45.524577 
L 195.116474 45.686235 
L 195.628482 46.431985 
L 197.676513 46.734675 
L 198.188521 46.626806 
L 198.700529 47.807957 
L 199.212537 47.735306 
L 199.724545 47.829179 
L 200.748561 47.496098 
L 201.260568 47.947146 
L 202.284584 47.680547 
L 203.820608 46.849943 
L 204.332616 46.547361 
L 204.844623 46.442575 
L 205.356631 46.152521 
L 205.868639 45.648645 
L 206.892655 45.463388 
L 207.91667 47.12828 
L 207.91667 47.12828 
" style="fill:none;stroke:#ff7f0e;stroke-dasharray:5.55,2.4;stroke-dashoffset:0;stroke-width:1.5;"/>
   </g>
   <g id="line2d_18">
    <path clip-path="url(#pbfdf880e30)" d="M 137.259587 88.351536 
L 137.771595 88.801684 
L 138.283603 89.621713 
L 139.307619 92.888589 
L 140.331634 96.303547 
L 141.867658 101.163614 
L 142.891674 103.828119 
L 143.403682 104.557997 
L 144.427697 105.415126 
L 144.939705 105.70077 
L 145.451713 106.225236 
L 145.963721 106.58321 
L 147.499744 108.460775 
L 148.52376 110.034527 
L 149.035768 110.948871 
L 150.571791 114.363653 
L 151.595807 115.660557 
L 154.667854 118.076664 
L 155.69187 119.230683 
L 156.203878 119.376112 
L 157.227893 120.218783 
L 157.739901 119.90922 
L 158.763917 119.837138 
L 159.787933 119.555332 
L 160.299941 118.747111 
L 161.323956 118.937985 
L 162.347972 118.733156 
L 162.85998 118.688043 
L 163.371988 118.393494 
L 164.908011 118.468399 
L 166.956043 118.119706 
L 167.46805 117.823337 
L 167.980058 117.679114 
L 169.004074 117.950878 
L 170.02809 117.762094 
L 173.612145 117.413645 
L 174.63616 116.521905 
L 175.660176 116.717309 
L 176.684192 116.822045 
L 177.708207 116.799418 
L 179.756239 117.133185 
L 181.292262 117.471678 
L 184.364309 117.580933 
L 185.388325 117.274883 
L 185.900333 117.028508 
L 186.924349 117.078792 
L 187.948364 117.426308 
L 188.97238 117.269955 
L 190.508404 117.588241 
L 191.532419 117.894158 
L 192.556435 117.979705 
L 193.580451 118.175693 
L 194.092459 118.160077 
L 196.652498 117.379525 
L 197.676513 117.627349 
L 198.188521 117.60478 
L 198.700529 116.99621 
L 199.724545 117.252055 
L 200.236553 117.428418 
L 200.748561 117.481927 
L 201.260568 117.313878 
L 202.796592 117.360136 
L 203.820608 117.438312 
L 204.332616 117.586272 
L 206.380647 118.646569 
L 206.892655 118.820945 
L 207.91667 118.309852 
L 207.91667 118.309852 
" style="fill:none;stroke:#ff7f0e;stroke-dasharray:5.55,2.4;stroke-dashoffset:0;stroke-width:1.5;"/>
   </g>
   <g id="patch_8">
    <path d="M 133.189125 127.672 
L 133.189125 7.2 
" style="fill:none;stroke:#000000;stroke-linecap:square;stroke-linejoin:miter;stroke-width:0.8;"/>
   </g>
   <g id="patch_9">
    <path d="M 211.475125 127.672 
L 211.475125 7.2 
" style="fill:none;stroke:#000000;stroke-linecap:square;stroke-linejoin:miter;stroke-width:0.8;"/>
   </g>
   <g id="patch_10">
    <path d="M 133.189125 127.672 
L 211.475125 127.672 
" style="fill:none;stroke:#000000;stroke-linecap:square;stroke-linejoin:miter;stroke-width:0.8;"/>
   </g>
   <g id="patch_11">
    <path d="M 133.189125 7.2 
L 211.475125 7.2 
" style="fill:none;stroke:#000000;stroke-linecap:square;stroke-linejoin:miter;stroke-width:0.8;"/>
   </g>
  </g>
  <g id="axes_3">
   <g id="patch_12">
    <path d="M 225.775125 127.672 
L 304.061125 127.672 
L 304.061125 7.2 
L 225.775125 7.2 
z
" style="fill:#ffffff;"/>
   </g>
   <g id="PolyCollection_3">
    <defs>
     <path d="M 229.845587 -152.548247 
L 229.845587 -76.876382 
L 230.357595 -76.672532 
L 230.869603 -76.234489 
L 231.381611 -75.336571 
L 231.893619 -74.016408 
L 232.405627 -72.558066 
L 232.917634 -71.136207 
L 233.429642 -69.723607 
L 233.94165 -68.158027 
L 234.453658 -66.57431 
L 234.965666 -64.876185 
L 235.477674 -63.199519 
L 235.989682 -61.608075 
L 236.501689 -60.561258 
L 237.013697 -59.765347 
L 237.525705 -59.00414 
L 238.037713 -58.305058 
L 238.549721 -57.608846 
L 239.061729 -57.086382 
L 239.573737 -56.42428 
L 240.085744 -55.924953 
L 240.597752 -55.51788 
L 241.10976 -54.838079 
L 241.621768 -53.726271 
L 242.133776 -52.852241 
L 242.645784 -52.169367 
L 243.157791 -51.357944 
L 243.669799 -50.451937 
L 244.181807 -49.842942 
L 244.693815 -49.102886 
L 245.205823 -48.529002 
L 245.717831 -48.205639 
L 246.229839 -48.169983 
L 246.741846 -47.962342 
L 247.253854 -47.824254 
L 247.765862 -47.416523 
L 248.27787 -46.89937 
L 248.789878 -46.582075 
L 249.301886 -46.299233 
L 249.813893 -46.217427 
L 250.325901 -46.112464 
L 250.837909 -46.061017 
L 251.349917 -46.669419 
L 251.861925 -46.739916 
L 252.373933 -47.066763 
L 252.885941 -47.420254 
L 253.397948 -47.796681 
L 253.909956 -48.068928 
L 254.421964 -48.285619 
L 254.933972 -48.573259 
L 255.44598 -48.82919 
L 255.957988 -49.095319 
L 256.469996 -49.265914 
L 256.982003 -49.463034 
L 257.494011 -49.929188 
L 258.006019 -50.111538 
L 258.518027 -50.464936 
L 259.030035 -50.774508 
L 259.542043 -51.116363 
L 260.05405 -51.460764 
L 260.566058 -51.590112 
L 261.078066 -51.718499 
L 261.590074 -52.163478 
L 262.102082 -52.580516 
L 262.61409 -52.703936 
L 263.126098 -52.758243 
L 263.638105 -52.958846 
L 264.150113 -53.092981 
L 264.662121 -53.204185 
L 265.174129 -53.341824 
L 265.686137 -53.595744 
L 266.198145 -53.852374 
L 266.710152 -54.257963 
L 267.22216 -54.455047 
L 267.734168 -54.577389 
L 268.246176 -54.610775 
L 268.758184 -54.617982 
L 269.270192 -54.603075 
L 269.7822 -54.745486 
L 270.294207 -54.64415 
L 270.806215 -54.649214 
L 271.318223 -54.62867 
L 271.830231 -54.619163 
L 272.342239 -54.733484 
L 272.854247 -54.725066 
L 273.366254 -54.721461 
L 273.878262 -54.724605 
L 274.39027 -54.492599 
L 274.902278 -54.893157 
L 275.414286 -54.883237 
L 275.926294 -54.997861 
L 276.438302 -55.076381 
L 276.950309 -55.236365 
L 277.462317 -55.250499 
L 277.974325 -55.576507 
L 278.486333 -55.682566 
L 278.998341 -55.903316 
L 279.510349 -56.09717 
L 280.022357 -56.246964 
L 280.534364 -56.340824 
L 281.046372 -56.508965 
L 281.55838 -56.634176 
L 282.070388 -56.62324 
L 282.582396 -56.712923 
L 283.094404 -56.715161 
L 283.606411 -56.797094 
L 284.118419 -56.820437 
L 284.630427 -56.861922 
L 285.142435 -57.028781 
L 285.654443 -57.105582 
L 286.166451 -57.275765 
L 286.678459 -57.442519 
L 287.190466 -57.663516 
L 287.702474 -57.879526 
L 288.214482 -58.500407 
L 288.72649 -58.669245 
L 289.238498 -58.741666 
L 289.750506 -58.886552 
L 290.262513 -58.898394 
L 290.774521 -58.861095 
L 291.286529 -58.864619 
L 291.798537 -58.804278 
L 292.310545 -58.466604 
L 292.822553 -58.296418 
L 293.334561 -58.140332 
L 293.846568 -58.874257 
L 294.358576 -58.645062 
L 294.870584 -58.287955 
L 295.382592 -57.949386 
L 295.8946 -57.445191 
L 296.406608 -57.339919 
L 296.918616 -56.978575 
L 297.430623 -56.679959 
L 297.942631 -57.502437 
L 298.454639 -57.269287 
L 298.966647 -57.113646 
L 299.478655 -57.007455 
L 299.990663 -56.842951 
L 300.50267 -56.781913 
L 300.50267 -89.286982 
L 300.50267 -89.286982 
L 299.990663 -88.961277 
L 299.478655 -88.756974 
L 298.966647 -88.492921 
L 298.454639 -88.656849 
L 297.942631 -88.56402 
L 297.430623 -89.57212 
L 296.918616 -89.143729 
L 296.406608 -88.633196 
L 295.8946 -88.355099 
L 295.382592 -87.734778 
L 294.870584 -87.490123 
L 294.358576 -87.021785 
L 293.846568 -86.460302 
L 293.334561 -87.522335 
L 292.822553 -87.484638 
L 292.310545 -87.581284 
L 291.798537 -87.348561 
L 291.286529 -87.050694 
L 290.774521 -86.910168 
L 290.262513 -87.143061 
L 289.750506 -87.553451 
L 289.238498 -87.780224 
L 288.72649 -88.062391 
L 288.214482 -88.701197 
L 287.702474 -89.840317 
L 287.190466 -90.318577 
L 286.678459 -90.917922 
L 286.166451 -91.236229 
L 285.654443 -91.698604 
L 285.142435 -91.879793 
L 284.630427 -92.134705 
L 284.118419 -92.475997 
L 283.606411 -92.703287 
L 283.094404 -92.921702 
L 282.582396 -92.916433 
L 282.070388 -93.068904 
L 281.55838 -93.192469 
L 281.046372 -93.377001 
L 280.534364 -93.409049 
L 280.022357 -93.573084 
L 279.510349 -93.876533 
L 278.998341 -93.613349 
L 278.486333 -93.420485 
L 277.974325 -93.25276 
L 277.462317 -93.245842 
L 276.950309 -93.036356 
L 276.438302 -92.96259 
L 275.926294 -93.097918 
L 275.414286 -93.124326 
L 274.902278 -93.368511 
L 274.39027 -94.455429 
L 273.878262 -94.930884 
L 273.366254 -95.360305 
L 272.854247 -95.49503 
L 272.342239 -95.965626 
L 271.830231 -96.243216 
L 271.318223 -96.32892 
L 270.806215 -96.591757 
L 270.294207 -96.814371 
L 269.7822 -97.104113 
L 269.270192 -97.404096 
L 268.758184 -97.721431 
L 268.246176 -97.886786 
L 267.734168 -98.253075 
L 267.22216 -98.452108 
L 266.710152 -98.759936 
L 266.198145 -99.751532 
L 265.686137 -99.911523 
L 265.174129 -100.343287 
L 264.662121 -100.918216 
L 264.150113 -101.379687 
L 263.638105 -101.86364 
L 263.126098 -102.255757 
L 262.61409 -102.818066 
L 262.102082 -103.336737 
L 261.590074 -104.471268 
L 261.078066 -105.507762 
L 260.566058 -106.03201 
L 260.05405 -106.594921 
L 259.542043 -107.141129 
L 259.030035 -107.279497 
L 258.518027 -107.54267 
L 258.006019 -108.431373 
L 257.494011 -108.693246 
L 256.982003 -109.724804 
L 256.469996 -110.141546 
L 255.957988 -110.620188 
L 255.44598 -111.130016 
L 254.933972 -111.612338 
L 254.421964 -112.054913 
L 253.909956 -112.501543 
L 253.397948 -113.124976 
L 252.885941 -113.448237 
L 252.373933 -113.817244 
L 251.861925 -114.057256 
L 251.349917 -114.428587 
L 250.837909 -116.030614 
L 250.325901 -116.320782 
L 249.813893 -116.678278 
L 249.301886 -116.673433 
L 248.789878 -116.709228 
L 248.27787 -116.665439 
L 247.765862 -116.665224 
L 247.253854 -116.648824 
L 246.741846 -115.765563 
L 246.229839 -114.900525 
L 245.717831 -115.306112 
L 245.205823 -114.668717 
L 244.693815 -113.750065 
L 244.181807 -112.916982 
L 243.669799 -111.986602 
L 243.157791 -110.954752 
L 242.645784 -109.982253 
L 242.133776 -109.128816 
L 241.621768 -108.551459 
L 241.10976 -108.005554 
L 240.597752 -107.147329 
L 240.085744 -106.454624 
L 239.573737 -106.263026 
L 239.061729 -106.611715 
L 238.549721 -107.199417 
L 238.037713 -108.132337 
L 237.525705 -109.547793 
L 237.013697 -111.186724 
L 236.501689 -113.196641 
L 235.989682 -115.64313 
L 235.477674 -118.765259 
L 234.965666 -121.971593 
L 234.453658 -125.448703 
L 233.94165 -129.238237 
L 233.429642 -133.175272 
L 232.917634 -137.049741 
L 232.405627 -140.836175 
L 231.893619 -144.512633 
L 231.381611 -147.65846 
L 230.869603 -150.129519 
L 230.357595 -151.669373 
L 229.845587 -152.548247 
z
" id="md8f705cd90" style="stroke:#2ca02c;stroke-opacity:0.25;"/>
    </defs>
    <g clip-path="url(#pa79b761dbd)">
     <use style="fill:#2ca02c;fill-opacity:0.25;stroke:#2ca02c;stroke-opacity:0.25;" x="0" xlink:href="#md8f705cd90" y="165.22825"/>
    </g>
   </g>
   <g id="matplotlib.axis_5">
    <g id="xtick_5">
     <g id="line2d_19">
      <g>
       <use style="stroke:#000000;stroke-width:0.8;" x="229.33358" xlink:href="#m5cbbdbf136" y="127.672"/>
      </g>
     </g>
     <g id="text_9">
      <!-- 0 -->
      <g transform="translate(226.15233 142.270438)scale(0.1 -0.1)">
       <use xlink:href="#DejaVuSans-48"/>
      </g>
     </g>
    </g>
    <g id="xtick_6">
     <g id="line2d_20">
      <g>
       <use style="stroke:#000000;stroke-width:0.8;" x="280.534364" xlink:href="#m5cbbdbf136" y="127.672"/>
      </g>
     </g>
     <g id="text_10">
      <!-- 10 -->
      <g transform="translate(274.171864 142.270438)scale(0.1 -0.1)">
       <use xlink:href="#DejaVuSans-49"/>
       <use x="63.623047" xlink:href="#DejaVuSans-48"/>
      </g>
     </g>
    </g>
    <g id="text_11">
     <!-- Time (s) -->
     <g transform="translate(244.589219 155.948563)scale(0.1 -0.1)">
      <defs>
       <path d="M -0.296875 72.90625 
L 61.375 72.90625 
L 61.375 64.59375 
L 35.5 64.59375 
L 35.5 0 
L 25.59375 0 
L 25.59375 64.59375 
L -0.296875 64.59375 
z
" id="DejaVuSans-84"/>
       <path d="M 56.203125 29.59375 
L 56.203125 25.203125 
L 14.890625 25.203125 
Q 15.484375 15.921875 20.484375 11.0625 
Q 25.484375 6.203125 34.421875 6.203125 
Q 39.59375 6.203125 44.453125 7.46875 
Q 49.3125 8.734375 54.109375 11.28125 
L 54.109375 2.78125 
Q 49.265625 0.734375 44.1875 -0.34375 
Q 39.109375 -1.421875 33.890625 -1.421875 
Q 20.796875 -1.421875 13.15625 6.1875 
Q 5.515625 13.8125 5.515625 26.8125 
Q 5.515625 40.234375 12.765625 48.109375 
Q 20.015625 56 32.328125 56 
Q 43.359375 56 49.78125 48.890625 
Q 56.203125 41.796875 56.203125 29.59375 
z
M 47.21875 32.234375 
Q 47.125 39.59375 43.09375 43.984375 
Q 39.0625 48.390625 32.421875 48.390625 
Q 24.90625 48.390625 20.390625 44.140625 
Q 15.875 39.890625 15.1875 32.171875 
z
" id="DejaVuSans-101"/>
      </defs>
      <use xlink:href="#DejaVuSans-84"/>
      <use x="57.958984" xlink:href="#DejaVuSans-105"/>
      <use x="85.742188" xlink:href="#DejaVuSans-109"/>
      <use x="183.154297" xlink:href="#DejaVuSans-101"/>
      <use x="244.677734" xlink:href="#DejaVuSans-32"/>
      <use x="276.464844" xlink:href="#DejaVuSans-40"/>
      <use x="315.478516" xlink:href="#DejaVuSans-115"/>
      <use x="367.578125" xlink:href="#DejaVuSans-41"/>
     </g>
    </g>
   </g>
   <g id="matplotlib.axis_6">
    <g id="ytick_7">
     <g id="line2d_21">
      <g>
       <use style="stroke:#000000;stroke-width:0.8;" x="225.775125" xlink:href="#m415ab7e14c" y="102.741651"/>
      </g>
     </g>
    </g>
    <g id="ytick_8">
     <g id="line2d_22">
      <g>
       <use style="stroke:#000000;stroke-width:0.8;" x="225.775125" xlink:href="#m415ab7e14c" y="64.36687"/>
      </g>
     </g>
    </g>
    <g id="ytick_9">
     <g id="line2d_23">
      <g>
       <use style="stroke:#000000;stroke-width:0.8;" x="225.775125" xlink:href="#m415ab7e14c" y="25.992088"/>
      </g>
     </g>
    </g>
   </g>
   <g id="line2d_24">
    <path clip-path="url(#pa79b761dbd)" d="M 229.33358 102.741651 
L 300.50267 102.741651 
L 300.50267 102.741651 
" style="fill:none;stroke:#000000;stroke-linecap:square;stroke-width:0.5;"/>
   </g>
   <g id="line2d_25">
    <path clip-path="url(#pa79b761dbd)" d="M 229.33358 49.877102 
L 230.357595 51.057298 
L 230.869603 52.046246 
L 231.381611 53.730735 
L 232.405627 58.53113 
L 235.989682 76.602647 
L 237.013697 79.752215 
L 238.037713 82.009553 
L 238.549721 82.824118 
L 239.573737 83.884597 
L 240.085744 84.038461 
L 241.10976 83.806434 
L 241.621768 84.089385 
L 242.133776 84.237722 
L 245.205823 83.629391 
L 245.717831 83.472375 
L 246.229839 83.692996 
L 247.253854 82.991711 
L 249.301886 83.741917 
L 249.813893 83.780398 
L 250.837909 84.182434 
L 251.349917 84.679247 
L 251.861925 84.829664 
L 253.397948 84.767421 
L 254.421964 85.057984 
L 255.957988 85.370497 
L 259.030035 86.201248 
L 259.542043 86.099504 
L 260.05405 86.200407 
L 261.590074 86.910877 
L 262.102082 87.269623 
L 265.174129 88.385695 
L 265.686137 88.474617 
L 266.198145 88.426297 
L 266.710152 88.719301 
L 268.246176 88.97947 
L 269.7822 89.303451 
L 270.806215 89.607764 
L 271.830231 89.79706 
L 272.342239 89.878695 
L 272.854247 90.118202 
L 273.366254 90.187367 
L 273.878262 90.400505 
L 274.902278 91.097416 
L 275.414286 91.224469 
L 277.462317 90.98008 
L 279.510349 90.241398 
L 280.534364 90.353313 
L 281.55838 90.314927 
L 286.678459 91.04803 
L 289.238498 91.967305 
L 289.750506 92.008248 
L 290.774521 92.342619 
L 292.310545 92.204306 
L 293.846568 92.56097 
L 294.870584 92.339211 
L 295.8946 92.328105 
L 297.430623 92.102211 
L 298.966647 92.424966 
L 300.50267 92.193802 
L 300.50267 92.193802 
" style="fill:none;stroke:#2ca02c;stroke-linecap:square;stroke-width:1.5;"/>
   </g>
   <g id="line2d_26">
    <path clip-path="url(#pa79b761dbd)" d="M 229.845587 12.680003 
L 230.357595 13.558877 
L 230.869603 15.098731 
L 231.381611 17.56979 
L 232.405627 24.392075 
L 235.477674 46.462991 
L 236.501689 52.031609 
L 237.525705 55.680457 
L 238.037713 57.095913 
L 238.549721 58.028833 
L 239.061729 58.616535 
L 239.573737 58.965224 
L 240.085744 58.773626 
L 242.645784 55.245997 
L 245.205823 50.559533 
L 245.717831 49.922138 
L 246.229839 50.327725 
L 247.253854 48.579426 
L 249.813893 48.549972 
L 250.837909 49.197636 
L 251.349917 50.799663 
L 252.885941 51.780013 
L 253.397948 52.103274 
L 253.909956 52.726707 
L 256.982003 55.503446 
L 257.494011 56.535004 
L 258.006019 56.796877 
L 258.518027 57.68558 
L 259.542043 58.087121 
L 261.078066 59.720488 
L 262.102082 61.891513 
L 264.150113 63.848563 
L 265.686137 65.316727 
L 266.198145 65.476718 
L 266.710152 66.468314 
L 268.246176 67.341464 
L 268.758184 67.506819 
L 270.294207 68.413879 
L 272.342239 69.262624 
L 272.854247 69.73322 
L 273.366254 69.867945 
L 274.39027 70.772821 
L 274.902278 71.859739 
L 275.414286 72.103924 
L 276.950309 72.191894 
L 277.462317 71.982408 
L 277.974325 71.97549 
L 278.998341 71.614901 
L 279.510349 71.351717 
L 280.022357 71.655166 
L 280.534364 71.819201 
L 281.046372 71.851249 
L 282.582396 72.311817 
L 283.094404 72.306548 
L 284.118419 72.752253 
L 285.142435 73.348457 
L 285.654443 73.529646 
L 287.702474 75.387933 
L 288.214482 76.527053 
L 288.72649 77.165859 
L 290.774521 78.318082 
L 291.286529 78.177556 
L 292.310545 77.646966 
L 292.822553 77.743612 
L 293.334561 77.705915 
L 293.846568 78.767948 
L 294.870584 77.738127 
L 295.382592 77.493472 
L 295.8946 76.873151 
L 296.406608 76.595054 
L 297.430623 75.65613 
L 297.942631 76.66423 
L 298.454639 76.571401 
L 298.966647 76.735329 
L 300.50267 75.941268 
L 300.50267 75.941268 
" style="fill:none;stroke:#2ca02c;stroke-dasharray:5.55,2.4;stroke-dashoffset:0;stroke-width:1.5;"/>
   </g>
   <g id="line2d_27">
    <path clip-path="url(#pa79b761dbd)" d="M 229.845587 88.351868 
L 230.357595 88.555718 
L 230.869603 88.993761 
L 231.381611 89.891679 
L 232.917634 94.092043 
L 234.453658 98.65394 
L 235.989682 103.620175 
L 237.013697 105.462903 
L 238.549721 107.619404 
L 241.10976 110.390171 
L 242.133776 112.376009 
L 243.157791 113.870306 
L 243.669799 114.776313 
L 245.205823 116.699248 
L 245.717831 117.022611 
L 246.229839 117.058267 
L 247.253854 117.403996 
L 249.301886 118.929017 
L 250.837909 119.167233 
L 251.349917 118.558831 
L 251.861925 118.488334 
L 254.933972 116.654991 
L 256.469996 115.962336 
L 256.982003 115.765216 
L 257.494011 115.299062 
L 258.006019 115.116712 
L 260.05405 113.767486 
L 261.078066 113.509751 
L 262.102082 112.647734 
L 265.174129 111.886426 
L 266.198145 111.375876 
L 266.710152 110.970287 
L 267.734168 110.650861 
L 270.294207 110.5841 
L 273.878262 110.503645 
L 274.39027 110.735651 
L 274.902278 110.335093 
L 275.414286 110.345013 
L 277.462317 109.977751 
L 277.974325 109.651743 
L 278.486333 109.545684 
L 280.022357 108.981286 
L 283.606411 108.431156 
L 284.630427 108.366328 
L 287.702474 107.348724 
L 288.214482 106.727843 
L 289.238498 106.486584 
L 289.750506 106.341698 
L 291.286529 106.363631 
L 291.798537 106.423972 
L 292.310545 106.761646 
L 293.334561 107.087918 
L 293.846568 106.353993 
L 294.358576 106.583188 
L 296.918616 108.249675 
L 297.430623 108.548291 
L 297.942631 107.725813 
L 298.966647 108.114604 
L 300.50267 108.446337 
L 300.50267 108.446337 
" style="fill:none;stroke:#2ca02c;stroke-dasharray:5.55,2.4;stroke-dashoffset:0;stroke-width:1.5;"/>
   </g>
   <g id="patch_13">
    <path d="M 225.775125 127.672 
L 225.775125 7.2 
" style="fill:none;stroke:#000000;stroke-linecap:square;stroke-linejoin:miter;stroke-width:0.8;"/>
   </g>
   <g id="patch_14">
    <path d="M 304.061125 127.672 
L 304.061125 7.2 
" style="fill:none;stroke:#000000;stroke-linecap:square;stroke-linejoin:miter;stroke-width:0.8;"/>
   </g>
   <g id="patch_15">
    <path d="M 225.775125 127.672 
L 304.061125 127.672 
" style="fill:none;stroke:#000000;stroke-linecap:square;stroke-linejoin:miter;stroke-width:0.8;"/>
   </g>
   <g id="patch_16">
    <path d="M 225.775125 7.2 
L 304.061125 7.2 
" style="fill:none;stroke:#000000;stroke-linecap:square;stroke-linejoin:miter;stroke-width:0.8;"/>
   </g>
  </g>
  <g id="axes_4">
   <g id="patch_17">
    <path d="M 318.361125 127.672 
L 396.647125 127.672 
L 396.647125 7.2 
L 318.361125 7.2 
z
" style="fill:#ffffff;"/>
   </g>
   <g id="PolyCollection_4">
    <defs>
     <path d="M 322.431587 -152.55225 
L 322.431587 -76.877531 
L 322.943595 -76.667677 
L 323.455603 -76.200648 
L 323.967611 -75.187336 
L 324.479619 -73.719829 
L 324.991627 -72.192053 
L 325.503634 -70.825874 
L 326.015642 -69.352021 
L 326.52765 -67.701707 
L 327.039658 -66.115724 
L 327.551666 -64.683495 
L 328.063674 -63.052341 
L 328.575682 -61.479962 
L 329.087689 -60.227868 
L 329.599697 -59.376195 
L 330.111705 -58.634459 
L 330.623713 -57.945214 
L 331.135721 -57.334762 
L 331.647729 -56.664329 
L 332.159737 -56.058835 
L 332.671744 -55.394871 
L 333.183752 -54.718561 
L 333.69576 -53.960264 
L 334.207768 -52.868418 
L 334.719776 -51.701951 
L 335.231784 -50.630697 
L 335.743791 -49.953541 
L 336.255799 -49.425391 
L 336.767807 -48.660536 
L 337.279815 -48.222979 
L 337.791823 -47.913151 
L 338.303831 -47.498971 
L 338.815839 -47.513871 
L 339.327846 -47.440371 
L 339.839854 -47.24542 
L 340.351862 -46.867546 
L 340.86387 -46.162671 
L 341.375878 -45.775021 
L 341.887886 -45.726232 
L 342.399893 -45.580043 
L 342.911901 -46.609062 
L 343.423909 -46.599839 
L 343.935917 -46.553789 
L 344.447925 -46.556068 
L 344.959933 -46.669285 
L 345.471941 -46.873504 
L 345.983948 -47.190381 
L 346.495956 -47.453946 
L 347.007964 -47.569591 
L 347.519972 -47.703622 
L 348.03198 -47.828103 
L 348.543988 -48.051594 
L 349.055996 -48.188302 
L 349.568003 -48.282507 
L 350.080011 -48.404237 
L 350.592019 -48.459017 
L 351.104027 -48.742873 
L 351.616035 -48.919901 
L 352.128043 -49.194437 
L 352.64005 -49.377686 
L 353.152058 -49.485457 
L 353.664066 -49.444299 
L 354.176074 -49.694216 
L 354.688082 -50.127961 
L 355.20009 -50.579745 
L 355.712098 -50.747413 
L 356.224105 -50.835536 
L 356.736113 -51.415739 
L 357.248121 -51.530631 
L 357.760129 -51.77502 
L 358.272137 -52.045398 
L 358.784145 -52.507179 
L 359.296152 -52.661697 
L 359.80816 -52.711049 
L 360.320168 -52.854085 
L 360.832176 -52.993019 
L 361.344184 -53.103513 
L 361.856192 -53.295928 
L 362.3682 -53.498816 
L 362.880207 -53.623132 
L 363.392215 -53.787371 
L 363.904223 -54.010571 
L 364.416231 -54.34373 
L 364.928239 -54.417311 
L 365.440247 -54.815717 
L 365.952254 -54.976067 
L 366.464262 -55.259188 
L 366.97627 -55.446345 
L 367.488278 -55.704065 
L 368.000286 -55.923337 
L 368.512294 -56.189044 
L 369.024302 -56.54181 
L 369.536309 -56.791052 
L 370.048317 -57.092849 
L 370.560325 -57.269899 
L 371.072333 -57.536981 
L 371.584341 -57.744772 
L 372.096349 -58.090613 
L 372.608357 -58.195401 
L 373.120364 -58.316705 
L 373.632372 -58.44524 
L 374.14438 -58.438765 
L 374.656388 -58.610299 
L 375.168396 -58.587637 
L 375.680404 -58.649981 
L 376.192411 -59.495003 
L 376.704419 -60.299573 
L 377.216427 -60.372036 
L 377.728435 -60.46601 
L 378.240443 -60.419306 
L 378.752451 -60.474422 
L 379.264459 -60.214311 
L 379.776466 -60.214165 
L 380.288474 -60.040703 
L 380.800482 -60.067097 
L 381.31249 -60.182558 
L 381.824498 -59.993369 
L 382.336506 -59.913267 
L 382.848513 -59.804895 
L 383.360521 -59.970841 
L 383.872529 -59.836427 
L 384.384537 -59.668431 
L 384.896545 -59.634336 
L 385.408553 -59.412188 
L 385.920561 -59.313205 
L 386.432568 -59.08352 
L 386.944576 -58.963086 
L 387.456584 -58.933571 
L 387.968592 -59.066564 
L 388.4806 -58.874701 
L 388.992608 -58.723258 
L 389.504616 -58.509241 
L 390.016623 -58.196069 
L 390.528631 -58.185107 
L 391.040639 -58.173195 
L 391.552647 -58.105791 
L 392.064655 -57.996632 
L 392.576663 -58.085085 
L 393.08867 -57.931233 
L 393.08867 -84.244619 
L 393.08867 -84.244619 
L 392.576663 -83.984007 
L 392.064655 -84.233617 
L 391.552647 -84.015962 
L 391.040639 -83.683324 
L 390.528631 -83.928326 
L 390.016623 -83.878564 
L 389.504616 -83.360016 
L 388.992608 -82.941893 
L 388.4806 -82.721633 
L 387.968592 -82.384779 
L 387.456584 -82.701602 
L 386.944576 -82.765066 
L 386.432568 -82.566531 
L 385.920561 -82.470668 
L 385.408553 -82.473911 
L 384.896545 -82.182597 
L 384.384537 -82.265675 
L 383.872529 -81.892661 
L 383.360521 -81.563608 
L 382.848513 -81.645033 
L 382.336506 -81.535191 
L 381.824498 -81.59838 
L 381.31249 -81.5452 
L 380.800482 -81.618047 
L 380.288474 -81.983296 
L 379.776466 -82.192087 
L 379.264459 -82.497048 
L 378.752451 -82.024953 
L 378.240443 -81.994355 
L 377.728435 -82.09057 
L 377.216427 -82.007162 
L 376.704419 -82.072631 
L 376.192411 -83.246434 
L 375.680404 -84.512414 
L 375.168396 -84.643886 
L 374.656388 -84.459732 
L 374.14438 -84.573466 
L 373.632372 -84.664948 
L 373.120364 -84.703287 
L 372.608357 -84.992958 
L 372.096349 -85.314257 
L 371.584341 -85.863928 
L 371.072333 -85.782931 
L 370.560325 -86.007472 
L 370.048317 -86.375964 
L 369.536309 -86.96138 
L 369.024302 -87.284315 
L 368.512294 -87.822082 
L 368.000286 -88.562441 
L 367.488278 -89.113189 
L 366.97627 -89.722933 
L 366.464262 -90.331555 
L 365.952254 -91.126285 
L 365.440247 -91.715269 
L 364.928239 -92.590689 
L 364.416231 -92.985637 
L 363.904223 -93.383106 
L 363.392215 -93.69758 
L 362.880207 -94.18516 
L 362.3682 -94.785102 
L 361.856192 -95.159068 
L 361.344184 -95.549043 
L 360.832176 -95.924895 
L 360.320168 -96.324136 
L 359.80816 -96.733533 
L 359.296152 -97.134401 
L 358.784145 -97.596365 
L 358.272137 -98.686955 
L 357.760129 -98.99839 
L 357.248121 -99.112911 
L 356.736113 -99.597473 
L 356.224105 -100.81492 
L 355.712098 -101.37087 
L 355.20009 -101.923886 
L 354.688082 -103.113184 
L 354.176074 -104.321034 
L 353.664066 -104.929713 
L 353.152058 -105.436431 
L 352.64005 -105.995934 
L 352.128043 -106.496996 
L 351.616035 -106.621194 
L 351.104027 -107.009376 
L 350.592019 -107.990655 
L 350.080011 -108.101498 
L 349.568003 -108.429339 
L 349.055996 -108.863203 
L 348.543988 -109.299685 
L 348.03198 -109.776531 
L 347.519972 -110.283138 
L 347.007964 -111.054882 
L 346.495956 -111.796334 
L 345.983948 -112.150406 
L 345.471941 -112.525682 
L 344.959933 -112.822247 
L 344.447925 -113.317914 
L 343.935917 -113.543202 
L 343.423909 -113.895395 
L 342.911901 -114.228876 
L 342.399893 -116.573763 
L 341.887886 -116.664652 
L 341.375878 -116.792907 
L 340.86387 -116.353754 
L 340.351862 -116.212371 
L 339.839854 -116.336426 
L 339.327846 -115.564404 
L 338.815839 -115.045073 
L 338.303831 -114.366158 
L 337.791823 -113.802291 
L 337.279815 -113.468876 
L 336.767807 -113.105823 
L 336.255799 -112.373348 
L 335.743791 -111.918867 
L 335.231784 -111.108379 
L 334.719776 -110.358243 
L 334.207768 -109.576512 
L 333.69576 -109.03882 
L 333.183752 -107.958695 
L 332.671744 -107.333152 
L 332.159737 -106.952841 
L 331.647729 -107.044625 
L 331.135721 -107.494798 
L 330.623713 -108.22418 
L 330.111705 -109.474532 
L 329.599697 -110.964161 
L 329.087689 -113.010914 
L 328.575682 -115.448549 
L 328.063674 -118.557456 
L 327.551666 -121.835928 
L 327.039658 -125.201537 
L 326.52765 -129.103069 
L 326.015642 -133.117995 
L 325.503634 -136.864044 
L 324.991627 -140.638094 
L 324.479619 -144.46142 
L 323.967611 -147.590328 
L 323.455603 -150.139484 
L 322.943595 -151.680883 
L 322.431587 -152.55225 
z
" id="m5f8df9c819" style="stroke:#d62728;stroke-opacity:0.25;"/>
    </defs>
    <g clip-path="url(#paefd574932)">
     <use style="fill:#d62728;fill-opacity:0.25;stroke:#d62728;stroke-opacity:0.25;" x="0" xlink:href="#m5f8df9c819" y="165.22825"/>
    </g>
   </g>
   <g id="matplotlib.axis_7">
    <g id="xtick_7">
     <g id="line2d_28">
      <g>
       <use style="stroke:#000000;stroke-width:0.8;" x="321.91958" xlink:href="#m5cbbdbf136" y="127.672"/>
      </g>
     </g>
     <g id="text_12">
      <!-- 0 -->
      <g transform="translate(318.73833 142.270438)scale(0.1 -0.1)">
       <use xlink:href="#DejaVuSans-48"/>
      </g>
     </g>
    </g>
    <g id="xtick_8">
     <g id="line2d_29">
      <g>
       <use style="stroke:#000000;stroke-width:0.8;" x="373.120364" xlink:href="#m5cbbdbf136" y="127.672"/>
      </g>
     </g>
     <g id="text_13">
      <!-- 10 -->
      <g transform="translate(366.757864 142.270438)scale(0.1 -0.1)">
       <use xlink:href="#DejaVuSans-49"/>
       <use x="63.623047" xlink:href="#DejaVuSans-48"/>
      </g>
     </g>
    </g>
   </g>
   <g id="matplotlib.axis_8">
    <g id="ytick_10">
     <g id="line2d_30">
      <g>
       <use style="stroke:#000000;stroke-width:0.8;" x="318.361125" xlink:href="#m415ab7e14c" y="102.741651"/>
      </g>
     </g>
    </g>
    <g id="ytick_11">
     <g id="line2d_31">
      <g>
       <use style="stroke:#000000;stroke-width:0.8;" x="318.361125" xlink:href="#m415ab7e14c" y="64.36687"/>
      </g>
     </g>
    </g>
    <g id="ytick_12">
     <g id="line2d_32">
      <g>
       <use style="stroke:#000000;stroke-width:0.8;" x="318.361125" xlink:href="#m415ab7e14c" y="25.992088"/>
      </g>
     </g>
    </g>
   </g>
   <g id="line2d_33">
    <path clip-path="url(#paefd574932)" d="M 321.91958 102.741651 
L 393.08867 102.741651 
L 393.08867 102.741651 
" style="fill:none;stroke:#000000;stroke-linecap:square;stroke-width:0.5;"/>
   </g>
   <g id="line2d_34">
    <path clip-path="url(#paefd574932)" d="M 321.91958 49.8762 
L 322.943595 51.05397 
L 323.455603 52.058184 
L 323.967611 53.839418 
L 324.991627 58.813177 
L 328.575682 76.763995 
L 329.599697 80.058072 
L 330.623713 82.143553 
L 331.647729 83.373773 
L 332.159737 83.722412 
L 332.671744 83.864239 
L 333.183752 83.889622 
L 333.69576 83.728708 
L 334.719776 84.198153 
L 335.231784 84.358712 
L 336.255799 84.328881 
L 338.303831 84.295686 
L 339.327846 83.725863 
L 339.839854 83.437327 
L 340.86387 83.970037 
L 341.375878 83.944286 
L 342.399893 84.151347 
L 342.911901 84.809281 
L 344.959933 85.482484 
L 346.495956 85.60311 
L 348.03198 86.425933 
L 350.592019 87.003414 
L 351.104027 87.352125 
L 351.616035 87.457703 
L 352.128043 87.382533 
L 353.152058 87.767306 
L 357.248121 89.906479 
L 358.272137 89.862073 
L 358.784145 90.176478 
L 361.856192 91.000752 
L 362.3682 91.086291 
L 363.392215 91.485775 
L 364.928239 91.72425 
L 367.488278 92.819623 
L 369.024302 93.315187 
L 370.048317 93.493843 
L 370.560325 93.589564 
L 371.072333 93.568294 
L 371.584341 93.4239 
L 373.120364 93.718254 
L 375.168396 93.612489 
L 375.680404 93.647053 
L 376.704419 94.042148 
L 378.752451 93.978562 
L 379.264459 93.872571 
L 380.800482 94.385678 
L 381.824498 94.432375 
L 382.848513 94.503286 
L 383.872529 94.363706 
L 384.384537 94.261197 
L 386.432568 94.403225 
L 387.456584 94.410664 
L 387.968592 94.502579 
L 390.528631 94.171534 
L 391.040639 94.29999 
L 392.064655 94.113125 
L 392.576663 94.193704 
L 393.08867 94.140324 
L 393.08867 94.140324 
" style="fill:none;stroke:#d62728;stroke-linecap:square;stroke-width:1.5;"/>
   </g>
   <g id="line2d_35">
    <path clip-path="url(#paefd574932)" d="M 322.431587 12.676 
L 322.943595 13.547367 
L 323.455603 15.088766 
L 323.967611 17.637922 
L 324.479619 20.76683 
L 327.551666 43.392322 
L 328.575682 49.779701 
L 329.599697 54.264089 
L 330.623713 57.00407 
L 331.135721 57.733452 
L 331.647729 58.183625 
L 332.159737 58.275409 
L 332.671744 57.895098 
L 333.183752 57.269555 
L 333.69576 56.18943 
L 334.207768 55.651738 
L 335.743791 53.309383 
L 336.255799 52.854902 
L 336.767807 52.122427 
L 337.791823 51.425959 
L 339.327846 49.663846 
L 339.839854 48.891824 
L 340.351862 49.015879 
L 340.86387 48.874496 
L 341.375878 48.435343 
L 342.399893 48.654487 
L 342.911901 50.999374 
L 346.495956 53.431916 
L 347.519972 54.945112 
L 349.055996 56.365047 
L 350.080011 57.126752 
L 350.592019 57.237595 
L 351.104027 58.218874 
L 351.616035 58.607056 
L 352.128043 58.731254 
L 353.664066 60.298537 
L 354.176074 60.907216 
L 355.20009 63.304364 
L 356.224105 64.41333 
L 356.736113 65.630777 
L 357.248121 66.115339 
L 357.760129 66.22986 
L 358.272137 66.541295 
L 358.784145 67.631885 
L 360.320168 68.904114 
L 362.3682 70.443148 
L 363.392215 71.53067 
L 364.416231 72.242613 
L 364.928239 72.637561 
L 365.440247 73.512981 
L 365.952254 74.101965 
L 366.97627 75.505317 
L 369.024302 77.943935 
L 369.536309 78.26687 
L 370.048317 78.852286 
L 370.560325 79.220778 
L 371.072333 79.445319 
L 371.584341 79.364322 
L 372.096349 79.913993 
L 373.120364 80.524963 
L 374.14438 80.654784 
L 374.656388 80.768518 
L 375.168396 80.584364 
L 375.680404 80.715836 
L 376.704419 83.155619 
L 377.216427 83.221088 
L 377.728435 83.13768 
L 378.240443 83.233895 
L 378.752451 83.203297 
L 379.264459 82.731202 
L 380.800482 83.610203 
L 381.31249 83.68305 
L 381.824498 83.62987 
L 382.336506 83.693059 
L 382.848513 83.583217 
L 383.360521 83.664642 
L 384.384537 82.962575 
L 384.896545 83.045653 
L 385.408553 82.754339 
L 386.432568 82.661719 
L 386.944576 82.463184 
L 387.456584 82.526648 
L 387.968592 82.843471 
L 389.504616 81.868234 
L 390.016623 81.349686 
L 390.528631 81.299924 
L 391.040639 81.544926 
L 392.064655 80.994633 
L 392.576663 81.244243 
L 393.08867 80.983631 
L 393.08867 80.983631 
" style="fill:none;stroke:#d62728;stroke-dasharray:5.55,2.4;stroke-dashoffset:0;stroke-width:1.5;"/>
   </g>
   <g id="line2d_36">
    <path clip-path="url(#paefd574932)" d="M 322.431587 88.350719 
L 322.943595 88.560573 
L 323.455603 89.027602 
L 323.967611 90.040914 
L 327.551666 100.544755 
L 328.575682 103.748288 
L 329.087689 105.000382 
L 330.111705 106.593791 
L 332.159737 109.169415 
L 333.69576 111.267986 
L 335.231784 114.597553 
L 336.767807 116.567714 
L 337.791823 117.315099 
L 338.303831 117.729279 
L 339.327846 117.787879 
L 339.839854 117.98283 
L 340.351862 118.360704 
L 340.86387 119.065579 
L 341.375878 119.453229 
L 342.399893 119.648207 
L 342.911901 118.619188 
L 344.959933 118.558965 
L 345.983948 118.037869 
L 346.495956 117.774304 
L 348.03198 117.400147 
L 349.055996 117.039948 
L 350.592019 116.769233 
L 352.128043 116.033813 
L 353.152058 115.742793 
L 353.664066 115.783951 
L 354.176074 115.534034 
L 355.20009 114.648505 
L 356.224105 114.392714 
L 356.736113 113.812511 
L 357.248121 113.697619 
L 358.272137 113.182852 
L 358.784145 112.721071 
L 359.80816 112.517201 
L 363.392215 111.440879 
L 364.928239 110.810939 
L 365.440247 110.412533 
L 365.952254 110.252183 
L 367.488278 109.524185 
L 368.512294 109.039206 
L 369.536309 108.437198 
L 370.560325 107.958351 
L 372.096349 107.137637 
L 374.656388 106.617951 
L 375.680404 106.578269 
L 376.704419 104.928677 
L 378.240443 104.808944 
L 378.752451 104.753828 
L 379.264459 105.013939 
L 379.776466 105.014085 
L 380.288474 105.187547 
L 381.31249 105.045692 
L 382.336506 105.314983 
L 382.848513 105.423355 
L 383.360521 105.257409 
L 387.456584 106.294679 
L 387.968592 106.161686 
L 390.528631 107.043143 
L 391.552647 107.122459 
L 392.064655 107.231618 
L 392.576663 107.143165 
L 393.08867 107.297017 
L 393.08867 107.297017 
" style="fill:none;stroke:#d62728;stroke-dasharray:5.55,2.4;stroke-dashoffset:0;stroke-width:1.5;"/>
   </g>
   <g id="patch_18">
    <path d="M 318.361125 127.672 
L 318.361125 7.2 
" style="fill:none;stroke:#000000;stroke-linecap:square;stroke-linejoin:miter;stroke-width:0.8;"/>
   </g>
   <g id="patch_19">
    <path d="M 396.647125 127.672 
L 396.647125 7.2 
" style="fill:none;stroke:#000000;stroke-linecap:square;stroke-linejoin:miter;stroke-width:0.8;"/>
   </g>
   <g id="patch_20">
    <path d="M 318.361125 127.672 
L 396.647125 127.672 
" style="fill:none;stroke:#000000;stroke-linecap:square;stroke-linejoin:miter;stroke-width:0.8;"/>
   </g>
   <g id="patch_21">
    <path d="M 318.361125 7.2 
L 396.647125 7.2 
" style="fill:none;stroke:#000000;stroke-linecap:square;stroke-linejoin:miter;stroke-width:0.8;"/>
   </g>
  </g>
  <g id="axes_5">
   <g id="patch_22">
    <path d="M 410.947125 127.672 
L 489.233125 127.672 
L 489.233125 7.2 
L 410.947125 7.2 
z
" style="fill:#ffffff;"/>
   </g>
   <g id="matplotlib.axis_9">
    <g id="xtick_9">
     <g id="line2d_37">
      <g>
       <use style="stroke:#000000;stroke-width:0.8;" x="414.50558" xlink:href="#m5cbbdbf136" y="127.672"/>
      </g>
     </g>
     <g id="text_14">
      <!-- 0 -->
      <g transform="translate(411.32433 142.270438)scale(0.1 -0.1)">
       <use xlink:href="#DejaVuSans-48"/>
      </g>
     </g>
    </g>
    <g id="xtick_10">
     <g id="line2d_38">
      <g>
       <use style="stroke:#000000;stroke-width:0.8;" x="465.706364" xlink:href="#m5cbbdbf136" y="127.672"/>
      </g>
     </g>
     <g id="text_15">
      <!-- 10 -->
      <g transform="translate(459.343864 142.270438)scale(0.1 -0.1)">
       <use xlink:href="#DejaVuSans-49"/>
       <use x="63.623047" xlink:href="#DejaVuSans-48"/>
      </g>
     </g>
    </g>
   </g>
   <g id="matplotlib.axis_10">
    <g id="ytick_13">
     <g id="line2d_39">
      <g>
       <use style="stroke:#000000;stroke-width:0.8;" x="410.947125" xlink:href="#m415ab7e14c" y="102.741651"/>
      </g>
     </g>
    </g>
    <g id="ytick_14">
     <g id="line2d_40">
      <g>
       <use style="stroke:#000000;stroke-width:0.8;" x="410.947125" xlink:href="#m415ab7e14c" y="64.36687"/>
      </g>
     </g>
    </g>
    <g id="ytick_15">
     <g id="line2d_41">
      <g>
       <use style="stroke:#000000;stroke-width:0.8;" x="410.947125" xlink:href="#m415ab7e14c" y="25.992088"/>
      </g>
     </g>
    </g>
   </g>
   <g id="line2d_42">
    <path clip-path="url(#p59751e9d79)" d="M 414.50558 102.741651 
L 485.67467 102.741651 
L 485.67467 102.741651 
" style="fill:none;stroke:#000000;stroke-linecap:square;stroke-width:0.5;"/>
   </g>
   <g id="line2d_43">
    <path clip-path="url(#p59751e9d79)" d="M 414.50558 49.876426 
L 416.041603 53.046598 
L 417.065619 57.082569 
L 418.089634 62.250852 
L 421.161682 79.53948 
L 421.673689 81.50175 
L 422.185697 82.884108 
L 422.697705 83.684661 
L 423.209713 83.944812 
L 423.721721 83.739597 
L 424.233729 83.050912 
L 426.793768 78.149009 
L 427.817784 76.860016 
L 428.329791 76.107232 
L 428.841799 75.638642 
L 429.353807 75.395179 
L 430.377823 75.394063 
L 430.889831 76.04138 
L 431.401839 75.955139 
L 431.913846 76.270094 
L 432.425854 76.867452 
L 432.937862 77.07509 
L 433.44987 77.576876 
L 433.961878 77.741321 
L 434.473886 78.743736 
L 435.497901 79.832968 
L 436.009909 80.633006 
L 437.545933 81.981458 
L 438.057941 82.038806 
L 439.081956 82.711944 
L 439.593964 82.901204 
L 440.105972 82.92519 
L 440.61798 83.115816 
L 442.154003 84.302454 
L 443.178019 85.499654 
L 443.690027 85.549867 
L 444.202035 86.149348 
L 445.22605 86.835493 
L 448.810105 88.70109 
L 449.322113 88.764435 
L 450.346129 89.334108 
L 450.858137 89.352996 
L 452.39416 89.733825 
L 453.418176 89.969479 
L 454.9542 90.90687 
L 455.978215 91.205121 
L 457.002231 91.033488 
L 457.514239 91.140647 
L 458.026247 91.467835 
L 459.050262 91.785656 
L 460.074278 91.874338 
L 460.586286 92.220036 
L 461.610302 92.498232 
L 462.122309 92.503632 
L 466.218372 93.987337 
L 466.73038 93.998314 
L 467.754396 94.395149 
L 468.266404 94.463324 
L 468.778411 94.415982 
L 469.802427 94.814565 
L 470.314435 94.72295 
L 470.826443 94.749889 
L 471.338451 94.897729 
L 471.850459 94.864034 
L 472.362466 94.632886 
L 472.874474 95.031523 
L 473.89849 95.257264 
L 474.922506 95.185356 
L 475.434513 95.06411 
L 476.458529 95.280265 
L 477.482545 95.850406 
L 478.506561 95.872781 
L 479.530576 95.97766 
L 480.042584 96.153769 
L 480.554592 96.118431 
L 481.578608 96.307065 
L 483.114631 96.355913 
L 485.67467 96.096128 
L 485.67467 96.096128 
" style="fill:none;stroke:#1f77b4;stroke-linecap:square;stroke-width:1.5;"/>
   </g>
   <g id="line2d_44">
    <path clip-path="url(#p59751e9d79)" d="M 414.50558 102.741651 
L 485.67467 102.741651 
L 485.67467 102.741651 
" style="fill:none;stroke:#000000;stroke-linecap:square;stroke-width:0.5;"/>
   </g>
   <g id="line2d_45">
    <path clip-path="url(#p59751e9d79)" d="M 414.50558 49.876158 
L 415.529595 51.251794 
L 416.041603 52.528771 
L 417.065619 57.207717 
L 419.11365 68.083445 
L 420.649674 74.630627 
L 421.161682 76.05204 
L 421.673689 76.982947 
L 422.185697 77.588611 
L 422.697705 77.899971 
L 423.209713 78.067729 
L 424.233729 77.907629 
L 424.745737 77.506435 
L 425.769752 76.277413 
L 426.28176 75.926134 
L 427.305776 75.512386 
L 427.817784 75.214009 
L 428.841799 74.493457 
L 431.401839 72.573866 
L 432.425854 72.065113 
L 432.937862 72.008873 
L 433.44987 72.096229 
L 433.961878 72.453971 
L 434.985893 72.85223 
L 435.497901 73.305215 
L 436.009909 73.449036 
L 436.521917 73.842996 
L 437.545933 73.686975 
L 438.057941 74.354895 
L 438.569948 74.591106 
L 440.61798 74.896197 
L 441.129988 75.344015 
L 443.178019 75.893201 
L 445.22605 76.320722 
L 445.738058 76.535666 
L 446.762074 77.290261 
L 449.834121 78.39771 
L 451.370145 78.536261 
L 451.882152 78.871426 
L 452.39416 79.499849 
L 454.9542 80.11907 
L 455.978215 80.283683 
L 459.050262 81.05448 
L 460.586286 81.14971 
L 461.098294 81.308898 
L 461.610302 81.64121 
L 462.122309 81.590886 
L 463.146325 81.118481 
L 463.658333 81.312119 
L 464.682349 81.249708 
L 465.706364 81.395087 
L 466.218372 81.503232 
L 466.73038 81.398215 
L 470.314435 81.602608 
L 471.338451 81.858661 
L 472.874474 81.775885 
L 473.386482 81.995452 
L 474.410498 81.979526 
L 475.434513 82.181012 
L 475.946521 82.115793 
L 476.458529 82.402083 
L 476.970537 82.407166 
L 477.994553 82.560825 
L 478.506561 82.489013 
L 479.018568 82.630512 
L 480.554592 82.395137 
L 482.090616 82.066816 
L 483.114631 82.17972 
L 483.626639 82.033707 
L 484.650655 82.142167 
L 485.67467 82.719066 
L 485.67467 82.719066 
" style="fill:none;stroke:#ff7f0e;stroke-linecap:square;stroke-width:1.5;"/>
   </g>
   <g id="line2d_46">
    <path clip-path="url(#p59751e9d79)" d="M 414.50558 102.741651 
L 485.67467 102.741651 
L 485.67467 102.741651 
" style="fill:none;stroke:#000000;stroke-linecap:square;stroke-width:0.5;"/>
   </g>
   <g id="line2d_47">
    <path clip-path="url(#p59751e9d79)" d="M 414.50558 49.877102 
L 415.529595 51.057298 
L 416.041603 52.046246 
L 416.553611 53.730735 
L 417.577627 58.53113 
L 421.161682 76.602647 
L 422.185697 79.752215 
L 423.209713 82.009553 
L 423.721721 82.824118 
L 424.745737 83.884597 
L 425.257744 84.038461 
L 426.28176 83.806434 
L 426.793768 84.089385 
L 427.305776 84.237722 
L 430.377823 83.629391 
L 430.889831 83.472375 
L 431.401839 83.692996 
L 432.425854 82.991711 
L 434.473886 83.741917 
L 434.985893 83.780398 
L 436.009909 84.182434 
L 436.521917 84.679247 
L 437.033925 84.829664 
L 438.569948 84.767421 
L 439.593964 85.057984 
L 441.129988 85.370497 
L 444.202035 86.201248 
L 444.714043 86.099504 
L 445.22605 86.200407 
L 446.762074 86.910877 
L 447.274082 87.269623 
L 450.346129 88.385695 
L 450.858137 88.474617 
L 451.370145 88.426297 
L 451.882152 88.719301 
L 453.418176 88.97947 
L 454.9542 89.303451 
L 455.978215 89.607764 
L 457.002231 89.79706 
L 457.514239 89.878695 
L 458.026247 90.118202 
L 458.538254 90.187367 
L 459.050262 90.400505 
L 460.074278 91.097416 
L 460.586286 91.224469 
L 462.634317 90.98008 
L 464.682349 90.241398 
L 465.706364 90.353313 
L 466.73038 90.314927 
L 471.850459 91.04803 
L 474.410498 91.967305 
L 474.922506 92.008248 
L 475.946521 92.342619 
L 477.482545 92.204306 
L 479.018568 92.56097 
L 480.042584 92.339211 
L 481.0666 92.328105 
L 482.602623 92.102211 
L 484.138647 92.424966 
L 485.67467 92.193802 
L 485.67467 92.193802 
" style="fill:none;stroke:#2ca02c;stroke-linecap:square;stroke-width:1.5;"/>
   </g>
   <g id="line2d_48">
    <path clip-path="url(#p59751e9d79)" d="M 414.50558 102.741651 
L 485.67467 102.741651 
L 485.67467 102.741651 
" style="fill:none;stroke:#000000;stroke-linecap:square;stroke-width:0.5;"/>
   </g>
   <g id="line2d_49">
    <path clip-path="url(#p59751e9d79)" d="M 414.50558 49.8762 
L 415.529595 51.05397 
L 416.041603 52.058184 
L 416.553611 53.839418 
L 417.577627 58.813177 
L 421.161682 76.763995 
L 422.185697 80.058072 
L 423.209713 82.143553 
L 424.233729 83.373773 
L 424.745737 83.722412 
L 425.257744 83.864239 
L 425.769752 83.889622 
L 426.28176 83.728708 
L 427.305776 84.198153 
L 427.817784 84.358712 
L 428.841799 84.328881 
L 430.889831 84.295686 
L 431.913846 83.725863 
L 432.425854 83.437327 
L 433.44987 83.970037 
L 433.961878 83.944286 
L 434.985893 84.151347 
L 435.497901 84.809281 
L 437.545933 85.482484 
L 439.081956 85.60311 
L 440.61798 86.425933 
L 443.178019 87.003414 
L 443.690027 87.352125 
L 444.202035 87.457703 
L 444.714043 87.382533 
L 445.738058 87.767306 
L 449.834121 89.906479 
L 450.858137 89.862073 
L 451.370145 90.176478 
L 454.442192 91.000752 
L 454.9542 91.086291 
L 455.978215 91.485775 
L 457.514239 91.72425 
L 460.074278 92.819623 
L 461.610302 93.315187 
L 462.634317 93.493843 
L 463.146325 93.589564 
L 463.658333 93.568294 
L 464.170341 93.4239 
L 465.706364 93.718254 
L 467.754396 93.612489 
L 468.266404 93.647053 
L 469.290419 94.042148 
L 471.338451 93.978562 
L 471.850459 93.872571 
L 473.386482 94.385678 
L 474.410498 94.432375 
L 475.434513 94.503286 
L 476.458529 94.363706 
L 476.970537 94.261197 
L 479.018568 94.403225 
L 480.042584 94.410664 
L 480.554592 94.502579 
L 483.114631 94.171534 
L 483.626639 94.29999 
L 484.650655 94.113125 
L 485.162663 94.193704 
L 485.67467 94.140324 
L 485.67467 94.140324 
" style="fill:none;stroke:#d62728;stroke-linecap:square;stroke-width:1.5;"/>
   </g>
   <g id="patch_23">
    <path d="M 410.947125 127.672 
L 410.947125 7.2 
" style="fill:none;stroke:#000000;stroke-linecap:square;stroke-linejoin:miter;stroke-width:0.8;"/>
   </g>
   <g id="patch_24">
    <path d="M 489.233125 127.672 
L 489.233125 7.2 
" style="fill:none;stroke:#000000;stroke-linecap:square;stroke-linejoin:miter;stroke-width:0.8;"/>
   </g>
   <g id="patch_25">
    <path d="M 410.947125 127.672 
L 489.233125 127.672 
" style="fill:none;stroke:#000000;stroke-linecap:square;stroke-linejoin:miter;stroke-width:0.8;"/>
   </g>
   <g id="patch_26">
    <path d="M 410.947125 7.2 
L 489.233125 7.2 
" style="fill:none;stroke:#000000;stroke-linecap:square;stroke-linejoin:miter;stroke-width:0.8;"/>
   </g>
  </g>
 </g>
 <defs>
  <clipPath id="p69e71bf49e">
   <rect height="120.472" width="78.286" x="40.603125" y="7.2"/>
  </clipPath>
  <clipPath id="pbfdf880e30">
   <rect height="120.472" width="78.286" x="133.189125" y="7.2"/>
  </clipPath>
  <clipPath id="pa79b761dbd">
   <rect height="120.472" width="78.286" x="225.775125" y="7.2"/>
  </clipPath>
  <clipPath id="paefd574932">
   <rect height="120.472" width="78.286" x="318.361125" y="7.2"/>
  </clipPath>
  <clipPath id="p59751e9d79">
   <rect height="120.472" width="78.286" x="410.947125" y="7.2"/>
  </clipPath>
 </defs>
</svg>
