<?xml version="1.0" encoding="utf-8" standalone="no"?>
<!DOCTYPE svg PUBLIC "-//W3C//DTD SVG 1.1//EN"
  "http://www.w3.org/Graphics/SVG/1.1/DTD/svg11.dtd">
<!-- Created with matplotlib (https://matplotlib.org/) -->
<svg height="279.99625pt" version="1.1" viewBox="0 0 568.433125 279.99625" width="568.433125pt" xmlns="http://www.w3.org/2000/svg" xmlns:xlink="http://www.w3.org/1999/xlink">
 <metadata>
  <rdf:RDF xmlns:cc="http://creativecommons.org/ns#" xmlns:dc="http://purl.org/dc/elements/1.1/" xmlns:rdf="http://www.w3.org/1999/02/22-rdf-syntax-ns#">
   <cc:Work>
    <dc:type rdf:resource="http://purl.org/dc/dcmitype/StillImage"/>
    <dc:date>2022-08-03T00:02:44.324698</dc:date>
    <dc:format>image/svg+xml</dc:format>
    <dc:creator>
     <cc:Agent>
      <dc:title>Matplotlib v3.3.0, https://matplotlib.org/</dc:title>
     </cc:Agent>
    </dc:creator>
   </cc:Work>
  </rdf:RDF>
 </metadata>
 <defs>
  <style type="text/css">*{stroke-linecap:butt;stroke-linejoin:round;}</style>
 </defs>
 <g id="figure_1">
  <g id="patch_1">
   <path d="M 0 279.99625 
L 568.433125 279.99625 
L 568.433125 0 
L 0 0 
z
" style="fill:#ffffff;"/>
  </g>
  <g id="axes_1">
   <g id="patch_2">
    <path d="M 40.603125 242.44 
L 275.849283 242.44 
L 275.849283 7.2 
L 40.603125 7.2 
z
" style="fill:#ffffff;"/>
   </g>
   <g id="matplotlib.axis_1">
    <g id="xtick_1">
     <g id="line2d_1">
      <defs>
       <path d="M 0 0 
L 0 3.5 
" id="m2d2dd0307c" style="stroke:#000000;stroke-width:0.8;"/>
      </defs>
      <g>
       <use style="stroke:#000000;stroke-width:0.8;" x="51.296132" xlink:href="#m2d2dd0307c" y="242.44"/>
      </g>
     </g>
     <g id="text_1">
      <!-- 0.0 -->
      <g transform="translate(43.34457 257.038438)scale(0.1 -0.1)">
       <defs>
        <path d="M 31.78125 66.40625 
Q 24.171875 66.40625 20.328125 58.90625 
Q 16.5 51.421875 16.5 36.375 
Q 16.5 21.390625 20.328125 13.890625 
Q 24.171875 6.390625 31.78125 6.390625 
Q 39.453125 6.390625 43.28125 13.890625 
Q 47.125 21.390625 47.125 36.375 
Q 47.125 51.421875 43.28125 58.90625 
Q 39.453125 66.40625 31.78125 66.40625 
z
M 31.78125 74.21875 
Q 44.046875 74.21875 50.515625 64.515625 
Q 56.984375 54.828125 56.984375 36.375 
Q 56.984375 17.96875 50.515625 8.265625 
Q 44.046875 -1.421875 31.78125 -1.421875 
Q 19.53125 -1.421875 13.0625 8.265625 
Q 6.59375 17.96875 6.59375 36.375 
Q 6.59375 54.828125 13.0625 64.515625 
Q 19.53125 74.21875 31.78125 74.21875 
z
" id="DejaVuSans-48"/>
        <path d="M 10.6875 12.40625 
L 21 12.40625 
L 21 0 
L 10.6875 0 
z
" id="DejaVuSans-46"/>
       </defs>
       <use xlink:href="#DejaVuSans-48"/>
       <use x="63.623047" xlink:href="#DejaVuSans-46"/>
       <use x="95.410156" xlink:href="#DejaVuSans-48"/>
      </g>
     </g>
    </g>
    <g id="xtick_2">
     <g id="line2d_2">
      <g>
       <use style="stroke:#000000;stroke-width:0.8;" x="89.760187" xlink:href="#m2d2dd0307c" y="242.44"/>
      </g>
     </g>
     <g id="text_2">
      <!-- 2.5 -->
      <g transform="translate(81.808624 257.038438)scale(0.1 -0.1)">
       <defs>
        <path d="M 19.1875 8.296875 
L 53.609375 8.296875 
L 53.609375 0 
L 7.328125 0 
L 7.328125 8.296875 
Q 12.9375 14.109375 22.625 23.890625 
Q 32.328125 33.6875 34.8125 36.53125 
Q 39.546875 41.84375 41.421875 45.53125 
Q 43.3125 49.21875 43.3125 52.78125 
Q 43.3125 58.59375 39.234375 62.25 
Q 35.15625 65.921875 28.609375 65.921875 
Q 23.96875 65.921875 18.8125 64.3125 
Q 13.671875 62.703125 7.8125 59.421875 
L 7.8125 69.390625 
Q 13.765625 71.78125 18.9375 73 
Q 24.125 74.21875 28.421875 74.21875 
Q 39.75 74.21875 46.484375 68.546875 
Q 53.21875 62.890625 53.21875 53.421875 
Q 53.21875 48.921875 51.53125 44.890625 
Q 49.859375 40.875 45.40625 35.40625 
Q 44.1875 33.984375 37.640625 27.21875 
Q 31.109375 20.453125 19.1875 8.296875 
z
" id="DejaVuSans-50"/>
        <path d="M 10.796875 72.90625 
L 49.515625 72.90625 
L 49.515625 64.59375 
L 19.828125 64.59375 
L 19.828125 46.734375 
Q 21.96875 47.46875 24.109375 47.828125 
Q 26.265625 48.1875 28.421875 48.1875 
Q 40.625 48.1875 47.75 41.5 
Q 54.890625 34.8125 54.890625 23.390625 
Q 54.890625 11.625 47.5625 5.09375 
Q 40.234375 -1.421875 26.90625 -1.421875 
Q 22.3125 -1.421875 17.546875 -0.640625 
Q 12.796875 0.140625 7.71875 1.703125 
L 7.71875 11.625 
Q 12.109375 9.234375 16.796875 8.0625 
Q 21.484375 6.890625 26.703125 6.890625 
Q 35.15625 6.890625 40.078125 11.328125 
Q 45.015625 15.765625 45.015625 23.390625 
Q 45.015625 31 40.078125 35.4375 
Q 35.15625 39.890625 26.703125 39.890625 
Q 22.75 39.890625 18.8125 39.015625 
Q 14.890625 38.140625 10.796875 36.28125 
z
" id="DejaVuSans-53"/>
       </defs>
       <use xlink:href="#DejaVuSans-50"/>
       <use x="63.623047" xlink:href="#DejaVuSans-46"/>
       <use x="95.410156" xlink:href="#DejaVuSans-53"/>
      </g>
     </g>
    </g>
    <g id="xtick_3">
     <g id="line2d_3">
      <g>
       <use style="stroke:#000000;stroke-width:0.8;" x="128.224241" xlink:href="#m2d2dd0307c" y="242.44"/>
      </g>
     </g>
     <g id="text_3">
      <!-- 5.0 -->
      <g transform="translate(120.272679 257.038438)scale(0.1 -0.1)">
       <use xlink:href="#DejaVuSans-53"/>
       <use x="63.623047" xlink:href="#DejaVuSans-46"/>
       <use x="95.410156" xlink:href="#DejaVuSans-48"/>
      </g>
     </g>
    </g>
    <g id="xtick_4">
     <g id="line2d_4">
      <g>
       <use style="stroke:#000000;stroke-width:0.8;" x="166.688296" xlink:href="#m2d2dd0307c" y="242.44"/>
      </g>
     </g>
     <g id="text_4">
      <!-- 7.5 -->
      <g transform="translate(158.736733 257.038438)scale(0.1 -0.1)">
       <defs>
        <path d="M 8.203125 72.90625 
L 55.078125 72.90625 
L 55.078125 68.703125 
L 28.609375 0 
L 18.3125 0 
L 43.21875 64.59375 
L 8.203125 64.59375 
z
" id="DejaVuSans-55"/>
       </defs>
       <use xlink:href="#DejaVuSans-55"/>
       <use x="63.623047" xlink:href="#DejaVuSans-46"/>
       <use x="95.410156" xlink:href="#DejaVuSans-53"/>
      </g>
     </g>
    </g>
    <g id="xtick_5">
     <g id="line2d_5">
      <g>
       <use style="stroke:#000000;stroke-width:0.8;" x="205.15235" xlink:href="#m2d2dd0307c" y="242.44"/>
      </g>
     </g>
     <g id="text_5">
      <!-- 10.0 -->
      <g transform="translate(194.019538 257.038438)scale(0.1 -0.1)">
       <defs>
        <path d="M 12.40625 8.296875 
L 28.515625 8.296875 
L 28.515625 63.921875 
L 10.984375 60.40625 
L 10.984375 69.390625 
L 28.421875 72.90625 
L 38.28125 72.90625 
L 38.28125 8.296875 
L 54.390625 8.296875 
L 54.390625 0 
L 12.40625 0 
z
" id="DejaVuSans-49"/>
       </defs>
       <use xlink:href="#DejaVuSans-49"/>
       <use x="63.623047" xlink:href="#DejaVuSans-48"/>
       <use x="127.246094" xlink:href="#DejaVuSans-46"/>
       <use x="159.033203" xlink:href="#DejaVuSans-48"/>
      </g>
     </g>
    </g>
    <g id="xtick_6">
     <g id="line2d_6">
      <g>
       <use style="stroke:#000000;stroke-width:0.8;" x="243.616405" xlink:href="#m2d2dd0307c" y="242.44"/>
      </g>
     </g>
     <g id="text_6">
      <!-- 12.5 -->
      <g transform="translate(232.483592 257.038438)scale(0.1 -0.1)">
       <use xlink:href="#DejaVuSans-49"/>
       <use x="63.623047" xlink:href="#DejaVuSans-50"/>
       <use x="127.246094" xlink:href="#DejaVuSans-46"/>
       <use x="159.033203" xlink:href="#DejaVuSans-53"/>
      </g>
     </g>
    </g>
    <g id="text_7">
     <!-- Time (s) -->
     <g transform="translate(137.897298 270.716563)scale(0.1 -0.1)">
      <defs>
       <path d="M -0.296875 72.90625 
L 61.375 72.90625 
L 61.375 64.59375 
L 35.5 64.59375 
L 35.5 0 
L 25.59375 0 
L 25.59375 64.59375 
L -0.296875 64.59375 
z
" id="DejaVuSans-84"/>
       <path d="M 9.421875 54.6875 
L 18.40625 54.6875 
L 18.40625 0 
L 9.421875 0 
z
M 9.421875 75.984375 
L 18.40625 75.984375 
L 18.40625 64.59375 
L 9.421875 64.59375 
z
" id="DejaVuSans-105"/>
       <path d="M 52 44.1875 
Q 55.375 50.25 60.0625 53.125 
Q 64.75 56 71.09375 56 
Q 79.640625 56 84.28125 50.015625 
Q 88.921875 44.046875 88.921875 33.015625 
L 88.921875 0 
L 79.890625 0 
L 79.890625 32.71875 
Q 79.890625 40.578125 77.09375 44.375 
Q 74.3125 48.1875 68.609375 48.1875 
Q 61.625 48.1875 57.5625 43.546875 
Q 53.515625 38.921875 53.515625 30.90625 
L 53.515625 0 
L 44.484375 0 
L 44.484375 32.71875 
Q 44.484375 40.625 41.703125 44.40625 
Q 38.921875 48.1875 33.109375 48.1875 
Q 26.21875 48.1875 22.15625 43.53125 
Q 18.109375 38.875 18.109375 30.90625 
L 18.109375 0 
L 9.078125 0 
L 9.078125 54.6875 
L 18.109375 54.6875 
L 18.109375 46.1875 
Q 21.1875 51.21875 25.484375 53.609375 
Q 29.78125 56 35.6875 56 
Q 41.65625 56 45.828125 52.96875 
Q 50 49.953125 52 44.1875 
z
" id="DejaVuSans-109"/>
       <path d="M 56.203125 29.59375 
L 56.203125 25.203125 
L 14.890625 25.203125 
Q 15.484375 15.921875 20.484375 11.0625 
Q 25.484375 6.203125 34.421875 6.203125 
Q 39.59375 6.203125 44.453125 7.46875 
Q 49.3125 8.734375 54.109375 11.28125 
L 54.109375 2.78125 
Q 49.265625 0.734375 44.1875 -0.34375 
Q 39.109375 -1.421875 33.890625 -1.421875 
Q 20.796875 -1.421875 13.15625 6.1875 
Q 5.515625 13.8125 5.515625 26.8125 
Q 5.515625 40.234375 12.765625 48.109375 
Q 20.015625 56 32.328125 56 
Q 43.359375 56 49.78125 48.890625 
Q 56.203125 41.796875 56.203125 29.59375 
z
M 47.21875 32.234375 
Q 47.125 39.59375 43.09375 43.984375 
Q 39.0625 48.390625 32.421875 48.390625 
Q 24.90625 48.390625 20.390625 44.140625 
Q 15.875 39.890625 15.1875 32.171875 
z
" id="DejaVuSans-101"/>
       <path id="DejaVuSans-32"/>
       <path d="M 31 75.875 
Q 24.46875 64.65625 21.28125 53.65625 
Q 18.109375 42.671875 18.109375 31.390625 
Q 18.109375 20.125 21.3125 9.0625 
Q 24.515625 -2 31 -13.1875 
L 23.1875 -13.1875 
Q 15.875 -1.703125 12.234375 9.375 
Q 8.59375 20.453125 8.59375 31.390625 
Q 8.59375 42.28125 12.203125 53.3125 
Q 15.828125 64.359375 23.1875 75.875 
z
" id="DejaVuSans-40"/>
       <path d="M 44.28125 53.078125 
L 44.28125 44.578125 
Q 40.484375 46.53125 36.375 47.5 
Q 32.28125 48.484375 27.875 48.484375 
Q 21.1875 48.484375 17.84375 46.4375 
Q 14.5 44.390625 14.5 40.28125 
Q 14.5 37.15625 16.890625 35.375 
Q 19.28125 33.59375 26.515625 31.984375 
L 29.59375 31.296875 
Q 39.15625 29.25 43.1875 25.515625 
Q 47.21875 21.78125 47.21875 15.09375 
Q 47.21875 7.46875 41.1875 3.015625 
Q 35.15625 -1.421875 24.609375 -1.421875 
Q 20.21875 -1.421875 15.453125 -0.5625 
Q 10.6875 0.296875 5.421875 2 
L 5.421875 11.28125 
Q 10.40625 8.6875 15.234375 7.390625 
Q 20.0625 6.109375 24.8125 6.109375 
Q 31.15625 6.109375 34.5625 8.28125 
Q 37.984375 10.453125 37.984375 14.40625 
Q 37.984375 18.0625 35.515625 20.015625 
Q 33.0625 21.96875 24.703125 23.78125 
L 21.578125 24.515625 
Q 13.234375 26.265625 9.515625 29.90625 
Q 5.8125 33.546875 5.8125 39.890625 
Q 5.8125 47.609375 11.28125 51.796875 
Q 16.75 56 26.8125 56 
Q 31.78125 56 36.171875 55.265625 
Q 40.578125 54.546875 44.28125 53.078125 
z
" id="DejaVuSans-115"/>
       <path d="M 8.015625 75.875 
L 15.828125 75.875 
Q 23.140625 64.359375 26.78125 53.3125 
Q 30.421875 42.28125 30.421875 31.390625 
Q 30.421875 20.453125 26.78125 9.375 
Q 23.140625 -1.703125 15.828125 -13.1875 
L 8.015625 -13.1875 
Q 14.5 -2 17.703125 9.0625 
Q 20.90625 20.125 20.90625 31.390625 
Q 20.90625 42.671875 17.703125 53.65625 
Q 14.5 64.65625 8.015625 75.875 
z
" id="DejaVuSans-41"/>
      </defs>
      <use xlink:href="#DejaVuSans-84"/>
      <use x="57.958984" xlink:href="#DejaVuSans-105"/>
      <use x="85.742188" xlink:href="#DejaVuSans-109"/>
      <use x="183.154297" xlink:href="#DejaVuSans-101"/>
      <use x="244.677734" xlink:href="#DejaVuSans-32"/>
      <use x="276.464844" xlink:href="#DejaVuSans-40"/>
      <use x="315.478516" xlink:href="#DejaVuSans-115"/>
      <use x="367.578125" xlink:href="#DejaVuSans-41"/>
     </g>
    </g>
   </g>
   <g id="matplotlib.axis_2">
    <g id="ytick_1">
     <g id="line2d_7">
      <defs>
       <path d="M 0 0 
L -3.5 0 
" id="mbae39494cd" style="stroke:#000000;stroke-width:0.8;"/>
      </defs>
      <g>
       <use style="stroke:#000000;stroke-width:0.8;" x="40.603125" xlink:href="#mbae39494cd" y="231.747273"/>
      </g>
     </g>
     <g id="text_8">
      <!-- 0 -->
      <g transform="translate(27.240625 235.546491)scale(0.1 -0.1)">
       <use xlink:href="#DejaVuSans-48"/>
      </g>
     </g>
    </g>
    <g id="ytick_2">
     <g id="line2d_8">
      <g>
       <use style="stroke:#000000;stroke-width:0.8;" x="40.603125" xlink:href="#mbae39494cd" y="204.855859"/>
      </g>
     </g>
     <g id="text_9">
      <!-- 5 -->
      <g transform="translate(27.240625 208.655078)scale(0.1 -0.1)">
       <use xlink:href="#DejaVuSans-53"/>
      </g>
     </g>
    </g>
    <g id="ytick_3">
     <g id="line2d_9">
      <g>
       <use style="stroke:#000000;stroke-width:0.8;" x="40.603125" xlink:href="#mbae39494cd" y="177.964446"/>
      </g>
     </g>
     <g id="text_10">
      <!-- 10 -->
      <g transform="translate(20.878125 181.763665)scale(0.1 -0.1)">
       <use xlink:href="#DejaVuSans-49"/>
       <use x="63.623047" xlink:href="#DejaVuSans-48"/>
      </g>
     </g>
    </g>
    <g id="ytick_4">
     <g id="line2d_10">
      <g>
       <use style="stroke:#000000;stroke-width:0.8;" x="40.603125" xlink:href="#mbae39494cd" y="151.073033"/>
      </g>
     </g>
     <g id="text_11">
      <!-- 15 -->
      <g transform="translate(20.878125 154.872251)scale(0.1 -0.1)">
       <use xlink:href="#DejaVuSans-49"/>
       <use x="63.623047" xlink:href="#DejaVuSans-53"/>
      </g>
     </g>
    </g>
    <g id="ytick_5">
     <g id="line2d_11">
      <g>
       <use style="stroke:#000000;stroke-width:0.8;" x="40.603125" xlink:href="#mbae39494cd" y="124.181619"/>
      </g>
     </g>
     <g id="text_12">
      <!-- 20 -->
      <g transform="translate(20.878125 127.980838)scale(0.1 -0.1)">
       <use xlink:href="#DejaVuSans-50"/>
       <use x="63.623047" xlink:href="#DejaVuSans-48"/>
      </g>
     </g>
    </g>
    <g id="ytick_6">
     <g id="line2d_12">
      <g>
       <use style="stroke:#000000;stroke-width:0.8;" x="40.603125" xlink:href="#mbae39494cd" y="97.290206"/>
      </g>
     </g>
     <g id="text_13">
      <!-- 25 -->
      <g transform="translate(20.878125 101.089425)scale(0.1 -0.1)">
       <use xlink:href="#DejaVuSans-50"/>
       <use x="63.623047" xlink:href="#DejaVuSans-53"/>
      </g>
     </g>
    </g>
    <g id="ytick_7">
     <g id="line2d_13">
      <g>
       <use style="stroke:#000000;stroke-width:0.8;" x="40.603125" xlink:href="#mbae39494cd" y="70.398793"/>
      </g>
     </g>
     <g id="text_14">
      <!-- 30 -->
      <g transform="translate(20.878125 74.198011)scale(0.1 -0.1)">
       <defs>
        <path d="M 40.578125 39.3125 
Q 47.65625 37.796875 51.625 33 
Q 55.609375 28.21875 55.609375 21.1875 
Q 55.609375 10.40625 48.1875 4.484375 
Q 40.765625 -1.421875 27.09375 -1.421875 
Q 22.515625 -1.421875 17.65625 -0.515625 
Q 12.796875 0.390625 7.625 2.203125 
L 7.625 11.71875 
Q 11.71875 9.328125 16.59375 8.109375 
Q 21.484375 6.890625 26.8125 6.890625 
Q 36.078125 6.890625 40.9375 10.546875 
Q 45.796875 14.203125 45.796875 21.1875 
Q 45.796875 27.640625 41.28125 31.265625 
Q 36.765625 34.90625 28.71875 34.90625 
L 20.21875 34.90625 
L 20.21875 43.015625 
L 29.109375 43.015625 
Q 36.375 43.015625 40.234375 45.921875 
Q 44.09375 48.828125 44.09375 54.296875 
Q 44.09375 59.90625 40.109375 62.90625 
Q 36.140625 65.921875 28.71875 65.921875 
Q 24.65625 65.921875 20.015625 65.03125 
Q 15.375 64.15625 9.8125 62.3125 
L 9.8125 71.09375 
Q 15.4375 72.65625 20.34375 73.4375 
Q 25.25 74.21875 29.59375 74.21875 
Q 40.828125 74.21875 47.359375 69.109375 
Q 53.90625 64.015625 53.90625 55.328125 
Q 53.90625 49.265625 50.4375 45.09375 
Q 46.96875 40.921875 40.578125 39.3125 
z
" id="DejaVuSans-51"/>
       </defs>
       <use xlink:href="#DejaVuSans-51"/>
       <use x="63.623047" xlink:href="#DejaVuSans-48"/>
      </g>
     </g>
    </g>
    <g id="ytick_8">
     <g id="line2d_14">
      <g>
       <use style="stroke:#000000;stroke-width:0.8;" x="40.603125" xlink:href="#mbae39494cd" y="43.507379"/>
      </g>
     </g>
     <g id="text_15">
      <!-- 35 -->
      <g transform="translate(20.878125 47.306598)scale(0.1 -0.1)">
       <use xlink:href="#DejaVuSans-51"/>
       <use x="63.623047" xlink:href="#DejaVuSans-53"/>
      </g>
     </g>
    </g>
    <g id="ytick_9">
     <g id="line2d_15">
      <g>
       <use style="stroke:#000000;stroke-width:0.8;" x="40.603125" xlink:href="#mbae39494cd" y="16.615966"/>
      </g>
     </g>
     <g id="text_16">
      <!-- 40 -->
      <g transform="translate(20.878125 20.415185)scale(0.1 -0.1)">
       <defs>
        <path d="M 37.796875 64.3125 
L 12.890625 25.390625 
L 37.796875 25.390625 
z
M 35.203125 72.90625 
L 47.609375 72.90625 
L 47.609375 25.390625 
L 58.015625 25.390625 
L 58.015625 17.1875 
L 47.609375 17.1875 
L 47.609375 0 
L 37.796875 0 
L 37.796875 17.1875 
L 4.890625 17.1875 
L 4.890625 26.703125 
z
" id="DejaVuSans-52"/>
       </defs>
       <use xlink:href="#DejaVuSans-52"/>
       <use x="63.623047" xlink:href="#DejaVuSans-48"/>
      </g>
     </g>
    </g>
    <g id="text_17">
     <!-- Mean Magnitude of Throttle/Brake -->
     <g transform="translate(14.798438 210.155938)rotate(-90)scale(0.1 -0.1)">
      <defs>
       <path d="M 9.8125 72.90625 
L 24.515625 72.90625 
L 43.109375 23.296875 
L 61.8125 72.90625 
L 76.515625 72.90625 
L 76.515625 0 
L 66.890625 0 
L 66.890625 64.015625 
L 48.09375 14.015625 
L 38.1875 14.015625 
L 19.390625 64.015625 
L 19.390625 0 
L 9.8125 0 
z
" id="DejaVuSans-77"/>
       <path d="M 34.28125 27.484375 
Q 23.390625 27.484375 19.1875 25 
Q 14.984375 22.515625 14.984375 16.5 
Q 14.984375 11.71875 18.140625 8.90625 
Q 21.296875 6.109375 26.703125 6.109375 
Q 34.1875 6.109375 38.703125 11.40625 
Q 43.21875 16.703125 43.21875 25.484375 
L 43.21875 27.484375 
z
M 52.203125 31.203125 
L 52.203125 0 
L 43.21875 0 
L 43.21875 8.296875 
Q 40.140625 3.328125 35.546875 0.953125 
Q 30.953125 -1.421875 24.3125 -1.421875 
Q 15.921875 -1.421875 10.953125 3.296875 
Q 6 8.015625 6 15.921875 
Q 6 25.140625 12.171875 29.828125 
Q 18.359375 34.515625 30.609375 34.515625 
L 43.21875 34.515625 
L 43.21875 35.40625 
Q 43.21875 41.609375 39.140625 45 
Q 35.0625 48.390625 27.6875 48.390625 
Q 23 48.390625 18.546875 47.265625 
Q 14.109375 46.140625 10.015625 43.890625 
L 10.015625 52.203125 
Q 14.9375 54.109375 19.578125 55.046875 
Q 24.21875 56 28.609375 56 
Q 40.484375 56 46.34375 49.84375 
Q 52.203125 43.703125 52.203125 31.203125 
z
" id="DejaVuSans-97"/>
       <path d="M 54.890625 33.015625 
L 54.890625 0 
L 45.90625 0 
L 45.90625 32.71875 
Q 45.90625 40.484375 42.875 44.328125 
Q 39.84375 48.1875 33.796875 48.1875 
Q 26.515625 48.1875 22.3125 43.546875 
Q 18.109375 38.921875 18.109375 30.90625 
L 18.109375 0 
L 9.078125 0 
L 9.078125 54.6875 
L 18.109375 54.6875 
L 18.109375 46.1875 
Q 21.34375 51.125 25.703125 53.5625 
Q 30.078125 56 35.796875 56 
Q 45.21875 56 50.046875 50.171875 
Q 54.890625 44.34375 54.890625 33.015625 
z
" id="DejaVuSans-110"/>
       <path d="M 45.40625 27.984375 
Q 45.40625 37.75 41.375 43.109375 
Q 37.359375 48.484375 30.078125 48.484375 
Q 22.859375 48.484375 18.828125 43.109375 
Q 14.796875 37.75 14.796875 27.984375 
Q 14.796875 18.265625 18.828125 12.890625 
Q 22.859375 7.515625 30.078125 7.515625 
Q 37.359375 7.515625 41.375 12.890625 
Q 45.40625 18.265625 45.40625 27.984375 
z
M 54.390625 6.78125 
Q 54.390625 -7.171875 48.1875 -13.984375 
Q 42 -20.796875 29.203125 -20.796875 
Q 24.46875 -20.796875 20.265625 -20.09375 
Q 16.0625 -19.390625 12.109375 -17.921875 
L 12.109375 -9.1875 
Q 16.0625 -11.328125 19.921875 -12.34375 
Q 23.78125 -13.375 27.78125 -13.375 
Q 36.625 -13.375 41.015625 -8.765625 
Q 45.40625 -4.15625 45.40625 5.171875 
L 45.40625 9.625 
Q 42.625 4.78125 38.28125 2.390625 
Q 33.9375 0 27.875 0 
Q 17.828125 0 11.671875 7.65625 
Q 5.515625 15.328125 5.515625 27.984375 
Q 5.515625 40.671875 11.671875 48.328125 
Q 17.828125 56 27.875 56 
Q 33.9375 56 38.28125 53.609375 
Q 42.625 51.21875 45.40625 46.390625 
L 45.40625 54.6875 
L 54.390625 54.6875 
z
" id="DejaVuSans-103"/>
       <path d="M 18.3125 70.21875 
L 18.3125 54.6875 
L 36.8125 54.6875 
L 36.8125 47.703125 
L 18.3125 47.703125 
L 18.3125 18.015625 
Q 18.3125 11.328125 20.140625 9.421875 
Q 21.96875 7.515625 27.59375 7.515625 
L 36.8125 7.515625 
L 36.8125 0 
L 27.59375 0 
Q 17.1875 0 13.234375 3.875 
Q 9.28125 7.765625 9.28125 18.015625 
L 9.28125 47.703125 
L 2.6875 47.703125 
L 2.6875 54.6875 
L 9.28125 54.6875 
L 9.28125 70.21875 
z
" id="DejaVuSans-116"/>
       <path d="M 8.5 21.578125 
L 8.5 54.6875 
L 17.484375 54.6875 
L 17.484375 21.921875 
Q 17.484375 14.15625 20.5 10.265625 
Q 23.53125 6.390625 29.59375 6.390625 
Q 36.859375 6.390625 41.078125 11.03125 
Q 45.3125 15.671875 45.3125 23.6875 
L 45.3125 54.6875 
L 54.296875 54.6875 
L 54.296875 0 
L 45.3125 0 
L 45.3125 8.40625 
Q 42.046875 3.421875 37.71875 1 
Q 33.40625 -1.421875 27.6875 -1.421875 
Q 18.265625 -1.421875 13.375 4.4375 
Q 8.5 10.296875 8.5 21.578125 
z
M 31.109375 56 
z
" id="DejaVuSans-117"/>
       <path d="M 45.40625 46.390625 
L 45.40625 75.984375 
L 54.390625 75.984375 
L 54.390625 0 
L 45.40625 0 
L 45.40625 8.203125 
Q 42.578125 3.328125 38.25 0.953125 
Q 33.9375 -1.421875 27.875 -1.421875 
Q 17.96875 -1.421875 11.734375 6.484375 
Q 5.515625 14.40625 5.515625 27.296875 
Q 5.515625 40.1875 11.734375 48.09375 
Q 17.96875 56 27.875 56 
Q 33.9375 56 38.25 53.625 
Q 42.578125 51.265625 45.40625 46.390625 
z
M 14.796875 27.296875 
Q 14.796875 17.390625 18.875 11.75 
Q 22.953125 6.109375 30.078125 6.109375 
Q 37.203125 6.109375 41.296875 11.75 
Q 45.40625 17.390625 45.40625 27.296875 
Q 45.40625 37.203125 41.296875 42.84375 
Q 37.203125 48.484375 30.078125 48.484375 
Q 22.953125 48.484375 18.875 42.84375 
Q 14.796875 37.203125 14.796875 27.296875 
z
" id="DejaVuSans-100"/>
       <path d="M 30.609375 48.390625 
Q 23.390625 48.390625 19.1875 42.75 
Q 14.984375 37.109375 14.984375 27.296875 
Q 14.984375 17.484375 19.15625 11.84375 
Q 23.34375 6.203125 30.609375 6.203125 
Q 37.796875 6.203125 41.984375 11.859375 
Q 46.1875 17.53125 46.1875 27.296875 
Q 46.1875 37.015625 41.984375 42.703125 
Q 37.796875 48.390625 30.609375 48.390625 
z
M 30.609375 56 
Q 42.328125 56 49.015625 48.375 
Q 55.71875 40.765625 55.71875 27.296875 
Q 55.71875 13.875 49.015625 6.21875 
Q 42.328125 -1.421875 30.609375 -1.421875 
Q 18.84375 -1.421875 12.171875 6.21875 
Q 5.515625 13.875 5.515625 27.296875 
Q 5.515625 40.765625 12.171875 48.375 
Q 18.84375 56 30.609375 56 
z
" id="DejaVuSans-111"/>
       <path d="M 37.109375 75.984375 
L 37.109375 68.5 
L 28.515625 68.5 
Q 23.6875 68.5 21.796875 66.546875 
Q 19.921875 64.59375 19.921875 59.515625 
L 19.921875 54.6875 
L 34.71875 54.6875 
L 34.71875 47.703125 
L 19.921875 47.703125 
L 19.921875 0 
L 10.890625 0 
L 10.890625 47.703125 
L 2.296875 47.703125 
L 2.296875 54.6875 
L 10.890625 54.6875 
L 10.890625 58.5 
Q 10.890625 67.625 15.140625 71.796875 
Q 19.390625 75.984375 28.609375 75.984375 
z
" id="DejaVuSans-102"/>
       <path d="M 54.890625 33.015625 
L 54.890625 0 
L 45.90625 0 
L 45.90625 32.71875 
Q 45.90625 40.484375 42.875 44.328125 
Q 39.84375 48.1875 33.796875 48.1875 
Q 26.515625 48.1875 22.3125 43.546875 
Q 18.109375 38.921875 18.109375 30.90625 
L 18.109375 0 
L 9.078125 0 
L 9.078125 75.984375 
L 18.109375 75.984375 
L 18.109375 46.1875 
Q 21.34375 51.125 25.703125 53.5625 
Q 30.078125 56 35.796875 56 
Q 45.21875 56 50.046875 50.171875 
Q 54.890625 44.34375 54.890625 33.015625 
z
" id="DejaVuSans-104"/>
       <path d="M 41.109375 46.296875 
Q 39.59375 47.171875 37.8125 47.578125 
Q 36.03125 48 33.890625 48 
Q 26.265625 48 22.1875 43.046875 
Q 18.109375 38.09375 18.109375 28.8125 
L 18.109375 0 
L 9.078125 0 
L 9.078125 54.6875 
L 18.109375 54.6875 
L 18.109375 46.1875 
Q 20.953125 51.171875 25.484375 53.578125 
Q 30.03125 56 36.53125 56 
Q 37.453125 56 38.578125 55.875 
Q 39.703125 55.765625 41.0625 55.515625 
z
" id="DejaVuSans-114"/>
       <path d="M 9.421875 75.984375 
L 18.40625 75.984375 
L 18.40625 0 
L 9.421875 0 
z
" id="DejaVuSans-108"/>
       <path d="M 25.390625 72.90625 
L 33.6875 72.90625 
L 8.296875 -9.28125 
L 0 -9.28125 
z
" id="DejaVuSans-47"/>
       <path d="M 19.671875 34.8125 
L 19.671875 8.109375 
L 35.5 8.109375 
Q 43.453125 8.109375 47.28125 11.40625 
Q 51.125 14.703125 51.125 21.484375 
Q 51.125 28.328125 47.28125 31.5625 
Q 43.453125 34.8125 35.5 34.8125 
z
M 19.671875 64.796875 
L 19.671875 42.828125 
L 34.28125 42.828125 
Q 41.5 42.828125 45.03125 45.53125 
Q 48.578125 48.25 48.578125 53.8125 
Q 48.578125 59.328125 45.03125 62.0625 
Q 41.5 64.796875 34.28125 64.796875 
z
M 9.8125 72.90625 
L 35.015625 72.90625 
Q 46.296875 72.90625 52.390625 68.21875 
Q 58.5 63.53125 58.5 54.890625 
Q 58.5 48.1875 55.375 44.234375 
Q 52.25 40.28125 46.1875 39.3125 
Q 53.46875 37.75 57.5 32.78125 
Q 61.53125 27.828125 61.53125 20.40625 
Q 61.53125 10.640625 54.890625 5.3125 
Q 48.25 0 35.984375 0 
L 9.8125 0 
z
" id="DejaVuSans-66"/>
       <path d="M 9.078125 75.984375 
L 18.109375 75.984375 
L 18.109375 31.109375 
L 44.921875 54.6875 
L 56.390625 54.6875 
L 27.390625 29.109375 
L 57.625 0 
L 45.90625 0 
L 18.109375 26.703125 
L 18.109375 0 
L 9.078125 0 
z
" id="DejaVuSans-107"/>
      </defs>
      <use xlink:href="#DejaVuSans-77"/>
      <use x="86.279297" xlink:href="#DejaVuSans-101"/>
      <use x="147.802734" xlink:href="#DejaVuSans-97"/>
      <use x="209.082031" xlink:href="#DejaVuSans-110"/>
      <use x="272.460938" xlink:href="#DejaVuSans-32"/>
      <use x="304.248047" xlink:href="#DejaVuSans-77"/>
      <use x="390.527344" xlink:href="#DejaVuSans-97"/>
      <use x="451.806641" xlink:href="#DejaVuSans-103"/>
      <use x="515.283203" xlink:href="#DejaVuSans-110"/>
      <use x="578.662109" xlink:href="#DejaVuSans-105"/>
      <use x="606.445312" xlink:href="#DejaVuSans-116"/>
      <use x="645.654297" xlink:href="#DejaVuSans-117"/>
      <use x="709.033203" xlink:href="#DejaVuSans-100"/>
      <use x="772.509766" xlink:href="#DejaVuSans-101"/>
      <use x="834.033203" xlink:href="#DejaVuSans-32"/>
      <use x="865.820312" xlink:href="#DejaVuSans-111"/>
      <use x="927.001953" xlink:href="#DejaVuSans-102"/>
      <use x="962.207031" xlink:href="#DejaVuSans-32"/>
      <use x="993.994141" xlink:href="#DejaVuSans-84"/>
      <use x="1055.078125" xlink:href="#DejaVuSans-104"/>
      <use x="1118.457031" xlink:href="#DejaVuSans-114"/>
      <use x="1157.320312" xlink:href="#DejaVuSans-111"/>
      <use x="1218.501953" xlink:href="#DejaVuSans-116"/>
      <use x="1257.710938" xlink:href="#DejaVuSans-116"/>
      <use x="1296.919922" xlink:href="#DejaVuSans-108"/>
      <use x="1324.703125" xlink:href="#DejaVuSans-101"/>
      <use x="1386.226562" xlink:href="#DejaVuSans-47"/>
      <use x="1419.917969" xlink:href="#DejaVuSans-66"/>
      <use x="1488.521484" xlink:href="#DejaVuSans-114"/>
      <use x="1529.634766" xlink:href="#DejaVuSans-97"/>
      <use x="1590.914062" xlink:href="#DejaVuSans-107"/>
      <use x="1645.199219" xlink:href="#DejaVuSans-101"/>
     </g>
    </g>
   </g>
   <g id="line2d_16">
    <path clip-path="url(#p0aca55cfad)" d="M 51.296132 231.747273 
L 265.156275 231.747273 
L 265.156275 231.747273 
" style="fill:none;stroke:#000000;stroke-linecap:square;stroke-width:0.5;"/>
   </g>
   <g id="line2d_17">
    <path clip-path="url(#p0aca55cfad)" d="M 51.296132 226.36899 
L 265.156275 226.36899 
L 265.156275 226.36899 
" style="fill:none;stroke:#000000;stroke-linecap:square;stroke-width:0.5;"/>
   </g>
   <g id="line2d_18">
    <path clip-path="url(#p0aca55cfad)" d="M 51.296132 192.514028 
L 52.834694 195.02509 
L 54.373257 195.468311 
L 55.911819 191.481649 
L 57.450381 198.023371 
L 58.988943 198.403623 
L 60.527505 196.853173 
L 62.066067 192.774757 
L 63.60463 192.846771 
L 65.143192 190.226749 
L 66.681754 189.16418 
L 68.220316 176.584402 
L 69.758878 160.681447 
L 71.297441 149.687093 
L 72.836003 135.759419 
L 74.374565 112.857988 
L 75.913127 82.564042 
L 77.451689 67.400478 
L 78.990251 28.26933 
L 80.528814 31.510363 
L 82.067376 41.44563 
L 83.605938 17.892727 
L 85.1445 32.893659 
L 86.683062 24.237653 
L 88.221625 28.041187 
L 89.760187 46.788025 
L 91.298749 44.678771 
L 92.837311 65.671309 
L 94.375873 65.374571 
L 95.914435 31.307384 
L 97.452998 91.116914 
L 98.99156 35.177522 
L 100.530122 97.376566 
L 102.068684 101.12754 
L 103.607246 110.868765 
L 105.145809 123.599099 
L 106.684371 121.718752 
L 108.222933 109.038835 
L 109.761495 117.234183 
L 111.300057 126.573601 
L 112.838619 129.594095 
L 114.377182 136.223877 
L 115.915744 139.643238 
L 117.454306 139.848819 
L 118.992868 144.448731 
L 120.53143 143.887286 
L 122.069993 139.256211 
L 123.608555 136.064521 
L 125.147117 138.539786 
L 126.685679 146.05951 
L 128.224241 145.049116 
L 129.762803 151.133529 
L 131.301366 138.642489 
L 132.839928 141.2419 
L 134.37849 150.337827 
L 135.917052 155.273062 
L 137.455614 154.149368 
L 138.994177 156.23965 
L 140.532739 157.409901 
L 142.071301 158.950516 
L 143.609863 164.44832 
L 145.148425 167.05924 
L 146.686987 166.998069 
L 148.22555 164.533829 
L 149.764112 164.424344 
L 151.302674 173.088047 
L 152.841236 176.453148 
L 154.379798 174.588593 
L 155.918361 177.430599 
L 157.456923 174.743365 
L 158.995485 176.322694 
L 160.534047 177.529763 
L 162.072609 174.916853 
L 163.611171 171.631416 
L 165.149734 180.359672 
L 166.688296 174.200951 
L 168.226858 174.252277 
L 169.76542 168.513955 
L 171.303982 167.759955 
L 172.842545 170.481917 
L 174.381107 168.035434 
L 175.919669 165.005896 
L 177.458231 163.555563 
L 178.996793 164.838066 
L 180.535355 169.191715 
L 182.073918 171.516391 
L 183.61248 173.197159 
L 185.151042 178.580293 
L 186.689604 178.223269 
L 188.228166 179.65671 
L 191.305291 185.266484 
L 192.843853 185.825874 
L 194.382415 183.126847 
L 195.920977 186.664526 
L 197.459539 187.858304 
L 198.998102 189.63359 
L 200.536664 190.322133 
L 202.075226 189.921029 
L 203.613788 188.903313 
L 205.15235 187.323381 
L 206.690913 186.54573 
L 208.229475 186.948261 
L 209.768037 189.651554 
L 211.306599 183.327805 
L 212.845161 172.818609 
L 214.383723 184.388437 
L 215.922286 185.87702 
L 217.460848 185.731815 
L 218.99941 180.226472 
L 220.537972 187.828212 
L 222.076534 188.209066 
L 223.615097 191.937953 
L 225.153659 190.962145 
L 226.692221 191.780995 
L 228.230783 191.719481 
L 229.769345 196.019637 
L 231.307907 197.07568 
L 232.84647 196.26457 
L 234.385032 197.020427 
L 235.923594 194.916929 
L 237.462156 195.94611 
L 239.000718 194.876405 
L 240.539281 196.330897 
L 243.616405 194.900721 
L 245.154967 194.701819 
L 246.693529 195.229239 
L 248.232091 191.978341 
L 249.770654 194.120656 
L 251.309216 193.619241 
L 252.847778 190.640612 
L 254.38634 190.986039 
L 255.924902 187.614629 
L 257.463465 189.480217 
L 259.002027 188.240959 
L 260.540589 188.714631 
L 262.079151 188.505199 
L 263.617713 190.515141 
L 265.156275 191.148226 
L 265.156275 191.148226 
" style="fill:none;stroke:#1f77b4;stroke-linecap:square;stroke-width:1.5;"/>
   </g>
   <g id="line2d_19">
    <path clip-path="url(#p0aca55cfad)" d="M 51.296132 231.747273 
L 265.156275 231.747273 
L 265.156275 231.747273 
" style="fill:none;stroke:#000000;stroke-linecap:square;stroke-width:0.5;"/>
   </g>
   <g id="line2d_20">
    <path clip-path="url(#p0aca55cfad)" d="M 51.296132 226.36899 
L 265.156275 226.36899 
L 265.156275 226.36899 
" style="fill:none;stroke:#000000;stroke-linecap:square;stroke-width:0.5;"/>
   </g>
   <g id="line2d_21">
    <path clip-path="url(#p0aca55cfad)" d="M 51.296132 167.959952 
L 52.834694 188.619431 
L 54.373257 179.591561 
L 57.450381 172.887888 
L 58.988943 169.543619 
L 60.527505 165.642523 
L 62.066067 167.30118 
L 63.60463 170.335559 
L 65.143192 167.167976 
L 66.681754 160.434302 
L 68.220316 161.359078 
L 69.758878 162.630628 
L 71.297441 162.614508 
L 72.836003 163.647287 
L 74.374565 157.898136 
L 75.913127 161.731298 
L 77.451689 160.788994 
L 78.990251 157.544098 
L 80.528814 155.947938 
L 82.067376 157.170363 
L 83.605938 159.918472 
L 85.1445 158.117512 
L 86.683062 163.742419 
L 88.221625 161.664177 
L 89.760187 157.178914 
L 91.298749 151.710666 
L 92.837311 153.200384 
L 94.375873 150.666982 
L 95.914435 150.887294 
L 97.452998 151.88031 
L 98.99156 152.713226 
L 100.530122 152.539467 
L 102.068684 152.672163 
L 103.607246 150.192522 
L 105.145809 146.80917 
L 106.684371 147.845919 
L 108.222933 142.771281 
L 109.761495 141.088248 
L 111.300057 138.189851 
L 112.838619 137.268569 
L 114.377182 129.517892 
L 115.915744 127.794632 
L 117.454306 128.39527 
L 120.53143 128.78665 
L 122.069993 122.887097 
L 123.608555 122.550061 
L 125.147117 117.946462 
L 126.685679 121.491646 
L 128.224241 118.170058 
L 129.762803 125.315191 
L 131.301366 126.837161 
L 132.839928 122.829252 
L 134.37849 122.458118 
L 135.917052 120.221295 
L 137.455614 126.072307 
L 138.994177 122.938207 
L 140.532739 125.682201 
L 142.071301 129.143758 
L 143.609863 122.864159 
L 145.148425 122.231766 
L 146.686987 126.941439 
L 148.22555 122.062568 
L 149.764112 120.712214 
L 151.302674 133.828773 
L 152.841236 128.165588 
L 154.379798 131.841916 
L 155.918361 125.685935 
L 157.456923 131.15626 
L 158.995485 130.990302 
L 160.534047 128.971794 
L 162.072609 130.790827 
L 163.611171 127.421742 
L 165.149734 128.21409 
L 166.688296 134.835265 
L 169.76542 133.370397 
L 171.303982 134.009511 
L 172.842545 131.950555 
L 174.381107 129.363461 
L 175.919669 128.503387 
L 177.458231 129.09961 
L 178.996793 134.815814 
L 180.535355 138.211865 
L 182.073918 133.668642 
L 183.61248 137.079639 
L 185.151042 137.075157 
L 186.689604 131.052858 
L 188.228166 133.680047 
L 189.766729 130.455605 
L 191.305291 127.606803 
L 192.843853 125.29733 
L 194.382415 123.693866 
L 195.920977 126.361776 
L 197.459539 133.182605 
L 198.998102 129.433122 
L 200.536664 129.814363 
L 202.075226 129.339268 
L 203.613788 131.392448 
L 205.15235 125.655166 
L 206.690913 123.593113 
L 208.229475 120.904154 
L 209.768037 125.208265 
L 211.306599 124.782155 
L 212.845161 128.844601 
L 214.383723 129.039704 
L 215.922286 126.718638 
L 217.460848 123.213114 
L 218.99941 128.641836 
L 220.537972 130.243355 
L 222.076534 132.181468 
L 223.615097 128.913399 
L 225.153659 130.04532 
L 226.692221 125.917136 
L 228.230783 126.04278 
L 229.769345 131.286755 
L 231.307907 130.599045 
L 232.84647 126.926188 
L 234.385032 129.355104 
L 235.923594 130.959162 
L 237.462156 129.130101 
L 239.000718 130.194437 
L 240.539281 131.01022 
L 242.077843 126.862684 
L 245.154967 129.213001 
L 246.693529 131.901902 
L 248.232091 137.030974 
L 249.770654 130.781505 
L 251.309216 133.586606 
L 252.847778 135.873277 
L 254.38634 132.580098 
L 255.924902 138.870342 
L 257.463465 132.481018 
L 259.002027 130.740346 
L 262.079151 137.519134 
L 263.617713 139.995976 
L 265.156275 139.274329 
L 265.156275 139.274329 
" style="fill:none;stroke:#ff7f0e;stroke-linecap:square;stroke-width:1.5;"/>
   </g>
   <g id="line2d_22">
    <path clip-path="url(#p0aca55cfad)" d="M 51.296132 231.747273 
L 265.156275 231.747273 
L 265.156275 231.747273 
" style="fill:none;stroke:#000000;stroke-linecap:square;stroke-width:0.5;"/>
   </g>
   <g id="line2d_23">
    <path clip-path="url(#p0aca55cfad)" d="M 51.296132 226.36899 
L 265.156275 226.36899 
L 265.156275 226.36899 
" style="fill:none;stroke:#000000;stroke-linecap:square;stroke-width:0.5;"/>
   </g>
   <g id="line2d_24">
    <path clip-path="url(#p0aca55cfad)" d="M 51.296132 214.021404 
L 52.834694 212.550986 
L 54.373257 214.730053 
L 55.911819 212.299368 
L 57.450381 212.248788 
L 58.988943 209.116907 
L 60.527505 207.377183 
L 62.066067 205.882562 
L 63.60463 202.949954 
L 65.143192 201.258741 
L 68.220316 200.941983 
L 69.758878 199.588804 
L 71.297441 198.406329 
L 72.836003 196.037838 
L 74.374565 196.655337 
L 75.913127 196.903751 
L 77.451689 198.498798 
L 78.990251 199.079905 
L 80.528814 198.984622 
L 82.067376 199.166468 
L 83.605938 198.618536 
L 85.1445 196.303052 
L 86.683062 197.239635 
L 88.221625 195.42246 
L 89.760187 195.402096 
L 91.298749 192.704008 
L 92.837311 191.008425 
L 94.375873 191.504278 
L 95.914435 194.494967 
L 97.452998 193.294315 
L 98.99156 193.759752 
L 100.530122 194.4517 
L 102.068684 195.894133 
L 103.607246 193.803316 
L 106.684371 193.251629 
L 108.222933 191.75032 
L 109.761495 192.215786 
L 111.300057 190.643034 
L 112.838619 188.674105 
L 114.377182 186.458408 
L 115.915744 188.772347 
L 118.992868 187.723834 
L 120.53143 188.367835 
L 122.069993 186.638772 
L 123.608555 181.098049 
L 125.147117 182.46264 
L 126.685679 181.058537 
L 128.224241 174.747311 
L 129.762803 179.26693 
L 131.301366 179.338948 
L 132.839928 178.808617 
L 134.37849 179.313885 
L 135.917052 179.065301 
L 137.455614 181.186333 
L 138.994177 178.974411 
L 140.532739 175.689054 
L 142.071301 180.269305 
L 143.609863 180.979768 
L 145.148425 183.134638 
L 146.686987 181.469354 
L 148.22555 183.459864 
L 151.302674 182.722323 
L 152.841236 184.350027 
L 154.379798 183.484071 
L 155.918361 183.061272 
L 157.456923 184.151846 
L 158.995485 183.713146 
L 160.534047 185.527569 
L 162.072609 186.536529 
L 163.611171 186.952473 
L 165.149734 186.637024 
L 166.688296 187.028194 
L 169.76542 187.019885 
L 171.303982 187.224117 
L 172.842545 189.285669 
L 174.381107 188.931815 
L 175.919669 188.331522 
L 177.458231 187.909993 
L 178.996793 189.25064 
L 180.535355 188.011565 
L 182.073918 188.907191 
L 183.61248 190.279419 
L 186.689604 187.277895 
L 188.228166 187.537164 
L 189.766729 188.390407 
L 191.305291 188.466657 
L 192.843853 188.814907 
L 194.382415 186.42461 
L 195.920977 186.374035 
L 197.459539 184.907344 
L 198.998102 184.127354 
L 200.536664 185.371951 
L 202.075226 174.810855 
L 203.613788 177.969228 
L 205.15235 183.020371 
L 206.690913 181.402593 
L 208.229475 182.940372 
L 209.768037 182.206369 
L 211.306599 182.581281 
L 214.383723 185.633805 
L 215.922286 186.102671 
L 217.460848 185.92635 
L 218.99941 186.433349 
L 220.537972 186.090271 
L 222.076534 189.593366 
L 223.615097 190.372038 
L 225.153659 190.611078 
L 226.692221 190.728718 
L 228.230783 183.960032 
L 229.769345 184.389436 
L 231.307907 185.053462 
L 232.84647 191.249569 
L 234.385032 192.032613 
L 235.923594 191.781112 
L 237.462156 191.961677 
L 239.000718 193.7396 
L 240.539281 193.276001 
L 242.077843 193.177883 
L 243.616405 192.777247 
L 245.154967 193.435883 
L 246.693529 192.722844 
L 248.232091 193.000006 
L 249.770654 193.57669 
L 251.309216 193.218427 
L 252.847778 194.382973 
L 255.924902 194.839699 
L 257.463465 194.655858 
L 259.002027 193.39706 
L 260.540589 193.928204 
L 262.079151 192.722557 
L 263.617713 193.03118 
L 265.156275 194.777395 
L 265.156275 194.777395 
" style="fill:none;stroke:#2ca02c;stroke-linecap:square;stroke-width:1.5;"/>
   </g>
   <g id="line2d_25">
    <path clip-path="url(#p0aca55cfad)" d="M 51.296132 231.747273 
L 265.156275 231.747273 
L 265.156275 231.747273 
" style="fill:none;stroke:#000000;stroke-linecap:square;stroke-width:0.5;"/>
   </g>
   <g id="line2d_26">
    <path clip-path="url(#p0aca55cfad)" d="M 51.296132 226.36899 
L 265.156275 226.36899 
L 265.156275 226.36899 
" style="fill:none;stroke:#000000;stroke-linecap:square;stroke-width:0.5;"/>
   </g>
   <g id="line2d_27">
    <path clip-path="url(#p0aca55cfad)" d="M 51.296132 216.599047 
L 52.834694 216.411092 
L 54.373257 217.563794 
L 55.911819 216.189344 
L 57.450381 214.293219 
L 58.988943 210.034232 
L 60.527505 206.30815 
L 62.066067 203.8918 
L 63.60463 202.214847 
L 65.143192 202.219263 
L 66.681754 200.957518 
L 68.220316 200.611896 
L 69.758878 201.47851 
L 71.297441 199.646117 
L 72.836003 199.441723 
L 74.374565 199.466544 
L 75.913127 199.765751 
L 77.451689 199.437747 
L 78.990251 199.98161 
L 80.528814 198.42307 
L 82.067376 199.7819 
L 83.605938 198.108179 
L 85.1445 192.78961 
L 86.683062 189.093548 
L 88.221625 193.662671 
L 89.760187 192.003213 
L 91.298749 188.047781 
L 92.837311 198.049179 
L 94.375873 195.88588 
L 95.914435 196.282383 
L 97.452998 195.51539 
L 98.99156 195.543605 
L 100.530122 194.775863 
L 102.068684 195.901585 
L 103.607246 196.031586 
L 105.145809 195.645248 
L 106.684371 196.945906 
L 109.761495 195.764042 
L 111.300057 195.433358 
L 112.838619 194.831274 
L 114.377182 192.974105 
L 115.915744 190.809036 
L 117.454306 189.825412 
L 118.992868 190.427163 
L 120.53143 189.308225 
L 122.069993 187.779328 
L 123.608555 183.781396 
L 125.147117 185.474903 
L 126.685679 178.492351 
L 128.224241 173.509216 
L 129.762803 180.015613 
L 131.301366 181.952787 
L 132.839928 182.025971 
L 134.37849 180.581049 
L 135.917052 179.710017 
L 137.455614 181.335141 
L 138.994177 183.477619 
L 140.532739 184.253027 
L 142.071301 184.795316 
L 143.609863 182.884005 
L 145.148425 182.750221 
L 146.686987 184.615577 
L 148.22555 189.254441 
L 149.764112 188.020626 
L 151.302674 188.159143 
L 152.841236 188.497195 
L 154.379798 187.594019 
L 155.918361 188.035968 
L 157.456923 187.353114 
L 158.995485 188.835282 
L 160.534047 189.636969 
L 162.072609 190.250193 
L 163.611171 186.762213 
L 165.149734 188.632519 
L 166.688296 191.078128 
L 168.226858 193.806567 
L 169.76542 192.898558 
L 171.303982 192.128697 
L 172.842545 192.514743 
L 174.381107 190.973281 
L 175.919669 190.931447 
L 177.458231 191.576486 
L 178.996793 191.913758 
L 180.535355 190.932439 
L 182.073918 191.839608 
L 183.61248 192.886983 
L 185.151042 192.546735 
L 186.689604 192.456592 
L 188.228166 193.699766 
L 189.766729 192.476602 
L 191.305291 182.900776 
L 192.843853 185.047848 
L 194.382415 179.89023 
L 195.920977 182.861617 
L 197.459539 182.404517 
L 198.998102 188.558835 
L 200.536664 186.320637 
L 202.075226 188.144315 
L 203.613788 186.230327 
L 205.15235 186.322283 
L 206.690913 186.215229 
L 208.229475 185.489791 
L 209.768037 186.627254 
L 211.306599 187.323513 
L 212.845161 186.778173 
L 214.383723 189.900126 
L 215.922286 191.08192 
L 217.460848 190.530583 
L 218.99941 191.094118 
L 220.537972 192.727078 
L 222.076534 192.733396 
L 223.615097 193.681625 
L 225.153659 193.807341 
L 226.692221 194.406733 
L 228.230783 194.00183 
L 229.769345 194.209744 
L 231.307907 195.318253 
L 232.84647 193.625278 
L 234.385032 194.983353 
L 235.923594 195.361383 
L 237.462156 195.229805 
L 239.000718 197.164347 
L 240.539281 197.785125 
L 242.077843 198.651402 
L 243.616405 197.993623 
L 246.693529 200.063794 
L 248.232091 202.065131 
L 249.770654 199.587953 
L 251.309216 200.037045 
L 252.847778 199.028672 
L 254.38634 197.792151 
L 255.924902 199.492956 
L 257.463465 199.605826 
L 259.002027 198.473559 
L 260.540589 198.13334 
L 262.079151 195.839806 
L 263.617713 195.00611 
L 265.156275 197.091475 
L 265.156275 197.091475 
" style="fill:none;stroke:#d62728;stroke-linecap:square;stroke-width:1.5;"/>
   </g>
   <g id="patch_3">
    <path d="M 40.603125 242.44 
L 40.603125 7.2 
" style="fill:none;stroke:#000000;stroke-linecap:square;stroke-linejoin:miter;stroke-width:0.8;"/>
   </g>
   <g id="patch_4">
    <path d="M 275.849283 242.44 
L 275.849283 7.2 
" style="fill:none;stroke:#000000;stroke-linecap:square;stroke-linejoin:miter;stroke-width:0.8;"/>
   </g>
   <g id="patch_5">
    <path d="M 40.603125 242.44 
L 275.849283 242.44 
" style="fill:none;stroke:#000000;stroke-linecap:square;stroke-linejoin:miter;stroke-width:0.8;"/>
   </g>
   <g id="patch_6">
    <path d="M 40.603125 7.2 
L 275.849283 7.2 
" style="fill:none;stroke:#000000;stroke-linecap:square;stroke-linejoin:miter;stroke-width:0.8;"/>
   </g>
  </g>
  <g id="axes_2">
   <g id="patch_7">
    <path d="M 325.986967 242.44 
L 561.233125 242.44 
L 561.233125 7.2 
L 325.986967 7.2 
z
" style="fill:#ffffff;"/>
   </g>
   <g id="matplotlib.axis_3">
    <g id="xtick_7">
     <g id="line2d_28">
      <g>
       <use style="stroke:#000000;stroke-width:0.8;" x="340.511784" xlink:href="#m2d2dd0307c" y="242.44"/>
      </g>
     </g>
     <g id="text_18">
      <!-- −5000 -->
      <g transform="translate(323.59694 257.038438)scale(0.1 -0.1)">
       <defs>
        <path d="M 10.59375 35.5 
L 73.1875 35.5 
L 73.1875 27.203125 
L 10.59375 27.203125 
z
" id="DejaVuSans-8722"/>
       </defs>
       <use xlink:href="#DejaVuSans-8722"/>
       <use x="83.789062" xlink:href="#DejaVuSans-53"/>
       <use x="147.412109" xlink:href="#DejaVuSans-48"/>
       <use x="211.035156" xlink:href="#DejaVuSans-48"/>
       <use x="274.658203" xlink:href="#DejaVuSans-48"/>
      </g>
     </g>
    </g>
    <g id="xtick_8">
     <g id="line2d_29">
      <g>
       <use style="stroke:#000000;stroke-width:0.8;" x="374.622925" xlink:href="#m2d2dd0307c" y="242.44"/>
      </g>
     </g>
     <g id="text_19">
      <!-- −4000 -->
      <g transform="translate(357.708081 257.038438)scale(0.1 -0.1)">
       <use xlink:href="#DejaVuSans-8722"/>
       <use x="83.789062" xlink:href="#DejaVuSans-52"/>
       <use x="147.412109" xlink:href="#DejaVuSans-48"/>
       <use x="211.035156" xlink:href="#DejaVuSans-48"/>
       <use x="274.658203" xlink:href="#DejaVuSans-48"/>
      </g>
     </g>
    </g>
    <g id="xtick_9">
     <g id="line2d_30">
      <g>
       <use style="stroke:#000000;stroke-width:0.8;" x="408.734065" xlink:href="#m2d2dd0307c" y="242.44"/>
      </g>
     </g>
     <g id="text_20">
      <!-- −3000 -->
      <g transform="translate(391.819221 257.038438)scale(0.1 -0.1)">
       <use xlink:href="#DejaVuSans-8722"/>
       <use x="83.789062" xlink:href="#DejaVuSans-51"/>
       <use x="147.412109" xlink:href="#DejaVuSans-48"/>
       <use x="211.035156" xlink:href="#DejaVuSans-48"/>
       <use x="274.658203" xlink:href="#DejaVuSans-48"/>
      </g>
     </g>
    </g>
    <g id="xtick_10">
     <g id="line2d_31">
      <g>
       <use style="stroke:#000000;stroke-width:0.8;" x="442.845205" xlink:href="#m2d2dd0307c" y="242.44"/>
      </g>
     </g>
     <g id="text_21">
      <!-- −2000 -->
      <g transform="translate(425.930362 257.038438)scale(0.1 -0.1)">
       <use xlink:href="#DejaVuSans-8722"/>
       <use x="83.789062" xlink:href="#DejaVuSans-50"/>
       <use x="147.412109" xlink:href="#DejaVuSans-48"/>
       <use x="211.035156" xlink:href="#DejaVuSans-48"/>
       <use x="274.658203" xlink:href="#DejaVuSans-48"/>
      </g>
     </g>
    </g>
    <g id="xtick_11">
     <g id="line2d_32">
      <g>
       <use style="stroke:#000000;stroke-width:0.8;" x="476.956346" xlink:href="#m2d2dd0307c" y="242.44"/>
      </g>
     </g>
     <g id="text_22">
      <!-- −1000 -->
      <g transform="translate(460.041502 257.038438)scale(0.1 -0.1)">
       <use xlink:href="#DejaVuSans-8722"/>
       <use x="83.789062" xlink:href="#DejaVuSans-49"/>
       <use x="147.412109" xlink:href="#DejaVuSans-48"/>
       <use x="211.035156" xlink:href="#DejaVuSans-48"/>
       <use x="274.658203" xlink:href="#DejaVuSans-48"/>
      </g>
     </g>
    </g>
    <g id="xtick_12">
     <g id="line2d_33">
      <g>
       <use style="stroke:#000000;stroke-width:0.8;" x="511.067486" xlink:href="#m2d2dd0307c" y="242.44"/>
      </g>
     </g>
     <g id="text_23">
      <!-- 0 -->
      <g transform="translate(507.886236 257.038438)scale(0.1 -0.1)">
       <use xlink:href="#DejaVuSans-48"/>
      </g>
     </g>
    </g>
    <g id="xtick_13">
     <g id="line2d_34">
      <g>
       <use style="stroke:#000000;stroke-width:0.8;" x="545.178627" xlink:href="#m2d2dd0307c" y="242.44"/>
      </g>
     </g>
     <g id="text_24">
      <!-- 1000 -->
      <g transform="translate(532.453627 257.038438)scale(0.1 -0.1)">
       <use xlink:href="#DejaVuSans-49"/>
       <use x="63.623047" xlink:href="#DejaVuSans-48"/>
       <use x="127.246094" xlink:href="#DejaVuSans-48"/>
       <use x="190.869141" xlink:href="#DejaVuSans-48"/>
      </g>
     </g>
    </g>
    <g id="text_25">
     <!-- Throttle/Brake -->
     <g transform="translate(407.974109 270.716563)scale(0.1 -0.1)">
      <use xlink:href="#DejaVuSans-84"/>
      <use x="61.083984" xlink:href="#DejaVuSans-104"/>
      <use x="124.462891" xlink:href="#DejaVuSans-114"/>
      <use x="163.326172" xlink:href="#DejaVuSans-111"/>
      <use x="224.507812" xlink:href="#DejaVuSans-116"/>
      <use x="263.716797" xlink:href="#DejaVuSans-116"/>
      <use x="302.925781" xlink:href="#DejaVuSans-108"/>
      <use x="330.708984" xlink:href="#DejaVuSans-101"/>
      <use x="392.232422" xlink:href="#DejaVuSans-47"/>
      <use x="425.923828" xlink:href="#DejaVuSans-66"/>
      <use x="494.527344" xlink:href="#DejaVuSans-114"/>
      <use x="535.640625" xlink:href="#DejaVuSans-97"/>
      <use x="596.919922" xlink:href="#DejaVuSans-107"/>
      <use x="651.205078" xlink:href="#DejaVuSans-101"/>
     </g>
    </g>
   </g>
   <g id="matplotlib.axis_4">
    <g id="ytick_10">
     <g id="line2d_35">
      <g>
       <use style="stroke:#000000;stroke-width:0.8;" x="325.986967" xlink:href="#mbae39494cd" y="231.747273"/>
      </g>
     </g>
     <g id="text_26">
      <!-- $\mathdefault{10^{0}}$ -->
      <g transform="translate(301.386967 235.546491)scale(0.1 -0.1)">
       <use transform="translate(0 0.765625)" xlink:href="#DejaVuSans-49"/>
       <use transform="translate(63.623047 0.765625)" xlink:href="#DejaVuSans-48"/>
       <use transform="translate(128.203125 39.046875)scale(0.7)" xlink:href="#DejaVuSans-48"/>
      </g>
     </g>
    </g>
    <g id="ytick_11">
     <g id="line2d_36">
      <g>
       <use style="stroke:#000000;stroke-width:0.8;" x="325.986967" xlink:href="#mbae39494cd" y="189.683283"/>
      </g>
     </g>
     <g id="text_27">
      <!-- $\mathdefault{10^{1}}$ -->
      <g transform="translate(301.386967 193.482502)scale(0.1 -0.1)">
       <use transform="translate(0 0.684375)" xlink:href="#DejaVuSans-49"/>
       <use transform="translate(63.623047 0.684375)" xlink:href="#DejaVuSans-48"/>
       <use transform="translate(128.203125 38.965625)scale(0.7)" xlink:href="#DejaVuSans-49"/>
      </g>
     </g>
    </g>
    <g id="ytick_12">
     <g id="line2d_37">
      <g>
       <use style="stroke:#000000;stroke-width:0.8;" x="325.986967" xlink:href="#mbae39494cd" y="147.619293"/>
      </g>
     </g>
     <g id="text_28">
      <!-- $\mathdefault{10^{2}}$ -->
      <g transform="translate(301.386967 151.418512)scale(0.1 -0.1)">
       <use transform="translate(0 0.765625)" xlink:href="#DejaVuSans-49"/>
       <use transform="translate(63.623047 0.765625)" xlink:href="#DejaVuSans-48"/>
       <use transform="translate(128.203125 39.046875)scale(0.7)" xlink:href="#DejaVuSans-50"/>
      </g>
     </g>
    </g>
    <g id="ytick_13">
     <g id="line2d_38">
      <g>
       <use style="stroke:#000000;stroke-width:0.8;" x="325.986967" xlink:href="#mbae39494cd" y="105.555304"/>
      </g>
     </g>
     <g id="text_29">
      <!-- $\mathdefault{10^{3}}$ -->
      <g transform="translate(301.386967 109.354522)scale(0.1 -0.1)">
       <use transform="translate(0 0.765625)" xlink:href="#DejaVuSans-49"/>
       <use transform="translate(63.623047 0.765625)" xlink:href="#DejaVuSans-48"/>
       <use transform="translate(128.203125 39.046875)scale(0.7)" xlink:href="#DejaVuSans-51"/>
      </g>
     </g>
    </g>
    <g id="ytick_14">
     <g id="line2d_39">
      <g>
       <use style="stroke:#000000;stroke-width:0.8;" x="325.986967" xlink:href="#mbae39494cd" y="63.491314"/>
      </g>
     </g>
     <g id="text_30">
      <!-- $\mathdefault{10^{4}}$ -->
      <g transform="translate(301.386967 67.290533)scale(0.1 -0.1)">
       <use transform="translate(0 0.684375)" xlink:href="#DejaVuSans-49"/>
       <use transform="translate(63.623047 0.684375)" xlink:href="#DejaVuSans-48"/>
       <use transform="translate(128.203125 38.965625)scale(0.7)" xlink:href="#DejaVuSans-52"/>
      </g>
     </g>
    </g>
    <g id="ytick_15">
     <g id="line2d_40">
      <g>
       <use style="stroke:#000000;stroke-width:0.8;" x="325.986967" xlink:href="#mbae39494cd" y="21.427324"/>
      </g>
     </g>
     <g id="text_31">
      <!-- $\mathdefault{10^{5}}$ -->
      <g transform="translate(301.386967 25.226543)scale(0.1 -0.1)">
       <use transform="translate(0 0.684375)" xlink:href="#DejaVuSans-49"/>
       <use transform="translate(63.623047 0.684375)" xlink:href="#DejaVuSans-48"/>
       <use transform="translate(128.203125 38.965625)scale(0.7)" xlink:href="#DejaVuSans-53"/>
      </g>
     </g>
    </g>
    <g id="ytick_16">
     <g id="line2d_41">
      <defs>
       <path d="M 0 0 
L -2 0 
" id="med6afbf1f0" style="stroke:#000000;stroke-width:0.6;"/>
      </defs>
      <g>
       <use style="stroke:#000000;stroke-width:0.6;" x="325.986967" xlink:href="#med6afbf1f0" y="241.079116"/>
      </g>
     </g>
    </g>
    <g id="ytick_17">
     <g id="line2d_42">
      <g>
       <use style="stroke:#000000;stroke-width:0.6;" x="325.986967" xlink:href="#med6afbf1f0" y="238.263067"/>
      </g>
     </g>
    </g>
    <g id="ytick_18">
     <g id="line2d_43">
      <g>
       <use style="stroke:#000000;stroke-width:0.6;" x="325.986967" xlink:href="#med6afbf1f0" y="235.823695"/>
      </g>
     </g>
    </g>
    <g id="ytick_19">
     <g id="line2d_44">
      <g>
       <use style="stroke:#000000;stroke-width:0.6;" x="325.986967" xlink:href="#med6afbf1f0" y="233.672015"/>
      </g>
     </g>
    </g>
    <g id="ytick_20">
     <g id="line2d_45">
      <g>
       <use style="stroke:#000000;stroke-width:0.6;" x="325.986967" xlink:href="#med6afbf1f0" y="219.08475"/>
      </g>
     </g>
    </g>
    <g id="ytick_21">
     <g id="line2d_46">
      <g>
       <use style="stroke:#000000;stroke-width:0.6;" x="325.986967" xlink:href="#med6afbf1f0" y="211.677649"/>
      </g>
     </g>
    </g>
    <g id="ytick_22">
     <g id="line2d_47">
      <g>
       <use style="stroke:#000000;stroke-width:0.6;" x="325.986967" xlink:href="#med6afbf1f0" y="206.422227"/>
      </g>
     </g>
    </g>
    <g id="ytick_23">
     <g id="line2d_48">
      <g>
       <use style="stroke:#000000;stroke-width:0.6;" x="325.986967" xlink:href="#med6afbf1f0" y="202.345806"/>
      </g>
     </g>
    </g>
    <g id="ytick_24">
     <g id="line2d_49">
      <g>
       <use style="stroke:#000000;stroke-width:0.6;" x="325.986967" xlink:href="#med6afbf1f0" y="199.015127"/>
      </g>
     </g>
    </g>
    <g id="ytick_25">
     <g id="line2d_50">
      <g>
       <use style="stroke:#000000;stroke-width:0.6;" x="325.986967" xlink:href="#med6afbf1f0" y="196.199077"/>
      </g>
     </g>
    </g>
    <g id="ytick_26">
     <g id="line2d_51">
      <g>
       <use style="stroke:#000000;stroke-width:0.6;" x="325.986967" xlink:href="#med6afbf1f0" y="193.759705"/>
      </g>
     </g>
    </g>
    <g id="ytick_27">
     <g id="line2d_52">
      <g>
       <use style="stroke:#000000;stroke-width:0.6;" x="325.986967" xlink:href="#med6afbf1f0" y="191.608026"/>
      </g>
     </g>
    </g>
    <g id="ytick_28">
     <g id="line2d_53">
      <g>
       <use style="stroke:#000000;stroke-width:0.6;" x="325.986967" xlink:href="#med6afbf1f0" y="177.02076"/>
      </g>
     </g>
    </g>
    <g id="ytick_29">
     <g id="line2d_54">
      <g>
       <use style="stroke:#000000;stroke-width:0.6;" x="325.986967" xlink:href="#med6afbf1f0" y="169.613659"/>
      </g>
     </g>
    </g>
    <g id="ytick_30">
     <g id="line2d_55">
      <g>
       <use style="stroke:#000000;stroke-width:0.6;" x="325.986967" xlink:href="#med6afbf1f0" y="164.358238"/>
      </g>
     </g>
    </g>
    <g id="ytick_31">
     <g id="line2d_56">
      <g>
       <use style="stroke:#000000;stroke-width:0.6;" x="325.986967" xlink:href="#med6afbf1f0" y="160.281816"/>
      </g>
     </g>
    </g>
    <g id="ytick_32">
     <g id="line2d_57">
      <g>
       <use style="stroke:#000000;stroke-width:0.6;" x="325.986967" xlink:href="#med6afbf1f0" y="156.951137"/>
      </g>
     </g>
    </g>
    <g id="ytick_33">
     <g id="line2d_58">
      <g>
       <use style="stroke:#000000;stroke-width:0.6;" x="325.986967" xlink:href="#med6afbf1f0" y="154.135088"/>
      </g>
     </g>
    </g>
    <g id="ytick_34">
     <g id="line2d_59">
      <g>
       <use style="stroke:#000000;stroke-width:0.6;" x="325.986967" xlink:href="#med6afbf1f0" y="151.695715"/>
      </g>
     </g>
    </g>
    <g id="ytick_35">
     <g id="line2d_60">
      <g>
       <use style="stroke:#000000;stroke-width:0.6;" x="325.986967" xlink:href="#med6afbf1f0" y="149.544036"/>
      </g>
     </g>
    </g>
    <g id="ytick_36">
     <g id="line2d_61">
      <g>
       <use style="stroke:#000000;stroke-width:0.6;" x="325.986967" xlink:href="#med6afbf1f0" y="134.956771"/>
      </g>
     </g>
    </g>
    <g id="ytick_37">
     <g id="line2d_62">
      <g>
       <use style="stroke:#000000;stroke-width:0.6;" x="325.986967" xlink:href="#med6afbf1f0" y="127.54967"/>
      </g>
     </g>
    </g>
    <g id="ytick_38">
     <g id="line2d_63">
      <g>
       <use style="stroke:#000000;stroke-width:0.6;" x="325.986967" xlink:href="#med6afbf1f0" y="122.294248"/>
      </g>
     </g>
    </g>
    <g id="ytick_39">
     <g id="line2d_64">
      <g>
       <use style="stroke:#000000;stroke-width:0.6;" x="325.986967" xlink:href="#med6afbf1f0" y="118.217826"/>
      </g>
     </g>
    </g>
    <g id="ytick_40">
     <g id="line2d_65">
      <g>
       <use style="stroke:#000000;stroke-width:0.6;" x="325.986967" xlink:href="#med6afbf1f0" y="114.887147"/>
      </g>
     </g>
    </g>
    <g id="ytick_41">
     <g id="line2d_66">
      <g>
       <use style="stroke:#000000;stroke-width:0.6;" x="325.986967" xlink:href="#med6afbf1f0" y="112.071098"/>
      </g>
     </g>
    </g>
    <g id="ytick_42">
     <g id="line2d_67">
      <g>
       <use style="stroke:#000000;stroke-width:0.6;" x="325.986967" xlink:href="#med6afbf1f0" y="109.631725"/>
      </g>
     </g>
    </g>
    <g id="ytick_43">
     <g id="line2d_68">
      <g>
       <use style="stroke:#000000;stroke-width:0.6;" x="325.986967" xlink:href="#med6afbf1f0" y="107.480046"/>
      </g>
     </g>
    </g>
    <g id="ytick_44">
     <g id="line2d_69">
      <g>
       <use style="stroke:#000000;stroke-width:0.6;" x="325.986967" xlink:href="#med6afbf1f0" y="92.892781"/>
      </g>
     </g>
    </g>
    <g id="ytick_45">
     <g id="line2d_70">
      <g>
       <use style="stroke:#000000;stroke-width:0.6;" x="325.986967" xlink:href="#med6afbf1f0" y="85.48568"/>
      </g>
     </g>
    </g>
    <g id="ytick_46">
     <g id="line2d_71">
      <g>
       <use style="stroke:#000000;stroke-width:0.6;" x="325.986967" xlink:href="#med6afbf1f0" y="80.230258"/>
      </g>
     </g>
    </g>
    <g id="ytick_47">
     <g id="line2d_72">
      <g>
       <use style="stroke:#000000;stroke-width:0.6;" x="325.986967" xlink:href="#med6afbf1f0" y="76.153836"/>
      </g>
     </g>
    </g>
    <g id="ytick_48">
     <g id="line2d_73">
      <g>
       <use style="stroke:#000000;stroke-width:0.6;" x="325.986967" xlink:href="#med6afbf1f0" y="72.823157"/>
      </g>
     </g>
    </g>
    <g id="ytick_49">
     <g id="line2d_74">
      <g>
       <use style="stroke:#000000;stroke-width:0.6;" x="325.986967" xlink:href="#med6afbf1f0" y="70.007108"/>
      </g>
     </g>
    </g>
    <g id="ytick_50">
     <g id="line2d_75">
      <g>
       <use style="stroke:#000000;stroke-width:0.6;" x="325.986967" xlink:href="#med6afbf1f0" y="67.567736"/>
      </g>
     </g>
    </g>
    <g id="ytick_51">
     <g id="line2d_76">
      <g>
       <use style="stroke:#000000;stroke-width:0.6;" x="325.986967" xlink:href="#med6afbf1f0" y="65.416056"/>
      </g>
     </g>
    </g>
    <g id="ytick_52">
     <g id="line2d_77">
      <g>
       <use style="stroke:#000000;stroke-width:0.6;" x="325.986967" xlink:href="#med6afbf1f0" y="50.828791"/>
      </g>
     </g>
    </g>
    <g id="ytick_53">
     <g id="line2d_78">
      <g>
       <use style="stroke:#000000;stroke-width:0.6;" x="325.986967" xlink:href="#med6afbf1f0" y="43.42169"/>
      </g>
     </g>
    </g>
    <g id="ytick_54">
     <g id="line2d_79">
      <g>
       <use style="stroke:#000000;stroke-width:0.6;" x="325.986967" xlink:href="#med6afbf1f0" y="38.166269"/>
      </g>
     </g>
    </g>
    <g id="ytick_55">
     <g id="line2d_80">
      <g>
       <use style="stroke:#000000;stroke-width:0.6;" x="325.986967" xlink:href="#med6afbf1f0" y="34.089847"/>
      </g>
     </g>
    </g>
    <g id="ytick_56">
     <g id="line2d_81">
      <g>
       <use style="stroke:#000000;stroke-width:0.6;" x="325.986967" xlink:href="#med6afbf1f0" y="30.759168"/>
      </g>
     </g>
    </g>
    <g id="ytick_57">
     <g id="line2d_82">
      <g>
       <use style="stroke:#000000;stroke-width:0.6;" x="325.986967" xlink:href="#med6afbf1f0" y="27.943119"/>
      </g>
     </g>
    </g>
    <g id="ytick_58">
     <g id="line2d_83">
      <g>
       <use style="stroke:#000000;stroke-width:0.6;" x="325.986967" xlink:href="#med6afbf1f0" y="25.503746"/>
      </g>
     </g>
    </g>
    <g id="ytick_59">
     <g id="line2d_84">
      <g>
       <use style="stroke:#000000;stroke-width:0.6;" x="325.986967" xlink:href="#med6afbf1f0" y="23.352067"/>
      </g>
     </g>
    </g>
    <g id="ytick_60">
     <g id="line2d_85">
      <g>
       <use style="stroke:#000000;stroke-width:0.6;" x="325.986967" xlink:href="#med6afbf1f0" y="8.764801"/>
      </g>
     </g>
    </g>
    <g id="text_32">
     <!-- Frequency -->
     <g transform="translate(295.30728 150.649688)rotate(-90)scale(0.1 -0.1)">
      <defs>
       <path d="M 9.8125 72.90625 
L 51.703125 72.90625 
L 51.703125 64.59375 
L 19.671875 64.59375 
L 19.671875 43.109375 
L 48.578125 43.109375 
L 48.578125 34.8125 
L 19.671875 34.8125 
L 19.671875 0 
L 9.8125 0 
z
" id="DejaVuSans-70"/>
       <path d="M 14.796875 27.296875 
Q 14.796875 17.390625 18.875 11.75 
Q 22.953125 6.109375 30.078125 6.109375 
Q 37.203125 6.109375 41.296875 11.75 
Q 45.40625 17.390625 45.40625 27.296875 
Q 45.40625 37.203125 41.296875 42.84375 
Q 37.203125 48.484375 30.078125 48.484375 
Q 22.953125 48.484375 18.875 42.84375 
Q 14.796875 37.203125 14.796875 27.296875 
z
M 45.40625 8.203125 
Q 42.578125 3.328125 38.25 0.953125 
Q 33.9375 -1.421875 27.875 -1.421875 
Q 17.96875 -1.421875 11.734375 6.484375 
Q 5.515625 14.40625 5.515625 27.296875 
Q 5.515625 40.1875 11.734375 48.09375 
Q 17.96875 56 27.875 56 
Q 33.9375 56 38.25 53.625 
Q 42.578125 51.265625 45.40625 46.390625 
L 45.40625 54.6875 
L 54.390625 54.6875 
L 54.390625 -20.796875 
L 45.40625 -20.796875 
z
" id="DejaVuSans-113"/>
       <path d="M 48.78125 52.59375 
L 48.78125 44.1875 
Q 44.96875 46.296875 41.140625 47.34375 
Q 37.3125 48.390625 33.40625 48.390625 
Q 24.65625 48.390625 19.8125 42.84375 
Q 14.984375 37.3125 14.984375 27.296875 
Q 14.984375 17.28125 19.8125 11.734375 
Q 24.65625 6.203125 33.40625 6.203125 
Q 37.3125 6.203125 41.140625 7.25 
Q 44.96875 8.296875 48.78125 10.40625 
L 48.78125 2.09375 
Q 45.015625 0.34375 40.984375 -0.53125 
Q 36.96875 -1.421875 32.421875 -1.421875 
Q 20.0625 -1.421875 12.78125 6.34375 
Q 5.515625 14.109375 5.515625 27.296875 
Q 5.515625 40.671875 12.859375 48.328125 
Q 20.21875 56 33.015625 56 
Q 37.15625 56 41.109375 55.140625 
Q 45.0625 54.296875 48.78125 52.59375 
z
" id="DejaVuSans-99"/>
       <path d="M 32.171875 -5.078125 
Q 28.375 -14.84375 24.75 -17.8125 
Q 21.140625 -20.796875 15.09375 -20.796875 
L 7.90625 -20.796875 
L 7.90625 -13.28125 
L 13.1875 -13.28125 
Q 16.890625 -13.28125 18.9375 -11.515625 
Q 21 -9.765625 23.484375 -3.21875 
L 25.09375 0.875 
L 2.984375 54.6875 
L 12.5 54.6875 
L 29.59375 11.921875 
L 46.6875 54.6875 
L 56.203125 54.6875 
z
" id="DejaVuSans-121"/>
      </defs>
      <use xlink:href="#DejaVuSans-70"/>
      <use x="50.269531" xlink:href="#DejaVuSans-114"/>
      <use x="89.132812" xlink:href="#DejaVuSans-101"/>
      <use x="150.65625" xlink:href="#DejaVuSans-113"/>
      <use x="214.132812" xlink:href="#DejaVuSans-117"/>
      <use x="277.511719" xlink:href="#DejaVuSans-101"/>
      <use x="339.035156" xlink:href="#DejaVuSans-110"/>
      <use x="402.414062" xlink:href="#DejaVuSans-99"/>
      <use x="457.394531" xlink:href="#DejaVuSans-121"/>
     </g>
    </g>
   </g>
   <g id="patch_8">
    <path clip-path="url(#p1cc1ebef1f)" d="M 336.679975 280.99625 
L 336.679975 231.747273 
L 355.142223 231.747273 
L 355.142223 280.99625 
M 373.604472 280.99625 
L 373.604472 219.08475 
L 392.06672 219.08475 
L 392.06672 206.422227 
L 410.528969 206.422227 
L 410.528969 211.677649 
L 428.991217 211.677649 
L 428.991217 231.747273 
L 447.453466 231.747273 
L 447.453466 211.677649 
L 465.915714 211.677649 
L 465.915714 145.0661 
L 484.377963 145.0661 
L 484.377963 107.602242 
L 502.840211 107.602242 
L 502.840211 18.914683 
L 521.30246 18.914683 
L 521.30246 280.99625 
" style="fill:none;stroke:#1f77b4;stroke-linejoin:miter;"/>
   </g>
   <g id="patch_9">
    <path clip-path="url(#p1cc1ebef1f)" d="M 497.784676 280.99625 
L 497.784676 206.422227 
L 500.832706 206.422227 
L 500.832706 172.944339 
L 503.880735 172.944339 
L 503.880735 131.399155 
L 506.928765 131.399155 
L 506.928765 80.688084 
L 509.976794 80.688084 
L 509.976794 19.93785 
L 513.024824 19.93785 
L 513.024824 71.917358 
L 516.072853 71.917358 
L 516.072853 123.817476 
L 519.120883 123.817476 
L 519.120883 161.027559 
L 522.168913 161.027559 
L 522.168913 219.08475 
L 525.216942 219.08475 
L 525.216942 211.677649 
L 528.264972 211.677649 
L 528.264972 280.99625 
" style="fill:none;stroke:#ff7f0e;stroke-linejoin:miter;"/>
   </g>
   <g id="patch_10">
    <path clip-path="url(#p1cc1ebef1f)" d="M 507.621488 280.99625 
L 507.621488 18.706675 
L 511.913351 18.706675 
L 511.913351 73.26694 
L 516.205214 73.26694 
L 516.205214 280.99625 
M 524.78894 280.99625 
L 524.78894 206.422227 
L 529.080803 206.422227 
L 529.080803 280.99625 
M 537.664529 280.99625 
L 537.664529 219.08475 
L 541.956392 219.08475 
L 541.956392 231.747273 
L 546.248255 231.747273 
L 546.248255 219.08475 
L 550.540118 219.08475 
L 550.540118 280.99625 
" style="fill:none;stroke:#2ca02c;stroke-linejoin:miter;"/>
   </g>
   <g id="patch_11">
    <path clip-path="url(#p1cc1ebef1f)" d="M 498.145942 280.99625 
L 498.145942 231.747273 
L 503.309788 231.747273 
L 503.309788 219.08475 
L 508.473634 219.08475 
L 508.473634 17.892727 
L 513.63748 17.892727 
L 513.63748 141.735421 
L 518.801326 141.735421 
L 518.801326 231.747273 
L 523.965172 231.747273 
L 523.965172 183.536555 
L 529.129018 183.536555 
L 529.129018 211.677649 
L 534.292863 211.677649 
L 534.292863 211.677649 
L 539.456709 211.677649 
L 539.456709 231.747273 
L 544.620555 231.747273 
L 544.620555 202.345806 
L 549.784401 202.345806 
L 549.784401 280.99625 
" style="fill:none;stroke:#d62728;stroke-linejoin:miter;"/>
   </g>
   <g id="patch_12">
    <path d="M 325.986967 242.44 
L 325.986967 7.2 
" style="fill:none;stroke:#000000;stroke-linecap:square;stroke-linejoin:miter;stroke-width:0.8;"/>
   </g>
   <g id="patch_13">
    <path d="M 561.233125 242.44 
L 561.233125 7.2 
" style="fill:none;stroke:#000000;stroke-linecap:square;stroke-linejoin:miter;stroke-width:0.8;"/>
   </g>
   <g id="patch_14">
    <path d="M 325.986967 242.44 
L 561.233125 242.44 
" style="fill:none;stroke:#000000;stroke-linecap:square;stroke-linejoin:miter;stroke-width:0.8;"/>
   </g>
   <g id="patch_15">
    <path d="M 325.986967 7.2 
L 561.233125 7.2 
" style="fill:none;stroke:#000000;stroke-linecap:square;stroke-linejoin:miter;stroke-width:0.8;"/>
   </g>
  </g>
 </g>
 <defs>
  <clipPath id="p0aca55cfad">
   <rect height="235.24" width="235.246158" x="40.603125" y="7.2"/>
  </clipPath>
  <clipPath id="p1cc1ebef1f">
   <rect height="235.24" width="235.246158" x="325.986967" y="7.2"/>
  </clipPath>
 </defs>
</svg>
