<?xml version="1.0" encoding="utf-8" standalone="no"?>
<!DOCTYPE svg PUBLIC "-//W3C//DTD SVG 1.1//EN"
  "http://www.w3.org/Graphics/SVG/1.1/DTD/svg11.dtd">
<!-- Created with matplotlib (https://matplotlib.org/) -->
<svg height="279.99625pt" version="1.1" viewBox="0 0 568.52375 279.99625" width="568.52375pt" xmlns="http://www.w3.org/2000/svg" xmlns:xlink="http://www.w3.org/1999/xlink">
 <metadata>
  <rdf:RDF xmlns:cc="http://creativecommons.org/ns#" xmlns:dc="http://purl.org/dc/elements/1.1/" xmlns:rdf="http://www.w3.org/1999/02/22-rdf-syntax-ns#">
   <cc:Work>
    <dc:type rdf:resource="http://purl.org/dc/dcmitype/StillImage"/>
    <dc:date>2022-08-03T00:01:49.272776</dc:date>
    <dc:format>image/svg+xml</dc:format>
    <dc:creator>
     <cc:Agent>
      <dc:title>Matplotlib v3.3.0, https://matplotlib.org/</dc:title>
     </cc:Agent>
    </dc:creator>
   </cc:Work>
  </rdf:RDF>
 </metadata>
 <defs>
  <style type="text/css">*{stroke-linecap:butt;stroke-linejoin:round;}</style>
 </defs>
 <g id="figure_1">
  <g id="patch_1">
   <path d="M 0 279.99625 
L 568.52375 279.99625 
L 568.52375 0 
L 0 0 
z
" style="fill:#ffffff;"/>
  </g>
  <g id="axes_1">
   <g id="patch_2">
    <path d="M 50.14375 242.44 
L 280.664908 242.44 
L 280.664908 7.2 
L 50.14375 7.2 
z
" style="fill:#ffffff;"/>
   </g>
   <g id="matplotlib.axis_1">
    <g id="xtick_1">
     <g id="line2d_1">
      <defs>
       <path d="M 0 0 
L 0 3.5 
" id="mc286bbab27" style="stroke:#000000;stroke-width:0.8;"/>
      </defs>
      <g>
       <use style="stroke:#000000;stroke-width:0.8;" x="60.621984" xlink:href="#mc286bbab27" y="242.44"/>
      </g>
     </g>
     <g id="text_1">
      <!-- 0.0 -->
      <g transform="translate(52.670422 257.038437)scale(0.1 -0.1)">
       <defs>
        <path d="M 31.78125 66.40625 
Q 24.171875 66.40625 20.328125 58.90625 
Q 16.5 51.421875 16.5 36.375 
Q 16.5 21.390625 20.328125 13.890625 
Q 24.171875 6.390625 31.78125 6.390625 
Q 39.453125 6.390625 43.28125 13.890625 
Q 47.125 21.390625 47.125 36.375 
Q 47.125 51.421875 43.28125 58.90625 
Q 39.453125 66.40625 31.78125 66.40625 
z
M 31.78125 74.21875 
Q 44.046875 74.21875 50.515625 64.515625 
Q 56.984375 54.828125 56.984375 36.375 
Q 56.984375 17.96875 50.515625 8.265625 
Q 44.046875 -1.421875 31.78125 -1.421875 
Q 19.53125 -1.421875 13.0625 8.265625 
Q 6.59375 17.96875 6.59375 36.375 
Q 6.59375 54.828125 13.0625 64.515625 
Q 19.53125 74.21875 31.78125 74.21875 
z
" id="DejaVuSans-48"/>
        <path d="M 10.6875 12.40625 
L 21 12.40625 
L 21 0 
L 10.6875 0 
z
" id="DejaVuSans-46"/>
       </defs>
       <use xlink:href="#DejaVuSans-48"/>
       <use x="63.623047" xlink:href="#DejaVuSans-46"/>
       <use x="95.410156" xlink:href="#DejaVuSans-48"/>
      </g>
     </g>
    </g>
    <g id="xtick_2">
     <g id="line2d_2">
      <g>
       <use style="stroke:#000000;stroke-width:0.8;" x="98.313475" xlink:href="#mc286bbab27" y="242.44"/>
      </g>
     </g>
     <g id="text_2">
      <!-- 2.5 -->
      <g transform="translate(90.361913 257.038437)scale(0.1 -0.1)">
       <defs>
        <path d="M 19.1875 8.296875 
L 53.609375 8.296875 
L 53.609375 0 
L 7.328125 0 
L 7.328125 8.296875 
Q 12.9375 14.109375 22.625 23.890625 
Q 32.328125 33.6875 34.8125 36.53125 
Q 39.546875 41.84375 41.421875 45.53125 
Q 43.3125 49.21875 43.3125 52.78125 
Q 43.3125 58.59375 39.234375 62.25 
Q 35.15625 65.921875 28.609375 65.921875 
Q 23.96875 65.921875 18.8125 64.3125 
Q 13.671875 62.703125 7.8125 59.421875 
L 7.8125 69.390625 
Q 13.765625 71.78125 18.9375 73 
Q 24.125 74.21875 28.421875 74.21875 
Q 39.75 74.21875 46.484375 68.546875 
Q 53.21875 62.890625 53.21875 53.421875 
Q 53.21875 48.921875 51.53125 44.890625 
Q 49.859375 40.875 45.40625 35.40625 
Q 44.1875 33.984375 37.640625 27.21875 
Q 31.109375 20.453125 19.1875 8.296875 
z
" id="DejaVuSans-50"/>
        <path d="M 10.796875 72.90625 
L 49.515625 72.90625 
L 49.515625 64.59375 
L 19.828125 64.59375 
L 19.828125 46.734375 
Q 21.96875 47.46875 24.109375 47.828125 
Q 26.265625 48.1875 28.421875 48.1875 
Q 40.625 48.1875 47.75 41.5 
Q 54.890625 34.8125 54.890625 23.390625 
Q 54.890625 11.625 47.5625 5.09375 
Q 40.234375 -1.421875 26.90625 -1.421875 
Q 22.3125 -1.421875 17.546875 -0.640625 
Q 12.796875 0.140625 7.71875 1.703125 
L 7.71875 11.625 
Q 12.109375 9.234375 16.796875 8.0625 
Q 21.484375 6.890625 26.703125 6.890625 
Q 35.15625 6.890625 40.078125 11.328125 
Q 45.015625 15.765625 45.015625 23.390625 
Q 45.015625 31 40.078125 35.4375 
Q 35.15625 39.890625 26.703125 39.890625 
Q 22.75 39.890625 18.8125 39.015625 
Q 14.890625 38.140625 10.796875 36.28125 
z
" id="DejaVuSans-53"/>
       </defs>
       <use xlink:href="#DejaVuSans-50"/>
       <use x="63.623047" xlink:href="#DejaVuSans-46"/>
       <use x="95.410156" xlink:href="#DejaVuSans-53"/>
      </g>
     </g>
    </g>
    <g id="xtick_3">
     <g id="line2d_3">
      <g>
       <use style="stroke:#000000;stroke-width:0.8;" x="136.004966" xlink:href="#mc286bbab27" y="242.44"/>
      </g>
     </g>
     <g id="text_3">
      <!-- 5.0 -->
      <g transform="translate(128.053403 257.038437)scale(0.1 -0.1)">
       <use xlink:href="#DejaVuSans-53"/>
       <use x="63.623047" xlink:href="#DejaVuSans-46"/>
       <use x="95.410156" xlink:href="#DejaVuSans-48"/>
      </g>
     </g>
    </g>
    <g id="xtick_4">
     <g id="line2d_4">
      <g>
       <use style="stroke:#000000;stroke-width:0.8;" x="173.696457" xlink:href="#mc286bbab27" y="242.44"/>
      </g>
     </g>
     <g id="text_4">
      <!-- 7.5 -->
      <g transform="translate(165.744894 257.038437)scale(0.1 -0.1)">
       <defs>
        <path d="M 8.203125 72.90625 
L 55.078125 72.90625 
L 55.078125 68.703125 
L 28.609375 0 
L 18.3125 0 
L 43.21875 64.59375 
L 8.203125 64.59375 
z
" id="DejaVuSans-55"/>
       </defs>
       <use xlink:href="#DejaVuSans-55"/>
       <use x="63.623047" xlink:href="#DejaVuSans-46"/>
       <use x="95.410156" xlink:href="#DejaVuSans-53"/>
      </g>
     </g>
    </g>
    <g id="xtick_5">
     <g id="line2d_5">
      <g>
       <use style="stroke:#000000;stroke-width:0.8;" x="211.387948" xlink:href="#mc286bbab27" y="242.44"/>
      </g>
     </g>
     <g id="text_5">
      <!-- 10.0 -->
      <g transform="translate(200.255135 257.038437)scale(0.1 -0.1)">
       <defs>
        <path d="M 12.40625 8.296875 
L 28.515625 8.296875 
L 28.515625 63.921875 
L 10.984375 60.40625 
L 10.984375 69.390625 
L 28.421875 72.90625 
L 38.28125 72.90625 
L 38.28125 8.296875 
L 54.390625 8.296875 
L 54.390625 0 
L 12.40625 0 
z
" id="DejaVuSans-49"/>
       </defs>
       <use xlink:href="#DejaVuSans-49"/>
       <use x="63.623047" xlink:href="#DejaVuSans-48"/>
       <use x="127.246094" xlink:href="#DejaVuSans-46"/>
       <use x="159.033203" xlink:href="#DejaVuSans-48"/>
      </g>
     </g>
    </g>
    <g id="xtick_6">
     <g id="line2d_6">
      <g>
       <use style="stroke:#000000;stroke-width:0.8;" x="249.079438" xlink:href="#mc286bbab27" y="242.44"/>
      </g>
     </g>
     <g id="text_6">
      <!-- 12.5 -->
      <g transform="translate(237.946626 257.038437)scale(0.1 -0.1)">
       <use xlink:href="#DejaVuSans-49"/>
       <use x="63.623047" xlink:href="#DejaVuSans-50"/>
       <use x="127.246094" xlink:href="#DejaVuSans-46"/>
       <use x="159.033203" xlink:href="#DejaVuSans-53"/>
      </g>
     </g>
    </g>
    <g id="text_7">
     <!-- Time (s) -->
     <g transform="translate(145.075423 270.716562)scale(0.1 -0.1)">
      <defs>
       <path d="M -0.296875 72.90625 
L 61.375 72.90625 
L 61.375 64.59375 
L 35.5 64.59375 
L 35.5 0 
L 25.59375 0 
L 25.59375 64.59375 
L -0.296875 64.59375 
z
" id="DejaVuSans-84"/>
       <path d="M 9.421875 54.6875 
L 18.40625 54.6875 
L 18.40625 0 
L 9.421875 0 
z
M 9.421875 75.984375 
L 18.40625 75.984375 
L 18.40625 64.59375 
L 9.421875 64.59375 
z
" id="DejaVuSans-105"/>
       <path d="M 52 44.1875 
Q 55.375 50.25 60.0625 53.125 
Q 64.75 56 71.09375 56 
Q 79.640625 56 84.28125 50.015625 
Q 88.921875 44.046875 88.921875 33.015625 
L 88.921875 0 
L 79.890625 0 
L 79.890625 32.71875 
Q 79.890625 40.578125 77.09375 44.375 
Q 74.3125 48.1875 68.609375 48.1875 
Q 61.625 48.1875 57.5625 43.546875 
Q 53.515625 38.921875 53.515625 30.90625 
L 53.515625 0 
L 44.484375 0 
L 44.484375 32.71875 
Q 44.484375 40.625 41.703125 44.40625 
Q 38.921875 48.1875 33.109375 48.1875 
Q 26.21875 48.1875 22.15625 43.53125 
Q 18.109375 38.875 18.109375 30.90625 
L 18.109375 0 
L 9.078125 0 
L 9.078125 54.6875 
L 18.109375 54.6875 
L 18.109375 46.1875 
Q 21.1875 51.21875 25.484375 53.609375 
Q 29.78125 56 35.6875 56 
Q 41.65625 56 45.828125 52.96875 
Q 50 49.953125 52 44.1875 
z
" id="DejaVuSans-109"/>
       <path d="M 56.203125 29.59375 
L 56.203125 25.203125 
L 14.890625 25.203125 
Q 15.484375 15.921875 20.484375 11.0625 
Q 25.484375 6.203125 34.421875 6.203125 
Q 39.59375 6.203125 44.453125 7.46875 
Q 49.3125 8.734375 54.109375 11.28125 
L 54.109375 2.78125 
Q 49.265625 0.734375 44.1875 -0.34375 
Q 39.109375 -1.421875 33.890625 -1.421875 
Q 20.796875 -1.421875 13.15625 6.1875 
Q 5.515625 13.8125 5.515625 26.8125 
Q 5.515625 40.234375 12.765625 48.109375 
Q 20.015625 56 32.328125 56 
Q 43.359375 56 49.78125 48.890625 
Q 56.203125 41.796875 56.203125 29.59375 
z
M 47.21875 32.234375 
Q 47.125 39.59375 43.09375 43.984375 
Q 39.0625 48.390625 32.421875 48.390625 
Q 24.90625 48.390625 20.390625 44.140625 
Q 15.875 39.890625 15.1875 32.171875 
z
" id="DejaVuSans-101"/>
       <path id="DejaVuSans-32"/>
       <path d="M 31 75.875 
Q 24.46875 64.65625 21.28125 53.65625 
Q 18.109375 42.671875 18.109375 31.390625 
Q 18.109375 20.125 21.3125 9.0625 
Q 24.515625 -2 31 -13.1875 
L 23.1875 -13.1875 
Q 15.875 -1.703125 12.234375 9.375 
Q 8.59375 20.453125 8.59375 31.390625 
Q 8.59375 42.28125 12.203125 53.3125 
Q 15.828125 64.359375 23.1875 75.875 
z
" id="DejaVuSans-40"/>
       <path d="M 44.28125 53.078125 
L 44.28125 44.578125 
Q 40.484375 46.53125 36.375 47.5 
Q 32.28125 48.484375 27.875 48.484375 
Q 21.1875 48.484375 17.84375 46.4375 
Q 14.5 44.390625 14.5 40.28125 
Q 14.5 37.15625 16.890625 35.375 
Q 19.28125 33.59375 26.515625 31.984375 
L 29.59375 31.296875 
Q 39.15625 29.25 43.1875 25.515625 
Q 47.21875 21.78125 47.21875 15.09375 
Q 47.21875 7.46875 41.1875 3.015625 
Q 35.15625 -1.421875 24.609375 -1.421875 
Q 20.21875 -1.421875 15.453125 -0.5625 
Q 10.6875 0.296875 5.421875 2 
L 5.421875 11.28125 
Q 10.40625 8.6875 15.234375 7.390625 
Q 20.0625 6.109375 24.8125 6.109375 
Q 31.15625 6.109375 34.5625 8.28125 
Q 37.984375 10.453125 37.984375 14.40625 
Q 37.984375 18.0625 35.515625 20.015625 
Q 33.0625 21.96875 24.703125 23.78125 
L 21.578125 24.515625 
Q 13.234375 26.265625 9.515625 29.90625 
Q 5.8125 33.546875 5.8125 39.890625 
Q 5.8125 47.609375 11.28125 51.796875 
Q 16.75 56 26.8125 56 
Q 31.78125 56 36.171875 55.265625 
Q 40.578125 54.546875 44.28125 53.078125 
z
" id="DejaVuSans-115"/>
       <path d="M 8.015625 75.875 
L 15.828125 75.875 
Q 23.140625 64.359375 26.78125 53.3125 
Q 30.421875 42.28125 30.421875 31.390625 
Q 30.421875 20.453125 26.78125 9.375 
Q 23.140625 -1.703125 15.828125 -13.1875 
L 8.015625 -13.1875 
Q 14.5 -2 17.703125 9.0625 
Q 20.90625 20.125 20.90625 31.390625 
Q 20.90625 42.671875 17.703125 53.65625 
Q 14.5 64.65625 8.015625 75.875 
z
" id="DejaVuSans-41"/>
      </defs>
      <use xlink:href="#DejaVuSans-84"/>
      <use x="57.958984" xlink:href="#DejaVuSans-105"/>
      <use x="85.742188" xlink:href="#DejaVuSans-109"/>
      <use x="183.154297" xlink:href="#DejaVuSans-101"/>
      <use x="244.677734" xlink:href="#DejaVuSans-32"/>
      <use x="276.464844" xlink:href="#DejaVuSans-40"/>
      <use x="315.478516" xlink:href="#DejaVuSans-115"/>
      <use x="367.578125" xlink:href="#DejaVuSans-41"/>
     </g>
    </g>
   </g>
   <g id="matplotlib.axis_2">
    <g id="ytick_1">
     <g id="line2d_7">
      <defs>
       <path d="M 0 0 
L -3.5 0 
" id="m8062bfbf81" style="stroke:#000000;stroke-width:0.8;"/>
      </defs>
      <g>
       <use style="stroke:#000000;stroke-width:0.8;" x="50.14375" xlink:href="#m8062bfbf81" y="231.747273"/>
      </g>
     </g>
     <g id="text_8">
      <!-- 0.00 -->
      <g transform="translate(20.878125 235.546491)scale(0.1 -0.1)">
       <use xlink:href="#DejaVuSans-48"/>
       <use x="63.623047" xlink:href="#DejaVuSans-46"/>
       <use x="95.410156" xlink:href="#DejaVuSans-48"/>
       <use x="159.033203" xlink:href="#DejaVuSans-48"/>
      </g>
     </g>
    </g>
    <g id="ytick_2">
     <g id="line2d_8">
      <g>
       <use style="stroke:#000000;stroke-width:0.8;" x="50.14375" xlink:href="#m8062bfbf81" y="197.711265"/>
      </g>
     </g>
     <g id="text_9">
      <!-- 0.05 -->
      <g transform="translate(20.878125 201.510483)scale(0.1 -0.1)">
       <use xlink:href="#DejaVuSans-48"/>
       <use x="63.623047" xlink:href="#DejaVuSans-46"/>
       <use x="95.410156" xlink:href="#DejaVuSans-48"/>
       <use x="159.033203" xlink:href="#DejaVuSans-53"/>
      </g>
     </g>
    </g>
    <g id="ytick_3">
     <g id="line2d_9">
      <g>
       <use style="stroke:#000000;stroke-width:0.8;" x="50.14375" xlink:href="#m8062bfbf81" y="163.675257"/>
      </g>
     </g>
     <g id="text_10">
      <!-- 0.10 -->
      <g transform="translate(20.878125 167.474475)scale(0.1 -0.1)">
       <use xlink:href="#DejaVuSans-48"/>
       <use x="63.623047" xlink:href="#DejaVuSans-46"/>
       <use x="95.410156" xlink:href="#DejaVuSans-49"/>
       <use x="159.033203" xlink:href="#DejaVuSans-48"/>
      </g>
     </g>
    </g>
    <g id="ytick_4">
     <g id="line2d_10">
      <g>
       <use style="stroke:#000000;stroke-width:0.8;" x="50.14375" xlink:href="#m8062bfbf81" y="129.639249"/>
      </g>
     </g>
     <g id="text_11">
      <!-- 0.15 -->
      <g transform="translate(20.878125 133.438467)scale(0.1 -0.1)">
       <use xlink:href="#DejaVuSans-48"/>
       <use x="63.623047" xlink:href="#DejaVuSans-46"/>
       <use x="95.410156" xlink:href="#DejaVuSans-49"/>
       <use x="159.033203" xlink:href="#DejaVuSans-53"/>
      </g>
     </g>
    </g>
    <g id="ytick_5">
     <g id="line2d_11">
      <g>
       <use style="stroke:#000000;stroke-width:0.8;" x="50.14375" xlink:href="#m8062bfbf81" y="95.603241"/>
      </g>
     </g>
     <g id="text_12">
      <!-- 0.20 -->
      <g transform="translate(20.878125 99.402459)scale(0.1 -0.1)">
       <use xlink:href="#DejaVuSans-48"/>
       <use x="63.623047" xlink:href="#DejaVuSans-46"/>
       <use x="95.410156" xlink:href="#DejaVuSans-50"/>
       <use x="159.033203" xlink:href="#DejaVuSans-48"/>
      </g>
     </g>
    </g>
    <g id="ytick_6">
     <g id="line2d_12">
      <g>
       <use style="stroke:#000000;stroke-width:0.8;" x="50.14375" xlink:href="#m8062bfbf81" y="61.567233"/>
      </g>
     </g>
     <g id="text_13">
      <!-- 0.25 -->
      <g transform="translate(20.878125 65.366451)scale(0.1 -0.1)">
       <use xlink:href="#DejaVuSans-48"/>
       <use x="63.623047" xlink:href="#DejaVuSans-46"/>
       <use x="95.410156" xlink:href="#DejaVuSans-50"/>
       <use x="159.033203" xlink:href="#DejaVuSans-53"/>
      </g>
     </g>
    </g>
    <g id="ytick_7">
     <g id="line2d_13">
      <g>
       <use style="stroke:#000000;stroke-width:0.8;" x="50.14375" xlink:href="#m8062bfbf81" y="27.531225"/>
      </g>
     </g>
     <g id="text_14">
      <!-- 0.30 -->
      <g transform="translate(20.878125 31.330443)scale(0.1 -0.1)">
       <defs>
        <path d="M 40.578125 39.3125 
Q 47.65625 37.796875 51.625 33 
Q 55.609375 28.21875 55.609375 21.1875 
Q 55.609375 10.40625 48.1875 4.484375 
Q 40.765625 -1.421875 27.09375 -1.421875 
Q 22.515625 -1.421875 17.65625 -0.515625 
Q 12.796875 0.390625 7.625 2.203125 
L 7.625 11.71875 
Q 11.71875 9.328125 16.59375 8.109375 
Q 21.484375 6.890625 26.8125 6.890625 
Q 36.078125 6.890625 40.9375 10.546875 
Q 45.796875 14.203125 45.796875 21.1875 
Q 45.796875 27.640625 41.28125 31.265625 
Q 36.765625 34.90625 28.71875 34.90625 
L 20.21875 34.90625 
L 20.21875 43.015625 
L 29.109375 43.015625 
Q 36.375 43.015625 40.234375 45.921875 
Q 44.09375 48.828125 44.09375 54.296875 
Q 44.09375 59.90625 40.109375 62.90625 
Q 36.140625 65.921875 28.71875 65.921875 
Q 24.65625 65.921875 20.015625 65.03125 
Q 15.375 64.15625 9.8125 62.3125 
L 9.8125 71.09375 
Q 15.4375 72.65625 20.34375 73.4375 
Q 25.25 74.21875 29.59375 74.21875 
Q 40.828125 74.21875 47.359375 69.109375 
Q 53.90625 64.015625 53.90625 55.328125 
Q 53.90625 49.265625 50.4375 45.09375 
Q 46.96875 40.921875 40.578125 39.3125 
z
" id="DejaVuSans-51"/>
       </defs>
       <use xlink:href="#DejaVuSans-48"/>
       <use x="63.623047" xlink:href="#DejaVuSans-46"/>
       <use x="95.410156" xlink:href="#DejaVuSans-51"/>
       <use x="159.033203" xlink:href="#DejaVuSans-48"/>
      </g>
     </g>
    </g>
    <g id="text_15">
     <!-- Mean Magnitude of Steering Angle(Clipped) -->
     <g transform="translate(14.798438 234.183281)rotate(-90)scale(0.1 -0.1)">
      <defs>
       <path d="M 9.8125 72.90625 
L 24.515625 72.90625 
L 43.109375 23.296875 
L 61.8125 72.90625 
L 76.515625 72.90625 
L 76.515625 0 
L 66.890625 0 
L 66.890625 64.015625 
L 48.09375 14.015625 
L 38.1875 14.015625 
L 19.390625 64.015625 
L 19.390625 0 
L 9.8125 0 
z
" id="DejaVuSans-77"/>
       <path d="M 34.28125 27.484375 
Q 23.390625 27.484375 19.1875 25 
Q 14.984375 22.515625 14.984375 16.5 
Q 14.984375 11.71875 18.140625 8.90625 
Q 21.296875 6.109375 26.703125 6.109375 
Q 34.1875 6.109375 38.703125 11.40625 
Q 43.21875 16.703125 43.21875 25.484375 
L 43.21875 27.484375 
z
M 52.203125 31.203125 
L 52.203125 0 
L 43.21875 0 
L 43.21875 8.296875 
Q 40.140625 3.328125 35.546875 0.953125 
Q 30.953125 -1.421875 24.3125 -1.421875 
Q 15.921875 -1.421875 10.953125 3.296875 
Q 6 8.015625 6 15.921875 
Q 6 25.140625 12.171875 29.828125 
Q 18.359375 34.515625 30.609375 34.515625 
L 43.21875 34.515625 
L 43.21875 35.40625 
Q 43.21875 41.609375 39.140625 45 
Q 35.0625 48.390625 27.6875 48.390625 
Q 23 48.390625 18.546875 47.265625 
Q 14.109375 46.140625 10.015625 43.890625 
L 10.015625 52.203125 
Q 14.9375 54.109375 19.578125 55.046875 
Q 24.21875 56 28.609375 56 
Q 40.484375 56 46.34375 49.84375 
Q 52.203125 43.703125 52.203125 31.203125 
z
" id="DejaVuSans-97"/>
       <path d="M 54.890625 33.015625 
L 54.890625 0 
L 45.90625 0 
L 45.90625 32.71875 
Q 45.90625 40.484375 42.875 44.328125 
Q 39.84375 48.1875 33.796875 48.1875 
Q 26.515625 48.1875 22.3125 43.546875 
Q 18.109375 38.921875 18.109375 30.90625 
L 18.109375 0 
L 9.078125 0 
L 9.078125 54.6875 
L 18.109375 54.6875 
L 18.109375 46.1875 
Q 21.34375 51.125 25.703125 53.5625 
Q 30.078125 56 35.796875 56 
Q 45.21875 56 50.046875 50.171875 
Q 54.890625 44.34375 54.890625 33.015625 
z
" id="DejaVuSans-110"/>
       <path d="M 45.40625 27.984375 
Q 45.40625 37.75 41.375 43.109375 
Q 37.359375 48.484375 30.078125 48.484375 
Q 22.859375 48.484375 18.828125 43.109375 
Q 14.796875 37.75 14.796875 27.984375 
Q 14.796875 18.265625 18.828125 12.890625 
Q 22.859375 7.515625 30.078125 7.515625 
Q 37.359375 7.515625 41.375 12.890625 
Q 45.40625 18.265625 45.40625 27.984375 
z
M 54.390625 6.78125 
Q 54.390625 -7.171875 48.1875 -13.984375 
Q 42 -20.796875 29.203125 -20.796875 
Q 24.46875 -20.796875 20.265625 -20.09375 
Q 16.0625 -19.390625 12.109375 -17.921875 
L 12.109375 -9.1875 
Q 16.0625 -11.328125 19.921875 -12.34375 
Q 23.78125 -13.375 27.78125 -13.375 
Q 36.625 -13.375 41.015625 -8.765625 
Q 45.40625 -4.15625 45.40625 5.171875 
L 45.40625 9.625 
Q 42.625 4.78125 38.28125 2.390625 
Q 33.9375 0 27.875 0 
Q 17.828125 0 11.671875 7.65625 
Q 5.515625 15.328125 5.515625 27.984375 
Q 5.515625 40.671875 11.671875 48.328125 
Q 17.828125 56 27.875 56 
Q 33.9375 56 38.28125 53.609375 
Q 42.625 51.21875 45.40625 46.390625 
L 45.40625 54.6875 
L 54.390625 54.6875 
z
" id="DejaVuSans-103"/>
       <path d="M 18.3125 70.21875 
L 18.3125 54.6875 
L 36.8125 54.6875 
L 36.8125 47.703125 
L 18.3125 47.703125 
L 18.3125 18.015625 
Q 18.3125 11.328125 20.140625 9.421875 
Q 21.96875 7.515625 27.59375 7.515625 
L 36.8125 7.515625 
L 36.8125 0 
L 27.59375 0 
Q 17.1875 0 13.234375 3.875 
Q 9.28125 7.765625 9.28125 18.015625 
L 9.28125 47.703125 
L 2.6875 47.703125 
L 2.6875 54.6875 
L 9.28125 54.6875 
L 9.28125 70.21875 
z
" id="DejaVuSans-116"/>
       <path d="M 8.5 21.578125 
L 8.5 54.6875 
L 17.484375 54.6875 
L 17.484375 21.921875 
Q 17.484375 14.15625 20.5 10.265625 
Q 23.53125 6.390625 29.59375 6.390625 
Q 36.859375 6.390625 41.078125 11.03125 
Q 45.3125 15.671875 45.3125 23.6875 
L 45.3125 54.6875 
L 54.296875 54.6875 
L 54.296875 0 
L 45.3125 0 
L 45.3125 8.40625 
Q 42.046875 3.421875 37.71875 1 
Q 33.40625 -1.421875 27.6875 -1.421875 
Q 18.265625 -1.421875 13.375 4.4375 
Q 8.5 10.296875 8.5 21.578125 
z
M 31.109375 56 
z
" id="DejaVuSans-117"/>
       <path d="M 45.40625 46.390625 
L 45.40625 75.984375 
L 54.390625 75.984375 
L 54.390625 0 
L 45.40625 0 
L 45.40625 8.203125 
Q 42.578125 3.328125 38.25 0.953125 
Q 33.9375 -1.421875 27.875 -1.421875 
Q 17.96875 -1.421875 11.734375 6.484375 
Q 5.515625 14.40625 5.515625 27.296875 
Q 5.515625 40.1875 11.734375 48.09375 
Q 17.96875 56 27.875 56 
Q 33.9375 56 38.25 53.625 
Q 42.578125 51.265625 45.40625 46.390625 
z
M 14.796875 27.296875 
Q 14.796875 17.390625 18.875 11.75 
Q 22.953125 6.109375 30.078125 6.109375 
Q 37.203125 6.109375 41.296875 11.75 
Q 45.40625 17.390625 45.40625 27.296875 
Q 45.40625 37.203125 41.296875 42.84375 
Q 37.203125 48.484375 30.078125 48.484375 
Q 22.953125 48.484375 18.875 42.84375 
Q 14.796875 37.203125 14.796875 27.296875 
z
" id="DejaVuSans-100"/>
       <path d="M 30.609375 48.390625 
Q 23.390625 48.390625 19.1875 42.75 
Q 14.984375 37.109375 14.984375 27.296875 
Q 14.984375 17.484375 19.15625 11.84375 
Q 23.34375 6.203125 30.609375 6.203125 
Q 37.796875 6.203125 41.984375 11.859375 
Q 46.1875 17.53125 46.1875 27.296875 
Q 46.1875 37.015625 41.984375 42.703125 
Q 37.796875 48.390625 30.609375 48.390625 
z
M 30.609375 56 
Q 42.328125 56 49.015625 48.375 
Q 55.71875 40.765625 55.71875 27.296875 
Q 55.71875 13.875 49.015625 6.21875 
Q 42.328125 -1.421875 30.609375 -1.421875 
Q 18.84375 -1.421875 12.171875 6.21875 
Q 5.515625 13.875 5.515625 27.296875 
Q 5.515625 40.765625 12.171875 48.375 
Q 18.84375 56 30.609375 56 
z
" id="DejaVuSans-111"/>
       <path d="M 37.109375 75.984375 
L 37.109375 68.5 
L 28.515625 68.5 
Q 23.6875 68.5 21.796875 66.546875 
Q 19.921875 64.59375 19.921875 59.515625 
L 19.921875 54.6875 
L 34.71875 54.6875 
L 34.71875 47.703125 
L 19.921875 47.703125 
L 19.921875 0 
L 10.890625 0 
L 10.890625 47.703125 
L 2.296875 47.703125 
L 2.296875 54.6875 
L 10.890625 54.6875 
L 10.890625 58.5 
Q 10.890625 67.625 15.140625 71.796875 
Q 19.390625 75.984375 28.609375 75.984375 
z
" id="DejaVuSans-102"/>
       <path d="M 53.515625 70.515625 
L 53.515625 60.890625 
Q 47.90625 63.578125 42.921875 64.890625 
Q 37.9375 66.21875 33.296875 66.21875 
Q 25.25 66.21875 20.875 63.09375 
Q 16.5 59.96875 16.5 54.203125 
Q 16.5 49.359375 19.40625 46.890625 
Q 22.3125 44.4375 30.421875 42.921875 
L 36.375 41.703125 
Q 47.40625 39.59375 52.65625 34.296875 
Q 57.90625 29 57.90625 20.125 
Q 57.90625 9.515625 50.796875 4.046875 
Q 43.703125 -1.421875 29.984375 -1.421875 
Q 24.8125 -1.421875 18.96875 -0.25 
Q 13.140625 0.921875 6.890625 3.21875 
L 6.890625 13.375 
Q 12.890625 10.015625 18.65625 8.296875 
Q 24.421875 6.59375 29.984375 6.59375 
Q 38.421875 6.59375 43.015625 9.90625 
Q 47.609375 13.234375 47.609375 19.390625 
Q 47.609375 24.75 44.3125 27.78125 
Q 41.015625 30.8125 33.5 32.328125 
L 27.484375 33.5 
Q 16.453125 35.6875 11.515625 40.375 
Q 6.59375 45.0625 6.59375 53.421875 
Q 6.59375 63.09375 13.40625 68.65625 
Q 20.21875 74.21875 32.171875 74.21875 
Q 37.3125 74.21875 42.625 73.28125 
Q 47.953125 72.359375 53.515625 70.515625 
z
" id="DejaVuSans-83"/>
       <path d="M 41.109375 46.296875 
Q 39.59375 47.171875 37.8125 47.578125 
Q 36.03125 48 33.890625 48 
Q 26.265625 48 22.1875 43.046875 
Q 18.109375 38.09375 18.109375 28.8125 
L 18.109375 0 
L 9.078125 0 
L 9.078125 54.6875 
L 18.109375 54.6875 
L 18.109375 46.1875 
Q 20.953125 51.171875 25.484375 53.578125 
Q 30.03125 56 36.53125 56 
Q 37.453125 56 38.578125 55.875 
Q 39.703125 55.765625 41.0625 55.515625 
z
" id="DejaVuSans-114"/>
       <path d="M 34.1875 63.1875 
L 20.796875 26.90625 
L 47.609375 26.90625 
z
M 28.609375 72.90625 
L 39.796875 72.90625 
L 67.578125 0 
L 57.328125 0 
L 50.6875 18.703125 
L 17.828125 18.703125 
L 11.1875 0 
L 0.78125 0 
z
" id="DejaVuSans-65"/>
       <path d="M 9.421875 75.984375 
L 18.40625 75.984375 
L 18.40625 0 
L 9.421875 0 
z
" id="DejaVuSans-108"/>
       <path d="M 64.40625 67.28125 
L 64.40625 56.890625 
Q 59.421875 61.53125 53.78125 63.8125 
Q 48.140625 66.109375 41.796875 66.109375 
Q 29.296875 66.109375 22.65625 58.46875 
Q 16.015625 50.828125 16.015625 36.375 
Q 16.015625 21.96875 22.65625 14.328125 
Q 29.296875 6.6875 41.796875 6.6875 
Q 48.140625 6.6875 53.78125 8.984375 
Q 59.421875 11.28125 64.40625 15.921875 
L 64.40625 5.609375 
Q 59.234375 2.09375 53.4375 0.328125 
Q 47.65625 -1.421875 41.21875 -1.421875 
Q 24.65625 -1.421875 15.125 8.703125 
Q 5.609375 18.84375 5.609375 36.375 
Q 5.609375 53.953125 15.125 64.078125 
Q 24.65625 74.21875 41.21875 74.21875 
Q 47.75 74.21875 53.53125 72.484375 
Q 59.328125 70.75 64.40625 67.28125 
z
" id="DejaVuSans-67"/>
       <path d="M 18.109375 8.203125 
L 18.109375 -20.796875 
L 9.078125 -20.796875 
L 9.078125 54.6875 
L 18.109375 54.6875 
L 18.109375 46.390625 
Q 20.953125 51.265625 25.265625 53.625 
Q 29.59375 56 35.59375 56 
Q 45.5625 56 51.78125 48.09375 
Q 58.015625 40.1875 58.015625 27.296875 
Q 58.015625 14.40625 51.78125 6.484375 
Q 45.5625 -1.421875 35.59375 -1.421875 
Q 29.59375 -1.421875 25.265625 0.953125 
Q 20.953125 3.328125 18.109375 8.203125 
z
M 48.6875 27.296875 
Q 48.6875 37.203125 44.609375 42.84375 
Q 40.53125 48.484375 33.40625 48.484375 
Q 26.265625 48.484375 22.1875 42.84375 
Q 18.109375 37.203125 18.109375 27.296875 
Q 18.109375 17.390625 22.1875 11.75 
Q 26.265625 6.109375 33.40625 6.109375 
Q 40.53125 6.109375 44.609375 11.75 
Q 48.6875 17.390625 48.6875 27.296875 
z
" id="DejaVuSans-112"/>
      </defs>
      <use xlink:href="#DejaVuSans-77"/>
      <use x="86.279297" xlink:href="#DejaVuSans-101"/>
      <use x="147.802734" xlink:href="#DejaVuSans-97"/>
      <use x="209.082031" xlink:href="#DejaVuSans-110"/>
      <use x="272.460938" xlink:href="#DejaVuSans-32"/>
      <use x="304.248047" xlink:href="#DejaVuSans-77"/>
      <use x="390.527344" xlink:href="#DejaVuSans-97"/>
      <use x="451.806641" xlink:href="#DejaVuSans-103"/>
      <use x="515.283203" xlink:href="#DejaVuSans-110"/>
      <use x="578.662109" xlink:href="#DejaVuSans-105"/>
      <use x="606.445312" xlink:href="#DejaVuSans-116"/>
      <use x="645.654297" xlink:href="#DejaVuSans-117"/>
      <use x="709.033203" xlink:href="#DejaVuSans-100"/>
      <use x="772.509766" xlink:href="#DejaVuSans-101"/>
      <use x="834.033203" xlink:href="#DejaVuSans-32"/>
      <use x="865.820312" xlink:href="#DejaVuSans-111"/>
      <use x="927.001953" xlink:href="#DejaVuSans-102"/>
      <use x="962.207031" xlink:href="#DejaVuSans-32"/>
      <use x="993.994141" xlink:href="#DejaVuSans-83"/>
      <use x="1057.470703" xlink:href="#DejaVuSans-116"/>
      <use x="1096.679688" xlink:href="#DejaVuSans-101"/>
      <use x="1158.203125" xlink:href="#DejaVuSans-101"/>
      <use x="1219.726562" xlink:href="#DejaVuSans-114"/>
      <use x="1260.839844" xlink:href="#DejaVuSans-105"/>
      <use x="1288.623047" xlink:href="#DejaVuSans-110"/>
      <use x="1352.001953" xlink:href="#DejaVuSans-103"/>
      <use x="1415.478516" xlink:href="#DejaVuSans-32"/>
      <use x="1447.265625" xlink:href="#DejaVuSans-65"/>
      <use x="1515.673828" xlink:href="#DejaVuSans-110"/>
      <use x="1579.052734" xlink:href="#DejaVuSans-103"/>
      <use x="1642.529297" xlink:href="#DejaVuSans-108"/>
      <use x="1670.3125" xlink:href="#DejaVuSans-101"/>
      <use x="1731.835938" xlink:href="#DejaVuSans-40"/>
      <use x="1770.849609" xlink:href="#DejaVuSans-67"/>
      <use x="1840.673828" xlink:href="#DejaVuSans-108"/>
      <use x="1868.457031" xlink:href="#DejaVuSans-105"/>
      <use x="1896.240234" xlink:href="#DejaVuSans-112"/>
      <use x="1959.716797" xlink:href="#DejaVuSans-112"/>
      <use x="2023.193359" xlink:href="#DejaVuSans-101"/>
      <use x="2084.716797" xlink:href="#DejaVuSans-100"/>
      <use x="2148.193359" xlink:href="#DejaVuSans-41"/>
     </g>
    </g>
   </g>
   <g id="line2d_14">
    <path clip-path="url(#p9490881540)" d="M 60.621984 231.747273 
L 270.186673 231.747273 
L 270.186673 231.747273 
" style="fill:none;stroke:#000000;stroke-linecap:square;stroke-width:0.5;"/>
   </g>
   <g id="line2d_15">
    <path clip-path="url(#p9490881540)" d="M 60.621984 17.892727 
L 270.186673 17.892727 
L 270.186673 17.892727 
" style="fill:none;stroke:#000000;stroke-linecap:square;stroke-width:0.5;"/>
   </g>
   <g id="line2d_16">
    <path clip-path="url(#p9490881540)" d="M 60.621984 162.358646 
L 62.129644 191.898887 
L 63.637304 202.281229 
L 65.144963 201.508215 
L 66.652623 196.97652 
L 69.667942 192.699697 
L 71.175602 189.158592 
L 72.683261 188.762587 
L 75.698581 190.107645 
L 77.20624 192.9509 
L 78.7139 192.05075 
L 80.22156 188.70265 
L 81.729219 188.726613 
L 83.236879 188.953896 
L 84.744539 188.704948 
L 86.252198 188.967527 
L 87.759858 187.384805 
L 89.267517 185.157864 
L 90.775177 184.494233 
L 92.282837 182.583276 
L 93.790496 182.512159 
L 95.298156 183.388249 
L 96.805816 184.067443 
L 98.313475 182.266386 
L 99.821135 183.002821 
L 101.328794 182.922401 
L 102.836454 184.136515 
L 104.344114 183.314447 
L 105.851773 182.662286 
L 107.359433 182.39707 
L 108.867093 183.58919 
L 110.374752 183.408016 
L 111.882412 184.272136 
L 113.390072 184.587558 
L 114.897731 186.195281 
L 116.405391 186.040327 
L 117.91305 187.517718 
L 119.42071 188.473362 
L 120.92837 188.501363 
L 122.436029 187.198133 
L 123.943689 189.480204 
L 126.959008 187.215958 
L 128.466668 189.650575 
L 129.974327 189.992783 
L 131.481987 188.790163 
L 132.989647 188.793208 
L 134.497306 188.509136 
L 136.004966 189.834249 
L 139.020285 191.422094 
L 140.527945 190.905415 
L 142.035605 192.304858 
L 143.543264 194.18046 
L 145.050924 192.865882 
L 146.558583 191.228944 
L 148.066243 192.990625 
L 149.573903 193.901167 
L 151.081562 195.014086 
L 152.589222 196.47628 
L 154.096882 196.628384 
L 155.604541 193.584299 
L 157.112201 196.280205 
L 158.61986 195.18002 
L 160.12752 195.150816 
L 161.63518 194.951594 
L 163.142839 195.369193 
L 164.650499 195.622724 
L 166.158159 194.84179 
L 167.665818 196.476283 
L 169.173478 197.418656 
L 172.188797 197.580359 
L 173.696457 194.809521 
L 175.204116 197.52676 
L 176.711776 194.847092 
L 178.219436 196.016461 
L 179.727095 197.841308 
L 181.234755 197.450932 
L 182.742415 197.858699 
L 184.250074 198.118923 
L 185.757734 197.849305 
L 187.265393 195.675267 
L 188.773053 194.902954 
L 190.280713 198.513587 
L 191.788372 197.476339 
L 193.296032 198.609698 
L 194.803692 197.213183 
L 196.311351 197.247094 
L 197.819011 199.343332 
L 199.326671 199.826591 
L 200.83433 197.276476 
L 202.34199 197.552317 
L 203.849649 198.853914 
L 205.357309 198.071328 
L 208.372628 200.198144 
L 209.880288 200.973199 
L 211.387948 199.531895 
L 212.895607 199.174393 
L 214.403267 198.650014 
L 215.910926 199.375749 
L 217.418586 199.293048 
L 218.926246 199.097849 
L 220.433905 199.784888 
L 223.449225 198.791069 
L 224.956884 198.549822 
L 226.464544 198.820073 
L 227.972204 199.488947 
L 229.479863 199.32726 
L 230.987523 200.572616 
L 232.495182 201.470801 
L 234.002842 199.604714 
L 235.510502 199.174345 
L 238.525821 198.947222 
L 240.033481 200.290224 
L 241.54114 199.537859 
L 243.0488 199.985047 
L 244.556459 201.262835 
L 246.064119 200.760304 
L 247.571779 199.882728 
L 249.079438 199.385337 
L 250.587098 200.561572 
L 252.094758 202.069205 
L 253.602417 201.830527 
L 255.110077 201.256789 
L 256.617736 203.220114 
L 258.125396 203.204141 
L 259.633056 201.452658 
L 262.648375 202.230914 
L 264.156035 201.162106 
L 265.663694 201.379355 
L 270.186673 202.845117 
L 270.186673 202.845117 
" style="fill:none;stroke:#1f77b4;stroke-linecap:square;stroke-width:1.5;"/>
   </g>
   <g id="line2d_17">
    <path clip-path="url(#p9490881540)" d="M 60.621984 231.747273 
L 270.186673 231.747273 
L 270.186673 231.747273 
" style="fill:none;stroke:#000000;stroke-linecap:square;stroke-width:0.5;"/>
   </g>
   <g id="line2d_18">
    <path clip-path="url(#p9490881540)" d="M 60.621984 17.892727 
L 270.186673 17.892727 
L 270.186673 17.892727 
" style="fill:none;stroke:#000000;stroke-linecap:square;stroke-width:0.5;"/>
   </g>
   <g id="line2d_19">
    <path clip-path="url(#p9490881540)" d="M 60.621984 70.006465 
L 62.129644 98.12266 
L 63.637304 153.805838 
L 66.652623 166.181569 
L 68.160283 149.508743 
L 69.667942 136.729602 
L 71.175602 127.382738 
L 72.683261 126.524679 
L 74.190921 137.460605 
L 75.698581 147.221897 
L 77.20624 142.791473 
L 78.7139 134.582615 
L 80.22156 133.575553 
L 81.729219 131.178859 
L 83.236879 135.121703 
L 84.744539 137.380008 
L 86.252198 138.765991 
L 87.759858 131.772121 
L 89.267517 130.851351 
L 90.775177 136.187594 
L 92.282837 140.151876 
L 93.790496 141.809092 
L 95.298156 141.508476 
L 96.805816 135.28504 
L 98.313475 132.655175 
L 99.821135 133.701533 
L 101.328794 132.612717 
L 102.836454 134.735246 
L 104.344114 132.198289 
L 107.359433 134.106753 
L 108.867093 138.86386 
L 110.374752 136.545762 
L 111.882412 135.588507 
L 113.390072 135.251331 
L 114.897731 133.568473 
L 116.405391 132.893361 
L 117.91305 131.48237 
L 119.42071 132.166587 
L 120.92837 126.527433 
L 122.436029 122.998643 
L 123.943689 123.862095 
L 125.451349 125.757104 
L 126.959008 125.13748 
L 128.466668 131.004486 
L 129.974327 126.555982 
L 131.481987 130.15707 
L 132.989647 125.902514 
L 136.004966 124.005866 
L 137.512626 124.175773 
L 139.020285 126.181685 
L 140.527945 122.743193 
L 142.035605 123.780628 
L 143.543264 120.57042 
L 145.050924 124.236453 
L 146.558583 126.311538 
L 148.066243 127.795386 
L 149.573903 128.0875 
L 151.081562 127.622842 
L 152.589222 124.610129 
L 154.096882 124.398939 
L 155.604541 123.446396 
L 157.112201 122.254065 
L 158.61986 124.078042 
L 160.12752 123.692733 
L 161.63518 124.716794 
L 163.142839 127.314681 
L 164.650499 127.126407 
L 166.158159 127.385837 
L 167.665818 127.121278 
L 170.681138 122.624444 
L 172.188797 124.571168 
L 173.696457 122.519346 
L 175.204116 124.335198 
L 176.711776 124.925039 
L 178.219436 121.521289 
L 181.234755 125.808725 
L 182.742415 123.315786 
L 184.250074 120.349319 
L 185.757734 124.373741 
L 187.265393 123.007301 
L 188.773053 123.186703 
L 190.280713 122.317521 
L 191.788372 125.973918 
L 193.296032 123.232902 
L 194.803692 125.992382 
L 196.311351 124.956118 
L 197.819011 120.894835 
L 199.326671 119.448499 
L 200.83433 120.384821 
L 202.34199 123.789036 
L 203.849649 126.054093 
L 205.357309 127.530683 
L 206.864969 120.657836 
L 208.372628 119.912903 
L 209.880288 122.670214 
L 211.387948 121.27043 
L 212.895607 123.395871 
L 214.403267 120.069229 
L 215.910926 127.285269 
L 217.418586 124.238789 
L 218.926246 123.883879 
L 220.433905 124.551977 
L 221.941565 122.22857 
L 223.449225 122.268939 
L 224.956884 119.86339 
L 226.464544 119.347056 
L 227.972204 122.794456 
L 229.479863 118.949184 
L 230.987523 119.393221 
L 232.495182 118.614379 
L 234.002842 124.960486 
L 235.510502 123.207806 
L 237.018161 123.099032 
L 238.525821 120.882889 
L 240.033481 122.709823 
L 241.54114 120.800951 
L 244.556459 122.853849 
L 246.064119 123.543153 
L 247.571779 125.718489 
L 249.079438 128.723379 
L 250.587098 124.178197 
L 252.094758 125.791337 
L 253.602417 124.300871 
L 255.110077 123.483394 
L 256.617736 123.920343 
L 258.125396 126.696603 
L 259.633056 128.171108 
L 261.140715 128.414286 
L 262.648375 123.818973 
L 264.156035 124.991792 
L 265.663694 125.124084 
L 267.171354 125.061906 
L 268.679014 126.524116 
L 270.186673 128.39975 
L 270.186673 128.39975 
" style="fill:none;stroke:#ff7f0e;stroke-linecap:square;stroke-width:1.5;"/>
   </g>
   <g id="line2d_20">
    <path clip-path="url(#p9490881540)" d="M 60.621984 231.747273 
L 270.186673 231.747273 
L 270.186673 231.747273 
" style="fill:none;stroke:#000000;stroke-linecap:square;stroke-width:0.5;"/>
   </g>
   <g id="line2d_21">
    <path clip-path="url(#p9490881540)" d="M 60.621984 17.892727 
L 270.186673 17.892727 
L 270.186673 17.892727 
" style="fill:none;stroke:#000000;stroke-linecap:square;stroke-width:0.5;"/>
   </g>
   <g id="line2d_22">
    <path clip-path="url(#p9490881540)" d="M 60.621984 138.13037 
L 62.129644 125.488832 
L 63.637304 173.173467 
L 65.144963 185.024031 
L 66.652623 188.081658 
L 68.160283 169.221383 
L 69.667942 152.388303 
L 71.175602 156.489235 
L 72.683261 152.845527 
L 74.190921 154.019452 
L 75.698581 159.914107 
L 77.20624 158.189112 
L 78.7139 156.880445 
L 80.22156 160.115919 
L 81.729219 159.304694 
L 83.236879 163.529542 
L 84.744539 163.766179 
L 86.252198 161.291595 
L 87.759858 160.926482 
L 89.267517 160.418519 
L 90.775177 162.016418 
L 92.282837 164.179997 
L 93.790496 162.309282 
L 95.298156 163.688355 
L 96.805816 161.130219 
L 98.313475 165.172916 
L 99.821135 163.088543 
L 101.328794 163.640641 
L 102.836454 158.394706 
L 104.344114 158.777122 
L 105.851773 160.175572 
L 107.359433 163.506685 
L 108.867093 161.477909 
L 110.374752 163.123932 
L 111.882412 164.552049 
L 113.390072 162.372152 
L 114.897731 159.748506 
L 116.405391 158.484282 
L 117.91305 160.687002 
L 119.42071 156.060286 
L 120.92837 155.927287 
L 122.436029 156.205386 
L 123.943689 156.816341 
L 125.451349 159.584272 
L 126.959008 158.409797 
L 129.974327 160.394282 
L 131.481987 157.649889 
L 132.989647 159.193164 
L 136.004966 153.109304 
L 137.512626 153.242419 
L 139.020285 153.959605 
L 140.527945 155.844697 
L 142.035605 155.862513 
L 143.543264 153.410817 
L 145.050924 154.98089 
L 146.558583 155.317389 
L 148.066243 153.374188 
L 149.573903 157.531548 
L 151.081562 156.387327 
L 152.589222 161.420059 
L 154.096882 158.718405 
L 155.604541 159.244474 
L 157.112201 158.735895 
L 158.61986 157.708006 
L 160.12752 160.020939 
L 161.63518 157.06119 
L 163.142839 155.679204 
L 164.650499 157.167238 
L 166.158159 158.824089 
L 167.665818 160.797363 
L 169.173478 159.517816 
L 170.681138 160.09246 
L 172.188797 161.778579 
L 173.696457 161.134861 
L 175.204116 163.016424 
L 176.711776 160.449445 
L 178.219436 158.561151 
L 179.727095 159.549823 
L 181.234755 160.961137 
L 182.742415 159.918806 
L 184.250074 160.531943 
L 185.757734 162.723564 
L 187.265393 162.397419 
L 188.773053 160.286456 
L 190.280713 161.02416 
L 191.788372 162.37808 
L 193.296032 161.180973 
L 194.803692 160.544271 
L 197.819011 162.463754 
L 199.326671 163.462774 
L 200.83433 158.438259 
L 202.34199 160.502977 
L 203.849649 160.373256 
L 205.357309 155.034014 
L 206.864969 157.144037 
L 208.372628 160.930467 
L 211.387948 164.214111 
L 212.895607 161.544248 
L 215.910926 159.902849 
L 217.418586 160.302597 
L 218.926246 160.496701 
L 220.433905 163.472318 
L 221.941565 162.38765 
L 223.449225 167.147576 
L 224.956884 166.173895 
L 226.464544 166.575255 
L 227.972204 168.180497 
L 229.479863 169.425351 
L 232.495182 166.075764 
L 234.002842 166.972686 
L 235.510502 163.783181 
L 237.018161 163.949341 
L 238.525821 167.113464 
L 240.033481 161.657792 
L 241.54114 164.128634 
L 243.0488 165.689291 
L 246.064119 165.383214 
L 247.571779 166.303986 
L 249.079438 167.357212 
L 250.587098 165.973114 
L 252.094758 164.91012 
L 253.602417 164.577201 
L 256.617736 162.967471 
L 258.125396 164.583196 
L 259.633056 162.717438 
L 261.140715 167.138775 
L 262.648375 165.90398 
L 264.156035 160.777451 
L 265.663694 164.514517 
L 267.171354 165.086835 
L 268.679014 162.677911 
L 270.186673 165.892054 
L 270.186673 165.892054 
" style="fill:none;stroke:#2ca02c;stroke-linecap:square;stroke-width:1.5;"/>
   </g>
   <g id="line2d_23">
    <path clip-path="url(#p9490881540)" d="M 60.621984 231.747273 
L 270.186673 231.747273 
L 270.186673 231.747273 
" style="fill:none;stroke:#000000;stroke-linecap:square;stroke-width:0.5;"/>
   </g>
   <g id="line2d_24">
    <path clip-path="url(#p9490881540)" d="M 60.621984 17.892727 
L 270.186673 17.892727 
L 270.186673 17.892727 
" style="fill:none;stroke:#000000;stroke-linecap:square;stroke-width:0.5;"/>
   </g>
   <g id="line2d_25">
    <path clip-path="url(#p9490881540)" d="M 60.621984 141.257205 
L 62.129644 129.915108 
L 63.637304 174.972834 
L 65.144963 186.815864 
L 66.652623 187.251908 
L 68.160283 171.930542 
L 69.667942 159.392205 
L 71.175602 159.16857 
L 72.683261 156.326611 
L 74.190921 156.32701 
L 75.698581 160.493578 
L 77.20624 162.325197 
L 78.7139 161.570326 
L 80.22156 160.258093 
L 81.729219 159.405815 
L 83.236879 160.994039 
L 84.744539 164.405939 
L 86.252198 160.393314 
L 87.759858 163.956531 
L 89.267517 163.508939 
L 93.790496 169.818758 
L 95.298156 167.078729 
L 96.805816 163.526605 
L 98.313475 163.245241 
L 99.821135 163.739156 
L 101.328794 162.191838 
L 102.836454 159.778095 
L 104.344114 160.889008 
L 105.851773 164.480108 
L 107.359433 163.182443 
L 108.867093 162.724642 
L 110.374752 166.298673 
L 111.882412 164.334615 
L 113.390072 167.563607 
L 114.897731 165.77434 
L 116.405391 163.070384 
L 117.91305 160.740319 
L 119.42071 161.141756 
L 120.92837 162.378802 
L 122.436029 162.971492 
L 123.943689 161.994613 
L 125.451349 163.463656 
L 126.959008 163.380565 
L 128.466668 160.634279 
L 129.974327 160.316292 
L 131.481987 164.162458 
L 132.989647 162.469244 
L 134.497306 158.249121 
L 136.004966 157.215392 
L 137.512626 157.124764 
L 139.020285 158.61047 
L 140.527945 160.326196 
L 142.035605 159.591152 
L 143.543264 160.588032 
L 145.050924 164.057558 
L 146.558583 164.247507 
L 148.066243 158.996003 
L 149.573903 164.103034 
L 151.081562 165.361837 
L 152.589222 164.322044 
L 154.096882 160.718105 
L 155.604541 163.351654 
L 158.61986 162.297128 
L 160.12752 162.459418 
L 161.63518 163.716089 
L 163.142839 162.011775 
L 164.650499 163.796842 
L 166.158159 163.42351 
L 167.665818 166.457581 
L 169.173478 165.019524 
L 170.681138 166.522183 
L 172.188797 167.266281 
L 173.696457 164.153789 
L 175.204116 163.267715 
L 176.711776 162.236903 
L 178.219436 165.765693 
L 179.727095 170.119895 
L 181.234755 169.563099 
L 182.742415 164.411801 
L 184.250074 167.140605 
L 185.757734 167.130531 
L 187.265393 169.424248 
L 188.773053 167.718181 
L 190.280713 165.66532 
L 191.788372 164.472578 
L 193.296032 162.120202 
L 194.803692 166.331717 
L 196.311351 168.244137 
L 197.819011 169.412133 
L 199.326671 165.497569 
L 200.83433 165.032518 
L 202.34199 163.590202 
L 203.849649 158.42278 
L 205.357309 161.555707 
L 206.864969 162.486328 
L 208.372628 163.161446 
L 209.880288 164.645409 
L 211.387948 163.323575 
L 214.403267 164.803115 
L 215.910926 167.423151 
L 217.418586 167.202002 
L 218.926246 161.785433 
L 220.433905 162.825245 
L 223.449225 172.53901 
L 224.956884 172.016435 
L 226.464544 168.977223 
L 227.972204 170.536513 
L 229.479863 168.264562 
L 230.987523 169.514364 
L 232.495182 170.28048 
L 234.002842 170.628773 
L 235.510502 168.898209 
L 237.018161 167.79571 
L 238.525821 166.038451 
L 240.033481 169.744721 
L 241.54114 172.987395 
L 243.0488 172.351059 
L 244.556459 171.504788 
L 246.064119 171.843256 
L 247.571779 172.026861 
L 249.079438 168.63909 
L 252.094758 170.468864 
L 253.602417 171.833865 
L 255.110077 167.874763 
L 256.617736 168.930548 
L 258.125396 169.531895 
L 259.633056 169.663656 
L 261.140715 171.457158 
L 262.648375 169.865211 
L 264.156035 170.368853 
L 265.663694 170.52031 
L 267.171354 169.462744 
L 268.679014 167.933156 
L 270.186673 167.749227 
L 270.186673 167.749227 
" style="fill:none;stroke:#d62728;stroke-linecap:square;stroke-width:1.5;"/>
   </g>
   <g id="patch_3">
    <path d="M 50.14375 242.44 
L 50.14375 7.2 
" style="fill:none;stroke:#000000;stroke-linecap:square;stroke-linejoin:miter;stroke-width:0.8;"/>
   </g>
   <g id="patch_4">
    <path d="M 280.664908 242.44 
L 280.664908 7.2 
" style="fill:none;stroke:#000000;stroke-linecap:square;stroke-linejoin:miter;stroke-width:0.8;"/>
   </g>
   <g id="patch_5">
    <path d="M 50.14375 242.44 
L 280.664908 242.44 
" style="fill:none;stroke:#000000;stroke-linecap:square;stroke-linejoin:miter;stroke-width:0.8;"/>
   </g>
   <g id="patch_6">
    <path d="M 50.14375 7.2 
L 280.664908 7.2 
" style="fill:none;stroke:#000000;stroke-linecap:square;stroke-linejoin:miter;stroke-width:0.8;"/>
   </g>
  </g>
  <g id="axes_2">
   <g id="patch_7">
    <path d="M 330.802592 242.44 
L 561.32375 242.44 
L 561.32375 7.2 
L 330.802592 7.2 
z
" style="fill:#ffffff;"/>
   </g>
   <g id="matplotlib.axis_3">
    <g id="xtick_7">
     <g id="line2d_26">
      <g>
       <use style="stroke:#000000;stroke-width:0.8;" x="341.280827" xlink:href="#mc286bbab27" y="242.44"/>
      </g>
     </g>
     <g id="text_16">
      <!-- 0.00 -->
      <g transform="translate(330.148014 257.038437)scale(0.1 -0.1)">
       <use xlink:href="#DejaVuSans-48"/>
       <use x="63.623047" xlink:href="#DejaVuSans-46"/>
       <use x="95.410156" xlink:href="#DejaVuSans-48"/>
       <use x="159.033203" xlink:href="#DejaVuSans-48"/>
      </g>
     </g>
    </g>
    <g id="xtick_8">
     <g id="line2d_27">
      <g>
       <use style="stroke:#000000;stroke-width:0.8;" x="374.634083" xlink:href="#mc286bbab27" y="242.44"/>
      </g>
     </g>
     <g id="text_17">
      <!-- 0.05 -->
      <g transform="translate(363.50127 257.038437)scale(0.1 -0.1)">
       <use xlink:href="#DejaVuSans-48"/>
       <use x="63.623047" xlink:href="#DejaVuSans-46"/>
       <use x="95.410156" xlink:href="#DejaVuSans-48"/>
       <use x="159.033203" xlink:href="#DejaVuSans-53"/>
      </g>
     </g>
    </g>
    <g id="xtick_9">
     <g id="line2d_28">
      <g>
       <use style="stroke:#000000;stroke-width:0.8;" x="407.987339" xlink:href="#mc286bbab27" y="242.44"/>
      </g>
     </g>
     <g id="text_18">
      <!-- 0.10 -->
      <g transform="translate(396.854527 257.038437)scale(0.1 -0.1)">
       <use xlink:href="#DejaVuSans-48"/>
       <use x="63.623047" xlink:href="#DejaVuSans-46"/>
       <use x="95.410156" xlink:href="#DejaVuSans-49"/>
       <use x="159.033203" xlink:href="#DejaVuSans-48"/>
      </g>
     </g>
    </g>
    <g id="xtick_10">
     <g id="line2d_29">
      <g>
       <use style="stroke:#000000;stroke-width:0.8;" x="441.340595" xlink:href="#mc286bbab27" y="242.44"/>
      </g>
     </g>
     <g id="text_19">
      <!-- 0.15 -->
      <g transform="translate(430.207783 257.038437)scale(0.1 -0.1)">
       <use xlink:href="#DejaVuSans-48"/>
       <use x="63.623047" xlink:href="#DejaVuSans-46"/>
       <use x="95.410156" xlink:href="#DejaVuSans-49"/>
       <use x="159.033203" xlink:href="#DejaVuSans-53"/>
      </g>
     </g>
    </g>
    <g id="xtick_11">
     <g id="line2d_30">
      <g>
       <use style="stroke:#000000;stroke-width:0.8;" x="474.693851" xlink:href="#mc286bbab27" y="242.44"/>
      </g>
     </g>
     <g id="text_20">
      <!-- 0.20 -->
      <g transform="translate(463.561039 257.038437)scale(0.1 -0.1)">
       <use xlink:href="#DejaVuSans-48"/>
       <use x="63.623047" xlink:href="#DejaVuSans-46"/>
       <use x="95.410156" xlink:href="#DejaVuSans-50"/>
       <use x="159.033203" xlink:href="#DejaVuSans-48"/>
      </g>
     </g>
    </g>
    <g id="xtick_12">
     <g id="line2d_31">
      <g>
       <use style="stroke:#000000;stroke-width:0.8;" x="508.047107" xlink:href="#mc286bbab27" y="242.44"/>
      </g>
     </g>
     <g id="text_21">
      <!-- 0.25 -->
      <g transform="translate(496.914295 257.038437)scale(0.1 -0.1)">
       <use xlink:href="#DejaVuSans-48"/>
       <use x="63.623047" xlink:href="#DejaVuSans-46"/>
       <use x="95.410156" xlink:href="#DejaVuSans-50"/>
       <use x="159.033203" xlink:href="#DejaVuSans-53"/>
      </g>
     </g>
    </g>
    <g id="xtick_13">
     <g id="line2d_32">
      <g>
       <use style="stroke:#000000;stroke-width:0.8;" x="541.400363" xlink:href="#mc286bbab27" y="242.44"/>
      </g>
     </g>
     <g id="text_22">
      <!-- 0.30 -->
      <g transform="translate(530.267551 257.038437)scale(0.1 -0.1)">
       <use xlink:href="#DejaVuSans-48"/>
       <use x="63.623047" xlink:href="#DejaVuSans-46"/>
       <use x="95.410156" xlink:href="#DejaVuSans-51"/>
       <use x="159.033203" xlink:href="#DejaVuSans-48"/>
      </g>
     </g>
    </g>
    <g id="text_23">
     <!-- Magnitude of Steering Angle (Clipped) -->
     <g transform="translate(350.323327 270.716562)scale(0.1 -0.1)">
      <use xlink:href="#DejaVuSans-77"/>
      <use x="86.279297" xlink:href="#DejaVuSans-97"/>
      <use x="147.558594" xlink:href="#DejaVuSans-103"/>
      <use x="211.035156" xlink:href="#DejaVuSans-110"/>
      <use x="274.414062" xlink:href="#DejaVuSans-105"/>
      <use x="302.197266" xlink:href="#DejaVuSans-116"/>
      <use x="341.40625" xlink:href="#DejaVuSans-117"/>
      <use x="404.785156" xlink:href="#DejaVuSans-100"/>
      <use x="468.261719" xlink:href="#DejaVuSans-101"/>
      <use x="529.785156" xlink:href="#DejaVuSans-32"/>
      <use x="561.572266" xlink:href="#DejaVuSans-111"/>
      <use x="622.753906" xlink:href="#DejaVuSans-102"/>
      <use x="657.958984" xlink:href="#DejaVuSans-32"/>
      <use x="689.746094" xlink:href="#DejaVuSans-83"/>
      <use x="753.222656" xlink:href="#DejaVuSans-116"/>
      <use x="792.431641" xlink:href="#DejaVuSans-101"/>
      <use x="853.955078" xlink:href="#DejaVuSans-101"/>
      <use x="915.478516" xlink:href="#DejaVuSans-114"/>
      <use x="956.591797" xlink:href="#DejaVuSans-105"/>
      <use x="984.375" xlink:href="#DejaVuSans-110"/>
      <use x="1047.753906" xlink:href="#DejaVuSans-103"/>
      <use x="1111.230469" xlink:href="#DejaVuSans-32"/>
      <use x="1143.017578" xlink:href="#DejaVuSans-65"/>
      <use x="1211.425781" xlink:href="#DejaVuSans-110"/>
      <use x="1274.804688" xlink:href="#DejaVuSans-103"/>
      <use x="1338.28125" xlink:href="#DejaVuSans-108"/>
      <use x="1366.064453" xlink:href="#DejaVuSans-101"/>
      <use x="1427.587891" xlink:href="#DejaVuSans-32"/>
      <use x="1459.375" xlink:href="#DejaVuSans-40"/>
      <use x="1498.388672" xlink:href="#DejaVuSans-67"/>
      <use x="1568.212891" xlink:href="#DejaVuSans-108"/>
      <use x="1595.996094" xlink:href="#DejaVuSans-105"/>
      <use x="1623.779297" xlink:href="#DejaVuSans-112"/>
      <use x="1687.255859" xlink:href="#DejaVuSans-112"/>
      <use x="1750.732422" xlink:href="#DejaVuSans-101"/>
      <use x="1812.255859" xlink:href="#DejaVuSans-100"/>
      <use x="1875.732422" xlink:href="#DejaVuSans-41"/>
     </g>
    </g>
   </g>
   <g id="matplotlib.axis_4">
    <g id="ytick_8">
     <g id="line2d_33">
      <g>
       <use style="stroke:#000000;stroke-width:0.8;" x="330.802592" xlink:href="#m8062bfbf81" y="186.030765"/>
      </g>
     </g>
     <g id="text_24">
      <!-- $\mathdefault{10^{3}}$ -->
      <g transform="translate(306.202592 189.829984)scale(0.1 -0.1)">
       <use transform="translate(0 0.765625)" xlink:href="#DejaVuSans-49"/>
       <use transform="translate(63.623047 0.765625)" xlink:href="#DejaVuSans-48"/>
       <use transform="translate(128.203125 39.046875)scale(0.7)" xlink:href="#DejaVuSans-51"/>
      </g>
     </g>
    </g>
    <g id="ytick_9">
     <g id="line2d_34">
      <g>
       <use style="stroke:#000000;stroke-width:0.8;" x="330.802592" xlink:href="#m8062bfbf81" y="90.822158"/>
      </g>
     </g>
     <g id="text_25">
      <!-- $\mathdefault{10^{4}}$ -->
      <g transform="translate(306.202592 94.621377)scale(0.1 -0.1)">
       <defs>
        <path d="M 37.796875 64.3125 
L 12.890625 25.390625 
L 37.796875 25.390625 
z
M 35.203125 72.90625 
L 47.609375 72.90625 
L 47.609375 25.390625 
L 58.015625 25.390625 
L 58.015625 17.1875 
L 47.609375 17.1875 
L 47.609375 0 
L 37.796875 0 
L 37.796875 17.1875 
L 4.890625 17.1875 
L 4.890625 26.703125 
z
" id="DejaVuSans-52"/>
       </defs>
       <use transform="translate(0 0.684375)" xlink:href="#DejaVuSans-49"/>
       <use transform="translate(63.623047 0.684375)" xlink:href="#DejaVuSans-48"/>
       <use transform="translate(128.203125 38.965625)scale(0.7)" xlink:href="#DejaVuSans-52"/>
      </g>
     </g>
    </g>
    <g id="ytick_10">
     <g id="line2d_35">
      <defs>
       <path d="M 0 0 
L -2 0 
" id="m7a6fcb79c7" style="stroke:#000000;stroke-width:0.6;"/>
      </defs>
      <g>
       <use style="stroke:#000000;stroke-width:0.6;" x="330.802592" xlink:href="#m7a6fcb79c7" y="235.813322"/>
      </g>
     </g>
    </g>
    <g id="ytick_11">
     <g id="line2d_36">
      <g>
       <use style="stroke:#000000;stroke-width:0.6;" x="330.802592" xlink:href="#m7a6fcb79c7" y="223.918079"/>
      </g>
     </g>
    </g>
    <g id="ytick_12">
     <g id="line2d_37">
      <g>
       <use style="stroke:#000000;stroke-width:0.6;" x="330.802592" xlink:href="#m7a6fcb79c7" y="214.691411"/>
      </g>
     </g>
    </g>
    <g id="ytick_13">
     <g id="line2d_38">
      <g>
       <use style="stroke:#000000;stroke-width:0.6;" x="330.802592" xlink:href="#m7a6fcb79c7" y="207.152675"/>
      </g>
     </g>
    </g>
    <g id="ytick_14">
     <g id="line2d_39">
      <g>
       <use style="stroke:#000000;stroke-width:0.6;" x="330.802592" xlink:href="#m7a6fcb79c7" y="200.778765"/>
      </g>
     </g>
    </g>
    <g id="ytick_15">
     <g id="line2d_40">
      <g>
       <use style="stroke:#000000;stroke-width:0.6;" x="330.802592" xlink:href="#m7a6fcb79c7" y="195.257432"/>
      </g>
     </g>
    </g>
    <g id="ytick_16">
     <g id="line2d_41">
      <g>
       <use style="stroke:#000000;stroke-width:0.6;" x="330.802592" xlink:href="#m7a6fcb79c7" y="190.387272"/>
      </g>
     </g>
    </g>
    <g id="ytick_17">
     <g id="line2d_42">
      <g>
       <use style="stroke:#000000;stroke-width:0.6;" x="330.802592" xlink:href="#m7a6fcb79c7" y="157.370119"/>
      </g>
     </g>
    </g>
    <g id="ytick_18">
     <g id="line2d_43">
      <g>
       <use style="stroke:#000000;stroke-width:0.6;" x="330.802592" xlink:href="#m7a6fcb79c7" y="140.604715"/>
      </g>
     </g>
    </g>
    <g id="ytick_19">
     <g id="line2d_44">
      <g>
       <use style="stroke:#000000;stroke-width:0.6;" x="330.802592" xlink:href="#m7a6fcb79c7" y="128.709472"/>
      </g>
     </g>
    </g>
    <g id="ytick_20">
     <g id="line2d_45">
      <g>
       <use style="stroke:#000000;stroke-width:0.6;" x="330.802592" xlink:href="#m7a6fcb79c7" y="119.482805"/>
      </g>
     </g>
    </g>
    <g id="ytick_21">
     <g id="line2d_46">
      <g>
       <use style="stroke:#000000;stroke-width:0.6;" x="330.802592" xlink:href="#m7a6fcb79c7" y="111.944069"/>
      </g>
     </g>
    </g>
    <g id="ytick_22">
     <g id="line2d_47">
      <g>
       <use style="stroke:#000000;stroke-width:0.6;" x="330.802592" xlink:href="#m7a6fcb79c7" y="105.570158"/>
      </g>
     </g>
    </g>
    <g id="ytick_23">
     <g id="line2d_48">
      <g>
       <use style="stroke:#000000;stroke-width:0.6;" x="330.802592" xlink:href="#m7a6fcb79c7" y="100.048826"/>
      </g>
     </g>
    </g>
    <g id="ytick_24">
     <g id="line2d_49">
      <g>
       <use style="stroke:#000000;stroke-width:0.6;" x="330.802592" xlink:href="#m7a6fcb79c7" y="95.178665"/>
      </g>
     </g>
    </g>
    <g id="ytick_25">
     <g id="line2d_50">
      <g>
       <use style="stroke:#000000;stroke-width:0.6;" x="330.802592" xlink:href="#m7a6fcb79c7" y="62.161512"/>
      </g>
     </g>
    </g>
    <g id="ytick_26">
     <g id="line2d_51">
      <g>
       <use style="stroke:#000000;stroke-width:0.6;" x="330.802592" xlink:href="#m7a6fcb79c7" y="45.396108"/>
      </g>
     </g>
    </g>
    <g id="ytick_27">
     <g id="line2d_52">
      <g>
       <use style="stroke:#000000;stroke-width:0.6;" x="330.802592" xlink:href="#m7a6fcb79c7" y="33.500865"/>
      </g>
     </g>
    </g>
    <g id="ytick_28">
     <g id="line2d_53">
      <g>
       <use style="stroke:#000000;stroke-width:0.6;" x="330.802592" xlink:href="#m7a6fcb79c7" y="24.274198"/>
      </g>
     </g>
    </g>
    <g id="ytick_29">
     <g id="line2d_54">
      <g>
       <use style="stroke:#000000;stroke-width:0.6;" x="330.802592" xlink:href="#m7a6fcb79c7" y="16.735462"/>
      </g>
     </g>
    </g>
    <g id="ytick_30">
     <g id="line2d_55">
      <g>
       <use style="stroke:#000000;stroke-width:0.6;" x="330.802592" xlink:href="#m7a6fcb79c7" y="10.361551"/>
      </g>
     </g>
    </g>
    <g id="text_26">
     <!-- Frequency -->
     <g transform="translate(300.122905 150.649687)rotate(-90)scale(0.1 -0.1)">
      <defs>
       <path d="M 9.8125 72.90625 
L 51.703125 72.90625 
L 51.703125 64.59375 
L 19.671875 64.59375 
L 19.671875 43.109375 
L 48.578125 43.109375 
L 48.578125 34.8125 
L 19.671875 34.8125 
L 19.671875 0 
L 9.8125 0 
z
" id="DejaVuSans-70"/>
       <path d="M 14.796875 27.296875 
Q 14.796875 17.390625 18.875 11.75 
Q 22.953125 6.109375 30.078125 6.109375 
Q 37.203125 6.109375 41.296875 11.75 
Q 45.40625 17.390625 45.40625 27.296875 
Q 45.40625 37.203125 41.296875 42.84375 
Q 37.203125 48.484375 30.078125 48.484375 
Q 22.953125 48.484375 18.875 42.84375 
Q 14.796875 37.203125 14.796875 27.296875 
z
M 45.40625 8.203125 
Q 42.578125 3.328125 38.25 0.953125 
Q 33.9375 -1.421875 27.875 -1.421875 
Q 17.96875 -1.421875 11.734375 6.484375 
Q 5.515625 14.40625 5.515625 27.296875 
Q 5.515625 40.1875 11.734375 48.09375 
Q 17.96875 56 27.875 56 
Q 33.9375 56 38.25 53.625 
Q 42.578125 51.265625 45.40625 46.390625 
L 45.40625 54.6875 
L 54.390625 54.6875 
L 54.390625 -20.796875 
L 45.40625 -20.796875 
z
" id="DejaVuSans-113"/>
       <path d="M 48.78125 52.59375 
L 48.78125 44.1875 
Q 44.96875 46.296875 41.140625 47.34375 
Q 37.3125 48.390625 33.40625 48.390625 
Q 24.65625 48.390625 19.8125 42.84375 
Q 14.984375 37.3125 14.984375 27.296875 
Q 14.984375 17.28125 19.8125 11.734375 
Q 24.65625 6.203125 33.40625 6.203125 
Q 37.3125 6.203125 41.140625 7.25 
Q 44.96875 8.296875 48.78125 10.40625 
L 48.78125 2.09375 
Q 45.015625 0.34375 40.984375 -0.53125 
Q 36.96875 -1.421875 32.421875 -1.421875 
Q 20.0625 -1.421875 12.78125 6.34375 
Q 5.515625 14.109375 5.515625 27.296875 
Q 5.515625 40.671875 12.859375 48.328125 
Q 20.21875 56 33.015625 56 
Q 37.15625 56 41.109375 55.140625 
Q 45.0625 54.296875 48.78125 52.59375 
z
" id="DejaVuSans-99"/>
       <path d="M 32.171875 -5.078125 
Q 28.375 -14.84375 24.75 -17.8125 
Q 21.140625 -20.796875 15.09375 -20.796875 
L 7.90625 -20.796875 
L 7.90625 -13.28125 
L 13.1875 -13.28125 
Q 16.890625 -13.28125 18.9375 -11.515625 
Q 21 -9.765625 23.484375 -3.21875 
L 25.09375 0.875 
L 2.984375 54.6875 
L 12.5 54.6875 
L 29.59375 11.921875 
L 46.6875 54.6875 
L 56.203125 54.6875 
z
" id="DejaVuSans-121"/>
      </defs>
      <use xlink:href="#DejaVuSans-70"/>
      <use x="50.269531" xlink:href="#DejaVuSans-114"/>
      <use x="89.132812" xlink:href="#DejaVuSans-101"/>
      <use x="150.65625" xlink:href="#DejaVuSans-113"/>
      <use x="214.132812" xlink:href="#DejaVuSans-117"/>
      <use x="277.511719" xlink:href="#DejaVuSans-101"/>
      <use x="339.035156" xlink:href="#DejaVuSans-110"/>
      <use x="402.414062" xlink:href="#DejaVuSans-99"/>
      <use x="457.394531" xlink:href="#DejaVuSans-121"/>
     </g>
    </g>
   </g>
   <g id="patch_8">
    <path clip-path="url(#p3e3c31a645)" d="M 341.280869 280.99625 
L 341.280869 17.892727 
L 362.237334 17.892727 
L 362.237334 46.468417 
L 383.193799 46.468417 
L 383.193799 82.657616 
L 404.150263 82.657616 
L 404.150263 127.567624 
L 425.106728 127.567624 
L 425.106728 155.097537 
L 446.063192 155.097537 
L 446.063192 172.088594 
L 467.019657 172.088594 
L 467.019657 191.222625 
L 487.976122 191.222625 
L 487.976122 212.360165 
L 508.932586 212.360165 
L 508.932586 231.747273 
L 529.889051 231.747273 
L 529.889051 107.747061 
L 550.845516 107.747061 
L 550.845516 280.99625 
" style="fill:none;stroke:#1f77b4;stroke-linejoin:miter;"/>
   </g>
   <g id="patch_9">
    <path clip-path="url(#p3e3c31a645)" d="M 341.280827 280.99625 
L 341.280827 41.707789 
L 362.237296 41.707789 
L 362.237296 68.704262 
L 383.193765 68.704262 
L 383.193765 95.580313 
L 404.150233 95.580313 
L 404.150233 119.079561 
L 425.106702 119.079561 
L 425.106702 132.101041 
L 446.063171 132.101041 
L 446.063171 139.650999 
L 467.01964 139.650999 
L 467.01964 151.161934 
L 487.976109 151.161934 
L 487.976109 162.072641 
L 508.932578 162.072641 
L 508.932578 167.405777 
L 529.889047 167.405777 
L 529.889047 30.388567 
L 550.845516 30.388567 
L 550.845516 280.99625 
" style="fill:none;stroke:#ff7f0e;stroke-linejoin:miter;"/>
   </g>
   <g id="patch_10">
    <path clip-path="url(#p3e3c31a645)" d="M 341.280827 280.99625 
L 341.280827 27.408491 
L 362.237296 27.408491 
L 362.237296 52.257347 
L 383.193765 52.257347 
L 383.193765 90.247293 
L 404.150233 90.247293 
L 404.150233 124.254879 
L 425.106702 124.254879 
L 425.106702 135.50243 
L 446.063171 135.50243 
L 446.063171 135.612222 
L 467.01964 135.612222 
L 467.01964 151.501371 
L 487.976109 151.501371 
L 487.976109 162.679346 
L 508.932578 162.679346 
L 508.932578 165.224304 
L 529.889047 165.224304 
L 529.889047 56.258695 
L 550.845516 56.258695 
L 550.845516 280.99625 
" style="fill:none;stroke:#2ca02c;stroke-linejoin:miter;"/>
   </g>
   <g id="patch_11">
    <path clip-path="url(#p3e3c31a645)" d="M 341.280827 280.99625 
L 341.280827 26.463929 
L 362.237296 26.463929 
L 362.237296 50.903267 
L 383.193765 50.903267 
L 383.193765 89.415692 
L 404.150233 89.415692 
L 404.150233 123.500725 
L 425.106702 123.500725 
L 425.106702 134.849735 
L 446.063171 134.849735 
L 446.063171 136.103741 
L 467.01964 136.103741 
L 467.01964 151.699169 
L 487.976109 151.699169 
L 487.976109 160.8853 
L 508.932578 160.8853 
L 508.932578 167.696686 
L 529.889047 167.696686 
L 529.889047 61.201062 
L 550.845516 61.201062 
L 550.845516 280.99625 
" style="fill:none;stroke:#d62728;stroke-linejoin:miter;"/>
   </g>
   <g id="patch_12">
    <path d="M 330.802592 242.44 
L 330.802592 7.2 
" style="fill:none;stroke:#000000;stroke-linecap:square;stroke-linejoin:miter;stroke-width:0.8;"/>
   </g>
   <g id="patch_13">
    <path d="M 561.32375 242.44 
L 561.32375 7.2 
" style="fill:none;stroke:#000000;stroke-linecap:square;stroke-linejoin:miter;stroke-width:0.8;"/>
   </g>
   <g id="patch_14">
    <path d="M 330.802592 242.44 
L 561.32375 242.44 
" style="fill:none;stroke:#000000;stroke-linecap:square;stroke-linejoin:miter;stroke-width:0.8;"/>
   </g>
   <g id="patch_15">
    <path d="M 330.802592 7.2 
L 561.32375 7.2 
" style="fill:none;stroke:#000000;stroke-linecap:square;stroke-linejoin:miter;stroke-width:0.8;"/>
   </g>
  </g>
 </g>
 <defs>
  <clipPath id="p9490881540">
   <rect height="235.24" width="230.521158" x="50.14375" y="7.2"/>
  </clipPath>
  <clipPath id="p3e3c31a645">
   <rect height="235.24" width="230.521158" x="330.802592" y="7.2"/>
  </clipPath>
 </defs>
</svg>
