<?xml version="1.0" encoding="utf-8" standalone="no"?>
<!DOCTYPE svg PUBLIC "-//W3C//DTD SVG 1.1//EN"
  "http://www.w3.org/Graphics/SVG/1.1/DTD/svg11.dtd">
<!-- Created with matplotlib (https://matplotlib.org/) -->
<svg height="288pt" version="1.1" viewBox="0 0 432 288" width="432pt" xmlns="http://www.w3.org/2000/svg" xmlns:xlink="http://www.w3.org/1999/xlink">
 <metadata>
  <rdf:RDF xmlns:cc="http://creativecommons.org/ns#" xmlns:dc="http://purl.org/dc/elements/1.1/" xmlns:rdf="http://www.w3.org/1999/02/22-rdf-syntax-ns#">
   <cc:Work>
    <dc:type rdf:resource="http://purl.org/dc/dcmitype/StillImage"/>
    <dc:date>2022-09-14T00:43:50.314558</dc:date>
    <dc:format>image/svg+xml</dc:format>
    <dc:creator>
     <cc:Agent>
      <dc:title>Matplotlib v3.3.0, https://matplotlib.org/</dc:title>
     </cc:Agent>
    </dc:creator>
   </cc:Work>
  </rdf:RDF>
 </metadata>
 <defs>
  <style type="text/css">*{stroke-linecap:butt;stroke-linejoin:round;}</style>
 </defs>
 <g id="figure_1">
  <g id="patch_1">
   <path d="M 0 288 
L 432 288 
L 432 0 
L 0 0 
z
" style="fill:#ffffff;"/>
  </g>
  <g id="axes_1">
   <g id="matplotlib.axis_1"/>
   <g id="matplotlib.axis_2"/>
   <g id="line2d_1">
    <path clip-path="url(#pad7d9543ff)" d="M 30.030667 183.493517 
L 56.720559 180.585473 
L 69.423257 179.04208 
L 81.415419 177.403841 
L 92.758757 175.636022 
L 103.343187 173.561817 
L 113.11719 171.407919 
L 117.717176 170.254256 
L 122.104813 169.029584 
L 126.313869 167.701892 
L 141.815136 162.300115 
L 148.68664 159.652842 
L 154.879052 156.923032 
L 157.701825 155.49733 
L 160.332645 154.043824 
L 165.06444 151.105292 
L 167.173011 149.660718 
L 169.088179 148.189263 
L 172.376637 145.131762 
L 173.823023 143.501472 
L 175.143695 141.835903 
L 177.483914 138.281693 
L 179.696944 134.369789 
L 181.664517 130.132521 
L 183.316511 125.585911 
L 184.634127 120.753337 
L 185.590882 115.659379 
L 185.918426 113.059781 
L 186.128289 110.495361 
L 186.206109 107.856225 
L 186.039136 102.409528 
L 185.49091 96.810369 
L 184.304057 88.0611 
L 183.845033 82.561013 
L 183.828155 77.604657 
L 184.129291 73.077065 
L 184.784966 66.732058 
L 185.462021 62.771358 
L 185.940706 60.895367 
L 187.259889 57.5043 
L 188.871194 54.590414 
L 190.507973 52.351919 
L 192.588551 50.236383 
L 193.775555 49.202102 
L 195.047133 48.266993 
L 197.463815 46.927499 
L 200.061542 45.982226 
L 203.079733 45.354503 
L 206.357376 45.078396 
L 209.88964 45.210886 
L 213.153136 45.651766 
L 214.886142 46.016047 
L 218.481095 47.168814 
L 222.312201 48.47591 
L 226.311019 50.154728 
L 230.441629 52.287502 
L 232.396553 53.421386 
L 236.156603 55.950558 
L 237.943601 57.340736 
L 241.320372 60.380857 
L 244.727107 63.988738 
L 248.101046 68.022399 
L 251.403044 72.514623 
L 254.621545 77.436781 
L 257.732614 82.773216 
L 260.740302 88.497377 
L 263.671862 94.563582 
L 266.405332 100.817706 
L 268.914015 107.166091 
L 279.36537 135.022229 
L 282.446124 142.395515 
L 285.772276 149.886481 
L 289.387106 157.452027 
L 291.326733 161.251947 
L 291.326733 161.251947 
" style="fill:none;stroke:#1f77b4;stroke-dasharray:9.6,2.4,1.5,2.4;stroke-dashoffset:0;stroke-opacity:0.9;stroke-width:1.5;"/>
   </g>
   <g id="line2d_2">
    <defs>
     <path d="M 0 3 
C 0.795609 3 1.55874 2.683901 2.12132 2.12132 
C 2.683901 1.55874 3 0.795609 3 0 
C 3 -0.795609 2.683901 -1.55874 2.12132 -2.12132 
C 1.55874 -2.683901 0.795609 -3 0 -3 
C -0.795609 -3 -1.55874 -2.683901 -2.12132 -2.12132 
C -2.683901 -1.55874 -3 -0.795609 -3 0 
C -3 0.795609 -2.683901 1.55874 -2.12132 2.12132 
C -1.55874 2.683901 -0.795609 3 0 3 
z
" id="m126e0c34e3" style="stroke:#1f77b4;stroke-opacity:0.7;"/>
    </defs>
    <g clip-path="url(#pad7d9543ff)">
     <use style="fill:#1f77b4;fill-opacity:0.7;stroke:#1f77b4;stroke-opacity:0.7;" x="291.326733" xlink:href="#m126e0c34e3" y="161.251947"/>
    </g>
   </g>
   <g id="line2d_3">
    <path clip-path="url(#pad7d9543ff)" d="M 30.030667 183.493517 
L 50.557878 181.314313 
L 76.567294 177.907987 
L 88.644746 176.071105 
L 94.61159 175.12854 
L 106.080376 173.485965 
L 111.516864 172.5311 
L 116.793791 171.376212 
L 131.703948 167.676503 
L 140.756831 165.115784 
L 144.996278 163.82116 
L 149.051359 162.411794 
L 160.42355 157.782013 
L 167.08919 154.646076 
L 173.046746 151.576694 
L 175.749181 149.991846 
L 180.620431 146.644614 
L 182.775303 144.98952 
L 184.78065 143.30232 
L 188.536891 139.682233 
L 190.01975 138.054096 
L 192.492433 134.843968 
L 194.586058 131.434739 
L 196.504119 127.662295 
L 197.629256 125.075699 
L 199.07491 121.090634 
L 199.705404 119.044803 
L 200.659208 114.769548 
L 200.646588 112.993462 
L 199.882799 112.10397 
L 197.691053 102.542463 
L 196.593598 99.391193 
L 195.288677 96.378174 
L 193.755837 93.525526 
L 192.011843 90.902342 
L 189.371554 87.451172 
L 186.342837 83.767349 
L 185.285986 82.297517 
L 184.961668 81.637453 
L 184.506154 79.668503 
L 184.072236 76.87166 
L 177.772848 38.784859 
L 177.772848 38.784859 
" style="fill:none;stroke:#ff7f0e;stroke-dasharray:1.5,2.475;stroke-dashoffset:0;stroke-opacity:0.9;stroke-width:1.5;"/>
   </g>
   <g id="line2d_4">
    <defs>
     <path d="M 0 3 
C 0.795609 3 1.55874 2.683901 2.12132 2.12132 
C 2.683901 1.55874 3 0.795609 3 0 
C 3 -0.795609 2.683901 -1.55874 2.12132 -2.12132 
C 1.55874 -2.683901 0.795609 -3 0 -3 
C -0.795609 -3 -1.55874 -2.683901 -2.12132 -2.12132 
C -2.683901 -1.55874 -3 -0.795609 -3 0 
C -3 0.795609 -2.683901 1.55874 -2.12132 2.12132 
C -1.55874 2.683901 -0.795609 3 0 3 
z
" id="m26b0dcadeb" style="stroke:#ff7f0e;stroke-opacity:0.7;"/>
    </defs>
    <g clip-path="url(#pad7d9543ff)">
     <use style="fill:#ff7f0e;fill-opacity:0.7;stroke:#ff7f0e;stroke-opacity:0.7;" x="177.772848" xlink:href="#m26b0dcadeb" y="38.784859"/>
    </g>
   </g>
   <g id="line2d_5">
    <path clip-path="url(#pad7d9543ff)" d="M 30.030667 183.493517 
L 43.873957 182.035037 
L 57.048787 180.32996 
L 69.639023 178.322105 
L 98.050714 173.179077 
L 103.211786 172.128931 
L 112.992484 169.681953 
L 126.302257 166.349567 
L 130.393384 165.182001 
L 134.324512 163.914734 
L 141.631004 161.213469 
L 148.178055 158.455803 
L 151.209941 157.050672 
L 154.52742 155.368241 
L 159.638778 152.384224 
L 164.007831 149.417551 
L 165.9946 147.907264 
L 169.890253 144.525892 
L 173.25692 141.150519 
L 174.803609 139.375772 
L 177.537943 135.376579 
L 181.485165 129.207122 
L 183.339925 125.450535 
L 184.040882 123.643162 
L 185.107894 119.696113 
L 185.890488 115.370105 
L 186.705449 108.19312 
L 186.924632 105.648546 
L 187.036624 103.035828 
L 187.016293 100.355499 
L 186.855486 97.608475 
L 186.556684 94.79941 
L 185.602884 89.033317 
L 184.762641 83.583174 
L 184.406138 78.708625 
L 184.375905 74.323085 
L 184.536589 72.25572 
L 185.625358 64.974853 
L 186.196649 62.082359 
L 186.796514 59.654956 
L 187.132975 58.569775 
L 188.143867 56.362591 
L 188.643434 55.524671 
L 192.362053 51.026577 
L 193.305282 50.083165 
L 195.505235 48.337299 
L 196.493219 47.693326 
L 201.778249 45.328956 
L 203.035687 44.915009 
L 205.44475 44.384292 
L 206.430105 44.23223 
L 208.787831 44.294468 
L 212.756842 44.402272 
L 214.171185 44.593364 
L 215.620811 44.908287 
L 221.755094 46.802508 
L 225.06048 48.025702 
L 226.527212 48.709143 
L 229.194746 50.330595 
L 232.022884 52.336565 
L 236.760327 55.42209 
L 238.351076 56.658758 
L 239.891678 58.008341 
L 242.321217 60.58379 
L 244.512295 63.569701 
L 246.582708 66.926089 
L 249.591858 72.739977 
L 252.149723 76.671276 
L 254.897274 80.814574 
L 257.424368 85.398776 
L 260.168319 90.111084 
L 263.136516 95.010643 
L 264.529088 97.604672 
L 265.828103 100.313758 
L 267.049284 103.130267 
L 267.049284 103.130267 
" style="fill:none;stroke:#2ca02c;stroke-dasharray:5.55,2.4;stroke-dashoffset:0;stroke-opacity:0.9;stroke-width:1.5;"/>
   </g>
   <g id="line2d_6">
    <defs>
     <path d="M 0 3 
C 0.795609 3 1.55874 2.683901 2.12132 2.12132 
C 2.683901 1.55874 3 0.795609 3 0 
C 3 -0.795609 2.683901 -1.55874 2.12132 -2.12132 
C 1.55874 -2.683901 0.795609 -3 0 -3 
C -0.795609 -3 -1.55874 -2.683901 -2.12132 -2.12132 
C -2.683901 -1.55874 -3 -0.795609 -3 0 
C -3 0.795609 -2.683901 1.55874 -2.12132 2.12132 
C -1.55874 2.683901 -0.795609 3 0 3 
z
" id="m44bda2bdca" style="stroke:#2ca02c;stroke-opacity:0.7;"/>
    </defs>
    <g clip-path="url(#pad7d9543ff)">
     <use style="fill:#2ca02c;fill-opacity:0.7;stroke:#2ca02c;stroke-opacity:0.7;" x="267.049284" xlink:href="#m44bda2bdca" y="103.130267"/>
    </g>
   </g>
   <g id="line2d_7">
    <path clip-path="url(#pad7d9543ff)" d="M 30.030667 183.493517 
L 50.602535 181.291906 
L 81.731938 177.297376 
L 87.46714 176.409379 
L 93.006989 175.383159 
L 103.59149 173.053081 
L 114.968877 170.491586 
L 119.563784 169.438526 
L 123.974817 168.302745 
L 132.320571 165.836233 
L 139.93928 163.32542 
L 143.453673 162.024132 
L 146.809333 160.644803 
L 153.051728 157.674371 
L 158.592415 154.657714 
L 161.078032 153.132328 
L 163.409904 151.490148 
L 165.567001 149.723979 
L 167.58763 147.877746 
L 171.230943 144.056795 
L 172.927903 141.990942 
L 174.493725 139.815932 
L 177.268751 135.387311 
L 178.624939 133.150119 
L 179.832397 130.782222 
L 181.851448 125.967819 
L 183.505562 120.802257 
L 184.739471 115.815723 
L 185.134553 113.463348 
L 185.612212 108.380004 
L 185.73251 105.765037 
L 185.729197 103.110984 
L 185.280192 94.908183 
L 184.694866 86.235773 
L 184.425141 81.028252 
L 184.459638 76.441126 
L 184.744513 70.425434 
L 185.26711 65.45098 
L 185.756625 62.660503 
L 186.44625 60.259198 
L 187.566319 57.761632 
L 188.328699 56.511928 
L 190.196566 54.058607 
L 192.228968 51.465296 
L 194.083053 49.466833 
L 195.70583 47.93203 
L 197.535519 46.658181 
L 199.183289 45.807879 
L 202.067041 44.882915 
L 203.158152 44.61628 
L 209.797923 43.781632 
L 212.424258 43.722484 
L 215.288232 43.818561 
L 217.282185 44.248925 
L 219.392026 45.028099 
L 221.642675 46.00398 
L 225.455043 47.430697 
L 228.073861 48.854914 
L 229.368714 49.743279 
L 234.637236 54.042277 
L 238.952044 57.818939 
L 245.416728 63.588142 
L 247.554527 65.889673 
L 249.105411 67.775492 
L 250.598597 69.796586 
L 252.029621 71.948389 
L 254.711674 76.611003 
L 260.125159 86.86897 
L 261.411215 89.630324 
L 263.756825 95.42375 
L 269.541473 110.835201 
L 269.541473 110.835201 
" style="fill:none;stroke:#d62728;stroke-linecap:square;stroke-opacity:0.7;stroke-width:1.5;"/>
   </g>
   <g id="line2d_8">
    <defs>
     <path d="M 0 3 
C 0.795609 3 1.55874 2.683901 2.12132 2.12132 
C 2.683901 1.55874 3 0.795609 3 0 
C 3 -0.795609 2.683901 -1.55874 2.12132 -2.12132 
C 1.55874 -2.683901 0.795609 -3 0 -3 
C -0.795609 -3 -1.55874 -2.683901 -2.12132 -2.12132 
C -2.683901 -1.55874 -3 -0.795609 -3 0 
C -3 0.795609 -2.683901 1.55874 -2.12132 2.12132 
C -1.55874 2.683901 -0.795609 3 0 3 
z
" id="m2bb8298c13" style="stroke:#d62728;stroke-opacity:0.7;"/>
    </defs>
    <g clip-path="url(#pad7d9543ff)">
     <use style="fill:#d62728;fill-opacity:0.7;stroke:#d62728;stroke-opacity:0.7;" x="269.541473" xlink:href="#m2bb8298c13" y="110.835201"/>
    </g>
   </g>
   <g id="line2d_9">
    <defs>
     <path d="M 0 -3 
L -0.673542 -0.927051 
L -2.85317 -0.927051 
L -1.089814 0.354102 
L -1.763356 2.427051 
L -0 1.145898 
L 1.763356 2.427051 
L 1.089814 0.354102 
L 2.85317 -0.927051 
L 0.673542 -0.927051 
z
" id="me66555ce44" style="stroke:#000000;stroke-linejoin:bevel;"/>
    </defs>
    <g clip-path="url(#pad7d9543ff)">
     <use style="stroke:#000000;stroke-linejoin:bevel;" x="30.030667" xlink:href="#me66555ce44" y="183.493517"/>
    </g>
   </g>
   <g id="line2d_10">
    <path clip-path="url(#pad7d9543ff)" d="M 29.931829 183.03958 
L 50.914153 180.789421 
L 77.890454 177.617037 
L 92.403239 175.739972 
L 101.440414 174.373028 
L 109.136118 173.002351 
L 116.421764 171.496101 
L 123.283153 169.85586 
L 130.447259 167.898858 
L 136.498761 166.024787 
L 140.956258 164.4404 
L 145.209325 162.714302 
L 149.832071 160.58697 
L 153.689681 158.583636 
L 157.365778 156.427748 
L 160.841096 154.12126 
L 164.110456 151.676357 
L 167.165885 149.100616 
L 169.998448 146.382938 
L 172.628863 143.549225 
L 174.296778 141.425421 
L 176.733961 137.918517 
L 179.011761 134.364973 
L 181.030843 130.727727 
L 182.600286 127.482197 
L 183.954423 124.178535 
L 185.082917 120.827992 
L 185.976021 117.44109 
L 186.63425 114.02148 
L 187.07476 110.561644 
L 187.308997 107.076901 
L 187.34315 103.573635 
L 187.168542 100.058209 
L 186.781562 96.553495 
L 186.184959 93.096883 
L 183.922231 81.828962 
L 183.580472 78.253904 
L 183.479801 74.808014 
L 183.599096 71.906258 
L 183.960312 68.715647 
L 184.535139 65.662623 
L 185.292778 62.743193 
L 186.129147 60.31605 
L 187.28421 57.688296 
L 188.463516 55.528788 
L 189.804498 53.52955 
L 191.291079 51.698441 
L 193.146753 49.817751 
L 194.899812 48.377914 
L 196.762476 47.138692 
L 198.725042 46.110108 
L 200.775353 45.290989 
L 202.913981 44.663829 
L 205.146213 44.23138 
L 207.795501 43.968335 
L 210.532322 43.949555 
L 213.330859 44.1764 
L 216.170597 44.648415 
L 219.03152 45.36746 
L 221.896047 46.334326 
L 224.74842 47.556477 
L 227.579283 49.017344 
L 230.737818 50.916243 
L 233.86778 53.066382 
L 236.96116 55.46411 
L 240.000718 58.113975 
L 242.968772 61.018435 
L 245.856571 64.169739 
L 248.651506 67.565028 
L 251.036629 70.793973 
L 253.596761 74.657482 
L 256.037916 78.747314 
L 258.630382 83.538032 
L 261.637006 89.581476 
L 264.543853 95.924624 
L 266.634015 100.88431 
L 269.548577 108.332178 
L 273.237795 118.542901 
L 278.679859 133.674067 
L 282.221068 142.780067 
L 285.26608 150.031392 
L 288.285133 156.658852 
L 291.237229 162.631562 
L 294.414648 168.580185 
L 297.437765 173.797923 
L 300.696611 178.954921 
L 304.179692 184.040325 
L 307.892732 189.041236 
L 311.830069 193.946233 
L 315.465549 198.145059 
L 319.285949 202.239139 
L 323.283007 206.224866 
L 328.044714 210.657776 
L 332.38475 214.417059 
L 336.902604 218.031842 
L 341.594465 221.472382 
L 346.425898 224.715894 
L 349.975027 226.88984 
L 349.975027 226.88984 
" style="fill:none;stroke:#000000;stroke-dasharray:5.55,2.4;stroke-dashoffset:0;stroke-opacity:0.25;stroke-width:1.5;"/>
   </g>
   <g id="line2d_11">
    <path clip-path="url(#pad7d9543ff)" d="M 29.454545 168.028625 
L 75.925161 162.433054 
L 159.333947 152.465546 
L 163.016526 151.481098 
L 165.5948 150.539141 
L 167.671612 149.463162 
L 168.934085 148.631738 
L 171.334417 146.750062 
L 172.414426 145.714317 
L 173.787628 144.044089 
L 174.92424 142.224412 
L 175.684195 140.113675 
L 176.208448 137.909449 
L 176.37773 135.623227 
L 176.308846 132.202511 
L 175.969282 128.904906 
L 174.042571 115.707082 
L 170.47954 88.12154 
L 168.680854 74.834941 
L 168.536379 72.652923 
L 168.368628 67.248138 
L 168.530515 64.082429 
L 168.878325 60.982323 
L 169.505478 57.825195 
L 170.185343 55.461836 
L 171.151214 52.86543 
L 172.324663 50.320009 
L 173.690948 47.877343 
L 175.227371 45.584509 
L 176.897395 43.47104 
L 178.691534 41.569246 
L 181.511711 38.870476 
L 183.626061 37.271244 
L 186.932545 34.999557 
L 189.246793 33.680154 
L 191.622838 32.555156 
L 195.193052 31.108762 
L 197.637632 30.343388 
L 200.244165 29.756895 
L 202.94316 29.317054 
L 205.691911 29.096001 
L 208.444307 29.044896 
L 211.15419 29.22084 
L 215.060661 29.833942 
L 217.602292 30.421638 
L 220.134026 31.225797 
L 223.877019 32.737942 
L 227.430492 34.618718 
L 229.669271 36.009769 
L 231.69693 37.475492 
L 234.26174 39.668799 
L 235.803757 41.191858 
L 237.264535 42.822541 
L 239.205883 45.550356 
L 242.730689 51.329578 
L 263.958265 87.828761 
L 295.748889 143.571726 
L 300.846908 152.806814 
L 313.100014 175.863363 
L 319.975103 188.784441 
L 326.183497 199.65859 
L 330.012636 205.837397 
L 332.921878 210.080452 
L 336.010984 214.067228 
L 339.908359 218.386098 
L 344.146718 222.479968 
L 350.230877 227.500365 
L 354.132297 230.473236 
L 358.944397 233.753517 
L 362.217538 235.666547 
L 364.699386 236.95679 
L 370.811204 239.507251 
L 374.463898 240.639629 
L 379.099879 241.726591 
L 383.735003 242.453854 
L 386.525535 242.740441 
L 393.261139 242.936103 
L 398.168318 242.78479 
L 401.117802 242.429436 
L 401.117802 242.429436 
" style="fill:none;stroke:#000000;stroke-linecap:square;stroke-opacity:0.25;"/>
   </g>
   <g id="line2d_12">
    <path clip-path="url(#pad7d9543ff)" d="M 31.274531 183.14824 
L 113.581767 173.304281 
L 115.723846 173.333869 
L 117.868563 173.385266 
L 121.133387 173.109397 
L 158.892563 168.824876 
L 163.489579 167.937646 
L 167.923808 166.695205 
L 171.076006 165.47297 
L 173.180853 164.512901 
L 175.405134 163.329279 
L 178.908559 161.093799 
L 182.16525 158.392742 
L 183.222377 157.455333 
L 185.975929 154.360598 
L 186.818092 153.299079 
L 188.248603 151.073293 
L 189.494697 148.659207 
L 190.506275 146.05904 
L 191.30106 143.334131 
L 191.854479 140.546565 
L 192.213881 137.758488 
L 192.339274 135.019784 
L 192.265096 131.522748 
L 191.388178 124.372069 
L 189.673906 112.102899 
L 186.18348 85.450399 
L 184.658326 74.141262 
L 184.332174 70.074989 
L 184.401002 66.11738 
L 184.673605 63.28939 
L 185.170901 60.739857 
L 185.668177 59.288045 
L 186.329866 57.886507 
L 188.34034 54.606751 
L 190.381725 52.432883 
L 192.844261 50.269025 
L 195.605341 48.406858 
L 198.531312 46.957072 
L 201.449678 45.850229 
L 203.743511 45.343973 
L 206.097067 44.95901 
L 209.217085 45.03065 
L 211.445658 45.349735 
L 214.513069 46.226408 
L 216.049152 46.760243 
L 218.967522 48.134787 
L 221.661246 49.777164 
L 223.007437 50.940884 
L 224.345994 52.324617 
L 225.579447 53.843772 
L 229.244278 59.891852 
L 246.761293 89.939048 
L 285.425237 157.843174 
L 296.211062 177.90742 
L 307.955115 200.029198 
L 311.696898 206.647922 
L 316.242035 213.996329 
L 320.504541 220.176901 
L 322.460158 222.756503 
L 326.133337 227.010243 
L 329.332298 230.309319 
L 335.278891 235.831276 
L 338.788489 238.885523 
L 344.304536 243.130696 
L 350.015692 246.977014 
L 353.928105 249.28972 
L 359.114137 251.887572 
L 362.363401 253.319591 
L 368.026773 255.256883 
L 372.639632 256.585349 
L 376.131508 257.401292 
L 384.28051 258.553558 
L 388.810524 258.809968 
L 394.503575 258.94367 
L 401.395253 258.403905 
L 402.545455 258.29032 
L 402.545455 258.29032 
" style="fill:none;stroke:#000000;stroke-linecap:square;stroke-opacity:0.25;"/>
   </g>
   <g id="legend_1">
    <g id="patch_2">
     <path d="M 288.626562 123.546875 
L 414.2 123.546875 
Q 416.2 123.546875 416.2 121.546875 
L 416.2 17.8 
Q 416.2 15.8 414.2 15.8 
L 288.626562 15.8 
Q 286.626562 15.8 286.626562 17.8 
L 286.626562 121.546875 
Q 286.626562 123.546875 288.626562 123.546875 
z
" style="fill:#ffffff;opacity:0.8;stroke:#cccccc;stroke-linejoin:miter;"/>
    </g>
    <g id="line2d_13">
     <path d="M 291.626562 24.898438 
L 331.626562 24.898438 
" style="fill:none;stroke:#1f77b4;stroke-dasharray:9.6,2.4,1.5,2.4;stroke-dashoffset:0;stroke-opacity:0.9;stroke-width:1.5;"/>
    </g>
    <g id="line2d_14"/>
    <g id="text_1">
     <!-- Fixed Ref -->
     <g transform="translate(339.626562 28.398438)scale(0.1 -0.1)">
      <defs>
       <path d="M 9.8125 72.90625 
L 51.703125 72.90625 
L 51.703125 64.59375 
L 19.671875 64.59375 
L 19.671875 43.109375 
L 48.578125 43.109375 
L 48.578125 34.8125 
L 19.671875 34.8125 
L 19.671875 0 
L 9.8125 0 
z
" id="DejaVuSans-70"/>
       <path d="M 9.421875 54.6875 
L 18.40625 54.6875 
L 18.40625 0 
L 9.421875 0 
z
M 9.421875 75.984375 
L 18.40625 75.984375 
L 18.40625 64.59375 
L 9.421875 64.59375 
z
" id="DejaVuSans-105"/>
       <path d="M 54.890625 54.6875 
L 35.109375 28.078125 
L 55.90625 0 
L 45.3125 0 
L 29.390625 21.484375 
L 13.484375 0 
L 2.875 0 
L 24.125 28.609375 
L 4.6875 54.6875 
L 15.28125 54.6875 
L 29.78125 35.203125 
L 44.28125 54.6875 
z
" id="DejaVuSans-120"/>
       <path d="M 56.203125 29.59375 
L 56.203125 25.203125 
L 14.890625 25.203125 
Q 15.484375 15.921875 20.484375 11.0625 
Q 25.484375 6.203125 34.421875 6.203125 
Q 39.59375 6.203125 44.453125 7.46875 
Q 49.3125 8.734375 54.109375 11.28125 
L 54.109375 2.78125 
Q 49.265625 0.734375 44.1875 -0.34375 
Q 39.109375 -1.421875 33.890625 -1.421875 
Q 20.796875 -1.421875 13.15625 6.1875 
Q 5.515625 13.8125 5.515625 26.8125 
Q 5.515625 40.234375 12.765625 48.109375 
Q 20.015625 56 32.328125 56 
Q 43.359375 56 49.78125 48.890625 
Q 56.203125 41.796875 56.203125 29.59375 
z
M 47.21875 32.234375 
Q 47.125 39.59375 43.09375 43.984375 
Q 39.0625 48.390625 32.421875 48.390625 
Q 24.90625 48.390625 20.390625 44.140625 
Q 15.875 39.890625 15.1875 32.171875 
z
" id="DejaVuSans-101"/>
       <path d="M 45.40625 46.390625 
L 45.40625 75.984375 
L 54.390625 75.984375 
L 54.390625 0 
L 45.40625 0 
L 45.40625 8.203125 
Q 42.578125 3.328125 38.25 0.953125 
Q 33.9375 -1.421875 27.875 -1.421875 
Q 17.96875 -1.421875 11.734375 6.484375 
Q 5.515625 14.40625 5.515625 27.296875 
Q 5.515625 40.1875 11.734375 48.09375 
Q 17.96875 56 27.875 56 
Q 33.9375 56 38.25 53.625 
Q 42.578125 51.265625 45.40625 46.390625 
z
M 14.796875 27.296875 
Q 14.796875 17.390625 18.875 11.75 
Q 22.953125 6.109375 30.078125 6.109375 
Q 37.203125 6.109375 41.296875 11.75 
Q 45.40625 17.390625 45.40625 27.296875 
Q 45.40625 37.203125 41.296875 42.84375 
Q 37.203125 48.484375 30.078125 48.484375 
Q 22.953125 48.484375 18.875 42.84375 
Q 14.796875 37.203125 14.796875 27.296875 
z
" id="DejaVuSans-100"/>
       <path id="DejaVuSans-32"/>
       <path d="M 44.390625 34.1875 
Q 47.5625 33.109375 50.5625 29.59375 
Q 53.5625 26.078125 56.59375 19.921875 
L 66.609375 0 
L 56 0 
L 46.6875 18.703125 
Q 43.0625 26.03125 39.671875 28.421875 
Q 36.28125 30.8125 30.421875 30.8125 
L 19.671875 30.8125 
L 19.671875 0 
L 9.8125 0 
L 9.8125 72.90625 
L 32.078125 72.90625 
Q 44.578125 72.90625 50.734375 67.671875 
Q 56.890625 62.453125 56.890625 51.90625 
Q 56.890625 45.015625 53.6875 40.46875 
Q 50.484375 35.9375 44.390625 34.1875 
z
M 19.671875 64.796875 
L 19.671875 38.921875 
L 32.078125 38.921875 
Q 39.203125 38.921875 42.84375 42.21875 
Q 46.484375 45.515625 46.484375 51.90625 
Q 46.484375 58.296875 42.84375 61.546875 
Q 39.203125 64.796875 32.078125 64.796875 
z
" id="DejaVuSans-82"/>
       <path d="M 37.109375 75.984375 
L 37.109375 68.5 
L 28.515625 68.5 
Q 23.6875 68.5 21.796875 66.546875 
Q 19.921875 64.59375 19.921875 59.515625 
L 19.921875 54.6875 
L 34.71875 54.6875 
L 34.71875 47.703125 
L 19.921875 47.703125 
L 19.921875 0 
L 10.890625 0 
L 10.890625 47.703125 
L 2.296875 47.703125 
L 2.296875 54.6875 
L 10.890625 54.6875 
L 10.890625 58.5 
Q 10.890625 67.625 15.140625 71.796875 
Q 19.390625 75.984375 28.609375 75.984375 
z
" id="DejaVuSans-102"/>
      </defs>
      <use xlink:href="#DejaVuSans-70"/>
      <use x="50.269531" xlink:href="#DejaVuSans-105"/>
      <use x="78.052734" xlink:href="#DejaVuSans-120"/>
      <use x="134.107422" xlink:href="#DejaVuSans-101"/>
      <use x="195.630859" xlink:href="#DejaVuSans-100"/>
      <use x="259.107422" xlink:href="#DejaVuSans-32"/>
      <use x="290.894531" xlink:href="#DejaVuSans-82"/>
      <use x="355.876953" xlink:href="#DejaVuSans-101"/>
      <use x="417.400391" xlink:href="#DejaVuSans-102"/>
     </g>
    </g>
    <g id="line2d_15">
     <path d="M 291.626562 39.576563 
L 331.626562 39.576563 
" style="fill:none;stroke:#ff7f0e;stroke-dasharray:1.5,2.475;stroke-dashoffset:0;stroke-opacity:0.9;stroke-width:1.5;"/>
    </g>
    <g id="line2d_16"/>
    <g id="text_2">
     <!-- 2nd ord. DMP -->
     <g transform="translate(339.626562 43.076563)scale(0.1 -0.1)">
      <defs>
       <path d="M 19.1875 8.296875 
L 53.609375 8.296875 
L 53.609375 0 
L 7.328125 0 
L 7.328125 8.296875 
Q 12.9375 14.109375 22.625 23.890625 
Q 32.328125 33.6875 34.8125 36.53125 
Q 39.546875 41.84375 41.421875 45.53125 
Q 43.3125 49.21875 43.3125 52.78125 
Q 43.3125 58.59375 39.234375 62.25 
Q 35.15625 65.921875 28.609375 65.921875 
Q 23.96875 65.921875 18.8125 64.3125 
Q 13.671875 62.703125 7.8125 59.421875 
L 7.8125 69.390625 
Q 13.765625 71.78125 18.9375 73 
Q 24.125 74.21875 28.421875 74.21875 
Q 39.75 74.21875 46.484375 68.546875 
Q 53.21875 62.890625 53.21875 53.421875 
Q 53.21875 48.921875 51.53125 44.890625 
Q 49.859375 40.875 45.40625 35.40625 
Q 44.1875 33.984375 37.640625 27.21875 
Q 31.109375 20.453125 19.1875 8.296875 
z
" id="DejaVuSans-50"/>
       <path d="M 54.890625 33.015625 
L 54.890625 0 
L 45.90625 0 
L 45.90625 32.71875 
Q 45.90625 40.484375 42.875 44.328125 
Q 39.84375 48.1875 33.796875 48.1875 
Q 26.515625 48.1875 22.3125 43.546875 
Q 18.109375 38.921875 18.109375 30.90625 
L 18.109375 0 
L 9.078125 0 
L 9.078125 54.6875 
L 18.109375 54.6875 
L 18.109375 46.1875 
Q 21.34375 51.125 25.703125 53.5625 
Q 30.078125 56 35.796875 56 
Q 45.21875 56 50.046875 50.171875 
Q 54.890625 44.34375 54.890625 33.015625 
z
" id="DejaVuSans-110"/>
       <path d="M 30.609375 48.390625 
Q 23.390625 48.390625 19.1875 42.75 
Q 14.984375 37.109375 14.984375 27.296875 
Q 14.984375 17.484375 19.15625 11.84375 
Q 23.34375 6.203125 30.609375 6.203125 
Q 37.796875 6.203125 41.984375 11.859375 
Q 46.1875 17.53125 46.1875 27.296875 
Q 46.1875 37.015625 41.984375 42.703125 
Q 37.796875 48.390625 30.609375 48.390625 
z
M 30.609375 56 
Q 42.328125 56 49.015625 48.375 
Q 55.71875 40.765625 55.71875 27.296875 
Q 55.71875 13.875 49.015625 6.21875 
Q 42.328125 -1.421875 30.609375 -1.421875 
Q 18.84375 -1.421875 12.171875 6.21875 
Q 5.515625 13.875 5.515625 27.296875 
Q 5.515625 40.765625 12.171875 48.375 
Q 18.84375 56 30.609375 56 
z
" id="DejaVuSans-111"/>
       <path d="M 41.109375 46.296875 
Q 39.59375 47.171875 37.8125 47.578125 
Q 36.03125 48 33.890625 48 
Q 26.265625 48 22.1875 43.046875 
Q 18.109375 38.09375 18.109375 28.8125 
L 18.109375 0 
L 9.078125 0 
L 9.078125 54.6875 
L 18.109375 54.6875 
L 18.109375 46.1875 
Q 20.953125 51.171875 25.484375 53.578125 
Q 30.03125 56 36.53125 56 
Q 37.453125 56 38.578125 55.875 
Q 39.703125 55.765625 41.0625 55.515625 
z
" id="DejaVuSans-114"/>
       <path d="M 10.6875 12.40625 
L 21 12.40625 
L 21 0 
L 10.6875 0 
z
" id="DejaVuSans-46"/>
       <path d="M 19.671875 64.796875 
L 19.671875 8.109375 
L 31.59375 8.109375 
Q 46.6875 8.109375 53.6875 14.9375 
Q 60.6875 21.78125 60.6875 36.53125 
Q 60.6875 51.171875 53.6875 57.984375 
Q 46.6875 64.796875 31.59375 64.796875 
z
M 9.8125 72.90625 
L 30.078125 72.90625 
Q 51.265625 72.90625 61.171875 64.09375 
Q 71.09375 55.28125 71.09375 36.53125 
Q 71.09375 17.671875 61.125 8.828125 
Q 51.171875 0 30.078125 0 
L 9.8125 0 
z
" id="DejaVuSans-68"/>
       <path d="M 9.8125 72.90625 
L 24.515625 72.90625 
L 43.109375 23.296875 
L 61.8125 72.90625 
L 76.515625 72.90625 
L 76.515625 0 
L 66.890625 0 
L 66.890625 64.015625 
L 48.09375 14.015625 
L 38.1875 14.015625 
L 19.390625 64.015625 
L 19.390625 0 
L 9.8125 0 
z
" id="DejaVuSans-77"/>
       <path d="M 19.671875 64.796875 
L 19.671875 37.40625 
L 32.078125 37.40625 
Q 38.96875 37.40625 42.71875 40.96875 
Q 46.484375 44.53125 46.484375 51.125 
Q 46.484375 57.671875 42.71875 61.234375 
Q 38.96875 64.796875 32.078125 64.796875 
z
M 9.8125 72.90625 
L 32.078125 72.90625 
Q 44.34375 72.90625 50.609375 67.359375 
Q 56.890625 61.8125 56.890625 51.125 
Q 56.890625 40.328125 50.609375 34.8125 
Q 44.34375 29.296875 32.078125 29.296875 
L 19.671875 29.296875 
L 19.671875 0 
L 9.8125 0 
z
" id="DejaVuSans-80"/>
      </defs>
      <use xlink:href="#DejaVuSans-50"/>
      <use x="63.623047" xlink:href="#DejaVuSans-110"/>
      <use x="127.001953" xlink:href="#DejaVuSans-100"/>
      <use x="190.478516" xlink:href="#DejaVuSans-32"/>
      <use x="222.265625" xlink:href="#DejaVuSans-111"/>
      <use x="283.447266" xlink:href="#DejaVuSans-114"/>
      <use x="322.810547" xlink:href="#DejaVuSans-100"/>
      <use x="386.287109" xlink:href="#DejaVuSans-46"/>
      <use x="418.074219" xlink:href="#DejaVuSans-32"/>
      <use x="449.861328" xlink:href="#DejaVuSans-68"/>
      <use x="526.863281" xlink:href="#DejaVuSans-77"/>
      <use x="613.142578" xlink:href="#DejaVuSans-80"/>
     </g>
    </g>
    <g id="line2d_17">
     <path d="M 291.626562 54.254688 
L 331.626562 54.254688 
" style="fill:none;stroke:#2ca02c;stroke-dasharray:5.55,2.4;stroke-dashoffset:0;stroke-opacity:0.9;stroke-width:1.5;"/>
    </g>
    <g id="line2d_18"/>
    <g id="text_3">
     <!-- 3rd ord. DMP -->
     <g transform="translate(339.626562 57.754688)scale(0.1 -0.1)">
      <defs>
       <path d="M 40.578125 39.3125 
Q 47.65625 37.796875 51.625 33 
Q 55.609375 28.21875 55.609375 21.1875 
Q 55.609375 10.40625 48.1875 4.484375 
Q 40.765625 -1.421875 27.09375 -1.421875 
Q 22.515625 -1.421875 17.65625 -0.515625 
Q 12.796875 0.390625 7.625 2.203125 
L 7.625 11.71875 
Q 11.71875 9.328125 16.59375 8.109375 
Q 21.484375 6.890625 26.8125 6.890625 
Q 36.078125 6.890625 40.9375 10.546875 
Q 45.796875 14.203125 45.796875 21.1875 
Q 45.796875 27.640625 41.28125 31.265625 
Q 36.765625 34.90625 28.71875 34.90625 
L 20.21875 34.90625 
L 20.21875 43.015625 
L 29.109375 43.015625 
Q 36.375 43.015625 40.234375 45.921875 
Q 44.09375 48.828125 44.09375 54.296875 
Q 44.09375 59.90625 40.109375 62.90625 
Q 36.140625 65.921875 28.71875 65.921875 
Q 24.65625 65.921875 20.015625 65.03125 
Q 15.375 64.15625 9.8125 62.3125 
L 9.8125 71.09375 
Q 15.4375 72.65625 20.34375 73.4375 
Q 25.25 74.21875 29.59375 74.21875 
Q 40.828125 74.21875 47.359375 69.109375 
Q 53.90625 64.015625 53.90625 55.328125 
Q 53.90625 49.265625 50.4375 45.09375 
Q 46.96875 40.921875 40.578125 39.3125 
z
" id="DejaVuSans-51"/>
      </defs>
      <use xlink:href="#DejaVuSans-51"/>
      <use x="63.623047" xlink:href="#DejaVuSans-114"/>
      <use x="102.986328" xlink:href="#DejaVuSans-100"/>
      <use x="166.462891" xlink:href="#DejaVuSans-32"/>
      <use x="198.25" xlink:href="#DejaVuSans-111"/>
      <use x="259.431641" xlink:href="#DejaVuSans-114"/>
      <use x="298.794922" xlink:href="#DejaVuSans-100"/>
      <use x="362.271484" xlink:href="#DejaVuSans-46"/>
      <use x="394.058594" xlink:href="#DejaVuSans-32"/>
      <use x="425.845703" xlink:href="#DejaVuSans-68"/>
      <use x="502.847656" xlink:href="#DejaVuSans-77"/>
      <use x="589.126953" xlink:href="#DejaVuSans-80"/>
     </g>
    </g>
    <g id="line2d_19">
     <path d="M 291.626562 68.932813 
L 331.626562 68.932813 
" style="fill:none;stroke:#d62728;stroke-linecap:square;stroke-opacity:0.7;stroke-width:1.5;"/>
    </g>
    <g id="line2d_20"/>
    <g id="text_4">
     <!-- Proposed DMP -->
     <g transform="translate(339.626562 72.432813)scale(0.1 -0.1)">
      <defs>
       <path d="M 18.109375 8.203125 
L 18.109375 -20.796875 
L 9.078125 -20.796875 
L 9.078125 54.6875 
L 18.109375 54.6875 
L 18.109375 46.390625 
Q 20.953125 51.265625 25.265625 53.625 
Q 29.59375 56 35.59375 56 
Q 45.5625 56 51.78125 48.09375 
Q 58.015625 40.1875 58.015625 27.296875 
Q 58.015625 14.40625 51.78125 6.484375 
Q 45.5625 -1.421875 35.59375 -1.421875 
Q 29.59375 -1.421875 25.265625 0.953125 
Q 20.953125 3.328125 18.109375 8.203125 
z
M 48.6875 27.296875 
Q 48.6875 37.203125 44.609375 42.84375 
Q 40.53125 48.484375 33.40625 48.484375 
Q 26.265625 48.484375 22.1875 42.84375 
Q 18.109375 37.203125 18.109375 27.296875 
Q 18.109375 17.390625 22.1875 11.75 
Q 26.265625 6.109375 33.40625 6.109375 
Q 40.53125 6.109375 44.609375 11.75 
Q 48.6875 17.390625 48.6875 27.296875 
z
" id="DejaVuSans-112"/>
       <path d="M 44.28125 53.078125 
L 44.28125 44.578125 
Q 40.484375 46.53125 36.375 47.5 
Q 32.28125 48.484375 27.875 48.484375 
Q 21.1875 48.484375 17.84375 46.4375 
Q 14.5 44.390625 14.5 40.28125 
Q 14.5 37.15625 16.890625 35.375 
Q 19.28125 33.59375 26.515625 31.984375 
L 29.59375 31.296875 
Q 39.15625 29.25 43.1875 25.515625 
Q 47.21875 21.78125 47.21875 15.09375 
Q 47.21875 7.46875 41.1875 3.015625 
Q 35.15625 -1.421875 24.609375 -1.421875 
Q 20.21875 -1.421875 15.453125 -0.5625 
Q 10.6875 0.296875 5.421875 2 
L 5.421875 11.28125 
Q 10.40625 8.6875 15.234375 7.390625 
Q 20.0625 6.109375 24.8125 6.109375 
Q 31.15625 6.109375 34.5625 8.28125 
Q 37.984375 10.453125 37.984375 14.40625 
Q 37.984375 18.0625 35.515625 20.015625 
Q 33.0625 21.96875 24.703125 23.78125 
L 21.578125 24.515625 
Q 13.234375 26.265625 9.515625 29.90625 
Q 5.8125 33.546875 5.8125 39.890625 
Q 5.8125 47.609375 11.28125 51.796875 
Q 16.75 56 26.8125 56 
Q 31.78125 56 36.171875 55.265625 
Q 40.578125 54.546875 44.28125 53.078125 
z
" id="DejaVuSans-115"/>
      </defs>
      <use xlink:href="#DejaVuSans-80"/>
      <use x="58.552734" xlink:href="#DejaVuSans-114"/>
      <use x="97.416016" xlink:href="#DejaVuSans-111"/>
      <use x="158.597656" xlink:href="#DejaVuSans-112"/>
      <use x="222.074219" xlink:href="#DejaVuSans-111"/>
      <use x="283.255859" xlink:href="#DejaVuSans-115"/>
      <use x="335.355469" xlink:href="#DejaVuSans-101"/>
      <use x="396.878906" xlink:href="#DejaVuSans-100"/>
      <use x="460.355469" xlink:href="#DejaVuSans-32"/>
      <use x="492.142578" xlink:href="#DejaVuSans-68"/>
      <use x="569.144531" xlink:href="#DejaVuSans-77"/>
      <use x="655.423828" xlink:href="#DejaVuSans-80"/>
     </g>
    </g>
    <g id="line2d_21">
     <path d="M 291.626562 83.610938 
L 331.626562 83.610938 
" style="fill:none;stroke:#000000;stroke-dasharray:5.55,2.4;stroke-dashoffset:0;stroke-opacity:0.25;stroke-width:1.5;"/>
    </g>
    <g id="line2d_22"/>
    <g id="text_5">
     <!-- Reference -->
     <g transform="translate(339.626562 87.110938)scale(0.1 -0.1)">
      <defs>
       <path d="M 48.78125 52.59375 
L 48.78125 44.1875 
Q 44.96875 46.296875 41.140625 47.34375 
Q 37.3125 48.390625 33.40625 48.390625 
Q 24.65625 48.390625 19.8125 42.84375 
Q 14.984375 37.3125 14.984375 27.296875 
Q 14.984375 17.28125 19.8125 11.734375 
Q 24.65625 6.203125 33.40625 6.203125 
Q 37.3125 6.203125 41.140625 7.25 
Q 44.96875 8.296875 48.78125 10.40625 
L 48.78125 2.09375 
Q 45.015625 0.34375 40.984375 -0.53125 
Q 36.96875 -1.421875 32.421875 -1.421875 
Q 20.0625 -1.421875 12.78125 6.34375 
Q 5.515625 14.109375 5.515625 27.296875 
Q 5.515625 40.671875 12.859375 48.328125 
Q 20.21875 56 33.015625 56 
Q 37.15625 56 41.109375 55.140625 
Q 45.0625 54.296875 48.78125 52.59375 
z
" id="DejaVuSans-99"/>
      </defs>
      <use xlink:href="#DejaVuSans-82"/>
      <use x="64.982422" xlink:href="#DejaVuSans-101"/>
      <use x="126.505859" xlink:href="#DejaVuSans-102"/>
      <use x="161.710938" xlink:href="#DejaVuSans-101"/>
      <use x="223.234375" xlink:href="#DejaVuSans-114"/>
      <use x="262.097656" xlink:href="#DejaVuSans-101"/>
      <use x="323.621094" xlink:href="#DejaVuSans-110"/>
      <use x="387" xlink:href="#DejaVuSans-99"/>
      <use x="441.980469" xlink:href="#DejaVuSans-101"/>
     </g>
    </g>
    <g id="line2d_23"/>
    <g id="line2d_24">
     <g>
      <use style="stroke:#000000;stroke-linejoin:bevel;" x="311.626562" xlink:href="#me66555ce44" y="98.289063"/>
     </g>
    </g>
    <g id="text_6">
     <!-- Start -->
     <g transform="translate(339.626562 101.789063)scale(0.1 -0.1)">
      <defs>
       <path d="M 53.515625 70.515625 
L 53.515625 60.890625 
Q 47.90625 63.578125 42.921875 64.890625 
Q 37.9375 66.21875 33.296875 66.21875 
Q 25.25 66.21875 20.875 63.09375 
Q 16.5 59.96875 16.5 54.203125 
Q 16.5 49.359375 19.40625 46.890625 
Q 22.3125 44.4375 30.421875 42.921875 
L 36.375 41.703125 
Q 47.40625 39.59375 52.65625 34.296875 
Q 57.90625 29 57.90625 20.125 
Q 57.90625 9.515625 50.796875 4.046875 
Q 43.703125 -1.421875 29.984375 -1.421875 
Q 24.8125 -1.421875 18.96875 -0.25 
Q 13.140625 0.921875 6.890625 3.21875 
L 6.890625 13.375 
Q 12.890625 10.015625 18.65625 8.296875 
Q 24.421875 6.59375 29.984375 6.59375 
Q 38.421875 6.59375 43.015625 9.90625 
Q 47.609375 13.234375 47.609375 19.390625 
Q 47.609375 24.75 44.3125 27.78125 
Q 41.015625 30.8125 33.5 32.328125 
L 27.484375 33.5 
Q 16.453125 35.6875 11.515625 40.375 
Q 6.59375 45.0625 6.59375 53.421875 
Q 6.59375 63.09375 13.40625 68.65625 
Q 20.21875 74.21875 32.171875 74.21875 
Q 37.3125 74.21875 42.625 73.28125 
Q 47.953125 72.359375 53.515625 70.515625 
z
" id="DejaVuSans-83"/>
       <path d="M 18.3125 70.21875 
L 18.3125 54.6875 
L 36.8125 54.6875 
L 36.8125 47.703125 
L 18.3125 47.703125 
L 18.3125 18.015625 
Q 18.3125 11.328125 20.140625 9.421875 
Q 21.96875 7.515625 27.59375 7.515625 
L 36.8125 7.515625 
L 36.8125 0 
L 27.59375 0 
Q 17.1875 0 13.234375 3.875 
Q 9.28125 7.765625 9.28125 18.015625 
L 9.28125 47.703125 
L 2.6875 47.703125 
L 2.6875 54.6875 
L 9.28125 54.6875 
L 9.28125 70.21875 
z
" id="DejaVuSans-116"/>
       <path d="M 34.28125 27.484375 
Q 23.390625 27.484375 19.1875 25 
Q 14.984375 22.515625 14.984375 16.5 
Q 14.984375 11.71875 18.140625 8.90625 
Q 21.296875 6.109375 26.703125 6.109375 
Q 34.1875 6.109375 38.703125 11.40625 
Q 43.21875 16.703125 43.21875 25.484375 
L 43.21875 27.484375 
z
M 52.203125 31.203125 
L 52.203125 0 
L 43.21875 0 
L 43.21875 8.296875 
Q 40.140625 3.328125 35.546875 0.953125 
Q 30.953125 -1.421875 24.3125 -1.421875 
Q 15.921875 -1.421875 10.953125 3.296875 
Q 6 8.015625 6 15.921875 
Q 6 25.140625 12.171875 29.828125 
Q 18.359375 34.515625 30.609375 34.515625 
L 43.21875 34.515625 
L 43.21875 35.40625 
Q 43.21875 41.609375 39.140625 45 
Q 35.0625 48.390625 27.6875 48.390625 
Q 23 48.390625 18.546875 47.265625 
Q 14.109375 46.140625 10.015625 43.890625 
L 10.015625 52.203125 
Q 14.9375 54.109375 19.578125 55.046875 
Q 24.21875 56 28.609375 56 
Q 40.484375 56 46.34375 49.84375 
Q 52.203125 43.703125 52.203125 31.203125 
z
" id="DejaVuSans-97"/>
      </defs>
      <use xlink:href="#DejaVuSans-83"/>
      <use x="63.476562" xlink:href="#DejaVuSans-116"/>
      <use x="102.685547" xlink:href="#DejaVuSans-97"/>
      <use x="163.964844" xlink:href="#DejaVuSans-114"/>
      <use x="205.078125" xlink:href="#DejaVuSans-116"/>
     </g>
    </g>
    <g id="line2d_25">
     <path d="M 291.626562 112.967188 
L 298.626562 112.967188 
" style="fill:none;stroke:#1f77b4;stroke-linecap:square;stroke-opacity:0.7;stroke-width:1.5;"/>
    </g>
    <g id="line2d_26">
     <g>
      <use style="fill:#1f77b4;fill-opacity:0.7;stroke:#1f77b4;stroke-opacity:0.7;" x="295.126562" xlink:href="#m126e0c34e3" y="112.967188"/>
     </g>
    </g>
    <g id="line2d_27">
     <path d="M 302.626562 112.967188 
L 309.626562 112.967188 
" style="fill:none;stroke:#ff7f0e;stroke-linecap:square;stroke-opacity:0.7;stroke-width:1.5;"/>
    </g>
    <g id="line2d_28">
     <g>
      <use style="fill:#ff7f0e;fill-opacity:0.7;stroke:#ff7f0e;stroke-opacity:0.7;" x="306.126562" xlink:href="#m26b0dcadeb" y="112.967188"/>
     </g>
    </g>
    <g id="line2d_29">
     <path d="M 313.626562 112.967188 
L 320.626562 112.967188 
" style="fill:none;stroke:#2ca02c;stroke-linecap:square;stroke-opacity:0.7;stroke-width:1.5;"/>
    </g>
    <g id="line2d_30">
     <g>
      <use style="fill:#2ca02c;fill-opacity:0.7;stroke:#2ca02c;stroke-opacity:0.7;" x="317.126562" xlink:href="#m44bda2bdca" y="112.967188"/>
     </g>
    </g>
    <g id="line2d_31">
     <path d="M 324.626562 112.967188 
L 331.626562 112.967188 
" style="fill:none;stroke:#d62728;stroke-linecap:square;stroke-opacity:0.7;stroke-width:1.5;"/>
    </g>
    <g id="line2d_32">
     <g>
      <use style="fill:#d62728;fill-opacity:0.7;stroke:#d62728;stroke-opacity:0.7;" x="328.126562" xlink:href="#m2bb8298c13" y="112.967188"/>
     </g>
    </g>
    <g id="text_7">
     <!-- End -->
     <g transform="translate(339.626562 116.467188)scale(0.1 -0.1)">
      <defs>
       <path d="M 9.8125 72.90625 
L 55.90625 72.90625 
L 55.90625 64.59375 
L 19.671875 64.59375 
L 19.671875 43.015625 
L 54.390625 43.015625 
L 54.390625 34.71875 
L 19.671875 34.71875 
L 19.671875 8.296875 
L 56.78125 8.296875 
L 56.78125 0 
L 9.8125 0 
z
" id="DejaVuSans-69"/>
      </defs>
      <use xlink:href="#DejaVuSans-69"/>
      <use x="63.183594" xlink:href="#DejaVuSans-110"/>
      <use x="126.5625" xlink:href="#DejaVuSans-100"/>
     </g>
    </g>
   </g>
  </g>
 </g>
 <defs>
  <clipPath id="pad7d9543ff">
   <rect height="266.4" width="410.4" x="10.8" y="10.8"/>
  </clipPath>
 </defs>
</svg>
