<?xml version="1.0" encoding="utf-8" standalone="no"?>
<!DOCTYPE svg PUBLIC "-//W3C//DTD SVG 1.1//EN"
  "http://www.w3.org/Graphics/SVG/1.1/DTD/svg11.dtd">
<!-- Created with matplotlib (https://matplotlib.org/) -->
<svg height="288pt" version="1.1" viewBox="0 0 432 288" width="432pt" xmlns="http://www.w3.org/2000/svg" xmlns:xlink="http://www.w3.org/1999/xlink">
 <metadata>
  <rdf:RDF xmlns:cc="http://creativecommons.org/ns#" xmlns:dc="http://purl.org/dc/elements/1.1/" xmlns:rdf="http://www.w3.org/1999/02/22-rdf-syntax-ns#">
   <cc:Work>
    <dc:type rdf:resource="http://purl.org/dc/dcmitype/StillImage"/>
    <dc:date>2022-11-03T18:30:33.162035</dc:date>
    <dc:format>image/svg+xml</dc:format>
    <dc:creator>
     <cc:Agent>
      <dc:title>Matplotlib v3.3.0, https://matplotlib.org/</dc:title>
     </cc:Agent>
    </dc:creator>
   </cc:Work>
  </rdf:RDF>
 </metadata>
 <defs>
  <style type="text/css">*{stroke-linecap:butt;stroke-linejoin:round;}</style>
 </defs>
 <g id="figure_1">
  <g id="patch_1">
   <path d="M 0 288 
L 432 288 
L 432 0 
L 0 0 
z
" style="fill:#ffffff;"/>
  </g>
  <g id="axes_1">
   <g id="matplotlib.axis_1"/>
   <g id="matplotlib.axis_2"/>
   <g id="line2d_1">
    <path clip-path="url(#pcff05d0d3f)" d="M 117.95258 216.70149 
L 119.258732 212.300334 
L 120.521496 207.885377 
L 121.739035 203.437944 
L 122.908472 198.960634 
L 124.043493 194.464465 
L 125.138021 189.943745 
L 126.184608 185.399917 
L 127.191149 180.835136 
L 128.17924 176.254152 
L 129.152321 171.654633 
L 130.108815 167.036152 
L 131.067463 162.409918 
L 132.022823 157.766898 
L 132.973522 153.110493 
L 133.954919 148.452925 
L 134.984861 143.816562 
L 136.062337 139.184487 
L 137.164756 134.539383 
L 138.250801 129.884251 
L 139.317244 125.22849 
L 140.376401 120.580424 
L 141.386142 116.063089 
L 142.417506 111.534944 
L 143.472842 107.050054 
L 144.513337 102.689823 
L 145.552667 98.398367 
L 146.603334 94.22794 
L 147.658486 90.151664 
L 148.716252 86.206081 
L 150.244864 83.213592 
L 151.649568 79.999692 
L 153.026848 76.869718 
L 154.382094 73.874218 
L 155.751613 70.905321 
L 157.100761 67.996163 
L 158.449646 65.159028 
L 159.785705 62.45425 
L 161.108549 59.794917 
L 162.42099 57.221886 
L 163.717676 54.736361 
L 165.000666 52.331919 
L 166.238426 49.994582 
L 167.464781 47.723084 
L 168.648061 45.485505 
L 169.819146 43.345371 
L 170.993802 41.260519 
L 172.135371 39.243052 
L 173.273453 37.291317 
L 174.375583 35.416559 
L 175.471817 33.599857 
L 176.548275 31.870102 
L 177.619584 30.204775 
L 178.685022 28.586722 
L 179.620912 28.264809 
L 180.604569 27.417917 
L 181.543595 26.871541 
L 182.507407 26.231605 
L 183.514531 25.627006 
L 184.525451 25.119592 
L 185.610416 24.553987 
L 186.705996 24.000107 
L 187.786584 23.511031 
L 188.928241 23.038943 
L 190.017507 22.63837 
L 191.093163 22.267155 
L 192.232412 21.917252 
L 193.352078 21.596797 
L 194.436145 21.281538 
L 195.587354 21.041681 
L 196.737872 20.829068 
L 197.871113 20.654186 
L 199.051372 20.546981 
L 200.199406 20.468378 
L 201.315231 20.43871 
L 202.443071 20.510741 
L 203.566129 20.618512 
L 204.651427 20.785684 
L 205.698662 21.020529 
L 206.703373 21.317189 
L 207.671317 21.669294 
L 208.590312 22.07035 
L 209.452517 22.519039 
L 210.255107 23.007994 
L 210.994578 23.542387 
L 211.682887 24.104657 
L 212.327466 24.693801 
L 212.880594 25.309802 
L 213.412875 25.932226 
L 213.889457 26.545615 
L 214.259524 27.158623 
L 214.589968 27.744825 
L 214.855303 28.30524 
L 215.037999 28.853128 
" style="fill:none;stroke:#1f77b4;stroke-dasharray:9.6,2.4,1.5,2.4;stroke-dashoffset:0;stroke-opacity:0.9;stroke-width:1.5;"/>
   </g>
   <g id="line2d_2">
    <defs>
     <path d="M 0 3 
C 0.795609 3 1.55874 2.683901 2.12132 2.12132 
C 2.683901 1.55874 3 0.795609 3 0 
C 3 -0.795609 2.683901 -1.55874 2.12132 -2.12132 
C 1.55874 -2.683901 0.795609 -3 0 -3 
C -0.795609 -3 -1.55874 -2.683901 -2.12132 -2.12132 
C -2.683901 -1.55874 -3 -0.795609 -3 0 
C -3 0.795609 -2.683901 1.55874 -2.12132 2.12132 
C -1.55874 2.683901 -0.795609 3 0 3 
z
" id="m748c37e001" style="stroke:#1f77b4;stroke-opacity:0.7;"/>
    </defs>
    <g clip-path="url(#pcff05d0d3f)">
     <use style="fill:#1f77b4;fill-opacity:0.7;stroke:#1f77b4;stroke-opacity:0.7;" x="215.037999" xlink:href="#m748c37e001" y="28.853128"/>
    </g>
   </g>
   <g id="line2d_3">
    <path clip-path="url(#pcff05d0d3f)" d="M 117.95258 216.70149 
L 120.541554 207.944528 
L 121.647198 203.653591 
L 123.524941 195.013161 
L 125.172875 186.240335 
L 127.985483 169.037329 
L 129.75685 160.598812 
L 131.940905 152.230327 
L 133.155487 148.064978 
L 134.488097 143.936667 
L 141.682967 123.53629 
L 143.045805 119.607645 
L 144.534086 115.76448 
L 146.122602 111.973573 
L 154.397188 93.638336 
L 157.930602 86.656914 
L 161.376477 80.207977 
L 164.96634 74.214984 
L 168.899078 68.430013 
L 172.894586 63.278702 
L 174.937579 60.90954 
L 177.07432 58.651995 
L 179.299769 56.501202 
L 183.727564 52.654446 
L 187.941131 49.316745 
L 190.519423 47.563416 
L 197.624413 43.286821 
L 200.061964 41.952167 
L 204.886467 39.683101 
L 207.419636 38.684959 
L 209.886543 37.844143 
L 214.640145 36.61104 
L 216.899526 36.181583 
L 219.238572 35.871508 
L 224.010933 35.593676 
L 226.45252 35.589328 
L 231.390658 35.941363 
L 235.44358 36.425509 
L 245.549178 38.452358 
L 248.964983 39.513316 
L 254.224998 41.762314 
L 257.55699 43.454926 
L 262.039175 46.141284 
L 268.400129 50.233122 
L 269.926043 51.445772 
L 274.124697 55.338476 
L 276.956587 58.065449 
L 279.98432 60.716606 
L 282.856034 63.646659 
L 285.463492 66.954396 
L 287.576471 70.23179 
L 289.672139 74.282926 
L 290.544753 76.126035 
L 292.408104 79.395148 
L 298.41166 88.110107 
L 299.292566 89.648916 
L 300.588411 92.399482 
L 301.617948 95.53967 
L 303.518268 102.242178 
L 304.516302 105.700997 
L 305.198176 109.087322 
L 305.820783 112.649465 
L 306.33087 116.37082 
L 306.667429 120.184264 
L 306.735465 124.117336 
L 306.111073 131.743286 
L 305.75251 133.766675 
L 305.268867 135.788272 
L 304.092051 139.8266 
L 302.461248 143.791739 
L 301.528105 145.769861 
L 298.422801 151.336205 
L 297.198815 153.26555 
L 297.198815 153.26555 
" style="fill:none;stroke:#ff7f0e;stroke-dasharray:1.5,2.475;stroke-dashoffset:0;stroke-opacity:0.9;stroke-width:1.5;"/>
   </g>
   <g id="line2d_4">
    <defs>
     <path d="M 0 3 
C 0.795609 3 1.55874 2.683901 2.12132 2.12132 
C 2.683901 1.55874 3 0.795609 3 0 
C 3 -0.795609 2.683901 -1.55874 2.12132 -2.12132 
C 1.55874 -2.683901 0.795609 -3 0 -3 
C -0.795609 -3 -1.55874 -2.683901 -2.12132 -2.12132 
C -2.683901 -1.55874 -3 -0.795609 -3 0 
C -3 0.795609 -2.683901 1.55874 -2.12132 2.12132 
C -1.55874 2.683901 -0.795609 3 0 3 
z
" id="me2f889f82b" style="stroke:#ff7f0e;stroke-opacity:0.7;"/>
    </defs>
    <g clip-path="url(#pcff05d0d3f)">
     <use style="fill:#ff7f0e;fill-opacity:0.7;stroke:#ff7f0e;stroke-opacity:0.7;" x="297.198815" xlink:href="#me2f889f82b" y="153.26555"/>
    </g>
   </g>
   <g id="line2d_5">
    <path clip-path="url(#pcff05d0d3f)" d="M 117.95258 216.70149 
L 120.565342 207.977954 
L 122.768931 199.395569 
L 124.271023 192.18539 
L 126.629668 179.07743 
L 128.56023 170.448622 
L 134.107178 148.852964 
L 136.637546 140.354152 
L 143.46266 119.120653 
L 146.56245 110.930041 
L 151.546257 98.854712 
L 153.234849 95.085869 
L 155.606183 90.310696 
L 159.321383 83.640002 
L 163.099309 77.564768 
L 167.095574 71.81312 
L 169.233024 68.988264 
L 174.743617 62.23458 
L 176.932586 59.781276 
L 179.138941 57.512607 
L 183.528197 53.470857 
L 185.733421 51.643257 
L 190.684565 48.045711 
L 192.976694 46.530376 
L 197.813108 43.769777 
L 202.861487 41.281567 
L 207.973479 39.140539 
L 210.471002 38.287702 
L 212.965883 37.563055 
L 217.977883 36.455887 
L 223.135282 35.806408 
L 228.456011 35.522411 
L 231.144315 35.557503 
L 236.563189 36.008173 
L 242.054117 36.792631 
L 244.668152 37.306816 
L 247.136234 37.919252 
L 249.491971 38.626902 
L 252.438748 39.665076 
L 256.668193 41.520175 
L 260.89261 43.819544 
L 264.897667 46.285222 
L 268.705564 49.054569 
L 272.364486 52.23958 
L 275.813776 55.796964 
L 279.145641 59.656473 
L 282.32408 63.810108 
L 287.842765 72.489014 
L 293.722603 82.135779 
L 296.470646 87.292391 
L 298.995726 92.681584 
L 301.598024 99.167274 
L 303.392715 104.496426 
L 305.645082 112.192656 
L 306.87854 117.007803 
L 307.360409 119.299132 
L 308.036797 123.71045 
L 308.198265 125.946918 
L 308.218095 130.228278 
L 307.873443 134.168424 
L 307.548365 136.194997 
L 306.56436 140.2992 
L 305.20436 144.400028 
L 303.407921 148.450745 
L 302.349431 150.451802 
L 301.178921 152.423661 
L 299.8966 154.360849 
L 297.781948 157.206061 
L 294.647639 160.886301 
L 291.178398 164.441398 
L 287.532774 167.949069 
L 283.754943 171.413735 
L 278.550464 175.914632 
L 272.554946 180.342077 
L 268.293658 183.469871 
L 266.404043 185.052406 
L 266.404043 185.052406 
" style="fill:none;stroke:#2ca02c;stroke-dasharray:5.55,2.4;stroke-dashoffset:0;stroke-opacity:0.9;stroke-width:1.5;"/>
   </g>
   <g id="line2d_6">
    <defs>
     <path d="M 0 3 
C 0.795609 3 1.55874 2.683901 2.12132 2.12132 
C 2.683901 1.55874 3 0.795609 3 0 
C 3 -0.795609 2.683901 -1.55874 2.12132 -2.12132 
C 1.55874 -2.683901 0.795609 -3 0 -3 
C -0.795609 -3 -1.55874 -2.683901 -2.12132 -2.12132 
C -2.683901 -1.55874 -3 -0.795609 -3 0 
C -3 0.795609 -2.683901 1.55874 -2.12132 2.12132 
C -1.55874 2.683901 -0.795609 3 0 3 
z
" id="mc0feec61d8" style="stroke:#2ca02c;stroke-opacity:0.7;"/>
    </defs>
    <g clip-path="url(#pcff05d0d3f)">
     <use style="fill:#2ca02c;fill-opacity:0.7;stroke:#2ca02c;stroke-opacity:0.7;" x="266.404043" xlink:href="#mc0feec61d8" y="185.052406"/>
    </g>
   </g>
   <g id="line2d_7">
    <path clip-path="url(#pcff05d0d3f)" d="M 117.95258 216.70149 
L 120.561951 207.988555 
L 121.706609 203.727901 
L 122.731856 199.457257 
L 124.458897 190.825952 
L 126.081313 182.129214 
L 127.938619 173.494607 
L 129.973453 164.816028 
L 133.338009 151.804711 
L 135.749077 143.095709 
L 139.779439 130.141741 
L 142.580841 121.474811 
L 145.63432 113.007446 
L 148.963519 104.828704 
L 152.451755 96.998422 
L 154.239778 93.308703 
L 157.942683 86.452947 
L 161.58684 80.154447 
L 165.475347 74.254741 
L 169.621767 68.559183 
L 174.012894 63.024192 
L 176.205392 60.489954 
L 178.406803 58.136772 
L 182.781154 53.941511 
L 184.951532 52.051063 
L 187.174176 50.296547 
L 192.152465 46.834972 
L 196.99041 43.938019 
L 202.109181 41.301524 
L 204.741168 40.124934 
L 209.99584 38.150229 
L 212.580059 37.341587 
L 217.324603 36.200022 
L 219.855637 35.718226 
L 222.304755 35.370638 
L 224.690425 35.144654 
L 227.124935 35.029188 
L 231.697204 35.157059 
L 236.791886 35.63871 
L 241.905919 36.483542 
L 244.467517 37.075239 
L 249.538845 38.605204 
L 252.034925 39.538507 
L 257.003117 41.75036 
L 261.87807 44.318664 
L 264.133656 45.662798 
L 268.510533 48.746505 
L 272.738963 52.282958 
L 274.7619 54.187629 
L 278.282629 57.906707 
L 283.790496 64.534304 
L 287.356381 69.213461 
L 290.64006 74.161452 
L 293.699087 79.405419 
L 296.576935 84.901722 
L 299.161244 90.613107 
L 301.660626 96.917996 
L 303.464368 102.297944 
L 304.893174 107.448397 
L 305.955319 112.313864 
L 306.858979 116.817893 
L 307.435953 121.611114 
L 307.77144 126.129121 
L 307.735217 128.220226 
L 307.555273 130.904623 
L 307.308858 132.883486 
L 306.375432 136.975284 
L 305.112207 141.081979 
L 304.32011 143.110082 
L 302.372431 147.112133 
L 299.995884 151.022841 
L 298.641076 152.920901 
L 297.17473 154.775846 
L 294.569104 157.818082 
L 291.130749 161.344309 
L 279.774598 172.045445 
L 271.875281 179.883569 
L 264.343918 188.597202 
L 260.077627 193.945483 
L 260.077627 193.945483 
" style="fill:none;stroke:#d62728;stroke-linecap:square;stroke-opacity:0.7;stroke-width:1.5;"/>
   </g>
   <g id="line2d_8">
    <defs>
     <path d="M 0 3 
C 0.795609 3 1.55874 2.683901 2.12132 2.12132 
C 2.683901 1.55874 3 0.795609 3 0 
C 3 -0.795609 2.683901 -1.55874 2.12132 -2.12132 
C 1.55874 -2.683901 0.795609 -3 0 -3 
C -0.795609 -3 -1.55874 -2.683901 -2.12132 -2.12132 
C -2.683901 -1.55874 -3 -0.795609 -3 0 
C -3 0.795609 -2.683901 1.55874 -2.12132 2.12132 
C -1.55874 2.683901 -0.795609 3 0 3 
z
" id="m2c5fdcb1e2" style="stroke:#d62728;stroke-opacity:0.7;"/>
    </defs>
    <g clip-path="url(#pcff05d0d3f)">
     <use style="fill:#d62728;fill-opacity:0.7;stroke:#d62728;stroke-opacity:0.7;" x="260.077627" xlink:href="#m2c5fdcb1e2" y="193.945483"/>
    </g>
   </g>
   <g id="line2d_9">
    <defs>
     <path d="M 0 -3 
L -0.673542 -0.927051 
L -2.85317 -0.927051 
L -1.089814 0.354102 
L -1.763356 2.427051 
L -0 1.145898 
L 1.763356 2.427051 
L 1.089814 0.354102 
L 2.85317 -0.927051 
L 0.673542 -0.927051 
z
" id="m5c2ff713df" style="stroke:#000000;stroke-linejoin:bevel;"/>
    </defs>
    <g clip-path="url(#pcff05d0d3f)">
     <use style="stroke:#000000;stroke-linejoin:bevel;" x="117.95258" xlink:href="#m5c2ff713df" y="216.70149"/>
    </g>
   </g>
   <g id="line2d_10">
    <path clip-path="url(#pcff05d0d3f)" d="M 112.137933 215.236722 
L 117.574937 197.422833 
L 123.975183 177.212612 
L 128.92573 161.297952 
L 133.415917 146.801931 
L 137.247682 135.38471 
L 143.061383 118.578619 
L 147.22198 107.310689 
L 150.618189 98.758985 
L 152.982334 93.351202 
L 155.75972 87.616513 
L 158.331446 82.778412 
L 161.040625 78.168753 
L 163.877875 73.757768 
L 166.477744 70.070657 
L 169.586943 66.066352 
L 172.799088 62.27471 
L 176.097005 58.718202 
L 179.062551 55.822969 
L 182.107009 53.131815 
L 185.674288 50.287347 
L 189.322839 47.68085 
L 192.59052 45.629982 
L 196.400955 43.536178 
L 200.275768 41.699738 
L 204.200695 40.115148 
L 208.160833 38.754623 
L 212.151574 37.636637 
L 216.163957 36.780568 
L 219.680412 36.240318 
L 223.19309 35.90945 
L 226.690211 35.780016 
L 229.675768 35.836314 
L 233.623729 36.158031 
L 237.538135 36.728009 
L 241.431208 37.505018 
L 245.300481 38.490386 
L 249.130164 39.69751 
L 252.927637 41.122295 
L 257.165413 42.951526 
L 261.35546 45.017217 
L 265.020489 47.067014 
L 267.725728 48.737038 
L 272.132682 51.770238 
L 275.546236 54.430295 
L 278.441284 56.92107 
L 282.044374 60.327085 
L 285.133163 63.540392 
L 288.85538 67.758651 
L 291.680764 71.296138 
L 294.666363 75.444066 
L 297.107512 79.243226 
L 299.343234 83.130295 
L 301.348399 87.097798 
L 303.123623 91.127661 
L 304.666051 95.199559 
L 305.799882 98.793789 
L 306.847721 102.91955 
L 307.547101 106.531278 
L 308.020716 110.139677 
L 308.287067 113.739804 
L 308.341824 117.316162 
L 308.197976 120.861705 
L 307.851973 124.364154 
L 307.280491 127.804574 
L 306.504582 131.186086 
L 305.370012 135.004268 
L 304.182439 138.306104 
L 302.585305 142.004856 
L 300.762713 145.64329 
L 298.730448 149.217436 
L 296.481934 152.709714 
L 293.717776 156.539181 
L 290.409626 160.698224 
L 286.878684 164.766926 
L 283.488432 168.322243 
L 277.950818 173.753101 
L 271.047358 180.452613 
L 267.10773 184.654033 
L 263.678715 188.623311 
L 260.367918 192.761886 
L 257.20457 197.079974 
L 254.197437 201.567903 
L 251.673542 205.701861 
L 249.016621 210.512538 
L 246.819294 214.925449 
L 244.278493 220.595502 
L 242.198925 225.847528 
L 240.310963 231.22092 
L 238.829254 236.104194 
L 237.708005 240.452598 
L 236.011436 247.996443 
L 235.244224 252.459947 
L 234.599637 257.612772 
L 234.096407 263.470044 
L 233.898774 266.749579 
L 233.898774 266.749579 
" style="fill:none;stroke:#000000;stroke-dasharray:5.55,2.4;stroke-dashoffset:0;stroke-opacity:0.25;stroke-width:1.5;"/>
   </g>
   <g id="line2d_11">
    <path clip-path="url(#pcff05d0d3f)" d="M 112.325476 215.179958 
L 115.379241 204.219535 
L 121.716082 181.543586 
L 125.85331 167.635319 
L 127.941109 161.085346 
L 133.432375 145.218414 
L 140.363762 125.845468 
L 147.535305 106.580308 
L 153.383547 91.576092 
L 160.816955 73.489061 
L 165.736851 61.925237 
L 167.783721 57.732858 
L 170.004777 53.6749 
L 171.624217 51.084224 
L 173.410332 48.494768 
L 175.427238 45.87956 
L 177.086364 43.961708 
L 180.72866 40.366481 
L 182.659291 38.693768 
L 185.330478 36.620664 
L 188.082085 34.744291 
L 190.915204 33.031237 
L 193.871699 31.473275 
L 197.728799 29.741149 
L 200.895549 28.508899 
L 202.501658 27.968875 
L 205.748036 27.067029 
L 209.818179 26.233825 
L 213.131431 25.756947 
L 216.550156 25.492666 
L 219.149665 25.449225 
L 222.623137 25.65897 
L 226.896578 26.252956 
L 229.384385 26.744243 
L 233.29954 27.844793 
L 236.295508 28.925273 
L 239.247746 30.204454 
L 242.850502 32.06702 
L 247.760405 34.951293 
L 251.785246 37.571943 
L 265.391495 46.932479 
L 267.855774 48.823901 
L 272.666384 52.771661 
L 282.533433 61.595366 
L 287.077416 65.836599 
L 293.698016 72.359278 
L 300.615351 79.627974 
L 304.328867 83.755031 
L 310.207071 90.650285 
L 312.191675 93.436406 
L 313.517203 95.616949 
L 315.13781 98.579549 
L 316.534053 101.585603 
L 317.828379 105.569147 
L 318.953677 110.596905 
L 319.235887 112.300008 
L 319.718268 116.581589 
L 319.86088 119.135814 
L 319.784733 122.504597 
L 319.288083 126.712197 
L 318.625621 130.105565 
L 317.738424 133.475374 
L 316.925185 135.954023 
L 315.251813 139.905948 
L 314.119236 142.180681 
L 311.930375 145.831211 
L 309.939686 148.677795 
L 308.313954 150.734413 
L 305.971774 153.323778 
L 303.473706 155.696053 
L 299.667731 158.674534 
L 297.801738 159.935823 
L 288.836393 165.269066 
L 285.029289 167.621704 
L 281.337479 170.129621 
L 278.965335 171.904417 
L 273.321464 176.642539 
L 269.569852 180.075518 
L 265.541905 184.139126 
L 261.207793 188.945035 
L 258.916234 191.759782 
L 255.868784 195.849749 
L 253.830931 198.87108 
L 251.928372 201.96738 
L 248.783193 207.651315 
L 246.232518 212.765426 
L 244.198841 217.325585 
L 241.625538 224.067921 
L 240.73155 226.820945 
L 238.822656 233.792433 
L 237.463133 240.824554 
L 236.502901 247.942013 
L 236.185412 251.540759 
L 236.014397 255.151495 
L 236.051601 262.358964 
L 236.252257 266.643595 
L 236.252257 266.643595 
" style="fill:none;stroke:#000000;stroke-linecap:square;stroke-opacity:0.25;"/>
   </g>
   <g id="line2d_12">
    <path clip-path="url(#pcff05d0d3f)" d="M 123.337177 218.217789 
L 125.367427 210.929751 
L 134.459434 178.2062 
L 138.966014 163.854928 
L 143.627551 150.343024 
L 150.487496 131.201503 
L 161.84657 100.820411 
L 168.590535 84.388187 
L 176.96799 64.706876 
L 178.289867 62.090612 
L 180.093325 58.931834 
L 182.454058 55.400645 
L 184.101666 53.268089 
L 185.878921 51.23805 
L 188.744171 48.334218 
L 193.007299 45.044499 
L 196.383057 42.944631 
L 199.374203 41.372431 
L 201.241868 40.53205 
L 204.436545 39.301328 
L 206.389155 38.706948 
L 211.602459 37.378516 
L 216.147987 36.891893 
L 218.133143 36.828167 
L 221.459556 36.939247 
L 222.778084 37.07206 
L 226.00246 37.633121 
L 228.569885 38.270645 
L 231.188645 39.126758 
L 233.144955 39.914572 
L 236.981175 41.777223 
L 239.487012 43.146983 
L 243.730549 45.84067 
L 258.663071 56.061415 
L 260.421377 57.417441 
L 265.576124 61.655065 
L 271.685417 67.068738 
L 281.422078 76.171083 
L 285.622961 80.32483 
L 291.744934 86.760062 
L 299.808691 95.771958 
L 303.037312 100.156228 
L 304.090869 101.884488 
L 305.29584 104.252569 
L 306.04808 106.065387 
L 307.010885 109.195439 
L 307.759405 112.438976 
L 308.19204 115.079585 
L 308.471056 117.72752 
L 308.537129 119.695143 
L 308.426848 122.282864 
L 308.111441 124.858651 
L 307.491847 128.100949 
L 307.155752 129.384861 
L 306.0912 132.518539 
L 305.064089 134.914005 
L 303.884239 137.200081 
L 302.557899 139.424285 
L 300.68543 142.137266 
L 299.436728 143.683361 
L 297.637371 145.608807 
L 295.723397 147.356697 
L 293.572061 149.041054 
L 291.704515 150.295518 
L 284.365206 154.693063 
L 279.042764 157.938135 
L 275.819141 160.110701 
L 271.48973 163.37242 
L 267.334145 166.815496 
L 263.297521 170.406662 
L 258.222557 175.373505 
L 254.323509 179.49503 
L 251.16072 183.199233 
L 248.200193 187.040798 
L 245.001877 191.654376 
L 242.865873 195.004444 
L 239.714923 200.442048 
L 238.279416 203.192042 
L 234.961283 210.179577 
L 233.100813 214.488641 
L 230.878475 220.447442 
L 229.643902 224.244137 
L 228.565514 228.090953 
L 227.004167 235.087943 
L 226.26819 238.971029 
L 225.287266 245.992981 
L 224.981889 249.158128 
L 224.698806 253.94259 
L 224.612074 259.556909 
L 224.714493 263.566758 
L 224.95005 267.56129 
L 224.95005 267.56129 
" style="fill:none;stroke:#000000;stroke-linecap:square;stroke-opacity:0.25;"/>
   </g>
   <g id="line2d_13">
    <defs>
     <path d="M 0 3 
C 0.795609 3 1.55874 2.683901 2.12132 2.12132 
C 2.683901 1.55874 3 0.795609 3 0 
C 3 -0.795609 2.683901 -1.55874 2.12132 -2.12132 
C 1.55874 -2.683901 0.795609 -3 0 -3 
C -0.795609 -3 -1.55874 -2.683901 -2.12132 -2.12132 
C -2.683901 -1.55874 -3 -0.795609 -3 0 
C -3 0.795609 -2.683901 1.55874 -2.12132 2.12132 
C -1.55874 2.683901 -0.795609 3 0 3 
z
" id="m27aa54bc32" style="stroke:#000000;stroke-opacity:0.25;"/>
    </defs>
    <g clip-path="url(#pcff05d0d3f)">
     <use style="fill-opacity:0.25;stroke:#000000;stroke-opacity:0.25;" x="233.865321" xlink:href="#m27aa54bc32" y="267.407542"/>
    </g>
   </g>
   <g id="legend_1">
    <g id="patch_2">
     <path d="M 289.271875 272.2 
L 414.2 272.2 
Q 416.2 272.2 416.2 270.2 
L 416.2 166.453125 
Q 416.2 164.453125 414.2 164.453125 
L 289.271875 164.453125 
Q 287.271875 164.453125 287.271875 166.453125 
L 287.271875 270.2 
Q 287.271875 272.2 289.271875 272.2 
z
" style="fill:#ffffff;opacity:0.8;stroke:#cccccc;stroke-linejoin:miter;"/>
    </g>
    <g id="line2d_14">
     <path d="M 292.271875 173.551563 
L 332.271875 173.551563 
" style="fill:none;stroke:#1f77b4;stroke-dasharray:9.6,2.4,1.5,2.4;stroke-dashoffset:0;stroke-opacity:0.9;stroke-width:1.5;"/>
    </g>
    <g id="line2d_15"/>
    <g id="text_1">
     <!-- Fixed Ref -->
     <g transform="translate(340.271875 177.051563)scale(0.1 -0.1)">
      <defs>
       <path d="M 9.8125 72.90625 
L 51.703125 72.90625 
L 51.703125 64.59375 
L 19.671875 64.59375 
L 19.671875 43.109375 
L 48.578125 43.109375 
L 48.578125 34.8125 
L 19.671875 34.8125 
L 19.671875 0 
L 9.8125 0 
z
" id="DejaVuSans-70"/>
       <path d="M 9.421875 54.6875 
L 18.40625 54.6875 
L 18.40625 0 
L 9.421875 0 
z
M 9.421875 75.984375 
L 18.40625 75.984375 
L 18.40625 64.59375 
L 9.421875 64.59375 
z
" id="DejaVuSans-105"/>
       <path d="M 54.890625 54.6875 
L 35.109375 28.078125 
L 55.90625 0 
L 45.3125 0 
L 29.390625 21.484375 
L 13.484375 0 
L 2.875 0 
L 24.125 28.609375 
L 4.6875 54.6875 
L 15.28125 54.6875 
L 29.78125 35.203125 
L 44.28125 54.6875 
z
" id="DejaVuSans-120"/>
       <path d="M 56.203125 29.59375 
L 56.203125 25.203125 
L 14.890625 25.203125 
Q 15.484375 15.921875 20.484375 11.0625 
Q 25.484375 6.203125 34.421875 6.203125 
Q 39.59375 6.203125 44.453125 7.46875 
Q 49.3125 8.734375 54.109375 11.28125 
L 54.109375 2.78125 
Q 49.265625 0.734375 44.1875 -0.34375 
Q 39.109375 -1.421875 33.890625 -1.421875 
Q 20.796875 -1.421875 13.15625 6.1875 
Q 5.515625 13.8125 5.515625 26.8125 
Q 5.515625 40.234375 12.765625 48.109375 
Q 20.015625 56 32.328125 56 
Q 43.359375 56 49.78125 48.890625 
Q 56.203125 41.796875 56.203125 29.59375 
z
M 47.21875 32.234375 
Q 47.125 39.59375 43.09375 43.984375 
Q 39.0625 48.390625 32.421875 48.390625 
Q 24.90625 48.390625 20.390625 44.140625 
Q 15.875 39.890625 15.1875 32.171875 
z
" id="DejaVuSans-101"/>
       <path d="M 45.40625 46.390625 
L 45.40625 75.984375 
L 54.390625 75.984375 
L 54.390625 0 
L 45.40625 0 
L 45.40625 8.203125 
Q 42.578125 3.328125 38.25 0.953125 
Q 33.9375 -1.421875 27.875 -1.421875 
Q 17.96875 -1.421875 11.734375 6.484375 
Q 5.515625 14.40625 5.515625 27.296875 
Q 5.515625 40.1875 11.734375 48.09375 
Q 17.96875 56 27.875 56 
Q 33.9375 56 38.25 53.625 
Q 42.578125 51.265625 45.40625 46.390625 
z
M 14.796875 27.296875 
Q 14.796875 17.390625 18.875 11.75 
Q 22.953125 6.109375 30.078125 6.109375 
Q 37.203125 6.109375 41.296875 11.75 
Q 45.40625 17.390625 45.40625 27.296875 
Q 45.40625 37.203125 41.296875 42.84375 
Q 37.203125 48.484375 30.078125 48.484375 
Q 22.953125 48.484375 18.875 42.84375 
Q 14.796875 37.203125 14.796875 27.296875 
z
" id="DejaVuSans-100"/>
       <path id="DejaVuSans-32"/>
       <path d="M 44.390625 34.1875 
Q 47.5625 33.109375 50.5625 29.59375 
Q 53.5625 26.078125 56.59375 19.921875 
L 66.609375 0 
L 56 0 
L 46.6875 18.703125 
Q 43.0625 26.03125 39.671875 28.421875 
Q 36.28125 30.8125 30.421875 30.8125 
L 19.671875 30.8125 
L 19.671875 0 
L 9.8125 0 
L 9.8125 72.90625 
L 32.078125 72.90625 
Q 44.578125 72.90625 50.734375 67.671875 
Q 56.890625 62.453125 56.890625 51.90625 
Q 56.890625 45.015625 53.6875 40.46875 
Q 50.484375 35.9375 44.390625 34.1875 
z
M 19.671875 64.796875 
L 19.671875 38.921875 
L 32.078125 38.921875 
Q 39.203125 38.921875 42.84375 42.21875 
Q 46.484375 45.515625 46.484375 51.90625 
Q 46.484375 58.296875 42.84375 61.546875 
Q 39.203125 64.796875 32.078125 64.796875 
z
" id="DejaVuSans-82"/>
       <path d="M 37.109375 75.984375 
L 37.109375 68.5 
L 28.515625 68.5 
Q 23.6875 68.5 21.796875 66.546875 
Q 19.921875 64.59375 19.921875 59.515625 
L 19.921875 54.6875 
L 34.71875 54.6875 
L 34.71875 47.703125 
L 19.921875 47.703125 
L 19.921875 0 
L 10.890625 0 
L 10.890625 47.703125 
L 2.296875 47.703125 
L 2.296875 54.6875 
L 10.890625 54.6875 
L 10.890625 58.5 
Q 10.890625 67.625 15.140625 71.796875 
Q 19.390625 75.984375 28.609375 75.984375 
z
" id="DejaVuSans-102"/>
      </defs>
      <use xlink:href="#DejaVuSans-70"/>
      <use x="50.269531" xlink:href="#DejaVuSans-105"/>
      <use x="78.052734" xlink:href="#DejaVuSans-120"/>
      <use x="134.107422" xlink:href="#DejaVuSans-101"/>
      <use x="195.630859" xlink:href="#DejaVuSans-100"/>
      <use x="259.107422" xlink:href="#DejaVuSans-32"/>
      <use x="290.894531" xlink:href="#DejaVuSans-82"/>
      <use x="355.876953" xlink:href="#DejaVuSans-101"/>
      <use x="417.400391" xlink:href="#DejaVuSans-102"/>
     </g>
    </g>
    <g id="line2d_16">
     <path d="M 292.271875 188.229688 
L 332.271875 188.229688 
" style="fill:none;stroke:#ff7f0e;stroke-dasharray:1.5,2.475;stroke-dashoffset:0;stroke-opacity:0.9;stroke-width:1.5;"/>
    </g>
    <g id="line2d_17"/>
    <g id="text_2">
     <!-- 2nd ord. DMP -->
     <g transform="translate(340.271875 191.729688)scale(0.1 -0.1)">
      <defs>
       <path d="M 19.1875 8.296875 
L 53.609375 8.296875 
L 53.609375 0 
L 7.328125 0 
L 7.328125 8.296875 
Q 12.9375 14.109375 22.625 23.890625 
Q 32.328125 33.6875 34.8125 36.53125 
Q 39.546875 41.84375 41.421875 45.53125 
Q 43.3125 49.21875 43.3125 52.78125 
Q 43.3125 58.59375 39.234375 62.25 
Q 35.15625 65.921875 28.609375 65.921875 
Q 23.96875 65.921875 18.8125 64.3125 
Q 13.671875 62.703125 7.8125 59.421875 
L 7.8125 69.390625 
Q 13.765625 71.78125 18.9375 73 
Q 24.125 74.21875 28.421875 74.21875 
Q 39.75 74.21875 46.484375 68.546875 
Q 53.21875 62.890625 53.21875 53.421875 
Q 53.21875 48.921875 51.53125 44.890625 
Q 49.859375 40.875 45.40625 35.40625 
Q 44.1875 33.984375 37.640625 27.21875 
Q 31.109375 20.453125 19.1875 8.296875 
z
" id="DejaVuSans-50"/>
       <path d="M 54.890625 33.015625 
L 54.890625 0 
L 45.90625 0 
L 45.90625 32.71875 
Q 45.90625 40.484375 42.875 44.328125 
Q 39.84375 48.1875 33.796875 48.1875 
Q 26.515625 48.1875 22.3125 43.546875 
Q 18.109375 38.921875 18.109375 30.90625 
L 18.109375 0 
L 9.078125 0 
L 9.078125 54.6875 
L 18.109375 54.6875 
L 18.109375 46.1875 
Q 21.34375 51.125 25.703125 53.5625 
Q 30.078125 56 35.796875 56 
Q 45.21875 56 50.046875 50.171875 
Q 54.890625 44.34375 54.890625 33.015625 
z
" id="DejaVuSans-110"/>
       <path d="M 30.609375 48.390625 
Q 23.390625 48.390625 19.1875 42.75 
Q 14.984375 37.109375 14.984375 27.296875 
Q 14.984375 17.484375 19.15625 11.84375 
Q 23.34375 6.203125 30.609375 6.203125 
Q 37.796875 6.203125 41.984375 11.859375 
Q 46.1875 17.53125 46.1875 27.296875 
Q 46.1875 37.015625 41.984375 42.703125 
Q 37.796875 48.390625 30.609375 48.390625 
z
M 30.609375 56 
Q 42.328125 56 49.015625 48.375 
Q 55.71875 40.765625 55.71875 27.296875 
Q 55.71875 13.875 49.015625 6.21875 
Q 42.328125 -1.421875 30.609375 -1.421875 
Q 18.84375 -1.421875 12.171875 6.21875 
Q 5.515625 13.875 5.515625 27.296875 
Q 5.515625 40.765625 12.171875 48.375 
Q 18.84375 56 30.609375 56 
z
" id="DejaVuSans-111"/>
       <path d="M 41.109375 46.296875 
Q 39.59375 47.171875 37.8125 47.578125 
Q 36.03125 48 33.890625 48 
Q 26.265625 48 22.1875 43.046875 
Q 18.109375 38.09375 18.109375 28.8125 
L 18.109375 0 
L 9.078125 0 
L 9.078125 54.6875 
L 18.109375 54.6875 
L 18.109375 46.1875 
Q 20.953125 51.171875 25.484375 53.578125 
Q 30.03125 56 36.53125 56 
Q 37.453125 56 38.578125 55.875 
Q 39.703125 55.765625 41.0625 55.515625 
z
" id="DejaVuSans-114"/>
       <path d="M 10.6875 12.40625 
L 21 12.40625 
L 21 0 
L 10.6875 0 
z
" id="DejaVuSans-46"/>
       <path d="M 19.671875 64.796875 
L 19.671875 8.109375 
L 31.59375 8.109375 
Q 46.6875 8.109375 53.6875 14.9375 
Q 60.6875 21.78125 60.6875 36.53125 
Q 60.6875 51.171875 53.6875 57.984375 
Q 46.6875 64.796875 31.59375 64.796875 
z
M 9.8125 72.90625 
L 30.078125 72.90625 
Q 51.265625 72.90625 61.171875 64.09375 
Q 71.09375 55.28125 71.09375 36.53125 
Q 71.09375 17.671875 61.125 8.828125 
Q 51.171875 0 30.078125 0 
L 9.8125 0 
z
" id="DejaVuSans-68"/>
       <path d="M 9.8125 72.90625 
L 24.515625 72.90625 
L 43.109375 23.296875 
L 61.8125 72.90625 
L 76.515625 72.90625 
L 76.515625 0 
L 66.890625 0 
L 66.890625 64.015625 
L 48.09375 14.015625 
L 38.1875 14.015625 
L 19.390625 64.015625 
L 19.390625 0 
L 9.8125 0 
z
" id="DejaVuSans-77"/>
       <path d="M 19.671875 64.796875 
L 19.671875 37.40625 
L 32.078125 37.40625 
Q 38.96875 37.40625 42.71875 40.96875 
Q 46.484375 44.53125 46.484375 51.125 
Q 46.484375 57.671875 42.71875 61.234375 
Q 38.96875 64.796875 32.078125 64.796875 
z
M 9.8125 72.90625 
L 32.078125 72.90625 
Q 44.34375 72.90625 50.609375 67.359375 
Q 56.890625 61.8125 56.890625 51.125 
Q 56.890625 40.328125 50.609375 34.8125 
Q 44.34375 29.296875 32.078125 29.296875 
L 19.671875 29.296875 
L 19.671875 0 
L 9.8125 0 
z
" id="DejaVuSans-80"/>
      </defs>
      <use xlink:href="#DejaVuSans-50"/>
      <use x="63.623047" xlink:href="#DejaVuSans-110"/>
      <use x="127.001953" xlink:href="#DejaVuSans-100"/>
      <use x="190.478516" xlink:href="#DejaVuSans-32"/>
      <use x="222.265625" xlink:href="#DejaVuSans-111"/>
      <use x="283.447266" xlink:href="#DejaVuSans-114"/>
      <use x="322.810547" xlink:href="#DejaVuSans-100"/>
      <use x="386.287109" xlink:href="#DejaVuSans-46"/>
      <use x="418.074219" xlink:href="#DejaVuSans-32"/>
      <use x="449.861328" xlink:href="#DejaVuSans-68"/>
      <use x="526.863281" xlink:href="#DejaVuSans-77"/>
      <use x="613.142578" xlink:href="#DejaVuSans-80"/>
     </g>
    </g>
    <g id="line2d_18">
     <path d="M 292.271875 202.907813 
L 332.271875 202.907813 
" style="fill:none;stroke:#2ca02c;stroke-dasharray:5.55,2.4;stroke-dashoffset:0;stroke-opacity:0.9;stroke-width:1.5;"/>
    </g>
    <g id="line2d_19"/>
    <g id="text_3">
     <!-- Vel. goal DMP -->
     <g transform="translate(340.271875 206.407813)scale(0.1 -0.1)">
      <defs>
       <path d="M 28.609375 0 
L 0.78125 72.90625 
L 11.078125 72.90625 
L 34.1875 11.53125 
L 57.328125 72.90625 
L 67.578125 72.90625 
L 39.796875 0 
z
" id="DejaVuSans-86"/>
       <path d="M 9.421875 75.984375 
L 18.40625 75.984375 
L 18.40625 0 
L 9.421875 0 
z
" id="DejaVuSans-108"/>
       <path d="M 45.40625 27.984375 
Q 45.40625 37.75 41.375 43.109375 
Q 37.359375 48.484375 30.078125 48.484375 
Q 22.859375 48.484375 18.828125 43.109375 
Q 14.796875 37.75 14.796875 27.984375 
Q 14.796875 18.265625 18.828125 12.890625 
Q 22.859375 7.515625 30.078125 7.515625 
Q 37.359375 7.515625 41.375 12.890625 
Q 45.40625 18.265625 45.40625 27.984375 
z
M 54.390625 6.78125 
Q 54.390625 -7.171875 48.1875 -13.984375 
Q 42 -20.796875 29.203125 -20.796875 
Q 24.46875 -20.796875 20.265625 -20.09375 
Q 16.0625 -19.390625 12.109375 -17.921875 
L 12.109375 -9.1875 
Q 16.0625 -11.328125 19.921875 -12.34375 
Q 23.78125 -13.375 27.78125 -13.375 
Q 36.625 -13.375 41.015625 -8.765625 
Q 45.40625 -4.15625 45.40625 5.171875 
L 45.40625 9.625 
Q 42.625 4.78125 38.28125 2.390625 
Q 33.9375 0 27.875 0 
Q 17.828125 0 11.671875 7.65625 
Q 5.515625 15.328125 5.515625 27.984375 
Q 5.515625 40.671875 11.671875 48.328125 
Q 17.828125 56 27.875 56 
Q 33.9375 56 38.28125 53.609375 
Q 42.625 51.21875 45.40625 46.390625 
L 45.40625 54.6875 
L 54.390625 54.6875 
z
" id="DejaVuSans-103"/>
       <path d="M 34.28125 27.484375 
Q 23.390625 27.484375 19.1875 25 
Q 14.984375 22.515625 14.984375 16.5 
Q 14.984375 11.71875 18.140625 8.90625 
Q 21.296875 6.109375 26.703125 6.109375 
Q 34.1875 6.109375 38.703125 11.40625 
Q 43.21875 16.703125 43.21875 25.484375 
L 43.21875 27.484375 
z
M 52.203125 31.203125 
L 52.203125 0 
L 43.21875 0 
L 43.21875 8.296875 
Q 40.140625 3.328125 35.546875 0.953125 
Q 30.953125 -1.421875 24.3125 -1.421875 
Q 15.921875 -1.421875 10.953125 3.296875 
Q 6 8.015625 6 15.921875 
Q 6 25.140625 12.171875 29.828125 
Q 18.359375 34.515625 30.609375 34.515625 
L 43.21875 34.515625 
L 43.21875 35.40625 
Q 43.21875 41.609375 39.140625 45 
Q 35.0625 48.390625 27.6875 48.390625 
Q 23 48.390625 18.546875 47.265625 
Q 14.109375 46.140625 10.015625 43.890625 
L 10.015625 52.203125 
Q 14.9375 54.109375 19.578125 55.046875 
Q 24.21875 56 28.609375 56 
Q 40.484375 56 46.34375 49.84375 
Q 52.203125 43.703125 52.203125 31.203125 
z
" id="DejaVuSans-97"/>
      </defs>
      <use xlink:href="#DejaVuSans-86"/>
      <use x="60.658203" xlink:href="#DejaVuSans-101"/>
      <use x="122.181641" xlink:href="#DejaVuSans-108"/>
      <use x="149.964844" xlink:href="#DejaVuSans-46"/>
      <use x="181.751953" xlink:href="#DejaVuSans-32"/>
      <use x="213.539062" xlink:href="#DejaVuSans-103"/>
      <use x="277.015625" xlink:href="#DejaVuSans-111"/>
      <use x="338.197266" xlink:href="#DejaVuSans-97"/>
      <use x="399.476562" xlink:href="#DejaVuSans-108"/>
      <use x="427.259766" xlink:href="#DejaVuSans-32"/>
      <use x="459.046875" xlink:href="#DejaVuSans-68"/>
      <use x="536.048828" xlink:href="#DejaVuSans-77"/>
      <use x="622.328125" xlink:href="#DejaVuSans-80"/>
     </g>
    </g>
    <g id="line2d_20">
     <path d="M 292.271875 217.585938 
L 332.271875 217.585938 
" style="fill:none;stroke:#d62728;stroke-linecap:square;stroke-opacity:0.7;stroke-width:1.5;"/>
    </g>
    <g id="line2d_21"/>
    <g id="text_4">
     <!-- Acc. goal DMP -->
     <g transform="translate(340.271875 221.085938)scale(0.1 -0.1)">
      <defs>
       <path d="M 34.1875 63.1875 
L 20.796875 26.90625 
L 47.609375 26.90625 
z
M 28.609375 72.90625 
L 39.796875 72.90625 
L 67.578125 0 
L 57.328125 0 
L 50.6875 18.703125 
L 17.828125 18.703125 
L 11.1875 0 
L 0.78125 0 
z
" id="DejaVuSans-65"/>
       <path d="M 48.78125 52.59375 
L 48.78125 44.1875 
Q 44.96875 46.296875 41.140625 47.34375 
Q 37.3125 48.390625 33.40625 48.390625 
Q 24.65625 48.390625 19.8125 42.84375 
Q 14.984375 37.3125 14.984375 27.296875 
Q 14.984375 17.28125 19.8125 11.734375 
Q 24.65625 6.203125 33.40625 6.203125 
Q 37.3125 6.203125 41.140625 7.25 
Q 44.96875 8.296875 48.78125 10.40625 
L 48.78125 2.09375 
Q 45.015625 0.34375 40.984375 -0.53125 
Q 36.96875 -1.421875 32.421875 -1.421875 
Q 20.0625 -1.421875 12.78125 6.34375 
Q 5.515625 14.109375 5.515625 27.296875 
Q 5.515625 40.671875 12.859375 48.328125 
Q 20.21875 56 33.015625 56 
Q 37.15625 56 41.109375 55.140625 
Q 45.0625 54.296875 48.78125 52.59375 
z
" id="DejaVuSans-99"/>
      </defs>
      <use xlink:href="#DejaVuSans-65"/>
      <use x="66.658203" xlink:href="#DejaVuSans-99"/>
      <use x="121.638672" xlink:href="#DejaVuSans-99"/>
      <use x="176.619141" xlink:href="#DejaVuSans-46"/>
      <use x="208.40625" xlink:href="#DejaVuSans-32"/>
      <use x="240.193359" xlink:href="#DejaVuSans-103"/>
      <use x="303.669922" xlink:href="#DejaVuSans-111"/>
      <use x="364.851562" xlink:href="#DejaVuSans-97"/>
      <use x="426.130859" xlink:href="#DejaVuSans-108"/>
      <use x="453.914062" xlink:href="#DejaVuSans-32"/>
      <use x="485.701172" xlink:href="#DejaVuSans-68"/>
      <use x="562.703125" xlink:href="#DejaVuSans-77"/>
      <use x="648.982422" xlink:href="#DejaVuSans-80"/>
     </g>
    </g>
    <g id="line2d_22">
     <path d="M 292.271875 232.264063 
L 332.271875 232.264063 
" style="fill:none;stroke:#000000;stroke-dasharray:5.55,2.4;stroke-dashoffset:0;stroke-opacity:0.25;stroke-width:1.5;"/>
    </g>
    <g id="line2d_23"/>
    <g id="text_5">
     <!-- Reference -->
     <g transform="translate(340.271875 235.764063)scale(0.1 -0.1)">
      <use xlink:href="#DejaVuSans-82"/>
      <use x="64.982422" xlink:href="#DejaVuSans-101"/>
      <use x="126.505859" xlink:href="#DejaVuSans-102"/>
      <use x="161.710938" xlink:href="#DejaVuSans-101"/>
      <use x="223.234375" xlink:href="#DejaVuSans-114"/>
      <use x="262.097656" xlink:href="#DejaVuSans-101"/>
      <use x="323.621094" xlink:href="#DejaVuSans-110"/>
      <use x="387" xlink:href="#DejaVuSans-99"/>
      <use x="441.980469" xlink:href="#DejaVuSans-101"/>
     </g>
    </g>
    <g id="line2d_24"/>
    <g id="line2d_25">
     <g>
      <use style="stroke:#000000;stroke-linejoin:bevel;" x="312.271875" xlink:href="#m5c2ff713df" y="246.942188"/>
     </g>
    </g>
    <g id="text_6">
     <!-- Start -->
     <g transform="translate(340.271875 250.442188)scale(0.1 -0.1)">
      <defs>
       <path d="M 53.515625 70.515625 
L 53.515625 60.890625 
Q 47.90625 63.578125 42.921875 64.890625 
Q 37.9375 66.21875 33.296875 66.21875 
Q 25.25 66.21875 20.875 63.09375 
Q 16.5 59.96875 16.5 54.203125 
Q 16.5 49.359375 19.40625 46.890625 
Q 22.3125 44.4375 30.421875 42.921875 
L 36.375 41.703125 
Q 47.40625 39.59375 52.65625 34.296875 
Q 57.90625 29 57.90625 20.125 
Q 57.90625 9.515625 50.796875 4.046875 
Q 43.703125 -1.421875 29.984375 -1.421875 
Q 24.8125 -1.421875 18.96875 -0.25 
Q 13.140625 0.921875 6.890625 3.21875 
L 6.890625 13.375 
Q 12.890625 10.015625 18.65625 8.296875 
Q 24.421875 6.59375 29.984375 6.59375 
Q 38.421875 6.59375 43.015625 9.90625 
Q 47.609375 13.234375 47.609375 19.390625 
Q 47.609375 24.75 44.3125 27.78125 
Q 41.015625 30.8125 33.5 32.328125 
L 27.484375 33.5 
Q 16.453125 35.6875 11.515625 40.375 
Q 6.59375 45.0625 6.59375 53.421875 
Q 6.59375 63.09375 13.40625 68.65625 
Q 20.21875 74.21875 32.171875 74.21875 
Q 37.3125 74.21875 42.625 73.28125 
Q 47.953125 72.359375 53.515625 70.515625 
z
" id="DejaVuSans-83"/>
       <path d="M 18.3125 70.21875 
L 18.3125 54.6875 
L 36.8125 54.6875 
L 36.8125 47.703125 
L 18.3125 47.703125 
L 18.3125 18.015625 
Q 18.3125 11.328125 20.140625 9.421875 
Q 21.96875 7.515625 27.59375 7.515625 
L 36.8125 7.515625 
L 36.8125 0 
L 27.59375 0 
Q 17.1875 0 13.234375 3.875 
Q 9.28125 7.765625 9.28125 18.015625 
L 9.28125 47.703125 
L 2.6875 47.703125 
L 2.6875 54.6875 
L 9.28125 54.6875 
L 9.28125 70.21875 
z
" id="DejaVuSans-116"/>
      </defs>
      <use xlink:href="#DejaVuSans-83"/>
      <use x="63.476562" xlink:href="#DejaVuSans-116"/>
      <use x="102.685547" xlink:href="#DejaVuSans-97"/>
      <use x="163.964844" xlink:href="#DejaVuSans-114"/>
      <use x="205.078125" xlink:href="#DejaVuSans-116"/>
     </g>
    </g>
    <g id="line2d_26">
     <path d="M 292.271875 261.620313 
L 299.271875 261.620313 
" style="fill:none;stroke:#1f77b4;stroke-linecap:square;stroke-opacity:0.7;stroke-width:1.5;"/>
    </g>
    <g id="line2d_27">
     <g>
      <use style="fill:#1f77b4;fill-opacity:0.7;stroke:#1f77b4;stroke-opacity:0.7;" x="295.771875" xlink:href="#m748c37e001" y="261.620313"/>
     </g>
    </g>
    <g id="line2d_28">
     <path d="M 303.271875 261.620313 
L 310.271875 261.620313 
" style="fill:none;stroke:#ff7f0e;stroke-linecap:square;stroke-opacity:0.7;stroke-width:1.5;"/>
    </g>
    <g id="line2d_29">
     <g>
      <use style="fill:#ff7f0e;fill-opacity:0.7;stroke:#ff7f0e;stroke-opacity:0.7;" x="306.771875" xlink:href="#me2f889f82b" y="261.620313"/>
     </g>
    </g>
    <g id="line2d_30">
     <path d="M 314.271875 261.620313 
L 321.271875 261.620313 
" style="fill:none;stroke:#2ca02c;stroke-linecap:square;stroke-opacity:0.7;stroke-width:1.5;"/>
    </g>
    <g id="line2d_31">
     <g>
      <use style="fill:#2ca02c;fill-opacity:0.7;stroke:#2ca02c;stroke-opacity:0.7;" x="317.771875" xlink:href="#mc0feec61d8" y="261.620313"/>
     </g>
    </g>
    <g id="line2d_32">
     <path d="M 325.271875 261.620313 
L 332.271875 261.620313 
" style="fill:none;stroke:#d62728;stroke-linecap:square;stroke-opacity:0.7;stroke-width:1.5;"/>
    </g>
    <g id="line2d_33">
     <g>
      <use style="fill:#d62728;fill-opacity:0.7;stroke:#d62728;stroke-opacity:0.7;" x="328.771875" xlink:href="#m2c5fdcb1e2" y="261.620313"/>
     </g>
    </g>
    <g id="text_7">
     <!-- End -->
     <g transform="translate(340.271875 265.120313)scale(0.1 -0.1)">
      <defs>
       <path d="M 9.8125 72.90625 
L 55.90625 72.90625 
L 55.90625 64.59375 
L 19.671875 64.59375 
L 19.671875 43.015625 
L 54.390625 43.015625 
L 54.390625 34.71875 
L 19.671875 34.71875 
L 19.671875 8.296875 
L 56.78125 8.296875 
L 56.78125 0 
L 9.8125 0 
z
" id="DejaVuSans-69"/>
      </defs>
      <use xlink:href="#DejaVuSans-69"/>
      <use x="63.183594" xlink:href="#DejaVuSans-110"/>
      <use x="126.5625" xlink:href="#DejaVuSans-100"/>
     </g>
    </g>
   </g>
  </g>
 </g>
 <defs>
  <clipPath id="pcff05d0d3f">
   <rect height="266.4" width="410.4" x="10.8" y="10.8"/>
  </clipPath>
 </defs>
</svg>
