<?xml version="1.0" encoding="utf-8" standalone="no"?>
<!DOCTYPE svg PUBLIC "-//W3C//DTD SVG 1.1//EN"
  "http://www.w3.org/Graphics/SVG/1.1/DTD/svg11.dtd">
<!-- Created with matplotlib (https://matplotlib.org/) -->
<svg height="337.59625pt" version="1.1" viewBox="0 0 554.042812 337.59625" width="554.042812pt" xmlns="http://www.w3.org/2000/svg" xmlns:xlink="http://www.w3.org/1999/xlink">
 <metadata>
  <rdf:RDF xmlns:cc="http://creativecommons.org/ns#" xmlns:dc="http://purl.org/dc/elements/1.1/" xmlns:rdf="http://www.w3.org/1999/02/22-rdf-syntax-ns#">
   <cc:Work>
    <dc:type rdf:resource="http://purl.org/dc/dcmitype/StillImage"/>
    <dc:date>2022-07-29T19:19:26.568828</dc:date>
    <dc:format>image/svg+xml</dc:format>
    <dc:creator>
     <cc:Agent>
      <dc:title>Matplotlib v3.3.0, https://matplotlib.org/</dc:title>
     </cc:Agent>
    </dc:creator>
   </cc:Work>
  </rdf:RDF>
 </metadata>
 <defs>
  <style type="text/css">*{stroke-linecap:butt;stroke-linejoin:round;}</style>
 </defs>
 <g id="figure_1">
  <g id="patch_1">
   <path d="M 0 337.59625 
L 554.042812 337.59625 
L 554.042812 0 
L 0 0 
z
" style="fill:#ffffff;"/>
  </g>
  <g id="axes_1">
   <g id="patch_2">
    <path d="M 41.782813 137.7 
L 271.442812 137.7 
L 271.442812 0 
L 41.782813 0 
z
" style="fill:#ffffff;"/>
   </g>
   <g id="matplotlib.axis_1">
    <g id="xtick_1">
     <g id="line2d_1">
      <defs>
       <path d="M 0 0 
L 0 3.5 
" id="m71ceabd5ee" style="stroke:#000000;stroke-width:0.8;"/>
      </defs>
      <g>
       <use style="stroke:#000000;stroke-width:0.8;" x="52.221903" xlink:href="#m71ceabd5ee" y="137.7"/>
      </g>
     </g>
     <g id="text_1">
      <!-- 0 -->
      <g transform="translate(49.040653 152.298438)scale(0.1 -0.1)">
       <defs>
        <path d="M 31.78125 66.40625 
Q 24.171875 66.40625 20.328125 58.90625 
Q 16.5 51.421875 16.5 36.375 
Q 16.5 21.390625 20.328125 13.890625 
Q 24.171875 6.390625 31.78125 6.390625 
Q 39.453125 6.390625 43.28125 13.890625 
Q 47.125 21.390625 47.125 36.375 
Q 47.125 51.421875 43.28125 58.90625 
Q 39.453125 66.40625 31.78125 66.40625 
z
M 31.78125 74.21875 
Q 44.046875 74.21875 50.515625 64.515625 
Q 56.984375 54.828125 56.984375 36.375 
Q 56.984375 17.96875 50.515625 8.265625 
Q 44.046875 -1.421875 31.78125 -1.421875 
Q 19.53125 -1.421875 13.0625 8.265625 
Q 6.59375 17.96875 6.59375 36.375 
Q 6.59375 54.828125 13.0625 64.515625 
Q 19.53125 74.21875 31.78125 74.21875 
z
" id="DejaVuSans-48"/>
       </defs>
       <use xlink:href="#DejaVuSans-48"/>
      </g>
     </g>
    </g>
    <g id="xtick_2">
     <g id="line2d_2">
      <g>
       <use style="stroke:#000000;stroke-width:0.8;" x="93.978267" xlink:href="#m71ceabd5ee" y="137.7"/>
      </g>
     </g>
     <g id="text_2">
      <!-- 1 -->
      <g transform="translate(90.797017 152.298438)scale(0.1 -0.1)">
       <defs>
        <path d="M 12.40625 8.296875 
L 28.515625 8.296875 
L 28.515625 63.921875 
L 10.984375 60.40625 
L 10.984375 69.390625 
L 28.421875 72.90625 
L 38.28125 72.90625 
L 38.28125 8.296875 
L 54.390625 8.296875 
L 54.390625 0 
L 12.40625 0 
z
" id="DejaVuSans-49"/>
       </defs>
       <use xlink:href="#DejaVuSans-49"/>
      </g>
     </g>
    </g>
    <g id="xtick_3">
     <g id="line2d_3">
      <g>
       <use style="stroke:#000000;stroke-width:0.8;" x="135.734631" xlink:href="#m71ceabd5ee" y="137.7"/>
      </g>
     </g>
     <g id="text_3">
      <!-- 2 -->
      <g transform="translate(132.553381 152.298438)scale(0.1 -0.1)">
       <defs>
        <path d="M 19.1875 8.296875 
L 53.609375 8.296875 
L 53.609375 0 
L 7.328125 0 
L 7.328125 8.296875 
Q 12.9375 14.109375 22.625 23.890625 
Q 32.328125 33.6875 34.8125 36.53125 
Q 39.546875 41.84375 41.421875 45.53125 
Q 43.3125 49.21875 43.3125 52.78125 
Q 43.3125 58.59375 39.234375 62.25 
Q 35.15625 65.921875 28.609375 65.921875 
Q 23.96875 65.921875 18.8125 64.3125 
Q 13.671875 62.703125 7.8125 59.421875 
L 7.8125 69.390625 
Q 13.765625 71.78125 18.9375 73 
Q 24.125 74.21875 28.421875 74.21875 
Q 39.75 74.21875 46.484375 68.546875 
Q 53.21875 62.890625 53.21875 53.421875 
Q 53.21875 48.921875 51.53125 44.890625 
Q 49.859375 40.875 45.40625 35.40625 
Q 44.1875 33.984375 37.640625 27.21875 
Q 31.109375 20.453125 19.1875 8.296875 
z
" id="DejaVuSans-50"/>
       </defs>
       <use xlink:href="#DejaVuSans-50"/>
      </g>
     </g>
    </g>
    <g id="xtick_4">
     <g id="line2d_4">
      <g>
       <use style="stroke:#000000;stroke-width:0.8;" x="177.490994" xlink:href="#m71ceabd5ee" y="137.7"/>
      </g>
     </g>
     <g id="text_4">
      <!-- 3 -->
      <g transform="translate(174.309744 152.298438)scale(0.1 -0.1)">
       <defs>
        <path d="M 40.578125 39.3125 
Q 47.65625 37.796875 51.625 33 
Q 55.609375 28.21875 55.609375 21.1875 
Q 55.609375 10.40625 48.1875 4.484375 
Q 40.765625 -1.421875 27.09375 -1.421875 
Q 22.515625 -1.421875 17.65625 -0.515625 
Q 12.796875 0.390625 7.625 2.203125 
L 7.625 11.71875 
Q 11.71875 9.328125 16.59375 8.109375 
Q 21.484375 6.890625 26.8125 6.890625 
Q 36.078125 6.890625 40.9375 10.546875 
Q 45.796875 14.203125 45.796875 21.1875 
Q 45.796875 27.640625 41.28125 31.265625 
Q 36.765625 34.90625 28.71875 34.90625 
L 20.21875 34.90625 
L 20.21875 43.015625 
L 29.109375 43.015625 
Q 36.375 43.015625 40.234375 45.921875 
Q 44.09375 48.828125 44.09375 54.296875 
Q 44.09375 59.90625 40.109375 62.90625 
Q 36.140625 65.921875 28.71875 65.921875 
Q 24.65625 65.921875 20.015625 65.03125 
Q 15.375 64.15625 9.8125 62.3125 
L 9.8125 71.09375 
Q 15.4375 72.65625 20.34375 73.4375 
Q 25.25 74.21875 29.59375 74.21875 
Q 40.828125 74.21875 47.359375 69.109375 
Q 53.90625 64.015625 53.90625 55.328125 
Q 53.90625 49.265625 50.4375 45.09375 
Q 46.96875 40.921875 40.578125 39.3125 
z
" id="DejaVuSans-51"/>
       </defs>
       <use xlink:href="#DejaVuSans-51"/>
      </g>
     </g>
    </g>
    <g id="xtick_5">
     <g id="line2d_5">
      <g>
       <use style="stroke:#000000;stroke-width:0.8;" x="219.247358" xlink:href="#m71ceabd5ee" y="137.7"/>
      </g>
     </g>
     <g id="text_5">
      <!-- 4 -->
      <g transform="translate(216.066108 152.298438)scale(0.1 -0.1)">
       <defs>
        <path d="M 37.796875 64.3125 
L 12.890625 25.390625 
L 37.796875 25.390625 
z
M 35.203125 72.90625 
L 47.609375 72.90625 
L 47.609375 25.390625 
L 58.015625 25.390625 
L 58.015625 17.1875 
L 47.609375 17.1875 
L 47.609375 0 
L 37.796875 0 
L 37.796875 17.1875 
L 4.890625 17.1875 
L 4.890625 26.703125 
z
" id="DejaVuSans-52"/>
       </defs>
       <use xlink:href="#DejaVuSans-52"/>
      </g>
     </g>
    </g>
    <g id="xtick_6">
     <g id="line2d_6">
      <g>
       <use style="stroke:#000000;stroke-width:0.8;" x="261.003722" xlink:href="#m71ceabd5ee" y="137.7"/>
      </g>
     </g>
     <g id="text_6">
      <!-- 5 -->
      <g transform="translate(257.822472 152.298438)scale(0.1 -0.1)">
       <defs>
        <path d="M 10.796875 72.90625 
L 49.515625 72.90625 
L 49.515625 64.59375 
L 19.828125 64.59375 
L 19.828125 46.734375 
Q 21.96875 47.46875 24.109375 47.828125 
Q 26.265625 48.1875 28.421875 48.1875 
Q 40.625 48.1875 47.75 41.5 
Q 54.890625 34.8125 54.890625 23.390625 
Q 54.890625 11.625 47.5625 5.09375 
Q 40.234375 -1.421875 26.90625 -1.421875 
Q 22.3125 -1.421875 17.546875 -0.640625 
Q 12.796875 0.140625 7.71875 1.703125 
L 7.71875 11.625 
Q 12.109375 9.234375 16.796875 8.0625 
Q 21.484375 6.890625 26.703125 6.890625 
Q 35.15625 6.890625 40.078125 11.328125 
Q 45.015625 15.765625 45.015625 23.390625 
Q 45.015625 31 40.078125 35.4375 
Q 35.15625 39.890625 26.703125 39.890625 
Q 22.75 39.890625 18.8125 39.015625 
Q 14.890625 38.140625 10.796875 36.28125 
z
" id="DejaVuSans-53"/>
       </defs>
       <use xlink:href="#DejaVuSans-53"/>
      </g>
     </g>
    </g>
   </g>
   <g id="matplotlib.axis_2">
    <g id="ytick_1">
     <g id="line2d_7">
      <defs>
       <path d="M 0 0 
L -3.5 0 
" id="m75a99ecc2d" style="stroke:#000000;stroke-width:0.8;"/>
      </defs>
      <g>
       <use style="stroke:#000000;stroke-width:0.8;" x="41.782813" xlink:href="#m75a99ecc2d" y="128.510399"/>
      </g>
     </g>
     <g id="text_7">
      <!-- 0 -->
      <g transform="translate(28.420313 132.309618)scale(0.1 -0.1)">
       <use xlink:href="#DejaVuSans-48"/>
      </g>
     </g>
    </g>
    <g id="ytick_2">
     <g id="line2d_8">
      <g>
       <use style="stroke:#000000;stroke-width:0.8;" x="41.782813" xlink:href="#m75a99ecc2d" y="102.733776"/>
      </g>
     </g>
     <g id="text_8">
      <!-- 20 -->
      <g transform="translate(22.057813 106.532995)scale(0.1 -0.1)">
       <use xlink:href="#DejaVuSans-50"/>
       <use x="63.623047" xlink:href="#DejaVuSans-48"/>
      </g>
     </g>
    </g>
    <g id="ytick_3">
     <g id="line2d_9">
      <g>
       <use style="stroke:#000000;stroke-width:0.8;" x="41.782813" xlink:href="#m75a99ecc2d" y="76.957152"/>
      </g>
     </g>
     <g id="text_9">
      <!-- 40 -->
      <g transform="translate(22.057813 80.756371)scale(0.1 -0.1)">
       <use xlink:href="#DejaVuSans-52"/>
       <use x="63.623047" xlink:href="#DejaVuSans-48"/>
      </g>
     </g>
    </g>
    <g id="ytick_4">
     <g id="line2d_10">
      <g>
       <use style="stroke:#000000;stroke-width:0.8;" x="41.782813" xlink:href="#m75a99ecc2d" y="51.180529"/>
      </g>
     </g>
     <g id="text_10">
      <!-- 60 -->
      <g transform="translate(22.057813 54.979748)scale(0.1 -0.1)">
       <defs>
        <path d="M 33.015625 40.375 
Q 26.375 40.375 22.484375 35.828125 
Q 18.609375 31.296875 18.609375 23.390625 
Q 18.609375 15.53125 22.484375 10.953125 
Q 26.375 6.390625 33.015625 6.390625 
Q 39.65625 6.390625 43.53125 10.953125 
Q 47.40625 15.53125 47.40625 23.390625 
Q 47.40625 31.296875 43.53125 35.828125 
Q 39.65625 40.375 33.015625 40.375 
z
M 52.59375 71.296875 
L 52.59375 62.3125 
Q 48.875 64.0625 45.09375 64.984375 
Q 41.3125 65.921875 37.59375 65.921875 
Q 27.828125 65.921875 22.671875 59.328125 
Q 17.53125 52.734375 16.796875 39.40625 
Q 19.671875 43.65625 24.015625 45.921875 
Q 28.375 48.1875 33.59375 48.1875 
Q 44.578125 48.1875 50.953125 41.515625 
Q 57.328125 34.859375 57.328125 23.390625 
Q 57.328125 12.15625 50.6875 5.359375 
Q 44.046875 -1.421875 33.015625 -1.421875 
Q 20.359375 -1.421875 13.671875 8.265625 
Q 6.984375 17.96875 6.984375 36.375 
Q 6.984375 53.65625 15.1875 63.9375 
Q 23.390625 74.21875 37.203125 74.21875 
Q 40.921875 74.21875 44.703125 73.484375 
Q 48.484375 72.75 52.59375 71.296875 
z
" id="DejaVuSans-54"/>
       </defs>
       <use xlink:href="#DejaVuSans-54"/>
       <use x="63.623047" xlink:href="#DejaVuSans-48"/>
      </g>
     </g>
    </g>
    <g id="ytick_5">
     <g id="line2d_11">
      <g>
       <use style="stroke:#000000;stroke-width:0.8;" x="41.782813" xlink:href="#m75a99ecc2d" y="25.403905"/>
      </g>
     </g>
     <g id="text_11">
      <!-- 80 -->
      <g transform="translate(22.057813 29.203124)scale(0.1 -0.1)">
       <defs>
        <path d="M 31.78125 34.625 
Q 24.75 34.625 20.71875 30.859375 
Q 16.703125 27.09375 16.703125 20.515625 
Q 16.703125 13.921875 20.71875 10.15625 
Q 24.75 6.390625 31.78125 6.390625 
Q 38.8125 6.390625 42.859375 10.171875 
Q 46.921875 13.96875 46.921875 20.515625 
Q 46.921875 27.09375 42.890625 30.859375 
Q 38.875 34.625 31.78125 34.625 
z
M 21.921875 38.8125 
Q 15.578125 40.375 12.03125 44.71875 
Q 8.5 49.078125 8.5 55.328125 
Q 8.5 64.0625 14.71875 69.140625 
Q 20.953125 74.21875 31.78125 74.21875 
Q 42.671875 74.21875 48.875 69.140625 
Q 55.078125 64.0625 55.078125 55.328125 
Q 55.078125 49.078125 51.53125 44.71875 
Q 48 40.375 41.703125 38.8125 
Q 48.828125 37.15625 52.796875 32.3125 
Q 56.78125 27.484375 56.78125 20.515625 
Q 56.78125 9.90625 50.3125 4.234375 
Q 43.84375 -1.421875 31.78125 -1.421875 
Q 19.734375 -1.421875 13.25 4.234375 
Q 6.78125 9.90625 6.78125 20.515625 
Q 6.78125 27.484375 10.78125 32.3125 
Q 14.796875 37.15625 21.921875 38.8125 
z
M 18.3125 54.390625 
Q 18.3125 48.734375 21.84375 45.5625 
Q 25.390625 42.390625 31.78125 42.390625 
Q 38.140625 42.390625 41.71875 45.5625 
Q 45.3125 48.734375 45.3125 54.390625 
Q 45.3125 60.0625 41.71875 63.234375 
Q 38.140625 66.40625 31.78125 66.40625 
Q 25.390625 66.40625 21.84375 63.234375 
Q 18.3125 60.0625 18.3125 54.390625 
z
" id="DejaVuSans-56"/>
       </defs>
       <use xlink:href="#DejaVuSans-56"/>
       <use x="63.623047" xlink:href="#DejaVuSans-48"/>
      </g>
     </g>
    </g>
    <g id="text_12">
     <!-- Position (m) -->
     <g transform="translate(15.978125 98.675)rotate(-90)scale(0.1 -0.1)">
      <defs>
       <path d="M 19.671875 64.796875 
L 19.671875 37.40625 
L 32.078125 37.40625 
Q 38.96875 37.40625 42.71875 40.96875 
Q 46.484375 44.53125 46.484375 51.125 
Q 46.484375 57.671875 42.71875 61.234375 
Q 38.96875 64.796875 32.078125 64.796875 
z
M 9.8125 72.90625 
L 32.078125 72.90625 
Q 44.34375 72.90625 50.609375 67.359375 
Q 56.890625 61.8125 56.890625 51.125 
Q 56.890625 40.328125 50.609375 34.8125 
Q 44.34375 29.296875 32.078125 29.296875 
L 19.671875 29.296875 
L 19.671875 0 
L 9.8125 0 
z
" id="DejaVuSans-80"/>
       <path d="M 30.609375 48.390625 
Q 23.390625 48.390625 19.1875 42.75 
Q 14.984375 37.109375 14.984375 27.296875 
Q 14.984375 17.484375 19.15625 11.84375 
Q 23.34375 6.203125 30.609375 6.203125 
Q 37.796875 6.203125 41.984375 11.859375 
Q 46.1875 17.53125 46.1875 27.296875 
Q 46.1875 37.015625 41.984375 42.703125 
Q 37.796875 48.390625 30.609375 48.390625 
z
M 30.609375 56 
Q 42.328125 56 49.015625 48.375 
Q 55.71875 40.765625 55.71875 27.296875 
Q 55.71875 13.875 49.015625 6.21875 
Q 42.328125 -1.421875 30.609375 -1.421875 
Q 18.84375 -1.421875 12.171875 6.21875 
Q 5.515625 13.875 5.515625 27.296875 
Q 5.515625 40.765625 12.171875 48.375 
Q 18.84375 56 30.609375 56 
z
" id="DejaVuSans-111"/>
       <path d="M 44.28125 53.078125 
L 44.28125 44.578125 
Q 40.484375 46.53125 36.375 47.5 
Q 32.28125 48.484375 27.875 48.484375 
Q 21.1875 48.484375 17.84375 46.4375 
Q 14.5 44.390625 14.5 40.28125 
Q 14.5 37.15625 16.890625 35.375 
Q 19.28125 33.59375 26.515625 31.984375 
L 29.59375 31.296875 
Q 39.15625 29.25 43.1875 25.515625 
Q 47.21875 21.78125 47.21875 15.09375 
Q 47.21875 7.46875 41.1875 3.015625 
Q 35.15625 -1.421875 24.609375 -1.421875 
Q 20.21875 -1.421875 15.453125 -0.5625 
Q 10.6875 0.296875 5.421875 2 
L 5.421875 11.28125 
Q 10.40625 8.6875 15.234375 7.390625 
Q 20.0625 6.109375 24.8125 6.109375 
Q 31.15625 6.109375 34.5625 8.28125 
Q 37.984375 10.453125 37.984375 14.40625 
Q 37.984375 18.0625 35.515625 20.015625 
Q 33.0625 21.96875 24.703125 23.78125 
L 21.578125 24.515625 
Q 13.234375 26.265625 9.515625 29.90625 
Q 5.8125 33.546875 5.8125 39.890625 
Q 5.8125 47.609375 11.28125 51.796875 
Q 16.75 56 26.8125 56 
Q 31.78125 56 36.171875 55.265625 
Q 40.578125 54.546875 44.28125 53.078125 
z
" id="DejaVuSans-115"/>
       <path d="M 9.421875 54.6875 
L 18.40625 54.6875 
L 18.40625 0 
L 9.421875 0 
z
M 9.421875 75.984375 
L 18.40625 75.984375 
L 18.40625 64.59375 
L 9.421875 64.59375 
z
" id="DejaVuSans-105"/>
       <path d="M 18.3125 70.21875 
L 18.3125 54.6875 
L 36.8125 54.6875 
L 36.8125 47.703125 
L 18.3125 47.703125 
L 18.3125 18.015625 
Q 18.3125 11.328125 20.140625 9.421875 
Q 21.96875 7.515625 27.59375 7.515625 
L 36.8125 7.515625 
L 36.8125 0 
L 27.59375 0 
Q 17.1875 0 13.234375 3.875 
Q 9.28125 7.765625 9.28125 18.015625 
L 9.28125 47.703125 
L 2.6875 47.703125 
L 2.6875 54.6875 
L 9.28125 54.6875 
L 9.28125 70.21875 
z
" id="DejaVuSans-116"/>
       <path d="M 54.890625 33.015625 
L 54.890625 0 
L 45.90625 0 
L 45.90625 32.71875 
Q 45.90625 40.484375 42.875 44.328125 
Q 39.84375 48.1875 33.796875 48.1875 
Q 26.515625 48.1875 22.3125 43.546875 
Q 18.109375 38.921875 18.109375 30.90625 
L 18.109375 0 
L 9.078125 0 
L 9.078125 54.6875 
L 18.109375 54.6875 
L 18.109375 46.1875 
Q 21.34375 51.125 25.703125 53.5625 
Q 30.078125 56 35.796875 56 
Q 45.21875 56 50.046875 50.171875 
Q 54.890625 44.34375 54.890625 33.015625 
z
" id="DejaVuSans-110"/>
       <path id="DejaVuSans-32"/>
       <path d="M 31 75.875 
Q 24.46875 64.65625 21.28125 53.65625 
Q 18.109375 42.671875 18.109375 31.390625 
Q 18.109375 20.125 21.3125 9.0625 
Q 24.515625 -2 31 -13.1875 
L 23.1875 -13.1875 
Q 15.875 -1.703125 12.234375 9.375 
Q 8.59375 20.453125 8.59375 31.390625 
Q 8.59375 42.28125 12.203125 53.3125 
Q 15.828125 64.359375 23.1875 75.875 
z
" id="DejaVuSans-40"/>
       <path d="M 52 44.1875 
Q 55.375 50.25 60.0625 53.125 
Q 64.75 56 71.09375 56 
Q 79.640625 56 84.28125 50.015625 
Q 88.921875 44.046875 88.921875 33.015625 
L 88.921875 0 
L 79.890625 0 
L 79.890625 32.71875 
Q 79.890625 40.578125 77.09375 44.375 
Q 74.3125 48.1875 68.609375 48.1875 
Q 61.625 48.1875 57.5625 43.546875 
Q 53.515625 38.921875 53.515625 30.90625 
L 53.515625 0 
L 44.484375 0 
L 44.484375 32.71875 
Q 44.484375 40.625 41.703125 44.40625 
Q 38.921875 48.1875 33.109375 48.1875 
Q 26.21875 48.1875 22.15625 43.53125 
Q 18.109375 38.875 18.109375 30.90625 
L 18.109375 0 
L 9.078125 0 
L 9.078125 54.6875 
L 18.109375 54.6875 
L 18.109375 46.1875 
Q 21.1875 51.21875 25.484375 53.609375 
Q 29.78125 56 35.6875 56 
Q 41.65625 56 45.828125 52.96875 
Q 50 49.953125 52 44.1875 
z
" id="DejaVuSans-109"/>
       <path d="M 8.015625 75.875 
L 15.828125 75.875 
Q 23.140625 64.359375 26.78125 53.3125 
Q 30.421875 42.28125 30.421875 31.390625 
Q 30.421875 20.453125 26.78125 9.375 
Q 23.140625 -1.703125 15.828125 -13.1875 
L 8.015625 -13.1875 
Q 14.5 -2 17.703125 9.0625 
Q 20.90625 20.125 20.90625 31.390625 
Q 20.90625 42.671875 17.703125 53.65625 
Q 14.5 64.65625 8.015625 75.875 
z
" id="DejaVuSans-41"/>
      </defs>
      <use xlink:href="#DejaVuSans-80"/>
      <use x="56.677734" xlink:href="#DejaVuSans-111"/>
      <use x="117.859375" xlink:href="#DejaVuSans-115"/>
      <use x="169.958984" xlink:href="#DejaVuSans-105"/>
      <use x="197.742188" xlink:href="#DejaVuSans-116"/>
      <use x="236.951172" xlink:href="#DejaVuSans-105"/>
      <use x="264.734375" xlink:href="#DejaVuSans-111"/>
      <use x="325.916016" xlink:href="#DejaVuSans-110"/>
      <use x="389.294922" xlink:href="#DejaVuSans-32"/>
      <use x="421.082031" xlink:href="#DejaVuSans-40"/>
      <use x="460.095703" xlink:href="#DejaVuSans-109"/>
      <use x="557.507812" xlink:href="#DejaVuSans-41"/>
     </g>
    </g>
   </g>
   <g id="line2d_12">
    <path clip-path="url(#p6583874111)" d="M 52.221903 130.095184 
L 56.39754 130.588113 
L 60.573176 130.903083 
L 64.748812 131.039723 
L 68.924449 130.986565 
L 73.100085 130.74015 
L 77.275722 130.305728 
L 81.451358 129.700822 
L 85.626994 128.918469 
L 89.802631 127.957785 
L 93.978267 126.823646 
L 98.153903 125.522406 
L 102.32954 124.067495 
L 106.505176 122.455453 
L 110.680812 120.683684 
L 114.856449 118.764263 
L 119.032085 116.707356 
L 123.207722 114.518392 
L 127.383358 112.211531 
L 131.558994 109.797234 
L 135.734631 107.277999 
L 139.910267 104.670798 
L 144.085903 101.976025 
L 148.26154 99.199775 
L 152.437176 96.351214 
L 156.612812 93.437597 
L 160.788449 90.464786 
L 164.964085 87.436438 
L 169.139722 84.356034 
L 173.315358 81.226307 
L 177.490994 78.052155 
L 181.666631 74.838534 
L 185.842267 71.590654 
L 190.017903 68.312489 
L 194.19354 65.007794 
L 198.369176 61.681408 
L 202.544812 58.34039 
L 206.720449 54.992017 
L 210.896085 51.639356 
L 215.071722 48.281308 
L 219.247358 44.916946 
L 223.422994 41.54287 
L 227.598631 38.152313 
L 231.774267 34.739436 
L 235.949903 31.304375 
L 240.12554 27.853857 
L 244.301176 24.393604 
L 248.476812 18.598918 
L 252.652449 14.514564 
L 256.828085 9.814586 
L 261.003722 6.259091 
" style="fill:none;stroke:#000000;stroke-linecap:square;stroke-width:1.5;"/>
   </g>
   <g id="line2d_13">
    <path clip-path="url(#p6583874111)" d="M 52.221903 130.095184 
L 56.39754 130.694978 
L 60.573176 131.106587 
L 64.748812 131.333946 
L 68.924449 131.348125 
L 73.100085 131.15703 
L 77.275722 130.774251 
L 81.451358 130.169384 
L 85.626994 129.389332 
L 89.802631 128.437576 
L 93.978267 127.301707 
L 98.153903 126.00613 
L 102.32954 124.529548 
L 106.505176 122.903996 
L 110.680812 121.130181 
L 114.856449 119.200592 
L 119.032085 117.129152 
L 123.207722 114.916963 
L 127.383358 112.590042 
L 131.558994 110.147702 
L 135.734631 107.606834 
L 139.910267 104.977273 
L 144.085903 102.257505 
L 148.26154 99.464578 
L 152.437176 96.598337 
L 156.612812 93.664484 
L 160.788449 90.672597 
L 164.964085 87.628712 
L 169.139722 84.535014 
L 173.315358 81.39453 
L 177.490994 78.210113 
" style="fill:none;stroke:#1f77b4;stroke-dasharray:1.5,2.475;stroke-dashoffset:0;stroke-width:1.5;"/>
   </g>
   <g id="line2d_14">
    <path clip-path="url(#p6583874111)" d="M 177.490994 78.210113 
L 181.666631 74.983118 
L 185.842267 71.84175 
L 190.017903 68.596564 
L 194.19354 65.229745 
L 198.369176 61.889199 
L 202.544812 58.488396 
L 206.720449 55.094182 
L 210.896085 51.733852 
L 215.071722 48.32355 
L 219.247358 44.975846 
L 223.422994 41.580393 
L 227.598631 38.186925 
L 231.774267 34.806851 
L 235.949903 31.350059 
L 240.12554 27.926385 
L 244.301176 24.441196 
L 248.476812 20.955023 
L 252.652449 17.466392 
L 256.828085 13.611973 
L 261.003722 9.504807 
" style="fill:none;stroke:#ff7f0e;stroke-dasharray:1.5,2.475;stroke-dashoffset:0;stroke-width:1.5;"/>
   </g>
   <g id="line2d_15">
    <path clip-path="url(#p6583874111)" d="M 52.221903 130.095184 
L 56.39754 130.694978 
L 60.573176 131.125427 
L 64.748812 131.378627 
L 68.924449 131.439906 
L 73.100085 131.301536 
L 77.275722 130.964422 
L 81.451358 130.43104 
L 85.626994 129.705188 
L 89.802631 128.794612 
L 93.978267 127.705568 
L 98.153903 126.436718 
L 102.32954 124.99577 
L 106.505176 123.390768 
L 110.680812 121.626413 
L 114.856449 119.708309 
L 119.032085 117.640468 
L 123.207722 115.428967 
L 127.383358 113.088713 
L 131.558994 110.634062 
L 135.734631 108.073882 
L 139.910267 105.421116 
L 144.085903 102.683962 
L 148.26154 99.867141 
L 152.437176 96.978343 
L 156.612812 94.024214 
L 160.788449 91.010262 
L 164.964085 87.943919 
L 169.139722 84.830555 
L 173.315358 81.671683 
L 177.490994 78.469684 
" style="fill:none;stroke:#1f77b4;stroke-dasharray:5.55,2.4;stroke-dashoffset:0;stroke-width:1.5;"/>
   </g>
   <g id="line2d_16">
    <path clip-path="url(#p6583874111)" d="M 177.490994 78.469684 
L 181.666631 75.227822 
L 185.842267 71.950267 
L 190.017903 68.656585 
L 194.19354 65.342627 
L 198.369176 62.000193 
L 202.544812 58.639352 
L 206.720449 55.261284 
L 210.896085 51.874975 
L 215.071722 48.490062 
L 219.247358 45.102495 
L 223.422994 41.717091 
L 227.598631 38.322857 
L 231.774267 34.913067 
L 235.949903 31.484476 
L 240.12554 28.028924 
L 244.301176 24.558031 
L 248.476812 21.071564 
L 252.652449 17.571172 
L 256.828085 14.053829 
L 261.003722 10.470959 
" style="fill:none;stroke:#ff7f0e;stroke-dasharray:5.55,2.4;stroke-dashoffset:0;stroke-width:1.5;"/>
   </g>
   <g id="line2d_17">
    <path clip-path="url(#p6583874111)" d="M 52.221903 130.095184 
L 56.39754 130.694978 
L 60.573176 131.125427 
L 64.748812 131.379237 
L 68.924449 131.440909 
L 73.100085 131.302893 
L 77.275722 130.96629 
L 81.451358 130.432908 
L 85.626994 129.707371 
L 89.802631 128.796835 
L 93.978267 127.70783 
L 98.153903 126.439176 
L 102.32954 124.998071 
L 106.505176 123.393187 
L 110.680812 121.628793 
L 114.856449 119.710689 
L 119.032085 117.642946 
L 123.207722 115.431367 
L 127.383358 113.091191 
L 131.558994 110.63652 
L 135.734631 108.076341 
L 139.910267 105.423613 
L 144.085903 102.686479 
L 148.26154 99.869659 
L 152.437176 96.98088 
L 156.612812 94.026771 
L 160.788449 91.012759 
L 164.964085 87.946535 
L 169.139722 84.833072 
L 173.315358 81.67426 
L 177.490994 78.47228 
" style="fill:none;stroke:#1f77b4;stroke-linecap:square;stroke-width:1.5;"/>
   </g>
   <g id="line2d_18">
    <path clip-path="url(#p6583874111)" d="M 177.490994 78.47228 
L 181.666631 75.230241 
L 185.842267 71.952941 
L 190.017903 68.641717 
L 194.19354 65.30361 
L 198.369176 61.945345 
L 202.544812 58.571269 
L 206.720449 55.1885 
L 210.896085 51.803548 
L 215.071722 48.420759 
L 219.247358 45.041452 
L 223.422994 41.662498 
L 227.598631 38.277153 
L 231.774267 34.876862 
L 235.949903 31.454663 
L 240.12554 28.007861 
L 244.301176 24.542181 
L 248.476812 21.061613 
L 252.652449 17.566846 
L 256.828085 14.052177 
L 261.003722 10.473751 
" style="fill:none;stroke:#ff7f0e;stroke-linecap:square;stroke-width:1.5;"/>
   </g>
   <g id="patch_3">
    <path d="M 41.782813 137.7 
L 41.782813 0 
" style="fill:none;stroke:#000000;stroke-linecap:square;stroke-linejoin:miter;stroke-width:0.8;"/>
   </g>
   <g id="patch_4">
    <path d="M 271.442812 137.7 
L 271.442812 0 
" style="fill:none;stroke:#000000;stroke-linecap:square;stroke-linejoin:miter;stroke-width:0.8;"/>
   </g>
   <g id="patch_5">
    <path d="M 41.782813 137.7 
L 271.442812 137.7 
" style="fill:none;stroke:#000000;stroke-linecap:square;stroke-linejoin:miter;stroke-width:0.8;"/>
   </g>
   <g id="patch_6">
    <path d="M 41.782813 0 
L 271.442812 0 
" style="fill:none;stroke:#000000;stroke-linecap:square;stroke-linejoin:miter;stroke-width:0.8;"/>
   </g>
   <g id="legend_1">
    <g id="patch_7">
     <path d="M 48.782813 96.06875 
L 152.35625 96.06875 
Q 154.35625 96.06875 154.35625 94.06875 
L 154.35625 7 
Q 154.35625 5 152.35625 5 
L 48.782813 5 
Q 46.782813 5 46.782813 7 
L 46.782813 94.06875 
Q 46.782813 96.06875 48.782813 96.06875 
z
" style="fill:#ffffff;opacity:0.8;stroke:#cccccc;stroke-linejoin:miter;"/>
    </g>
    <g id="line2d_19">
     <path d="M 50.782813 13.098438 
L 70.782813 13.098438 
" style="fill:none;stroke:#1f77b4;stroke-linecap:square;stroke-width:1.5;"/>
    </g>
    <g id="line2d_20"/>
    <g id="text_13">
     <!-- DMP1 -->
     <g transform="translate(78.782813 16.598438)scale(0.1 -0.1)">
      <defs>
       <path d="M 19.671875 64.796875 
L 19.671875 8.109375 
L 31.59375 8.109375 
Q 46.6875 8.109375 53.6875 14.9375 
Q 60.6875 21.78125 60.6875 36.53125 
Q 60.6875 51.171875 53.6875 57.984375 
Q 46.6875 64.796875 31.59375 64.796875 
z
M 9.8125 72.90625 
L 30.078125 72.90625 
Q 51.265625 72.90625 61.171875 64.09375 
Q 71.09375 55.28125 71.09375 36.53125 
Q 71.09375 17.671875 61.125 8.828125 
Q 51.171875 0 30.078125 0 
L 9.8125 0 
z
" id="DejaVuSans-68"/>
       <path d="M 9.8125 72.90625 
L 24.515625 72.90625 
L 43.109375 23.296875 
L 61.8125 72.90625 
L 76.515625 72.90625 
L 76.515625 0 
L 66.890625 0 
L 66.890625 64.015625 
L 48.09375 14.015625 
L 38.1875 14.015625 
L 19.390625 64.015625 
L 19.390625 0 
L 9.8125 0 
z
" id="DejaVuSans-77"/>
      </defs>
      <use xlink:href="#DejaVuSans-68"/>
      <use x="77.001953" xlink:href="#DejaVuSans-77"/>
      <use x="163.28125" xlink:href="#DejaVuSans-80"/>
      <use x="223.583984" xlink:href="#DejaVuSans-49"/>
     </g>
    </g>
    <g id="line2d_21">
     <path d="M 50.782813 27.776563 
L 70.782813 27.776563 
" style="fill:none;stroke:#ff7f0e;stroke-linecap:square;stroke-width:1.5;"/>
    </g>
    <g id="line2d_22"/>
    <g id="text_14">
     <!-- DMP2 -->
     <g transform="translate(78.782813 31.276563)scale(0.1 -0.1)">
      <use xlink:href="#DejaVuSans-68"/>
      <use x="77.001953" xlink:href="#DejaVuSans-77"/>
      <use x="163.28125" xlink:href="#DejaVuSans-80"/>
      <use x="223.583984" xlink:href="#DejaVuSans-50"/>
     </g>
    </g>
    <g id="line2d_23">
     <path d="M 50.782813 42.454688 
L 70.782813 42.454688 
" style="fill:none;stroke:#808080;stroke-dasharray:1.5,2.475;stroke-dashoffset:0;stroke-width:1.5;"/>
    </g>
    <g id="line2d_24"/>
    <g id="text_15">
     <!-- 2nd ord. DMP -->
     <g transform="translate(78.782813 45.954688)scale(0.1 -0.1)">
      <defs>
       <path d="M 45.40625 46.390625 
L 45.40625 75.984375 
L 54.390625 75.984375 
L 54.390625 0 
L 45.40625 0 
L 45.40625 8.203125 
Q 42.578125 3.328125 38.25 0.953125 
Q 33.9375 -1.421875 27.875 -1.421875 
Q 17.96875 -1.421875 11.734375 6.484375 
Q 5.515625 14.40625 5.515625 27.296875 
Q 5.515625 40.1875 11.734375 48.09375 
Q 17.96875 56 27.875 56 
Q 33.9375 56 38.25 53.625 
Q 42.578125 51.265625 45.40625 46.390625 
z
M 14.796875 27.296875 
Q 14.796875 17.390625 18.875 11.75 
Q 22.953125 6.109375 30.078125 6.109375 
Q 37.203125 6.109375 41.296875 11.75 
Q 45.40625 17.390625 45.40625 27.296875 
Q 45.40625 37.203125 41.296875 42.84375 
Q 37.203125 48.484375 30.078125 48.484375 
Q 22.953125 48.484375 18.875 42.84375 
Q 14.796875 37.203125 14.796875 27.296875 
z
" id="DejaVuSans-100"/>
       <path d="M 41.109375 46.296875 
Q 39.59375 47.171875 37.8125 47.578125 
Q 36.03125 48 33.890625 48 
Q 26.265625 48 22.1875 43.046875 
Q 18.109375 38.09375 18.109375 28.8125 
L 18.109375 0 
L 9.078125 0 
L 9.078125 54.6875 
L 18.109375 54.6875 
L 18.109375 46.1875 
Q 20.953125 51.171875 25.484375 53.578125 
Q 30.03125 56 36.53125 56 
Q 37.453125 56 38.578125 55.875 
Q 39.703125 55.765625 41.0625 55.515625 
z
" id="DejaVuSans-114"/>
       <path d="M 10.6875 12.40625 
L 21 12.40625 
L 21 0 
L 10.6875 0 
z
" id="DejaVuSans-46"/>
      </defs>
      <use xlink:href="#DejaVuSans-50"/>
      <use x="63.623047" xlink:href="#DejaVuSans-110"/>
      <use x="127.001953" xlink:href="#DejaVuSans-100"/>
      <use x="190.478516" xlink:href="#DejaVuSans-32"/>
      <use x="222.265625" xlink:href="#DejaVuSans-111"/>
      <use x="283.447266" xlink:href="#DejaVuSans-114"/>
      <use x="322.810547" xlink:href="#DejaVuSans-100"/>
      <use x="386.287109" xlink:href="#DejaVuSans-46"/>
      <use x="418.074219" xlink:href="#DejaVuSans-32"/>
      <use x="449.861328" xlink:href="#DejaVuSans-68"/>
      <use x="526.863281" xlink:href="#DejaVuSans-77"/>
      <use x="613.142578" xlink:href="#DejaVuSans-80"/>
     </g>
    </g>
    <g id="line2d_25">
     <path d="M 50.782813 57.132813 
L 70.782813 57.132813 
" style="fill:none;stroke:#808080;stroke-dasharray:5.55,2.4;stroke-dashoffset:0;stroke-width:1.5;"/>
    </g>
    <g id="line2d_26"/>
    <g id="text_16">
     <!-- 3rd ord. DMP -->
     <g transform="translate(78.782813 60.632813)scale(0.1 -0.1)">
      <use xlink:href="#DejaVuSans-51"/>
      <use x="63.623047" xlink:href="#DejaVuSans-114"/>
      <use x="102.986328" xlink:href="#DejaVuSans-100"/>
      <use x="166.462891" xlink:href="#DejaVuSans-32"/>
      <use x="198.25" xlink:href="#DejaVuSans-111"/>
      <use x="259.431641" xlink:href="#DejaVuSans-114"/>
      <use x="298.794922" xlink:href="#DejaVuSans-100"/>
      <use x="362.271484" xlink:href="#DejaVuSans-46"/>
      <use x="394.058594" xlink:href="#DejaVuSans-32"/>
      <use x="425.845703" xlink:href="#DejaVuSans-68"/>
      <use x="502.847656" xlink:href="#DejaVuSans-77"/>
      <use x="589.126953" xlink:href="#DejaVuSans-80"/>
     </g>
    </g>
    <g id="line2d_27">
     <path d="M 50.782813 71.810938 
L 70.782813 71.810938 
" style="fill:none;stroke:#808080;stroke-linecap:square;stroke-width:1.5;"/>
    </g>
    <g id="line2d_28"/>
    <g id="text_17">
     <!-- Proposed DMP -->
     <g transform="translate(78.782813 75.310938)scale(0.1 -0.1)">
      <defs>
       <path d="M 18.109375 8.203125 
L 18.109375 -20.796875 
L 9.078125 -20.796875 
L 9.078125 54.6875 
L 18.109375 54.6875 
L 18.109375 46.390625 
Q 20.953125 51.265625 25.265625 53.625 
Q 29.59375 56 35.59375 56 
Q 45.5625 56 51.78125 48.09375 
Q 58.015625 40.1875 58.015625 27.296875 
Q 58.015625 14.40625 51.78125 6.484375 
Q 45.5625 -1.421875 35.59375 -1.421875 
Q 29.59375 -1.421875 25.265625 0.953125 
Q 20.953125 3.328125 18.109375 8.203125 
z
M 48.6875 27.296875 
Q 48.6875 37.203125 44.609375 42.84375 
Q 40.53125 48.484375 33.40625 48.484375 
Q 26.265625 48.484375 22.1875 42.84375 
Q 18.109375 37.203125 18.109375 27.296875 
Q 18.109375 17.390625 22.1875 11.75 
Q 26.265625 6.109375 33.40625 6.109375 
Q 40.53125 6.109375 44.609375 11.75 
Q 48.6875 17.390625 48.6875 27.296875 
z
" id="DejaVuSans-112"/>
       <path d="M 56.203125 29.59375 
L 56.203125 25.203125 
L 14.890625 25.203125 
Q 15.484375 15.921875 20.484375 11.0625 
Q 25.484375 6.203125 34.421875 6.203125 
Q 39.59375 6.203125 44.453125 7.46875 
Q 49.3125 8.734375 54.109375 11.28125 
L 54.109375 2.78125 
Q 49.265625 0.734375 44.1875 -0.34375 
Q 39.109375 -1.421875 33.890625 -1.421875 
Q 20.796875 -1.421875 13.15625 6.1875 
Q 5.515625 13.8125 5.515625 26.8125 
Q 5.515625 40.234375 12.765625 48.109375 
Q 20.015625 56 32.328125 56 
Q 43.359375 56 49.78125 48.890625 
Q 56.203125 41.796875 56.203125 29.59375 
z
M 47.21875 32.234375 
Q 47.125 39.59375 43.09375 43.984375 
Q 39.0625 48.390625 32.421875 48.390625 
Q 24.90625 48.390625 20.390625 44.140625 
Q 15.875 39.890625 15.1875 32.171875 
z
" id="DejaVuSans-101"/>
      </defs>
      <use xlink:href="#DejaVuSans-80"/>
      <use x="58.552734" xlink:href="#DejaVuSans-114"/>
      <use x="97.416016" xlink:href="#DejaVuSans-111"/>
      <use x="158.597656" xlink:href="#DejaVuSans-112"/>
      <use x="222.074219" xlink:href="#DejaVuSans-111"/>
      <use x="283.255859" xlink:href="#DejaVuSans-115"/>
      <use x="335.355469" xlink:href="#DejaVuSans-101"/>
      <use x="396.878906" xlink:href="#DejaVuSans-100"/>
      <use x="460.355469" xlink:href="#DejaVuSans-32"/>
      <use x="492.142578" xlink:href="#DejaVuSans-68"/>
      <use x="569.144531" xlink:href="#DejaVuSans-77"/>
      <use x="655.423828" xlink:href="#DejaVuSans-80"/>
     </g>
    </g>
    <g id="line2d_29">
     <path d="M 50.782813 86.489063 
L 70.782813 86.489063 
" style="fill:none;stroke:#000000;stroke-linecap:square;stroke-width:1.5;"/>
    </g>
    <g id="line2d_30"/>
    <g id="text_18">
     <!-- Reference -->
     <g transform="translate(78.782813 89.989063)scale(0.1 -0.1)">
      <defs>
       <path d="M 44.390625 34.1875 
Q 47.5625 33.109375 50.5625 29.59375 
Q 53.5625 26.078125 56.59375 19.921875 
L 66.609375 0 
L 56 0 
L 46.6875 18.703125 
Q 43.0625 26.03125 39.671875 28.421875 
Q 36.28125 30.8125 30.421875 30.8125 
L 19.671875 30.8125 
L 19.671875 0 
L 9.8125 0 
L 9.8125 72.90625 
L 32.078125 72.90625 
Q 44.578125 72.90625 50.734375 67.671875 
Q 56.890625 62.453125 56.890625 51.90625 
Q 56.890625 45.015625 53.6875 40.46875 
Q 50.484375 35.9375 44.390625 34.1875 
z
M 19.671875 64.796875 
L 19.671875 38.921875 
L 32.078125 38.921875 
Q 39.203125 38.921875 42.84375 42.21875 
Q 46.484375 45.515625 46.484375 51.90625 
Q 46.484375 58.296875 42.84375 61.546875 
Q 39.203125 64.796875 32.078125 64.796875 
z
" id="DejaVuSans-82"/>
       <path d="M 37.109375 75.984375 
L 37.109375 68.5 
L 28.515625 68.5 
Q 23.6875 68.5 21.796875 66.546875 
Q 19.921875 64.59375 19.921875 59.515625 
L 19.921875 54.6875 
L 34.71875 54.6875 
L 34.71875 47.703125 
L 19.921875 47.703125 
L 19.921875 0 
L 10.890625 0 
L 10.890625 47.703125 
L 2.296875 47.703125 
L 2.296875 54.6875 
L 10.890625 54.6875 
L 10.890625 58.5 
Q 10.890625 67.625 15.140625 71.796875 
Q 19.390625 75.984375 28.609375 75.984375 
z
" id="DejaVuSans-102"/>
       <path d="M 48.78125 52.59375 
L 48.78125 44.1875 
Q 44.96875 46.296875 41.140625 47.34375 
Q 37.3125 48.390625 33.40625 48.390625 
Q 24.65625 48.390625 19.8125 42.84375 
Q 14.984375 37.3125 14.984375 27.296875 
Q 14.984375 17.28125 19.8125 11.734375 
Q 24.65625 6.203125 33.40625 6.203125 
Q 37.3125 6.203125 41.140625 7.25 
Q 44.96875 8.296875 48.78125 10.40625 
L 48.78125 2.09375 
Q 45.015625 0.34375 40.984375 -0.53125 
Q 36.96875 -1.421875 32.421875 -1.421875 
Q 20.0625 -1.421875 12.78125 6.34375 
Q 5.515625 14.109375 5.515625 27.296875 
Q 5.515625 40.671875 12.859375 48.328125 
Q 20.21875 56 33.015625 56 
Q 37.15625 56 41.109375 55.140625 
Q 45.0625 54.296875 48.78125 52.59375 
z
" id="DejaVuSans-99"/>
      </defs>
      <use xlink:href="#DejaVuSans-82"/>
      <use x="64.982422" xlink:href="#DejaVuSans-101"/>
      <use x="126.505859" xlink:href="#DejaVuSans-102"/>
      <use x="161.710938" xlink:href="#DejaVuSans-101"/>
      <use x="223.234375" xlink:href="#DejaVuSans-114"/>
      <use x="262.097656" xlink:href="#DejaVuSans-101"/>
      <use x="323.621094" xlink:href="#DejaVuSans-110"/>
      <use x="387" xlink:href="#DejaVuSans-99"/>
      <use x="441.980469" xlink:href="#DejaVuSans-101"/>
     </g>
    </g>
   </g>
  </g>
  <g id="axes_2">
   <g id="patch_8">
    <path d="M 324.382812 137.7 
L 554.042812 137.7 
L 554.042812 0 
L 324.382812 0 
z
" style="fill:#ffffff;"/>
   </g>
   <g id="matplotlib.axis_3">
    <g id="xtick_7">
     <g id="line2d_31">
      <g>
       <use style="stroke:#000000;stroke-width:0.8;" x="334.821903" xlink:href="#m71ceabd5ee" y="137.7"/>
      </g>
     </g>
     <g id="text_19">
      <!-- 0 -->
      <g transform="translate(331.640653 152.298438)scale(0.1 -0.1)">
       <use xlink:href="#DejaVuSans-48"/>
      </g>
     </g>
    </g>
    <g id="xtick_8">
     <g id="line2d_32">
      <g>
       <use style="stroke:#000000;stroke-width:0.8;" x="376.578267" xlink:href="#m71ceabd5ee" y="137.7"/>
      </g>
     </g>
     <g id="text_20">
      <!-- 1 -->
      <g transform="translate(373.397017 152.298438)scale(0.1 -0.1)">
       <use xlink:href="#DejaVuSans-49"/>
      </g>
     </g>
    </g>
    <g id="xtick_9">
     <g id="line2d_33">
      <g>
       <use style="stroke:#000000;stroke-width:0.8;" x="418.334631" xlink:href="#m71ceabd5ee" y="137.7"/>
      </g>
     </g>
     <g id="text_21">
      <!-- 2 -->
      <g transform="translate(415.153381 152.298438)scale(0.1 -0.1)">
       <use xlink:href="#DejaVuSans-50"/>
      </g>
     </g>
    </g>
    <g id="xtick_10">
     <g id="line2d_34">
      <g>
       <use style="stroke:#000000;stroke-width:0.8;" x="460.090994" xlink:href="#m71ceabd5ee" y="137.7"/>
      </g>
     </g>
     <g id="text_22">
      <!-- 3 -->
      <g transform="translate(456.909744 152.298438)scale(0.1 -0.1)">
       <use xlink:href="#DejaVuSans-51"/>
      </g>
     </g>
    </g>
    <g id="xtick_11">
     <g id="line2d_35">
      <g>
       <use style="stroke:#000000;stroke-width:0.8;" x="501.847358" xlink:href="#m71ceabd5ee" y="137.7"/>
      </g>
     </g>
     <g id="text_23">
      <!-- 4 -->
      <g transform="translate(498.666108 152.298438)scale(0.1 -0.1)">
       <use xlink:href="#DejaVuSans-52"/>
      </g>
     </g>
    </g>
    <g id="xtick_12">
     <g id="line2d_36">
      <g>
       <use style="stroke:#000000;stroke-width:0.8;" x="543.603722" xlink:href="#m71ceabd5ee" y="137.7"/>
      </g>
     </g>
     <g id="text_24">
      <!-- 5 -->
      <g transform="translate(540.422472 152.298438)scale(0.1 -0.1)">
       <use xlink:href="#DejaVuSans-53"/>
      </g>
     </g>
    </g>
   </g>
   <g id="matplotlib.axis_4">
    <g id="ytick_6">
     <g id="line2d_37">
      <g>
       <use style="stroke:#000000;stroke-width:0.8;" x="324.382812" xlink:href="#m75a99ecc2d" y="116.194343"/>
      </g>
     </g>
     <g id="text_25">
      <!-- 0 -->
      <g transform="translate(311.020312 119.993562)scale(0.1 -0.1)">
       <use xlink:href="#DejaVuSans-48"/>
      </g>
     </g>
    </g>
    <g id="ytick_7">
     <g id="line2d_38">
      <g>
       <use style="stroke:#000000;stroke-width:0.8;" x="324.382812" xlink:href="#m75a99ecc2d" y="83.432805"/>
      </g>
     </g>
     <g id="text_26">
      <!-- 10 -->
      <g transform="translate(304.657812 87.232024)scale(0.1 -0.1)">
       <use xlink:href="#DejaVuSans-49"/>
       <use x="63.623047" xlink:href="#DejaVuSans-48"/>
      </g>
     </g>
    </g>
    <g id="ytick_8">
     <g id="line2d_39">
      <g>
       <use style="stroke:#000000;stroke-width:0.8;" x="324.382812" xlink:href="#m75a99ecc2d" y="50.671268"/>
      </g>
     </g>
     <g id="text_27">
      <!-- 20 -->
      <g transform="translate(304.657812 54.470487)scale(0.1 -0.1)">
       <use xlink:href="#DejaVuSans-50"/>
       <use x="63.623047" xlink:href="#DejaVuSans-48"/>
      </g>
     </g>
    </g>
    <g id="ytick_9">
     <g id="line2d_40">
      <g>
       <use style="stroke:#000000;stroke-width:0.8;" x="324.382812" xlink:href="#m75a99ecc2d" y="17.90973"/>
      </g>
     </g>
     <g id="text_28">
      <!-- 30 -->
      <g transform="translate(304.657812 21.708949)scale(0.1 -0.1)">
       <use xlink:href="#DejaVuSans-51"/>
       <use x="63.623047" xlink:href="#DejaVuSans-48"/>
      </g>
     </g>
    </g>
    <g id="text_29">
     <!-- Velocity (m/s) -->
     <g transform="translate(298.578125 103.115625)rotate(-90)scale(0.1 -0.1)">
      <defs>
       <path d="M 28.609375 0 
L 0.78125 72.90625 
L 11.078125 72.90625 
L 34.1875 11.53125 
L 57.328125 72.90625 
L 67.578125 72.90625 
L 39.796875 0 
z
" id="DejaVuSans-86"/>
       <path d="M 9.421875 75.984375 
L 18.40625 75.984375 
L 18.40625 0 
L 9.421875 0 
z
" id="DejaVuSans-108"/>
       <path d="M 32.171875 -5.078125 
Q 28.375 -14.84375 24.75 -17.8125 
Q 21.140625 -20.796875 15.09375 -20.796875 
L 7.90625 -20.796875 
L 7.90625 -13.28125 
L 13.1875 -13.28125 
Q 16.890625 -13.28125 18.9375 -11.515625 
Q 21 -9.765625 23.484375 -3.21875 
L 25.09375 0.875 
L 2.984375 54.6875 
L 12.5 54.6875 
L 29.59375 11.921875 
L 46.6875 54.6875 
L 56.203125 54.6875 
z
" id="DejaVuSans-121"/>
       <path d="M 25.390625 72.90625 
L 33.6875 72.90625 
L 8.296875 -9.28125 
L 0 -9.28125 
z
" id="DejaVuSans-47"/>
      </defs>
      <use xlink:href="#DejaVuSans-86"/>
      <use x="60.658203" xlink:href="#DejaVuSans-101"/>
      <use x="122.181641" xlink:href="#DejaVuSans-108"/>
      <use x="149.964844" xlink:href="#DejaVuSans-111"/>
      <use x="211.146484" xlink:href="#DejaVuSans-99"/>
      <use x="266.126953" xlink:href="#DejaVuSans-105"/>
      <use x="293.910156" xlink:href="#DejaVuSans-116"/>
      <use x="333.119141" xlink:href="#DejaVuSans-121"/>
      <use x="392.298828" xlink:href="#DejaVuSans-32"/>
      <use x="424.085938" xlink:href="#DejaVuSans-40"/>
      <use x="463.099609" xlink:href="#DejaVuSans-109"/>
      <use x="560.511719" xlink:href="#DejaVuSans-47"/>
      <use x="594.203125" xlink:href="#DejaVuSans-115"/>
      <use x="646.302734" xlink:href="#DejaVuSans-41"/>
     </g>
    </g>
   </g>
   <g id="line2d_41">
    <path clip-path="url(#pc9fea459d0)" d="M 334.821903 131.440909 
L 338.99754 126.614437 
L 343.173176 122.186329 
L 347.348813 117.832262 
L 351.524449 112.704881 
L 355.700085 107.973566 
L 359.875722 103.005428 
L 364.051358 99.360571 
L 368.226994 94.347271 
L 372.402631 89.995088 
L 376.578267 85.605061 
L 380.753903 81.209978 
L 384.92954 77.694934 
L 389.105176 73.47127 
L 393.280812 69.597347 
L 397.456449 66.039911 
L 401.632085 62.513726 
L 405.807722 59.305102 
L 409.983358 56.515571 
L 414.158994 53.734126 
L 418.334631 51.185185 
L 422.510267 49.065497 
L 426.685903 46.864969 
L 430.86154 44.900906 
L 435.037176 43.134573 
L 439.212812 41.565745 
L 443.388449 40.095135 
L 447.564085 38.725068 
L 451.739722 37.433848 
L 455.915358 36.22926 
L 460.090994 35.151992 
L 464.266631 34.20241 
L 468.442267 33.382703 
L 472.617903 32.65041 
L 476.79354 32.021622 
L 480.969176 31.535518 
L 485.144812 31.252123 
L 489.320449 31.117775 
L 493.496085 31.006303 
L 497.671722 30.855833 
L 501.847358 30.673844 
L 506.022994 30.369179 
L 510.198631 29.877013 
L 514.374267 29.272464 
L 518.549903 28.766932 
L 522.72554 28.4537 
L 526.901176 28.225508 
L 531.076812 27.575024 
L 535.252449 27.071429 
L 539.428085 26.327814 
L 543.603722 25.561652 
" style="fill:none;stroke:#000000;stroke-linecap:square;stroke-width:1.5;"/>
   </g>
   <g id="line2d_42">
    <path clip-path="url(#pc9fea459d0)" d="M 334.821903 131.440909 
L 338.99754 126.657085 
L 343.173176 121.973733 
L 347.348813 116.555054 
L 351.524449 111.336846 
L 355.700085 106.464138 
L 359.875722 100.818987 
L 364.051358 96.365629 
L 368.226994 92.001259 
L 372.402631 87.320607 
L 376.578267 83.26133 
L 380.753903 78.660381 
L 384.92954 74.873691 
L 389.105176 71.104619 
L 393.280812 67.145187 
L 397.456449 63.539292 
L 401.632085 59.961323 
L 405.807722 57.045042 
L 409.983358 54.110696 
L 414.158994 51.607002 
L 418.334631 49.352034 
L 422.510267 47.05893 
L 426.685903 45.199204 
L 430.86154 43.335659 
L 435.037176 41.61731 
L 439.212812 40.141595 
L 443.388449 38.820406 
L 447.564085 37.55363 
L 451.739722 36.364421 
L 455.915358 35.247948 
L 460.090994 34.165449 
" style="fill:none;stroke:#1f77b4;stroke-dasharray:1.5,2.475;stroke-dashoffset:0;stroke-width:1.5;"/>
   </g>
   <g id="line2d_43">
    <path clip-path="url(#pc9fea459d0)" d="M 460.090994 34.165449 
L 464.266631 36.342344 
L 468.442267 33.703171 
L 472.617903 30.6108 
L 476.79354 31.279487 
L 480.969176 29.747345 
L 485.144812 29.914512 
L 489.320449 30.776598 
L 493.496085 29.505618 
L 497.671722 31.097291 
L 501.847358 29.883362 
L 506.022994 29.933783 
L 510.198631 30.274348 
L 514.374267 28.323932 
L 518.549903 29.166491 
L 522.72554 27.602062 
L 526.901176 27.57703 
L 531.076812 27.515304 
L 535.252449 18.216832 
L 539.428085 11.792068 
L 543.603722 6.259091 
" style="fill:none;stroke:#ff7f0e;stroke-dasharray:1.5,2.475;stroke-dashoffset:0;stroke-width:1.5;"/>
   </g>
   <g id="line2d_44">
    <path clip-path="url(#pc9fea459d0)" d="M 334.821903 131.440909 
L 338.99754 127.136025 
L 343.173176 122.63056 
L 347.348813 117.752189 
L 351.524449 112.677151 
L 355.700085 107.624835 
L 359.875722 102.636174 
L 364.051358 97.743309 
L 368.226994 93.047974 
L 372.402631 88.511329 
L 376.578267 83.940421 
L 380.753903 79.566393 
L 384.92954 75.395591 
L 389.105176 71.34519 
L 393.280812 67.437173 
L 397.456449 63.630537 
L 401.632085 59.979276 
L 405.807722 56.706077 
L 409.983358 53.798001 
L 414.158994 51.115586 
L 418.334631 48.762282 
L 422.510267 46.617174 
L 426.685903 44.591898 
L 430.86154 42.762197 
L 435.037176 41.101624 
L 439.212812 39.581012 
L 443.388449 38.249193 
L 447.564085 37.053829 
L 451.739722 35.897588 
L 455.915358 34.800667 
L 460.090994 33.787692 
" style="fill:none;stroke:#1f77b4;stroke-dasharray:5.55,2.4;stroke-dashoffset:0;stroke-width:1.5;"/>
   </g>
   <g id="line2d_45">
    <path clip-path="url(#pc9fea459d0)" d="M 460.090994 33.787692 
L 464.266631 32.880315 
L 468.442267 32.470221 
L 472.617903 31.954916 
L 476.79354 31.231209 
L 480.969176 30.763301 
L 485.144812 30.325088 
L 489.320449 30.115654 
L 493.496085 30.151534 
L 497.671722 30.083623 
L 501.847358 30.138962 
L 506.022994 29.914262 
L 510.198631 29.518847 
L 514.374267 29.041035 
L 518.549903 28.355888 
L 522.72554 27.96594 
L 526.901176 27.569812 
L 531.076812 27.21592 
L 535.252449 26.784723 
L 539.428085 25.119277 
L 543.603722 22.620507 
" style="fill:none;stroke:#ff7f0e;stroke-dasharray:5.55,2.4;stroke-dashoffset:0;stroke-width:1.5;"/>
   </g>
   <g id="line2d_46">
    <path clip-path="url(#pc9fea459d0)" d="M 334.821903 131.440909 
L 338.99754 127.136025 
L 343.173176 122.646322 
L 347.348813 117.76179 
L 351.524449 112.686261 
L 355.700085 107.637636 
L 359.875722 102.636163 
L 364.051358 97.751381 
L 368.226994 93.049176 
L 372.402631 88.512379 
L 376.578267 83.945336 
L 380.753903 79.562547 
L 384.92954 75.398784 
L 389.105176 71.344296 
L 393.280812 67.436889 
L 397.456449 63.633105 
L 401.632085 59.97702 
L 405.807722 56.70769 
L 409.983358 53.797789 
L 414.158994 51.115786 
L 418.334631 48.763119 
L 422.510267 46.617617 
L 426.685903 44.591742 
L 430.86154 42.76279 
L 435.037176 41.102205 
L 439.212812 39.579425 
L 443.388449 38.252593 
L 447.564085 37.051205 
L 451.739722 35.898857 
L 455.915358 34.801442 
L 460.090994 33.782993 
" style="fill:none;stroke:#1f77b4;stroke-linecap:square;stroke-width:1.5;"/>
   </g>
   <g id="line2d_47">
    <path clip-path="url(#pc9fea459d0)" d="M 460.090994 33.782993 
L 464.266631 32.88667 
L 468.442267 32.024646 
L 472.617903 31.341018 
L 476.79354 30.828426 
L 480.969176 30.426786 
L 485.144812 30.20613 
L 489.320449 30.150303 
L 493.496085 30.205211 
L 497.671722 30.293562 
L 501.847358 30.302879 
L 506.022994 30.140274 
L 510.198631 29.760311 
L 514.374267 29.203859 
L 518.549903 28.577976 
L 522.72554 28.098171 
L 526.901176 27.720158 
L 531.076812 27.358904 
L 535.252449 26.852391 
L 539.428085 25.23263 
L 543.603722 22.661412 
" style="fill:none;stroke:#ff7f0e;stroke-linecap:square;stroke-width:1.5;"/>
   </g>
   <g id="patch_9">
    <path d="M 324.382812 137.7 
L 324.382812 0 
" style="fill:none;stroke:#000000;stroke-linecap:square;stroke-linejoin:miter;stroke-width:0.8;"/>
   </g>
   <g id="patch_10">
    <path d="M 554.042812 137.7 
L 554.042812 0 
" style="fill:none;stroke:#000000;stroke-linecap:square;stroke-linejoin:miter;stroke-width:0.8;"/>
   </g>
   <g id="patch_11">
    <path d="M 324.382812 137.7 
L 554.042812 137.7 
" style="fill:none;stroke:#000000;stroke-linecap:square;stroke-linejoin:miter;stroke-width:0.8;"/>
   </g>
   <g id="patch_12">
    <path d="M 324.382812 0 
L 554.042812 0 
" style="fill:none;stroke:#000000;stroke-linecap:square;stroke-linejoin:miter;stroke-width:0.8;"/>
   </g>
  </g>
  <g id="axes_3">
   <g id="patch_13">
    <path d="M 41.782813 307.24 
L 271.442812 307.24 
L 271.442812 169.54 
L 41.782813 169.54 
z
" style="fill:#ffffff;"/>
   </g>
   <g id="matplotlib.axis_5">
    <g id="xtick_13">
     <g id="line2d_48">
      <g>
       <use style="stroke:#000000;stroke-width:0.8;" x="52.221903" xlink:href="#m71ceabd5ee" y="307.24"/>
      </g>
     </g>
     <g id="text_30">
      <!-- 0 -->
      <g transform="translate(49.040653 321.838438)scale(0.1 -0.1)">
       <use xlink:href="#DejaVuSans-48"/>
      </g>
     </g>
    </g>
    <g id="xtick_14">
     <g id="line2d_49">
      <g>
       <use style="stroke:#000000;stroke-width:0.8;" x="93.978267" xlink:href="#m71ceabd5ee" y="307.24"/>
      </g>
     </g>
     <g id="text_31">
      <!-- 1 -->
      <g transform="translate(90.797017 321.838438)scale(0.1 -0.1)">
       <use xlink:href="#DejaVuSans-49"/>
      </g>
     </g>
    </g>
    <g id="xtick_15">
     <g id="line2d_50">
      <g>
       <use style="stroke:#000000;stroke-width:0.8;" x="135.734631" xlink:href="#m71ceabd5ee" y="307.24"/>
      </g>
     </g>
     <g id="text_32">
      <!-- 2 -->
      <g transform="translate(132.553381 321.838438)scale(0.1 -0.1)">
       <use xlink:href="#DejaVuSans-50"/>
      </g>
     </g>
    </g>
    <g id="xtick_16">
     <g id="line2d_51">
      <g>
       <use style="stroke:#000000;stroke-width:0.8;" x="177.490994" xlink:href="#m71ceabd5ee" y="307.24"/>
      </g>
     </g>
     <g id="text_33">
      <!-- 3 -->
      <g transform="translate(174.309744 321.838438)scale(0.1 -0.1)">
       <use xlink:href="#DejaVuSans-51"/>
      </g>
     </g>
    </g>
    <g id="xtick_17">
     <g id="line2d_52">
      <g>
       <use style="stroke:#000000;stroke-width:0.8;" x="219.247358" xlink:href="#m71ceabd5ee" y="307.24"/>
      </g>
     </g>
     <g id="text_34">
      <!-- 4 -->
      <g transform="translate(216.066108 321.838438)scale(0.1 -0.1)">
       <use xlink:href="#DejaVuSans-52"/>
      </g>
     </g>
    </g>
    <g id="xtick_18">
     <g id="line2d_53">
      <g>
       <use style="stroke:#000000;stroke-width:0.8;" x="261.003722" xlink:href="#m71ceabd5ee" y="307.24"/>
      </g>
     </g>
     <g id="text_35">
      <!-- 5 -->
      <g transform="translate(257.822472 321.838438)scale(0.1 -0.1)">
       <use xlink:href="#DejaVuSans-53"/>
      </g>
     </g>
    </g>
    <g id="text_36">
     <!-- Time (s) -->
     <g transform="translate(136.283906 335.516563)scale(0.1 -0.1)">
      <defs>
       <path d="M -0.296875 72.90625 
L 61.375 72.90625 
L 61.375 64.59375 
L 35.5 64.59375 
L 35.5 0 
L 25.59375 0 
L 25.59375 64.59375 
L -0.296875 64.59375 
z
" id="DejaVuSans-84"/>
      </defs>
      <use xlink:href="#DejaVuSans-84"/>
      <use x="57.958984" xlink:href="#DejaVuSans-105"/>
      <use x="85.742188" xlink:href="#DejaVuSans-109"/>
      <use x="183.154297" xlink:href="#DejaVuSans-101"/>
      <use x="244.677734" xlink:href="#DejaVuSans-32"/>
      <use x="276.464844" xlink:href="#DejaVuSans-40"/>
      <use x="315.478516" xlink:href="#DejaVuSans-115"/>
      <use x="367.578125" xlink:href="#DejaVuSans-41"/>
     </g>
    </g>
   </g>
   <g id="matplotlib.axis_6">
    <g id="ytick_10">
     <g id="line2d_54">
      <g>
       <use style="stroke:#000000;stroke-width:0.8;" x="41.782813" xlink:href="#m75a99ecc2d" y="307.24"/>
      </g>
     </g>
     <g id="text_37">
      <!-- 10 -->
      <g transform="translate(13.678125 311.039219)scale(0.1 -0.1)">
       <defs>
        <path d="M 10.59375 35.5 
L 73.1875 35.5 
L 73.1875 27.203125 
L 10.59375 27.203125 
z
" id="DejaVuSans-8722"/>
       </defs>
       <use xlink:href="#DejaVuSans-8722"/>
       <use x="83.789062" xlink:href="#DejaVuSans-49"/>
       <use x="147.412109" xlink:href="#DejaVuSans-48"/>
      </g>
     </g>
    </g>
    <g id="ytick_11">
     <g id="line2d_55">
      <g>
       <use style="stroke:#000000;stroke-width:0.8;" x="41.782813" xlink:href="#m75a99ecc2d" y="284.29"/>
      </g>
     </g>
     <g id="text_38">
      <!-- 5 -->
      <g transform="translate(20.040625 288.089219)scale(0.1 -0.1)">
       <use xlink:href="#DejaVuSans-8722"/>
       <use x="83.789062" xlink:href="#DejaVuSans-53"/>
      </g>
     </g>
    </g>
    <g id="ytick_12">
     <g id="line2d_56">
      <g>
       <use style="stroke:#000000;stroke-width:0.8;" x="41.782813" xlink:href="#m75a99ecc2d" y="261.34"/>
      </g>
     </g>
     <g id="text_39">
      <!-- 0 -->
      <g transform="translate(28.420313 265.139219)scale(0.1 -0.1)">
       <use xlink:href="#DejaVuSans-48"/>
      </g>
     </g>
    </g>
    <g id="ytick_13">
     <g id="line2d_57">
      <g>
       <use style="stroke:#000000;stroke-width:0.8;" x="41.782813" xlink:href="#m75a99ecc2d" y="238.39"/>
      </g>
     </g>
     <g id="text_40">
      <!-- 5 -->
      <g transform="translate(28.420313 242.189219)scale(0.1 -0.1)">
       <use xlink:href="#DejaVuSans-53"/>
      </g>
     </g>
    </g>
    <g id="ytick_14">
     <g id="line2d_58">
      <g>
       <use style="stroke:#000000;stroke-width:0.8;" x="41.782813" xlink:href="#m75a99ecc2d" y="215.44"/>
      </g>
     </g>
     <g id="text_41">
      <!-- 10 -->
      <g transform="translate(22.057813 219.239219)scale(0.1 -0.1)">
       <use xlink:href="#DejaVuSans-49"/>
       <use x="63.623047" xlink:href="#DejaVuSans-48"/>
      </g>
     </g>
    </g>
    <g id="ytick_15">
     <g id="line2d_59">
      <g>
       <use style="stroke:#000000;stroke-width:0.8;" x="41.782813" xlink:href="#m75a99ecc2d" y="192.49"/>
      </g>
     </g>
     <g id="text_42">
      <!-- 15 -->
      <g transform="translate(22.057813 196.289219)scale(0.1 -0.1)">
       <use xlink:href="#DejaVuSans-49"/>
       <use x="63.623047" xlink:href="#DejaVuSans-53"/>
      </g>
     </g>
    </g>
    <g id="ytick_16">
     <g id="line2d_60">
      <g>
       <use style="stroke:#000000;stroke-width:0.8;" x="41.782813" xlink:href="#m75a99ecc2d" y="169.54"/>
      </g>
     </g>
     <g id="text_43">
      <!-- 20 -->
      <g transform="translate(22.057813 173.339219)scale(0.1 -0.1)">
       <use xlink:href="#DejaVuSans-50"/>
       <use x="63.623047" xlink:href="#DejaVuSans-48"/>
      </g>
     </g>
    </g>
    <g id="text_44">
     <!-- Acceleration (m/s2) -->
     <g transform="translate(7.598438 287.291563)rotate(-90)scale(0.1 -0.1)">
      <defs>
       <path d="M 34.1875 63.1875 
L 20.796875 26.90625 
L 47.609375 26.90625 
z
M 28.609375 72.90625 
L 39.796875 72.90625 
L 67.578125 0 
L 57.328125 0 
L 50.6875 18.703125 
L 17.828125 18.703125 
L 11.1875 0 
L 0.78125 0 
z
" id="DejaVuSans-65"/>
       <path d="M 34.28125 27.484375 
Q 23.390625 27.484375 19.1875 25 
Q 14.984375 22.515625 14.984375 16.5 
Q 14.984375 11.71875 18.140625 8.90625 
Q 21.296875 6.109375 26.703125 6.109375 
Q 34.1875 6.109375 38.703125 11.40625 
Q 43.21875 16.703125 43.21875 25.484375 
L 43.21875 27.484375 
z
M 52.203125 31.203125 
L 52.203125 0 
L 43.21875 0 
L 43.21875 8.296875 
Q 40.140625 3.328125 35.546875 0.953125 
Q 30.953125 -1.421875 24.3125 -1.421875 
Q 15.921875 -1.421875 10.953125 3.296875 
Q 6 8.015625 6 15.921875 
Q 6 25.140625 12.171875 29.828125 
Q 18.359375 34.515625 30.609375 34.515625 
L 43.21875 34.515625 
L 43.21875 35.40625 
Q 43.21875 41.609375 39.140625 45 
Q 35.0625 48.390625 27.6875 48.390625 
Q 23 48.390625 18.546875 47.265625 
Q 14.109375 46.140625 10.015625 43.890625 
L 10.015625 52.203125 
Q 14.9375 54.109375 19.578125 55.046875 
Q 24.21875 56 28.609375 56 
Q 40.484375 56 46.34375 49.84375 
Q 52.203125 43.703125 52.203125 31.203125 
z
" id="DejaVuSans-97"/>
      </defs>
      <use xlink:href="#DejaVuSans-65"/>
      <use x="66.658203" xlink:href="#DejaVuSans-99"/>
      <use x="121.638672" xlink:href="#DejaVuSans-99"/>
      <use x="176.619141" xlink:href="#DejaVuSans-101"/>
      <use x="238.142578" xlink:href="#DejaVuSans-108"/>
      <use x="265.925781" xlink:href="#DejaVuSans-101"/>
      <use x="327.449219" xlink:href="#DejaVuSans-114"/>
      <use x="368.5625" xlink:href="#DejaVuSans-97"/>
      <use x="429.841797" xlink:href="#DejaVuSans-116"/>
      <use x="469.050781" xlink:href="#DejaVuSans-105"/>
      <use x="496.833984" xlink:href="#DejaVuSans-111"/>
      <use x="558.015625" xlink:href="#DejaVuSans-110"/>
      <use x="621.394531" xlink:href="#DejaVuSans-32"/>
      <use x="653.181641" xlink:href="#DejaVuSans-40"/>
      <use x="692.195312" xlink:href="#DejaVuSans-109"/>
      <use x="789.607422" xlink:href="#DejaVuSans-47"/>
      <use x="823.298828" xlink:href="#DejaVuSans-115"/>
      <use x="875.398438" xlink:href="#DejaVuSans-50"/>
      <use x="939.021484" xlink:href="#DejaVuSans-41"/>
     </g>
    </g>
   </g>
   <g id="line2d_61">
    <path clip-path="url(#p1798783051)" d="M 52.221903 201.027145 
L 56.39754 197.627761 
L 60.573176 194.644559 
L 64.748812 194.258152 
L 68.924449 195.170296 
L 73.100085 195.869817 
L 77.275722 197.235219 
L 81.451358 198.827169 
L 85.626994 198.254836 
L 89.802631 200.757509 
L 93.978267 202.14286 
L 98.153903 204.479883 
L 102.32954 205.2593 
L 106.505176 206.658974 
L 110.680812 208.80299 
L 114.856449 211.380568 
L 119.032085 215.971496 
L 123.207722 218.576461 
L 127.383358 222.328181 
L 131.558994 225.874077 
L 135.734631 228.186505 
L 139.910267 230.409251 
L 144.085903 233.232538 
L 148.26154 235.280634 
L 152.437176 238.076059 
L 156.612812 240.215297 
L 160.788449 241.605565 
L 164.964085 242.793893 
L 169.139722 243.998763 
L 173.315358 245.562622 
L 177.490994 247.283912 
L 181.666631 249.004943 
L 185.842267 250.450736 
L 190.017903 251.990192 
L 194.19354 253.966767 
L 198.369176 256.325172 
L 202.544812 258.32693 
L 206.720449 259.595638 
L 210.896085 259.893492 
L 215.071722 259.066878 
L 219.247358 257.354477 
L 223.422994 255.33734 
L 227.598631 253.933911 
L 231.774267 254.328856 
L 235.949903 255.634527 
L 240.12554 256.420289 
L 244.301176 255.538513 
L 248.476812 253.993582 
L 252.652449 252.173195 
L 256.828085 250.768639 
L 261.003722 248.413036 
" style="fill:none;stroke:#000000;stroke-linecap:square;stroke-width:1.5;"/>
   </g>
   <g id="line2d_62">
    <path clip-path="url(#p1798783051)" d="M 52.221903 201.027145 
L 56.39754 194.317042 
L 60.573176 195.724689 
L 64.748812 185.422508 
L 68.924449 188.231174 
L 73.100085 193.071752 
L 77.275722 182.249566 
L 81.451358 198.946977 
L 85.626994 200.193725 
L 89.802631 195.762509 
L 93.978267 204.4682 
L 98.153903 196.87918 
L 102.32954 208.287223 
L 106.505176 208.534028 
L 110.680812 205.86704 
L 114.856449 210.820247 
L 119.032085 211.211422 
L 123.207722 220.48198 
L 127.383358 220.228816 
L 131.558994 226.262409 
L 135.734631 229.747179 
L 139.910267 229.212858 
L 144.085903 235.284603 
L 148.26154 235.231079 
L 152.437176 237.265416 
L 156.612812 240.664739 
L 160.788449 242.829692 
L 164.964085 243.592075 
L 169.139722 244.678732 
L 173.315358 245.697904 
L 177.490994 246.173802 
" style="fill:none;stroke:#1f77b4;stroke-dasharray:1.5,2.475;stroke-dashoffset:0;stroke-width:1.5;"/>
   </g>
   <g id="line2d_63">
    <path clip-path="url(#p1798783051)" d="M 177.490994 246.173802 
L 181.666631 291.838996 
L 185.842267 224.364375 
L 190.017903 218.014814 
L 194.19354 270.708521 
L 198.369176 239.874168 
L 202.544812 263.682074 
L 206.720449 273.418096 
L 210.896085 243.533203 
L 215.071722 283.639815 
L 219.247358 244.332473 
L 223.422994 262.046434 
L 227.598631 266.111416 
L 231.774267 234.014058 
L 235.949903 273.144472 
L 240.12554 239.421819 
L 244.301176 260.989364 
L 248.476812 260.475193 
L 252.652449 131.065342 
L 256.828085 171.326884 
L 261.003722 183.821127 
" style="fill:none;stroke:#ff7f0e;stroke-dasharray:1.5,2.475;stroke-dashoffset:0;stroke-width:1.5;"/>
   </g>
   <g id="line2d_64">
    <path clip-path="url(#p1798783051)" d="M 52.221903 201.027145 
L 56.39754 198.216942 
L 60.573176 192.992403 
L 64.748812 190.237045 
L 68.924449 190.555371 
L 73.100085 191.447215 
L 77.275722 192.789346 
L 81.451358 195.556795 
L 85.626994 197.780081 
L 89.802631 197.300076 
L 93.978267 200.058407 
L 98.153903 202.905682 
L 102.32954 204.592552 
L 106.505176 206.587388 
L 110.680812 208.007742 
L 114.856449 210.184667 
L 119.032085 215.481379 
L 123.207722 220.596873 
L 127.383358 223.75853 
L 131.558994 228.369401 
L 135.734631 231.286294 
L 139.910267 232.965271 
L 144.085903 235.70527 
L 148.26154 238.074788 
L 152.437176 240.03576 
L 156.612812 242.680733 
L 160.788449 244.592541 
L 164.964085 245.140732 
L 169.139722 245.971752 
L 173.315358 247.147867 
L 177.490994 248.627358 
" style="fill:none;stroke:#1f77b4;stroke-dasharray:5.55,2.4;stroke-dashoffset:0;stroke-width:1.5;"/>
   </g>
   <g id="line2d_65">
    <path clip-path="url(#p1798783051)" d="M 177.490994 248.627358 
L 181.666631 255.594417 
L 185.842267 254.120431 
L 190.017903 251.20068 
L 194.19354 254.784408 
L 198.369176 255.200453 
L 202.544812 258.405815 
L 206.720449 261.842644 
L 210.896085 260.388547 
L 215.071722 262.115336 
L 219.247358 258.191936 
L 223.422994 255.800099 
L 227.598631 254.645662 
L 231.774267 251.740833 
L 235.949903 255.876754 
L 240.12554 255.790068 
L 244.301176 256.381891 
L 248.476812 255.298781 
L 252.652449 238.006508 
L 256.828085 226.331467 
L 261.003722 217.227418 
" style="fill:none;stroke:#ff7f0e;stroke-dasharray:5.55,2.4;stroke-dashoffset:0;stroke-width:1.5;"/>
   </g>
   <g id="line2d_66">
    <path clip-path="url(#p1798783051)" d="M 52.221903 201.027145 
L 56.39754 198.437771 
L 60.573176 192.90609 
L 64.748812 190.230159 
L 68.924449 190.607085 
L 73.100085 191.267695 
L 77.275722 192.902602 
L 81.451358 195.460537 
L 85.626994 197.777958 
L 89.802631 197.354211 
L 93.978267 199.935675 
L 98.153903 203.004326 
L 102.32954 204.535288 
L 106.505176 206.595919 
L 110.680812 208.047698 
L 114.856449 210.117067 
L 119.032085 215.535602 
L 123.207722 220.571322 
L 127.383358 223.764282 
L 131.558994 228.378358 
L 135.734631 231.280741 
L 139.910267 232.956858 
L 144.085903 235.715804 
L 148.26154 238.074604 
L 152.437176 240.005322 
L 156.612812 242.750683 
L 160.788449 244.508149 
L 164.964085 245.195195 
L 169.139722 245.964864 
L 173.315358 247.071195 
L 177.490994 248.782264 
" style="fill:none;stroke:#1f77b4;stroke-linecap:square;stroke-width:1.5;"/>
   </g>
   <g id="line2d_67">
    <path clip-path="url(#p1798783051)" d="M 177.490994 248.782264 
L 181.666631 249.262724 
L 185.842267 251.762187 
L 190.017903 254.158349 
L 194.19354 255.712903 
L 198.369176 258.24854 
L 202.544812 260.55785 
L 206.720449 262.109288 
L 210.896085 262.577873 
L 215.071722 261.470452 
L 219.247358 259.061861 
L 223.422994 256.016628 
L 227.598631 253.543935 
L 231.774267 252.571133 
L 235.949903 254.617748 
L 240.12554 256.043929 
L 244.301176 256.278759 
L 248.476812 254.243592 
L 252.652449 238.646588 
L 256.828085 225.316349 
L 261.003722 217.494766 
" style="fill:none;stroke:#ff7f0e;stroke-linecap:square;stroke-width:1.5;"/>
   </g>
   <g id="patch_14">
    <path d="M 41.782813 307.24 
L 41.782813 169.54 
" style="fill:none;stroke:#000000;stroke-linecap:square;stroke-linejoin:miter;stroke-width:0.8;"/>
   </g>
   <g id="patch_15">
    <path d="M 271.442812 307.24 
L 271.442812 169.54 
" style="fill:none;stroke:#000000;stroke-linecap:square;stroke-linejoin:miter;stroke-width:0.8;"/>
   </g>
   <g id="patch_16">
    <path d="M 41.782813 307.24 
L 271.442812 307.24 
" style="fill:none;stroke:#000000;stroke-linecap:square;stroke-linejoin:miter;stroke-width:0.8;"/>
   </g>
   <g id="patch_17">
    <path d="M 41.782813 169.54 
L 271.442812 169.54 
" style="fill:none;stroke:#000000;stroke-linecap:square;stroke-linejoin:miter;stroke-width:0.8;"/>
   </g>
  </g>
  <g id="axes_4">
   <g id="patch_18">
    <path d="M 324.382812 307.24 
L 554.042812 307.24 
L 554.042812 169.54 
L 324.382812 169.54 
z
" style="fill:#ffffff;"/>
   </g>
   <g id="matplotlib.axis_7">
    <g id="xtick_19">
     <g id="line2d_68">
      <g>
       <use style="stroke:#000000;stroke-width:0.8;" x="334.821903" xlink:href="#m71ceabd5ee" y="307.24"/>
      </g>
     </g>
     <g id="text_45">
      <!-- 0 -->
      <g transform="translate(331.640653 321.838438)scale(0.1 -0.1)">
       <use xlink:href="#DejaVuSans-48"/>
      </g>
     </g>
    </g>
    <g id="xtick_20">
     <g id="line2d_69">
      <g>
       <use style="stroke:#000000;stroke-width:0.8;" x="376.578267" xlink:href="#m71ceabd5ee" y="307.24"/>
      </g>
     </g>
     <g id="text_46">
      <!-- 1 -->
      <g transform="translate(373.397017 321.838438)scale(0.1 -0.1)">
       <use xlink:href="#DejaVuSans-49"/>
      </g>
     </g>
    </g>
    <g id="xtick_21">
     <g id="line2d_70">
      <g>
       <use style="stroke:#000000;stroke-width:0.8;" x="418.334631" xlink:href="#m71ceabd5ee" y="307.24"/>
      </g>
     </g>
     <g id="text_47">
      <!-- 2 -->
      <g transform="translate(415.153381 321.838438)scale(0.1 -0.1)">
       <use xlink:href="#DejaVuSans-50"/>
      </g>
     </g>
    </g>
    <g id="xtick_22">
     <g id="line2d_71">
      <g>
       <use style="stroke:#000000;stroke-width:0.8;" x="460.090994" xlink:href="#m71ceabd5ee" y="307.24"/>
      </g>
     </g>
     <g id="text_48">
      <!-- 3 -->
      <g transform="translate(456.909744 321.838438)scale(0.1 -0.1)">
       <use xlink:href="#DejaVuSans-51"/>
      </g>
     </g>
    </g>
    <g id="xtick_23">
     <g id="line2d_72">
      <g>
       <use style="stroke:#000000;stroke-width:0.8;" x="501.847358" xlink:href="#m71ceabd5ee" y="307.24"/>
      </g>
     </g>
     <g id="text_49">
      <!-- 4 -->
      <g transform="translate(498.666108 321.838438)scale(0.1 -0.1)">
       <use xlink:href="#DejaVuSans-52"/>
      </g>
     </g>
    </g>
    <g id="xtick_24">
     <g id="line2d_73">
      <g>
       <use style="stroke:#000000;stroke-width:0.8;" x="543.603722" xlink:href="#m71ceabd5ee" y="307.24"/>
      </g>
     </g>
     <g id="text_50">
      <!-- 5 -->
      <g transform="translate(540.422472 321.838438)scale(0.1 -0.1)">
       <use xlink:href="#DejaVuSans-53"/>
      </g>
     </g>
    </g>
    <g id="text_51">
     <!-- Time (s) -->
     <g transform="translate(418.883906 335.516563)scale(0.1 -0.1)">
      <use xlink:href="#DejaVuSans-84"/>
      <use x="57.958984" xlink:href="#DejaVuSans-105"/>
      <use x="85.742188" xlink:href="#DejaVuSans-109"/>
      <use x="183.154297" xlink:href="#DejaVuSans-101"/>
      <use x="244.677734" xlink:href="#DejaVuSans-32"/>
      <use x="276.464844" xlink:href="#DejaVuSans-40"/>
      <use x="315.478516" xlink:href="#DejaVuSans-115"/>
      <use x="367.578125" xlink:href="#DejaVuSans-41"/>
     </g>
    </g>
   </g>
   <g id="matplotlib.axis_8">
    <g id="ytick_17">
     <g id="line2d_74">
      <g>
       <use style="stroke:#000000;stroke-width:0.8;" x="324.382812" xlink:href="#m75a99ecc2d" y="307.24"/>
      </g>
     </g>
     <g id="text_52">
      <!-- 20 -->
      <g transform="translate(296.278125 311.039219)scale(0.1 -0.1)">
       <use xlink:href="#DejaVuSans-8722"/>
       <use x="83.789062" xlink:href="#DejaVuSans-50"/>
       <use x="147.412109" xlink:href="#DejaVuSans-48"/>
      </g>
     </g>
    </g>
    <g id="ytick_18">
     <g id="line2d_75">
      <g>
       <use style="stroke:#000000;stroke-width:0.8;" x="324.382812" xlink:href="#m75a99ecc2d" y="279.7"/>
      </g>
     </g>
     <g id="text_53">
      <!-- 10 -->
      <g transform="translate(296.278125 283.499219)scale(0.1 -0.1)">
       <use xlink:href="#DejaVuSans-8722"/>
       <use x="83.789062" xlink:href="#DejaVuSans-49"/>
       <use x="147.412109" xlink:href="#DejaVuSans-48"/>
      </g>
     </g>
    </g>
    <g id="ytick_19">
     <g id="line2d_76">
      <g>
       <use style="stroke:#000000;stroke-width:0.8;" x="324.382812" xlink:href="#m75a99ecc2d" y="252.16"/>
      </g>
     </g>
     <g id="text_54">
      <!-- 0 -->
      <g transform="translate(311.020312 255.959219)scale(0.1 -0.1)">
       <use xlink:href="#DejaVuSans-48"/>
      </g>
     </g>
    </g>
    <g id="ytick_20">
     <g id="line2d_77">
      <g>
       <use style="stroke:#000000;stroke-width:0.8;" x="324.382812" xlink:href="#m75a99ecc2d" y="224.62"/>
      </g>
     </g>
     <g id="text_55">
      <!-- 10 -->
      <g transform="translate(304.657812 228.419219)scale(0.1 -0.1)">
       <use xlink:href="#DejaVuSans-49"/>
       <use x="63.623047" xlink:href="#DejaVuSans-48"/>
      </g>
     </g>
    </g>
    <g id="ytick_21">
     <g id="line2d_78">
      <g>
       <use style="stroke:#000000;stroke-width:0.8;" x="324.382812" xlink:href="#m75a99ecc2d" y="197.08"/>
      </g>
     </g>
     <g id="text_56">
      <!-- 20 -->
      <g transform="translate(304.657812 200.879219)scale(0.1 -0.1)">
       <use xlink:href="#DejaVuSans-50"/>
       <use x="63.623047" xlink:href="#DejaVuSans-48"/>
      </g>
     </g>
    </g>
    <g id="ytick_22">
     <g id="line2d_79">
      <g>
       <use style="stroke:#000000;stroke-width:0.8;" x="324.382812" xlink:href="#m75a99ecc2d" y="169.54"/>
      </g>
     </g>
     <g id="text_57">
      <!-- 30 -->
      <g transform="translate(304.657812 173.339219)scale(0.1 -0.1)">
       <use xlink:href="#DejaVuSans-51"/>
       <use x="63.623047" xlink:href="#DejaVuSans-48"/>
      </g>
     </g>
    </g>
    <g id="text_58">
     <!-- Jerk (m/s3) -->
     <g transform="translate(290.198438 265.723594)rotate(-90)scale(0.1 -0.1)">
      <defs>
       <path d="M 9.8125 72.90625 
L 19.671875 72.90625 
L 19.671875 5.078125 
Q 19.671875 -8.109375 14.671875 -14.0625 
Q 9.671875 -20.015625 -1.421875 -20.015625 
L -5.171875 -20.015625 
L -5.171875 -11.71875 
L -2.09375 -11.71875 
Q 4.4375 -11.71875 7.125 -8.046875 
Q 9.8125 -4.390625 9.8125 5.078125 
z
" id="DejaVuSans-74"/>
       <path d="M 9.078125 75.984375 
L 18.109375 75.984375 
L 18.109375 31.109375 
L 44.921875 54.6875 
L 56.390625 54.6875 
L 27.390625 29.109375 
L 57.625 0 
L 45.90625 0 
L 18.109375 26.703125 
L 18.109375 0 
L 9.078125 0 
z
" id="DejaVuSans-107"/>
      </defs>
      <use xlink:href="#DejaVuSans-74"/>
      <use x="29.492188" xlink:href="#DejaVuSans-101"/>
      <use x="91.015625" xlink:href="#DejaVuSans-114"/>
      <use x="132.128906" xlink:href="#DejaVuSans-107"/>
      <use x="190.039062" xlink:href="#DejaVuSans-32"/>
      <use x="221.826172" xlink:href="#DejaVuSans-40"/>
      <use x="260.839844" xlink:href="#DejaVuSans-109"/>
      <use x="358.251953" xlink:href="#DejaVuSans-47"/>
      <use x="391.943359" xlink:href="#DejaVuSans-115"/>
      <use x="444.042969" xlink:href="#DejaVuSans-51"/>
      <use x="507.666016" xlink:href="#DejaVuSans-41"/>
     </g>
    </g>
   </g>
   <g id="line2d_80">
    <path clip-path="url(#p9f35563d9f)" d="M 334.821903 237.674956 
L 338.99754 233.197331 
L 343.173176 238.719375 
L 347.348813 251.499184 
L 351.524449 252.842576 
L 355.700085 263.211071 
L 359.875722 264.877402 
L 364.051358 258.624096 
L 368.226994 253.976888 
L 372.402631 259.658434 
L 376.578267 267.39314 
L 380.753903 261.263708 
L 384.92954 258.607068 
L 389.105176 260.060792 
L 393.280812 264.126191 
L 397.456449 276.583764 
L 401.632085 277.655587 
L 405.807722 271.059942 
L 409.983358 274.884397 
L 414.158994 270.573076 
L 418.334631 265.107801 
L 422.510267 267.706764 
L 426.685903 266.277373 
L 430.86154 266.038708 
L 435.037176 267.805339 
L 439.212812 263.193136 
L 443.388449 259.66332 
L 447.564085 259.060961 
L 451.739722 260.239264 
L 455.915358 262.091735 
L 460.090994 262.686974 
L 464.266631 261.764579 
L 468.442267 260.833316 
L 472.617903 262.353324 
L 476.79354 265.377252 
L 480.969176 265.951697 
L 485.144812 262.715049 
L 489.320449 257.560768 
L 493.496085 251.044902 
L 497.671722 244.636753 
L 501.847358 240.418813 
L 506.022994 240.526478 
L 510.198631 248.398478 
L 514.374267 258.683504 
L 518.549903 259.578021 
L 522.72554 251.309208 
L 526.901176 245.328748 
L 531.076812 241.18302 
L 535.252449 246.493234 
L 539.428085 241.676606 
L 543.603722 214.3437 
" style="fill:none;stroke:#000000;stroke-linecap:square;stroke-width:1.5;"/>
   </g>
   <g id="line2d_81">
    <path clip-path="url(#p9f35563d9f)" d="M 334.821903 237.674956 
L 338.99754 260.605881 
L 343.173176 190.346912 
L 347.348813 269.011998 
L 351.524449 281.203467 
L 355.700085 187.226884 
L 359.528045 338.59625 
M 360.494978 338.59625 
L 364.051358 259.640488 
L 368.226994 225.572707 
L 372.402631 304.394144 
L 376.578267 206.625878 
L 380.753903 320.608263 
L 384.92954 253.640828 
L 389.105176 236.158069 
L 393.280812 281.879245 
L 397.456449 254.507047 
L 401.632085 307.783354 
L 405.807722 250.641011 
L 409.983358 288.361562 
L 414.158994 273.06862 
L 418.334631 248.954075 
L 422.510267 288.590468 
L 426.685903 251.838855 
L 430.86154 264.36602 
L 435.037176 272.555943 
L 439.212812 265.149717 
L 443.388449 256.734296 
L 447.564085 258.679941 
L 451.739722 258.275032 
L 455.915358 255.01539 
L 457.202548 338.59625 
" style="fill:none;stroke:#1f77b4;stroke-dasharray:1.5,2.475;stroke-dashoffset:0;stroke-width:1.5;"/>
   </g>
   <g id="line2d_82">
    <path clip-path="url(#p9f35563d9f)" d="M 461.244672 338.59625 
L 463.333577 -1 
M 465.993671 -1 
L 468.442267 214.062636 
L 469.910137 338.59625 
M 474.531935 338.59625 
L 476.79354 67.153885 
L 480.250707 338.59625 
M 483.759049 338.59625 
L 485.144812 310.57613 
L 489.320449 72.850641 
L 491.96281 338.59625 
M 494.847438 338.59625 
L 497.671722 16.315946 
L 501.605121 338.59625 
M 502.859351 338.59625 
L 506.022994 276.549888 
L 510.198631 59.575852 
L 512.924833 338.59625 
M 515.791366 338.59625 
L 518.549903 49.824089 
L 522.184687 338.59625 
M 524.079775 338.59625 
L 526.901176 249.074975 
L 528.251392 -1 
M 533.223223 -1 
L 534.616141 338.59625 
M 539.14059 338.59625 
L 539.428085 327.125459 
L 539.539753 338.59625 
" style="fill:none;stroke:#ff7f0e;stroke-dasharray:1.5,2.475;stroke-dashoffset:0;stroke-width:1.5;"/>
   </g>
   <g id="line2d_83">
    <path clip-path="url(#p9f35563d9f)" d="M 334.821903 237.674956 
L 338.99754 235.298789 
L 343.173176 220.812767 
L 347.348813 235.62784 
L 351.524449 254.069964 
L 355.700085 257.511057 
L 359.875722 260.212781 
L 364.051358 268.764706 
L 368.226994 265.49972 
L 372.402631 249.279964 
L 376.578267 268.709979 
L 380.753903 269.243645 
L 384.92954 262.281228 
L 389.105176 264.129011 
L 393.280812 260.68213 
L 397.456449 265.221556 
L 401.632085 283.940267 
L 405.807722 282.852961 
L 409.983358 271.129957 
L 414.158994 279.82522 
L 418.334631 269.661351 
L 422.510267 262.233863 
L 426.685903 268.599998 
L 430.86154 266.377111 
L 435.037176 263.925823 
L 439.212812 268.029833 
L 443.388449 263.630859 
L 447.564085 255.449143 
L 451.739722 257.146118 
L 455.915358 259.216694 
L 460.090994 261.036945 
" style="fill:none;stroke:#1f77b4;stroke-dasharray:5.55,2.4;stroke-dashoffset:0;stroke-width:1.5;"/>
   </g>
   <g id="line2d_84">
    <path clip-path="url(#p9f35563d9f)" d="M 460.090994 261.036945 
L 464.266631 293.962351 
L 468.442267 243.316085 
L 472.617903 234.641497 
L 476.79354 273.662366 
L 480.969176 254.656275 
L 485.144812 271.39217 
L 489.320449 272.780975 
L 493.496085 243.435418 
L 497.671722 262.520731 
L 501.847358 228.619598 
L 506.022994 237.808977 
L 510.198631 245.23338 
L 514.374267 234.731028 
L 518.549903 276.975524 
L 522.72554 251.639885 
L 526.901176 255.710938 
L 531.076812 245.661339 
L 535.252449 148.406361 
L 539.428085 182.109753 
L 543.603722 197.53571 
" style="fill:none;stroke:#ff7f0e;stroke-dasharray:5.55,2.4;stroke-dashoffset:0;stroke-width:1.5;"/>
   </g>
   <g id="line2d_85">
    <path clip-path="url(#p9f35563d9f)" d="M 334.821903 237.674956 
L 338.99754 236.623762 
L 343.173176 218.969924 
L 347.348813 236.10441 
L 351.524449 254.421561 
L 355.700085 256.12365 
L 359.875722 261.969432 
L 364.051358 267.507626 
L 368.226994 266.064519 
L 372.402631 249.617527 
L 376.578267 267.648782 
L 380.753903 270.571909 
L 384.92954 261.345752 
L 389.105176 264.523788 
L 393.280812 260.870672 
L 397.456449 264.576235 
L 401.632085 284.671199 
L 405.807722 282.37432 
L 409.983358 271.317753 
L 414.158994 279.844453 
L 418.334631 269.5743 
L 422.510267 262.216702 
L 426.685903 268.713685 
L 430.86154 266.312797 
L 435.037176 263.744303 
L 439.212812 268.632166 
L 443.388449 262.704798 
L 447.564085 256.282279 
L 451.739722 256.778011 
L 455.915358 258.797982 
L 460.090994 262.426418 
" style="fill:none;stroke:#1f77b4;stroke-linecap:square;stroke-width:1.5;"/>
   </g>
   <g id="line2d_86">
    <path clip-path="url(#p9f35563d9f)" d="M 460.090994 262.426418 
L 464.266631 255.042759 
L 468.442267 267.156779 
L 472.617903 266.536968 
L 476.79354 261.487327 
L 480.969176 267.373824 
L 485.144812 266.01586 
L 489.320449 261.468627 
L 493.496085 254.971509 
L 497.671722 245.515472 
L 501.847358 237.708452 
L 506.022994 233.888601 
L 510.198631 237.323846 
L 514.374267 246.323184 
L 518.549903 264.439692 
L 522.72554 260.71709 
L 526.901176 253.568978 
L 531.076812 239.948998 
L 535.252449 158.577968 
L 539.428085 172.178569 
L 543.603722 205.230509 
" style="fill:none;stroke:#ff7f0e;stroke-linecap:square;stroke-width:1.5;"/>
   </g>
   <g id="patch_19">
    <path d="M 324.382812 307.24 
L 324.382812 169.54 
" style="fill:none;stroke:#000000;stroke-linecap:square;stroke-linejoin:miter;stroke-width:0.8;"/>
   </g>
   <g id="patch_20">
    <path d="M 554.042812 307.24 
L 554.042812 169.54 
" style="fill:none;stroke:#000000;stroke-linecap:square;stroke-linejoin:miter;stroke-width:0.8;"/>
   </g>
   <g id="patch_21">
    <path d="M 324.382812 307.24 
L 554.042812 307.24 
" style="fill:none;stroke:#000000;stroke-linecap:square;stroke-linejoin:miter;stroke-width:0.8;"/>
   </g>
   <g id="patch_22">
    <path d="M 324.382812 169.54 
L 554.042812 169.54 
" style="fill:none;stroke:#000000;stroke-linecap:square;stroke-linejoin:miter;stroke-width:0.8;"/>
   </g>
  </g>
 </g>
 <defs>
  <clipPath id="p6583874111">
   <rect height="137.7" width="229.66" x="41.782813" y="0"/>
  </clipPath>
  <clipPath id="pc9fea459d0">
   <rect height="137.7" width="229.66" x="324.382812" y="0"/>
  </clipPath>
  <clipPath id="p1798783051">
   <rect height="137.7" width="229.66" x="41.782813" y="169.54"/>
  </clipPath>
  <clipPath id="p9f35563d9f">
   <rect height="137.7" width="229.66" x="324.382812" y="169.54"/>
  </clipPath>
 </defs>
</svg>
