<?xml version="1.0" encoding="utf-8" standalone="no"?>
<!DOCTYPE svg PUBLIC "-//W3C//DTD SVG 1.1//EN"
  "http://www.w3.org/Graphics/SVG/1.1/DTD/svg11.dtd">
<!-- Created with matplotlib (https://matplotlib.org/) -->
<svg height="208.8pt" version="1.1" viewBox="0 0 540 208.8" width="540pt" xmlns="http://www.w3.org/2000/svg" xmlns:xlink="http://www.w3.org/1999/xlink">
 <metadata>
  <rdf:RDF xmlns:cc="http://creativecommons.org/ns#" xmlns:dc="http://purl.org/dc/elements/1.1/" xmlns:rdf="http://www.w3.org/1999/02/22-rdf-syntax-ns#">
   <cc:Work>
    <dc:type rdf:resource="http://purl.org/dc/dcmitype/StillImage"/>
    <dc:date>2022-11-03T01:58:36.355956</dc:date>
    <dc:format>image/svg+xml</dc:format>
    <dc:creator>
     <cc:Agent>
      <dc:title>Matplotlib v3.3.0, https://matplotlib.org/</dc:title>
     </cc:Agent>
    </dc:creator>
   </cc:Work>
  </rdf:RDF>
 </metadata>
 <defs>
  <style type="text/css">*{stroke-linecap:butt;stroke-linejoin:round;}</style>
 </defs>
 <g id="figure_1">
  <g id="patch_1">
   <path d="M 0 208.8 
L 540 208.8 
L 540 0 
L 0 0 
z
" style="fill:#ffffff;"/>
  </g>
  <g id="axes_1">
   <g id="patch_2">
    <path d="M 44.203125 167.64375 
L 152.260156 167.64375 
L 152.260156 41.910475 
L 44.203125 41.910475 
z
" style="fill:#ffffff;"/>
   </g>
   <g id="patch_3">
    <path clip-path="url(#pae59b4c195)" d="M 49.114808 167.64375 
L 56.763998 167.64375 
L 56.763998 54.483802 
L 49.114808 54.483802 
z
" style="fill:#1f77b4;opacity:0.6;"/>
   </g>
   <g id="patch_4">
    <path clip-path="url(#pae59b4c195)" d="M 59.17975 167.64375 
L 66.82894 167.64375 
L 66.82894 108.369492 
L 59.17975 108.369492 
z
" style="fill:#1f77b4;opacity:0.6;"/>
   </g>
   <g id="patch_5">
    <path clip-path="url(#pae59b4c195)" d="M 69.244692 167.64375 
L 76.893882 167.64375 
L 76.893882 120.942819 
L 69.244692 120.942819 
z
" style="fill:#1f77b4;opacity:0.6;"/>
   </g>
   <g id="patch_6">
    <path clip-path="url(#pae59b4c195)" d="M 79.309633 167.64375 
L 86.958823 167.64375 
L 86.958823 92.203785 
L 79.309633 92.203785 
z
" style="fill:#1f77b4;opacity:0.6;"/>
   </g>
   <g id="patch_7">
    <path clip-path="url(#pae59b4c195)" d="M 89.374575 167.64375 
L 97.023765 167.64375 
L 97.023765 122.739009 
L 89.374575 122.739009 
z
" style="fill:#1f77b4;opacity:0.6;"/>
   </g>
   <g id="patch_8">
    <path clip-path="url(#pae59b4c195)" d="M 99.439516 167.64375 
L 107.088706 167.64375 
L 107.088706 137.108526 
L 99.439516 137.108526 
z
" style="fill:#1f77b4;opacity:0.6;"/>
   </g>
   <g id="patch_9">
    <path clip-path="url(#pae59b4c195)" d="M 109.504458 167.64375 
L 117.153648 167.64375 
L 117.153648 147.885664 
L 109.504458 147.885664 
z
" style="fill:#1f77b4;opacity:0.6;"/>
   </g>
   <g id="patch_10">
    <path clip-path="url(#pae59b4c195)" d="M 119.5694 167.64375 
L 127.21859 167.64375 
L 127.21859 128.127578 
L 119.5694 128.127578 
z
" style="fill:#1f77b4;opacity:0.6;"/>
   </g>
   <g id="patch_11">
    <path clip-path="url(#pae59b4c195)" d="M 129.634341 167.64375 
L 137.283531 167.64375 
L 137.283531 122.739009 
L 129.634341 122.739009 
z
" style="fill:#1f77b4;opacity:0.6;"/>
   </g>
   <g id="patch_12">
    <path clip-path="url(#pae59b4c195)" d="M 139.699283 167.64375 
L 147.348473 167.64375 
L 147.348473 153.274233 
L 139.699283 153.274233 
z
" style="fill:#1f77b4;opacity:0.6;"/>
   </g>
   <g id="patch_13">
    <path clip-path="url(#pae59b4c195)" d="M 49.114808 54.483802 
L 56.763998 54.483802 
L 56.763998 54.483802 
L 49.114808 54.483802 
z
" style="fill:url(#h47cd84e4ff);stroke:#ff0000;stroke-linejoin:miter;"/>
   </g>
   <g id="patch_14">
    <path clip-path="url(#pae59b4c195)" d="M 59.17975 108.369492 
L 66.82894 108.369492 
L 66.82894 106.573302 
L 59.17975 106.573302 
z
" style="fill:url(#h47cd84e4ff);stroke:#ff0000;stroke-linejoin:miter;"/>
   </g>
   <g id="patch_15">
    <path clip-path="url(#pae59b4c195)" d="M 69.244692 120.942819 
L 76.893882 120.942819 
L 76.893882 120.942819 
L 69.244692 120.942819 
z
" style="fill:url(#h47cd84e4ff);stroke:#ff0000;stroke-linejoin:miter;"/>
   </g>
   <g id="patch_16">
    <path clip-path="url(#pae59b4c195)" d="M 79.309633 92.203785 
L 86.958823 92.203785 
L 86.958823 85.019026 
L 79.309633 85.019026 
z
" style="fill:url(#h47cd84e4ff);stroke:#ff0000;stroke-linejoin:miter;"/>
   </g>
   <g id="patch_17">
    <path clip-path="url(#pae59b4c195)" d="M 89.374575 122.739009 
L 97.023765 122.739009 
L 97.023765 117.35044 
L 89.374575 117.35044 
z
" style="fill:url(#h47cd84e4ff);stroke:#ff0000;stroke-linejoin:miter;"/>
   </g>
   <g id="patch_18">
    <path clip-path="url(#pae59b4c195)" d="M 99.439516 137.108526 
L 107.088706 137.108526 
L 107.088706 129.923767 
L 99.439516 129.923767 
z
" style="fill:url(#h47cd84e4ff);stroke:#ff0000;stroke-linejoin:miter;"/>
   </g>
   <g id="patch_19">
    <path clip-path="url(#pae59b4c195)" d="M 109.504458 147.885664 
L 117.153648 147.885664 
L 117.153648 144.293285 
L 109.504458 144.293285 
z
" style="fill:url(#h47cd84e4ff);stroke:#ff0000;stroke-linejoin:miter;"/>
   </g>
   <g id="patch_20">
    <path clip-path="url(#pae59b4c195)" d="M 119.5694 128.127578 
L 127.21859 128.127578 
L 127.21859 124.535199 
L 119.5694 124.535199 
z
" style="fill:url(#h47cd84e4ff);stroke:#ff0000;stroke-linejoin:miter;"/>
   </g>
   <g id="patch_21">
    <path clip-path="url(#pae59b4c195)" d="M 129.634341 122.739009 
L 137.283531 122.739009 
L 137.283531 110.165681 
L 129.634341 110.165681 
z
" style="fill:url(#h47cd84e4ff);stroke:#ff0000;stroke-linejoin:miter;"/>
   </g>
   <g id="patch_22">
    <path clip-path="url(#pae59b4c195)" d="M 139.699283 153.274233 
L 147.348473 153.274233 
L 147.348473 149.681854 
L 139.699283 149.681854 
z
" style="fill:url(#h47cd84e4ff);stroke:#ff0000;stroke-linejoin:miter;"/>
   </g>
   <g id="matplotlib.axis_1">
    <g id="xtick_1">
     <g id="line2d_1">
      <defs>
       <path d="M 0 0 
L 0 3.5 
" id="m8fa9e2aa52" style="stroke:#000000;stroke-width:0.8;"/>
      </defs>
      <g>
       <use style="stroke:#000000;stroke-width:0.8;" x="47.843573" xlink:href="#m8fa9e2aa52" y="167.64375"/>
      </g>
     </g>
     <g id="text_1">
      <!-- 0 -->
      <g transform="translate(44.662323 182.242188)scale(0.1 -0.1)">
       <defs>
        <path d="M 31.78125 66.40625 
Q 24.171875 66.40625 20.328125 58.90625 
Q 16.5 51.421875 16.5 36.375 
Q 16.5 21.390625 20.328125 13.890625 
Q 24.171875 6.390625 31.78125 6.390625 
Q 39.453125 6.390625 43.28125 13.890625 
Q 47.125 21.390625 47.125 36.375 
Q 47.125 51.421875 43.28125 58.90625 
Q 39.453125 66.40625 31.78125 66.40625 
z
M 31.78125 74.21875 
Q 44.046875 74.21875 50.515625 64.515625 
Q 56.984375 54.828125 56.984375 36.375 
Q 56.984375 17.96875 50.515625 8.265625 
Q 44.046875 -1.421875 31.78125 -1.421875 
Q 19.53125 -1.421875 13.0625 8.265625 
Q 6.59375 17.96875 6.59375 36.375 
Q 6.59375 54.828125 13.0625 64.515625 
Q 19.53125 74.21875 31.78125 74.21875 
z
" id="DejaVuSans-48"/>
       </defs>
       <use xlink:href="#DejaVuSans-48"/>
      </g>
     </g>
    </g>
    <g id="xtick_2">
     <g id="line2d_2">
      <g>
       <use style="stroke:#000000;stroke-width:0.8;" x="77.263534" xlink:href="#m8fa9e2aa52" y="167.64375"/>
      </g>
     </g>
     <g id="text_2">
      <!-- 5 -->
      <g transform="translate(74.082284 182.242188)scale(0.1 -0.1)">
       <defs>
        <path d="M 10.796875 72.90625 
L 49.515625 72.90625 
L 49.515625 64.59375 
L 19.828125 64.59375 
L 19.828125 46.734375 
Q 21.96875 47.46875 24.109375 47.828125 
Q 26.265625 48.1875 28.421875 48.1875 
Q 40.625 48.1875 47.75 41.5 
Q 54.890625 34.8125 54.890625 23.390625 
Q 54.890625 11.625 47.5625 5.09375 
Q 40.234375 -1.421875 26.90625 -1.421875 
Q 22.3125 -1.421875 17.546875 -0.640625 
Q 12.796875 0.140625 7.71875 1.703125 
L 7.71875 11.625 
Q 12.109375 9.234375 16.796875 8.0625 
Q 21.484375 6.890625 26.703125 6.890625 
Q 35.15625 6.890625 40.078125 11.328125 
Q 45.015625 15.765625 45.015625 23.390625 
Q 45.015625 31 40.078125 35.4375 
Q 35.15625 39.890625 26.703125 39.890625 
Q 22.75 39.890625 18.8125 39.015625 
Q 14.890625 38.140625 10.796875 36.28125 
z
" id="DejaVuSans-53"/>
       </defs>
       <use xlink:href="#DejaVuSans-53"/>
      </g>
     </g>
    </g>
    <g id="xtick_3">
     <g id="line2d_3">
      <g>
       <use style="stroke:#000000;stroke-width:0.8;" x="106.683496" xlink:href="#m8fa9e2aa52" y="167.64375"/>
      </g>
     </g>
     <g id="text_3">
      <!-- 10 -->
      <g transform="translate(100.320996 182.242188)scale(0.1 -0.1)">
       <defs>
        <path d="M 12.40625 8.296875 
L 28.515625 8.296875 
L 28.515625 63.921875 
L 10.984375 60.40625 
L 10.984375 69.390625 
L 28.421875 72.90625 
L 38.28125 72.90625 
L 38.28125 8.296875 
L 54.390625 8.296875 
L 54.390625 0 
L 12.40625 0 
z
" id="DejaVuSans-49"/>
       </defs>
       <use xlink:href="#DejaVuSans-49"/>
       <use x="63.623047" xlink:href="#DejaVuSans-48"/>
      </g>
     </g>
    </g>
    <g id="xtick_4">
     <g id="line2d_4">
      <g>
       <use style="stroke:#000000;stroke-width:0.8;" x="136.103458" xlink:href="#m8fa9e2aa52" y="167.64375"/>
      </g>
     </g>
     <g id="text_4">
      <!-- 15 -->
      <g transform="translate(129.740958 182.242188)scale(0.1 -0.1)">
       <use xlink:href="#DejaVuSans-49"/>
       <use x="63.623047" xlink:href="#DejaVuSans-53"/>
      </g>
     </g>
    </g>
    <g id="text_5">
     <!-- Initial Deviation [m] -->
     <g transform="translate(48.530078 195.920312)scale(0.1 -0.1)">
      <defs>
       <path d="M 9.8125 72.90625 
L 19.671875 72.90625 
L 19.671875 0 
L 9.8125 0 
z
" id="DejaVuSans-73"/>
       <path d="M 54.890625 33.015625 
L 54.890625 0 
L 45.90625 0 
L 45.90625 32.71875 
Q 45.90625 40.484375 42.875 44.328125 
Q 39.84375 48.1875 33.796875 48.1875 
Q 26.515625 48.1875 22.3125 43.546875 
Q 18.109375 38.921875 18.109375 30.90625 
L 18.109375 0 
L 9.078125 0 
L 9.078125 54.6875 
L 18.109375 54.6875 
L 18.109375 46.1875 
Q 21.34375 51.125 25.703125 53.5625 
Q 30.078125 56 35.796875 56 
Q 45.21875 56 50.046875 50.171875 
Q 54.890625 44.34375 54.890625 33.015625 
z
" id="DejaVuSans-110"/>
       <path d="M 9.421875 54.6875 
L 18.40625 54.6875 
L 18.40625 0 
L 9.421875 0 
z
M 9.421875 75.984375 
L 18.40625 75.984375 
L 18.40625 64.59375 
L 9.421875 64.59375 
z
" id="DejaVuSans-105"/>
       <path d="M 18.3125 70.21875 
L 18.3125 54.6875 
L 36.8125 54.6875 
L 36.8125 47.703125 
L 18.3125 47.703125 
L 18.3125 18.015625 
Q 18.3125 11.328125 20.140625 9.421875 
Q 21.96875 7.515625 27.59375 7.515625 
L 36.8125 7.515625 
L 36.8125 0 
L 27.59375 0 
Q 17.1875 0 13.234375 3.875 
Q 9.28125 7.765625 9.28125 18.015625 
L 9.28125 47.703125 
L 2.6875 47.703125 
L 2.6875 54.6875 
L 9.28125 54.6875 
L 9.28125 70.21875 
z
" id="DejaVuSans-116"/>
       <path d="M 34.28125 27.484375 
Q 23.390625 27.484375 19.1875 25 
Q 14.984375 22.515625 14.984375 16.5 
Q 14.984375 11.71875 18.140625 8.90625 
Q 21.296875 6.109375 26.703125 6.109375 
Q 34.1875 6.109375 38.703125 11.40625 
Q 43.21875 16.703125 43.21875 25.484375 
L 43.21875 27.484375 
z
M 52.203125 31.203125 
L 52.203125 0 
L 43.21875 0 
L 43.21875 8.296875 
Q 40.140625 3.328125 35.546875 0.953125 
Q 30.953125 -1.421875 24.3125 -1.421875 
Q 15.921875 -1.421875 10.953125 3.296875 
Q 6 8.015625 6 15.921875 
Q 6 25.140625 12.171875 29.828125 
Q 18.359375 34.515625 30.609375 34.515625 
L 43.21875 34.515625 
L 43.21875 35.40625 
Q 43.21875 41.609375 39.140625 45 
Q 35.0625 48.390625 27.6875 48.390625 
Q 23 48.390625 18.546875 47.265625 
Q 14.109375 46.140625 10.015625 43.890625 
L 10.015625 52.203125 
Q 14.9375 54.109375 19.578125 55.046875 
Q 24.21875 56 28.609375 56 
Q 40.484375 56 46.34375 49.84375 
Q 52.203125 43.703125 52.203125 31.203125 
z
" id="DejaVuSans-97"/>
       <path d="M 9.421875 75.984375 
L 18.40625 75.984375 
L 18.40625 0 
L 9.421875 0 
z
" id="DejaVuSans-108"/>
       <path id="DejaVuSans-32"/>
       <path d="M 19.671875 64.796875 
L 19.671875 8.109375 
L 31.59375 8.109375 
Q 46.6875 8.109375 53.6875 14.9375 
Q 60.6875 21.78125 60.6875 36.53125 
Q 60.6875 51.171875 53.6875 57.984375 
Q 46.6875 64.796875 31.59375 64.796875 
z
M 9.8125 72.90625 
L 30.078125 72.90625 
Q 51.265625 72.90625 61.171875 64.09375 
Q 71.09375 55.28125 71.09375 36.53125 
Q 71.09375 17.671875 61.125 8.828125 
Q 51.171875 0 30.078125 0 
L 9.8125 0 
z
" id="DejaVuSans-68"/>
       <path d="M 56.203125 29.59375 
L 56.203125 25.203125 
L 14.890625 25.203125 
Q 15.484375 15.921875 20.484375 11.0625 
Q 25.484375 6.203125 34.421875 6.203125 
Q 39.59375 6.203125 44.453125 7.46875 
Q 49.3125 8.734375 54.109375 11.28125 
L 54.109375 2.78125 
Q 49.265625 0.734375 44.1875 -0.34375 
Q 39.109375 -1.421875 33.890625 -1.421875 
Q 20.796875 -1.421875 13.15625 6.1875 
Q 5.515625 13.8125 5.515625 26.8125 
Q 5.515625 40.234375 12.765625 48.109375 
Q 20.015625 56 32.328125 56 
Q 43.359375 56 49.78125 48.890625 
Q 56.203125 41.796875 56.203125 29.59375 
z
M 47.21875 32.234375 
Q 47.125 39.59375 43.09375 43.984375 
Q 39.0625 48.390625 32.421875 48.390625 
Q 24.90625 48.390625 20.390625 44.140625 
Q 15.875 39.890625 15.1875 32.171875 
z
" id="DejaVuSans-101"/>
       <path d="M 2.984375 54.6875 
L 12.5 54.6875 
L 29.59375 8.796875 
L 46.6875 54.6875 
L 56.203125 54.6875 
L 35.6875 0 
L 23.484375 0 
z
" id="DejaVuSans-118"/>
       <path d="M 30.609375 48.390625 
Q 23.390625 48.390625 19.1875 42.75 
Q 14.984375 37.109375 14.984375 27.296875 
Q 14.984375 17.484375 19.15625 11.84375 
Q 23.34375 6.203125 30.609375 6.203125 
Q 37.796875 6.203125 41.984375 11.859375 
Q 46.1875 17.53125 46.1875 27.296875 
Q 46.1875 37.015625 41.984375 42.703125 
Q 37.796875 48.390625 30.609375 48.390625 
z
M 30.609375 56 
Q 42.328125 56 49.015625 48.375 
Q 55.71875 40.765625 55.71875 27.296875 
Q 55.71875 13.875 49.015625 6.21875 
Q 42.328125 -1.421875 30.609375 -1.421875 
Q 18.84375 -1.421875 12.171875 6.21875 
Q 5.515625 13.875 5.515625 27.296875 
Q 5.515625 40.765625 12.171875 48.375 
Q 18.84375 56 30.609375 56 
z
" id="DejaVuSans-111"/>
       <path d="M 8.59375 75.984375 
L 29.296875 75.984375 
L 29.296875 69 
L 17.578125 69 
L 17.578125 -6.203125 
L 29.296875 -6.203125 
L 29.296875 -13.1875 
L 8.59375 -13.1875 
z
" id="DejaVuSans-91"/>
       <path d="M 52 44.1875 
Q 55.375 50.25 60.0625 53.125 
Q 64.75 56 71.09375 56 
Q 79.640625 56 84.28125 50.015625 
Q 88.921875 44.046875 88.921875 33.015625 
L 88.921875 0 
L 79.890625 0 
L 79.890625 32.71875 
Q 79.890625 40.578125 77.09375 44.375 
Q 74.3125 48.1875 68.609375 48.1875 
Q 61.625 48.1875 57.5625 43.546875 
Q 53.515625 38.921875 53.515625 30.90625 
L 53.515625 0 
L 44.484375 0 
L 44.484375 32.71875 
Q 44.484375 40.625 41.703125 44.40625 
Q 38.921875 48.1875 33.109375 48.1875 
Q 26.21875 48.1875 22.15625 43.53125 
Q 18.109375 38.875 18.109375 30.90625 
L 18.109375 0 
L 9.078125 0 
L 9.078125 54.6875 
L 18.109375 54.6875 
L 18.109375 46.1875 
Q 21.1875 51.21875 25.484375 53.609375 
Q 29.78125 56 35.6875 56 
Q 41.65625 56 45.828125 52.96875 
Q 50 49.953125 52 44.1875 
z
" id="DejaVuSans-109"/>
       <path d="M 30.421875 75.984375 
L 30.421875 -13.1875 
L 9.71875 -13.1875 
L 9.71875 -6.203125 
L 21.390625 -6.203125 
L 21.390625 69 
L 9.71875 69 
L 9.71875 75.984375 
z
" id="DejaVuSans-93"/>
      </defs>
      <use xlink:href="#DejaVuSans-73"/>
      <use x="29.492188" xlink:href="#DejaVuSans-110"/>
      <use x="92.871094" xlink:href="#DejaVuSans-105"/>
      <use x="120.654297" xlink:href="#DejaVuSans-116"/>
      <use x="159.863281" xlink:href="#DejaVuSans-105"/>
      <use x="187.646484" xlink:href="#DejaVuSans-97"/>
      <use x="248.925781" xlink:href="#DejaVuSans-108"/>
      <use x="276.708984" xlink:href="#DejaVuSans-32"/>
      <use x="308.496094" xlink:href="#DejaVuSans-68"/>
      <use x="385.498047" xlink:href="#DejaVuSans-101"/>
      <use x="447.021484" xlink:href="#DejaVuSans-118"/>
      <use x="506.201172" xlink:href="#DejaVuSans-105"/>
      <use x="533.984375" xlink:href="#DejaVuSans-97"/>
      <use x="595.263672" xlink:href="#DejaVuSans-116"/>
      <use x="634.472656" xlink:href="#DejaVuSans-105"/>
      <use x="662.255859" xlink:href="#DejaVuSans-111"/>
      <use x="723.4375" xlink:href="#DejaVuSans-110"/>
      <use x="786.816406" xlink:href="#DejaVuSans-32"/>
      <use x="818.603516" xlink:href="#DejaVuSans-91"/>
      <use x="857.617188" xlink:href="#DejaVuSans-109"/>
      <use x="955.029297" xlink:href="#DejaVuSans-93"/>
     </g>
    </g>
   </g>
   <g id="matplotlib.axis_2">
    <g id="ytick_1">
     <g id="line2d_5">
      <defs>
       <path d="M 0 0 
L -3.5 0 
" id="m5ff1320e71" style="stroke:#000000;stroke-width:0.8;"/>
      </defs>
      <g>
       <use style="stroke:#000000;stroke-width:0.8;" x="44.203125" xlink:href="#m5ff1320e71" y="167.64375"/>
      </g>
     </g>
     <g id="text_6">
      <!-- 0 -->
      <g transform="translate(30.840625 171.442969)scale(0.1 -0.1)">
       <use xlink:href="#DejaVuSans-48"/>
      </g>
     </g>
    </g>
    <g id="ytick_2">
     <g id="line2d_6">
      <g>
       <use style="stroke:#000000;stroke-width:0.8;" x="44.203125" xlink:href="#m5ff1320e71" y="131.719957"/>
      </g>
     </g>
     <g id="text_7">
      <!-- 20 -->
      <g transform="translate(24.478125 135.519176)scale(0.1 -0.1)">
       <defs>
        <path d="M 19.1875 8.296875 
L 53.609375 8.296875 
L 53.609375 0 
L 7.328125 0 
L 7.328125 8.296875 
Q 12.9375 14.109375 22.625 23.890625 
Q 32.328125 33.6875 34.8125 36.53125 
Q 39.546875 41.84375 41.421875 45.53125 
Q 43.3125 49.21875 43.3125 52.78125 
Q 43.3125 58.59375 39.234375 62.25 
Q 35.15625 65.921875 28.609375 65.921875 
Q 23.96875 65.921875 18.8125 64.3125 
Q 13.671875 62.703125 7.8125 59.421875 
L 7.8125 69.390625 
Q 13.765625 71.78125 18.9375 73 
Q 24.125 74.21875 28.421875 74.21875 
Q 39.75 74.21875 46.484375 68.546875 
Q 53.21875 62.890625 53.21875 53.421875 
Q 53.21875 48.921875 51.53125 44.890625 
Q 49.859375 40.875 45.40625 35.40625 
Q 44.1875 33.984375 37.640625 27.21875 
Q 31.109375 20.453125 19.1875 8.296875 
z
" id="DejaVuSans-50"/>
       </defs>
       <use xlink:href="#DejaVuSans-50"/>
       <use x="63.623047" xlink:href="#DejaVuSans-48"/>
      </g>
     </g>
    </g>
    <g id="ytick_3">
     <g id="line2d_7">
      <g>
       <use style="stroke:#000000;stroke-width:0.8;" x="44.203125" xlink:href="#m5ff1320e71" y="95.796164"/>
      </g>
     </g>
     <g id="text_8">
      <!-- 40 -->
      <g transform="translate(24.478125 99.595383)scale(0.1 -0.1)">
       <defs>
        <path d="M 37.796875 64.3125 
L 12.890625 25.390625 
L 37.796875 25.390625 
z
M 35.203125 72.90625 
L 47.609375 72.90625 
L 47.609375 25.390625 
L 58.015625 25.390625 
L 58.015625 17.1875 
L 47.609375 17.1875 
L 47.609375 0 
L 37.796875 0 
L 37.796875 17.1875 
L 4.890625 17.1875 
L 4.890625 26.703125 
z
" id="DejaVuSans-52"/>
       </defs>
       <use xlink:href="#DejaVuSans-52"/>
       <use x="63.623047" xlink:href="#DejaVuSans-48"/>
      </g>
     </g>
    </g>
    <g id="ytick_4">
     <g id="line2d_8">
      <g>
       <use style="stroke:#000000;stroke-width:0.8;" x="44.203125" xlink:href="#m5ff1320e71" y="59.872371"/>
      </g>
     </g>
     <g id="text_9">
      <!-- 60 -->
      <g transform="translate(24.478125 63.67159)scale(0.1 -0.1)">
       <defs>
        <path d="M 33.015625 40.375 
Q 26.375 40.375 22.484375 35.828125 
Q 18.609375 31.296875 18.609375 23.390625 
Q 18.609375 15.53125 22.484375 10.953125 
Q 26.375 6.390625 33.015625 6.390625 
Q 39.65625 6.390625 43.53125 10.953125 
Q 47.40625 15.53125 47.40625 23.390625 
Q 47.40625 31.296875 43.53125 35.828125 
Q 39.65625 40.375 33.015625 40.375 
z
M 52.59375 71.296875 
L 52.59375 62.3125 
Q 48.875 64.0625 45.09375 64.984375 
Q 41.3125 65.921875 37.59375 65.921875 
Q 27.828125 65.921875 22.671875 59.328125 
Q 17.53125 52.734375 16.796875 39.40625 
Q 19.671875 43.65625 24.015625 45.921875 
Q 28.375 48.1875 33.59375 48.1875 
Q 44.578125 48.1875 50.953125 41.515625 
Q 57.328125 34.859375 57.328125 23.390625 
Q 57.328125 12.15625 50.6875 5.359375 
Q 44.046875 -1.421875 33.015625 -1.421875 
Q 20.359375 -1.421875 13.671875 8.265625 
Q 6.984375 17.96875 6.984375 36.375 
Q 6.984375 53.65625 15.1875 63.9375 
Q 23.390625 74.21875 37.203125 74.21875 
Q 40.921875 74.21875 44.703125 73.484375 
Q 48.484375 72.75 52.59375 71.296875 
z
" id="DejaVuSans-54"/>
       </defs>
       <use xlink:href="#DejaVuSans-54"/>
       <use x="63.623047" xlink:href="#DejaVuSans-48"/>
      </g>
     </g>
    </g>
    <g id="text_10">
     <!-- Number of Trials -->
     <g transform="translate(18.398437 145.679456)rotate(-90)scale(0.1 -0.1)">
      <defs>
       <path d="M 9.8125 72.90625 
L 23.09375 72.90625 
L 55.421875 11.921875 
L 55.421875 72.90625 
L 64.984375 72.90625 
L 64.984375 0 
L 51.703125 0 
L 19.390625 60.984375 
L 19.390625 0 
L 9.8125 0 
z
" id="DejaVuSans-78"/>
       <path d="M 8.5 21.578125 
L 8.5 54.6875 
L 17.484375 54.6875 
L 17.484375 21.921875 
Q 17.484375 14.15625 20.5 10.265625 
Q 23.53125 6.390625 29.59375 6.390625 
Q 36.859375 6.390625 41.078125 11.03125 
Q 45.3125 15.671875 45.3125 23.6875 
L 45.3125 54.6875 
L 54.296875 54.6875 
L 54.296875 0 
L 45.3125 0 
L 45.3125 8.40625 
Q 42.046875 3.421875 37.71875 1 
Q 33.40625 -1.421875 27.6875 -1.421875 
Q 18.265625 -1.421875 13.375 4.4375 
Q 8.5 10.296875 8.5 21.578125 
z
M 31.109375 56 
z
" id="DejaVuSans-117"/>
       <path d="M 48.6875 27.296875 
Q 48.6875 37.203125 44.609375 42.84375 
Q 40.53125 48.484375 33.40625 48.484375 
Q 26.265625 48.484375 22.1875 42.84375 
Q 18.109375 37.203125 18.109375 27.296875 
Q 18.109375 17.390625 22.1875 11.75 
Q 26.265625 6.109375 33.40625 6.109375 
Q 40.53125 6.109375 44.609375 11.75 
Q 48.6875 17.390625 48.6875 27.296875 
z
M 18.109375 46.390625 
Q 20.953125 51.265625 25.265625 53.625 
Q 29.59375 56 35.59375 56 
Q 45.5625 56 51.78125 48.09375 
Q 58.015625 40.1875 58.015625 27.296875 
Q 58.015625 14.40625 51.78125 6.484375 
Q 45.5625 -1.421875 35.59375 -1.421875 
Q 29.59375 -1.421875 25.265625 0.953125 
Q 20.953125 3.328125 18.109375 8.203125 
L 18.109375 0 
L 9.078125 0 
L 9.078125 75.984375 
L 18.109375 75.984375 
z
" id="DejaVuSans-98"/>
       <path d="M 41.109375 46.296875 
Q 39.59375 47.171875 37.8125 47.578125 
Q 36.03125 48 33.890625 48 
Q 26.265625 48 22.1875 43.046875 
Q 18.109375 38.09375 18.109375 28.8125 
L 18.109375 0 
L 9.078125 0 
L 9.078125 54.6875 
L 18.109375 54.6875 
L 18.109375 46.1875 
Q 20.953125 51.171875 25.484375 53.578125 
Q 30.03125 56 36.53125 56 
Q 37.453125 56 38.578125 55.875 
Q 39.703125 55.765625 41.0625 55.515625 
z
" id="DejaVuSans-114"/>
       <path d="M 37.109375 75.984375 
L 37.109375 68.5 
L 28.515625 68.5 
Q 23.6875 68.5 21.796875 66.546875 
Q 19.921875 64.59375 19.921875 59.515625 
L 19.921875 54.6875 
L 34.71875 54.6875 
L 34.71875 47.703125 
L 19.921875 47.703125 
L 19.921875 0 
L 10.890625 0 
L 10.890625 47.703125 
L 2.296875 47.703125 
L 2.296875 54.6875 
L 10.890625 54.6875 
L 10.890625 58.5 
Q 10.890625 67.625 15.140625 71.796875 
Q 19.390625 75.984375 28.609375 75.984375 
z
" id="DejaVuSans-102"/>
       <path d="M -0.296875 72.90625 
L 61.375 72.90625 
L 61.375 64.59375 
L 35.5 64.59375 
L 35.5 0 
L 25.59375 0 
L 25.59375 64.59375 
L -0.296875 64.59375 
z
" id="DejaVuSans-84"/>
       <path d="M 44.28125 53.078125 
L 44.28125 44.578125 
Q 40.484375 46.53125 36.375 47.5 
Q 32.28125 48.484375 27.875 48.484375 
Q 21.1875 48.484375 17.84375 46.4375 
Q 14.5 44.390625 14.5 40.28125 
Q 14.5 37.15625 16.890625 35.375 
Q 19.28125 33.59375 26.515625 31.984375 
L 29.59375 31.296875 
Q 39.15625 29.25 43.1875 25.515625 
Q 47.21875 21.78125 47.21875 15.09375 
Q 47.21875 7.46875 41.1875 3.015625 
Q 35.15625 -1.421875 24.609375 -1.421875 
Q 20.21875 -1.421875 15.453125 -0.5625 
Q 10.6875 0.296875 5.421875 2 
L 5.421875 11.28125 
Q 10.40625 8.6875 15.234375 7.390625 
Q 20.0625 6.109375 24.8125 6.109375 
Q 31.15625 6.109375 34.5625 8.28125 
Q 37.984375 10.453125 37.984375 14.40625 
Q 37.984375 18.0625 35.515625 20.015625 
Q 33.0625 21.96875 24.703125 23.78125 
L 21.578125 24.515625 
Q 13.234375 26.265625 9.515625 29.90625 
Q 5.8125 33.546875 5.8125 39.890625 
Q 5.8125 47.609375 11.28125 51.796875 
Q 16.75 56 26.8125 56 
Q 31.78125 56 36.171875 55.265625 
Q 40.578125 54.546875 44.28125 53.078125 
z
" id="DejaVuSans-115"/>
      </defs>
      <use xlink:href="#DejaVuSans-78"/>
      <use x="74.804688" xlink:href="#DejaVuSans-117"/>
      <use x="138.183594" xlink:href="#DejaVuSans-109"/>
      <use x="235.595703" xlink:href="#DejaVuSans-98"/>
      <use x="299.072266" xlink:href="#DejaVuSans-101"/>
      <use x="360.595703" xlink:href="#DejaVuSans-114"/>
      <use x="401.708984" xlink:href="#DejaVuSans-32"/>
      <use x="433.496094" xlink:href="#DejaVuSans-111"/>
      <use x="494.677734" xlink:href="#DejaVuSans-102"/>
      <use x="529.882812" xlink:href="#DejaVuSans-32"/>
      <use x="561.669922" xlink:href="#DejaVuSans-84"/>
      <use x="608.003906" xlink:href="#DejaVuSans-114"/>
      <use x="649.117188" xlink:href="#DejaVuSans-105"/>
      <use x="676.900391" xlink:href="#DejaVuSans-97"/>
      <use x="738.179688" xlink:href="#DejaVuSans-108"/>
      <use x="765.962891" xlink:href="#DejaVuSans-115"/>
     </g>
    </g>
   </g>
   <g id="patch_23">
    <path d="M 44.203125 167.64375 
L 44.203125 41.910475 
" style="fill:none;stroke:#000000;stroke-linecap:square;stroke-linejoin:miter;stroke-width:0.8;"/>
   </g>
   <g id="patch_24">
    <path d="M 152.260156 167.64375 
L 152.260156 41.910475 
" style="fill:none;stroke:#000000;stroke-linecap:square;stroke-linejoin:miter;stroke-width:0.8;"/>
   </g>
   <g id="patch_25">
    <path d="M 44.203125 167.64375 
L 152.260156 167.64375 
" style="fill:none;stroke:#000000;stroke-linecap:square;stroke-linejoin:miter;stroke-width:0.8;"/>
   </g>
   <g id="patch_26">
    <path d="M 44.203125 41.910475 
L 152.260156 41.910475 
" style="fill:none;stroke:#000000;stroke-linecap:square;stroke-linejoin:miter;stroke-width:0.8;"/>
   </g>
   <g id="text_11">
    <!-- 0 -->
    <g style="fill:#ff0000;" transform="translate(49.758153 52.404115)scale(0.1 -0.1)">
     <use xlink:href="#DejaVuSans-48"/>
    </g>
   </g>
   <g id="text_12">
    <!-- 1 -->
    <g style="fill:#ff0000;" transform="translate(59.823095 104.493615)scale(0.1 -0.1)">
     <use xlink:href="#DejaVuSans-49"/>
    </g>
   </g>
   <g id="text_13">
    <!-- 0 -->
    <g style="fill:#ff0000;" transform="translate(69.888037 118.863132)scale(0.1 -0.1)">
     <use xlink:href="#DejaVuSans-48"/>
    </g>
   </g>
   <g id="text_14">
    <!-- 4 -->
    <g style="fill:#ff0000;" transform="translate(79.952978 82.939339)scale(0.1 -0.1)">
     <use xlink:href="#DejaVuSans-52"/>
    </g>
   </g>
   <g id="text_15">
    <!-- 3 -->
    <g style="fill:#ff0000;" transform="translate(90.01792 115.270752)scale(0.1 -0.1)">
     <defs>
      <path d="M 40.578125 39.3125 
Q 47.65625 37.796875 51.625 33 
Q 55.609375 28.21875 55.609375 21.1875 
Q 55.609375 10.40625 48.1875 4.484375 
Q 40.765625 -1.421875 27.09375 -1.421875 
Q 22.515625 -1.421875 17.65625 -0.515625 
Q 12.796875 0.390625 7.625 2.203125 
L 7.625 11.71875 
Q 11.71875 9.328125 16.59375 8.109375 
Q 21.484375 6.890625 26.8125 6.890625 
Q 36.078125 6.890625 40.9375 10.546875 
Q 45.796875 14.203125 45.796875 21.1875 
Q 45.796875 27.640625 41.28125 31.265625 
Q 36.765625 34.90625 28.71875 34.90625 
L 20.21875 34.90625 
L 20.21875 43.015625 
L 29.109375 43.015625 
Q 36.375 43.015625 40.234375 45.921875 
Q 44.09375 48.828125 44.09375 54.296875 
Q 44.09375 59.90625 40.109375 62.90625 
Q 36.140625 65.921875 28.71875 65.921875 
Q 24.65625 65.921875 20.015625 65.03125 
Q 15.375 64.15625 9.8125 62.3125 
L 9.8125 71.09375 
Q 15.4375 72.65625 20.34375 73.4375 
Q 25.25 74.21875 29.59375 74.21875 
Q 40.828125 74.21875 47.359375 69.109375 
Q 53.90625 64.015625 53.90625 55.328125 
Q 53.90625 49.265625 50.4375 45.09375 
Q 46.96875 40.921875 40.578125 39.3125 
z
" id="DejaVuSans-51"/>
     </defs>
     <use xlink:href="#DejaVuSans-51"/>
    </g>
   </g>
   <g id="text_16">
    <!-- 4 -->
    <g style="fill:#ff0000;" transform="translate(100.082861 127.84408)scale(0.1 -0.1)">
     <use xlink:href="#DejaVuSans-52"/>
    </g>
   </g>
   <g id="text_17">
    <!-- 2 -->
    <g style="fill:#ff0000;" transform="translate(110.147803 142.213597)scale(0.1 -0.1)">
     <use xlink:href="#DejaVuSans-50"/>
    </g>
   </g>
   <g id="text_18">
    <!-- 2 -->
    <g style="fill:#ff0000;" transform="translate(120.212745 122.455511)scale(0.1 -0.1)">
     <use xlink:href="#DejaVuSans-50"/>
    </g>
   </g>
   <g id="text_19">
    <!-- 7 -->
    <g style="fill:#ff0000;" transform="translate(130.277686 108.085994)scale(0.1 -0.1)">
     <defs>
      <path d="M 8.203125 72.90625 
L 55.078125 72.90625 
L 55.078125 68.703125 
L 28.609375 0 
L 18.3125 0 
L 43.21875 64.59375 
L 8.203125 64.59375 
z
" id="DejaVuSans-55"/>
     </defs>
     <use xlink:href="#DejaVuSans-55"/>
    </g>
   </g>
   <g id="text_20">
    <!-- 2 -->
    <g style="fill:#ff0000;" transform="translate(140.342628 147.602166)scale(0.1 -0.1)">
     <use xlink:href="#DejaVuSans-50"/>
    </g>
   </g>
   <g id="text_21">
    <!-- Total fails:  -->
    <g style="fill:#ff0000;" transform="translate(94.379255 57.655507)scale(0.1 -0.1)">
     <defs>
      <path d="M 11.71875 12.40625 
L 22.015625 12.40625 
L 22.015625 0 
L 11.71875 0 
z
M 11.71875 51.703125 
L 22.015625 51.703125 
L 22.015625 39.3125 
L 11.71875 39.3125 
z
" id="DejaVuSans-58"/>
     </defs>
     <use xlink:href="#DejaVuSans-84"/>
     <use x="44.083984" xlink:href="#DejaVuSans-111"/>
     <use x="105.265625" xlink:href="#DejaVuSans-116"/>
     <use x="144.474609" xlink:href="#DejaVuSans-97"/>
     <use x="205.753906" xlink:href="#DejaVuSans-108"/>
     <use x="233.537109" xlink:href="#DejaVuSans-32"/>
     <use x="265.324219" xlink:href="#DejaVuSans-102"/>
     <use x="300.529297" xlink:href="#DejaVuSans-97"/>
     <use x="361.808594" xlink:href="#DejaVuSans-105"/>
     <use x="389.591797" xlink:href="#DejaVuSans-108"/>
     <use x="417.375" xlink:href="#DejaVuSans-115"/>
     <use x="469.474609" xlink:href="#DejaVuSans-58"/>
     <use x="503.166016" xlink:href="#DejaVuSans-32"/>
    </g>
    <!-- $\bf{25}$ of 297   -->
    <g style="fill:#ff0000;" transform="translate(92.671442 68.85332)scale(0.1 -0.1)">
     <defs>
      <path d="M 28.8125 13.8125 
L 60.890625 13.8125 
L 60.890625 0 
L 7.90625 0 
L 7.90625 13.8125 
L 34.515625 37.3125 
Q 38.09375 40.53125 39.796875 43.609375 
Q 41.5 46.6875 41.5 50 
Q 41.5 55.125 38.0625 58.25 
Q 34.625 61.375 28.90625 61.375 
Q 24.515625 61.375 19.28125 59.5 
Q 14.0625 57.625 8.109375 53.90625 
L 8.109375 69.921875 
Q 14.453125 72.015625 20.65625 73.109375 
Q 26.859375 74.21875 32.8125 74.21875 
Q 45.90625 74.21875 53.15625 68.453125 
Q 60.40625 62.703125 60.40625 52.390625 
Q 60.40625 46.4375 57.328125 41.28125 
Q 54.25 36.140625 44.390625 27.484375 
z
" id="DejaVuSans-Bold-50"/>
      <path d="M 10.59375 72.90625 
L 57.328125 72.90625 
L 57.328125 59.078125 
L 25.59375 59.078125 
L 25.59375 47.796875 
Q 27.734375 48.390625 29.90625 48.703125 
Q 32.078125 49.03125 34.421875 49.03125 
Q 47.75 49.03125 55.171875 42.359375 
Q 62.59375 35.6875 62.59375 23.78125 
Q 62.59375 11.96875 54.515625 5.265625 
Q 46.4375 -1.421875 32.078125 -1.421875 
Q 25.875 -1.421875 19.796875 -0.21875 
Q 13.71875 0.984375 7.71875 3.421875 
L 7.71875 18.21875 
Q 13.671875 14.796875 19.015625 13.078125 
Q 24.359375 11.375 29.109375 11.375 
Q 35.9375 11.375 39.859375 14.71875 
Q 43.796875 18.0625 43.796875 23.78125 
Q 43.796875 29.546875 39.859375 32.859375 
Q 35.9375 36.1875 29.109375 36.1875 
Q 25.046875 36.1875 20.453125 35.125 
Q 15.875 34.078125 10.59375 31.890625 
z
" id="DejaVuSans-Bold-53"/>
      <path d="M 10.984375 1.515625 
L 10.984375 10.5 
Q 14.703125 8.734375 18.5 7.8125 
Q 22.3125 6.890625 25.984375 6.890625 
Q 35.75 6.890625 40.890625 13.453125 
Q 46.046875 20.015625 46.78125 33.40625 
Q 43.953125 29.203125 39.59375 26.953125 
Q 35.25 24.703125 29.984375 24.703125 
Q 19.046875 24.703125 12.671875 31.3125 
Q 6.296875 37.9375 6.296875 49.421875 
Q 6.296875 60.640625 12.9375 67.421875 
Q 19.578125 74.21875 30.609375 74.21875 
Q 43.265625 74.21875 49.921875 64.515625 
Q 56.59375 54.828125 56.59375 36.375 
Q 56.59375 19.140625 48.40625 8.859375 
Q 40.234375 -1.421875 26.421875 -1.421875 
Q 22.703125 -1.421875 18.890625 -0.6875 
Q 15.09375 0.046875 10.984375 1.515625 
z
M 30.609375 32.421875 
Q 37.25 32.421875 41.125 36.953125 
Q 45.015625 41.5 45.015625 49.421875 
Q 45.015625 57.28125 41.125 61.84375 
Q 37.25 66.40625 30.609375 66.40625 
Q 23.96875 66.40625 20.09375 61.84375 
Q 16.21875 57.28125 16.21875 49.421875 
Q 16.21875 41.5 20.09375 36.953125 
Q 23.96875 32.421875 30.609375 32.421875 
z
" id="DejaVuSans-57"/>
     </defs>
     <use transform="translate(0 0.015625)" xlink:href="#DejaVuSans-Bold-50"/>
     <use transform="translate(69.580078 0.015625)" xlink:href="#DejaVuSans-Bold-53"/>
     <use transform="translate(139.160156 0.015625)" xlink:href="#DejaVuSans-32"/>
     <use transform="translate(170.947266 0.015625)" xlink:href="#DejaVuSans-111"/>
     <use transform="translate(232.128906 0.015625)" xlink:href="#DejaVuSans-102"/>
     <use transform="translate(267.333984 0.015625)" xlink:href="#DejaVuSans-32"/>
     <use transform="translate(299.121094 0.015625)" xlink:href="#DejaVuSans-50"/>
     <use transform="translate(360.994141 0.015625)" xlink:href="#DejaVuSans-57"/>
     <use transform="translate(424.617188 0.015625)" xlink:href="#DejaVuSans-55"/>
     <use transform="translate(488.240234 0.015625)" xlink:href="#DejaVuSans-32"/>
     <use transform="translate(520.027344 0.015625)" xlink:href="#DejaVuSans-32"/>
    </g>
   </g>
   <g id="legend_1">
    <g id="patch_27">
     <path d="M 43.342578 36.190074 
L 153.120703 36.190074 
Q 155.120703 36.190074 155.120703 34.190074 
L 155.120703 9.333824 
Q 155.120703 7.333824 153.120703 7.333824 
L 43.342578 7.333824 
Q 41.342578 7.333824 41.342578 9.333824 
L 41.342578 34.190074 
Q 41.342578 36.190074 43.342578 36.190074 
z
" style="fill:#ffffff;opacity:0.8;stroke:#cccccc;stroke-linejoin:miter;"/>
    </g>
    <g id="text_22">
     <!-- Fixed Ref -->
     <g transform="translate(75.600391 18.932262)scale(0.1 -0.1)">
      <defs>
       <path d="M 9.8125 72.90625 
L 51.703125 72.90625 
L 51.703125 64.59375 
L 19.671875 64.59375 
L 19.671875 43.109375 
L 48.578125 43.109375 
L 48.578125 34.8125 
L 19.671875 34.8125 
L 19.671875 0 
L 9.8125 0 
z
" id="DejaVuSans-70"/>
       <path d="M 54.890625 54.6875 
L 35.109375 28.078125 
L 55.90625 0 
L 45.3125 0 
L 29.390625 21.484375 
L 13.484375 0 
L 2.875 0 
L 24.125 28.609375 
L 4.6875 54.6875 
L 15.28125 54.6875 
L 29.78125 35.203125 
L 44.28125 54.6875 
z
" id="DejaVuSans-120"/>
       <path d="M 45.40625 46.390625 
L 45.40625 75.984375 
L 54.390625 75.984375 
L 54.390625 0 
L 45.40625 0 
L 45.40625 8.203125 
Q 42.578125 3.328125 38.25 0.953125 
Q 33.9375 -1.421875 27.875 -1.421875 
Q 17.96875 -1.421875 11.734375 6.484375 
Q 5.515625 14.40625 5.515625 27.296875 
Q 5.515625 40.1875 11.734375 48.09375 
Q 17.96875 56 27.875 56 
Q 33.9375 56 38.25 53.625 
Q 42.578125 51.265625 45.40625 46.390625 
z
M 14.796875 27.296875 
Q 14.796875 17.390625 18.875 11.75 
Q 22.953125 6.109375 30.078125 6.109375 
Q 37.203125 6.109375 41.296875 11.75 
Q 45.40625 17.390625 45.40625 27.296875 
Q 45.40625 37.203125 41.296875 42.84375 
Q 37.203125 48.484375 30.078125 48.484375 
Q 22.953125 48.484375 18.875 42.84375 
Q 14.796875 37.203125 14.796875 27.296875 
z
" id="DejaVuSans-100"/>
       <path d="M 44.390625 34.1875 
Q 47.5625 33.109375 50.5625 29.59375 
Q 53.5625 26.078125 56.59375 19.921875 
L 66.609375 0 
L 56 0 
L 46.6875 18.703125 
Q 43.0625 26.03125 39.671875 28.421875 
Q 36.28125 30.8125 30.421875 30.8125 
L 19.671875 30.8125 
L 19.671875 0 
L 9.8125 0 
L 9.8125 72.90625 
L 32.078125 72.90625 
Q 44.578125 72.90625 50.734375 67.671875 
Q 56.890625 62.453125 56.890625 51.90625 
Q 56.890625 45.015625 53.6875 40.46875 
Q 50.484375 35.9375 44.390625 34.1875 
z
M 19.671875 64.796875 
L 19.671875 38.921875 
L 32.078125 38.921875 
Q 39.203125 38.921875 42.84375 42.21875 
Q 46.484375 45.515625 46.484375 51.90625 
Q 46.484375 58.296875 42.84375 61.546875 
Q 39.203125 64.796875 32.078125 64.796875 
z
" id="DejaVuSans-82"/>
      </defs>
      <use xlink:href="#DejaVuSans-70"/>
      <use x="50.269531" xlink:href="#DejaVuSans-105"/>
      <use x="78.052734" xlink:href="#DejaVuSans-120"/>
      <use x="134.107422" xlink:href="#DejaVuSans-101"/>
      <use x="195.630859" xlink:href="#DejaVuSans-100"/>
      <use x="259.107422" xlink:href="#DejaVuSans-32"/>
      <use x="290.894531" xlink:href="#DejaVuSans-82"/>
      <use x="355.876953" xlink:href="#DejaVuSans-101"/>
      <use x="417.400391" xlink:href="#DejaVuSans-102"/>
     </g>
    </g>
    <g id="patch_28">
     <path d="M 45.342578 30.110387 
L 65.342578 30.110387 
L 65.342578 23.110387 
L 45.342578 23.110387 
z
" style="fill:#1f77b4;opacity:0.6;"/>
    </g>
    <g id="text_23">
     <!-- Success -->
     <g transform="translate(67.342578 30.110387)scale(0.1 -0.1)">
      <defs>
       <path d="M 53.515625 70.515625 
L 53.515625 60.890625 
Q 47.90625 63.578125 42.921875 64.890625 
Q 37.9375 66.21875 33.296875 66.21875 
Q 25.25 66.21875 20.875 63.09375 
Q 16.5 59.96875 16.5 54.203125 
Q 16.5 49.359375 19.40625 46.890625 
Q 22.3125 44.4375 30.421875 42.921875 
L 36.375 41.703125 
Q 47.40625 39.59375 52.65625 34.296875 
Q 57.90625 29 57.90625 20.125 
Q 57.90625 9.515625 50.796875 4.046875 
Q 43.703125 -1.421875 29.984375 -1.421875 
Q 24.8125 -1.421875 18.96875 -0.25 
Q 13.140625 0.921875 6.890625 3.21875 
L 6.890625 13.375 
Q 12.890625 10.015625 18.65625 8.296875 
Q 24.421875 6.59375 29.984375 6.59375 
Q 38.421875 6.59375 43.015625 9.90625 
Q 47.609375 13.234375 47.609375 19.390625 
Q 47.609375 24.75 44.3125 27.78125 
Q 41.015625 30.8125 33.5 32.328125 
L 27.484375 33.5 
Q 16.453125 35.6875 11.515625 40.375 
Q 6.59375 45.0625 6.59375 53.421875 
Q 6.59375 63.09375 13.40625 68.65625 
Q 20.21875 74.21875 32.171875 74.21875 
Q 37.3125 74.21875 42.625 73.28125 
Q 47.953125 72.359375 53.515625 70.515625 
z
" id="DejaVuSans-83"/>
       <path d="M 48.78125 52.59375 
L 48.78125 44.1875 
Q 44.96875 46.296875 41.140625 47.34375 
Q 37.3125 48.390625 33.40625 48.390625 
Q 24.65625 48.390625 19.8125 42.84375 
Q 14.984375 37.3125 14.984375 27.296875 
Q 14.984375 17.28125 19.8125 11.734375 
Q 24.65625 6.203125 33.40625 6.203125 
Q 37.3125 6.203125 41.140625 7.25 
Q 44.96875 8.296875 48.78125 10.40625 
L 48.78125 2.09375 
Q 45.015625 0.34375 40.984375 -0.53125 
Q 36.96875 -1.421875 32.421875 -1.421875 
Q 20.0625 -1.421875 12.78125 6.34375 
Q 5.515625 14.109375 5.515625 27.296875 
Q 5.515625 40.671875 12.859375 48.328125 
Q 20.21875 56 33.015625 56 
Q 37.15625 56 41.109375 55.140625 
Q 45.0625 54.296875 48.78125 52.59375 
z
" id="DejaVuSans-99"/>
      </defs>
      <use xlink:href="#DejaVuSans-83"/>
      <use x="63.476562" xlink:href="#DejaVuSans-117"/>
      <use x="126.855469" xlink:href="#DejaVuSans-99"/>
      <use x="181.835938" xlink:href="#DejaVuSans-99"/>
      <use x="236.816406" xlink:href="#DejaVuSans-101"/>
      <use x="298.339844" xlink:href="#DejaVuSans-115"/>
      <use x="350.439453" xlink:href="#DejaVuSans-115"/>
     </g>
    </g>
    <g id="patch_29">
     <path d="M 112.597266 30.110387 
L 132.597266 30.110387 
L 132.597266 23.110387 
L 112.597266 23.110387 
z
" style="fill:url(#h47cd84e4ff);stroke:#ff0000;stroke-linejoin:miter;"/>
    </g>
    <g id="text_24">
     <!-- Fail -->
     <g transform="translate(134.597266 30.110387)scale(0.1 -0.1)">
      <use xlink:href="#DejaVuSans-70"/>
      <use x="48.394531" xlink:href="#DejaVuSans-97"/>
      <use x="109.673828" xlink:href="#DejaVuSans-105"/>
      <use x="137.457031" xlink:href="#DejaVuSans-108"/>
     </g>
    </g>
   </g>
  </g>
  <g id="axes_2">
   <g id="patch_30">
    <path d="M 169.027344 167.64375 
L 277.084375 167.64375 
L 277.084375 41.910475 
L 169.027344 41.910475 
z
" style="fill:#ffffff;"/>
   </g>
   <g id="patch_31">
    <path clip-path="url(#pf281faaf37)" d="M 173.939027 167.64375 
L 181.588217 167.64375 
L 181.588217 59.872371 
L 173.939027 59.872371 
z
" style="fill:#ff7f0e;opacity:0.6;"/>
   </g>
   <g id="patch_32">
    <path clip-path="url(#pf281faaf37)" d="M 184.003969 167.64375 
L 191.653159 167.64375 
L 191.653159 104.777112 
L 184.003969 104.777112 
z
" style="fill:#ff7f0e;opacity:0.6;"/>
   </g>
   <g id="patch_33">
    <path clip-path="url(#pf281faaf37)" d="M 194.06891 167.64375 
L 201.7181 167.64375 
L 201.7181 122.739009 
L 194.06891 122.739009 
z
" style="fill:#ff7f0e;opacity:0.6;"/>
   </g>
   <g id="patch_34">
    <path clip-path="url(#pf281faaf37)" d="M 204.133852 167.64375 
L 211.783042 167.64375 
L 211.783042 85.019026 
L 204.133852 85.019026 
z
" style="fill:#ff7f0e;opacity:0.6;"/>
   </g>
   <g id="patch_35">
    <path clip-path="url(#pf281faaf37)" d="M 214.198794 167.64375 
L 221.847984 167.64375 
L 221.847984 119.14663 
L 214.198794 119.14663 
z
" style="fill:#ff7f0e;opacity:0.6;"/>
   </g>
   <g id="patch_36">
    <path clip-path="url(#pf281faaf37)" d="M 224.263735 167.64375 
L 231.912925 167.64375 
L 231.912925 131.719957 
L 224.263735 131.719957 
z
" style="fill:#ff7f0e;opacity:0.6;"/>
   </g>
   <g id="patch_37">
    <path clip-path="url(#pf281faaf37)" d="M 234.328677 167.64375 
L 241.977867 167.64375 
L 241.977867 146.089474 
L 234.328677 146.089474 
z
" style="fill:#ff7f0e;opacity:0.6;"/>
   </g>
   <g id="patch_38">
    <path clip-path="url(#pf281faaf37)" d="M 244.393618 167.64375 
L 252.042808 167.64375 
L 252.042808 133.516147 
L 244.393618 133.516147 
z
" style="fill:#ff7f0e;opacity:0.6;"/>
   </g>
   <g id="patch_39">
    <path clip-path="url(#pf281faaf37)" d="M 254.45856 167.64375 
L 262.10775 167.64375 
L 262.10775 120.942819 
L 254.45856 120.942819 
z
" style="fill:#ff7f0e;opacity:0.6;"/>
   </g>
   <g id="patch_40">
    <path clip-path="url(#pf281faaf37)" d="M 264.523502 167.64375 
L 272.172692 167.64375 
L 272.172692 149.681854 
L 264.523502 149.681854 
z
" style="fill:#ff7f0e;opacity:0.6;"/>
   </g>
   <g id="patch_41">
    <path clip-path="url(#pf281faaf37)" d="M 173.939027 59.872371 
L 181.588217 59.872371 
L 181.588217 56.279992 
L 173.939027 56.279992 
z
" style="fill:url(#h02a229de67);stroke:#ff0000;stroke-linejoin:miter;"/>
   </g>
   <g id="patch_42">
    <path clip-path="url(#pf281faaf37)" d="M 184.003969 104.777112 
L 191.653159 104.777112 
L 191.653159 104.777112 
L 184.003969 104.777112 
z
" style="fill:url(#h02a229de67);stroke:#ff0000;stroke-linejoin:miter;"/>
   </g>
   <g id="patch_43">
    <path clip-path="url(#pf281faaf37)" d="M 194.06891 122.739009 
L 201.7181 122.739009 
L 201.7181 120.942819 
L 194.06891 120.942819 
z
" style="fill:url(#h02a229de67);stroke:#ff0000;stroke-linejoin:miter;"/>
   </g>
   <g id="patch_44">
    <path clip-path="url(#pf281faaf37)" d="M 204.133852 85.019026 
L 211.783042 85.019026 
L 211.783042 85.019026 
L 204.133852 85.019026 
z
" style="fill:url(#h02a229de67);stroke:#ff0000;stroke-linejoin:miter;"/>
   </g>
   <g id="patch_45">
    <path clip-path="url(#pf281faaf37)" d="M 214.198794 119.14663 
L 221.847984 119.14663 
L 221.847984 117.35044 
L 214.198794 117.35044 
z
" style="fill:url(#h02a229de67);stroke:#ff0000;stroke-linejoin:miter;"/>
   </g>
   <g id="patch_46">
    <path clip-path="url(#pf281faaf37)" d="M 224.263735 131.719957 
L 231.912925 131.719957 
L 231.912925 129.923767 
L 224.263735 129.923767 
z
" style="fill:url(#h02a229de67);stroke:#ff0000;stroke-linejoin:miter;"/>
   </g>
   <g id="patch_47">
    <path clip-path="url(#pf281faaf37)" d="M 234.328677 146.089474 
L 241.977867 146.089474 
L 241.977867 144.293285 
L 234.328677 144.293285 
z
" style="fill:url(#h02a229de67);stroke:#ff0000;stroke-linejoin:miter;"/>
   </g>
   <g id="patch_48">
    <path clip-path="url(#pf281faaf37)" d="M 244.393618 133.516147 
L 252.042808 133.516147 
L 252.042808 128.127578 
L 244.393618 128.127578 
z
" style="fill:url(#h02a229de67);stroke:#ff0000;stroke-linejoin:miter;"/>
   </g>
   <g id="patch_49">
    <path clip-path="url(#pf281faaf37)" d="M 254.45856 120.942819 
L 262.10775 120.942819 
L 262.10775 108.369492 
L 254.45856 108.369492 
z
" style="fill:url(#h02a229de67);stroke:#ff0000;stroke-linejoin:miter;"/>
   </g>
   <g id="patch_50">
    <path clip-path="url(#pf281faaf37)" d="M 264.523502 149.681854 
L 272.172692 149.681854 
L 272.172692 147.885664 
L 264.523502 147.885664 
z
" style="fill:url(#h02a229de67);stroke:#ff0000;stroke-linejoin:miter;"/>
   </g>
   <g id="matplotlib.axis_3">
    <g id="xtick_5">
     <g id="line2d_9">
      <g>
       <use style="stroke:#000000;stroke-width:0.8;" x="172.667791" xlink:href="#m8fa9e2aa52" y="167.64375"/>
      </g>
     </g>
     <g id="text_25">
      <!-- 0 -->
      <g transform="translate(169.486541 182.242188)scale(0.1 -0.1)">
       <use xlink:href="#DejaVuSans-48"/>
      </g>
     </g>
    </g>
    <g id="xtick_6">
     <g id="line2d_10">
      <g>
       <use style="stroke:#000000;stroke-width:0.8;" x="202.087753" xlink:href="#m8fa9e2aa52" y="167.64375"/>
      </g>
     </g>
     <g id="text_26">
      <!-- 5 -->
      <g transform="translate(198.906503 182.242188)scale(0.1 -0.1)">
       <use xlink:href="#DejaVuSans-53"/>
      </g>
     </g>
    </g>
    <g id="xtick_7">
     <g id="line2d_11">
      <g>
       <use style="stroke:#000000;stroke-width:0.8;" x="231.507715" xlink:href="#m8fa9e2aa52" y="167.64375"/>
      </g>
     </g>
     <g id="text_27">
      <!-- 10 -->
      <g transform="translate(225.145215 182.242188)scale(0.1 -0.1)">
       <use xlink:href="#DejaVuSans-49"/>
       <use x="63.623047" xlink:href="#DejaVuSans-48"/>
      </g>
     </g>
    </g>
    <g id="xtick_8">
     <g id="line2d_12">
      <g>
       <use style="stroke:#000000;stroke-width:0.8;" x="260.927676" xlink:href="#m8fa9e2aa52" y="167.64375"/>
      </g>
     </g>
     <g id="text_28">
      <!-- 15 -->
      <g transform="translate(254.565176 182.242188)scale(0.1 -0.1)">
       <use xlink:href="#DejaVuSans-49"/>
       <use x="63.623047" xlink:href="#DejaVuSans-53"/>
      </g>
     </g>
    </g>
    <g id="text_29">
     <!-- Initial Deviation [m] -->
     <g transform="translate(173.354297 195.920312)scale(0.1 -0.1)">
      <use xlink:href="#DejaVuSans-73"/>
      <use x="29.492188" xlink:href="#DejaVuSans-110"/>
      <use x="92.871094" xlink:href="#DejaVuSans-105"/>
      <use x="120.654297" xlink:href="#DejaVuSans-116"/>
      <use x="159.863281" xlink:href="#DejaVuSans-105"/>
      <use x="187.646484" xlink:href="#DejaVuSans-97"/>
      <use x="248.925781" xlink:href="#DejaVuSans-108"/>
      <use x="276.708984" xlink:href="#DejaVuSans-32"/>
      <use x="308.496094" xlink:href="#DejaVuSans-68"/>
      <use x="385.498047" xlink:href="#DejaVuSans-101"/>
      <use x="447.021484" xlink:href="#DejaVuSans-118"/>
      <use x="506.201172" xlink:href="#DejaVuSans-105"/>
      <use x="533.984375" xlink:href="#DejaVuSans-97"/>
      <use x="595.263672" xlink:href="#DejaVuSans-116"/>
      <use x="634.472656" xlink:href="#DejaVuSans-105"/>
      <use x="662.255859" xlink:href="#DejaVuSans-111"/>
      <use x="723.4375" xlink:href="#DejaVuSans-110"/>
      <use x="786.816406" xlink:href="#DejaVuSans-32"/>
      <use x="818.603516" xlink:href="#DejaVuSans-91"/>
      <use x="857.617188" xlink:href="#DejaVuSans-109"/>
      <use x="955.029297" xlink:href="#DejaVuSans-93"/>
     </g>
    </g>
   </g>
   <g id="matplotlib.axis_4">
    <g id="ytick_5">
     <g id="line2d_13">
      <g>
       <use style="stroke:#000000;stroke-width:0.8;" x="169.027344" xlink:href="#m5ff1320e71" y="167.64375"/>
      </g>
     </g>
    </g>
    <g id="ytick_6">
     <g id="line2d_14">
      <g>
       <use style="stroke:#000000;stroke-width:0.8;" x="169.027344" xlink:href="#m5ff1320e71" y="131.719957"/>
      </g>
     </g>
    </g>
    <g id="ytick_7">
     <g id="line2d_15">
      <g>
       <use style="stroke:#000000;stroke-width:0.8;" x="169.027344" xlink:href="#m5ff1320e71" y="95.796164"/>
      </g>
     </g>
    </g>
    <g id="ytick_8">
     <g id="line2d_16">
      <g>
       <use style="stroke:#000000;stroke-width:0.8;" x="169.027344" xlink:href="#m5ff1320e71" y="59.872371"/>
      </g>
     </g>
    </g>
   </g>
   <g id="patch_51">
    <path d="M 169.027344 167.64375 
L 169.027344 41.910475 
" style="fill:none;stroke:#000000;stroke-linecap:square;stroke-linejoin:miter;stroke-width:0.8;"/>
   </g>
   <g id="patch_52">
    <path d="M 277.084375 167.64375 
L 277.084375 41.910475 
" style="fill:none;stroke:#000000;stroke-linecap:square;stroke-linejoin:miter;stroke-width:0.8;"/>
   </g>
   <g id="patch_53">
    <path d="M 169.027344 167.64375 
L 277.084375 167.64375 
" style="fill:none;stroke:#000000;stroke-linecap:square;stroke-linejoin:miter;stroke-width:0.8;"/>
   </g>
   <g id="patch_54">
    <path d="M 169.027344 41.910475 
L 277.084375 41.910475 
" style="fill:none;stroke:#000000;stroke-linecap:square;stroke-linejoin:miter;stroke-width:0.8;"/>
   </g>
   <g id="text_30">
    <!-- 2 -->
    <g style="fill:#ff0000;" transform="translate(174.582372 54.200305)scale(0.1 -0.1)">
     <use xlink:href="#DejaVuSans-50"/>
    </g>
   </g>
   <g id="text_31">
    <!-- 0 -->
    <g style="fill:#ff0000;" transform="translate(184.647314 102.697425)scale(0.1 -0.1)">
     <use xlink:href="#DejaVuSans-48"/>
    </g>
   </g>
   <g id="text_32">
    <!-- 1 -->
    <g style="fill:#ff0000;" transform="translate(194.712255 118.863132)scale(0.1 -0.1)">
     <use xlink:href="#DejaVuSans-49"/>
    </g>
   </g>
   <g id="text_33">
    <!-- 0 -->
    <g style="fill:#ff0000;" transform="translate(204.777197 82.939339)scale(0.1 -0.1)">
     <use xlink:href="#DejaVuSans-48"/>
    </g>
   </g>
   <g id="text_34">
    <!-- 1 -->
    <g style="fill:#ff0000;" transform="translate(214.842139 115.270752)scale(0.1 -0.1)">
     <use xlink:href="#DejaVuSans-49"/>
    </g>
   </g>
   <g id="text_35">
    <!-- 1 -->
    <g style="fill:#ff0000;" transform="translate(224.90708 127.84408)scale(0.1 -0.1)">
     <use xlink:href="#DejaVuSans-49"/>
    </g>
   </g>
   <g id="text_36">
    <!-- 1 -->
    <g style="fill:#ff0000;" transform="translate(234.972022 142.213597)scale(0.1 -0.1)">
     <use xlink:href="#DejaVuSans-49"/>
    </g>
   </g>
   <g id="text_37">
    <!-- 3 -->
    <g style="fill:#ff0000;" transform="translate(245.036963 126.04789)scale(0.1 -0.1)">
     <use xlink:href="#DejaVuSans-51"/>
    </g>
   </g>
   <g id="text_38">
    <!-- 7 -->
    <g style="fill:#ff0000;" transform="translate(255.101905 106.289804)scale(0.1 -0.1)">
     <use xlink:href="#DejaVuSans-55"/>
    </g>
   </g>
   <g id="text_39">
    <!-- 1 -->
    <g style="fill:#ff0000;" transform="translate(265.166847 145.805976)scale(0.1 -0.1)">
     <use xlink:href="#DejaVuSans-49"/>
    </g>
   </g>
   <g id="text_40">
    <!-- Total fails:  -->
    <g style="fill:#ff0000;" transform="translate(219.203474 57.655507)scale(0.1 -0.1)">
     <use xlink:href="#DejaVuSans-84"/>
     <use x="44.083984" xlink:href="#DejaVuSans-111"/>
     <use x="105.265625" xlink:href="#DejaVuSans-116"/>
     <use x="144.474609" xlink:href="#DejaVuSans-97"/>
     <use x="205.753906" xlink:href="#DejaVuSans-108"/>
     <use x="233.537109" xlink:href="#DejaVuSans-32"/>
     <use x="265.324219" xlink:href="#DejaVuSans-102"/>
     <use x="300.529297" xlink:href="#DejaVuSans-97"/>
     <use x="361.808594" xlink:href="#DejaVuSans-105"/>
     <use x="389.591797" xlink:href="#DejaVuSans-108"/>
     <use x="417.375" xlink:href="#DejaVuSans-115"/>
     <use x="469.474609" xlink:href="#DejaVuSans-58"/>
     <use x="503.166016" xlink:href="#DejaVuSans-32"/>
    </g>
    <!-- $\bf{17}$ of 297   -->
    <g style="fill:#ff0000;" transform="translate(217.495661 68.85332)scale(0.1 -0.1)">
     <defs>
      <path d="M 11.71875 12.984375 
L 28.328125 12.984375 
L 28.328125 60.109375 
L 11.28125 56.59375 
L 11.28125 69.390625 
L 28.21875 72.90625 
L 46.09375 72.90625 
L 46.09375 12.984375 
L 62.703125 12.984375 
L 62.703125 0 
L 11.71875 0 
z
" id="DejaVuSans-Bold-49"/>
      <path d="M 6.6875 72.90625 
L 61.625 72.90625 
L 61.625 62.3125 
L 33.203125 0 
L 14.890625 0 
L 41.796875 59.078125 
L 6.6875 59.078125 
z
" id="DejaVuSans-Bold-55"/>
     </defs>
     <use transform="translate(0 0.015625)" xlink:href="#DejaVuSans-Bold-49"/>
     <use transform="translate(69.580078 0.015625)" xlink:href="#DejaVuSans-Bold-55"/>
     <use transform="translate(139.160156 0.015625)" xlink:href="#DejaVuSans-32"/>
     <use transform="translate(170.947266 0.015625)" xlink:href="#DejaVuSans-111"/>
     <use transform="translate(232.128906 0.015625)" xlink:href="#DejaVuSans-102"/>
     <use transform="translate(267.333984 0.015625)" xlink:href="#DejaVuSans-32"/>
     <use transform="translate(299.121094 0.015625)" xlink:href="#DejaVuSans-50"/>
     <use transform="translate(360.994141 0.015625)" xlink:href="#DejaVuSans-57"/>
     <use transform="translate(424.617188 0.015625)" xlink:href="#DejaVuSans-55"/>
     <use transform="translate(488.240234 0.015625)" xlink:href="#DejaVuSans-32"/>
     <use transform="translate(520.027344 0.015625)" xlink:href="#DejaVuSans-32"/>
    </g>
   </g>
   <g id="legend_2">
    <g id="patch_55">
     <path d="M 168.166797 36.190074 
L 277.944922 36.190074 
Q 279.944922 36.190074 279.944922 34.190074 
L 279.944922 9.333824 
Q 279.944922 7.333824 277.944922 7.333824 
L 168.166797 7.333824 
Q 166.166797 7.333824 166.166797 9.333824 
L 166.166797 34.190074 
Q 166.166797 36.190074 168.166797 36.190074 
z
" style="fill:#ffffff;opacity:0.8;stroke:#cccccc;stroke-linejoin:miter;"/>
    </g>
    <g id="text_41">
     <!-- 2nd ord. DMP -->
     <g transform="translate(189.383984 18.932262)scale(0.1 -0.1)">
      <defs>
       <path d="M 10.6875 12.40625 
L 21 12.40625 
L 21 0 
L 10.6875 0 
z
" id="DejaVuSans-46"/>
       <path d="M 9.8125 72.90625 
L 24.515625 72.90625 
L 43.109375 23.296875 
L 61.8125 72.90625 
L 76.515625 72.90625 
L 76.515625 0 
L 66.890625 0 
L 66.890625 64.015625 
L 48.09375 14.015625 
L 38.1875 14.015625 
L 19.390625 64.015625 
L 19.390625 0 
L 9.8125 0 
z
" id="DejaVuSans-77"/>
       <path d="M 19.671875 64.796875 
L 19.671875 37.40625 
L 32.078125 37.40625 
Q 38.96875 37.40625 42.71875 40.96875 
Q 46.484375 44.53125 46.484375 51.125 
Q 46.484375 57.671875 42.71875 61.234375 
Q 38.96875 64.796875 32.078125 64.796875 
z
M 9.8125 72.90625 
L 32.078125 72.90625 
Q 44.34375 72.90625 50.609375 67.359375 
Q 56.890625 61.8125 56.890625 51.125 
Q 56.890625 40.328125 50.609375 34.8125 
Q 44.34375 29.296875 32.078125 29.296875 
L 19.671875 29.296875 
L 19.671875 0 
L 9.8125 0 
z
" id="DejaVuSans-80"/>
      </defs>
      <use xlink:href="#DejaVuSans-50"/>
      <use x="63.623047" xlink:href="#DejaVuSans-110"/>
      <use x="127.001953" xlink:href="#DejaVuSans-100"/>
      <use x="190.478516" xlink:href="#DejaVuSans-32"/>
      <use x="222.265625" xlink:href="#DejaVuSans-111"/>
      <use x="283.447266" xlink:href="#DejaVuSans-114"/>
      <use x="322.810547" xlink:href="#DejaVuSans-100"/>
      <use x="386.287109" xlink:href="#DejaVuSans-46"/>
      <use x="418.074219" xlink:href="#DejaVuSans-32"/>
      <use x="449.861328" xlink:href="#DejaVuSans-68"/>
      <use x="526.863281" xlink:href="#DejaVuSans-77"/>
      <use x="613.142578" xlink:href="#DejaVuSans-80"/>
     </g>
    </g>
    <g id="patch_56">
     <path d="M 170.166797 30.110387 
L 190.166797 30.110387 
L 190.166797 23.110387 
L 170.166797 23.110387 
z
" style="fill:#ff7f0e;opacity:0.6;"/>
    </g>
    <g id="text_42">
     <!-- Success -->
     <g transform="translate(192.166797 30.110387)scale(0.1 -0.1)">
      <use xlink:href="#DejaVuSans-83"/>
      <use x="63.476562" xlink:href="#DejaVuSans-117"/>
      <use x="126.855469" xlink:href="#DejaVuSans-99"/>
      <use x="181.835938" xlink:href="#DejaVuSans-99"/>
      <use x="236.816406" xlink:href="#DejaVuSans-101"/>
      <use x="298.339844" xlink:href="#DejaVuSans-115"/>
      <use x="350.439453" xlink:href="#DejaVuSans-115"/>
     </g>
    </g>
    <g id="patch_57">
     <path d="M 237.421484 30.110387 
L 257.421484 30.110387 
L 257.421484 23.110387 
L 237.421484 23.110387 
z
" style="fill:url(#h02a229de67);stroke:#ff0000;stroke-linejoin:miter;"/>
    </g>
    <g id="text_43">
     <!-- Fail -->
     <g transform="translate(259.421484 30.110387)scale(0.1 -0.1)">
      <use xlink:href="#DejaVuSans-70"/>
      <use x="48.394531" xlink:href="#DejaVuSans-97"/>
      <use x="109.673828" xlink:href="#DejaVuSans-105"/>
      <use x="137.457031" xlink:href="#DejaVuSans-108"/>
     </g>
    </g>
   </g>
  </g>
  <g id="axes_3">
   <g id="patch_58">
    <path d="M 293.851562 167.64375 
L 401.908594 167.64375 
L 401.908594 41.910475 
L 293.851562 41.910475 
z
" style="fill:#ffffff;"/>
   </g>
   <g id="patch_59">
    <path clip-path="url(#p4de63a9e68)" d="M 298.763246 167.64375 
L 306.412436 167.64375 
L 306.412436 56.279992 
L 298.763246 56.279992 
z
" style="fill:#2ca02c;opacity:0.6;"/>
   </g>
   <g id="patch_60">
    <path clip-path="url(#p4de63a9e68)" d="M 308.828187 167.64375 
L 316.477377 167.64375 
L 316.477377 104.777112 
L 308.828187 104.777112 
z
" style="fill:#2ca02c;opacity:0.6;"/>
   </g>
   <g id="patch_61">
    <path clip-path="url(#p4de63a9e68)" d="M 318.893129 167.64375 
L 326.542319 167.64375 
L 326.542319 120.942819 
L 318.893129 120.942819 
z
" style="fill:#2ca02c;opacity:0.6;"/>
   </g>
   <g id="patch_62">
    <path clip-path="url(#p4de63a9e68)" d="M 328.958071 167.64375 
L 336.607261 167.64375 
L 336.607261 86.815216 
L 328.958071 86.815216 
z
" style="fill:#2ca02c;opacity:0.6;"/>
   </g>
   <g id="patch_63">
    <path clip-path="url(#p4de63a9e68)" d="M 339.023012 167.64375 
L 346.672202 167.64375 
L 346.672202 119.14663 
L 339.023012 119.14663 
z
" style="fill:#2ca02c;opacity:0.6;"/>
   </g>
   <g id="patch_64">
    <path clip-path="url(#p4de63a9e68)" d="M 349.087954 167.64375 
L 356.737144 167.64375 
L 356.737144 129.923767 
L 349.087954 129.923767 
z
" style="fill:#2ca02c;opacity:0.6;"/>
   </g>
   <g id="patch_65">
    <path clip-path="url(#p4de63a9e68)" d="M 359.152896 167.64375 
L 366.802086 167.64375 
L 366.802086 144.293285 
L 359.152896 144.293285 
z
" style="fill:#2ca02c;opacity:0.6;"/>
   </g>
   <g id="patch_66">
    <path clip-path="url(#p4de63a9e68)" d="M 369.217837 167.64375 
L 376.867027 167.64375 
L 376.867027 129.923767 
L 369.217837 129.923767 
z
" style="fill:#2ca02c;opacity:0.6;"/>
   </g>
   <g id="patch_67">
    <path clip-path="url(#p4de63a9e68)" d="M 379.282779 167.64375 
L 386.931969 167.64375 
L 386.931969 117.35044 
L 379.282779 117.35044 
z
" style="fill:#2ca02c;opacity:0.6;"/>
   </g>
   <g id="patch_68">
    <path clip-path="url(#p4de63a9e68)" d="M 389.34772 167.64375 
L 396.996911 167.64375 
L 396.996911 147.885664 
L 389.34772 147.885664 
z
" style="fill:#2ca02c;opacity:0.6;"/>
   </g>
   <g id="patch_69">
    <path clip-path="url(#p4de63a9e68)" d="M 298.763246 56.279992 
L 306.412436 56.279992 
L 306.412436 56.279992 
L 298.763246 56.279992 
z
" style="fill:url(#h1e2f2e7f4a);stroke:#ff0000;stroke-linejoin:miter;"/>
   </g>
   <g id="patch_70">
    <path clip-path="url(#p4de63a9e68)" d="M 308.828187 104.777112 
L 316.477377 104.777112 
L 316.477377 104.777112 
L 308.828187 104.777112 
z
" style="fill:url(#h1e2f2e7f4a);stroke:#ff0000;stroke-linejoin:miter;"/>
   </g>
   <g id="patch_71">
    <path clip-path="url(#p4de63a9e68)" d="M 318.893129 120.942819 
L 326.542319 120.942819 
L 326.542319 120.942819 
L 318.893129 120.942819 
z
" style="fill:url(#h1e2f2e7f4a);stroke:#ff0000;stroke-linejoin:miter;"/>
   </g>
   <g id="patch_72">
    <path clip-path="url(#p4de63a9e68)" d="M 328.958071 86.815216 
L 336.607261 86.815216 
L 336.607261 85.019026 
L 328.958071 85.019026 
z
" style="fill:url(#h1e2f2e7f4a);stroke:#ff0000;stroke-linejoin:miter;"/>
   </g>
   <g id="patch_73">
    <path clip-path="url(#p4de63a9e68)" d="M 339.023012 119.14663 
L 346.672202 119.14663 
L 346.672202 117.35044 
L 339.023012 117.35044 
z
" style="fill:url(#h1e2f2e7f4a);stroke:#ff0000;stroke-linejoin:miter;"/>
   </g>
   <g id="patch_74">
    <path clip-path="url(#p4de63a9e68)" d="M 349.087954 129.923767 
L 356.737144 129.923767 
L 356.737144 129.923767 
L 349.087954 129.923767 
z
" style="fill:url(#h1e2f2e7f4a);stroke:#ff0000;stroke-linejoin:miter;"/>
   </g>
   <g id="patch_75">
    <path clip-path="url(#p4de63a9e68)" d="M 359.152896 144.293285 
L 366.802086 144.293285 
L 366.802086 144.293285 
L 359.152896 144.293285 
z
" style="fill:url(#h1e2f2e7f4a);stroke:#ff0000;stroke-linejoin:miter;"/>
   </g>
   <g id="patch_76">
    <path clip-path="url(#p4de63a9e68)" d="M 369.217837 129.923767 
L 376.867027 129.923767 
L 376.867027 128.127578 
L 369.217837 128.127578 
z
" style="fill:url(#h1e2f2e7f4a);stroke:#ff0000;stroke-linejoin:miter;"/>
   </g>
   <g id="patch_77">
    <path clip-path="url(#p4de63a9e68)" d="M 379.282779 117.35044 
L 386.931969 117.35044 
L 386.931969 108.369492 
L 379.282779 108.369492 
z
" style="fill:url(#h1e2f2e7f4a);stroke:#ff0000;stroke-linejoin:miter;"/>
   </g>
   <g id="patch_78">
    <path clip-path="url(#p4de63a9e68)" d="M 389.34772 147.885664 
L 396.996911 147.885664 
L 396.996911 147.885664 
L 389.34772 147.885664 
z
" style="fill:url(#h1e2f2e7f4a);stroke:#ff0000;stroke-linejoin:miter;"/>
   </g>
   <g id="matplotlib.axis_5">
    <g id="xtick_9">
     <g id="line2d_17">
      <g>
       <use style="stroke:#000000;stroke-width:0.8;" x="297.49201" xlink:href="#m8fa9e2aa52" y="167.64375"/>
      </g>
     </g>
     <g id="text_44">
      <!-- 0 -->
      <g transform="translate(294.31076 182.242188)scale(0.1 -0.1)">
       <use xlink:href="#DejaVuSans-48"/>
      </g>
     </g>
    </g>
    <g id="xtick_10">
     <g id="line2d_18">
      <g>
       <use style="stroke:#000000;stroke-width:0.8;" x="326.911972" xlink:href="#m8fa9e2aa52" y="167.64375"/>
      </g>
     </g>
     <g id="text_45">
      <!-- 5 -->
      <g transform="translate(323.730722 182.242188)scale(0.1 -0.1)">
       <use xlink:href="#DejaVuSans-53"/>
      </g>
     </g>
    </g>
    <g id="xtick_11">
     <g id="line2d_19">
      <g>
       <use style="stroke:#000000;stroke-width:0.8;" x="356.331933" xlink:href="#m8fa9e2aa52" y="167.64375"/>
      </g>
     </g>
     <g id="text_46">
      <!-- 10 -->
      <g transform="translate(349.969433 182.242188)scale(0.1 -0.1)">
       <use xlink:href="#DejaVuSans-49"/>
       <use x="63.623047" xlink:href="#DejaVuSans-48"/>
      </g>
     </g>
    </g>
    <g id="xtick_12">
     <g id="line2d_20">
      <g>
       <use style="stroke:#000000;stroke-width:0.8;" x="385.751895" xlink:href="#m8fa9e2aa52" y="167.64375"/>
      </g>
     </g>
     <g id="text_47">
      <!-- 15 -->
      <g transform="translate(379.389395 182.242188)scale(0.1 -0.1)">
       <use xlink:href="#DejaVuSans-49"/>
       <use x="63.623047" xlink:href="#DejaVuSans-53"/>
      </g>
     </g>
    </g>
    <g id="text_48">
     <!-- Initial Deviation [m] -->
     <g transform="translate(298.178516 195.920312)scale(0.1 -0.1)">
      <use xlink:href="#DejaVuSans-73"/>
      <use x="29.492188" xlink:href="#DejaVuSans-110"/>
      <use x="92.871094" xlink:href="#DejaVuSans-105"/>
      <use x="120.654297" xlink:href="#DejaVuSans-116"/>
      <use x="159.863281" xlink:href="#DejaVuSans-105"/>
      <use x="187.646484" xlink:href="#DejaVuSans-97"/>
      <use x="248.925781" xlink:href="#DejaVuSans-108"/>
      <use x="276.708984" xlink:href="#DejaVuSans-32"/>
      <use x="308.496094" xlink:href="#DejaVuSans-68"/>
      <use x="385.498047" xlink:href="#DejaVuSans-101"/>
      <use x="447.021484" xlink:href="#DejaVuSans-118"/>
      <use x="506.201172" xlink:href="#DejaVuSans-105"/>
      <use x="533.984375" xlink:href="#DejaVuSans-97"/>
      <use x="595.263672" xlink:href="#DejaVuSans-116"/>
      <use x="634.472656" xlink:href="#DejaVuSans-105"/>
      <use x="662.255859" xlink:href="#DejaVuSans-111"/>
      <use x="723.4375" xlink:href="#DejaVuSans-110"/>
      <use x="786.816406" xlink:href="#DejaVuSans-32"/>
      <use x="818.603516" xlink:href="#DejaVuSans-91"/>
      <use x="857.617188" xlink:href="#DejaVuSans-109"/>
      <use x="955.029297" xlink:href="#DejaVuSans-93"/>
     </g>
    </g>
   </g>
   <g id="matplotlib.axis_6">
    <g id="ytick_9">
     <g id="line2d_21">
      <g>
       <use style="stroke:#000000;stroke-width:0.8;" x="293.851562" xlink:href="#m5ff1320e71" y="167.64375"/>
      </g>
     </g>
    </g>
    <g id="ytick_10">
     <g id="line2d_22">
      <g>
       <use style="stroke:#000000;stroke-width:0.8;" x="293.851562" xlink:href="#m5ff1320e71" y="131.719957"/>
      </g>
     </g>
    </g>
    <g id="ytick_11">
     <g id="line2d_23">
      <g>
       <use style="stroke:#000000;stroke-width:0.8;" x="293.851562" xlink:href="#m5ff1320e71" y="95.796164"/>
      </g>
     </g>
    </g>
    <g id="ytick_12">
     <g id="line2d_24">
      <g>
       <use style="stroke:#000000;stroke-width:0.8;" x="293.851562" xlink:href="#m5ff1320e71" y="59.872371"/>
      </g>
     </g>
    </g>
   </g>
   <g id="patch_79">
    <path d="M 293.851562 167.64375 
L 293.851562 41.910475 
" style="fill:none;stroke:#000000;stroke-linecap:square;stroke-linejoin:miter;stroke-width:0.8;"/>
   </g>
   <g id="patch_80">
    <path d="M 401.908594 167.64375 
L 401.908594 41.910475 
" style="fill:none;stroke:#000000;stroke-linecap:square;stroke-linejoin:miter;stroke-width:0.8;"/>
   </g>
   <g id="patch_81">
    <path d="M 293.851562 167.64375 
L 401.908594 167.64375 
" style="fill:none;stroke:#000000;stroke-linecap:square;stroke-linejoin:miter;stroke-width:0.8;"/>
   </g>
   <g id="patch_82">
    <path d="M 293.851562 41.910475 
L 401.908594 41.910475 
" style="fill:none;stroke:#000000;stroke-linecap:square;stroke-linejoin:miter;stroke-width:0.8;"/>
   </g>
   <g id="text_49">
    <!-- 0 -->
    <g style="fill:#ff0000;" transform="translate(299.406591 54.200305)scale(0.1 -0.1)">
     <use xlink:href="#DejaVuSans-48"/>
    </g>
   </g>
   <g id="text_50">
    <!-- 0 -->
    <g style="fill:#ff0000;" transform="translate(309.471532 102.697425)scale(0.1 -0.1)">
     <use xlink:href="#DejaVuSans-48"/>
    </g>
   </g>
   <g id="text_51">
    <!-- 0 -->
    <g style="fill:#ff0000;" transform="translate(319.536474 118.863132)scale(0.1 -0.1)">
     <use xlink:href="#DejaVuSans-48"/>
    </g>
   </g>
   <g id="text_52">
    <!-- 1 -->
    <g style="fill:#ff0000;" transform="translate(329.601416 82.939339)scale(0.1 -0.1)">
     <use xlink:href="#DejaVuSans-49"/>
    </g>
   </g>
   <g id="text_53">
    <!-- 1 -->
    <g style="fill:#ff0000;" transform="translate(339.666357 115.270752)scale(0.1 -0.1)">
     <use xlink:href="#DejaVuSans-49"/>
    </g>
   </g>
   <g id="text_54">
    <!-- 0 -->
    <g style="fill:#ff0000;" transform="translate(349.731299 127.84408)scale(0.1 -0.1)">
     <use xlink:href="#DejaVuSans-48"/>
    </g>
   </g>
   <g id="text_55">
    <!-- 0 -->
    <g style="fill:#ff0000;" transform="translate(359.796241 142.213597)scale(0.1 -0.1)">
     <use xlink:href="#DejaVuSans-48"/>
    </g>
   </g>
   <g id="text_56">
    <!-- 1 -->
    <g style="fill:#ff0000;" transform="translate(369.861182 126.04789)scale(0.1 -0.1)">
     <use xlink:href="#DejaVuSans-49"/>
    </g>
   </g>
   <g id="text_57">
    <!-- 5 -->
    <g style="fill:#ff0000;" transform="translate(379.926124 106.289804)scale(0.1 -0.1)">
     <use xlink:href="#DejaVuSans-53"/>
    </g>
   </g>
   <g id="text_58">
    <!-- 0 -->
    <g style="fill:#ff0000;" transform="translate(389.991065 145.805976)scale(0.1 -0.1)">
     <use xlink:href="#DejaVuSans-48"/>
    </g>
   </g>
   <g id="text_59">
    <!-- Total fails:  -->
    <g style="fill:#ff0000;" transform="translate(344.027692 57.655507)scale(0.1 -0.1)">
     <use xlink:href="#DejaVuSans-84"/>
     <use x="44.083984" xlink:href="#DejaVuSans-111"/>
     <use x="105.265625" xlink:href="#DejaVuSans-116"/>
     <use x="144.474609" xlink:href="#DejaVuSans-97"/>
     <use x="205.753906" xlink:href="#DejaVuSans-108"/>
     <use x="233.537109" xlink:href="#DejaVuSans-32"/>
     <use x="265.324219" xlink:href="#DejaVuSans-102"/>
     <use x="300.529297" xlink:href="#DejaVuSans-97"/>
     <use x="361.808594" xlink:href="#DejaVuSans-105"/>
     <use x="389.591797" xlink:href="#DejaVuSans-108"/>
     <use x="417.375" xlink:href="#DejaVuSans-115"/>
     <use x="469.474609" xlink:href="#DejaVuSans-58"/>
     <use x="503.166016" xlink:href="#DejaVuSans-32"/>
    </g>
    <!-- $\bf{8}$ of 297   -->
    <g style="fill:#ff0000;" transform="translate(349.21988 68.85332)scale(0.1 -0.1)">
     <defs>
      <path d="M 34.8125 32.625 
Q 29.546875 32.625 26.703125 29.734375 
Q 23.875 26.859375 23.875 21.484375 
Q 23.875 16.109375 26.703125 13.25 
Q 29.546875 10.40625 34.8125 10.40625 
Q 40.046875 10.40625 42.828125 13.25 
Q 45.609375 16.109375 45.609375 21.484375 
Q 45.609375 26.90625 42.828125 29.765625 
Q 40.046875 32.625 34.8125 32.625 
z
M 21.09375 38.8125 
Q 14.453125 40.828125 11.078125 44.96875 
Q 7.71875 49.125 7.71875 55.328125 
Q 7.71875 64.546875 14.59375 69.375 
Q 21.484375 74.21875 34.8125 74.21875 
Q 48.046875 74.21875 54.921875 69.40625 
Q 61.8125 64.59375 61.8125 55.328125 
Q 61.8125 49.125 58.421875 44.96875 
Q 55.03125 40.828125 48.390625 38.8125 
Q 55.8125 36.765625 59.59375 32.15625 
Q 63.375 27.546875 63.375 20.515625 
Q 63.375 9.671875 56.171875 4.125 
Q 48.96875 -1.421875 34.8125 -1.421875 
Q 20.609375 -1.421875 13.359375 4.125 
Q 6.109375 9.671875 6.109375 20.515625 
Q 6.109375 27.546875 9.890625 32.15625 
Q 13.671875 36.765625 21.09375 38.8125 
z
M 25.484375 53.421875 
Q 25.484375 49.078125 27.90625 46.734375 
Q 30.328125 44.390625 34.8125 44.390625 
Q 39.203125 44.390625 41.59375 46.734375 
Q 44 49.078125 44 53.421875 
Q 44 57.765625 41.59375 60.078125 
Q 39.203125 62.40625 34.8125 62.40625 
Q 30.328125 62.40625 27.90625 60.0625 
Q 25.484375 57.71875 25.484375 53.421875 
z
" id="DejaVuSans-Bold-56"/>
     </defs>
     <use transform="translate(0 0.015625)" xlink:href="#DejaVuSans-Bold-56"/>
     <use transform="translate(69.580078 0.015625)" xlink:href="#DejaVuSans-32"/>
     <use transform="translate(101.367188 0.015625)" xlink:href="#DejaVuSans-111"/>
     <use transform="translate(162.548828 0.015625)" xlink:href="#DejaVuSans-102"/>
     <use transform="translate(197.753906 0.015625)" xlink:href="#DejaVuSans-32"/>
     <use transform="translate(229.541016 0.015625)" xlink:href="#DejaVuSans-50"/>
     <use transform="translate(291.414062 0.015625)" xlink:href="#DejaVuSans-57"/>
     <use transform="translate(355.037109 0.015625)" xlink:href="#DejaVuSans-55"/>
     <use transform="translate(418.660156 0.015625)" xlink:href="#DejaVuSans-32"/>
     <use transform="translate(450.447266 0.015625)" xlink:href="#DejaVuSans-32"/>
    </g>
   </g>
   <g id="legend_3">
    <g id="patch_83">
     <path d="M 292.991016 36.190074 
L 402.769141 36.190074 
Q 404.769141 36.190074 404.769141 34.190074 
L 404.769141 9.333824 
Q 404.769141 7.333824 402.769141 7.333824 
L 292.991016 7.333824 
Q 290.991016 7.333824 290.991016 9.333824 
L 290.991016 34.190074 
Q 290.991016 36.190074 292.991016 36.190074 
z
" style="fill:#ffffff;opacity:0.8;stroke:#cccccc;stroke-linejoin:miter;"/>
    </g>
    <g id="text_60">
     <!-- Vel. goal DMP -->
     <g transform="translate(313.748828 18.932262)scale(0.1 -0.1)">
      <defs>
       <path d="M 28.609375 0 
L 0.78125 72.90625 
L 11.078125 72.90625 
L 34.1875 11.53125 
L 57.328125 72.90625 
L 67.578125 72.90625 
L 39.796875 0 
z
" id="DejaVuSans-86"/>
       <path d="M 45.40625 27.984375 
Q 45.40625 37.75 41.375 43.109375 
Q 37.359375 48.484375 30.078125 48.484375 
Q 22.859375 48.484375 18.828125 43.109375 
Q 14.796875 37.75 14.796875 27.984375 
Q 14.796875 18.265625 18.828125 12.890625 
Q 22.859375 7.515625 30.078125 7.515625 
Q 37.359375 7.515625 41.375 12.890625 
Q 45.40625 18.265625 45.40625 27.984375 
z
M 54.390625 6.78125 
Q 54.390625 -7.171875 48.1875 -13.984375 
Q 42 -20.796875 29.203125 -20.796875 
Q 24.46875 -20.796875 20.265625 -20.09375 
Q 16.0625 -19.390625 12.109375 -17.921875 
L 12.109375 -9.1875 
Q 16.0625 -11.328125 19.921875 -12.34375 
Q 23.78125 -13.375 27.78125 -13.375 
Q 36.625 -13.375 41.015625 -8.765625 
Q 45.40625 -4.15625 45.40625 5.171875 
L 45.40625 9.625 
Q 42.625 4.78125 38.28125 2.390625 
Q 33.9375 0 27.875 0 
Q 17.828125 0 11.671875 7.65625 
Q 5.515625 15.328125 5.515625 27.984375 
Q 5.515625 40.671875 11.671875 48.328125 
Q 17.828125 56 27.875 56 
Q 33.9375 56 38.28125 53.609375 
Q 42.625 51.21875 45.40625 46.390625 
L 45.40625 54.6875 
L 54.390625 54.6875 
z
" id="DejaVuSans-103"/>
      </defs>
      <use xlink:href="#DejaVuSans-86"/>
      <use x="60.658203" xlink:href="#DejaVuSans-101"/>
      <use x="122.181641" xlink:href="#DejaVuSans-108"/>
      <use x="149.964844" xlink:href="#DejaVuSans-46"/>
      <use x="181.751953" xlink:href="#DejaVuSans-32"/>
      <use x="213.539062" xlink:href="#DejaVuSans-103"/>
      <use x="277.015625" xlink:href="#DejaVuSans-111"/>
      <use x="338.197266" xlink:href="#DejaVuSans-97"/>
      <use x="399.476562" xlink:href="#DejaVuSans-108"/>
      <use x="427.259766" xlink:href="#DejaVuSans-32"/>
      <use x="459.046875" xlink:href="#DejaVuSans-68"/>
      <use x="536.048828" xlink:href="#DejaVuSans-77"/>
      <use x="622.328125" xlink:href="#DejaVuSans-80"/>
     </g>
    </g>
    <g id="patch_84">
     <path d="M 294.991016 30.110387 
L 314.991016 30.110387 
L 314.991016 23.110387 
L 294.991016 23.110387 
z
" style="fill:#2ca02c;opacity:0.6;"/>
    </g>
    <g id="text_61">
     <!-- Success -->
     <g transform="translate(316.991016 30.110387)scale(0.1 -0.1)">
      <use xlink:href="#DejaVuSans-83"/>
      <use x="63.476562" xlink:href="#DejaVuSans-117"/>
      <use x="126.855469" xlink:href="#DejaVuSans-99"/>
      <use x="181.835938" xlink:href="#DejaVuSans-99"/>
      <use x="236.816406" xlink:href="#DejaVuSans-101"/>
      <use x="298.339844" xlink:href="#DejaVuSans-115"/>
      <use x="350.439453" xlink:href="#DejaVuSans-115"/>
     </g>
    </g>
    <g id="patch_85">
     <path d="M 362.245703 30.110387 
L 382.245703 30.110387 
L 382.245703 23.110387 
L 362.245703 23.110387 
z
" style="fill:url(#h1e2f2e7f4a);stroke:#ff0000;stroke-linejoin:miter;"/>
    </g>
    <g id="text_62">
     <!-- Fail -->
     <g transform="translate(384.245703 30.110387)scale(0.1 -0.1)">
      <use xlink:href="#DejaVuSans-70"/>
      <use x="48.394531" xlink:href="#DejaVuSans-97"/>
      <use x="109.673828" xlink:href="#DejaVuSans-105"/>
      <use x="137.457031" xlink:href="#DejaVuSans-108"/>
     </g>
    </g>
   </g>
  </g>
  <g id="axes_4">
   <g id="patch_86">
    <path d="M 418.675781 167.64375 
L 526.732812 167.64375 
L 526.732812 41.910475 
L 418.675781 41.910475 
z
" style="fill:#ffffff;"/>
   </g>
   <g id="patch_87">
    <path clip-path="url(#p22a79d7ea0)" d="M 423.587464 167.64375 
L 431.236655 167.64375 
L 431.236655 56.279992 
L 423.587464 56.279992 
z
" style="fill:#d62728;opacity:0.6;"/>
   </g>
   <g id="patch_88">
    <path clip-path="url(#p22a79d7ea0)" d="M 433.652406 167.64375 
L 441.301596 167.64375 
L 441.301596 104.777112 
L 433.652406 104.777112 
z
" style="fill:#d62728;opacity:0.6;"/>
   </g>
   <g id="patch_89">
    <path clip-path="url(#p22a79d7ea0)" d="M 443.717348 167.64375 
L 451.366538 167.64375 
L 451.366538 120.942819 
L 443.717348 120.942819 
z
" style="fill:#d62728;opacity:0.6;"/>
   </g>
   <g id="patch_90">
    <path clip-path="url(#p22a79d7ea0)" d="M 453.782289 167.64375 
L 461.431479 167.64375 
L 461.431479 86.815216 
L 453.782289 86.815216 
z
" style="fill:#d62728;opacity:0.6;"/>
   </g>
   <g id="patch_91">
    <path clip-path="url(#p22a79d7ea0)" d="M 463.847231 167.64375 
L 471.496421 167.64375 
L 471.496421 117.35044 
L 463.847231 117.35044 
z
" style="fill:#d62728;opacity:0.6;"/>
   </g>
   <g id="patch_92">
    <path clip-path="url(#p22a79d7ea0)" d="M 473.912173 167.64375 
L 481.561363 167.64375 
L 481.561363 131.719957 
L 473.912173 131.719957 
z
" style="fill:#d62728;opacity:0.6;"/>
   </g>
   <g id="patch_93">
    <path clip-path="url(#p22a79d7ea0)" d="M 483.977114 167.64375 
L 491.626304 167.64375 
L 491.626304 146.089474 
L 483.977114 146.089474 
z
" style="fill:#d62728;opacity:0.6;"/>
   </g>
   <g id="patch_94">
    <path clip-path="url(#p22a79d7ea0)" d="M 494.042056 167.64375 
L 501.691246 167.64375 
L 501.691246 129.923767 
L 494.042056 129.923767 
z
" style="fill:#d62728;opacity:0.6;"/>
   </g>
   <g id="patch_95">
    <path clip-path="url(#p22a79d7ea0)" d="M 504.106998 167.64375 
L 511.756188 167.64375 
L 511.756188 117.35044 
L 504.106998 117.35044 
z
" style="fill:#d62728;opacity:0.6;"/>
   </g>
   <g id="patch_96">
    <path clip-path="url(#p22a79d7ea0)" d="M 514.171939 167.64375 
L 521.821129 167.64375 
L 521.821129 147.885664 
L 514.171939 147.885664 
z
" style="fill:#d62728;opacity:0.6;"/>
   </g>
   <g id="patch_97">
    <path clip-path="url(#p22a79d7ea0)" d="M 423.587464 56.279992 
L 431.236655 56.279992 
L 431.236655 56.279992 
L 423.587464 56.279992 
z
" style="fill:url(#hf1cf7a661b);stroke:#ff0000;stroke-linejoin:miter;"/>
   </g>
   <g id="patch_98">
    <path clip-path="url(#p22a79d7ea0)" d="M 433.652406 104.777112 
L 441.301596 104.777112 
L 441.301596 104.777112 
L 433.652406 104.777112 
z
" style="fill:url(#hf1cf7a661b);stroke:#ff0000;stroke-linejoin:miter;"/>
   </g>
   <g id="patch_99">
    <path clip-path="url(#p22a79d7ea0)" d="M 443.717348 120.942819 
L 451.366538 120.942819 
L 451.366538 120.942819 
L 443.717348 120.942819 
z
" style="fill:url(#hf1cf7a661b);stroke:#ff0000;stroke-linejoin:miter;"/>
   </g>
   <g id="patch_100">
    <path clip-path="url(#p22a79d7ea0)" d="M 453.782289 86.815216 
L 461.431479 86.815216 
L 461.431479 85.019026 
L 453.782289 85.019026 
z
" style="fill:url(#hf1cf7a661b);stroke:#ff0000;stroke-linejoin:miter;"/>
   </g>
   <g id="patch_101">
    <path clip-path="url(#p22a79d7ea0)" d="M 463.847231 117.35044 
L 471.496421 117.35044 
L 471.496421 117.35044 
L 463.847231 117.35044 
z
" style="fill:url(#hf1cf7a661b);stroke:#ff0000;stroke-linejoin:miter;"/>
   </g>
   <g id="patch_102">
    <path clip-path="url(#p22a79d7ea0)" d="M 473.912173 131.719957 
L 481.561363 131.719957 
L 481.561363 129.923767 
L 473.912173 129.923767 
z
" style="fill:url(#hf1cf7a661b);stroke:#ff0000;stroke-linejoin:miter;"/>
   </g>
   <g id="patch_103">
    <path clip-path="url(#p22a79d7ea0)" d="M 483.977114 146.089474 
L 491.626304 146.089474 
L 491.626304 144.293285 
L 483.977114 144.293285 
z
" style="fill:url(#hf1cf7a661b);stroke:#ff0000;stroke-linejoin:miter;"/>
   </g>
   <g id="patch_104">
    <path clip-path="url(#p22a79d7ea0)" d="M 494.042056 129.923767 
L 501.691246 129.923767 
L 501.691246 128.127578 
L 494.042056 128.127578 
z
" style="fill:url(#hf1cf7a661b);stroke:#ff0000;stroke-linejoin:miter;"/>
   </g>
   <g id="patch_105">
    <path clip-path="url(#p22a79d7ea0)" d="M 504.106998 117.35044 
L 511.756188 117.35044 
L 511.756188 108.369492 
L 504.106998 108.369492 
z
" style="fill:url(#hf1cf7a661b);stroke:#ff0000;stroke-linejoin:miter;"/>
   </g>
   <g id="patch_106">
    <path clip-path="url(#p22a79d7ea0)" d="M 514.171939 147.885664 
L 521.821129 147.885664 
L 521.821129 147.885664 
L 514.171939 147.885664 
z
" style="fill:url(#hf1cf7a661b);stroke:#ff0000;stroke-linejoin:miter;"/>
   </g>
   <g id="matplotlib.axis_7">
    <g id="xtick_13">
     <g id="line2d_25">
      <g>
       <use style="stroke:#000000;stroke-width:0.8;" x="422.316229" xlink:href="#m8fa9e2aa52" y="167.64375"/>
      </g>
     </g>
     <g id="text_63">
      <!-- 0 -->
      <g transform="translate(419.134979 182.242188)scale(0.1 -0.1)">
       <use xlink:href="#DejaVuSans-48"/>
      </g>
     </g>
    </g>
    <g id="xtick_14">
     <g id="line2d_26">
      <g>
       <use style="stroke:#000000;stroke-width:0.8;" x="451.736191" xlink:href="#m8fa9e2aa52" y="167.64375"/>
      </g>
     </g>
     <g id="text_64">
      <!-- 5 -->
      <g transform="translate(448.554941 182.242188)scale(0.1 -0.1)">
       <use xlink:href="#DejaVuSans-53"/>
      </g>
     </g>
    </g>
    <g id="xtick_15">
     <g id="line2d_27">
      <g>
       <use style="stroke:#000000;stroke-width:0.8;" x="481.156152" xlink:href="#m8fa9e2aa52" y="167.64375"/>
      </g>
     </g>
     <g id="text_65">
      <!-- 10 -->
      <g transform="translate(474.793652 182.242188)scale(0.1 -0.1)">
       <use xlink:href="#DejaVuSans-49"/>
       <use x="63.623047" xlink:href="#DejaVuSans-48"/>
      </g>
     </g>
    </g>
    <g id="xtick_16">
     <g id="line2d_28">
      <g>
       <use style="stroke:#000000;stroke-width:0.8;" x="510.576114" xlink:href="#m8fa9e2aa52" y="167.64375"/>
      </g>
     </g>
     <g id="text_66">
      <!-- 15 -->
      <g transform="translate(504.213614 182.242188)scale(0.1 -0.1)">
       <use xlink:href="#DejaVuSans-49"/>
       <use x="63.623047" xlink:href="#DejaVuSans-53"/>
      </g>
     </g>
    </g>
    <g id="text_67">
     <!-- Initial Deviation [m] -->
     <g transform="translate(423.002734 195.920312)scale(0.1 -0.1)">
      <use xlink:href="#DejaVuSans-73"/>
      <use x="29.492188" xlink:href="#DejaVuSans-110"/>
      <use x="92.871094" xlink:href="#DejaVuSans-105"/>
      <use x="120.654297" xlink:href="#DejaVuSans-116"/>
      <use x="159.863281" xlink:href="#DejaVuSans-105"/>
      <use x="187.646484" xlink:href="#DejaVuSans-97"/>
      <use x="248.925781" xlink:href="#DejaVuSans-108"/>
      <use x="276.708984" xlink:href="#DejaVuSans-32"/>
      <use x="308.496094" xlink:href="#DejaVuSans-68"/>
      <use x="385.498047" xlink:href="#DejaVuSans-101"/>
      <use x="447.021484" xlink:href="#DejaVuSans-118"/>
      <use x="506.201172" xlink:href="#DejaVuSans-105"/>
      <use x="533.984375" xlink:href="#DejaVuSans-97"/>
      <use x="595.263672" xlink:href="#DejaVuSans-116"/>
      <use x="634.472656" xlink:href="#DejaVuSans-105"/>
      <use x="662.255859" xlink:href="#DejaVuSans-111"/>
      <use x="723.4375" xlink:href="#DejaVuSans-110"/>
      <use x="786.816406" xlink:href="#DejaVuSans-32"/>
      <use x="818.603516" xlink:href="#DejaVuSans-91"/>
      <use x="857.617188" xlink:href="#DejaVuSans-109"/>
      <use x="955.029297" xlink:href="#DejaVuSans-93"/>
     </g>
    </g>
   </g>
   <g id="matplotlib.axis_8">
    <g id="ytick_13">
     <g id="line2d_29">
      <g>
       <use style="stroke:#000000;stroke-width:0.8;" x="418.675781" xlink:href="#m5ff1320e71" y="167.64375"/>
      </g>
     </g>
    </g>
    <g id="ytick_14">
     <g id="line2d_30">
      <g>
       <use style="stroke:#000000;stroke-width:0.8;" x="418.675781" xlink:href="#m5ff1320e71" y="131.719957"/>
      </g>
     </g>
    </g>
    <g id="ytick_15">
     <g id="line2d_31">
      <g>
       <use style="stroke:#000000;stroke-width:0.8;" x="418.675781" xlink:href="#m5ff1320e71" y="95.796164"/>
      </g>
     </g>
    </g>
    <g id="ytick_16">
     <g id="line2d_32">
      <g>
       <use style="stroke:#000000;stroke-width:0.8;" x="418.675781" xlink:href="#m5ff1320e71" y="59.872371"/>
      </g>
     </g>
    </g>
   </g>
   <g id="patch_107">
    <path d="M 418.675781 167.64375 
L 418.675781 41.910475 
" style="fill:none;stroke:#000000;stroke-linecap:square;stroke-linejoin:miter;stroke-width:0.8;"/>
   </g>
   <g id="patch_108">
    <path d="M 526.732812 167.64375 
L 526.732812 41.910475 
" style="fill:none;stroke:#000000;stroke-linecap:square;stroke-linejoin:miter;stroke-width:0.8;"/>
   </g>
   <g id="patch_109">
    <path d="M 418.675781 167.64375 
L 526.732812 167.64375 
" style="fill:none;stroke:#000000;stroke-linecap:square;stroke-linejoin:miter;stroke-width:0.8;"/>
   </g>
   <g id="patch_110">
    <path d="M 418.675781 41.910475 
L 526.732812 41.910475 
" style="fill:none;stroke:#000000;stroke-linecap:square;stroke-linejoin:miter;stroke-width:0.8;"/>
   </g>
   <g id="text_68">
    <!-- 0 -->
    <g style="fill:#ff0000;" transform="translate(424.23081 54.200305)scale(0.1 -0.1)">
     <use xlink:href="#DejaVuSans-48"/>
    </g>
   </g>
   <g id="text_69">
    <!-- 0 -->
    <g style="fill:#ff0000;" transform="translate(434.295751 102.697425)scale(0.1 -0.1)">
     <use xlink:href="#DejaVuSans-48"/>
    </g>
   </g>
   <g id="text_70">
    <!-- 0 -->
    <g style="fill:#ff0000;" transform="translate(444.360693 118.863132)scale(0.1 -0.1)">
     <use xlink:href="#DejaVuSans-48"/>
    </g>
   </g>
   <g id="text_71">
    <!-- 1 -->
    <g style="fill:#ff0000;" transform="translate(454.425634 82.939339)scale(0.1 -0.1)">
     <use xlink:href="#DejaVuSans-49"/>
    </g>
   </g>
   <g id="text_72">
    <!-- 0 -->
    <g style="fill:#ff0000;" transform="translate(464.490576 115.270752)scale(0.1 -0.1)">
     <use xlink:href="#DejaVuSans-48"/>
    </g>
   </g>
   <g id="text_73">
    <!-- 1 -->
    <g style="fill:#ff0000;" transform="translate(474.555518 127.84408)scale(0.1 -0.1)">
     <use xlink:href="#DejaVuSans-49"/>
    </g>
   </g>
   <g id="text_74">
    <!-- 1 -->
    <g style="fill:#ff0000;" transform="translate(484.620459 142.213597)scale(0.1 -0.1)">
     <use xlink:href="#DejaVuSans-49"/>
    </g>
   </g>
   <g id="text_75">
    <!-- 1 -->
    <g style="fill:#ff0000;" transform="translate(494.685401 126.04789)scale(0.1 -0.1)">
     <use xlink:href="#DejaVuSans-49"/>
    </g>
   </g>
   <g id="text_76">
    <!-- 5 -->
    <g style="fill:#ff0000;" transform="translate(504.750343 106.289804)scale(0.1 -0.1)">
     <use xlink:href="#DejaVuSans-53"/>
    </g>
   </g>
   <g id="text_77">
    <!-- 0 -->
    <g style="fill:#ff0000;" transform="translate(514.815284 145.805976)scale(0.1 -0.1)">
     <use xlink:href="#DejaVuSans-48"/>
    </g>
   </g>
   <g id="text_78">
    <!-- Total fails:  -->
    <g style="fill:#ff0000;" transform="translate(468.851911 57.655507)scale(0.1 -0.1)">
     <use xlink:href="#DejaVuSans-84"/>
     <use x="44.083984" xlink:href="#DejaVuSans-111"/>
     <use x="105.265625" xlink:href="#DejaVuSans-116"/>
     <use x="144.474609" xlink:href="#DejaVuSans-97"/>
     <use x="205.753906" xlink:href="#DejaVuSans-108"/>
     <use x="233.537109" xlink:href="#DejaVuSans-32"/>
     <use x="265.324219" xlink:href="#DejaVuSans-102"/>
     <use x="300.529297" xlink:href="#DejaVuSans-97"/>
     <use x="361.808594" xlink:href="#DejaVuSans-105"/>
     <use x="389.591797" xlink:href="#DejaVuSans-108"/>
     <use x="417.375" xlink:href="#DejaVuSans-115"/>
     <use x="469.474609" xlink:href="#DejaVuSans-58"/>
     <use x="503.166016" xlink:href="#DejaVuSans-32"/>
    </g>
    <!-- $\bf{9}$ of 297   -->
    <g style="fill:#ff0000;" transform="translate(474.044099 68.85332)scale(0.1 -0.1)">
     <defs>
      <path d="M 10.015625 1.609375 
L 10.015625 15.09375 
Q 14.5 12.984375 18.59375 11.9375 
Q 22.703125 10.890625 26.703125 10.890625 
Q 35.109375 10.890625 39.796875 15.546875 
Q 44.484375 20.21875 45.3125 29.390625 
Q 42 26.953125 38.234375 25.734375 
Q 34.46875 24.515625 30.078125 24.515625 
Q 18.890625 24.515625 12.03125 31.03125 
Q 5.171875 37.546875 5.171875 48.1875 
Q 5.171875 59.96875 12.8125 67.046875 
Q 20.453125 74.125 33.296875 74.125 
Q 47.5625 74.125 55.375 64.5 
Q 63.1875 54.890625 63.1875 37.3125 
Q 63.1875 19.234375 54.046875 8.90625 
Q 44.921875 -1.421875 29 -1.421875 
Q 23.875 -1.421875 19.1875 -0.65625 
Q 14.5 0.09375 10.015625 1.609375 
z
M 33.203125 36.71875 
Q 38.140625 36.71875 40.625 39.90625 
Q 43.109375 43.109375 43.109375 49.515625 
Q 43.109375 55.859375 40.625 59.078125 
Q 38.140625 62.3125 33.203125 62.3125 
Q 28.265625 62.3125 25.78125 59.078125 
Q 23.296875 55.859375 23.296875 49.515625 
Q 23.296875 43.109375 25.78125 39.90625 
Q 28.265625 36.71875 33.203125 36.71875 
z
" id="DejaVuSans-Bold-57"/>
     </defs>
     <use transform="translate(0 0.015625)" xlink:href="#DejaVuSans-Bold-57"/>
     <use transform="translate(69.580078 0.015625)" xlink:href="#DejaVuSans-32"/>
     <use transform="translate(101.367188 0.015625)" xlink:href="#DejaVuSans-111"/>
     <use transform="translate(162.548828 0.015625)" xlink:href="#DejaVuSans-102"/>
     <use transform="translate(197.753906 0.015625)" xlink:href="#DejaVuSans-32"/>
     <use transform="translate(229.541016 0.015625)" xlink:href="#DejaVuSans-50"/>
     <use transform="translate(291.414062 0.015625)" xlink:href="#DejaVuSans-57"/>
     <use transform="translate(355.037109 0.015625)" xlink:href="#DejaVuSans-55"/>
     <use transform="translate(418.660156 0.015625)" xlink:href="#DejaVuSans-32"/>
     <use transform="translate(450.447266 0.015625)" xlink:href="#DejaVuSans-32"/>
    </g>
   </g>
   <g id="legend_4">
    <g id="patch_111">
     <path d="M 417.815234 36.190074 
L 527.593359 36.190074 
Q 529.593359 36.190074 529.593359 34.190074 
L 529.593359 9.333824 
Q 529.593359 7.333824 527.593359 7.333824 
L 417.815234 7.333824 
Q 415.815234 7.333824 415.815234 9.333824 
L 415.815234 34.190074 
Q 415.815234 36.190074 417.815234 36.190074 
z
" style="fill:#ffffff;opacity:0.8;stroke:#cccccc;stroke-linejoin:miter;"/>
    </g>
    <g id="text_79">
     <!-- Acc. goal DMP -->
     <g transform="translate(437.240234 18.932262)scale(0.1 -0.1)">
      <defs>
       <path d="M 34.1875 63.1875 
L 20.796875 26.90625 
L 47.609375 26.90625 
z
M 28.609375 72.90625 
L 39.796875 72.90625 
L 67.578125 0 
L 57.328125 0 
L 50.6875 18.703125 
L 17.828125 18.703125 
L 11.1875 0 
L 0.78125 0 
z
" id="DejaVuSans-65"/>
      </defs>
      <use xlink:href="#DejaVuSans-65"/>
      <use x="66.658203" xlink:href="#DejaVuSans-99"/>
      <use x="121.638672" xlink:href="#DejaVuSans-99"/>
      <use x="176.619141" xlink:href="#DejaVuSans-46"/>
      <use x="208.40625" xlink:href="#DejaVuSans-32"/>
      <use x="240.193359" xlink:href="#DejaVuSans-103"/>
      <use x="303.669922" xlink:href="#DejaVuSans-111"/>
      <use x="364.851562" xlink:href="#DejaVuSans-97"/>
      <use x="426.130859" xlink:href="#DejaVuSans-108"/>
      <use x="453.914062" xlink:href="#DejaVuSans-32"/>
      <use x="485.701172" xlink:href="#DejaVuSans-68"/>
      <use x="562.703125" xlink:href="#DejaVuSans-77"/>
      <use x="648.982422" xlink:href="#DejaVuSans-80"/>
     </g>
    </g>
    <g id="patch_112">
     <path d="M 419.815234 30.110387 
L 439.815234 30.110387 
L 439.815234 23.110387 
L 419.815234 23.110387 
z
" style="fill:#d62728;opacity:0.6;"/>
    </g>
    <g id="text_80">
     <!-- Success -->
     <g transform="translate(441.815234 30.110387)scale(0.1 -0.1)">
      <use xlink:href="#DejaVuSans-83"/>
      <use x="63.476562" xlink:href="#DejaVuSans-117"/>
      <use x="126.855469" xlink:href="#DejaVuSans-99"/>
      <use x="181.835938" xlink:href="#DejaVuSans-99"/>
      <use x="236.816406" xlink:href="#DejaVuSans-101"/>
      <use x="298.339844" xlink:href="#DejaVuSans-115"/>
      <use x="350.439453" xlink:href="#DejaVuSans-115"/>
     </g>
    </g>
    <g id="patch_113">
     <path d="M 487.069922 30.110387 
L 507.069922 30.110387 
L 507.069922 23.110387 
L 487.069922 23.110387 
z
" style="fill:url(#hf1cf7a661b);stroke:#ff0000;stroke-linejoin:miter;"/>
    </g>
    <g id="text_81">
     <!-- Fail -->
     <g transform="translate(509.069922 30.110387)scale(0.1 -0.1)">
      <use xlink:href="#DejaVuSans-70"/>
      <use x="48.394531" xlink:href="#DejaVuSans-97"/>
      <use x="109.673828" xlink:href="#DejaVuSans-105"/>
      <use x="137.457031" xlink:href="#DejaVuSans-108"/>
     </g>
    </g>
   </g>
  </g>
 </g>
 <defs>
  <clipPath id="pae59b4c195">
   <rect height="125.733275" width="108.057031" x="44.203125" y="41.910475"/>
  </clipPath>
  <clipPath id="pf281faaf37">
   <rect height="125.733275" width="108.057031" x="169.027344" y="41.910475"/>
  </clipPath>
  <clipPath id="p4de63a9e68">
   <rect height="125.733275" width="108.057031" x="293.851562" y="41.910475"/>
  </clipPath>
  <clipPath id="p22a79d7ea0">
   <rect height="125.733275" width="108.057031" x="418.675781" y="41.910475"/>
  </clipPath>
 </defs>
 <defs>
  <pattern height="72" id="h47cd84e4ff" patternUnits="userSpaceOnUse" width="72" x="0" y="0">
   <rect fill="#1f77b4" height="73" width="73" x="0" y="0"/>
   <path d="M -36 36 
L 36 -36 
M -32 40 
L 40 -32 
M -28 44 
L 44 -28 
M -24 48 
L 48 -24 
M -20 52 
L 52 -20 
M -16 56 
L 56 -16 
M -12 60 
L 60 -12 
M -8 64 
L 64 -8 
M -4 68 
L 68 -4 
M 0 72 
L 72 0 
M 4 76 
L 76 4 
M 8 80 
L 80 8 
M 12 84 
L 84 12 
M 16 88 
L 88 16 
M 20 92 
L 92 20 
M 24 96 
L 96 24 
M 28 100 
L 100 28 
M 32 104 
L 104 32 
M 36 108 
L 108 36 
" style="fill:#ff0000;stroke:#ff0000;stroke-linecap:butt;stroke-linejoin:miter;stroke-width:1.0;"/>
  </pattern>
  <pattern height="72" id="h02a229de67" patternUnits="userSpaceOnUse" width="72" x="0" y="0">
   <rect fill="#ff7f0e" height="73" width="73" x="0" y="0"/>
   <path d="M -36 36 
L 36 -36 
M -32 40 
L 40 -32 
M -28 44 
L 44 -28 
M -24 48 
L 48 -24 
M -20 52 
L 52 -20 
M -16 56 
L 56 -16 
M -12 60 
L 60 -12 
M -8 64 
L 64 -8 
M -4 68 
L 68 -4 
M 0 72 
L 72 0 
M 4 76 
L 76 4 
M 8 80 
L 80 8 
M 12 84 
L 84 12 
M 16 88 
L 88 16 
M 20 92 
L 92 20 
M 24 96 
L 96 24 
M 28 100 
L 100 28 
M 32 104 
L 104 32 
M 36 108 
L 108 36 
" style="fill:#ff0000;stroke:#ff0000;stroke-linecap:butt;stroke-linejoin:miter;stroke-width:1.0;"/>
  </pattern>
  <pattern height="72" id="h1e2f2e7f4a" patternUnits="userSpaceOnUse" width="72" x="0" y="0">
   <rect fill="#2ca02c" height="73" width="73" x="0" y="0"/>
   <path d="M -36 36 
L 36 -36 
M -32 40 
L 40 -32 
M -28 44 
L 44 -28 
M -24 48 
L 48 -24 
M -20 52 
L 52 -20 
M -16 56 
L 56 -16 
M -12 60 
L 60 -12 
M -8 64 
L 64 -8 
M -4 68 
L 68 -4 
M 0 72 
L 72 0 
M 4 76 
L 76 4 
M 8 80 
L 80 8 
M 12 84 
L 84 12 
M 16 88 
L 88 16 
M 20 92 
L 92 20 
M 24 96 
L 96 24 
M 28 100 
L 100 28 
M 32 104 
L 104 32 
M 36 108 
L 108 36 
" style="fill:#ff0000;stroke:#ff0000;stroke-linecap:butt;stroke-linejoin:miter;stroke-width:1.0;"/>
  </pattern>
  <pattern height="72" id="hf1cf7a661b" patternUnits="userSpaceOnUse" width="72" x="0" y="0">
   <rect fill="#d62728" height="73" width="73" x="0" y="0"/>
   <path d="M -36 36 
L 36 -36 
M -32 40 
L 40 -32 
M -28 44 
L 44 -28 
M -24 48 
L 48 -24 
M -20 52 
L 52 -20 
M -16 56 
L 56 -16 
M -12 60 
L 60 -12 
M -8 64 
L 64 -8 
M -4 68 
L 68 -4 
M 0 72 
L 72 0 
M 4 76 
L 76 4 
M 8 80 
L 80 8 
M 12 84 
L 84 12 
M 16 88 
L 88 16 
M 20 92 
L 92 20 
M 24 96 
L 96 24 
M 28 100 
L 100 28 
M 32 104 
L 104 32 
M 36 108 
L 108 36 
" style="fill:#ff0000;stroke:#ff0000;stroke-linecap:butt;stroke-linejoin:miter;stroke-width:1.0;"/>
  </pattern>
 </defs>
</svg>
