<?xml version="1.0" encoding="utf-8" standalone="no"?>
<!DOCTYPE svg PUBLIC "-//W3C//DTD SVG 1.1//EN"
  "http://www.w3.org/Graphics/SVG/1.1/DTD/svg11.dtd">
<!-- Created with matplotlib (https://matplotlib.org/) -->
<svg height="328.1525pt" version="1.1" viewBox="0 0 568.46125 328.1525" width="568.46125pt" xmlns="http://www.w3.org/2000/svg" xmlns:xlink="http://www.w3.org/1999/xlink">
 <metadata>
  <rdf:RDF xmlns:cc="http://creativecommons.org/ns#" xmlns:dc="http://purl.org/dc/elements/1.1/" xmlns:rdf="http://www.w3.org/1999/02/22-rdf-syntax-ns#">
   <cc:Work>
    <dc:type rdf:resource="http://purl.org/dc/dcmitype/StillImage"/>
    <dc:date>2022-08-03T00:04:05.771748</dc:date>
    <dc:format>image/svg+xml</dc:format>
    <dc:creator>
     <cc:Agent>
      <dc:title>Matplotlib v3.3.0, https://matplotlib.org/</dc:title>
     </cc:Agent>
    </dc:creator>
   </cc:Work>
  </rdf:RDF>
 </metadata>
 <defs>
  <style type="text/css">*{stroke-linecap:butt;stroke-linejoin:round;}</style>
 </defs>
 <g id="figure_1">
  <g id="patch_1">
   <path d="M 0 328.1525 
L 568.46125 328.1525 
L 568.46125 0 
L 0 0 
z
" style="fill:#ffffff;"/>
  </g>
  <g id="axes_1">
   <g id="patch_2">
    <path d="M 43.78125 290.59625 
L 277.452408 290.59625 
L 277.452408 55.534566 
L 43.78125 55.534566 
z
" style="fill:#ffffff;"/>
   </g>
   <g id="matplotlib.axis_1">
    <g id="xtick_1">
     <g id="line2d_1">
      <defs>
       <path d="M 0 0 
L 0 3.5 
" id="mfeb0a57c31" style="stroke:#000000;stroke-width:0.8;"/>
      </defs>
      <g>
       <use style="stroke:#000000;stroke-width:0.8;" x="54.402666" xlink:href="#mfeb0a57c31" y="290.59625"/>
      </g>
     </g>
     <g id="text_1">
      <!-- 0.0 -->
      <g transform="translate(46.451104 305.194687)scale(0.1 -0.1)">
       <defs>
        <path d="M 31.78125 66.40625 
Q 24.171875 66.40625 20.328125 58.90625 
Q 16.5 51.421875 16.5 36.375 
Q 16.5 21.390625 20.328125 13.890625 
Q 24.171875 6.390625 31.78125 6.390625 
Q 39.453125 6.390625 43.28125 13.890625 
Q 47.125 21.390625 47.125 36.375 
Q 47.125 51.421875 43.28125 58.90625 
Q 39.453125 66.40625 31.78125 66.40625 
z
M 31.78125 74.21875 
Q 44.046875 74.21875 50.515625 64.515625 
Q 56.984375 54.828125 56.984375 36.375 
Q 56.984375 17.96875 50.515625 8.265625 
Q 44.046875 -1.421875 31.78125 -1.421875 
Q 19.53125 -1.421875 13.0625 8.265625 
Q 6.59375 17.96875 6.59375 36.375 
Q 6.59375 54.828125 13.0625 64.515625 
Q 19.53125 74.21875 31.78125 74.21875 
z
" id="DejaVuSans-48"/>
        <path d="M 10.6875 12.40625 
L 21 12.40625 
L 21 0 
L 10.6875 0 
z
" id="DejaVuSans-46"/>
       </defs>
       <use xlink:href="#DejaVuSans-48"/>
       <use x="63.623047" xlink:href="#DejaVuSans-46"/>
       <use x="95.410156" xlink:href="#DejaVuSans-48"/>
      </g>
     </g>
    </g>
    <g id="xtick_2">
     <g id="line2d_2">
      <g>
       <use style="stroke:#000000;stroke-width:0.8;" x="92.6092" xlink:href="#mfeb0a57c31" y="290.59625"/>
      </g>
     </g>
     <g id="text_2">
      <!-- 2.5 -->
      <g transform="translate(84.657637 305.194687)scale(0.1 -0.1)">
       <defs>
        <path d="M 19.1875 8.296875 
L 53.609375 8.296875 
L 53.609375 0 
L 7.328125 0 
L 7.328125 8.296875 
Q 12.9375 14.109375 22.625 23.890625 
Q 32.328125 33.6875 34.8125 36.53125 
Q 39.546875 41.84375 41.421875 45.53125 
Q 43.3125 49.21875 43.3125 52.78125 
Q 43.3125 58.59375 39.234375 62.25 
Q 35.15625 65.921875 28.609375 65.921875 
Q 23.96875 65.921875 18.8125 64.3125 
Q 13.671875 62.703125 7.8125 59.421875 
L 7.8125 69.390625 
Q 13.765625 71.78125 18.9375 73 
Q 24.125 74.21875 28.421875 74.21875 
Q 39.75 74.21875 46.484375 68.546875 
Q 53.21875 62.890625 53.21875 53.421875 
Q 53.21875 48.921875 51.53125 44.890625 
Q 49.859375 40.875 45.40625 35.40625 
Q 44.1875 33.984375 37.640625 27.21875 
Q 31.109375 20.453125 19.1875 8.296875 
z
" id="DejaVuSans-50"/>
        <path d="M 10.796875 72.90625 
L 49.515625 72.90625 
L 49.515625 64.59375 
L 19.828125 64.59375 
L 19.828125 46.734375 
Q 21.96875 47.46875 24.109375 47.828125 
Q 26.265625 48.1875 28.421875 48.1875 
Q 40.625 48.1875 47.75 41.5 
Q 54.890625 34.8125 54.890625 23.390625 
Q 54.890625 11.625 47.5625 5.09375 
Q 40.234375 -1.421875 26.90625 -1.421875 
Q 22.3125 -1.421875 17.546875 -0.640625 
Q 12.796875 0.140625 7.71875 1.703125 
L 7.71875 11.625 
Q 12.109375 9.234375 16.796875 8.0625 
Q 21.484375 6.890625 26.703125 6.890625 
Q 35.15625 6.890625 40.078125 11.328125 
Q 45.015625 15.765625 45.015625 23.390625 
Q 45.015625 31 40.078125 35.4375 
Q 35.15625 39.890625 26.703125 39.890625 
Q 22.75 39.890625 18.8125 39.015625 
Q 14.890625 38.140625 10.796875 36.28125 
z
" id="DejaVuSans-53"/>
       </defs>
       <use xlink:href="#DejaVuSans-50"/>
       <use x="63.623047" xlink:href="#DejaVuSans-46"/>
       <use x="95.410156" xlink:href="#DejaVuSans-53"/>
      </g>
     </g>
    </g>
    <g id="xtick_3">
     <g id="line2d_3">
      <g>
       <use style="stroke:#000000;stroke-width:0.8;" x="130.815733" xlink:href="#mfeb0a57c31" y="290.59625"/>
      </g>
     </g>
     <g id="text_3">
      <!-- 5.0 -->
      <g transform="translate(122.86417 305.194687)scale(0.1 -0.1)">
       <use xlink:href="#DejaVuSans-53"/>
       <use x="63.623047" xlink:href="#DejaVuSans-46"/>
       <use x="95.410156" xlink:href="#DejaVuSans-48"/>
      </g>
     </g>
    </g>
    <g id="xtick_4">
     <g id="line2d_4">
      <g>
       <use style="stroke:#000000;stroke-width:0.8;" x="169.022266" xlink:href="#mfeb0a57c31" y="290.59625"/>
      </g>
     </g>
     <g id="text_4">
      <!-- 7.5 -->
      <g transform="translate(161.070704 305.194687)scale(0.1 -0.1)">
       <defs>
        <path d="M 8.203125 72.90625 
L 55.078125 72.90625 
L 55.078125 68.703125 
L 28.609375 0 
L 18.3125 0 
L 43.21875 64.59375 
L 8.203125 64.59375 
z
" id="DejaVuSans-55"/>
       </defs>
       <use xlink:href="#DejaVuSans-55"/>
       <use x="63.623047" xlink:href="#DejaVuSans-46"/>
       <use x="95.410156" xlink:href="#DejaVuSans-53"/>
      </g>
     </g>
    </g>
    <g id="xtick_5">
     <g id="line2d_5">
      <g>
       <use style="stroke:#000000;stroke-width:0.8;" x="207.228799" xlink:href="#mfeb0a57c31" y="290.59625"/>
      </g>
     </g>
     <g id="text_5">
      <!-- 10.0 -->
      <g transform="translate(196.095987 305.194687)scale(0.1 -0.1)">
       <defs>
        <path d="M 12.40625 8.296875 
L 28.515625 8.296875 
L 28.515625 63.921875 
L 10.984375 60.40625 
L 10.984375 69.390625 
L 28.421875 72.90625 
L 38.28125 72.90625 
L 38.28125 8.296875 
L 54.390625 8.296875 
L 54.390625 0 
L 12.40625 0 
z
" id="DejaVuSans-49"/>
       </defs>
       <use xlink:href="#DejaVuSans-49"/>
       <use x="63.623047" xlink:href="#DejaVuSans-48"/>
       <use x="127.246094" xlink:href="#DejaVuSans-46"/>
       <use x="159.033203" xlink:href="#DejaVuSans-48"/>
      </g>
     </g>
    </g>
    <g id="xtick_6">
     <g id="line2d_6">
      <g>
       <use style="stroke:#000000;stroke-width:0.8;" x="245.435333" xlink:href="#mfeb0a57c31" y="290.59625"/>
      </g>
     </g>
     <g id="text_6">
      <!-- 12.5 -->
      <g transform="translate(234.30252 305.194687)scale(0.1 -0.1)">
       <use xlink:href="#DejaVuSans-49"/>
       <use x="63.623047" xlink:href="#DejaVuSans-50"/>
       <use x="127.246094" xlink:href="#DejaVuSans-46"/>
       <use x="159.033203" xlink:href="#DejaVuSans-53"/>
      </g>
     </g>
    </g>
    <g id="text_7">
     <!-- Time (s) -->
     <g transform="translate(140.287923 318.872812)scale(0.1 -0.1)">
      <defs>
       <path d="M -0.296875 72.90625 
L 61.375 72.90625 
L 61.375 64.59375 
L 35.5 64.59375 
L 35.5 0 
L 25.59375 0 
L 25.59375 64.59375 
L -0.296875 64.59375 
z
" id="DejaVuSans-84"/>
       <path d="M 9.421875 54.6875 
L 18.40625 54.6875 
L 18.40625 0 
L 9.421875 0 
z
M 9.421875 75.984375 
L 18.40625 75.984375 
L 18.40625 64.59375 
L 9.421875 64.59375 
z
" id="DejaVuSans-105"/>
       <path d="M 52 44.1875 
Q 55.375 50.25 60.0625 53.125 
Q 64.75 56 71.09375 56 
Q 79.640625 56 84.28125 50.015625 
Q 88.921875 44.046875 88.921875 33.015625 
L 88.921875 0 
L 79.890625 0 
L 79.890625 32.71875 
Q 79.890625 40.578125 77.09375 44.375 
Q 74.3125 48.1875 68.609375 48.1875 
Q 61.625 48.1875 57.5625 43.546875 
Q 53.515625 38.921875 53.515625 30.90625 
L 53.515625 0 
L 44.484375 0 
L 44.484375 32.71875 
Q 44.484375 40.625 41.703125 44.40625 
Q 38.921875 48.1875 33.109375 48.1875 
Q 26.21875 48.1875 22.15625 43.53125 
Q 18.109375 38.875 18.109375 30.90625 
L 18.109375 0 
L 9.078125 0 
L 9.078125 54.6875 
L 18.109375 54.6875 
L 18.109375 46.1875 
Q 21.1875 51.21875 25.484375 53.609375 
Q 29.78125 56 35.6875 56 
Q 41.65625 56 45.828125 52.96875 
Q 50 49.953125 52 44.1875 
z
" id="DejaVuSans-109"/>
       <path d="M 56.203125 29.59375 
L 56.203125 25.203125 
L 14.890625 25.203125 
Q 15.484375 15.921875 20.484375 11.0625 
Q 25.484375 6.203125 34.421875 6.203125 
Q 39.59375 6.203125 44.453125 7.46875 
Q 49.3125 8.734375 54.109375 11.28125 
L 54.109375 2.78125 
Q 49.265625 0.734375 44.1875 -0.34375 
Q 39.109375 -1.421875 33.890625 -1.421875 
Q 20.796875 -1.421875 13.15625 6.1875 
Q 5.515625 13.8125 5.515625 26.8125 
Q 5.515625 40.234375 12.765625 48.109375 
Q 20.015625 56 32.328125 56 
Q 43.359375 56 49.78125 48.890625 
Q 56.203125 41.796875 56.203125 29.59375 
z
M 47.21875 32.234375 
Q 47.125 39.59375 43.09375 43.984375 
Q 39.0625 48.390625 32.421875 48.390625 
Q 24.90625 48.390625 20.390625 44.140625 
Q 15.875 39.890625 15.1875 32.171875 
z
" id="DejaVuSans-101"/>
       <path id="DejaVuSans-32"/>
       <path d="M 31 75.875 
Q 24.46875 64.65625 21.28125 53.65625 
Q 18.109375 42.671875 18.109375 31.390625 
Q 18.109375 20.125 21.3125 9.0625 
Q 24.515625 -2 31 -13.1875 
L 23.1875 -13.1875 
Q 15.875 -1.703125 12.234375 9.375 
Q 8.59375 20.453125 8.59375 31.390625 
Q 8.59375 42.28125 12.203125 53.3125 
Q 15.828125 64.359375 23.1875 75.875 
z
" id="DejaVuSans-40"/>
       <path d="M 44.28125 53.078125 
L 44.28125 44.578125 
Q 40.484375 46.53125 36.375 47.5 
Q 32.28125 48.484375 27.875 48.484375 
Q 21.1875 48.484375 17.84375 46.4375 
Q 14.5 44.390625 14.5 40.28125 
Q 14.5 37.15625 16.890625 35.375 
Q 19.28125 33.59375 26.515625 31.984375 
L 29.59375 31.296875 
Q 39.15625 29.25 43.1875 25.515625 
Q 47.21875 21.78125 47.21875 15.09375 
Q 47.21875 7.46875 41.1875 3.015625 
Q 35.15625 -1.421875 24.609375 -1.421875 
Q 20.21875 -1.421875 15.453125 -0.5625 
Q 10.6875 0.296875 5.421875 2 
L 5.421875 11.28125 
Q 10.40625 8.6875 15.234375 7.390625 
Q 20.0625 6.109375 24.8125 6.109375 
Q 31.15625 6.109375 34.5625 8.28125 
Q 37.984375 10.453125 37.984375 14.40625 
Q 37.984375 18.0625 35.515625 20.015625 
Q 33.0625 21.96875 24.703125 23.78125 
L 21.578125 24.515625 
Q 13.234375 26.265625 9.515625 29.90625 
Q 5.8125 33.546875 5.8125 39.890625 
Q 5.8125 47.609375 11.28125 51.796875 
Q 16.75 56 26.8125 56 
Q 31.78125 56 36.171875 55.265625 
Q 40.578125 54.546875 44.28125 53.078125 
z
" id="DejaVuSans-115"/>
       <path d="M 8.015625 75.875 
L 15.828125 75.875 
Q 23.140625 64.359375 26.78125 53.3125 
Q 30.421875 42.28125 30.421875 31.390625 
Q 30.421875 20.453125 26.78125 9.375 
Q 23.140625 -1.703125 15.828125 -13.1875 
L 8.015625 -13.1875 
Q 14.5 -2 17.703125 9.0625 
Q 20.90625 20.125 20.90625 31.390625 
Q 20.90625 42.671875 17.703125 53.65625 
Q 14.5 64.65625 8.015625 75.875 
z
" id="DejaVuSans-41"/>
      </defs>
      <use xlink:href="#DejaVuSans-84"/>
      <use x="57.958984" xlink:href="#DejaVuSans-105"/>
      <use x="85.742188" xlink:href="#DejaVuSans-109"/>
      <use x="183.154297" xlink:href="#DejaVuSans-101"/>
      <use x="244.677734" xlink:href="#DejaVuSans-32"/>
      <use x="276.464844" xlink:href="#DejaVuSans-40"/>
      <use x="315.478516" xlink:href="#DejaVuSans-115"/>
      <use x="367.578125" xlink:href="#DejaVuSans-41"/>
     </g>
    </g>
   </g>
   <g id="matplotlib.axis_2">
    <g id="ytick_1">
     <g id="line2d_7">
      <defs>
       <path d="M 0 0 
L -3.5 0 
" id="mcbf76eaed4" style="stroke:#000000;stroke-width:0.8;"/>
      </defs>
      <g>
       <use style="stroke:#000000;stroke-width:0.8;" x="43.78125" xlink:href="#mcbf76eaed4" y="279.911628"/>
      </g>
     </g>
     <g id="text_8">
      <!-- 0.0 -->
      <g transform="translate(20.878125 283.710847)scale(0.1 -0.1)">
       <use xlink:href="#DejaVuSans-48"/>
       <use x="63.623047" xlink:href="#DejaVuSans-46"/>
       <use x="95.410156" xlink:href="#DejaVuSans-48"/>
      </g>
     </g>
    </g>
    <g id="ytick_2">
     <g id="line2d_8">
      <g>
       <use style="stroke:#000000;stroke-width:0.8;" x="43.78125" xlink:href="#mcbf76eaed4" y="237.17314"/>
      </g>
     </g>
     <g id="text_9">
      <!-- 0.2 -->
      <g transform="translate(20.878125 240.972359)scale(0.1 -0.1)">
       <use xlink:href="#DejaVuSans-48"/>
       <use x="63.623047" xlink:href="#DejaVuSans-46"/>
       <use x="95.410156" xlink:href="#DejaVuSans-50"/>
      </g>
     </g>
    </g>
    <g id="ytick_3">
     <g id="line2d_9">
      <g>
       <use style="stroke:#000000;stroke-width:0.8;" x="43.78125" xlink:href="#mcbf76eaed4" y="194.434652"/>
      </g>
     </g>
     <g id="text_10">
      <!-- 0.4 -->
      <g transform="translate(20.878125 198.233871)scale(0.1 -0.1)">
       <defs>
        <path d="M 37.796875 64.3125 
L 12.890625 25.390625 
L 37.796875 25.390625 
z
M 35.203125 72.90625 
L 47.609375 72.90625 
L 47.609375 25.390625 
L 58.015625 25.390625 
L 58.015625 17.1875 
L 47.609375 17.1875 
L 47.609375 0 
L 37.796875 0 
L 37.796875 17.1875 
L 4.890625 17.1875 
L 4.890625 26.703125 
z
" id="DejaVuSans-52"/>
       </defs>
       <use xlink:href="#DejaVuSans-48"/>
       <use x="63.623047" xlink:href="#DejaVuSans-46"/>
       <use x="95.410156" xlink:href="#DejaVuSans-52"/>
      </g>
     </g>
    </g>
    <g id="ytick_4">
     <g id="line2d_10">
      <g>
       <use style="stroke:#000000;stroke-width:0.8;" x="43.78125" xlink:href="#mcbf76eaed4" y="151.696164"/>
      </g>
     </g>
     <g id="text_11">
      <!-- 0.6 -->
      <g transform="translate(20.878125 155.495383)scale(0.1 -0.1)">
       <defs>
        <path d="M 33.015625 40.375 
Q 26.375 40.375 22.484375 35.828125 
Q 18.609375 31.296875 18.609375 23.390625 
Q 18.609375 15.53125 22.484375 10.953125 
Q 26.375 6.390625 33.015625 6.390625 
Q 39.65625 6.390625 43.53125 10.953125 
Q 47.40625 15.53125 47.40625 23.390625 
Q 47.40625 31.296875 43.53125 35.828125 
Q 39.65625 40.375 33.015625 40.375 
z
M 52.59375 71.296875 
L 52.59375 62.3125 
Q 48.875 64.0625 45.09375 64.984375 
Q 41.3125 65.921875 37.59375 65.921875 
Q 27.828125 65.921875 22.671875 59.328125 
Q 17.53125 52.734375 16.796875 39.40625 
Q 19.671875 43.65625 24.015625 45.921875 
Q 28.375 48.1875 33.59375 48.1875 
Q 44.578125 48.1875 50.953125 41.515625 
Q 57.328125 34.859375 57.328125 23.390625 
Q 57.328125 12.15625 50.6875 5.359375 
Q 44.046875 -1.421875 33.015625 -1.421875 
Q 20.359375 -1.421875 13.671875 8.265625 
Q 6.984375 17.96875 6.984375 36.375 
Q 6.984375 53.65625 15.1875 63.9375 
Q 23.390625 74.21875 37.203125 74.21875 
Q 40.921875 74.21875 44.703125 73.484375 
Q 48.484375 72.75 52.59375 71.296875 
z
" id="DejaVuSans-54"/>
       </defs>
       <use xlink:href="#DejaVuSans-48"/>
       <use x="63.623047" xlink:href="#DejaVuSans-46"/>
       <use x="95.410156" xlink:href="#DejaVuSans-54"/>
      </g>
     </g>
    </g>
    <g id="ytick_5">
     <g id="line2d_11">
      <g>
       <use style="stroke:#000000;stroke-width:0.8;" x="43.78125" xlink:href="#mcbf76eaed4" y="108.957676"/>
      </g>
     </g>
     <g id="text_12">
      <!-- 0.8 -->
      <g transform="translate(20.878125 112.756895)scale(0.1 -0.1)">
       <defs>
        <path d="M 31.78125 34.625 
Q 24.75 34.625 20.71875 30.859375 
Q 16.703125 27.09375 16.703125 20.515625 
Q 16.703125 13.921875 20.71875 10.15625 
Q 24.75 6.390625 31.78125 6.390625 
Q 38.8125 6.390625 42.859375 10.171875 
Q 46.921875 13.96875 46.921875 20.515625 
Q 46.921875 27.09375 42.890625 30.859375 
Q 38.875 34.625 31.78125 34.625 
z
M 21.921875 38.8125 
Q 15.578125 40.375 12.03125 44.71875 
Q 8.5 49.078125 8.5 55.328125 
Q 8.5 64.0625 14.71875 69.140625 
Q 20.953125 74.21875 31.78125 74.21875 
Q 42.671875 74.21875 48.875 69.140625 
Q 55.078125 64.0625 55.078125 55.328125 
Q 55.078125 49.078125 51.53125 44.71875 
Q 48 40.375 41.703125 38.8125 
Q 48.828125 37.15625 52.796875 32.3125 
Q 56.78125 27.484375 56.78125 20.515625 
Q 56.78125 9.90625 50.3125 4.234375 
Q 43.84375 -1.421875 31.78125 -1.421875 
Q 19.734375 -1.421875 13.25 4.234375 
Q 6.78125 9.90625 6.78125 20.515625 
Q 6.78125 27.484375 10.78125 32.3125 
Q 14.796875 37.15625 21.921875 38.8125 
z
M 18.3125 54.390625 
Q 18.3125 48.734375 21.84375 45.5625 
Q 25.390625 42.390625 31.78125 42.390625 
Q 38.140625 42.390625 41.71875 45.5625 
Q 45.3125 48.734375 45.3125 54.390625 
Q 45.3125 60.0625 41.71875 63.234375 
Q 38.140625 66.40625 31.78125 66.40625 
Q 25.390625 66.40625 21.84375 63.234375 
Q 18.3125 60.0625 18.3125 54.390625 
z
" id="DejaVuSans-56"/>
       </defs>
       <use xlink:href="#DejaVuSans-48"/>
       <use x="63.623047" xlink:href="#DejaVuSans-46"/>
       <use x="95.410156" xlink:href="#DejaVuSans-56"/>
      </g>
     </g>
    </g>
    <g id="ytick_6">
     <g id="line2d_12">
      <g>
       <use style="stroke:#000000;stroke-width:0.8;" x="43.78125" xlink:href="#mcbf76eaed4" y="66.219188"/>
      </g>
     </g>
     <g id="text_13">
      <!-- 1.0 -->
      <g transform="translate(20.878125 70.018407)scale(0.1 -0.1)">
       <use xlink:href="#DejaVuSans-49"/>
       <use x="63.623047" xlink:href="#DejaVuSans-46"/>
       <use x="95.410156" xlink:href="#DejaVuSans-48"/>
      </g>
     </g>
    </g>
    <g id="text_14">
     <!-- Mean Magnitude of Throttle/Brake(Clipped) -->
     <g transform="translate(14.798438 281.171658)rotate(-90)scale(0.1 -0.1)">
      <defs>
       <path d="M 9.8125 72.90625 
L 24.515625 72.90625 
L 43.109375 23.296875 
L 61.8125 72.90625 
L 76.515625 72.90625 
L 76.515625 0 
L 66.890625 0 
L 66.890625 64.015625 
L 48.09375 14.015625 
L 38.1875 14.015625 
L 19.390625 64.015625 
L 19.390625 0 
L 9.8125 0 
z
" id="DejaVuSans-77"/>
       <path d="M 34.28125 27.484375 
Q 23.390625 27.484375 19.1875 25 
Q 14.984375 22.515625 14.984375 16.5 
Q 14.984375 11.71875 18.140625 8.90625 
Q 21.296875 6.109375 26.703125 6.109375 
Q 34.1875 6.109375 38.703125 11.40625 
Q 43.21875 16.703125 43.21875 25.484375 
L 43.21875 27.484375 
z
M 52.203125 31.203125 
L 52.203125 0 
L 43.21875 0 
L 43.21875 8.296875 
Q 40.140625 3.328125 35.546875 0.953125 
Q 30.953125 -1.421875 24.3125 -1.421875 
Q 15.921875 -1.421875 10.953125 3.296875 
Q 6 8.015625 6 15.921875 
Q 6 25.140625 12.171875 29.828125 
Q 18.359375 34.515625 30.609375 34.515625 
L 43.21875 34.515625 
L 43.21875 35.40625 
Q 43.21875 41.609375 39.140625 45 
Q 35.0625 48.390625 27.6875 48.390625 
Q 23 48.390625 18.546875 47.265625 
Q 14.109375 46.140625 10.015625 43.890625 
L 10.015625 52.203125 
Q 14.9375 54.109375 19.578125 55.046875 
Q 24.21875 56 28.609375 56 
Q 40.484375 56 46.34375 49.84375 
Q 52.203125 43.703125 52.203125 31.203125 
z
" id="DejaVuSans-97"/>
       <path d="M 54.890625 33.015625 
L 54.890625 0 
L 45.90625 0 
L 45.90625 32.71875 
Q 45.90625 40.484375 42.875 44.328125 
Q 39.84375 48.1875 33.796875 48.1875 
Q 26.515625 48.1875 22.3125 43.546875 
Q 18.109375 38.921875 18.109375 30.90625 
L 18.109375 0 
L 9.078125 0 
L 9.078125 54.6875 
L 18.109375 54.6875 
L 18.109375 46.1875 
Q 21.34375 51.125 25.703125 53.5625 
Q 30.078125 56 35.796875 56 
Q 45.21875 56 50.046875 50.171875 
Q 54.890625 44.34375 54.890625 33.015625 
z
" id="DejaVuSans-110"/>
       <path d="M 45.40625 27.984375 
Q 45.40625 37.75 41.375 43.109375 
Q 37.359375 48.484375 30.078125 48.484375 
Q 22.859375 48.484375 18.828125 43.109375 
Q 14.796875 37.75 14.796875 27.984375 
Q 14.796875 18.265625 18.828125 12.890625 
Q 22.859375 7.515625 30.078125 7.515625 
Q 37.359375 7.515625 41.375 12.890625 
Q 45.40625 18.265625 45.40625 27.984375 
z
M 54.390625 6.78125 
Q 54.390625 -7.171875 48.1875 -13.984375 
Q 42 -20.796875 29.203125 -20.796875 
Q 24.46875 -20.796875 20.265625 -20.09375 
Q 16.0625 -19.390625 12.109375 -17.921875 
L 12.109375 -9.1875 
Q 16.0625 -11.328125 19.921875 -12.34375 
Q 23.78125 -13.375 27.78125 -13.375 
Q 36.625 -13.375 41.015625 -8.765625 
Q 45.40625 -4.15625 45.40625 5.171875 
L 45.40625 9.625 
Q 42.625 4.78125 38.28125 2.390625 
Q 33.9375 0 27.875 0 
Q 17.828125 0 11.671875 7.65625 
Q 5.515625 15.328125 5.515625 27.984375 
Q 5.515625 40.671875 11.671875 48.328125 
Q 17.828125 56 27.875 56 
Q 33.9375 56 38.28125 53.609375 
Q 42.625 51.21875 45.40625 46.390625 
L 45.40625 54.6875 
L 54.390625 54.6875 
z
" id="DejaVuSans-103"/>
       <path d="M 18.3125 70.21875 
L 18.3125 54.6875 
L 36.8125 54.6875 
L 36.8125 47.703125 
L 18.3125 47.703125 
L 18.3125 18.015625 
Q 18.3125 11.328125 20.140625 9.421875 
Q 21.96875 7.515625 27.59375 7.515625 
L 36.8125 7.515625 
L 36.8125 0 
L 27.59375 0 
Q 17.1875 0 13.234375 3.875 
Q 9.28125 7.765625 9.28125 18.015625 
L 9.28125 47.703125 
L 2.6875 47.703125 
L 2.6875 54.6875 
L 9.28125 54.6875 
L 9.28125 70.21875 
z
" id="DejaVuSans-116"/>
       <path d="M 8.5 21.578125 
L 8.5 54.6875 
L 17.484375 54.6875 
L 17.484375 21.921875 
Q 17.484375 14.15625 20.5 10.265625 
Q 23.53125 6.390625 29.59375 6.390625 
Q 36.859375 6.390625 41.078125 11.03125 
Q 45.3125 15.671875 45.3125 23.6875 
L 45.3125 54.6875 
L 54.296875 54.6875 
L 54.296875 0 
L 45.3125 0 
L 45.3125 8.40625 
Q 42.046875 3.421875 37.71875 1 
Q 33.40625 -1.421875 27.6875 -1.421875 
Q 18.265625 -1.421875 13.375 4.4375 
Q 8.5 10.296875 8.5 21.578125 
z
M 31.109375 56 
z
" id="DejaVuSans-117"/>
       <path d="M 45.40625 46.390625 
L 45.40625 75.984375 
L 54.390625 75.984375 
L 54.390625 0 
L 45.40625 0 
L 45.40625 8.203125 
Q 42.578125 3.328125 38.25 0.953125 
Q 33.9375 -1.421875 27.875 -1.421875 
Q 17.96875 -1.421875 11.734375 6.484375 
Q 5.515625 14.40625 5.515625 27.296875 
Q 5.515625 40.1875 11.734375 48.09375 
Q 17.96875 56 27.875 56 
Q 33.9375 56 38.25 53.625 
Q 42.578125 51.265625 45.40625 46.390625 
z
M 14.796875 27.296875 
Q 14.796875 17.390625 18.875 11.75 
Q 22.953125 6.109375 30.078125 6.109375 
Q 37.203125 6.109375 41.296875 11.75 
Q 45.40625 17.390625 45.40625 27.296875 
Q 45.40625 37.203125 41.296875 42.84375 
Q 37.203125 48.484375 30.078125 48.484375 
Q 22.953125 48.484375 18.875 42.84375 
Q 14.796875 37.203125 14.796875 27.296875 
z
" id="DejaVuSans-100"/>
       <path d="M 30.609375 48.390625 
Q 23.390625 48.390625 19.1875 42.75 
Q 14.984375 37.109375 14.984375 27.296875 
Q 14.984375 17.484375 19.15625 11.84375 
Q 23.34375 6.203125 30.609375 6.203125 
Q 37.796875 6.203125 41.984375 11.859375 
Q 46.1875 17.53125 46.1875 27.296875 
Q 46.1875 37.015625 41.984375 42.703125 
Q 37.796875 48.390625 30.609375 48.390625 
z
M 30.609375 56 
Q 42.328125 56 49.015625 48.375 
Q 55.71875 40.765625 55.71875 27.296875 
Q 55.71875 13.875 49.015625 6.21875 
Q 42.328125 -1.421875 30.609375 -1.421875 
Q 18.84375 -1.421875 12.171875 6.21875 
Q 5.515625 13.875 5.515625 27.296875 
Q 5.515625 40.765625 12.171875 48.375 
Q 18.84375 56 30.609375 56 
z
" id="DejaVuSans-111"/>
       <path d="M 37.109375 75.984375 
L 37.109375 68.5 
L 28.515625 68.5 
Q 23.6875 68.5 21.796875 66.546875 
Q 19.921875 64.59375 19.921875 59.515625 
L 19.921875 54.6875 
L 34.71875 54.6875 
L 34.71875 47.703125 
L 19.921875 47.703125 
L 19.921875 0 
L 10.890625 0 
L 10.890625 47.703125 
L 2.296875 47.703125 
L 2.296875 54.6875 
L 10.890625 54.6875 
L 10.890625 58.5 
Q 10.890625 67.625 15.140625 71.796875 
Q 19.390625 75.984375 28.609375 75.984375 
z
" id="DejaVuSans-102"/>
       <path d="M 54.890625 33.015625 
L 54.890625 0 
L 45.90625 0 
L 45.90625 32.71875 
Q 45.90625 40.484375 42.875 44.328125 
Q 39.84375 48.1875 33.796875 48.1875 
Q 26.515625 48.1875 22.3125 43.546875 
Q 18.109375 38.921875 18.109375 30.90625 
L 18.109375 0 
L 9.078125 0 
L 9.078125 75.984375 
L 18.109375 75.984375 
L 18.109375 46.1875 
Q 21.34375 51.125 25.703125 53.5625 
Q 30.078125 56 35.796875 56 
Q 45.21875 56 50.046875 50.171875 
Q 54.890625 44.34375 54.890625 33.015625 
z
" id="DejaVuSans-104"/>
       <path d="M 41.109375 46.296875 
Q 39.59375 47.171875 37.8125 47.578125 
Q 36.03125 48 33.890625 48 
Q 26.265625 48 22.1875 43.046875 
Q 18.109375 38.09375 18.109375 28.8125 
L 18.109375 0 
L 9.078125 0 
L 9.078125 54.6875 
L 18.109375 54.6875 
L 18.109375 46.1875 
Q 20.953125 51.171875 25.484375 53.578125 
Q 30.03125 56 36.53125 56 
Q 37.453125 56 38.578125 55.875 
Q 39.703125 55.765625 41.0625 55.515625 
z
" id="DejaVuSans-114"/>
       <path d="M 9.421875 75.984375 
L 18.40625 75.984375 
L 18.40625 0 
L 9.421875 0 
z
" id="DejaVuSans-108"/>
       <path d="M 25.390625 72.90625 
L 33.6875 72.90625 
L 8.296875 -9.28125 
L 0 -9.28125 
z
" id="DejaVuSans-47"/>
       <path d="M 19.671875 34.8125 
L 19.671875 8.109375 
L 35.5 8.109375 
Q 43.453125 8.109375 47.28125 11.40625 
Q 51.125 14.703125 51.125 21.484375 
Q 51.125 28.328125 47.28125 31.5625 
Q 43.453125 34.8125 35.5 34.8125 
z
M 19.671875 64.796875 
L 19.671875 42.828125 
L 34.28125 42.828125 
Q 41.5 42.828125 45.03125 45.53125 
Q 48.578125 48.25 48.578125 53.8125 
Q 48.578125 59.328125 45.03125 62.0625 
Q 41.5 64.796875 34.28125 64.796875 
z
M 9.8125 72.90625 
L 35.015625 72.90625 
Q 46.296875 72.90625 52.390625 68.21875 
Q 58.5 63.53125 58.5 54.890625 
Q 58.5 48.1875 55.375 44.234375 
Q 52.25 40.28125 46.1875 39.3125 
Q 53.46875 37.75 57.5 32.78125 
Q 61.53125 27.828125 61.53125 20.40625 
Q 61.53125 10.640625 54.890625 5.3125 
Q 48.25 0 35.984375 0 
L 9.8125 0 
z
" id="DejaVuSans-66"/>
       <path d="M 9.078125 75.984375 
L 18.109375 75.984375 
L 18.109375 31.109375 
L 44.921875 54.6875 
L 56.390625 54.6875 
L 27.390625 29.109375 
L 57.625 0 
L 45.90625 0 
L 18.109375 26.703125 
L 18.109375 0 
L 9.078125 0 
z
" id="DejaVuSans-107"/>
       <path d="M 64.40625 67.28125 
L 64.40625 56.890625 
Q 59.421875 61.53125 53.78125 63.8125 
Q 48.140625 66.109375 41.796875 66.109375 
Q 29.296875 66.109375 22.65625 58.46875 
Q 16.015625 50.828125 16.015625 36.375 
Q 16.015625 21.96875 22.65625 14.328125 
Q 29.296875 6.6875 41.796875 6.6875 
Q 48.140625 6.6875 53.78125 8.984375 
Q 59.421875 11.28125 64.40625 15.921875 
L 64.40625 5.609375 
Q 59.234375 2.09375 53.4375 0.328125 
Q 47.65625 -1.421875 41.21875 -1.421875 
Q 24.65625 -1.421875 15.125 8.703125 
Q 5.609375 18.84375 5.609375 36.375 
Q 5.609375 53.953125 15.125 64.078125 
Q 24.65625 74.21875 41.21875 74.21875 
Q 47.75 74.21875 53.53125 72.484375 
Q 59.328125 70.75 64.40625 67.28125 
z
" id="DejaVuSans-67"/>
       <path d="M 18.109375 8.203125 
L 18.109375 -20.796875 
L 9.078125 -20.796875 
L 9.078125 54.6875 
L 18.109375 54.6875 
L 18.109375 46.390625 
Q 20.953125 51.265625 25.265625 53.625 
Q 29.59375 56 35.59375 56 
Q 45.5625 56 51.78125 48.09375 
Q 58.015625 40.1875 58.015625 27.296875 
Q 58.015625 14.40625 51.78125 6.484375 
Q 45.5625 -1.421875 35.59375 -1.421875 
Q 29.59375 -1.421875 25.265625 0.953125 
Q 20.953125 3.328125 18.109375 8.203125 
z
M 48.6875 27.296875 
Q 48.6875 37.203125 44.609375 42.84375 
Q 40.53125 48.484375 33.40625 48.484375 
Q 26.265625 48.484375 22.1875 42.84375 
Q 18.109375 37.203125 18.109375 27.296875 
Q 18.109375 17.390625 22.1875 11.75 
Q 26.265625 6.109375 33.40625 6.109375 
Q 40.53125 6.109375 44.609375 11.75 
Q 48.6875 17.390625 48.6875 27.296875 
z
" id="DejaVuSans-112"/>
      </defs>
      <use xlink:href="#DejaVuSans-77"/>
      <use x="86.279297" xlink:href="#DejaVuSans-101"/>
      <use x="147.802734" xlink:href="#DejaVuSans-97"/>
      <use x="209.082031" xlink:href="#DejaVuSans-110"/>
      <use x="272.460938" xlink:href="#DejaVuSans-32"/>
      <use x="304.248047" xlink:href="#DejaVuSans-77"/>
      <use x="390.527344" xlink:href="#DejaVuSans-97"/>
      <use x="451.806641" xlink:href="#DejaVuSans-103"/>
      <use x="515.283203" xlink:href="#DejaVuSans-110"/>
      <use x="578.662109" xlink:href="#DejaVuSans-105"/>
      <use x="606.445312" xlink:href="#DejaVuSans-116"/>
      <use x="645.654297" xlink:href="#DejaVuSans-117"/>
      <use x="709.033203" xlink:href="#DejaVuSans-100"/>
      <use x="772.509766" xlink:href="#DejaVuSans-101"/>
      <use x="834.033203" xlink:href="#DejaVuSans-32"/>
      <use x="865.820312" xlink:href="#DejaVuSans-111"/>
      <use x="927.001953" xlink:href="#DejaVuSans-102"/>
      <use x="962.207031" xlink:href="#DejaVuSans-32"/>
      <use x="993.994141" xlink:href="#DejaVuSans-84"/>
      <use x="1055.078125" xlink:href="#DejaVuSans-104"/>
      <use x="1118.457031" xlink:href="#DejaVuSans-114"/>
      <use x="1157.320312" xlink:href="#DejaVuSans-111"/>
      <use x="1218.501953" xlink:href="#DejaVuSans-116"/>
      <use x="1257.710938" xlink:href="#DejaVuSans-116"/>
      <use x="1296.919922" xlink:href="#DejaVuSans-108"/>
      <use x="1324.703125" xlink:href="#DejaVuSans-101"/>
      <use x="1386.226562" xlink:href="#DejaVuSans-47"/>
      <use x="1419.917969" xlink:href="#DejaVuSans-66"/>
      <use x="1488.521484" xlink:href="#DejaVuSans-114"/>
      <use x="1529.634766" xlink:href="#DejaVuSans-97"/>
      <use x="1590.914062" xlink:href="#DejaVuSans-107"/>
      <use x="1645.199219" xlink:href="#DejaVuSans-101"/>
      <use x="1706.722656" xlink:href="#DejaVuSans-40"/>
      <use x="1745.736328" xlink:href="#DejaVuSans-67"/>
      <use x="1815.560547" xlink:href="#DejaVuSans-108"/>
      <use x="1843.34375" xlink:href="#DejaVuSans-105"/>
      <use x="1871.126953" xlink:href="#DejaVuSans-112"/>
      <use x="1934.603516" xlink:href="#DejaVuSans-112"/>
      <use x="1998.080078" xlink:href="#DejaVuSans-101"/>
      <use x="2059.603516" xlink:href="#DejaVuSans-100"/>
      <use x="2123.080078" xlink:href="#DejaVuSans-41"/>
     </g>
    </g>
   </g>
   <g id="line2d_13">
    <path clip-path="url(#p14766c9f32)" d="M 54.402666 279.911628 
L 266.830991 279.911628 
L 266.830991 279.911628 
" style="fill:none;stroke:#000000;stroke-linecap:square;stroke-width:0.5;"/>
   </g>
   <g id="line2d_14">
    <path clip-path="url(#p14766c9f32)" d="M 54.402666 66.219188 
L 266.830991 66.219188 
L 266.830991 66.219188 
" style="fill:none;stroke:#000000;stroke-linecap:square;stroke-width:0.5;"/>
   </g>
   <g id="line2d_15">
    <path clip-path="url(#p14766c9f32)" d="M 54.402666 81.047201 
L 55.930928 82.849995 
L 57.459189 83.184281 
L 58.98745 82.063284 
L 60.515712 82.523192 
L 62.043973 85.097823 
L 63.572234 81.993608 
L 65.100496 81.350289 
L 66.628757 80.126576 
L 68.157018 81.819654 
L 69.68528 81.12235 
L 71.213541 78.779823 
L 72.741802 82.481744 
L 74.270064 81.345172 
L 75.798325 79.956017 
L 77.326586 81.813612 
L 78.854848 80.497444 
L 80.383109 78.781371 
L 81.91137 77.874545 
L 83.439632 77.102098 
L 84.967893 79.22655 
L 86.496154 79.372768 
L 88.024416 79.386284 
L 89.552677 77.82372 
L 91.080938 78.857113 
L 92.6092 78.667412 
L 94.137461 78.071992 
L 95.665722 75.464128 
L 97.193984 77.785149 
L 98.722245 76.518816 
L 100.250506 77.38714 
L 101.778768 77.688552 
L 103.307029 77.289458 
L 104.83529 77.676412 
L 106.363552 76.911834 
L 107.891813 77.821697 
L 109.420074 79.958228 
L 110.948336 77.910536 
L 112.476597 79.780488 
L 114.004858 79.618143 
L 115.53312 80.238304 
L 117.061381 79.872563 
L 118.589642 79.847524 
L 120.117904 77.316617 
L 121.646165 78.090258 
L 123.174426 77.904865 
L 124.702688 79.325741 
L 126.230949 77.20396 
L 127.75921 78.884228 
L 129.287472 76.791327 
L 132.343994 78.470437 
L 133.872256 78.943232 
L 135.400517 78.077719 
L 136.928778 78.879467 
L 138.457039 76.789384 
L 139.985301 77.664286 
L 141.513562 81.011693 
L 143.041823 81.621037 
L 144.570085 79.956784 
L 146.098346 79.519004 
L 147.626607 80.161486 
L 149.154869 79.357951 
L 150.68313 79.246994 
L 152.211391 78.99708 
L 153.739653 80.957279 
L 155.267914 80.762156 
L 156.796175 81.635971 
L 158.324437 78.950366 
L 159.852698 79.540036 
L 161.380959 78.875511 
L 162.909221 81.690376 
L 164.437482 81.590763 
L 167.494005 81.657555 
L 169.022266 78.45996 
L 170.550527 79.635067 
L 172.078789 79.206953 
L 173.60705 80.183576 
L 175.135311 81.293588 
L 176.663573 80.954286 
L 178.191834 80.101729 
L 179.720095 76.671009 
L 181.248357 79.322697 
L 182.776618 81.144267 
L 184.304879 81.832006 
L 185.833141 79.916885 
L 187.361402 79.10355 
L 188.889663 78.918446 
L 190.417925 80.770886 
L 191.946186 78.699744 
L 193.474447 82.260921 
L 195.002709 79.932512 
L 196.53097 79.743879 
L 198.059231 79.962207 
L 199.587493 81.959197 
L 201.115754 80.20353 
L 202.644015 81.208661 
L 204.172277 80.912276 
L 205.700538 79.48635 
L 207.228799 81.391086 
L 208.757061 81.786001 
L 210.285322 82.662742 
L 211.813583 78.57752 
L 213.341845 81.201618 
L 214.870106 82.254688 
L 216.398367 80.06986 
L 217.926629 82.260007 
L 219.45489 83.761423 
L 220.983151 83.184518 
L 222.511413 81.604874 
L 224.039674 82.873402 
L 225.567935 81.7243 
L 227.096197 81.244704 
L 228.624458 80.910142 
L 230.152719 78.30286 
L 231.680981 80.050563 
L 233.209242 80.878066 
L 234.737503 80.914558 
L 236.265765 81.42193 
L 237.794026 82.126253 
L 239.322287 80.543007 
L 240.850549 80.104859 
L 242.37881 78.171232 
L 243.907071 81.862802 
L 245.435333 80.178597 
L 246.963594 80.679951 
L 248.491855 82.110882 
L 250.020117 84.76262 
L 251.548378 82.341071 
L 253.076639 84.57639 
L 254.604901 82.881228 
L 256.133162 85.280957 
L 257.661423 83.386603 
L 260.717946 81.174464 
L 262.246207 83.372605 
L 263.774469 82.515906 
L 265.30273 82.357736 
L 266.830991 83.880416 
L 266.830991 83.880416 
" style="fill:none;stroke:#1f77b4;stroke-linecap:square;stroke-width:1.5;"/>
   </g>
   <g id="line2d_16">
    <path clip-path="url(#p14766c9f32)" d="M 54.402666 279.911628 
L 266.830991 279.911628 
L 266.830991 279.911628 
" style="fill:none;stroke:#000000;stroke-linecap:square;stroke-width:0.5;"/>
   </g>
   <g id="line2d_17">
    <path clip-path="url(#p14766c9f32)" d="M 54.402666 66.219188 
L 266.830991 66.219188 
L 266.830991 66.219188 
" style="fill:none;stroke:#000000;stroke-linecap:square;stroke-width:0.5;"/>
   </g>
   <g id="line2d_18">
    <path clip-path="url(#p14766c9f32)" d="M 54.402666 97.758192 
L 55.930928 103.178185 
L 57.459189 98.26108 
L 58.98745 96.815941 
L 60.515712 101.054325 
L 62.043973 91.701096 
L 65.100496 84.759343 
L 66.628757 88.442632 
L 68.157018 86.386372 
L 69.68528 86.627928 
L 71.213541 87.295886 
L 72.741802 87.588876 
L 74.270064 91.164485 
L 75.798325 90.514538 
L 77.326586 87.300151 
L 78.854848 83.819986 
L 80.383109 84.875862 
L 81.91137 78.895436 
L 83.439632 80.403257 
L 84.967893 81.277696 
L 86.496154 85.406203 
L 88.024416 82.105371 
L 89.552677 82.121573 
L 91.080938 80.766468 
L 92.6092 82.604953 
L 94.137461 81.842978 
L 95.665722 83.419667 
L 97.193984 83.102439 
L 98.722245 80.964111 
L 100.250506 79.258078 
L 101.778768 80.304629 
L 103.307029 82.860998 
L 104.83529 82.251322 
L 106.363552 82.460104 
L 107.891813 80.75023 
L 109.420074 82.354984 
L 110.948336 81.863244 
L 112.476597 81.970459 
L 114.004858 80.390803 
L 115.53312 80.375358 
L 117.061381 79.139738 
L 118.589642 79.003036 
L 120.117904 78.46761 
L 121.646165 78.789202 
L 123.174426 77.031499 
L 124.702688 77.838982 
L 126.230949 76.667418 
L 127.75921 78.200803 
L 130.815733 78.729999 
L 132.343994 81.600794 
L 133.872256 79.960397 
L 135.400517 79.69975 
L 136.928778 76.521189 
L 138.457039 76.41428 
L 139.985301 76.172285 
L 141.513562 81.407403 
L 143.041823 79.605434 
L 144.570085 78.729633 
L 146.098346 79.82861 
L 147.626607 80.257089 
L 149.154869 79.209023 
L 150.68313 78.798676 
L 152.211391 80.279318 
L 153.739653 77.031763 
L 155.267914 78.647287 
L 156.796175 80.081565 
L 158.324437 80.231059 
L 159.852698 78.268416 
L 161.380959 76.891859 
L 162.909221 81.699247 
L 164.437482 79.023653 
L 165.965743 78.294964 
L 167.494005 79.483335 
L 169.022266 79.65077 
L 170.550527 82.139592 
L 172.078789 81.936934 
L 173.60705 81.583726 
L 175.135311 79.169917 
L 176.663573 79.972685 
L 178.191834 79.061003 
L 179.720095 78.946707 
L 181.248357 79.645567 
L 182.776618 79.561844 
L 184.304879 79.195556 
L 185.833141 78.464497 
L 187.361402 80.305867 
L 188.889663 77.569619 
L 190.417925 80.186949 
L 191.946186 80.089208 
L 193.474447 78.014744 
L 195.002709 79.213276 
L 196.53097 78.01356 
L 198.059231 80.708431 
L 199.587493 77.29144 
L 201.115754 78.624234 
L 202.644015 78.959546 
L 204.172277 80.47417 
L 205.700538 79.542253 
L 207.228799 79.207847 
L 208.757061 80.436356 
L 210.285322 78.32835 
L 211.813583 80.691405 
L 213.341845 80.182614 
L 214.870106 77.671917 
L 216.398367 80.103368 
L 217.926629 78.630589 
L 219.45489 77.725553 
L 220.983151 78.617787 
L 222.511413 76.817015 
L 224.039674 80.899536 
L 225.567935 79.755273 
L 227.096197 80.984692 
L 230.152719 76.607915 
L 231.680981 78.787707 
L 233.209242 77.395255 
L 234.737503 77.654553 
L 236.265765 75.967287 
L 237.794026 78.283688 
L 239.322287 74.984154 
L 240.850549 76.240544 
L 242.37881 78.309891 
L 243.907071 77.596075 
L 245.435333 77.903019 
L 246.963594 77.142472 
L 248.491855 80.549081 
L 250.020117 77.856983 
L 251.548378 77.556006 
L 253.076639 78.520107 
L 254.604901 77.326512 
L 256.133162 77.707267 
L 257.661423 77.424101 
L 259.189685 76.772044 
L 260.717946 75.88343 
L 262.246207 76.345488 
L 263.774469 77.508558 
L 265.30273 77.964395 
L 266.830991 76.874337 
L 266.830991 76.874337 
" style="fill:none;stroke:#ff7f0e;stroke-linecap:square;stroke-width:1.5;"/>
   </g>
   <g id="line2d_19">
    <path clip-path="url(#p14766c9f32)" d="M 54.402666 279.911628 
L 266.830991 279.911628 
L 266.830991 279.911628 
" style="fill:none;stroke:#000000;stroke-linecap:square;stroke-width:0.5;"/>
   </g>
   <g id="line2d_20">
    <path clip-path="url(#p14766c9f32)" d="M 54.402666 66.219188 
L 266.830991 66.219188 
L 266.830991 66.219188 
" style="fill:none;stroke:#000000;stroke-linecap:square;stroke-width:0.5;"/>
   </g>
   <g id="line2d_21">
    <path clip-path="url(#p14766c9f32)" d="M 54.402666 125.414683 
L 55.930928 127.456277 
L 57.459189 142.158074 
L 58.98745 116.611887 
L 60.515712 108.652099 
L 63.572234 91.828029 
L 65.100496 92.936449 
L 66.628757 95.572581 
L 68.157018 93.656157 
L 69.68528 95.766278 
L 71.213541 90.248552 
L 72.741802 90.594061 
L 74.270064 90.475325 
L 75.798325 93.222019 
L 77.326586 90.124137 
L 78.854848 89.054252 
L 80.383109 89.823082 
L 81.91137 89.980203 
L 83.439632 91.344815 
L 84.967893 91.760337 
L 86.496154 91.901311 
L 88.024416 90.051245 
L 89.552677 91.124128 
L 91.080938 87.58899 
L 92.6092 90.312152 
L 94.137461 90.414705 
L 95.665722 87.225708 
L 97.193984 85.912091 
L 98.722245 90.469708 
L 100.250506 88.042245 
L 101.778768 90.588911 
L 103.307029 89.141258 
L 104.83529 88.244832 
L 106.363552 89.061992 
L 107.891813 90.377564 
L 109.420074 85.993659 
L 110.948336 86.95723 
L 112.476597 84.579867 
L 114.004858 85.675959 
L 115.53312 86.528058 
L 117.061381 85.773621 
L 118.589642 86.247261 
L 120.117904 86.450887 
L 121.646165 85.679909 
L 123.174426 85.043418 
L 124.702688 85.193516 
L 126.230949 83.165902 
L 127.75921 82.663619 
L 129.287472 82.677768 
L 130.815733 80.260966 
L 132.343994 78.68531 
L 133.872256 78.482142 
L 135.400517 80.521961 
L 136.928778 78.582743 
L 138.457039 78.88918 
L 139.985301 81.215997 
L 141.513562 81.594092 
L 143.041823 82.980133 
L 144.570085 81.74949 
L 146.098346 83.072301 
L 147.626607 83.896695 
L 149.154869 82.413399 
L 150.68313 83.316204 
L 152.211391 82.988177 
L 153.739653 82.535538 
L 155.267914 82.829827 
L 156.796175 82.824423 
L 158.324437 81.715988 
L 159.852698 82.718442 
L 161.380959 86.065808 
L 162.909221 83.201511 
L 164.437482 82.098753 
L 165.965743 83.810492 
L 167.494005 82.691089 
L 169.022266 84.656139 
L 170.550527 81.345864 
L 172.078789 81.610101 
L 173.60705 82.564586 
L 175.135311 83.073514 
L 176.663573 84.828434 
L 178.191834 84.070969 
L 179.720095 85.679491 
L 181.248357 85.868964 
L 182.776618 84.645717 
L 184.304879 84.719284 
L 185.833141 83.202978 
L 187.361402 83.984406 
L 188.889663 82.838141 
L 190.417925 85.167895 
L 191.946186 84.536127 
L 193.474447 84.186229 
L 195.002709 84.001905 
L 196.53097 85.679332 
L 198.059231 80.079939 
L 199.587493 81.651449 
L 201.115754 82.567191 
L 202.644015 83.142019 
L 204.172277 83.116638 
L 205.700538 85.271818 
L 207.228799 83.009623 
L 208.757061 79.74536 
L 210.285322 81.040723 
L 211.813583 81.072324 
L 213.341845 82.944999 
L 214.870106 80.663492 
L 216.398367 82.303467 
L 217.926629 81.75216 
L 219.45489 80.461215 
L 220.983151 81.135901 
L 222.511413 82.177008 
L 224.039674 81.671824 
L 225.567935 83.400522 
L 227.096197 83.422646 
L 228.624458 82.99011 
L 230.152719 83.905204 
L 231.680981 80.142681 
L 233.209242 79.919921 
L 234.737503 83.01815 
L 236.265765 84.28848 
L 237.794026 82.481364 
L 239.322287 82.262645 
L 240.850549 80.982782 
L 242.37881 81.253811 
L 243.907071 83.431184 
L 245.435333 81.750882 
L 246.963594 82.341235 
L 248.491855 82.236779 
L 250.020117 82.837277 
L 251.548378 83.716116 
L 253.076639 83.983114 
L 254.604901 85.029787 
L 256.133162 84.217309 
L 257.661423 83.573859 
L 260.717946 81.993895 
L 262.246207 83.078828 
L 263.774469 82.543129 
L 265.30273 83.290293 
L 266.830991 83.478768 
L 266.830991 83.478768 
" style="fill:none;stroke:#2ca02c;stroke-linecap:square;stroke-width:1.5;"/>
   </g>
   <g id="line2d_22">
    <path clip-path="url(#p14766c9f32)" d="M 54.402666 279.911628 
L 266.830991 279.911628 
L 266.830991 279.911628 
" style="fill:none;stroke:#000000;stroke-linecap:square;stroke-width:0.5;"/>
   </g>
   <g id="line2d_23">
    <path clip-path="url(#p14766c9f32)" d="M 54.402666 66.219188 
L 266.830991 66.219188 
L 266.830991 66.219188 
" style="fill:none;stroke:#000000;stroke-linecap:square;stroke-width:0.5;"/>
   </g>
   <g id="line2d_24">
    <path clip-path="url(#p14766c9f32)" d="M 54.402666 127.540974 
L 55.930928 130.610082 
L 57.459189 145.659556 
L 58.98745 123.118269 
L 60.515712 108.673154 
L 62.043973 100.996175 
L 63.572234 94.594282 
L 65.100496 90.310534 
L 66.628757 90.967222 
L 68.157018 93.34152 
L 69.68528 92.016328 
L 71.213541 89.143665 
L 72.741802 86.030632 
L 74.270064 90.271174 
L 75.798325 92.185735 
L 77.326586 91.95593 
L 78.854848 87.713745 
L 80.383109 86.50586 
L 81.91137 87.929478 
L 83.439632 91.481602 
L 84.967893 93.279287 
L 86.496154 92.856071 
L 88.024416 90.105632 
L 89.552677 88.42327 
L 91.080938 87.880754 
L 92.6092 88.829596 
L 94.137461 89.219627 
L 95.665722 88.060911 
L 97.193984 89.361583 
L 98.722245 85.86694 
L 100.250506 87.998688 
L 101.778768 88.222981 
L 103.307029 89.007313 
L 104.83529 91.391105 
L 106.363552 89.609358 
L 107.891813 88.060603 
L 110.948336 89.910232 
L 112.476597 89.346697 
L 114.004858 86.285628 
L 115.53312 86.415456 
L 117.061381 85.930304 
L 118.589642 84.807366 
L 121.646165 85.721786 
L 123.174426 86.417646 
L 124.702688 85.148933 
L 126.230949 83.255034 
L 127.75921 82.669582 
L 129.287472 81.785408 
L 133.872256 79.970704 
L 135.400517 80.43008 
L 136.928778 79.912383 
L 138.457039 80.625674 
L 139.985301 83.605404 
L 141.513562 85.664038 
L 143.041823 84.986933 
L 144.570085 83.19518 
L 146.098346 83.882363 
L 147.626607 83.213606 
L 149.154869 83.912066 
L 150.68313 84.384909 
L 152.211391 82.415248 
L 153.739653 83.369083 
L 155.267914 82.446414 
L 156.796175 82.181213 
L 158.324437 81.436738 
L 159.852698 83.428555 
L 161.380959 84.127821 
L 162.909221 85.089624 
L 164.437482 82.954573 
L 165.965743 85.427712 
L 167.494005 82.332536 
L 169.022266 81.349475 
L 170.550527 83.061405 
L 172.078789 80.271634 
L 173.60705 81.878254 
L 175.135311 84.900945 
L 176.663573 85.963076 
L 178.191834 85.055862 
L 179.720095 85.702445 
L 181.248357 84.719935 
L 182.776618 87.847888 
L 184.304879 84.830556 
L 185.833141 84.620205 
L 187.361402 84.82346 
L 188.889663 84.211209 
L 190.417925 85.548477 
L 191.946186 85.287307 
L 193.474447 83.183527 
L 195.002709 82.357198 
L 196.53097 80.499665 
L 198.059231 82.749381 
L 199.587493 81.540257 
L 201.115754 84.011967 
L 202.644015 83.331707 
L 204.172277 84.947149 
L 205.700538 84.359309 
L 207.228799 80.485181 
L 208.757061 81.345208 
L 210.285322 79.787269 
L 211.813583 81.168437 
L 213.341845 81.206651 
L 214.870106 80.328595 
L 216.398367 81.781765 
L 217.926629 83.447072 
L 219.45489 82.777947 
L 220.983151 83.190762 
L 222.511413 83.474439 
L 224.039674 86.512612 
L 225.567935 86.326996 
L 227.096197 82.963161 
L 228.624458 83.197822 
L 230.152719 81.089476 
L 231.680981 81.284117 
L 233.209242 83.971869 
L 234.737503 82.677179 
L 236.265765 82.977288 
L 239.322287 84.287608 
L 240.850549 84.597004 
L 242.37881 85.717326 
L 243.907071 85.57626 
L 245.435333 86.794213 
L 246.963594 85.592458 
L 248.491855 84.792836 
L 250.020117 85.156595 
L 251.548378 84.688017 
L 253.076639 86.262648 
L 254.604901 87.197031 
L 256.133162 85.48436 
L 257.661423 86.180869 
L 259.189685 84.520167 
L 260.717946 83.536205 
L 262.246207 84.712777 
L 263.774469 81.833637 
L 265.30273 82.334684 
L 266.830991 80.563692 
L 266.830991 80.563692 
" style="fill:none;stroke:#d62728;stroke-linecap:square;stroke-width:1.5;"/>
   </g>
   <g id="patch_3">
    <path d="M 43.78125 290.59625 
L 43.78125 55.534566 
" style="fill:none;stroke:#000000;stroke-linecap:square;stroke-linejoin:miter;stroke-width:0.8;"/>
   </g>
   <g id="patch_4">
    <path d="M 277.452408 290.59625 
L 277.452408 55.534566 
" style="fill:none;stroke:#000000;stroke-linecap:square;stroke-linejoin:miter;stroke-width:0.8;"/>
   </g>
   <g id="patch_5">
    <path d="M 43.78125 290.59625 
L 277.452408 290.59625 
" style="fill:none;stroke:#000000;stroke-linecap:square;stroke-linejoin:miter;stroke-width:0.8;"/>
   </g>
   <g id="patch_6">
    <path d="M 43.78125 55.534566 
L 277.452408 55.534566 
" style="fill:none;stroke:#000000;stroke-linecap:square;stroke-linejoin:miter;stroke-width:0.8;"/>
   </g>
  </g>
  <g id="axes_2">
   <g id="patch_7">
    <path d="M 327.590092 290.59625 
L 561.26125 290.59625 
L 561.26125 55.534566 
L 327.590092 55.534566 
z
" style="fill:#ffffff;"/>
   </g>
   <g id="matplotlib.axis_3">
    <g id="xtick_7">
     <g id="line2d_25">
      <g>
       <use style="stroke:#000000;stroke-width:0.8;" x="338.211509" xlink:href="#mfeb0a57c31" y="290.59625"/>
      </g>
     </g>
     <g id="text_15">
      <!-- −1.0 -->
      <g transform="translate(326.070102 305.194687)scale(0.1 -0.1)">
       <defs>
        <path d="M 10.59375 35.5 
L 73.1875 35.5 
L 73.1875 27.203125 
L 10.59375 27.203125 
z
" id="DejaVuSans-8722"/>
       </defs>
       <use xlink:href="#DejaVuSans-8722"/>
       <use x="83.789062" xlink:href="#DejaVuSans-49"/>
       <use x="147.412109" xlink:href="#DejaVuSans-46"/>
       <use x="179.199219" xlink:href="#DejaVuSans-48"/>
      </g>
     </g>
    </g>
    <g id="xtick_8">
     <g id="line2d_26">
      <g>
       <use style="stroke:#000000;stroke-width:0.8;" x="391.31859" xlink:href="#mfeb0a57c31" y="290.59625"/>
      </g>
     </g>
     <g id="text_16">
      <!-- −0.5 -->
      <g transform="translate(379.177184 305.194687)scale(0.1 -0.1)">
       <use xlink:href="#DejaVuSans-8722"/>
       <use x="83.789062" xlink:href="#DejaVuSans-48"/>
       <use x="147.412109" xlink:href="#DejaVuSans-46"/>
       <use x="179.199219" xlink:href="#DejaVuSans-53"/>
      </g>
     </g>
    </g>
    <g id="xtick_9">
     <g id="line2d_27">
      <g>
       <use style="stroke:#000000;stroke-width:0.8;" x="444.425671" xlink:href="#mfeb0a57c31" y="290.59625"/>
      </g>
     </g>
     <g id="text_17">
      <!-- 0.0 -->
      <g transform="translate(436.474109 305.194687)scale(0.1 -0.1)">
       <use xlink:href="#DejaVuSans-48"/>
       <use x="63.623047" xlink:href="#DejaVuSans-46"/>
       <use x="95.410156" xlink:href="#DejaVuSans-48"/>
      </g>
     </g>
    </g>
    <g id="xtick_10">
     <g id="line2d_28">
      <g>
       <use style="stroke:#000000;stroke-width:0.8;" x="497.532752" xlink:href="#mfeb0a57c31" y="290.59625"/>
      </g>
     </g>
     <g id="text_18">
      <!-- 0.5 -->
      <g transform="translate(489.58119 305.194687)scale(0.1 -0.1)">
       <use xlink:href="#DejaVuSans-48"/>
       <use x="63.623047" xlink:href="#DejaVuSans-46"/>
       <use x="95.410156" xlink:href="#DejaVuSans-53"/>
      </g>
     </g>
    </g>
    <g id="xtick_11">
     <g id="line2d_29">
      <g>
       <use style="stroke:#000000;stroke-width:0.8;" x="550.639834" xlink:href="#mfeb0a57c31" y="290.59625"/>
      </g>
     </g>
     <g id="text_19">
      <!-- 1.0 -->
      <g transform="translate(542.688271 305.194687)scale(0.1 -0.1)">
       <use xlink:href="#DejaVuSans-49"/>
       <use x="63.623047" xlink:href="#DejaVuSans-46"/>
       <use x="95.410156" xlink:href="#DejaVuSans-48"/>
      </g>
     </g>
    </g>
    <g id="text_20">
     <!-- Throttle/Brake (Clipped) -->
     <g transform="translate(384.430359 318.872812)scale(0.1 -0.1)">
      <use xlink:href="#DejaVuSans-84"/>
      <use x="61.083984" xlink:href="#DejaVuSans-104"/>
      <use x="124.462891" xlink:href="#DejaVuSans-114"/>
      <use x="163.326172" xlink:href="#DejaVuSans-111"/>
      <use x="224.507812" xlink:href="#DejaVuSans-116"/>
      <use x="263.716797" xlink:href="#DejaVuSans-116"/>
      <use x="302.925781" xlink:href="#DejaVuSans-108"/>
      <use x="330.708984" xlink:href="#DejaVuSans-101"/>
      <use x="392.232422" xlink:href="#DejaVuSans-47"/>
      <use x="425.923828" xlink:href="#DejaVuSans-66"/>
      <use x="494.527344" xlink:href="#DejaVuSans-114"/>
      <use x="535.640625" xlink:href="#DejaVuSans-97"/>
      <use x="596.919922" xlink:href="#DejaVuSans-107"/>
      <use x="651.205078" xlink:href="#DejaVuSans-101"/>
      <use x="712.728516" xlink:href="#DejaVuSans-32"/>
      <use x="744.515625" xlink:href="#DejaVuSans-40"/>
      <use x="783.529297" xlink:href="#DejaVuSans-67"/>
      <use x="853.353516" xlink:href="#DejaVuSans-108"/>
      <use x="881.136719" xlink:href="#DejaVuSans-105"/>
      <use x="908.919922" xlink:href="#DejaVuSans-112"/>
      <use x="972.396484" xlink:href="#DejaVuSans-112"/>
      <use x="1035.873047" xlink:href="#DejaVuSans-101"/>
      <use x="1097.396484" xlink:href="#DejaVuSans-100"/>
      <use x="1160.873047" xlink:href="#DejaVuSans-41"/>
     </g>
    </g>
   </g>
   <g id="matplotlib.axis_4">
    <g id="ytick_7">
     <g id="line2d_30">
      <g>
       <use style="stroke:#000000;stroke-width:0.8;" x="327.590092" xlink:href="#mcbf76eaed4" y="257.955033"/>
      </g>
     </g>
     <g id="text_21">
      <!-- $\mathdefault{10^{3}}$ -->
      <g transform="translate(302.990092 261.754252)scale(0.1 -0.1)">
       <defs>
        <path d="M 40.578125 39.3125 
Q 47.65625 37.796875 51.625 33 
Q 55.609375 28.21875 55.609375 21.1875 
Q 55.609375 10.40625 48.1875 4.484375 
Q 40.765625 -1.421875 27.09375 -1.421875 
Q 22.515625 -1.421875 17.65625 -0.515625 
Q 12.796875 0.390625 7.625 2.203125 
L 7.625 11.71875 
Q 11.71875 9.328125 16.59375 8.109375 
Q 21.484375 6.890625 26.8125 6.890625 
Q 36.078125 6.890625 40.9375 10.546875 
Q 45.796875 14.203125 45.796875 21.1875 
Q 45.796875 27.640625 41.28125 31.265625 
Q 36.765625 34.90625 28.71875 34.90625 
L 20.21875 34.90625 
L 20.21875 43.015625 
L 29.109375 43.015625 
Q 36.375 43.015625 40.234375 45.921875 
Q 44.09375 48.828125 44.09375 54.296875 
Q 44.09375 59.90625 40.109375 62.90625 
Q 36.140625 65.921875 28.71875 65.921875 
Q 24.65625 65.921875 20.015625 65.03125 
Q 15.375 64.15625 9.8125 62.3125 
L 9.8125 71.09375 
Q 15.4375 72.65625 20.34375 73.4375 
Q 25.25 74.21875 29.59375 74.21875 
Q 40.828125 74.21875 47.359375 69.109375 
Q 53.90625 64.015625 53.90625 55.328125 
Q 53.90625 49.265625 50.4375 45.09375 
Q 46.96875 40.921875 40.578125 39.3125 
z
" id="DejaVuSans-51"/>
       </defs>
       <use transform="translate(0 0.765625)" xlink:href="#DejaVuSans-49"/>
       <use transform="translate(63.623047 0.765625)" xlink:href="#DejaVuSans-48"/>
       <use transform="translate(128.203125 39.046875)scale(0.7)" xlink:href="#DejaVuSans-51"/>
      </g>
     </g>
    </g>
    <g id="ytick_8">
     <g id="line2d_31">
      <g>
       <use style="stroke:#000000;stroke-width:0.8;" x="327.590092" xlink:href="#mcbf76eaed4" y="159.626724"/>
      </g>
     </g>
     <g id="text_22">
      <!-- $\mathdefault{10^{4}}$ -->
      <g transform="translate(302.990092 163.425943)scale(0.1 -0.1)">
       <use transform="translate(0 0.684375)" xlink:href="#DejaVuSans-49"/>
       <use transform="translate(63.623047 0.684375)" xlink:href="#DejaVuSans-48"/>
       <use transform="translate(128.203125 38.965625)scale(0.7)" xlink:href="#DejaVuSans-52"/>
      </g>
     </g>
    </g>
    <g id="ytick_9">
     <g id="line2d_32">
      <g>
       <use style="stroke:#000000;stroke-width:0.8;" x="327.590092" xlink:href="#mcbf76eaed4" y="61.298415"/>
      </g>
     </g>
     <g id="text_23">
      <!-- $\mathdefault{10^{5}}$ -->
      <g transform="translate(302.990092 65.097634)scale(0.1 -0.1)">
       <use transform="translate(0 0.684375)" xlink:href="#DejaVuSans-49"/>
       <use transform="translate(63.623047 0.684375)" xlink:href="#DejaVuSans-48"/>
       <use transform="translate(128.203125 38.965625)scale(0.7)" xlink:href="#DejaVuSans-53"/>
      </g>
     </g>
    </g>
    <g id="ytick_10">
     <g id="line2d_33">
      <defs>
       <path d="M 0 0 
L -2 0 
" id="m6dedd89302" style="stroke:#000000;stroke-width:0.6;"/>
      </defs>
      <g>
       <use style="stroke:#000000;stroke-width:0.6;" x="327.590092" xlink:href="#m6dedd89302" y="287.554803"/>
      </g>
     </g>
    </g>
    <g id="ytick_11">
     <g id="line2d_34">
      <g>
       <use style="stroke:#000000;stroke-width:0.6;" x="327.590092" xlink:href="#m6dedd89302" y="279.769045"/>
      </g>
     </g>
    </g>
    <g id="ytick_12">
     <g id="line2d_35">
      <g>
       <use style="stroke:#000000;stroke-width:0.6;" x="327.590092" xlink:href="#m6dedd89302" y="273.186281"/>
      </g>
     </g>
    </g>
    <g id="ytick_13">
     <g id="line2d_36">
      <g>
       <use style="stroke:#000000;stroke-width:0.6;" x="327.590092" xlink:href="#m6dedd89302" y="267.484031"/>
      </g>
     </g>
    </g>
    <g id="ytick_14">
     <g id="line2d_37">
      <g>
       <use style="stroke:#000000;stroke-width:0.6;" x="327.590092" xlink:href="#m6dedd89302" y="262.45429"/>
      </g>
     </g>
    </g>
    <g id="ytick_15">
     <g id="line2d_38">
      <g>
       <use style="stroke:#000000;stroke-width:0.6;" x="327.590092" xlink:href="#m6dedd89302" y="228.355263"/>
      </g>
     </g>
    </g>
    <g id="ytick_16">
     <g id="line2d_39">
      <g>
       <use style="stroke:#000000;stroke-width:0.6;" x="327.590092" xlink:href="#m6dedd89302" y="211.040507"/>
      </g>
     </g>
    </g>
    <g id="ytick_17">
     <g id="line2d_40">
      <g>
       <use style="stroke:#000000;stroke-width:0.6;" x="327.590092" xlink:href="#m6dedd89302" y="198.755492"/>
      </g>
     </g>
    </g>
    <g id="ytick_18">
     <g id="line2d_41">
      <g>
       <use style="stroke:#000000;stroke-width:0.6;" x="327.590092" xlink:href="#m6dedd89302" y="189.226494"/>
      </g>
     </g>
    </g>
    <g id="ytick_19">
     <g id="line2d_42">
      <g>
       <use style="stroke:#000000;stroke-width:0.6;" x="327.590092" xlink:href="#m6dedd89302" y="181.440736"/>
      </g>
     </g>
    </g>
    <g id="ytick_20">
     <g id="line2d_43">
      <g>
       <use style="stroke:#000000;stroke-width:0.6;" x="327.590092" xlink:href="#m6dedd89302" y="174.857972"/>
      </g>
     </g>
    </g>
    <g id="ytick_21">
     <g id="line2d_44">
      <g>
       <use style="stroke:#000000;stroke-width:0.6;" x="327.590092" xlink:href="#m6dedd89302" y="169.155722"/>
      </g>
     </g>
    </g>
    <g id="ytick_22">
     <g id="line2d_45">
      <g>
       <use style="stroke:#000000;stroke-width:0.6;" x="327.590092" xlink:href="#m6dedd89302" y="164.125981"/>
      </g>
     </g>
    </g>
    <g id="ytick_23">
     <g id="line2d_46">
      <g>
       <use style="stroke:#000000;stroke-width:0.6;" x="327.590092" xlink:href="#m6dedd89302" y="130.026954"/>
      </g>
     </g>
    </g>
    <g id="ytick_24">
     <g id="line2d_47">
      <g>
       <use style="stroke:#000000;stroke-width:0.6;" x="327.590092" xlink:href="#m6dedd89302" y="112.712198"/>
      </g>
     </g>
    </g>
    <g id="ytick_25">
     <g id="line2d_48">
      <g>
       <use style="stroke:#000000;stroke-width:0.6;" x="327.590092" xlink:href="#m6dedd89302" y="100.427183"/>
      </g>
     </g>
    </g>
    <g id="ytick_26">
     <g id="line2d_49">
      <g>
       <use style="stroke:#000000;stroke-width:0.6;" x="327.590092" xlink:href="#m6dedd89302" y="90.898185"/>
      </g>
     </g>
    </g>
    <g id="ytick_27">
     <g id="line2d_50">
      <g>
       <use style="stroke:#000000;stroke-width:0.6;" x="327.590092" xlink:href="#m6dedd89302" y="83.112427"/>
      </g>
     </g>
    </g>
    <g id="ytick_28">
     <g id="line2d_51">
      <g>
       <use style="stroke:#000000;stroke-width:0.6;" x="327.590092" xlink:href="#m6dedd89302" y="76.529663"/>
      </g>
     </g>
    </g>
    <g id="ytick_29">
     <g id="line2d_52">
      <g>
       <use style="stroke:#000000;stroke-width:0.6;" x="327.590092" xlink:href="#m6dedd89302" y="70.827413"/>
      </g>
     </g>
    </g>
    <g id="ytick_30">
     <g id="line2d_53">
      <g>
       <use style="stroke:#000000;stroke-width:0.6;" x="327.590092" xlink:href="#m6dedd89302" y="65.797672"/>
      </g>
     </g>
    </g>
    <g id="text_24">
     <!-- Frequency -->
     <g transform="translate(296.910405 198.895095)rotate(-90)scale(0.1 -0.1)">
      <defs>
       <path d="M 9.8125 72.90625 
L 51.703125 72.90625 
L 51.703125 64.59375 
L 19.671875 64.59375 
L 19.671875 43.109375 
L 48.578125 43.109375 
L 48.578125 34.8125 
L 19.671875 34.8125 
L 19.671875 0 
L 9.8125 0 
z
" id="DejaVuSans-70"/>
       <path d="M 14.796875 27.296875 
Q 14.796875 17.390625 18.875 11.75 
Q 22.953125 6.109375 30.078125 6.109375 
Q 37.203125 6.109375 41.296875 11.75 
Q 45.40625 17.390625 45.40625 27.296875 
Q 45.40625 37.203125 41.296875 42.84375 
Q 37.203125 48.484375 30.078125 48.484375 
Q 22.953125 48.484375 18.875 42.84375 
Q 14.796875 37.203125 14.796875 27.296875 
z
M 45.40625 8.203125 
Q 42.578125 3.328125 38.25 0.953125 
Q 33.9375 -1.421875 27.875 -1.421875 
Q 17.96875 -1.421875 11.734375 6.484375 
Q 5.515625 14.40625 5.515625 27.296875 
Q 5.515625 40.1875 11.734375 48.09375 
Q 17.96875 56 27.875 56 
Q 33.9375 56 38.25 53.625 
Q 42.578125 51.265625 45.40625 46.390625 
L 45.40625 54.6875 
L 54.390625 54.6875 
L 54.390625 -20.796875 
L 45.40625 -20.796875 
z
" id="DejaVuSans-113"/>
       <path d="M 48.78125 52.59375 
L 48.78125 44.1875 
Q 44.96875 46.296875 41.140625 47.34375 
Q 37.3125 48.390625 33.40625 48.390625 
Q 24.65625 48.390625 19.8125 42.84375 
Q 14.984375 37.3125 14.984375 27.296875 
Q 14.984375 17.28125 19.8125 11.734375 
Q 24.65625 6.203125 33.40625 6.203125 
Q 37.3125 6.203125 41.140625 7.25 
Q 44.96875 8.296875 48.78125 10.40625 
L 48.78125 2.09375 
Q 45.015625 0.34375 40.984375 -0.53125 
Q 36.96875 -1.421875 32.421875 -1.421875 
Q 20.0625 -1.421875 12.78125 6.34375 
Q 5.515625 14.109375 5.515625 27.296875 
Q 5.515625 40.671875 12.859375 48.328125 
Q 20.21875 56 33.015625 56 
Q 37.15625 56 41.109375 55.140625 
Q 45.0625 54.296875 48.78125 52.59375 
z
" id="DejaVuSans-99"/>
       <path d="M 32.171875 -5.078125 
Q 28.375 -14.84375 24.75 -17.8125 
Q 21.140625 -20.796875 15.09375 -20.796875 
L 7.90625 -20.796875 
L 7.90625 -13.28125 
L 13.1875 -13.28125 
Q 16.890625 -13.28125 18.9375 -11.515625 
Q 21 -9.765625 23.484375 -3.21875 
L 25.09375 0.875 
L 2.984375 54.6875 
L 12.5 54.6875 
L 29.59375 11.921875 
L 46.6875 54.6875 
L 56.203125 54.6875 
z
" id="DejaVuSans-121"/>
      </defs>
      <use xlink:href="#DejaVuSans-70"/>
      <use x="50.269531" xlink:href="#DejaVuSans-114"/>
      <use x="89.132812" xlink:href="#DejaVuSans-101"/>
      <use x="150.65625" xlink:href="#DejaVuSans-113"/>
      <use x="214.132812" xlink:href="#DejaVuSans-117"/>
      <use x="277.511719" xlink:href="#DejaVuSans-101"/>
      <use x="339.035156" xlink:href="#DejaVuSans-110"/>
      <use x="402.414062" xlink:href="#DejaVuSans-99"/>
      <use x="457.394531" xlink:href="#DejaVuSans-121"/>
     </g>
    </g>
   </g>
   <g id="patch_8">
    <path clip-path="url(#p63349a9a38)" d="M 338.211509 329.1525 
L 338.211509 130.828717 
L 359.454341 130.828717 
L 359.454341 249.709142 
L 380.697174 249.709142 
L 380.697174 254.431947 
L 401.940006 254.431947 
L 401.940006 245.076316 
L 423.182839 245.076316 
L 423.182839 242.950715 
L 444.425671 242.950715 
L 444.425671 250.240507 
L 465.668504 250.240507 
L 465.668504 248.631505 
L 486.911336 248.631505 
L 486.911336 246.066863 
L 508.154169 246.066863 
L 508.154169 236.518474 
L 529.397001 236.518474 
L 529.397001 67.911724 
L 550.639834 67.911724 
L 550.639834 329.1525 
" style="fill:none;stroke:#1f77b4;stroke-linejoin:miter;"/>
   </g>
   <g id="patch_9">
    <path clip-path="url(#p63349a9a38)" d="M 338.211509 329.1525 
L 338.211509 128.595044 
L 359.454341 128.595044 
L 359.454341 279.911628 
L 380.697174 279.911628 
L 380.697174 274.424148 
L 401.940006 274.424148 
L 401.940006 267.324192 
L 423.182839 267.324192 
L 423.182839 256.321254 
L 444.425671 256.321254 
L 444.425671 202.223441 
L 465.668504 202.223441 
L 465.668504 240.102764 
L 486.911336 240.102764 
L 486.911336 237.830914 
L 508.154169 237.830914 
L 508.154169 237.56518 
L 529.397001 237.56518 
L 529.397001 67.161533 
L 550.639834 67.161533 
L 550.639834 329.1525 
" style="fill:none;stroke:#ff7f0e;stroke-linejoin:miter;"/>
   </g>
   <g id="patch_10">
    <path clip-path="url(#p63349a9a38)" d="M 338.211509 329.1525 
L 338.211509 141.701424 
L 359.454341 141.701424 
L 359.454341 251.9496 
L 380.697174 251.9496 
L 380.697174 240.640277 
L 401.940006 240.640277 
L 401.940006 233.020912 
L 423.182839 233.020912 
L 423.182839 226.886203 
L 444.425671 226.886203 
L 444.425671 207.833159 
L 465.668504 207.833159 
L 465.668504 221.723722 
L 486.911336 221.723722 
L 486.911336 217.930415 
L 508.154169 217.930415 
L 508.154169 211.685911 
L 529.397001 211.685911 
L 529.397001 66.219188 
L 550.639834 66.219188 
L 550.639834 329.1525 
" style="fill:none;stroke:#2ca02c;stroke-linejoin:miter;"/>
   </g>
   <g id="patch_11">
    <path clip-path="url(#p63349a9a38)" d="M 338.211509 329.1525 
L 338.211509 143.076038 
L 359.454341 143.076038 
L 359.454341 252.098263 
L 380.697174 252.098263 
L 380.697174 239.405663 
L 401.940006 239.405663 
L 401.940006 231.939159 
L 423.182839 231.939159 
L 423.182839 227.761561 
L 444.425671 227.761561 
L 444.425671 206.699546 
L 465.668504 206.699546 
L 465.668504 219.567154 
L 486.911336 219.567154 
L 486.911336 216.257485 
L 508.154169 216.257485 
L 508.154169 210.39069 
L 529.397001 210.39069 
L 529.397001 66.397819 
L 550.639834 66.397819 
L 550.639834 329.1525 
" style="fill:none;stroke:#d62728;stroke-linejoin:miter;"/>
   </g>
   <g id="patch_12">
    <path d="M 327.590092 290.59625 
L 327.590092 55.534566 
" style="fill:none;stroke:#000000;stroke-linecap:square;stroke-linejoin:miter;stroke-width:0.8;"/>
   </g>
   <g id="patch_13">
    <path d="M 561.26125 290.59625 
L 561.26125 55.534566 
" style="fill:none;stroke:#000000;stroke-linecap:square;stroke-linejoin:miter;stroke-width:0.8;"/>
   </g>
   <g id="patch_14">
    <path d="M 327.590092 290.59625 
L 561.26125 290.59625 
" style="fill:none;stroke:#000000;stroke-linecap:square;stroke-linejoin:miter;stroke-width:0.8;"/>
   </g>
   <g id="patch_15">
    <path d="M 327.590092 55.534566 
L 561.26125 55.534566 
" style="fill:none;stroke:#000000;stroke-linecap:square;stroke-linejoin:miter;stroke-width:0.8;"/>
   </g>
  </g>
  <g id="legend_1">
   <g id="patch_16">
    <path d="M 118.131562 39.55625 
L 449.990937 39.55625 
Q 451.990937 39.55625 451.990937 37.55625 
L 451.990937 9.2 
Q 451.990937 7.2 449.990937 7.2 
L 118.131562 7.2 
Q 116.131562 7.2 116.131562 9.2 
L 116.131562 37.55625 
Q 116.131562 39.55625 118.131562 39.55625 
z
" style="fill:#ffffff;opacity:0.8;stroke:#cccccc;stroke-linejoin:miter;"/>
   </g>
   <g id="line2d_54">
    <path d="M 120.131562 15.298437 
L 140.131562 15.298437 
" style="fill:none;stroke:#1f77b4;stroke-linecap:square;stroke-width:1.5;"/>
   </g>
   <g id="line2d_55"/>
   <g id="text_25">
    <!-- Fixed Ref -->
    <g transform="translate(148.131562 18.798437)scale(0.1 -0.1)">
     <defs>
      <path d="M 54.890625 54.6875 
L 35.109375 28.078125 
L 55.90625 0 
L 45.3125 0 
L 29.390625 21.484375 
L 13.484375 0 
L 2.875 0 
L 24.125 28.609375 
L 4.6875 54.6875 
L 15.28125 54.6875 
L 29.78125 35.203125 
L 44.28125 54.6875 
z
" id="DejaVuSans-120"/>
      <path d="M 44.390625 34.1875 
Q 47.5625 33.109375 50.5625 29.59375 
Q 53.5625 26.078125 56.59375 19.921875 
L 66.609375 0 
L 56 0 
L 46.6875 18.703125 
Q 43.0625 26.03125 39.671875 28.421875 
Q 36.28125 30.8125 30.421875 30.8125 
L 19.671875 30.8125 
L 19.671875 0 
L 9.8125 0 
L 9.8125 72.90625 
L 32.078125 72.90625 
Q 44.578125 72.90625 50.734375 67.671875 
Q 56.890625 62.453125 56.890625 51.90625 
Q 56.890625 45.015625 53.6875 40.46875 
Q 50.484375 35.9375 44.390625 34.1875 
z
M 19.671875 64.796875 
L 19.671875 38.921875 
L 32.078125 38.921875 
Q 39.203125 38.921875 42.84375 42.21875 
Q 46.484375 45.515625 46.484375 51.90625 
Q 46.484375 58.296875 42.84375 61.546875 
Q 39.203125 64.796875 32.078125 64.796875 
z
" id="DejaVuSans-82"/>
     </defs>
     <use xlink:href="#DejaVuSans-70"/>
     <use x="50.269531" xlink:href="#DejaVuSans-105"/>
     <use x="78.052734" xlink:href="#DejaVuSans-120"/>
     <use x="134.107422" xlink:href="#DejaVuSans-101"/>
     <use x="195.630859" xlink:href="#DejaVuSans-100"/>
     <use x="259.107422" xlink:href="#DejaVuSans-32"/>
     <use x="290.894531" xlink:href="#DejaVuSans-82"/>
     <use x="355.876953" xlink:href="#DejaVuSans-101"/>
     <use x="417.400391" xlink:href="#DejaVuSans-102"/>
    </g>
   </g>
   <g id="line2d_56">
    <path d="M 120.131562 29.976562 
L 140.131562 29.976562 
" style="fill:none;stroke:#ff7f0e;stroke-linecap:square;stroke-width:1.5;"/>
   </g>
   <g id="line2d_57"/>
   <g id="text_26">
    <!-- 2nd ord. DMP -->
    <g transform="translate(148.131562 33.476562)scale(0.1 -0.1)">
     <defs>
      <path d="M 19.671875 64.796875 
L 19.671875 8.109375 
L 31.59375 8.109375 
Q 46.6875 8.109375 53.6875 14.9375 
Q 60.6875 21.78125 60.6875 36.53125 
Q 60.6875 51.171875 53.6875 57.984375 
Q 46.6875 64.796875 31.59375 64.796875 
z
M 9.8125 72.90625 
L 30.078125 72.90625 
Q 51.265625 72.90625 61.171875 64.09375 
Q 71.09375 55.28125 71.09375 36.53125 
Q 71.09375 17.671875 61.125 8.828125 
Q 51.171875 0 30.078125 0 
L 9.8125 0 
z
" id="DejaVuSans-68"/>
      <path d="M 19.671875 64.796875 
L 19.671875 37.40625 
L 32.078125 37.40625 
Q 38.96875 37.40625 42.71875 40.96875 
Q 46.484375 44.53125 46.484375 51.125 
Q 46.484375 57.671875 42.71875 61.234375 
Q 38.96875 64.796875 32.078125 64.796875 
z
M 9.8125 72.90625 
L 32.078125 72.90625 
Q 44.34375 72.90625 50.609375 67.359375 
Q 56.890625 61.8125 56.890625 51.125 
Q 56.890625 40.328125 50.609375 34.8125 
Q 44.34375 29.296875 32.078125 29.296875 
L 19.671875 29.296875 
L 19.671875 0 
L 9.8125 0 
z
" id="DejaVuSans-80"/>
     </defs>
     <use xlink:href="#DejaVuSans-50"/>
     <use x="63.623047" xlink:href="#DejaVuSans-110"/>
     <use x="127.001953" xlink:href="#DejaVuSans-100"/>
     <use x="190.478516" xlink:href="#DejaVuSans-32"/>
     <use x="222.265625" xlink:href="#DejaVuSans-111"/>
     <use x="283.447266" xlink:href="#DejaVuSans-114"/>
     <use x="322.810547" xlink:href="#DejaVuSans-100"/>
     <use x="386.287109" xlink:href="#DejaVuSans-46"/>
     <use x="418.074219" xlink:href="#DejaVuSans-32"/>
     <use x="449.861328" xlink:href="#DejaVuSans-68"/>
     <use x="526.863281" xlink:href="#DejaVuSans-77"/>
     <use x="613.142578" xlink:href="#DejaVuSans-80"/>
    </g>
   </g>
   <g id="line2d_58">
    <path d="M 235.475312 15.298437 
L 255.475312 15.298437 
" style="fill:none;stroke:#2ca02c;stroke-linecap:square;stroke-width:1.5;"/>
   </g>
   <g id="line2d_59"/>
   <g id="text_27">
    <!-- 3rd ord. DMP -->
    <g transform="translate(263.475312 18.798437)scale(0.1 -0.1)">
     <use xlink:href="#DejaVuSans-51"/>
     <use x="63.623047" xlink:href="#DejaVuSans-114"/>
     <use x="102.986328" xlink:href="#DejaVuSans-100"/>
     <use x="166.462891" xlink:href="#DejaVuSans-32"/>
     <use x="198.25" xlink:href="#DejaVuSans-111"/>
     <use x="259.431641" xlink:href="#DejaVuSans-114"/>
     <use x="298.794922" xlink:href="#DejaVuSans-100"/>
     <use x="362.271484" xlink:href="#DejaVuSans-46"/>
     <use x="394.058594" xlink:href="#DejaVuSans-32"/>
     <use x="425.845703" xlink:href="#DejaVuSans-68"/>
     <use x="502.847656" xlink:href="#DejaVuSans-77"/>
     <use x="589.126953" xlink:href="#DejaVuSans-80"/>
    </g>
   </g>
   <g id="line2d_60">
    <path d="M 348.4175 15.298437 
L 368.4175 15.298437 
" style="fill:none;stroke:#d62728;stroke-linecap:square;stroke-width:1.5;"/>
   </g>
   <g id="line2d_61"/>
   <g id="text_28">
    <!-- Proposed DMP -->
    <g transform="translate(376.4175 18.798437)scale(0.1 -0.1)">
     <use xlink:href="#DejaVuSans-80"/>
     <use x="58.552734" xlink:href="#DejaVuSans-114"/>
     <use x="97.416016" xlink:href="#DejaVuSans-111"/>
     <use x="158.597656" xlink:href="#DejaVuSans-112"/>
     <use x="222.074219" xlink:href="#DejaVuSans-111"/>
     <use x="283.255859" xlink:href="#DejaVuSans-115"/>
     <use x="335.355469" xlink:href="#DejaVuSans-101"/>
     <use x="396.878906" xlink:href="#DejaVuSans-100"/>
     <use x="460.355469" xlink:href="#DejaVuSans-32"/>
     <use x="492.142578" xlink:href="#DejaVuSans-68"/>
     <use x="569.144531" xlink:href="#DejaVuSans-77"/>
     <use x="655.423828" xlink:href="#DejaVuSans-80"/>
    </g>
   </g>
  </g>
 </g>
 <defs>
  <clipPath id="p14766c9f32">
   <rect height="235.061684" width="233.671158" x="43.78125" y="55.534566"/>
  </clipPath>
  <clipPath id="p63349a9a38">
   <rect height="235.061684" width="233.671158" x="327.590092" y="55.534566"/>
  </clipPath>
 </defs>
</svg>
