<?xml version="1.0" encoding="utf-8" standalone="no"?>
<!DOCTYPE svg PUBLIC "-//W3C//DTD SVG 1.1//EN"
  "http://www.w3.org/Graphics/SVG/1.1/DTD/svg11.dtd">
<!-- Created with matplotlib (https://matplotlib.org/) -->
<svg height="279.99625pt" version="1.1" viewBox="0 0 567.457296 279.99625" width="567.457296pt" xmlns="http://www.w3.org/2000/svg" xmlns:xlink="http://www.w3.org/1999/xlink">
 <metadata>
  <rdf:RDF xmlns:cc="http://creativecommons.org/ns#" xmlns:dc="http://purl.org/dc/elements/1.1/" xmlns:rdf="http://www.w3.org/1999/02/22-rdf-syntax-ns#">
   <cc:Work>
    <dc:type rdf:resource="http://purl.org/dc/dcmitype/StillImage"/>
    <dc:date>2022-08-03T00:02:45.004462</dc:date>
    <dc:format>image/svg+xml</dc:format>
    <dc:creator>
     <cc:Agent>
      <dc:title>Matplotlib v3.3.0, https://matplotlib.org/</dc:title>
     </cc:Agent>
    </dc:creator>
   </cc:Work>
  </rdf:RDF>
 </metadata>
 <defs>
  <style type="text/css">*{stroke-linecap:butt;stroke-linejoin:round;}</style>
 </defs>
 <g id="figure_1">
  <g id="patch_1">
   <path d="M 0 279.99625 
L 567.457296 279.99625 
L 567.457296 0 
L 0 0 
z
" style="fill:#ffffff;"/>
  </g>
  <g id="axes_1">
   <g id="patch_2">
    <path d="M 43.78125 242.44 
L 276.310602 242.44 
L 276.310602 7.2 
L 43.78125 7.2 
z
" style="fill:#ffffff;"/>
   </g>
   <g id="matplotlib.axis_1">
    <g id="xtick_1">
     <g id="line2d_1">
      <defs>
       <path d="M 0 0 
L 0 3.5 
" id="mf79e32cf86" style="stroke:#000000;stroke-width:0.8;"/>
      </defs>
      <g>
       <use style="stroke:#000000;stroke-width:0.8;" x="54.350766" xlink:href="#mf79e32cf86" y="242.44"/>
      </g>
     </g>
     <g id="text_1">
      <!-- 0.0 -->
      <g transform="translate(46.399203 257.038438)scale(0.1 -0.1)">
       <defs>
        <path d="M 31.78125 66.40625 
Q 24.171875 66.40625 20.328125 58.90625 
Q 16.5 51.421875 16.5 36.375 
Q 16.5 21.390625 20.328125 13.890625 
Q 24.171875 6.390625 31.78125 6.390625 
Q 39.453125 6.390625 43.28125 13.890625 
Q 47.125 21.390625 47.125 36.375 
Q 47.125 51.421875 43.28125 58.90625 
Q 39.453125 66.40625 31.78125 66.40625 
z
M 31.78125 74.21875 
Q 44.046875 74.21875 50.515625 64.515625 
Q 56.984375 54.828125 56.984375 36.375 
Q 56.984375 17.96875 50.515625 8.265625 
Q 44.046875 -1.421875 31.78125 -1.421875 
Q 19.53125 -1.421875 13.0625 8.265625 
Q 6.59375 17.96875 6.59375 36.375 
Q 6.59375 54.828125 13.0625 64.515625 
Q 19.53125 74.21875 31.78125 74.21875 
z
" id="DejaVuSans-48"/>
        <path d="M 10.6875 12.40625 
L 21 12.40625 
L 21 0 
L 10.6875 0 
z
" id="DejaVuSans-46"/>
       </defs>
       <use xlink:href="#DejaVuSans-48"/>
       <use x="63.623047" xlink:href="#DejaVuSans-46"/>
       <use x="95.410156" xlink:href="#DejaVuSans-48"/>
      </g>
     </g>
    </g>
    <g id="xtick_2">
     <g id="line2d_2">
      <g>
       <use style="stroke:#000000;stroke-width:0.8;" x="92.370608" xlink:href="#mf79e32cf86" y="242.44"/>
      </g>
     </g>
     <g id="text_2">
      <!-- 2.5 -->
      <g transform="translate(84.419045 257.038438)scale(0.1 -0.1)">
       <defs>
        <path d="M 19.1875 8.296875 
L 53.609375 8.296875 
L 53.609375 0 
L 7.328125 0 
L 7.328125 8.296875 
Q 12.9375 14.109375 22.625 23.890625 
Q 32.328125 33.6875 34.8125 36.53125 
Q 39.546875 41.84375 41.421875 45.53125 
Q 43.3125 49.21875 43.3125 52.78125 
Q 43.3125 58.59375 39.234375 62.25 
Q 35.15625 65.921875 28.609375 65.921875 
Q 23.96875 65.921875 18.8125 64.3125 
Q 13.671875 62.703125 7.8125 59.421875 
L 7.8125 69.390625 
Q 13.765625 71.78125 18.9375 73 
Q 24.125 74.21875 28.421875 74.21875 
Q 39.75 74.21875 46.484375 68.546875 
Q 53.21875 62.890625 53.21875 53.421875 
Q 53.21875 48.921875 51.53125 44.890625 
Q 49.859375 40.875 45.40625 35.40625 
Q 44.1875 33.984375 37.640625 27.21875 
Q 31.109375 20.453125 19.1875 8.296875 
z
" id="DejaVuSans-50"/>
        <path d="M 10.796875 72.90625 
L 49.515625 72.90625 
L 49.515625 64.59375 
L 19.828125 64.59375 
L 19.828125 46.734375 
Q 21.96875 47.46875 24.109375 47.828125 
Q 26.265625 48.1875 28.421875 48.1875 
Q 40.625 48.1875 47.75 41.5 
Q 54.890625 34.8125 54.890625 23.390625 
Q 54.890625 11.625 47.5625 5.09375 
Q 40.234375 -1.421875 26.90625 -1.421875 
Q 22.3125 -1.421875 17.546875 -0.640625 
Q 12.796875 0.140625 7.71875 1.703125 
L 7.71875 11.625 
Q 12.109375 9.234375 16.796875 8.0625 
Q 21.484375 6.890625 26.703125 6.890625 
Q 35.15625 6.890625 40.078125 11.328125 
Q 45.015625 15.765625 45.015625 23.390625 
Q 45.015625 31 40.078125 35.4375 
Q 35.15625 39.890625 26.703125 39.890625 
Q 22.75 39.890625 18.8125 39.015625 
Q 14.890625 38.140625 10.796875 36.28125 
z
" id="DejaVuSans-53"/>
       </defs>
       <use xlink:href="#DejaVuSans-50"/>
       <use x="63.623047" xlink:href="#DejaVuSans-46"/>
       <use x="95.410156" xlink:href="#DejaVuSans-53"/>
      </g>
     </g>
    </g>
    <g id="xtick_3">
     <g id="line2d_3">
      <g>
       <use style="stroke:#000000;stroke-width:0.8;" x="130.390449" xlink:href="#mf79e32cf86" y="242.44"/>
      </g>
     </g>
     <g id="text_3">
      <!-- 5.0 -->
      <g transform="translate(122.438887 257.038438)scale(0.1 -0.1)">
       <use xlink:href="#DejaVuSans-53"/>
       <use x="63.623047" xlink:href="#DejaVuSans-46"/>
       <use x="95.410156" xlink:href="#DejaVuSans-48"/>
      </g>
     </g>
    </g>
    <g id="xtick_4">
     <g id="line2d_4">
      <g>
       <use style="stroke:#000000;stroke-width:0.8;" x="168.410291" xlink:href="#mf79e32cf86" y="242.44"/>
      </g>
     </g>
     <g id="text_4">
      <!-- 7.5 -->
      <g transform="translate(160.458729 257.038438)scale(0.1 -0.1)">
       <defs>
        <path d="M 8.203125 72.90625 
L 55.078125 72.90625 
L 55.078125 68.703125 
L 28.609375 0 
L 18.3125 0 
L 43.21875 64.59375 
L 8.203125 64.59375 
z
" id="DejaVuSans-55"/>
       </defs>
       <use xlink:href="#DejaVuSans-55"/>
       <use x="63.623047" xlink:href="#DejaVuSans-46"/>
       <use x="95.410156" xlink:href="#DejaVuSans-53"/>
      </g>
     </g>
    </g>
    <g id="xtick_5">
     <g id="line2d_5">
      <g>
       <use style="stroke:#000000;stroke-width:0.8;" x="206.430133" xlink:href="#mf79e32cf86" y="242.44"/>
      </g>
     </g>
     <g id="text_5">
      <!-- 10.0 -->
      <g transform="translate(195.29732 257.038438)scale(0.1 -0.1)">
       <defs>
        <path d="M 12.40625 8.296875 
L 28.515625 8.296875 
L 28.515625 63.921875 
L 10.984375 60.40625 
L 10.984375 69.390625 
L 28.421875 72.90625 
L 38.28125 72.90625 
L 38.28125 8.296875 
L 54.390625 8.296875 
L 54.390625 0 
L 12.40625 0 
z
" id="DejaVuSans-49"/>
       </defs>
       <use xlink:href="#DejaVuSans-49"/>
       <use x="63.623047" xlink:href="#DejaVuSans-48"/>
       <use x="127.246094" xlink:href="#DejaVuSans-46"/>
       <use x="159.033203" xlink:href="#DejaVuSans-48"/>
      </g>
     </g>
    </g>
    <g id="xtick_6">
     <g id="line2d_6">
      <g>
       <use style="stroke:#000000;stroke-width:0.8;" x="244.449975" xlink:href="#mf79e32cf86" y="242.44"/>
      </g>
     </g>
     <g id="text_6">
      <!-- 12.5 -->
      <g transform="translate(233.317162 257.038438)scale(0.1 -0.1)">
       <use xlink:href="#DejaVuSans-49"/>
       <use x="63.623047" xlink:href="#DejaVuSans-50"/>
       <use x="127.246094" xlink:href="#DejaVuSans-46"/>
       <use x="159.033203" xlink:href="#DejaVuSans-53"/>
      </g>
     </g>
    </g>
    <g id="text_7">
     <!-- Time (s) -->
     <g transform="translate(139.71702 270.716563)scale(0.1 -0.1)">
      <defs>
       <path d="M -0.296875 72.90625 
L 61.375 72.90625 
L 61.375 64.59375 
L 35.5 64.59375 
L 35.5 0 
L 25.59375 0 
L 25.59375 64.59375 
L -0.296875 64.59375 
z
" id="DejaVuSans-84"/>
       <path d="M 9.421875 54.6875 
L 18.40625 54.6875 
L 18.40625 0 
L 9.421875 0 
z
M 9.421875 75.984375 
L 18.40625 75.984375 
L 18.40625 64.59375 
L 9.421875 64.59375 
z
" id="DejaVuSans-105"/>
       <path d="M 52 44.1875 
Q 55.375 50.25 60.0625 53.125 
Q 64.75 56 71.09375 56 
Q 79.640625 56 84.28125 50.015625 
Q 88.921875 44.046875 88.921875 33.015625 
L 88.921875 0 
L 79.890625 0 
L 79.890625 32.71875 
Q 79.890625 40.578125 77.09375 44.375 
Q 74.3125 48.1875 68.609375 48.1875 
Q 61.625 48.1875 57.5625 43.546875 
Q 53.515625 38.921875 53.515625 30.90625 
L 53.515625 0 
L 44.484375 0 
L 44.484375 32.71875 
Q 44.484375 40.625 41.703125 44.40625 
Q 38.921875 48.1875 33.109375 48.1875 
Q 26.21875 48.1875 22.15625 43.53125 
Q 18.109375 38.875 18.109375 30.90625 
L 18.109375 0 
L 9.078125 0 
L 9.078125 54.6875 
L 18.109375 54.6875 
L 18.109375 46.1875 
Q 21.1875 51.21875 25.484375 53.609375 
Q 29.78125 56 35.6875 56 
Q 41.65625 56 45.828125 52.96875 
Q 50 49.953125 52 44.1875 
z
" id="DejaVuSans-109"/>
       <path d="M 56.203125 29.59375 
L 56.203125 25.203125 
L 14.890625 25.203125 
Q 15.484375 15.921875 20.484375 11.0625 
Q 25.484375 6.203125 34.421875 6.203125 
Q 39.59375 6.203125 44.453125 7.46875 
Q 49.3125 8.734375 54.109375 11.28125 
L 54.109375 2.78125 
Q 49.265625 0.734375 44.1875 -0.34375 
Q 39.109375 -1.421875 33.890625 -1.421875 
Q 20.796875 -1.421875 13.15625 6.1875 
Q 5.515625 13.8125 5.515625 26.8125 
Q 5.515625 40.234375 12.765625 48.109375 
Q 20.015625 56 32.328125 56 
Q 43.359375 56 49.78125 48.890625 
Q 56.203125 41.796875 56.203125 29.59375 
z
M 47.21875 32.234375 
Q 47.125 39.59375 43.09375 43.984375 
Q 39.0625 48.390625 32.421875 48.390625 
Q 24.90625 48.390625 20.390625 44.140625 
Q 15.875 39.890625 15.1875 32.171875 
z
" id="DejaVuSans-101"/>
       <path id="DejaVuSans-32"/>
       <path d="M 31 75.875 
Q 24.46875 64.65625 21.28125 53.65625 
Q 18.109375 42.671875 18.109375 31.390625 
Q 18.109375 20.125 21.3125 9.0625 
Q 24.515625 -2 31 -13.1875 
L 23.1875 -13.1875 
Q 15.875 -1.703125 12.234375 9.375 
Q 8.59375 20.453125 8.59375 31.390625 
Q 8.59375 42.28125 12.203125 53.3125 
Q 15.828125 64.359375 23.1875 75.875 
z
" id="DejaVuSans-40"/>
       <path d="M 44.28125 53.078125 
L 44.28125 44.578125 
Q 40.484375 46.53125 36.375 47.5 
Q 32.28125 48.484375 27.875 48.484375 
Q 21.1875 48.484375 17.84375 46.4375 
Q 14.5 44.390625 14.5 40.28125 
Q 14.5 37.15625 16.890625 35.375 
Q 19.28125 33.59375 26.515625 31.984375 
L 29.59375 31.296875 
Q 39.15625 29.25 43.1875 25.515625 
Q 47.21875 21.78125 47.21875 15.09375 
Q 47.21875 7.46875 41.1875 3.015625 
Q 35.15625 -1.421875 24.609375 -1.421875 
Q 20.21875 -1.421875 15.453125 -0.5625 
Q 10.6875 0.296875 5.421875 2 
L 5.421875 11.28125 
Q 10.40625 8.6875 15.234375 7.390625 
Q 20.0625 6.109375 24.8125 6.109375 
Q 31.15625 6.109375 34.5625 8.28125 
Q 37.984375 10.453125 37.984375 14.40625 
Q 37.984375 18.0625 35.515625 20.015625 
Q 33.0625 21.96875 24.703125 23.78125 
L 21.578125 24.515625 
Q 13.234375 26.265625 9.515625 29.90625 
Q 5.8125 33.546875 5.8125 39.890625 
Q 5.8125 47.609375 11.28125 51.796875 
Q 16.75 56 26.8125 56 
Q 31.78125 56 36.171875 55.265625 
Q 40.578125 54.546875 44.28125 53.078125 
z
" id="DejaVuSans-115"/>
       <path d="M 8.015625 75.875 
L 15.828125 75.875 
Q 23.140625 64.359375 26.78125 53.3125 
Q 30.421875 42.28125 30.421875 31.390625 
Q 30.421875 20.453125 26.78125 9.375 
Q 23.140625 -1.703125 15.828125 -13.1875 
L 8.015625 -13.1875 
Q 14.5 -2 17.703125 9.0625 
Q 20.90625 20.125 20.90625 31.390625 
Q 20.90625 42.671875 17.703125 53.65625 
Q 14.5 64.65625 8.015625 75.875 
z
" id="DejaVuSans-41"/>
      </defs>
      <use xlink:href="#DejaVuSans-84"/>
      <use x="57.958984" xlink:href="#DejaVuSans-105"/>
      <use x="85.742188" xlink:href="#DejaVuSans-109"/>
      <use x="183.154297" xlink:href="#DejaVuSans-101"/>
      <use x="244.677734" xlink:href="#DejaVuSans-32"/>
      <use x="276.464844" xlink:href="#DejaVuSans-40"/>
      <use x="315.478516" xlink:href="#DejaVuSans-115"/>
      <use x="367.578125" xlink:href="#DejaVuSans-41"/>
     </g>
    </g>
   </g>
   <g id="matplotlib.axis_2">
    <g id="ytick_1">
     <g id="line2d_7">
      <defs>
       <path d="M 0 0 
L -3.5 0 
" id="m2c0602e17e" style="stroke:#000000;stroke-width:0.8;"/>
      </defs>
      <g>
       <use style="stroke:#000000;stroke-width:0.8;" x="43.78125" xlink:href="#m2c0602e17e" y="231.747273"/>
      </g>
     </g>
     <g id="text_8">
      <!-- 0.0 -->
      <g transform="translate(20.878125 235.546491)scale(0.1 -0.1)">
       <use xlink:href="#DejaVuSans-48"/>
       <use x="63.623047" xlink:href="#DejaVuSans-46"/>
       <use x="95.410156" xlink:href="#DejaVuSans-48"/>
      </g>
     </g>
    </g>
    <g id="ytick_2">
     <g id="line2d_8">
      <g>
       <use style="stroke:#000000;stroke-width:0.8;" x="43.78125" xlink:href="#m2c0602e17e" y="203.248228"/>
      </g>
     </g>
     <g id="text_9">
      <!-- 0.1 -->
      <g transform="translate(20.878125 207.047447)scale(0.1 -0.1)">
       <use xlink:href="#DejaVuSans-48"/>
       <use x="63.623047" xlink:href="#DejaVuSans-46"/>
       <use x="95.410156" xlink:href="#DejaVuSans-49"/>
      </g>
     </g>
    </g>
    <g id="ytick_3">
     <g id="line2d_9">
      <g>
       <use style="stroke:#000000;stroke-width:0.8;" x="43.78125" xlink:href="#m2c0602e17e" y="174.749184"/>
      </g>
     </g>
     <g id="text_10">
      <!-- 0.2 -->
      <g transform="translate(20.878125 178.548403)scale(0.1 -0.1)">
       <use xlink:href="#DejaVuSans-48"/>
       <use x="63.623047" xlink:href="#DejaVuSans-46"/>
       <use x="95.410156" xlink:href="#DejaVuSans-50"/>
      </g>
     </g>
    </g>
    <g id="ytick_4">
     <g id="line2d_10">
      <g>
       <use style="stroke:#000000;stroke-width:0.8;" x="43.78125" xlink:href="#m2c0602e17e" y="146.25014"/>
      </g>
     </g>
     <g id="text_11">
      <!-- 0.3 -->
      <g transform="translate(20.878125 150.049358)scale(0.1 -0.1)">
       <defs>
        <path d="M 40.578125 39.3125 
Q 47.65625 37.796875 51.625 33 
Q 55.609375 28.21875 55.609375 21.1875 
Q 55.609375 10.40625 48.1875 4.484375 
Q 40.765625 -1.421875 27.09375 -1.421875 
Q 22.515625 -1.421875 17.65625 -0.515625 
Q 12.796875 0.390625 7.625 2.203125 
L 7.625 11.71875 
Q 11.71875 9.328125 16.59375 8.109375 
Q 21.484375 6.890625 26.8125 6.890625 
Q 36.078125 6.890625 40.9375 10.546875 
Q 45.796875 14.203125 45.796875 21.1875 
Q 45.796875 27.640625 41.28125 31.265625 
Q 36.765625 34.90625 28.71875 34.90625 
L 20.21875 34.90625 
L 20.21875 43.015625 
L 29.109375 43.015625 
Q 36.375 43.015625 40.234375 45.921875 
Q 44.09375 48.828125 44.09375 54.296875 
Q 44.09375 59.90625 40.109375 62.90625 
Q 36.140625 65.921875 28.71875 65.921875 
Q 24.65625 65.921875 20.015625 65.03125 
Q 15.375 64.15625 9.8125 62.3125 
L 9.8125 71.09375 
Q 15.4375 72.65625 20.34375 73.4375 
Q 25.25 74.21875 29.59375 74.21875 
Q 40.828125 74.21875 47.359375 69.109375 
Q 53.90625 64.015625 53.90625 55.328125 
Q 53.90625 49.265625 50.4375 45.09375 
Q 46.96875 40.921875 40.578125 39.3125 
z
" id="DejaVuSans-51"/>
       </defs>
       <use xlink:href="#DejaVuSans-48"/>
       <use x="63.623047" xlink:href="#DejaVuSans-46"/>
       <use x="95.410156" xlink:href="#DejaVuSans-51"/>
      </g>
     </g>
    </g>
    <g id="ytick_5">
     <g id="line2d_11">
      <g>
       <use style="stroke:#000000;stroke-width:0.8;" x="43.78125" xlink:href="#m2c0602e17e" y="117.751095"/>
      </g>
     </g>
     <g id="text_12">
      <!-- 0.4 -->
      <g transform="translate(20.878125 121.550314)scale(0.1 -0.1)">
       <defs>
        <path d="M 37.796875 64.3125 
L 12.890625 25.390625 
L 37.796875 25.390625 
z
M 35.203125 72.90625 
L 47.609375 72.90625 
L 47.609375 25.390625 
L 58.015625 25.390625 
L 58.015625 17.1875 
L 47.609375 17.1875 
L 47.609375 0 
L 37.796875 0 
L 37.796875 17.1875 
L 4.890625 17.1875 
L 4.890625 26.703125 
z
" id="DejaVuSans-52"/>
       </defs>
       <use xlink:href="#DejaVuSans-48"/>
       <use x="63.623047" xlink:href="#DejaVuSans-46"/>
       <use x="95.410156" xlink:href="#DejaVuSans-52"/>
      </g>
     </g>
    </g>
    <g id="ytick_6">
     <g id="line2d_12">
      <g>
       <use style="stroke:#000000;stroke-width:0.8;" x="43.78125" xlink:href="#m2c0602e17e" y="89.252051"/>
      </g>
     </g>
     <g id="text_13">
      <!-- 0.5 -->
      <g transform="translate(20.878125 93.05127)scale(0.1 -0.1)">
       <use xlink:href="#DejaVuSans-48"/>
       <use x="63.623047" xlink:href="#DejaVuSans-46"/>
       <use x="95.410156" xlink:href="#DejaVuSans-53"/>
      </g>
     </g>
    </g>
    <g id="ytick_7">
     <g id="line2d_13">
      <g>
       <use style="stroke:#000000;stroke-width:0.8;" x="43.78125" xlink:href="#m2c0602e17e" y="60.753007"/>
      </g>
     </g>
     <g id="text_14">
      <!-- 0.6 -->
      <g transform="translate(20.878125 64.552225)scale(0.1 -0.1)">
       <defs>
        <path d="M 33.015625 40.375 
Q 26.375 40.375 22.484375 35.828125 
Q 18.609375 31.296875 18.609375 23.390625 
Q 18.609375 15.53125 22.484375 10.953125 
Q 26.375 6.390625 33.015625 6.390625 
Q 39.65625 6.390625 43.53125 10.953125 
Q 47.40625 15.53125 47.40625 23.390625 
Q 47.40625 31.296875 43.53125 35.828125 
Q 39.65625 40.375 33.015625 40.375 
z
M 52.59375 71.296875 
L 52.59375 62.3125 
Q 48.875 64.0625 45.09375 64.984375 
Q 41.3125 65.921875 37.59375 65.921875 
Q 27.828125 65.921875 22.671875 59.328125 
Q 17.53125 52.734375 16.796875 39.40625 
Q 19.671875 43.65625 24.015625 45.921875 
Q 28.375 48.1875 33.59375 48.1875 
Q 44.578125 48.1875 50.953125 41.515625 
Q 57.328125 34.859375 57.328125 23.390625 
Q 57.328125 12.15625 50.6875 5.359375 
Q 44.046875 -1.421875 33.015625 -1.421875 
Q 20.359375 -1.421875 13.671875 8.265625 
Q 6.984375 17.96875 6.984375 36.375 
Q 6.984375 53.65625 15.1875 63.9375 
Q 23.390625 74.21875 37.203125 74.21875 
Q 40.921875 74.21875 44.703125 73.484375 
Q 48.484375 72.75 52.59375 71.296875 
z
" id="DejaVuSans-54"/>
       </defs>
       <use xlink:href="#DejaVuSans-48"/>
       <use x="63.623047" xlink:href="#DejaVuSans-46"/>
       <use x="95.410156" xlink:href="#DejaVuSans-54"/>
      </g>
     </g>
    </g>
    <g id="ytick_8">
     <g id="line2d_14">
      <g>
       <use style="stroke:#000000;stroke-width:0.8;" x="43.78125" xlink:href="#m2c0602e17e" y="32.253962"/>
      </g>
     </g>
     <g id="text_15">
      <!-- 0.7 -->
      <g transform="translate(20.878125 36.053181)scale(0.1 -0.1)">
       <use xlink:href="#DejaVuSans-48"/>
       <use x="63.623047" xlink:href="#DejaVuSans-46"/>
       <use x="95.410156" xlink:href="#DejaVuSans-55"/>
      </g>
     </g>
    </g>
    <g id="text_16">
     <!-- Mean Magnitude of Steering Angle -->
     <g transform="translate(14.798437 211.412969)rotate(-90)scale(0.1 -0.1)">
      <defs>
       <path d="M 9.8125 72.90625 
L 24.515625 72.90625 
L 43.109375 23.296875 
L 61.8125 72.90625 
L 76.515625 72.90625 
L 76.515625 0 
L 66.890625 0 
L 66.890625 64.015625 
L 48.09375 14.015625 
L 38.1875 14.015625 
L 19.390625 64.015625 
L 19.390625 0 
L 9.8125 0 
z
" id="DejaVuSans-77"/>
       <path d="M 34.28125 27.484375 
Q 23.390625 27.484375 19.1875 25 
Q 14.984375 22.515625 14.984375 16.5 
Q 14.984375 11.71875 18.140625 8.90625 
Q 21.296875 6.109375 26.703125 6.109375 
Q 34.1875 6.109375 38.703125 11.40625 
Q 43.21875 16.703125 43.21875 25.484375 
L 43.21875 27.484375 
z
M 52.203125 31.203125 
L 52.203125 0 
L 43.21875 0 
L 43.21875 8.296875 
Q 40.140625 3.328125 35.546875 0.953125 
Q 30.953125 -1.421875 24.3125 -1.421875 
Q 15.921875 -1.421875 10.953125 3.296875 
Q 6 8.015625 6 15.921875 
Q 6 25.140625 12.171875 29.828125 
Q 18.359375 34.515625 30.609375 34.515625 
L 43.21875 34.515625 
L 43.21875 35.40625 
Q 43.21875 41.609375 39.140625 45 
Q 35.0625 48.390625 27.6875 48.390625 
Q 23 48.390625 18.546875 47.265625 
Q 14.109375 46.140625 10.015625 43.890625 
L 10.015625 52.203125 
Q 14.9375 54.109375 19.578125 55.046875 
Q 24.21875 56 28.609375 56 
Q 40.484375 56 46.34375 49.84375 
Q 52.203125 43.703125 52.203125 31.203125 
z
" id="DejaVuSans-97"/>
       <path d="M 54.890625 33.015625 
L 54.890625 0 
L 45.90625 0 
L 45.90625 32.71875 
Q 45.90625 40.484375 42.875 44.328125 
Q 39.84375 48.1875 33.796875 48.1875 
Q 26.515625 48.1875 22.3125 43.546875 
Q 18.109375 38.921875 18.109375 30.90625 
L 18.109375 0 
L 9.078125 0 
L 9.078125 54.6875 
L 18.109375 54.6875 
L 18.109375 46.1875 
Q 21.34375 51.125 25.703125 53.5625 
Q 30.078125 56 35.796875 56 
Q 45.21875 56 50.046875 50.171875 
Q 54.890625 44.34375 54.890625 33.015625 
z
" id="DejaVuSans-110"/>
       <path d="M 45.40625 27.984375 
Q 45.40625 37.75 41.375 43.109375 
Q 37.359375 48.484375 30.078125 48.484375 
Q 22.859375 48.484375 18.828125 43.109375 
Q 14.796875 37.75 14.796875 27.984375 
Q 14.796875 18.265625 18.828125 12.890625 
Q 22.859375 7.515625 30.078125 7.515625 
Q 37.359375 7.515625 41.375 12.890625 
Q 45.40625 18.265625 45.40625 27.984375 
z
M 54.390625 6.78125 
Q 54.390625 -7.171875 48.1875 -13.984375 
Q 42 -20.796875 29.203125 -20.796875 
Q 24.46875 -20.796875 20.265625 -20.09375 
Q 16.0625 -19.390625 12.109375 -17.921875 
L 12.109375 -9.1875 
Q 16.0625 -11.328125 19.921875 -12.34375 
Q 23.78125 -13.375 27.78125 -13.375 
Q 36.625 -13.375 41.015625 -8.765625 
Q 45.40625 -4.15625 45.40625 5.171875 
L 45.40625 9.625 
Q 42.625 4.78125 38.28125 2.390625 
Q 33.9375 0 27.875 0 
Q 17.828125 0 11.671875 7.65625 
Q 5.515625 15.328125 5.515625 27.984375 
Q 5.515625 40.671875 11.671875 48.328125 
Q 17.828125 56 27.875 56 
Q 33.9375 56 38.28125 53.609375 
Q 42.625 51.21875 45.40625 46.390625 
L 45.40625 54.6875 
L 54.390625 54.6875 
z
" id="DejaVuSans-103"/>
       <path d="M 18.3125 70.21875 
L 18.3125 54.6875 
L 36.8125 54.6875 
L 36.8125 47.703125 
L 18.3125 47.703125 
L 18.3125 18.015625 
Q 18.3125 11.328125 20.140625 9.421875 
Q 21.96875 7.515625 27.59375 7.515625 
L 36.8125 7.515625 
L 36.8125 0 
L 27.59375 0 
Q 17.1875 0 13.234375 3.875 
Q 9.28125 7.765625 9.28125 18.015625 
L 9.28125 47.703125 
L 2.6875 47.703125 
L 2.6875 54.6875 
L 9.28125 54.6875 
L 9.28125 70.21875 
z
" id="DejaVuSans-116"/>
       <path d="M 8.5 21.578125 
L 8.5 54.6875 
L 17.484375 54.6875 
L 17.484375 21.921875 
Q 17.484375 14.15625 20.5 10.265625 
Q 23.53125 6.390625 29.59375 6.390625 
Q 36.859375 6.390625 41.078125 11.03125 
Q 45.3125 15.671875 45.3125 23.6875 
L 45.3125 54.6875 
L 54.296875 54.6875 
L 54.296875 0 
L 45.3125 0 
L 45.3125 8.40625 
Q 42.046875 3.421875 37.71875 1 
Q 33.40625 -1.421875 27.6875 -1.421875 
Q 18.265625 -1.421875 13.375 4.4375 
Q 8.5 10.296875 8.5 21.578125 
z
M 31.109375 56 
z
" id="DejaVuSans-117"/>
       <path d="M 45.40625 46.390625 
L 45.40625 75.984375 
L 54.390625 75.984375 
L 54.390625 0 
L 45.40625 0 
L 45.40625 8.203125 
Q 42.578125 3.328125 38.25 0.953125 
Q 33.9375 -1.421875 27.875 -1.421875 
Q 17.96875 -1.421875 11.734375 6.484375 
Q 5.515625 14.40625 5.515625 27.296875 
Q 5.515625 40.1875 11.734375 48.09375 
Q 17.96875 56 27.875 56 
Q 33.9375 56 38.25 53.625 
Q 42.578125 51.265625 45.40625 46.390625 
z
M 14.796875 27.296875 
Q 14.796875 17.390625 18.875 11.75 
Q 22.953125 6.109375 30.078125 6.109375 
Q 37.203125 6.109375 41.296875 11.75 
Q 45.40625 17.390625 45.40625 27.296875 
Q 45.40625 37.203125 41.296875 42.84375 
Q 37.203125 48.484375 30.078125 48.484375 
Q 22.953125 48.484375 18.875 42.84375 
Q 14.796875 37.203125 14.796875 27.296875 
z
" id="DejaVuSans-100"/>
       <path d="M 30.609375 48.390625 
Q 23.390625 48.390625 19.1875 42.75 
Q 14.984375 37.109375 14.984375 27.296875 
Q 14.984375 17.484375 19.15625 11.84375 
Q 23.34375 6.203125 30.609375 6.203125 
Q 37.796875 6.203125 41.984375 11.859375 
Q 46.1875 17.53125 46.1875 27.296875 
Q 46.1875 37.015625 41.984375 42.703125 
Q 37.796875 48.390625 30.609375 48.390625 
z
M 30.609375 56 
Q 42.328125 56 49.015625 48.375 
Q 55.71875 40.765625 55.71875 27.296875 
Q 55.71875 13.875 49.015625 6.21875 
Q 42.328125 -1.421875 30.609375 -1.421875 
Q 18.84375 -1.421875 12.171875 6.21875 
Q 5.515625 13.875 5.515625 27.296875 
Q 5.515625 40.765625 12.171875 48.375 
Q 18.84375 56 30.609375 56 
z
" id="DejaVuSans-111"/>
       <path d="M 37.109375 75.984375 
L 37.109375 68.5 
L 28.515625 68.5 
Q 23.6875 68.5 21.796875 66.546875 
Q 19.921875 64.59375 19.921875 59.515625 
L 19.921875 54.6875 
L 34.71875 54.6875 
L 34.71875 47.703125 
L 19.921875 47.703125 
L 19.921875 0 
L 10.890625 0 
L 10.890625 47.703125 
L 2.296875 47.703125 
L 2.296875 54.6875 
L 10.890625 54.6875 
L 10.890625 58.5 
Q 10.890625 67.625 15.140625 71.796875 
Q 19.390625 75.984375 28.609375 75.984375 
z
" id="DejaVuSans-102"/>
       <path d="M 53.515625 70.515625 
L 53.515625 60.890625 
Q 47.90625 63.578125 42.921875 64.890625 
Q 37.9375 66.21875 33.296875 66.21875 
Q 25.25 66.21875 20.875 63.09375 
Q 16.5 59.96875 16.5 54.203125 
Q 16.5 49.359375 19.40625 46.890625 
Q 22.3125 44.4375 30.421875 42.921875 
L 36.375 41.703125 
Q 47.40625 39.59375 52.65625 34.296875 
Q 57.90625 29 57.90625 20.125 
Q 57.90625 9.515625 50.796875 4.046875 
Q 43.703125 -1.421875 29.984375 -1.421875 
Q 24.8125 -1.421875 18.96875 -0.25 
Q 13.140625 0.921875 6.890625 3.21875 
L 6.890625 13.375 
Q 12.890625 10.015625 18.65625 8.296875 
Q 24.421875 6.59375 29.984375 6.59375 
Q 38.421875 6.59375 43.015625 9.90625 
Q 47.609375 13.234375 47.609375 19.390625 
Q 47.609375 24.75 44.3125 27.78125 
Q 41.015625 30.8125 33.5 32.328125 
L 27.484375 33.5 
Q 16.453125 35.6875 11.515625 40.375 
Q 6.59375 45.0625 6.59375 53.421875 
Q 6.59375 63.09375 13.40625 68.65625 
Q 20.21875 74.21875 32.171875 74.21875 
Q 37.3125 74.21875 42.625 73.28125 
Q 47.953125 72.359375 53.515625 70.515625 
z
" id="DejaVuSans-83"/>
       <path d="M 41.109375 46.296875 
Q 39.59375 47.171875 37.8125 47.578125 
Q 36.03125 48 33.890625 48 
Q 26.265625 48 22.1875 43.046875 
Q 18.109375 38.09375 18.109375 28.8125 
L 18.109375 0 
L 9.078125 0 
L 9.078125 54.6875 
L 18.109375 54.6875 
L 18.109375 46.1875 
Q 20.953125 51.171875 25.484375 53.578125 
Q 30.03125 56 36.53125 56 
Q 37.453125 56 38.578125 55.875 
Q 39.703125 55.765625 41.0625 55.515625 
z
" id="DejaVuSans-114"/>
       <path d="M 34.1875 63.1875 
L 20.796875 26.90625 
L 47.609375 26.90625 
z
M 28.609375 72.90625 
L 39.796875 72.90625 
L 67.578125 0 
L 57.328125 0 
L 50.6875 18.703125 
L 17.828125 18.703125 
L 11.1875 0 
L 0.78125 0 
z
" id="DejaVuSans-65"/>
       <path d="M 9.421875 75.984375 
L 18.40625 75.984375 
L 18.40625 0 
L 9.421875 0 
z
" id="DejaVuSans-108"/>
      </defs>
      <use xlink:href="#DejaVuSans-77"/>
      <use x="86.279297" xlink:href="#DejaVuSans-101"/>
      <use x="147.802734" xlink:href="#DejaVuSans-97"/>
      <use x="209.082031" xlink:href="#DejaVuSans-110"/>
      <use x="272.460938" xlink:href="#DejaVuSans-32"/>
      <use x="304.248047" xlink:href="#DejaVuSans-77"/>
      <use x="390.527344" xlink:href="#DejaVuSans-97"/>
      <use x="451.806641" xlink:href="#DejaVuSans-103"/>
      <use x="515.283203" xlink:href="#DejaVuSans-110"/>
      <use x="578.662109" xlink:href="#DejaVuSans-105"/>
      <use x="606.445312" xlink:href="#DejaVuSans-116"/>
      <use x="645.654297" xlink:href="#DejaVuSans-117"/>
      <use x="709.033203" xlink:href="#DejaVuSans-100"/>
      <use x="772.509766" xlink:href="#DejaVuSans-101"/>
      <use x="834.033203" xlink:href="#DejaVuSans-32"/>
      <use x="865.820312" xlink:href="#DejaVuSans-111"/>
      <use x="927.001953" xlink:href="#DejaVuSans-102"/>
      <use x="962.207031" xlink:href="#DejaVuSans-32"/>
      <use x="993.994141" xlink:href="#DejaVuSans-83"/>
      <use x="1057.470703" xlink:href="#DejaVuSans-116"/>
      <use x="1096.679688" xlink:href="#DejaVuSans-101"/>
      <use x="1158.203125" xlink:href="#DejaVuSans-101"/>
      <use x="1219.726562" xlink:href="#DejaVuSans-114"/>
      <use x="1260.839844" xlink:href="#DejaVuSans-105"/>
      <use x="1288.623047" xlink:href="#DejaVuSans-110"/>
      <use x="1352.001953" xlink:href="#DejaVuSans-103"/>
      <use x="1415.478516" xlink:href="#DejaVuSans-32"/>
      <use x="1447.265625" xlink:href="#DejaVuSans-65"/>
      <use x="1515.673828" xlink:href="#DejaVuSans-110"/>
      <use x="1579.052734" xlink:href="#DejaVuSans-103"/>
      <use x="1642.529297" xlink:href="#DejaVuSans-108"/>
      <use x="1670.3125" xlink:href="#DejaVuSans-101"/>
     </g>
    </g>
   </g>
   <g id="line2d_15">
    <path clip-path="url(#p2bddc942c8)" d="M 54.350766 231.747273 
L 265.741086 231.747273 
L 265.741086 231.747273 
" style="fill:none;stroke:#000000;stroke-linecap:square;stroke-width:0.5;"/>
   </g>
   <g id="line2d_16">
    <path clip-path="url(#p2bddc942c8)" d="M 54.350766 142.214884 
L 265.741086 142.214884 
L 265.741086 142.214884 
" style="fill:none;stroke:#000000;stroke-linecap:square;stroke-width:0.5;"/>
   </g>
   <g id="line2d_17">
    <path clip-path="url(#p2bddc942c8)" d="M 54.350766 190.9036 
L 55.87156 205.730369 
L 57.392353 216.900436 
L 58.913147 214.211075 
L 60.433941 213.339434 
L 61.954734 211.712201 
L 63.475528 204.967854 
L 64.996322 195.348103 
L 66.517115 198.9434 
L 68.037909 195.427385 
L 69.558703 193.180617 
L 71.079496 198.529074 
L 72.60029 186.549274 
L 74.121084 153.794377 
L 75.641877 162.157789 
L 77.162671 152.755534 
L 78.683465 166.395925 
L 80.204258 166.01644 
L 81.725052 164.463769 
L 83.245846 143.272043 
L 84.766639 154.404888 
L 86.287433 142.755119 
L 87.808227 160.080773 
L 89.32902 150.969343 
L 90.849814 134.570724 
L 92.370608 134.909702 
L 93.891401 130.897722 
L 95.412195 114.376878 
L 96.932989 88.41994 
L 98.453782 84.249046 
L 99.974576 86.858798 
L 101.49537 83.610852 
L 103.016163 88.112087 
L 104.536957 104.712143 
L 106.057751 73.255805 
L 107.578544 96.537543 
L 109.099338 88.164998 
L 110.620132 91.553281 
L 112.140925 113.204287 
L 113.661719 141.087814 
L 115.182513 133.062385 
L 116.703306 127.289297 
L 118.2241 143.507909 
L 119.744894 143.7138 
L 121.265687 155.582808 
L 122.786481 145.540585 
L 124.307275 147.523674 
L 125.828068 140.784087 
L 127.348862 140.049895 
L 128.869656 134.453994 
L 130.390449 131.537536 
L 131.911243 108.586369 
L 133.432037 83.788214 
L 134.95283 114.158955 
L 136.473624 155.018488 
L 137.994418 146.140782 
L 139.515211 155.03315 
L 141.036005 169.408228 
L 142.556799 163.059649 
L 144.077592 170.326192 
L 145.598386 181.719584 
L 147.11918 184.370097 
L 148.639973 182.869258 
L 150.160767 174.868619 
L 151.681561 188.126849 
L 153.202354 183.252891 
L 154.723148 184.550323 
L 156.243942 180.30398 
L 157.764735 185.165422 
L 159.285529 181.18398 
L 160.806323 180.695203 
L 162.327116 172.259396 
L 163.84791 168.83176 
L 165.368704 169.012666 
L 166.889497 177.149505 
L 168.410291 171.305881 
L 169.931085 158.700083 
L 171.451878 151.304857 
L 174.493466 177.460625 
L 176.014259 168.817272 
L 177.535053 172.446662 
L 179.055847 178.502453 
L 180.57664 182.537147 
L 182.097434 175.646401 
L 183.618228 177.885462 
L 185.139021 180.852665 
L 186.659815 186.252514 
L 188.180609 182.010049 
L 189.701402 180.982596 
L 191.222196 171.423154 
L 192.74299 192.12238 
L 194.263783 189.221255 
L 197.305371 188.023295 
L 198.826164 186.408593 
L 200.346958 187.864153 
L 201.867752 194.803866 
L 203.388545 194.221611 
L 204.909339 190.892405 
L 206.430133 191.213629 
L 207.950926 187.575582 
L 209.47172 188.990189 
L 210.992514 193.395862 
L 212.513307 174.041025 
L 214.034101 178.353446 
L 215.554895 185.260102 
L 217.075689 190.08249 
L 218.596482 193.754752 
L 220.117276 194.533056 
L 221.63807 202.799014 
L 223.158863 204.354147 
L 224.679657 202.904852 
L 226.200451 203.368764 
L 227.721244 201.096428 
L 229.242038 198.230294 
L 230.762832 205.515311 
L 232.283625 209.17013 
L 233.804419 210.616136 
L 235.325213 208.567819 
L 236.846006 202.392578 
L 238.3668 208.903571 
L 239.887594 202.337809 
L 241.408387 211.00804 
L 242.929181 207.84364 
L 244.449975 204.181844 
L 245.970768 207.151478 
L 247.491562 201.341639 
L 249.012356 199.32821 
L 250.533149 199.945085 
L 252.053943 203.739847 
L 253.574737 206.231276 
L 255.09553 203.829117 
L 256.616324 205.117913 
L 259.657911 211.183625 
L 261.178705 213.393797 
L 262.699499 214.217026 
L 264.220292 214.561687 
L 265.741086 211.85678 
L 265.741086 211.85678 
" style="fill:none;stroke:#1f77b4;stroke-linecap:square;stroke-width:1.5;"/>
   </g>
   <g id="line2d_18">
    <path clip-path="url(#p2bddc942c8)" d="M 54.350766 231.747273 
L 265.741086 231.747273 
L 265.741086 231.747273 
" style="fill:none;stroke:#000000;stroke-linecap:square;stroke-width:0.5;"/>
   </g>
   <g id="line2d_19">
    <path clip-path="url(#p2bddc942c8)" d="M 54.350766 142.214884 
L 265.741086 142.214884 
L 265.741086 142.214884 
" style="fill:none;stroke:#000000;stroke-linecap:square;stroke-width:0.5;"/>
   </g>
   <g id="line2d_20">
    <path clip-path="url(#p2bddc942c8)" d="M 54.350766 76.433355 
L 55.87156 127.799489 
L 57.392353 168.967242 
L 58.913147 156.774717 
L 60.433941 174.987836 
L 61.954734 152.954111 
L 63.475528 108.839587 
L 64.996322 116.972937 
L 66.517115 108.903571 
L 68.037909 114.722433 
L 69.558703 135.136853 
L 71.079496 119.423512 
L 72.60029 127.548667 
L 74.121084 119.343016 
L 75.641877 112.858854 
L 77.162671 90.674369 
L 78.683465 118.260754 
L 80.204258 115.586676 
L 81.725052 108.943581 
L 83.245846 106.248637 
L 84.766639 113.028141 
L 86.287433 109.699831 
L 87.808227 107.297052 
L 89.32902 108.713402 
L 90.849814 106.655236 
L 92.370608 99.360803 
L 93.891401 97.480537 
L 95.412195 92.20829 
L 96.932989 96.624105 
L 98.453782 86.274392 
L 99.974576 107.610819 
L 101.49537 84.497828 
L 103.016163 95.905082 
L 104.536957 99.033893 
L 106.057751 110.758142 
L 107.578544 61.552861 
L 109.099338 86.148722 
L 110.620132 87.954202 
L 112.140925 87.68222 
L 113.661719 71.477317 
L 115.182513 42.287565 
L 116.703306 37.519561 
L 118.2241 40.566886 
L 119.744894 29.471503 
L 121.265687 35.84102 
L 122.786481 76.06884 
L 124.307275 71.073133 
L 125.828068 60.530762 
L 127.348862 84.922388 
L 128.869656 51.688692 
L 130.390449 38.17465 
L 131.911243 56.201393 
L 133.432037 67.245169 
L 134.95283 61.093578 
L 136.473624 64.047272 
L 137.994418 73.814382 
L 139.515211 51.939281 
L 141.036005 48.884937 
L 142.556799 64.580821 
L 144.077592 67.803845 
L 145.598386 84.657284 
L 147.11918 67.886607 
L 148.639973 67.541055 
L 150.160767 35.059692 
L 151.681561 53.106639 
L 153.202354 67.691157 
L 154.723148 75.755467 
L 156.243942 61.889429 
L 157.764735 55.702335 
L 159.285529 61.554095 
L 160.806323 63.264752 
L 162.327116 69.540046 
L 163.84791 69.566191 
L 165.368704 64.805571 
L 166.889497 54.615501 
L 168.410291 56.220012 
L 169.931085 79.962739 
L 171.451878 63.807702 
L 172.972672 63.254789 
L 174.493466 74.216997 
L 176.014259 83.149834 
L 177.535053 17.892727 
L 179.055847 48.276331 
L 180.57664 83.769782 
L 182.097434 77.658841 
L 183.618228 61.660056 
L 185.139021 54.043102 
L 186.659815 72.672117 
L 188.180609 28.540358 
L 189.701402 60.96569 
L 191.222196 81.808478 
L 192.74299 73.340618 
L 194.263783 68.726854 
L 195.784577 41.589882 
L 197.305371 55.76288 
L 198.826164 63.266787 
L 200.346958 51.037693 
L 201.867752 66.574593 
L 203.388545 72.69777 
L 204.909339 22.727656 
L 207.950926 81.738945 
L 209.47172 43.016437 
L 210.992514 60.557895 
L 212.513307 64.954445 
L 214.034101 76.662605 
L 215.554895 38.967774 
L 217.075689 62.04935 
L 218.596482 66.875603 
L 220.117276 78.27143 
L 221.63807 81.031856 
L 223.158863 62.658803 
L 224.679657 76.128159 
L 226.200451 66.590647 
L 227.721244 61.237757 
L 229.242038 71.036721 
L 230.762832 61.523849 
L 232.283625 64.99754 
L 233.804419 18.794743 
L 235.325213 44.874188 
L 236.846006 73.63796 
L 238.3668 55.995768 
L 239.887594 52.389731 
L 241.408387 62.618697 
L 242.929181 56.442498 
L 244.449975 79.163734 
L 245.970768 72.297742 
L 247.491562 49.951411 
L 249.012356 63.056018 
L 250.533149 48.265349 
L 252.053943 51.294499 
L 253.574737 70.351662 
L 255.09553 80.592339 
L 256.616324 78.76961 
L 258.137118 70.567339 
L 259.657911 46.526135 
L 261.178705 49.983428 
L 262.699499 62.696139 
L 264.220292 70.004316 
L 265.741086 78.895869 
L 265.741086 78.895869 
" style="fill:none;stroke:#ff7f0e;stroke-linecap:square;stroke-width:1.5;"/>
   </g>
   <g id="line2d_21">
    <path clip-path="url(#p2bddc942c8)" d="M 54.350766 231.747273 
L 265.741086 231.747273 
L 265.741086 231.747273 
" style="fill:none;stroke:#000000;stroke-linecap:square;stroke-width:0.5;"/>
   </g>
   <g id="line2d_22">
    <path clip-path="url(#p2bddc942c8)" d="M 54.350766 142.214884 
L 265.741086 142.214884 
L 265.741086 142.214884 
" style="fill:none;stroke:#000000;stroke-linecap:square;stroke-width:0.5;"/>
   </g>
   <g id="line2d_23">
    <path clip-path="url(#p2bddc942c8)" d="M 54.350766 176.187925 
L 55.87156 167.816962 
L 57.392353 189.864176 
L 58.913147 195.600724 
L 60.433941 197.034812 
L 63.475528 174.668453 
L 64.996322 179.71806 
L 66.517115 159.937751 
L 68.037909 166.029284 
L 69.558703 168.04383 
L 71.079496 157.320024 
L 72.60029 150.673065 
L 74.121084 155.258566 
L 75.641877 159.427703 
L 78.683465 171.578299 
L 80.204258 166.053306 
L 81.725052 165.717074 
L 83.245846 155.405113 
L 84.766639 161.06517 
L 86.287433 169.813772 
L 87.808227 165.688427 
L 89.32902 177.03493 
L 90.849814 170.791136 
L 92.370608 170.841101 
L 93.891401 172.081429 
L 95.412195 171.674747 
L 96.932989 162.988222 
L 98.453782 163.551823 
L 99.974576 165.036842 
L 101.49537 157.056389 
L 103.016163 160.134294 
L 104.536957 161.749106 
L 106.057751 161.969483 
L 107.578544 161.205071 
L 109.099338 156.069422 
L 110.620132 150.420417 
L 112.140925 147.331654 
L 113.661719 143.727583 
L 115.182513 147.388319 
L 116.703306 154.712112 
L 118.2241 144.219148 
L 119.744894 151.433198 
L 121.265687 153.50009 
L 122.786481 146.221688 
L 124.307275 158.861587 
L 125.828068 149.373535 
L 127.348862 153.757309 
L 128.869656 147.043782 
L 130.390449 142.835934 
L 131.911243 147.307449 
L 133.432037 135.759974 
L 134.95283 139.565911 
L 136.473624 139.922698 
L 137.994418 155.844713 
L 139.515211 149.041507 
L 141.036005 153.867688 
L 142.556799 144.358083 
L 144.077592 154.250385 
L 145.598386 143.818479 
L 147.11918 148.901418 
L 148.639973 151.238236 
L 150.160767 154.843716 
L 151.681561 146.614661 
L 153.202354 146.212352 
L 154.723148 154.076304 
L 156.243942 154.092283 
L 157.764735 145.614067 
L 159.285529 157.798387 
L 160.806323 161.844539 
L 162.327116 159.058032 
L 163.84791 163.38586 
L 165.368704 164.625806 
L 166.889497 162.774451 
L 168.410291 163.846969 
L 169.931085 156.724305 
L 171.451878 156.114066 
L 172.972672 154.380177 
L 174.493466 153.263179 
L 176.014259 154.637188 
L 177.535053 154.241827 
L 179.055847 159.113945 
L 180.57664 159.351686 
L 182.097434 157.826522 
L 183.618228 164.397101 
L 185.139021 168.819973 
L 186.659815 157.97057 
L 188.180609 156.076827 
L 189.701402 167.532684 
L 191.222196 168.456018 
L 192.74299 149.396121 
L 194.263783 168.662327 
L 195.784577 167.244059 
L 197.305371 164.066135 
L 198.826164 161.964353 
L 200.346958 157.2181 
L 201.867752 168.151725 
L 203.388545 181.015054 
L 204.909339 166.884539 
L 206.430133 165.358902 
L 207.950926 170.567557 
L 209.47172 151.938075 
L 210.992514 155.115364 
L 212.513307 160.420768 
L 214.034101 163.088078 
L 215.554895 163.185347 
L 217.075689 164.431929 
L 220.117276 172.707799 
L 221.63807 169.986938 
L 223.158863 161.404737 
L 224.679657 163.882213 
L 226.200451 170.204876 
L 227.721244 160.979778 
L 229.242038 170.758532 
L 230.762832 168.872485 
L 232.283625 171.353435 
L 233.804419 179.411524 
L 235.325213 167.566741 
L 236.846006 174.592506 
L 238.3668 169.042869 
L 239.887594 177.46306 
L 241.408387 177.465151 
L 242.929181 175.22801 
L 244.449975 176.104018 
L 245.970768 172.790746 
L 247.491562 173.387824 
L 249.012356 172.399193 
L 250.533149 176.253776 
L 252.053943 174.0305 
L 255.09553 174.404524 
L 256.616324 164.973125 
L 258.137118 167.808992 
L 259.657911 164.455341 
L 261.178705 170.60845 
L 262.699499 159.760832 
L 264.220292 169.156137 
L 265.741086 162.974205 
L 265.741086 162.974205 
" style="fill:none;stroke:#2ca02c;stroke-linecap:square;stroke-width:1.5;"/>
   </g>
   <g id="line2d_24">
    <path clip-path="url(#p2bddc942c8)" d="M 54.350766 231.747273 
L 265.741086 231.747273 
L 265.741086 231.747273 
" style="fill:none;stroke:#000000;stroke-linecap:square;stroke-width:0.5;"/>
   </g>
   <g id="line2d_25">
    <path clip-path="url(#p2bddc942c8)" d="M 54.350766 142.214884 
L 265.741086 142.214884 
L 265.741086 142.214884 
" style="fill:none;stroke:#000000;stroke-linecap:square;stroke-width:0.5;"/>
   </g>
   <g id="line2d_26">
    <path clip-path="url(#p2bddc942c8)" d="M 54.350766 179.535712 
L 55.87156 172.748909 
L 57.392353 194.264629 
L 58.913147 198.43673 
L 60.433941 201.551493 
L 61.954734 187.818237 
L 63.475528 183.937955 
L 64.996322 181.345998 
L 66.517115 167.508164 
L 68.037909 162.02206 
L 69.558703 172.086998 
L 71.079496 165.540108 
L 72.60029 159.777095 
L 74.121084 156.882151 
L 75.641877 157.93459 
L 77.162671 167.00522 
L 78.683465 171.047021 
L 80.204258 161.81743 
L 81.725052 166.241117 
L 83.245846 168.531301 
L 84.766639 164.547674 
L 86.287433 170.42896 
L 87.808227 181.699184 
L 89.32902 164.518001 
L 90.849814 167.883944 
L 92.370608 162.131633 
L 93.891401 166.470233 
L 95.412195 162.815336 
L 96.932989 152.79021 
L 98.453782 167.4739 
L 99.974576 165.697198 
L 101.49537 164.477592 
L 103.016163 165.087059 
L 104.536957 170.718639 
L 106.057751 159.629597 
L 107.578544 170.244836 
L 109.099338 166.504923 
L 110.620132 161.131123 
L 112.140925 158.535777 
L 113.661719 158.161977 
L 115.182513 149.451922 
L 116.703306 144.069494 
L 118.2241 152.153038 
L 119.744894 156.338948 
L 121.265687 153.509339 
L 122.786481 156.71637 
L 124.307275 149.384121 
L 125.828068 160.911253 
L 127.348862 156.937051 
L 128.869656 161.132961 
L 130.390449 158.155866 
L 131.911243 150.969867 
L 133.432037 154.840733 
L 134.95283 160.427401 
L 136.473624 151.510152 
L 137.994418 147.895862 
L 139.515211 157.851848 
L 141.036005 160.378267 
L 142.556799 164.148044 
L 144.077592 158.866627 
L 145.598386 163.304884 
L 148.639973 164.482427 
L 150.160767 176.025469 
L 151.681561 166.005848 
L 153.202354 166.473693 
L 154.723148 158.324523 
L 156.243942 166.01785 
L 157.764735 163.03195 
L 159.285529 166.028874 
L 160.806323 161.268879 
L 162.327116 170.072801 
L 163.84791 169.163151 
L 165.368704 163.257238 
L 166.889497 165.566847 
L 168.410291 167.360412 
L 169.931085 165.393189 
L 171.451878 168.750139 
L 172.972672 170.778111 
L 174.493466 180.355409 
L 176.014259 171.916348 
L 177.535053 172.023312 
L 179.055847 179.352482 
L 180.57664 172.494229 
L 182.097434 173.511638 
L 183.618228 172.101417 
L 185.139021 172.494139 
L 186.659815 170.487589 
L 188.180609 169.532303 
L 189.701402 165.796844 
L 191.222196 164.346192 
L 192.74299 169.858768 
L 194.263783 171.504757 
L 195.784577 172.776136 
L 197.305371 168.943005 
L 198.826164 164.059643 
L 200.346958 167.513833 
L 201.867752 164.270208 
L 203.388545 168.401198 
L 204.909339 172.855611 
L 206.430133 175.91146 
L 207.950926 175.350363 
L 209.47172 171.674706 
L 210.992514 179.360581 
L 212.513307 174.405003 
L 214.034101 173.719348 
L 215.554895 164.715698 
L 217.075689 179.319606 
L 218.596482 181.110024 
L 220.117276 181.304075 
L 221.63807 176.609246 
L 223.158863 181.621954 
L 224.679657 181.098873 
L 226.200451 185.524723 
L 227.721244 186.91804 
L 229.242038 186.387865 
L 230.762832 177.959482 
L 232.283625 186.918795 
L 233.804419 183.362483 
L 236.846006 192.380823 
L 238.3668 192.548737 
L 239.887594 193.227168 
L 241.408387 187.685083 
L 242.929181 191.3623 
L 244.449975 185.051958 
L 245.970768 181.345265 
L 247.491562 175.655422 
L 249.012356 177.745861 
L 250.533149 175.089576 
L 252.053943 187.264342 
L 253.574737 185.095947 
L 255.09553 187.173486 
L 256.616324 181.653968 
L 258.137118 175.070032 
L 259.657911 181.006395 
L 261.178705 182.34693 
L 262.699499 180.602373 
L 264.220292 179.23898 
L 265.741086 181.658663 
L 265.741086 181.658663 
" style="fill:none;stroke:#d62728;stroke-linecap:square;stroke-width:1.5;"/>
   </g>
   <g id="patch_3">
    <path d="M 43.78125 242.44 
L 43.78125 7.2 
" style="fill:none;stroke:#000000;stroke-linecap:square;stroke-linejoin:miter;stroke-width:0.8;"/>
   </g>
   <g id="patch_4">
    <path d="M 276.310602 242.44 
L 276.310602 7.2 
" style="fill:none;stroke:#000000;stroke-linecap:square;stroke-linejoin:miter;stroke-width:0.8;"/>
   </g>
   <g id="patch_5">
    <path d="M 43.78125 242.44 
L 276.310602 242.44 
" style="fill:none;stroke:#000000;stroke-linecap:square;stroke-linejoin:miter;stroke-width:0.8;"/>
   </g>
   <g id="patch_6">
    <path d="M 43.78125 7.2 
L 276.310602 7.2 
" style="fill:none;stroke:#000000;stroke-linecap:square;stroke-linejoin:miter;stroke-width:0.8;"/>
   </g>
  </g>
  <g id="axes_2">
   <g id="patch_7">
    <path d="M 326.448287 242.44 
L 558.977639 242.44 
L 558.977639 7.2 
L 326.448287 7.2 
z
" style="fill:#ffffff;"/>
   </g>
   <g id="matplotlib.axis_3">
    <g id="xtick_7">
     <g id="line2d_27">
      <g>
       <use style="stroke:#000000;stroke-width:0.8;" x="337.017803" xlink:href="#mf79e32cf86" y="242.44"/>
      </g>
     </g>
     <g id="text_17">
      <!-- 0 -->
      <g transform="translate(333.836553 257.038438)scale(0.1 -0.1)">
       <use xlink:href="#DejaVuSans-48"/>
      </g>
     </g>
    </g>
    <g id="xtick_8">
     <g id="line2d_28">
      <g>
       <use style="stroke:#000000;stroke-width:0.8;" x="379.756951" xlink:href="#mf79e32cf86" y="242.44"/>
      </g>
     </g>
     <g id="text_18">
      <!-- 20 -->
      <g transform="translate(373.394451 257.038438)scale(0.1 -0.1)">
       <use xlink:href="#DejaVuSans-50"/>
       <use x="63.623047" xlink:href="#DejaVuSans-48"/>
      </g>
     </g>
    </g>
    <g id="xtick_9">
     <g id="line2d_29">
      <g>
       <use style="stroke:#000000;stroke-width:0.8;" x="422.4961" xlink:href="#mf79e32cf86" y="242.44"/>
      </g>
     </g>
     <g id="text_19">
      <!-- 40 -->
      <g transform="translate(416.1336 257.038438)scale(0.1 -0.1)">
       <use xlink:href="#DejaVuSans-52"/>
       <use x="63.623047" xlink:href="#DejaVuSans-48"/>
      </g>
     </g>
    </g>
    <g id="xtick_10">
     <g id="line2d_30">
      <g>
       <use style="stroke:#000000;stroke-width:0.8;" x="465.235249" xlink:href="#mf79e32cf86" y="242.44"/>
      </g>
     </g>
     <g id="text_20">
      <!-- 60 -->
      <g transform="translate(458.872749 257.038438)scale(0.1 -0.1)">
       <use xlink:href="#DejaVuSans-54"/>
       <use x="63.623047" xlink:href="#DejaVuSans-48"/>
      </g>
     </g>
    </g>
    <g id="xtick_11">
     <g id="line2d_31">
      <g>
       <use style="stroke:#000000;stroke-width:0.8;" x="507.974397" xlink:href="#mf79e32cf86" y="242.44"/>
      </g>
     </g>
     <g id="text_21">
      <!-- 80 -->
      <g transform="translate(501.611897 257.038438)scale(0.1 -0.1)">
       <defs>
        <path d="M 31.78125 34.625 
Q 24.75 34.625 20.71875 30.859375 
Q 16.703125 27.09375 16.703125 20.515625 
Q 16.703125 13.921875 20.71875 10.15625 
Q 24.75 6.390625 31.78125 6.390625 
Q 38.8125 6.390625 42.859375 10.171875 
Q 46.921875 13.96875 46.921875 20.515625 
Q 46.921875 27.09375 42.890625 30.859375 
Q 38.875 34.625 31.78125 34.625 
z
M 21.921875 38.8125 
Q 15.578125 40.375 12.03125 44.71875 
Q 8.5 49.078125 8.5 55.328125 
Q 8.5 64.0625 14.71875 69.140625 
Q 20.953125 74.21875 31.78125 74.21875 
Q 42.671875 74.21875 48.875 69.140625 
Q 55.078125 64.0625 55.078125 55.328125 
Q 55.078125 49.078125 51.53125 44.71875 
Q 48 40.375 41.703125 38.8125 
Q 48.828125 37.15625 52.796875 32.3125 
Q 56.78125 27.484375 56.78125 20.515625 
Q 56.78125 9.90625 50.3125 4.234375 
Q 43.84375 -1.421875 31.78125 -1.421875 
Q 19.734375 -1.421875 13.25 4.234375 
Q 6.78125 9.90625 6.78125 20.515625 
Q 6.78125 27.484375 10.78125 32.3125 
Q 14.796875 37.15625 21.921875 38.8125 
z
M 18.3125 54.390625 
Q 18.3125 48.734375 21.84375 45.5625 
Q 25.390625 42.390625 31.78125 42.390625 
Q 38.140625 42.390625 41.71875 45.5625 
Q 45.3125 48.734375 45.3125 54.390625 
Q 45.3125 60.0625 41.71875 63.234375 
Q 38.140625 66.40625 31.78125 66.40625 
Q 25.390625 66.40625 21.84375 63.234375 
Q 18.3125 60.0625 18.3125 54.390625 
z
" id="DejaVuSans-56"/>
       </defs>
       <use xlink:href="#DejaVuSans-56"/>
       <use x="63.623047" xlink:href="#DejaVuSans-48"/>
      </g>
     </g>
    </g>
    <g id="xtick_12">
     <g id="line2d_32">
      <g>
       <use style="stroke:#000000;stroke-width:0.8;" x="550.713546" xlink:href="#mf79e32cf86" y="242.44"/>
      </g>
     </g>
     <g id="text_22">
      <!-- 100 -->
      <g transform="translate(541.169796 257.038438)scale(0.1 -0.1)">
       <use xlink:href="#DejaVuSans-49"/>
       <use x="63.623047" xlink:href="#DejaVuSans-48"/>
       <use x="127.246094" xlink:href="#DejaVuSans-48"/>
      </g>
     </g>
    </g>
    <g id="text_23">
     <!-- Magnitude of Steering Angle -->
     <g transform="translate(371.332494 270.716563)scale(0.1 -0.1)">
      <use xlink:href="#DejaVuSans-77"/>
      <use x="86.279297" xlink:href="#DejaVuSans-97"/>
      <use x="147.558594" xlink:href="#DejaVuSans-103"/>
      <use x="211.035156" xlink:href="#DejaVuSans-110"/>
      <use x="274.414062" xlink:href="#DejaVuSans-105"/>
      <use x="302.197266" xlink:href="#DejaVuSans-116"/>
      <use x="341.40625" xlink:href="#DejaVuSans-117"/>
      <use x="404.785156" xlink:href="#DejaVuSans-100"/>
      <use x="468.261719" xlink:href="#DejaVuSans-101"/>
      <use x="529.785156" xlink:href="#DejaVuSans-32"/>
      <use x="561.572266" xlink:href="#DejaVuSans-111"/>
      <use x="622.753906" xlink:href="#DejaVuSans-102"/>
      <use x="657.958984" xlink:href="#DejaVuSans-32"/>
      <use x="689.746094" xlink:href="#DejaVuSans-83"/>
      <use x="753.222656" xlink:href="#DejaVuSans-116"/>
      <use x="792.431641" xlink:href="#DejaVuSans-101"/>
      <use x="853.955078" xlink:href="#DejaVuSans-101"/>
      <use x="915.478516" xlink:href="#DejaVuSans-114"/>
      <use x="956.591797" xlink:href="#DejaVuSans-105"/>
      <use x="984.375" xlink:href="#DejaVuSans-110"/>
      <use x="1047.753906" xlink:href="#DejaVuSans-103"/>
      <use x="1111.230469" xlink:href="#DejaVuSans-32"/>
      <use x="1143.017578" xlink:href="#DejaVuSans-65"/>
      <use x="1211.425781" xlink:href="#DejaVuSans-110"/>
      <use x="1274.804688" xlink:href="#DejaVuSans-103"/>
      <use x="1338.28125" xlink:href="#DejaVuSans-108"/>
      <use x="1366.064453" xlink:href="#DejaVuSans-101"/>
     </g>
    </g>
   </g>
   <g id="matplotlib.axis_4">
    <g id="ytick_9">
     <g id="line2d_33">
      <g>
       <use style="stroke:#000000;stroke-width:0.8;" x="326.448287" xlink:href="#m2c0602e17e" y="231.747273"/>
      </g>
     </g>
     <g id="text_24">
      <!-- $\mathdefault{10^{0}}$ -->
      <g transform="translate(301.848287 235.546491)scale(0.1 -0.1)">
       <use transform="translate(0 0.765625)" xlink:href="#DejaVuSans-49"/>
       <use transform="translate(63.623047 0.765625)" xlink:href="#DejaVuSans-48"/>
       <use transform="translate(128.203125 39.046875)scale(0.7)" xlink:href="#DejaVuSans-48"/>
      </g>
     </g>
    </g>
    <g id="ytick_10">
     <g id="line2d_34">
      <g>
       <use style="stroke:#000000;stroke-width:0.8;" x="326.448287" xlink:href="#m2c0602e17e" y="189.672931"/>
      </g>
     </g>
     <g id="text_25">
      <!-- $\mathdefault{10^{1}}$ -->
      <g transform="translate(301.848287 193.47215)scale(0.1 -0.1)">
       <use transform="translate(0 0.684375)" xlink:href="#DejaVuSans-49"/>
       <use transform="translate(63.623047 0.684375)" xlink:href="#DejaVuSans-48"/>
       <use transform="translate(128.203125 38.965625)scale(0.7)" xlink:href="#DejaVuSans-49"/>
      </g>
     </g>
    </g>
    <g id="ytick_11">
     <g id="line2d_35">
      <g>
       <use style="stroke:#000000;stroke-width:0.8;" x="326.448287" xlink:href="#m2c0602e17e" y="147.59859"/>
      </g>
     </g>
     <g id="text_26">
      <!-- $\mathdefault{10^{2}}$ -->
      <g transform="translate(301.848287 151.397808)scale(0.1 -0.1)">
       <use transform="translate(0 0.765625)" xlink:href="#DejaVuSans-49"/>
       <use transform="translate(63.623047 0.765625)" xlink:href="#DejaVuSans-48"/>
       <use transform="translate(128.203125 39.046875)scale(0.7)" xlink:href="#DejaVuSans-50"/>
      </g>
     </g>
    </g>
    <g id="ytick_12">
     <g id="line2d_36">
      <g>
       <use style="stroke:#000000;stroke-width:0.8;" x="326.448287" xlink:href="#m2c0602e17e" y="105.524248"/>
      </g>
     </g>
     <g id="text_27">
      <!-- $\mathdefault{10^{3}}$ -->
      <g transform="translate(301.848287 109.323467)scale(0.1 -0.1)">
       <use transform="translate(0 0.765625)" xlink:href="#DejaVuSans-49"/>
       <use transform="translate(63.623047 0.765625)" xlink:href="#DejaVuSans-48"/>
       <use transform="translate(128.203125 39.046875)scale(0.7)" xlink:href="#DejaVuSans-51"/>
      </g>
     </g>
    </g>
    <g id="ytick_13">
     <g id="line2d_37">
      <g>
       <use style="stroke:#000000;stroke-width:0.8;" x="326.448287" xlink:href="#m2c0602e17e" y="63.449907"/>
      </g>
     </g>
     <g id="text_28">
      <!-- $\mathdefault{10^{4}}$ -->
      <g transform="translate(301.848287 67.249125)scale(0.1 -0.1)">
       <use transform="translate(0 0.684375)" xlink:href="#DejaVuSans-49"/>
       <use transform="translate(63.623047 0.684375)" xlink:href="#DejaVuSans-48"/>
       <use transform="translate(128.203125 38.965625)scale(0.7)" xlink:href="#DejaVuSans-52"/>
      </g>
     </g>
    </g>
    <g id="ytick_14">
     <g id="line2d_38">
      <g>
       <use style="stroke:#000000;stroke-width:0.8;" x="326.448287" xlink:href="#m2c0602e17e" y="21.375565"/>
      </g>
     </g>
     <g id="text_29">
      <!-- $\mathdefault{10^{5}}$ -->
      <g transform="translate(301.848287 25.174784)scale(0.1 -0.1)">
       <use transform="translate(0 0.684375)" xlink:href="#DejaVuSans-49"/>
       <use transform="translate(63.623047 0.684375)" xlink:href="#DejaVuSans-48"/>
       <use transform="translate(128.203125 38.965625)scale(0.7)" xlink:href="#DejaVuSans-53"/>
      </g>
     </g>
    </g>
    <g id="ytick_15">
     <g id="line2d_39">
      <defs>
       <path d="M 0 0 
L -2 0 
" id="m968a5dc773" style="stroke:#000000;stroke-width:0.6;"/>
      </defs>
      <g>
       <use style="stroke:#000000;stroke-width:0.6;" x="326.448287" xlink:href="#m968a5dc773" y="241.081413"/>
      </g>
     </g>
    </g>
    <g id="ytick_16">
     <g id="line2d_40">
      <g>
       <use style="stroke:#000000;stroke-width:0.6;" x="326.448287" xlink:href="#m968a5dc773" y="238.264671"/>
      </g>
     </g>
    </g>
    <g id="ytick_17">
     <g id="line2d_41">
      <g>
       <use style="stroke:#000000;stroke-width:0.6;" x="326.448287" xlink:href="#m968a5dc773" y="235.824698"/>
      </g>
     </g>
    </g>
    <g id="ytick_18">
     <g id="line2d_42">
      <g>
       <use style="stroke:#000000;stroke-width:0.6;" x="326.448287" xlink:href="#m968a5dc773" y="233.672489"/>
      </g>
     </g>
    </g>
    <g id="ytick_19">
     <g id="line2d_43">
      <g>
       <use style="stroke:#000000;stroke-width:0.6;" x="326.448287" xlink:href="#m968a5dc773" y="219.081634"/>
      </g>
     </g>
    </g>
    <g id="ytick_20">
     <g id="line2d_44">
      <g>
       <use style="stroke:#000000;stroke-width:0.6;" x="326.448287" xlink:href="#m968a5dc773" y="211.67271"/>
      </g>
     </g>
    </g>
    <g id="ytick_21">
     <g id="line2d_45">
      <g>
       <use style="stroke:#000000;stroke-width:0.6;" x="326.448287" xlink:href="#m968a5dc773" y="206.415995"/>
      </g>
     </g>
    </g>
    <g id="ytick_22">
     <g id="line2d_46">
      <g>
       <use style="stroke:#000000;stroke-width:0.6;" x="326.448287" xlink:href="#m968a5dc773" y="202.33857"/>
      </g>
     </g>
    </g>
    <g id="ytick_23">
     <g id="line2d_47">
      <g>
       <use style="stroke:#000000;stroke-width:0.6;" x="326.448287" xlink:href="#m968a5dc773" y="199.007071"/>
      </g>
     </g>
    </g>
    <g id="ytick_24">
     <g id="line2d_48">
      <g>
       <use style="stroke:#000000;stroke-width:0.6;" x="326.448287" xlink:href="#m968a5dc773" y="196.190329"/>
      </g>
     </g>
    </g>
    <g id="ytick_25">
     <g id="line2d_49">
      <g>
       <use style="stroke:#000000;stroke-width:0.6;" x="326.448287" xlink:href="#m968a5dc773" y="193.750356"/>
      </g>
     </g>
    </g>
    <g id="ytick_26">
     <g id="line2d_50">
      <g>
       <use style="stroke:#000000;stroke-width:0.6;" x="326.448287" xlink:href="#m968a5dc773" y="191.598148"/>
      </g>
     </g>
    </g>
    <g id="ytick_27">
     <g id="line2d_51">
      <g>
       <use style="stroke:#000000;stroke-width:0.6;" x="326.448287" xlink:href="#m968a5dc773" y="177.007292"/>
      </g>
     </g>
    </g>
    <g id="ytick_28">
     <g id="line2d_52">
      <g>
       <use style="stroke:#000000;stroke-width:0.6;" x="326.448287" xlink:href="#m968a5dc773" y="169.598369"/>
      </g>
     </g>
    </g>
    <g id="ytick_29">
     <g id="line2d_53">
      <g>
       <use style="stroke:#000000;stroke-width:0.6;" x="326.448287" xlink:href="#m968a5dc773" y="164.341654"/>
      </g>
     </g>
    </g>
    <g id="ytick_30">
     <g id="line2d_54">
      <g>
       <use style="stroke:#000000;stroke-width:0.6;" x="326.448287" xlink:href="#m968a5dc773" y="160.264229"/>
      </g>
     </g>
    </g>
    <g id="ytick_31">
     <g id="line2d_55">
      <g>
       <use style="stroke:#000000;stroke-width:0.6;" x="326.448287" xlink:href="#m968a5dc773" y="156.93273"/>
      </g>
     </g>
    </g>
    <g id="ytick_32">
     <g id="line2d_56">
      <g>
       <use style="stroke:#000000;stroke-width:0.6;" x="326.448287" xlink:href="#m968a5dc773" y="154.115988"/>
      </g>
     </g>
    </g>
    <g id="ytick_33">
     <g id="line2d_57">
      <g>
       <use style="stroke:#000000;stroke-width:0.6;" x="326.448287" xlink:href="#m968a5dc773" y="151.676015"/>
      </g>
     </g>
    </g>
    <g id="ytick_34">
     <g id="line2d_58">
      <g>
       <use style="stroke:#000000;stroke-width:0.6;" x="326.448287" xlink:href="#m968a5dc773" y="149.523806"/>
      </g>
     </g>
    </g>
    <g id="ytick_35">
     <g id="line2d_59">
      <g>
       <use style="stroke:#000000;stroke-width:0.6;" x="326.448287" xlink:href="#m968a5dc773" y="134.932951"/>
      </g>
     </g>
    </g>
    <g id="ytick_36">
     <g id="line2d_60">
      <g>
       <use style="stroke:#000000;stroke-width:0.6;" x="326.448287" xlink:href="#m968a5dc773" y="127.524027"/>
      </g>
     </g>
    </g>
    <g id="ytick_37">
     <g id="line2d_61">
      <g>
       <use style="stroke:#000000;stroke-width:0.6;" x="326.448287" xlink:href="#m968a5dc773" y="122.267312"/>
      </g>
     </g>
    </g>
    <g id="ytick_38">
     <g id="line2d_62">
      <g>
       <use style="stroke:#000000;stroke-width:0.6;" x="326.448287" xlink:href="#m968a5dc773" y="118.189887"/>
      </g>
     </g>
    </g>
    <g id="ytick_39">
     <g id="line2d_63">
      <g>
       <use style="stroke:#000000;stroke-width:0.6;" x="326.448287" xlink:href="#m968a5dc773" y="114.858388"/>
      </g>
     </g>
    </g>
    <g id="ytick_40">
     <g id="line2d_64">
      <g>
       <use style="stroke:#000000;stroke-width:0.6;" x="326.448287" xlink:href="#m968a5dc773" y="112.041646"/>
      </g>
     </g>
    </g>
    <g id="ytick_41">
     <g id="line2d_65">
      <g>
       <use style="stroke:#000000;stroke-width:0.6;" x="326.448287" xlink:href="#m968a5dc773" y="109.601673"/>
      </g>
     </g>
    </g>
    <g id="ytick_42">
     <g id="line2d_66">
      <g>
       <use style="stroke:#000000;stroke-width:0.6;" x="326.448287" xlink:href="#m968a5dc773" y="107.449464"/>
      </g>
     </g>
    </g>
    <g id="ytick_43">
     <g id="line2d_67">
      <g>
       <use style="stroke:#000000;stroke-width:0.6;" x="326.448287" xlink:href="#m968a5dc773" y="92.858609"/>
      </g>
     </g>
    </g>
    <g id="ytick_44">
     <g id="line2d_68">
      <g>
       <use style="stroke:#000000;stroke-width:0.6;" x="326.448287" xlink:href="#m968a5dc773" y="85.449686"/>
      </g>
     </g>
    </g>
    <g id="ytick_45">
     <g id="line2d_69">
      <g>
       <use style="stroke:#000000;stroke-width:0.6;" x="326.448287" xlink:href="#m968a5dc773" y="80.192971"/>
      </g>
     </g>
    </g>
    <g id="ytick_46">
     <g id="line2d_70">
      <g>
       <use style="stroke:#000000;stroke-width:0.6;" x="326.448287" xlink:href="#m968a5dc773" y="76.115546"/>
      </g>
     </g>
    </g>
    <g id="ytick_47">
     <g id="line2d_71">
      <g>
       <use style="stroke:#000000;stroke-width:0.6;" x="326.448287" xlink:href="#m968a5dc773" y="72.784047"/>
      </g>
     </g>
    </g>
    <g id="ytick_48">
     <g id="line2d_72">
      <g>
       <use style="stroke:#000000;stroke-width:0.6;" x="326.448287" xlink:href="#m968a5dc773" y="69.967305"/>
      </g>
     </g>
    </g>
    <g id="ytick_49">
     <g id="line2d_73">
      <g>
       <use style="stroke:#000000;stroke-width:0.6;" x="326.448287" xlink:href="#m968a5dc773" y="67.527332"/>
      </g>
     </g>
    </g>
    <g id="ytick_50">
     <g id="line2d_74">
      <g>
       <use style="stroke:#000000;stroke-width:0.6;" x="326.448287" xlink:href="#m968a5dc773" y="65.375123"/>
      </g>
     </g>
    </g>
    <g id="ytick_51">
     <g id="line2d_75">
      <g>
       <use style="stroke:#000000;stroke-width:0.6;" x="326.448287" xlink:href="#m968a5dc773" y="50.784268"/>
      </g>
     </g>
    </g>
    <g id="ytick_52">
     <g id="line2d_76">
      <g>
       <use style="stroke:#000000;stroke-width:0.6;" x="326.448287" xlink:href="#m968a5dc773" y="43.375344"/>
      </g>
     </g>
    </g>
    <g id="ytick_53">
     <g id="line2d_77">
      <g>
       <use style="stroke:#000000;stroke-width:0.6;" x="326.448287" xlink:href="#m968a5dc773" y="38.118629"/>
      </g>
     </g>
    </g>
    <g id="ytick_54">
     <g id="line2d_78">
      <g>
       <use style="stroke:#000000;stroke-width:0.6;" x="326.448287" xlink:href="#m968a5dc773" y="34.041204"/>
      </g>
     </g>
    </g>
    <g id="ytick_55">
     <g id="line2d_79">
      <g>
       <use style="stroke:#000000;stroke-width:0.6;" x="326.448287" xlink:href="#m968a5dc773" y="30.709705"/>
      </g>
     </g>
    </g>
    <g id="ytick_56">
     <g id="line2d_80">
      <g>
       <use style="stroke:#000000;stroke-width:0.6;" x="326.448287" xlink:href="#m968a5dc773" y="27.892963"/>
      </g>
     </g>
    </g>
    <g id="ytick_57">
     <g id="line2d_81">
      <g>
       <use style="stroke:#000000;stroke-width:0.6;" x="326.448287" xlink:href="#m968a5dc773" y="25.45299"/>
      </g>
     </g>
    </g>
    <g id="ytick_58">
     <g id="line2d_82">
      <g>
       <use style="stroke:#000000;stroke-width:0.6;" x="326.448287" xlink:href="#m968a5dc773" y="23.300781"/>
      </g>
     </g>
    </g>
    <g id="ytick_59">
     <g id="line2d_83">
      <g>
       <use style="stroke:#000000;stroke-width:0.6;" x="326.448287" xlink:href="#m968a5dc773" y="8.709926"/>
      </g>
     </g>
    </g>
    <g id="text_30">
     <!-- Frequency -->
     <g transform="translate(295.768599 150.649688)rotate(-90)scale(0.1 -0.1)">
      <defs>
       <path d="M 9.8125 72.90625 
L 51.703125 72.90625 
L 51.703125 64.59375 
L 19.671875 64.59375 
L 19.671875 43.109375 
L 48.578125 43.109375 
L 48.578125 34.8125 
L 19.671875 34.8125 
L 19.671875 0 
L 9.8125 0 
z
" id="DejaVuSans-70"/>
       <path d="M 14.796875 27.296875 
Q 14.796875 17.390625 18.875 11.75 
Q 22.953125 6.109375 30.078125 6.109375 
Q 37.203125 6.109375 41.296875 11.75 
Q 45.40625 17.390625 45.40625 27.296875 
Q 45.40625 37.203125 41.296875 42.84375 
Q 37.203125 48.484375 30.078125 48.484375 
Q 22.953125 48.484375 18.875 42.84375 
Q 14.796875 37.203125 14.796875 27.296875 
z
M 45.40625 8.203125 
Q 42.578125 3.328125 38.25 0.953125 
Q 33.9375 -1.421875 27.875 -1.421875 
Q 17.96875 -1.421875 11.734375 6.484375 
Q 5.515625 14.40625 5.515625 27.296875 
Q 5.515625 40.1875 11.734375 48.09375 
Q 17.96875 56 27.875 56 
Q 33.9375 56 38.25 53.625 
Q 42.578125 51.265625 45.40625 46.390625 
L 45.40625 54.6875 
L 54.390625 54.6875 
L 54.390625 -20.796875 
L 45.40625 -20.796875 
z
" id="DejaVuSans-113"/>
       <path d="M 48.78125 52.59375 
L 48.78125 44.1875 
Q 44.96875 46.296875 41.140625 47.34375 
Q 37.3125 48.390625 33.40625 48.390625 
Q 24.65625 48.390625 19.8125 42.84375 
Q 14.984375 37.3125 14.984375 27.296875 
Q 14.984375 17.28125 19.8125 11.734375 
Q 24.65625 6.203125 33.40625 6.203125 
Q 37.3125 6.203125 41.140625 7.25 
Q 44.96875 8.296875 48.78125 10.40625 
L 48.78125 2.09375 
Q 45.015625 0.34375 40.984375 -0.53125 
Q 36.96875 -1.421875 32.421875 -1.421875 
Q 20.0625 -1.421875 12.78125 6.34375 
Q 5.515625 14.109375 5.515625 27.296875 
Q 5.515625 40.671875 12.859375 48.328125 
Q 20.21875 56 33.015625 56 
Q 37.15625 56 41.109375 55.140625 
Q 45.0625 54.296875 48.78125 52.59375 
z
" id="DejaVuSans-99"/>
       <path d="M 32.171875 -5.078125 
Q 28.375 -14.84375 24.75 -17.8125 
Q 21.140625 -20.796875 15.09375 -20.796875 
L 7.90625 -20.796875 
L 7.90625 -13.28125 
L 13.1875 -13.28125 
Q 16.890625 -13.28125 18.9375 -11.515625 
Q 21 -9.765625 23.484375 -3.21875 
L 25.09375 0.875 
L 2.984375 54.6875 
L 12.5 54.6875 
L 29.59375 11.921875 
L 46.6875 54.6875 
L 56.203125 54.6875 
z
" id="DejaVuSans-121"/>
      </defs>
      <use xlink:href="#DejaVuSans-70"/>
      <use x="50.269531" xlink:href="#DejaVuSans-114"/>
      <use x="89.132812" xlink:href="#DejaVuSans-101"/>
      <use x="150.65625" xlink:href="#DejaVuSans-113"/>
      <use x="214.132812" xlink:href="#DejaVuSans-117"/>
      <use x="277.511719" xlink:href="#DejaVuSans-101"/>
      <use x="339.035156" xlink:href="#DejaVuSans-110"/>
      <use x="402.414062" xlink:href="#DejaVuSans-99"/>
      <use x="457.394531" xlink:href="#DejaVuSans-121"/>
     </g>
    </g>
   </g>
   <g id="patch_8">
    <path clip-path="url(#p13bcf7115d)" d="M 337.017803 280.99625 
L 337.017803 18.839548 
L 350.827552 18.839548 
L 350.827552 115.763624 
L 364.637302 115.763624 
L 364.637302 136.959965 
L 378.447051 136.959965 
L 378.447051 151.905862 
L 392.256801 151.905862 
L 392.256801 173.675794 
L 406.06655 173.675794 
L 406.06655 181.084717 
L 419.8763 181.084717 
L 419.8763 202.33857 
L 433.686049 202.33857 
L 433.686049 211.67271 
L 447.495799 211.67271 
L 447.495799 219.081634 
L 461.305548 219.081634 
L 461.305548 231.747273 
L 475.115298 231.747273 
L 475.115298 280.99625 
" style="fill:none;stroke:#1f77b4;stroke-linejoin:miter;"/>
   </g>
   <g id="patch_9">
    <path clip-path="url(#p13bcf7115d)" d="M 337.017803 280.99625 
L 337.017803 18.209111 
L 358.156835 18.209111 
L 358.156835 123.642557 
L 379.295867 123.642557 
L 379.295867 155.470137 
L 400.434899 155.470137 
L 400.434899 177.944557 
L 421.573931 177.944557 
L 421.573931 187.931361 
L 442.712963 187.931361 
L 442.712963 211.67271 
L 463.851995 211.67271 
L 463.851995 280.99625 
M 484.991027 280.99625 
L 484.991027 231.747273 
L 506.130059 231.747273 
L 506.130059 280.99625 
M 527.269091 280.99625 
L 527.269091 211.67271 
L 548.408123 211.67271 
L 548.408123 280.99625 
" style="fill:none;stroke:#ff7f0e;stroke-linejoin:miter;"/>
   </g>
   <g id="patch_10">
    <path clip-path="url(#p13bcf7115d)" d="M 337.017803 280.99625 
L 337.017803 17.892727 
L 345.679944 17.892727 
L 345.679944 110.635364 
L 354.342086 110.635364 
L 354.342086 142.114882 
L 363.004227 142.114882 
L 363.004227 171.523585 
L 371.666368 171.523585 
L 371.666368 199.007071 
L 380.32851 199.007071 
L 380.32851 231.747273 
L 388.990651 231.747273 
L 388.990651 280.99625 
M 414.977076 280.99625 
L 414.977076 231.747273 
L 423.639217 231.747273 
L 423.639217 280.99625 
" style="fill:none;stroke:#2ca02c;stroke-linejoin:miter;"/>
   </g>
   <g id="patch_11">
    <path clip-path="url(#p13bcf7115d)" d="M 337.017803 280.99625 
L 337.017803 17.922199 
L 346.070248 17.922199 
L 346.070248 113.937881 
L 355.122693 113.937881 
L 355.122693 154.645667 
L 364.175138 154.645667 
L 364.175138 193.750356 
L 373.227584 193.750356 
L 373.227584 211.67271 
L 382.280029 211.67271 
L 382.280029 280.99625 
M 391.332474 280.99625 
L 391.332474 231.747273 
L 400.38492 231.747273 
L 400.38492 280.99625 
M 418.48981 280.99625 
L 418.48981 231.747273 
L 427.542255 231.747273 
L 427.542255 280.99625 
" style="fill:none;stroke:#d62728;stroke-linejoin:miter;"/>
   </g>
   <g id="patch_12">
    <path d="M 326.448287 242.44 
L 326.448287 7.2 
" style="fill:none;stroke:#000000;stroke-linecap:square;stroke-linejoin:miter;stroke-width:0.8;"/>
   </g>
   <g id="patch_13">
    <path d="M 558.977639 242.44 
L 558.977639 7.2 
" style="fill:none;stroke:#000000;stroke-linecap:square;stroke-linejoin:miter;stroke-width:0.8;"/>
   </g>
   <g id="patch_14">
    <path d="M 326.448287 242.44 
L 558.977639 242.44 
" style="fill:none;stroke:#000000;stroke-linecap:square;stroke-linejoin:miter;stroke-width:0.8;"/>
   </g>
   <g id="patch_15">
    <path d="M 326.448287 7.2 
L 558.977639 7.2 
" style="fill:none;stroke:#000000;stroke-linecap:square;stroke-linejoin:miter;stroke-width:0.8;"/>
   </g>
  </g>
 </g>
 <defs>
  <clipPath id="p2bddc942c8">
   <rect height="235.24" width="232.529352" x="43.78125" y="7.2"/>
  </clipPath>
  <clipPath id="p13bcf7115d">
   <rect height="235.24" width="232.529352" x="326.448287" y="7.2"/>
  </clipPath>
 </defs>
</svg>
