<?xml version="1.0" encoding="utf-8" standalone="no"?>
<!DOCTYPE svg PUBLIC "-//W3C//DTD SVG 1.1//EN"
  "http://www.w3.org/Graphics/SVG/1.1/DTD/svg11.dtd">
<!-- Created with matplotlib (https://matplotlib.org/) -->
<svg height="328.1525pt" version="1.1" viewBox="0 0 568.52375 328.1525" width="568.52375pt" xmlns="http://www.w3.org/2000/svg" xmlns:xlink="http://www.w3.org/1999/xlink">
 <metadata>
  <rdf:RDF xmlns:cc="http://creativecommons.org/ns#" xmlns:dc="http://purl.org/dc/elements/1.1/" xmlns:rdf="http://www.w3.org/1999/02/22-rdf-syntax-ns#">
   <cc:Work>
    <dc:type rdf:resource="http://purl.org/dc/dcmitype/StillImage"/>
    <dc:date>2022-08-03T00:04:06.254379</dc:date>
    <dc:format>image/svg+xml</dc:format>
    <dc:creator>
     <cc:Agent>
      <dc:title>Matplotlib v3.3.0, https://matplotlib.org/</dc:title>
     </cc:Agent>
    </dc:creator>
   </cc:Work>
  </rdf:RDF>
 </metadata>
 <defs>
  <style type="text/css">*{stroke-linecap:butt;stroke-linejoin:round;}</style>
 </defs>
 <g id="figure_1">
  <g id="patch_1">
   <path d="M 0 328.1525 
L 568.52375 328.1525 
L 568.52375 0 
L 0 0 
z
" style="fill:#ffffff;"/>
  </g>
  <g id="axes_1">
   <g id="patch_2">
    <path d="M 50.14375 290.59625 
L 280.664908 290.59625 
L 280.664908 55.35625 
L 50.14375 55.35625 
z
" style="fill:#ffffff;"/>
   </g>
   <g id="matplotlib.axis_1">
    <g id="xtick_1">
     <g id="line2d_1">
      <defs>
       <path d="M 0 0 
L 0 3.5 
" id="m7dafc3e407" style="stroke:#000000;stroke-width:0.8;"/>
      </defs>
      <g>
       <use style="stroke:#000000;stroke-width:0.8;" x="60.621984" xlink:href="#m7dafc3e407" y="290.59625"/>
      </g>
     </g>
     <g id="text_1">
      <!-- 0.0 -->
      <g transform="translate(52.670422 305.194687)scale(0.1 -0.1)">
       <defs>
        <path d="M 31.78125 66.40625 
Q 24.171875 66.40625 20.328125 58.90625 
Q 16.5 51.421875 16.5 36.375 
Q 16.5 21.390625 20.328125 13.890625 
Q 24.171875 6.390625 31.78125 6.390625 
Q 39.453125 6.390625 43.28125 13.890625 
Q 47.125 21.390625 47.125 36.375 
Q 47.125 51.421875 43.28125 58.90625 
Q 39.453125 66.40625 31.78125 66.40625 
z
M 31.78125 74.21875 
Q 44.046875 74.21875 50.515625 64.515625 
Q 56.984375 54.828125 56.984375 36.375 
Q 56.984375 17.96875 50.515625 8.265625 
Q 44.046875 -1.421875 31.78125 -1.421875 
Q 19.53125 -1.421875 13.0625 8.265625 
Q 6.59375 17.96875 6.59375 36.375 
Q 6.59375 54.828125 13.0625 64.515625 
Q 19.53125 74.21875 31.78125 74.21875 
z
" id="DejaVuSans-48"/>
        <path d="M 10.6875 12.40625 
L 21 12.40625 
L 21 0 
L 10.6875 0 
z
" id="DejaVuSans-46"/>
       </defs>
       <use xlink:href="#DejaVuSans-48"/>
       <use x="63.623047" xlink:href="#DejaVuSans-46"/>
       <use x="95.410156" xlink:href="#DejaVuSans-48"/>
      </g>
     </g>
    </g>
    <g id="xtick_2">
     <g id="line2d_2">
      <g>
       <use style="stroke:#000000;stroke-width:0.8;" x="98.313475" xlink:href="#m7dafc3e407" y="290.59625"/>
      </g>
     </g>
     <g id="text_2">
      <!-- 2.5 -->
      <g transform="translate(90.361913 305.194687)scale(0.1 -0.1)">
       <defs>
        <path d="M 19.1875 8.296875 
L 53.609375 8.296875 
L 53.609375 0 
L 7.328125 0 
L 7.328125 8.296875 
Q 12.9375 14.109375 22.625 23.890625 
Q 32.328125 33.6875 34.8125 36.53125 
Q 39.546875 41.84375 41.421875 45.53125 
Q 43.3125 49.21875 43.3125 52.78125 
Q 43.3125 58.59375 39.234375 62.25 
Q 35.15625 65.921875 28.609375 65.921875 
Q 23.96875 65.921875 18.8125 64.3125 
Q 13.671875 62.703125 7.8125 59.421875 
L 7.8125 69.390625 
Q 13.765625 71.78125 18.9375 73 
Q 24.125 74.21875 28.421875 74.21875 
Q 39.75 74.21875 46.484375 68.546875 
Q 53.21875 62.890625 53.21875 53.421875 
Q 53.21875 48.921875 51.53125 44.890625 
Q 49.859375 40.875 45.40625 35.40625 
Q 44.1875 33.984375 37.640625 27.21875 
Q 31.109375 20.453125 19.1875 8.296875 
z
" id="DejaVuSans-50"/>
        <path d="M 10.796875 72.90625 
L 49.515625 72.90625 
L 49.515625 64.59375 
L 19.828125 64.59375 
L 19.828125 46.734375 
Q 21.96875 47.46875 24.109375 47.828125 
Q 26.265625 48.1875 28.421875 48.1875 
Q 40.625 48.1875 47.75 41.5 
Q 54.890625 34.8125 54.890625 23.390625 
Q 54.890625 11.625 47.5625 5.09375 
Q 40.234375 -1.421875 26.90625 -1.421875 
Q 22.3125 -1.421875 17.546875 -0.640625 
Q 12.796875 0.140625 7.71875 1.703125 
L 7.71875 11.625 
Q 12.109375 9.234375 16.796875 8.0625 
Q 21.484375 6.890625 26.703125 6.890625 
Q 35.15625 6.890625 40.078125 11.328125 
Q 45.015625 15.765625 45.015625 23.390625 
Q 45.015625 31 40.078125 35.4375 
Q 35.15625 39.890625 26.703125 39.890625 
Q 22.75 39.890625 18.8125 39.015625 
Q 14.890625 38.140625 10.796875 36.28125 
z
" id="DejaVuSans-53"/>
       </defs>
       <use xlink:href="#DejaVuSans-50"/>
       <use x="63.623047" xlink:href="#DejaVuSans-46"/>
       <use x="95.410156" xlink:href="#DejaVuSans-53"/>
      </g>
     </g>
    </g>
    <g id="xtick_3">
     <g id="line2d_3">
      <g>
       <use style="stroke:#000000;stroke-width:0.8;" x="136.004966" xlink:href="#m7dafc3e407" y="290.59625"/>
      </g>
     </g>
     <g id="text_3">
      <!-- 5.0 -->
      <g transform="translate(128.053403 305.194687)scale(0.1 -0.1)">
       <use xlink:href="#DejaVuSans-53"/>
       <use x="63.623047" xlink:href="#DejaVuSans-46"/>
       <use x="95.410156" xlink:href="#DejaVuSans-48"/>
      </g>
     </g>
    </g>
    <g id="xtick_4">
     <g id="line2d_4">
      <g>
       <use style="stroke:#000000;stroke-width:0.8;" x="173.696457" xlink:href="#m7dafc3e407" y="290.59625"/>
      </g>
     </g>
     <g id="text_4">
      <!-- 7.5 -->
      <g transform="translate(165.744894 305.194687)scale(0.1 -0.1)">
       <defs>
        <path d="M 8.203125 72.90625 
L 55.078125 72.90625 
L 55.078125 68.703125 
L 28.609375 0 
L 18.3125 0 
L 43.21875 64.59375 
L 8.203125 64.59375 
z
" id="DejaVuSans-55"/>
       </defs>
       <use xlink:href="#DejaVuSans-55"/>
       <use x="63.623047" xlink:href="#DejaVuSans-46"/>
       <use x="95.410156" xlink:href="#DejaVuSans-53"/>
      </g>
     </g>
    </g>
    <g id="xtick_5">
     <g id="line2d_5">
      <g>
       <use style="stroke:#000000;stroke-width:0.8;" x="211.387948" xlink:href="#m7dafc3e407" y="290.59625"/>
      </g>
     </g>
     <g id="text_5">
      <!-- 10.0 -->
      <g transform="translate(200.255135 305.194687)scale(0.1 -0.1)">
       <defs>
        <path d="M 12.40625 8.296875 
L 28.515625 8.296875 
L 28.515625 63.921875 
L 10.984375 60.40625 
L 10.984375 69.390625 
L 28.421875 72.90625 
L 38.28125 72.90625 
L 38.28125 8.296875 
L 54.390625 8.296875 
L 54.390625 0 
L 12.40625 0 
z
" id="DejaVuSans-49"/>
       </defs>
       <use xlink:href="#DejaVuSans-49"/>
       <use x="63.623047" xlink:href="#DejaVuSans-48"/>
       <use x="127.246094" xlink:href="#DejaVuSans-46"/>
       <use x="159.033203" xlink:href="#DejaVuSans-48"/>
      </g>
     </g>
    </g>
    <g id="xtick_6">
     <g id="line2d_6">
      <g>
       <use style="stroke:#000000;stroke-width:0.8;" x="249.079438" xlink:href="#m7dafc3e407" y="290.59625"/>
      </g>
     </g>
     <g id="text_6">
      <!-- 12.5 -->
      <g transform="translate(237.946626 305.194687)scale(0.1 -0.1)">
       <use xlink:href="#DejaVuSans-49"/>
       <use x="63.623047" xlink:href="#DejaVuSans-50"/>
       <use x="127.246094" xlink:href="#DejaVuSans-46"/>
       <use x="159.033203" xlink:href="#DejaVuSans-53"/>
      </g>
     </g>
    </g>
    <g id="text_7">
     <!-- Time (s) -->
     <g transform="translate(145.075423 318.872812)scale(0.1 -0.1)">
      <defs>
       <path d="M -0.296875 72.90625 
L 61.375 72.90625 
L 61.375 64.59375 
L 35.5 64.59375 
L 35.5 0 
L 25.59375 0 
L 25.59375 64.59375 
L -0.296875 64.59375 
z
" id="DejaVuSans-84"/>
       <path d="M 9.421875 54.6875 
L 18.40625 54.6875 
L 18.40625 0 
L 9.421875 0 
z
M 9.421875 75.984375 
L 18.40625 75.984375 
L 18.40625 64.59375 
L 9.421875 64.59375 
z
" id="DejaVuSans-105"/>
       <path d="M 52 44.1875 
Q 55.375 50.25 60.0625 53.125 
Q 64.75 56 71.09375 56 
Q 79.640625 56 84.28125 50.015625 
Q 88.921875 44.046875 88.921875 33.015625 
L 88.921875 0 
L 79.890625 0 
L 79.890625 32.71875 
Q 79.890625 40.578125 77.09375 44.375 
Q 74.3125 48.1875 68.609375 48.1875 
Q 61.625 48.1875 57.5625 43.546875 
Q 53.515625 38.921875 53.515625 30.90625 
L 53.515625 0 
L 44.484375 0 
L 44.484375 32.71875 
Q 44.484375 40.625 41.703125 44.40625 
Q 38.921875 48.1875 33.109375 48.1875 
Q 26.21875 48.1875 22.15625 43.53125 
Q 18.109375 38.875 18.109375 30.90625 
L 18.109375 0 
L 9.078125 0 
L 9.078125 54.6875 
L 18.109375 54.6875 
L 18.109375 46.1875 
Q 21.1875 51.21875 25.484375 53.609375 
Q 29.78125 56 35.6875 56 
Q 41.65625 56 45.828125 52.96875 
Q 50 49.953125 52 44.1875 
z
" id="DejaVuSans-109"/>
       <path d="M 56.203125 29.59375 
L 56.203125 25.203125 
L 14.890625 25.203125 
Q 15.484375 15.921875 20.484375 11.0625 
Q 25.484375 6.203125 34.421875 6.203125 
Q 39.59375 6.203125 44.453125 7.46875 
Q 49.3125 8.734375 54.109375 11.28125 
L 54.109375 2.78125 
Q 49.265625 0.734375 44.1875 -0.34375 
Q 39.109375 -1.421875 33.890625 -1.421875 
Q 20.796875 -1.421875 13.15625 6.1875 
Q 5.515625 13.8125 5.515625 26.8125 
Q 5.515625 40.234375 12.765625 48.109375 
Q 20.015625 56 32.328125 56 
Q 43.359375 56 49.78125 48.890625 
Q 56.203125 41.796875 56.203125 29.59375 
z
M 47.21875 32.234375 
Q 47.125 39.59375 43.09375 43.984375 
Q 39.0625 48.390625 32.421875 48.390625 
Q 24.90625 48.390625 20.390625 44.140625 
Q 15.875 39.890625 15.1875 32.171875 
z
" id="DejaVuSans-101"/>
       <path id="DejaVuSans-32"/>
       <path d="M 31 75.875 
Q 24.46875 64.65625 21.28125 53.65625 
Q 18.109375 42.671875 18.109375 31.390625 
Q 18.109375 20.125 21.3125 9.0625 
Q 24.515625 -2 31 -13.1875 
L 23.1875 -13.1875 
Q 15.875 -1.703125 12.234375 9.375 
Q 8.59375 20.453125 8.59375 31.390625 
Q 8.59375 42.28125 12.203125 53.3125 
Q 15.828125 64.359375 23.1875 75.875 
z
" id="DejaVuSans-40"/>
       <path d="M 44.28125 53.078125 
L 44.28125 44.578125 
Q 40.484375 46.53125 36.375 47.5 
Q 32.28125 48.484375 27.875 48.484375 
Q 21.1875 48.484375 17.84375 46.4375 
Q 14.5 44.390625 14.5 40.28125 
Q 14.5 37.15625 16.890625 35.375 
Q 19.28125 33.59375 26.515625 31.984375 
L 29.59375 31.296875 
Q 39.15625 29.25 43.1875 25.515625 
Q 47.21875 21.78125 47.21875 15.09375 
Q 47.21875 7.46875 41.1875 3.015625 
Q 35.15625 -1.421875 24.609375 -1.421875 
Q 20.21875 -1.421875 15.453125 -0.5625 
Q 10.6875 0.296875 5.421875 2 
L 5.421875 11.28125 
Q 10.40625 8.6875 15.234375 7.390625 
Q 20.0625 6.109375 24.8125 6.109375 
Q 31.15625 6.109375 34.5625 8.28125 
Q 37.984375 10.453125 37.984375 14.40625 
Q 37.984375 18.0625 35.515625 20.015625 
Q 33.0625 21.96875 24.703125 23.78125 
L 21.578125 24.515625 
Q 13.234375 26.265625 9.515625 29.90625 
Q 5.8125 33.546875 5.8125 39.890625 
Q 5.8125 47.609375 11.28125 51.796875 
Q 16.75 56 26.8125 56 
Q 31.78125 56 36.171875 55.265625 
Q 40.578125 54.546875 44.28125 53.078125 
z
" id="DejaVuSans-115"/>
       <path d="M 8.015625 75.875 
L 15.828125 75.875 
Q 23.140625 64.359375 26.78125 53.3125 
Q 30.421875 42.28125 30.421875 31.390625 
Q 30.421875 20.453125 26.78125 9.375 
Q 23.140625 -1.703125 15.828125 -13.1875 
L 8.015625 -13.1875 
Q 14.5 -2 17.703125 9.0625 
Q 20.90625 20.125 20.90625 31.390625 
Q 20.90625 42.671875 17.703125 53.65625 
Q 14.5 64.65625 8.015625 75.875 
z
" id="DejaVuSans-41"/>
      </defs>
      <use xlink:href="#DejaVuSans-84"/>
      <use x="57.958984" xlink:href="#DejaVuSans-105"/>
      <use x="85.742188" xlink:href="#DejaVuSans-109"/>
      <use x="183.154297" xlink:href="#DejaVuSans-101"/>
      <use x="244.677734" xlink:href="#DejaVuSans-32"/>
      <use x="276.464844" xlink:href="#DejaVuSans-40"/>
      <use x="315.478516" xlink:href="#DejaVuSans-115"/>
      <use x="367.578125" xlink:href="#DejaVuSans-41"/>
     </g>
    </g>
   </g>
   <g id="matplotlib.axis_2">
    <g id="ytick_1">
     <g id="line2d_7">
      <defs>
       <path d="M 0 0 
L -3.5 0 
" id="m6f22b9ee3b" style="stroke:#000000;stroke-width:0.8;"/>
      </defs>
      <g>
       <use style="stroke:#000000;stroke-width:0.8;" x="50.14375" xlink:href="#m6f22b9ee3b" y="279.903523"/>
      </g>
     </g>
     <g id="text_8">
      <!-- 0.00 -->
      <g transform="translate(20.878125 283.702741)scale(0.1 -0.1)">
       <use xlink:href="#DejaVuSans-48"/>
       <use x="63.623047" xlink:href="#DejaVuSans-46"/>
       <use x="95.410156" xlink:href="#DejaVuSans-48"/>
       <use x="159.033203" xlink:href="#DejaVuSans-48"/>
      </g>
     </g>
    </g>
    <g id="ytick_2">
     <g id="line2d_8">
      <g>
       <use style="stroke:#000000;stroke-width:0.8;" x="50.14375" xlink:href="#m6f22b9ee3b" y="245.867515"/>
      </g>
     </g>
     <g id="text_9">
      <!-- 0.05 -->
      <g transform="translate(20.878125 249.666733)scale(0.1 -0.1)">
       <use xlink:href="#DejaVuSans-48"/>
       <use x="63.623047" xlink:href="#DejaVuSans-46"/>
       <use x="95.410156" xlink:href="#DejaVuSans-48"/>
       <use x="159.033203" xlink:href="#DejaVuSans-53"/>
      </g>
     </g>
    </g>
    <g id="ytick_3">
     <g id="line2d_9">
      <g>
       <use style="stroke:#000000;stroke-width:0.8;" x="50.14375" xlink:href="#m6f22b9ee3b" y="211.831507"/>
      </g>
     </g>
     <g id="text_10">
      <!-- 0.10 -->
      <g transform="translate(20.878125 215.630725)scale(0.1 -0.1)">
       <use xlink:href="#DejaVuSans-48"/>
       <use x="63.623047" xlink:href="#DejaVuSans-46"/>
       <use x="95.410156" xlink:href="#DejaVuSans-49"/>
       <use x="159.033203" xlink:href="#DejaVuSans-48"/>
      </g>
     </g>
    </g>
    <g id="ytick_4">
     <g id="line2d_10">
      <g>
       <use style="stroke:#000000;stroke-width:0.8;" x="50.14375" xlink:href="#m6f22b9ee3b" y="177.795499"/>
      </g>
     </g>
     <g id="text_11">
      <!-- 0.15 -->
      <g transform="translate(20.878125 181.594717)scale(0.1 -0.1)">
       <use xlink:href="#DejaVuSans-48"/>
       <use x="63.623047" xlink:href="#DejaVuSans-46"/>
       <use x="95.410156" xlink:href="#DejaVuSans-49"/>
       <use x="159.033203" xlink:href="#DejaVuSans-53"/>
      </g>
     </g>
    </g>
    <g id="ytick_5">
     <g id="line2d_11">
      <g>
       <use style="stroke:#000000;stroke-width:0.8;" x="50.14375" xlink:href="#m6f22b9ee3b" y="143.759491"/>
      </g>
     </g>
     <g id="text_12">
      <!-- 0.20 -->
      <g transform="translate(20.878125 147.558709)scale(0.1 -0.1)">
       <use xlink:href="#DejaVuSans-48"/>
       <use x="63.623047" xlink:href="#DejaVuSans-46"/>
       <use x="95.410156" xlink:href="#DejaVuSans-50"/>
       <use x="159.033203" xlink:href="#DejaVuSans-48"/>
      </g>
     </g>
    </g>
    <g id="ytick_6">
     <g id="line2d_12">
      <g>
       <use style="stroke:#000000;stroke-width:0.8;" x="50.14375" xlink:href="#m6f22b9ee3b" y="109.723483"/>
      </g>
     </g>
     <g id="text_13">
      <!-- 0.25 -->
      <g transform="translate(20.878125 113.522701)scale(0.1 -0.1)">
       <use xlink:href="#DejaVuSans-48"/>
       <use x="63.623047" xlink:href="#DejaVuSans-46"/>
       <use x="95.410156" xlink:href="#DejaVuSans-50"/>
       <use x="159.033203" xlink:href="#DejaVuSans-53"/>
      </g>
     </g>
    </g>
    <g id="ytick_7">
     <g id="line2d_13">
      <g>
       <use style="stroke:#000000;stroke-width:0.8;" x="50.14375" xlink:href="#m6f22b9ee3b" y="75.687475"/>
      </g>
     </g>
     <g id="text_14">
      <!-- 0.30 -->
      <g transform="translate(20.878125 79.486693)scale(0.1 -0.1)">
       <defs>
        <path d="M 40.578125 39.3125 
Q 47.65625 37.796875 51.625 33 
Q 55.609375 28.21875 55.609375 21.1875 
Q 55.609375 10.40625 48.1875 4.484375 
Q 40.765625 -1.421875 27.09375 -1.421875 
Q 22.515625 -1.421875 17.65625 -0.515625 
Q 12.796875 0.390625 7.625 2.203125 
L 7.625 11.71875 
Q 11.71875 9.328125 16.59375 8.109375 
Q 21.484375 6.890625 26.8125 6.890625 
Q 36.078125 6.890625 40.9375 10.546875 
Q 45.796875 14.203125 45.796875 21.1875 
Q 45.796875 27.640625 41.28125 31.265625 
Q 36.765625 34.90625 28.71875 34.90625 
L 20.21875 34.90625 
L 20.21875 43.015625 
L 29.109375 43.015625 
Q 36.375 43.015625 40.234375 45.921875 
Q 44.09375 48.828125 44.09375 54.296875 
Q 44.09375 59.90625 40.109375 62.90625 
Q 36.140625 65.921875 28.71875 65.921875 
Q 24.65625 65.921875 20.015625 65.03125 
Q 15.375 64.15625 9.8125 62.3125 
L 9.8125 71.09375 
Q 15.4375 72.65625 20.34375 73.4375 
Q 25.25 74.21875 29.59375 74.21875 
Q 40.828125 74.21875 47.359375 69.109375 
Q 53.90625 64.015625 53.90625 55.328125 
Q 53.90625 49.265625 50.4375 45.09375 
Q 46.96875 40.921875 40.578125 39.3125 
z
" id="DejaVuSans-51"/>
       </defs>
       <use xlink:href="#DejaVuSans-48"/>
       <use x="63.623047" xlink:href="#DejaVuSans-46"/>
       <use x="95.410156" xlink:href="#DejaVuSans-51"/>
       <use x="159.033203" xlink:href="#DejaVuSans-48"/>
      </g>
     </g>
    </g>
    <g id="text_15">
     <!-- Mean Magnitude of Steering Angle(Clipped) -->
     <g transform="translate(14.798438 282.339531)rotate(-90)scale(0.1 -0.1)">
      <defs>
       <path d="M 9.8125 72.90625 
L 24.515625 72.90625 
L 43.109375 23.296875 
L 61.8125 72.90625 
L 76.515625 72.90625 
L 76.515625 0 
L 66.890625 0 
L 66.890625 64.015625 
L 48.09375 14.015625 
L 38.1875 14.015625 
L 19.390625 64.015625 
L 19.390625 0 
L 9.8125 0 
z
" id="DejaVuSans-77"/>
       <path d="M 34.28125 27.484375 
Q 23.390625 27.484375 19.1875 25 
Q 14.984375 22.515625 14.984375 16.5 
Q 14.984375 11.71875 18.140625 8.90625 
Q 21.296875 6.109375 26.703125 6.109375 
Q 34.1875 6.109375 38.703125 11.40625 
Q 43.21875 16.703125 43.21875 25.484375 
L 43.21875 27.484375 
z
M 52.203125 31.203125 
L 52.203125 0 
L 43.21875 0 
L 43.21875 8.296875 
Q 40.140625 3.328125 35.546875 0.953125 
Q 30.953125 -1.421875 24.3125 -1.421875 
Q 15.921875 -1.421875 10.953125 3.296875 
Q 6 8.015625 6 15.921875 
Q 6 25.140625 12.171875 29.828125 
Q 18.359375 34.515625 30.609375 34.515625 
L 43.21875 34.515625 
L 43.21875 35.40625 
Q 43.21875 41.609375 39.140625 45 
Q 35.0625 48.390625 27.6875 48.390625 
Q 23 48.390625 18.546875 47.265625 
Q 14.109375 46.140625 10.015625 43.890625 
L 10.015625 52.203125 
Q 14.9375 54.109375 19.578125 55.046875 
Q 24.21875 56 28.609375 56 
Q 40.484375 56 46.34375 49.84375 
Q 52.203125 43.703125 52.203125 31.203125 
z
" id="DejaVuSans-97"/>
       <path d="M 54.890625 33.015625 
L 54.890625 0 
L 45.90625 0 
L 45.90625 32.71875 
Q 45.90625 40.484375 42.875 44.328125 
Q 39.84375 48.1875 33.796875 48.1875 
Q 26.515625 48.1875 22.3125 43.546875 
Q 18.109375 38.921875 18.109375 30.90625 
L 18.109375 0 
L 9.078125 0 
L 9.078125 54.6875 
L 18.109375 54.6875 
L 18.109375 46.1875 
Q 21.34375 51.125 25.703125 53.5625 
Q 30.078125 56 35.796875 56 
Q 45.21875 56 50.046875 50.171875 
Q 54.890625 44.34375 54.890625 33.015625 
z
" id="DejaVuSans-110"/>
       <path d="M 45.40625 27.984375 
Q 45.40625 37.75 41.375 43.109375 
Q 37.359375 48.484375 30.078125 48.484375 
Q 22.859375 48.484375 18.828125 43.109375 
Q 14.796875 37.75 14.796875 27.984375 
Q 14.796875 18.265625 18.828125 12.890625 
Q 22.859375 7.515625 30.078125 7.515625 
Q 37.359375 7.515625 41.375 12.890625 
Q 45.40625 18.265625 45.40625 27.984375 
z
M 54.390625 6.78125 
Q 54.390625 -7.171875 48.1875 -13.984375 
Q 42 -20.796875 29.203125 -20.796875 
Q 24.46875 -20.796875 20.265625 -20.09375 
Q 16.0625 -19.390625 12.109375 -17.921875 
L 12.109375 -9.1875 
Q 16.0625 -11.328125 19.921875 -12.34375 
Q 23.78125 -13.375 27.78125 -13.375 
Q 36.625 -13.375 41.015625 -8.765625 
Q 45.40625 -4.15625 45.40625 5.171875 
L 45.40625 9.625 
Q 42.625 4.78125 38.28125 2.390625 
Q 33.9375 0 27.875 0 
Q 17.828125 0 11.671875 7.65625 
Q 5.515625 15.328125 5.515625 27.984375 
Q 5.515625 40.671875 11.671875 48.328125 
Q 17.828125 56 27.875 56 
Q 33.9375 56 38.28125 53.609375 
Q 42.625 51.21875 45.40625 46.390625 
L 45.40625 54.6875 
L 54.390625 54.6875 
z
" id="DejaVuSans-103"/>
       <path d="M 18.3125 70.21875 
L 18.3125 54.6875 
L 36.8125 54.6875 
L 36.8125 47.703125 
L 18.3125 47.703125 
L 18.3125 18.015625 
Q 18.3125 11.328125 20.140625 9.421875 
Q 21.96875 7.515625 27.59375 7.515625 
L 36.8125 7.515625 
L 36.8125 0 
L 27.59375 0 
Q 17.1875 0 13.234375 3.875 
Q 9.28125 7.765625 9.28125 18.015625 
L 9.28125 47.703125 
L 2.6875 47.703125 
L 2.6875 54.6875 
L 9.28125 54.6875 
L 9.28125 70.21875 
z
" id="DejaVuSans-116"/>
       <path d="M 8.5 21.578125 
L 8.5 54.6875 
L 17.484375 54.6875 
L 17.484375 21.921875 
Q 17.484375 14.15625 20.5 10.265625 
Q 23.53125 6.390625 29.59375 6.390625 
Q 36.859375 6.390625 41.078125 11.03125 
Q 45.3125 15.671875 45.3125 23.6875 
L 45.3125 54.6875 
L 54.296875 54.6875 
L 54.296875 0 
L 45.3125 0 
L 45.3125 8.40625 
Q 42.046875 3.421875 37.71875 1 
Q 33.40625 -1.421875 27.6875 -1.421875 
Q 18.265625 -1.421875 13.375 4.4375 
Q 8.5 10.296875 8.5 21.578125 
z
M 31.109375 56 
z
" id="DejaVuSans-117"/>
       <path d="M 45.40625 46.390625 
L 45.40625 75.984375 
L 54.390625 75.984375 
L 54.390625 0 
L 45.40625 0 
L 45.40625 8.203125 
Q 42.578125 3.328125 38.25 0.953125 
Q 33.9375 -1.421875 27.875 -1.421875 
Q 17.96875 -1.421875 11.734375 6.484375 
Q 5.515625 14.40625 5.515625 27.296875 
Q 5.515625 40.1875 11.734375 48.09375 
Q 17.96875 56 27.875 56 
Q 33.9375 56 38.25 53.625 
Q 42.578125 51.265625 45.40625 46.390625 
z
M 14.796875 27.296875 
Q 14.796875 17.390625 18.875 11.75 
Q 22.953125 6.109375 30.078125 6.109375 
Q 37.203125 6.109375 41.296875 11.75 
Q 45.40625 17.390625 45.40625 27.296875 
Q 45.40625 37.203125 41.296875 42.84375 
Q 37.203125 48.484375 30.078125 48.484375 
Q 22.953125 48.484375 18.875 42.84375 
Q 14.796875 37.203125 14.796875 27.296875 
z
" id="DejaVuSans-100"/>
       <path d="M 30.609375 48.390625 
Q 23.390625 48.390625 19.1875 42.75 
Q 14.984375 37.109375 14.984375 27.296875 
Q 14.984375 17.484375 19.15625 11.84375 
Q 23.34375 6.203125 30.609375 6.203125 
Q 37.796875 6.203125 41.984375 11.859375 
Q 46.1875 17.53125 46.1875 27.296875 
Q 46.1875 37.015625 41.984375 42.703125 
Q 37.796875 48.390625 30.609375 48.390625 
z
M 30.609375 56 
Q 42.328125 56 49.015625 48.375 
Q 55.71875 40.765625 55.71875 27.296875 
Q 55.71875 13.875 49.015625 6.21875 
Q 42.328125 -1.421875 30.609375 -1.421875 
Q 18.84375 -1.421875 12.171875 6.21875 
Q 5.515625 13.875 5.515625 27.296875 
Q 5.515625 40.765625 12.171875 48.375 
Q 18.84375 56 30.609375 56 
z
" id="DejaVuSans-111"/>
       <path d="M 37.109375 75.984375 
L 37.109375 68.5 
L 28.515625 68.5 
Q 23.6875 68.5 21.796875 66.546875 
Q 19.921875 64.59375 19.921875 59.515625 
L 19.921875 54.6875 
L 34.71875 54.6875 
L 34.71875 47.703125 
L 19.921875 47.703125 
L 19.921875 0 
L 10.890625 0 
L 10.890625 47.703125 
L 2.296875 47.703125 
L 2.296875 54.6875 
L 10.890625 54.6875 
L 10.890625 58.5 
Q 10.890625 67.625 15.140625 71.796875 
Q 19.390625 75.984375 28.609375 75.984375 
z
" id="DejaVuSans-102"/>
       <path d="M 53.515625 70.515625 
L 53.515625 60.890625 
Q 47.90625 63.578125 42.921875 64.890625 
Q 37.9375 66.21875 33.296875 66.21875 
Q 25.25 66.21875 20.875 63.09375 
Q 16.5 59.96875 16.5 54.203125 
Q 16.5 49.359375 19.40625 46.890625 
Q 22.3125 44.4375 30.421875 42.921875 
L 36.375 41.703125 
Q 47.40625 39.59375 52.65625 34.296875 
Q 57.90625 29 57.90625 20.125 
Q 57.90625 9.515625 50.796875 4.046875 
Q 43.703125 -1.421875 29.984375 -1.421875 
Q 24.8125 -1.421875 18.96875 -0.25 
Q 13.140625 0.921875 6.890625 3.21875 
L 6.890625 13.375 
Q 12.890625 10.015625 18.65625 8.296875 
Q 24.421875 6.59375 29.984375 6.59375 
Q 38.421875 6.59375 43.015625 9.90625 
Q 47.609375 13.234375 47.609375 19.390625 
Q 47.609375 24.75 44.3125 27.78125 
Q 41.015625 30.8125 33.5 32.328125 
L 27.484375 33.5 
Q 16.453125 35.6875 11.515625 40.375 
Q 6.59375 45.0625 6.59375 53.421875 
Q 6.59375 63.09375 13.40625 68.65625 
Q 20.21875 74.21875 32.171875 74.21875 
Q 37.3125 74.21875 42.625 73.28125 
Q 47.953125 72.359375 53.515625 70.515625 
z
" id="DejaVuSans-83"/>
       <path d="M 41.109375 46.296875 
Q 39.59375 47.171875 37.8125 47.578125 
Q 36.03125 48 33.890625 48 
Q 26.265625 48 22.1875 43.046875 
Q 18.109375 38.09375 18.109375 28.8125 
L 18.109375 0 
L 9.078125 0 
L 9.078125 54.6875 
L 18.109375 54.6875 
L 18.109375 46.1875 
Q 20.953125 51.171875 25.484375 53.578125 
Q 30.03125 56 36.53125 56 
Q 37.453125 56 38.578125 55.875 
Q 39.703125 55.765625 41.0625 55.515625 
z
" id="DejaVuSans-114"/>
       <path d="M 34.1875 63.1875 
L 20.796875 26.90625 
L 47.609375 26.90625 
z
M 28.609375 72.90625 
L 39.796875 72.90625 
L 67.578125 0 
L 57.328125 0 
L 50.6875 18.703125 
L 17.828125 18.703125 
L 11.1875 0 
L 0.78125 0 
z
" id="DejaVuSans-65"/>
       <path d="M 9.421875 75.984375 
L 18.40625 75.984375 
L 18.40625 0 
L 9.421875 0 
z
" id="DejaVuSans-108"/>
       <path d="M 64.40625 67.28125 
L 64.40625 56.890625 
Q 59.421875 61.53125 53.78125 63.8125 
Q 48.140625 66.109375 41.796875 66.109375 
Q 29.296875 66.109375 22.65625 58.46875 
Q 16.015625 50.828125 16.015625 36.375 
Q 16.015625 21.96875 22.65625 14.328125 
Q 29.296875 6.6875 41.796875 6.6875 
Q 48.140625 6.6875 53.78125 8.984375 
Q 59.421875 11.28125 64.40625 15.921875 
L 64.40625 5.609375 
Q 59.234375 2.09375 53.4375 0.328125 
Q 47.65625 -1.421875 41.21875 -1.421875 
Q 24.65625 -1.421875 15.125 8.703125 
Q 5.609375 18.84375 5.609375 36.375 
Q 5.609375 53.953125 15.125 64.078125 
Q 24.65625 74.21875 41.21875 74.21875 
Q 47.75 74.21875 53.53125 72.484375 
Q 59.328125 70.75 64.40625 67.28125 
z
" id="DejaVuSans-67"/>
       <path d="M 18.109375 8.203125 
L 18.109375 -20.796875 
L 9.078125 -20.796875 
L 9.078125 54.6875 
L 18.109375 54.6875 
L 18.109375 46.390625 
Q 20.953125 51.265625 25.265625 53.625 
Q 29.59375 56 35.59375 56 
Q 45.5625 56 51.78125 48.09375 
Q 58.015625 40.1875 58.015625 27.296875 
Q 58.015625 14.40625 51.78125 6.484375 
Q 45.5625 -1.421875 35.59375 -1.421875 
Q 29.59375 -1.421875 25.265625 0.953125 
Q 20.953125 3.328125 18.109375 8.203125 
z
M 48.6875 27.296875 
Q 48.6875 37.203125 44.609375 42.84375 
Q 40.53125 48.484375 33.40625 48.484375 
Q 26.265625 48.484375 22.1875 42.84375 
Q 18.109375 37.203125 18.109375 27.296875 
Q 18.109375 17.390625 22.1875 11.75 
Q 26.265625 6.109375 33.40625 6.109375 
Q 40.53125 6.109375 44.609375 11.75 
Q 48.6875 17.390625 48.6875 27.296875 
z
" id="DejaVuSans-112"/>
      </defs>
      <use xlink:href="#DejaVuSans-77"/>
      <use x="86.279297" xlink:href="#DejaVuSans-101"/>
      <use x="147.802734" xlink:href="#DejaVuSans-97"/>
      <use x="209.082031" xlink:href="#DejaVuSans-110"/>
      <use x="272.460938" xlink:href="#DejaVuSans-32"/>
      <use x="304.248047" xlink:href="#DejaVuSans-77"/>
      <use x="390.527344" xlink:href="#DejaVuSans-97"/>
      <use x="451.806641" xlink:href="#DejaVuSans-103"/>
      <use x="515.283203" xlink:href="#DejaVuSans-110"/>
      <use x="578.662109" xlink:href="#DejaVuSans-105"/>
      <use x="606.445312" xlink:href="#DejaVuSans-116"/>
      <use x="645.654297" xlink:href="#DejaVuSans-117"/>
      <use x="709.033203" xlink:href="#DejaVuSans-100"/>
      <use x="772.509766" xlink:href="#DejaVuSans-101"/>
      <use x="834.033203" xlink:href="#DejaVuSans-32"/>
      <use x="865.820312" xlink:href="#DejaVuSans-111"/>
      <use x="927.001953" xlink:href="#DejaVuSans-102"/>
      <use x="962.207031" xlink:href="#DejaVuSans-32"/>
      <use x="993.994141" xlink:href="#DejaVuSans-83"/>
      <use x="1057.470703" xlink:href="#DejaVuSans-116"/>
      <use x="1096.679688" xlink:href="#DejaVuSans-101"/>
      <use x="1158.203125" xlink:href="#DejaVuSans-101"/>
      <use x="1219.726562" xlink:href="#DejaVuSans-114"/>
      <use x="1260.839844" xlink:href="#DejaVuSans-105"/>
      <use x="1288.623047" xlink:href="#DejaVuSans-110"/>
      <use x="1352.001953" xlink:href="#DejaVuSans-103"/>
      <use x="1415.478516" xlink:href="#DejaVuSans-32"/>
      <use x="1447.265625" xlink:href="#DejaVuSans-65"/>
      <use x="1515.673828" xlink:href="#DejaVuSans-110"/>
      <use x="1579.052734" xlink:href="#DejaVuSans-103"/>
      <use x="1642.529297" xlink:href="#DejaVuSans-108"/>
      <use x="1670.3125" xlink:href="#DejaVuSans-101"/>
      <use x="1731.835938" xlink:href="#DejaVuSans-40"/>
      <use x="1770.849609" xlink:href="#DejaVuSans-67"/>
      <use x="1840.673828" xlink:href="#DejaVuSans-108"/>
      <use x="1868.457031" xlink:href="#DejaVuSans-105"/>
      <use x="1896.240234" xlink:href="#DejaVuSans-112"/>
      <use x="1959.716797" xlink:href="#DejaVuSans-112"/>
      <use x="2023.193359" xlink:href="#DejaVuSans-101"/>
      <use x="2084.716797" xlink:href="#DejaVuSans-100"/>
      <use x="2148.193359" xlink:href="#DejaVuSans-41"/>
     </g>
    </g>
   </g>
   <g id="line2d_14">
    <path clip-path="url(#p8237859b86)" d="M 60.621984 279.903523 
L 270.186673 279.903523 
L 270.186673 279.903523 
" style="fill:none;stroke:#000000;stroke-linecap:square;stroke-width:0.5;"/>
   </g>
   <g id="line2d_15">
    <path clip-path="url(#p8237859b86)" d="M 60.621984 66.048977 
L 270.186673 66.048977 
L 270.186673 66.048977 
" style="fill:none;stroke:#000000;stroke-linecap:square;stroke-width:0.5;"/>
   </g>
   <g id="line2d_16">
    <path clip-path="url(#p8237859b86)" d="M 60.621984 210.514896 
L 62.129644 240.055137 
L 63.637304 250.437479 
L 65.144963 249.664465 
L 66.652623 245.13277 
L 69.667942 240.855947 
L 71.175602 237.314842 
L 72.683261 236.918837 
L 75.698581 238.263895 
L 77.20624 241.10715 
L 78.7139 240.207 
L 80.22156 236.8589 
L 81.729219 236.882863 
L 83.236879 237.110146 
L 84.744539 236.861198 
L 86.252198 237.123777 
L 87.759858 235.541055 
L 89.267517 233.314114 
L 90.775177 232.650483 
L 92.282837 230.739526 
L 93.790496 230.668409 
L 95.298156 231.544499 
L 96.805816 232.223693 
L 98.313475 230.422636 
L 99.821135 231.159071 
L 101.328794 231.078651 
L 102.836454 232.292765 
L 104.344114 231.470697 
L 105.851773 230.818536 
L 107.359433 230.55332 
L 108.867093 231.74544 
L 110.374752 231.564266 
L 111.882412 232.428386 
L 113.390072 232.743808 
L 114.897731 234.351531 
L 116.405391 234.196577 
L 117.91305 235.673968 
L 119.42071 236.629612 
L 120.92837 236.657613 
L 122.436029 235.354383 
L 123.943689 237.636454 
L 126.959008 235.372208 
L 128.466668 237.806825 
L 129.974327 238.149033 
L 131.481987 236.946413 
L 132.989647 236.949458 
L 134.497306 236.665386 
L 136.004966 237.990499 
L 139.020285 239.578344 
L 140.527945 239.061665 
L 142.035605 240.461108 
L 143.543264 242.33671 
L 145.050924 241.022132 
L 146.558583 239.385194 
L 148.066243 241.146875 
L 149.573903 242.057417 
L 151.081562 243.170336 
L 152.589222 244.63253 
L 154.096882 244.784634 
L 155.604541 241.740549 
L 157.112201 244.436455 
L 158.61986 243.33627 
L 160.12752 243.307066 
L 161.63518 243.107844 
L 163.142839 243.525443 
L 164.650499 243.778974 
L 166.158159 242.99804 
L 167.665818 244.632533 
L 169.173478 245.574906 
L 172.188797 245.736609 
L 173.696457 242.965771 
L 175.204116 245.68301 
L 176.711776 243.003342 
L 178.219436 244.172711 
L 179.727095 245.997558 
L 181.234755 245.607182 
L 182.742415 246.014949 
L 184.250074 246.275173 
L 185.757734 246.005555 
L 187.265393 243.831517 
L 188.773053 243.059204 
L 190.280713 246.669837 
L 191.788372 245.632589 
L 193.296032 246.765948 
L 194.803692 245.369433 
L 196.311351 245.403344 
L 197.819011 247.499582 
L 199.326671 247.982841 
L 200.83433 245.432726 
L 202.34199 245.708567 
L 203.849649 247.010164 
L 205.357309 246.227578 
L 208.372628 248.354394 
L 209.880288 249.129449 
L 211.387948 247.688145 
L 212.895607 247.330643 
L 214.403267 246.806264 
L 215.910926 247.531999 
L 217.418586 247.449298 
L 218.926246 247.254099 
L 220.433905 247.941138 
L 223.449225 246.947319 
L 224.956884 246.706072 
L 226.464544 246.976323 
L 227.972204 247.645197 
L 229.479863 247.48351 
L 230.987523 248.728866 
L 232.495182 249.627051 
L 234.002842 247.760964 
L 235.510502 247.330595 
L 238.525821 247.103472 
L 240.033481 248.446474 
L 241.54114 247.694109 
L 243.0488 248.141297 
L 244.556459 249.419085 
L 246.064119 248.916554 
L 247.571779 248.038978 
L 249.079438 247.541587 
L 250.587098 248.717822 
L 252.094758 250.225455 
L 253.602417 249.986777 
L 255.110077 249.413039 
L 256.617736 251.376364 
L 258.125396 251.360391 
L 259.633056 249.608908 
L 262.648375 250.387164 
L 264.156035 249.318356 
L 265.663694 249.535605 
L 270.186673 251.001367 
L 270.186673 251.001367 
" style="fill:none;stroke:#1f77b4;stroke-linecap:square;stroke-width:1.5;"/>
   </g>
   <g id="line2d_17">
    <path clip-path="url(#p8237859b86)" d="M 60.621984 279.903523 
L 270.186673 279.903523 
L 270.186673 279.903523 
" style="fill:none;stroke:#000000;stroke-linecap:square;stroke-width:0.5;"/>
   </g>
   <g id="line2d_18">
    <path clip-path="url(#p8237859b86)" d="M 60.621984 66.048977 
L 270.186673 66.048977 
L 270.186673 66.048977 
" style="fill:none;stroke:#000000;stroke-linecap:square;stroke-width:0.5;"/>
   </g>
   <g id="line2d_19">
    <path clip-path="url(#p8237859b86)" d="M 60.621984 118.162715 
L 62.129644 146.27891 
L 63.637304 201.962088 
L 66.652623 214.337819 
L 68.160283 197.664993 
L 69.667942 184.885852 
L 71.175602 175.538988 
L 72.683261 174.680929 
L 74.190921 185.616855 
L 75.698581 195.378147 
L 77.20624 190.947723 
L 78.7139 182.738865 
L 80.22156 181.731803 
L 81.729219 179.335109 
L 83.236879 183.277953 
L 84.744539 185.536258 
L 86.252198 186.922241 
L 87.759858 179.928371 
L 89.267517 179.007601 
L 90.775177 184.343844 
L 92.282837 188.308126 
L 93.790496 189.965342 
L 95.298156 189.664726 
L 96.805816 183.44129 
L 98.313475 180.811425 
L 99.821135 181.857783 
L 101.328794 180.768967 
L 102.836454 182.891496 
L 104.344114 180.354539 
L 107.359433 182.263003 
L 108.867093 187.02011 
L 110.374752 184.702012 
L 111.882412 183.744757 
L 113.390072 183.407581 
L 114.897731 181.724723 
L 116.405391 181.049611 
L 117.91305 179.63862 
L 119.42071 180.322837 
L 120.92837 174.683683 
L 122.436029 171.154893 
L 123.943689 172.018345 
L 125.451349 173.913354 
L 126.959008 173.29373 
L 128.466668 179.160736 
L 129.974327 174.712232 
L 131.481987 178.31332 
L 132.989647 174.058764 
L 136.004966 172.162116 
L 137.512626 172.332023 
L 139.020285 174.337935 
L 140.527945 170.899443 
L 142.035605 171.936878 
L 143.543264 168.72667 
L 145.050924 172.392703 
L 146.558583 174.467788 
L 148.066243 175.951636 
L 149.573903 176.24375 
L 151.081562 175.779092 
L 152.589222 172.766379 
L 154.096882 172.555189 
L 155.604541 171.602646 
L 157.112201 170.410315 
L 158.61986 172.234292 
L 160.12752 171.848983 
L 161.63518 172.873044 
L 163.142839 175.470931 
L 164.650499 175.282657 
L 166.158159 175.542087 
L 167.665818 175.277528 
L 170.681138 170.780694 
L 172.188797 172.727418 
L 173.696457 170.675596 
L 175.204116 172.491448 
L 176.711776 173.081289 
L 178.219436 169.677539 
L 181.234755 173.964975 
L 182.742415 171.472036 
L 184.250074 168.505569 
L 185.757734 172.529991 
L 187.265393 171.163551 
L 188.773053 171.342953 
L 190.280713 170.473771 
L 191.788372 174.130168 
L 193.296032 171.389152 
L 194.803692 174.148632 
L 196.311351 173.112368 
L 197.819011 169.051085 
L 199.326671 167.604749 
L 200.83433 168.541071 
L 202.34199 171.945286 
L 203.849649 174.210343 
L 205.357309 175.686933 
L 206.864969 168.814086 
L 208.372628 168.069153 
L 209.880288 170.826464 
L 211.387948 169.42668 
L 212.895607 171.552121 
L 214.403267 168.225479 
L 215.910926 175.441519 
L 217.418586 172.395039 
L 218.926246 172.040129 
L 220.433905 172.708227 
L 221.941565 170.38482 
L 223.449225 170.425189 
L 224.956884 168.01964 
L 226.464544 167.503306 
L 227.972204 170.950706 
L 229.479863 167.105434 
L 230.987523 167.549471 
L 232.495182 166.770629 
L 234.002842 173.116736 
L 235.510502 171.364056 
L 237.018161 171.255282 
L 238.525821 169.039139 
L 240.033481 170.866073 
L 241.54114 168.957201 
L 244.556459 171.010099 
L 246.064119 171.699403 
L 247.571779 173.874739 
L 249.079438 176.879629 
L 250.587098 172.334447 
L 252.094758 173.947587 
L 253.602417 172.457121 
L 255.110077 171.639644 
L 256.617736 172.076593 
L 258.125396 174.852853 
L 259.633056 176.327358 
L 261.140715 176.570536 
L 262.648375 171.975223 
L 264.156035 173.148042 
L 265.663694 173.280334 
L 267.171354 173.218156 
L 268.679014 174.680366 
L 270.186673 176.556 
L 270.186673 176.556 
" style="fill:none;stroke:#ff7f0e;stroke-linecap:square;stroke-width:1.5;"/>
   </g>
   <g id="line2d_20">
    <path clip-path="url(#p8237859b86)" d="M 60.621984 279.903523 
L 270.186673 279.903523 
L 270.186673 279.903523 
" style="fill:none;stroke:#000000;stroke-linecap:square;stroke-width:0.5;"/>
   </g>
   <g id="line2d_21">
    <path clip-path="url(#p8237859b86)" d="M 60.621984 66.048977 
L 270.186673 66.048977 
L 270.186673 66.048977 
" style="fill:none;stroke:#000000;stroke-linecap:square;stroke-width:0.5;"/>
   </g>
   <g id="line2d_22">
    <path clip-path="url(#p8237859b86)" d="M 60.621984 186.28662 
L 62.129644 173.645082 
L 63.637304 221.329717 
L 65.144963 233.180281 
L 66.652623 236.237908 
L 68.160283 217.377633 
L 69.667942 200.544553 
L 71.175602 204.645485 
L 72.683261 201.001777 
L 74.190921 202.175702 
L 75.698581 208.070357 
L 77.20624 206.345362 
L 78.7139 205.036695 
L 80.22156 208.272169 
L 81.729219 207.460944 
L 83.236879 211.685792 
L 84.744539 211.922429 
L 86.252198 209.447845 
L 87.759858 209.082732 
L 89.267517 208.574769 
L 90.775177 210.172668 
L 92.282837 212.336247 
L 93.790496 210.465532 
L 95.298156 211.844605 
L 96.805816 209.286469 
L 98.313475 213.329166 
L 99.821135 211.244793 
L 101.328794 211.796891 
L 102.836454 206.550956 
L 104.344114 206.933372 
L 105.851773 208.331822 
L 107.359433 211.662935 
L 108.867093 209.634159 
L 110.374752 211.280182 
L 111.882412 212.708299 
L 113.390072 210.528402 
L 114.897731 207.904756 
L 116.405391 206.640532 
L 117.91305 208.843252 
L 119.42071 204.216536 
L 120.92837 204.083537 
L 122.436029 204.361636 
L 123.943689 204.972591 
L 125.451349 207.740522 
L 126.959008 206.566047 
L 129.974327 208.550532 
L 131.481987 205.806139 
L 132.989647 207.349414 
L 136.004966 201.265554 
L 137.512626 201.398669 
L 139.020285 202.115855 
L 140.527945 204.000947 
L 142.035605 204.018763 
L 143.543264 201.567067 
L 145.050924 203.13714 
L 146.558583 203.473639 
L 148.066243 201.530438 
L 149.573903 205.687798 
L 151.081562 204.543577 
L 152.589222 209.576309 
L 154.096882 206.874655 
L 155.604541 207.400724 
L 157.112201 206.892145 
L 158.61986 205.864256 
L 160.12752 208.177189 
L 161.63518 205.21744 
L 163.142839 203.835454 
L 164.650499 205.323488 
L 166.158159 206.980339 
L 167.665818 208.953613 
L 169.173478 207.674066 
L 170.681138 208.24871 
L 172.188797 209.934829 
L 173.696457 209.291111 
L 175.204116 211.172674 
L 176.711776 208.605695 
L 178.219436 206.717401 
L 179.727095 207.706073 
L 181.234755 209.117387 
L 182.742415 208.075056 
L 184.250074 208.688193 
L 185.757734 210.879814 
L 187.265393 210.553669 
L 188.773053 208.442706 
L 190.280713 209.18041 
L 191.788372 210.53433 
L 193.296032 209.337223 
L 194.803692 208.700521 
L 197.819011 210.620004 
L 199.326671 211.619024 
L 200.83433 206.594509 
L 202.34199 208.659227 
L 203.849649 208.529506 
L 205.357309 203.190264 
L 206.864969 205.300287 
L 208.372628 209.086717 
L 211.387948 212.370361 
L 212.895607 209.700498 
L 215.910926 208.059099 
L 217.418586 208.458847 
L 218.926246 208.652951 
L 220.433905 211.628568 
L 221.941565 210.5439 
L 223.449225 215.303826 
L 224.956884 214.330145 
L 226.464544 214.731505 
L 227.972204 216.336747 
L 229.479863 217.581601 
L 232.495182 214.232014 
L 234.002842 215.128936 
L 235.510502 211.939431 
L 237.018161 212.105591 
L 238.525821 215.269714 
L 240.033481 209.814042 
L 241.54114 212.284884 
L 243.0488 213.845541 
L 246.064119 213.539464 
L 247.571779 214.460236 
L 249.079438 215.513462 
L 250.587098 214.129364 
L 252.094758 213.06637 
L 253.602417 212.733451 
L 256.617736 211.123721 
L 258.125396 212.739446 
L 259.633056 210.873688 
L 261.140715 215.295025 
L 262.648375 214.06023 
L 264.156035 208.933701 
L 265.663694 212.670767 
L 267.171354 213.243085 
L 268.679014 210.834161 
L 270.186673 214.048304 
L 270.186673 214.048304 
" style="fill:none;stroke:#2ca02c;stroke-linecap:square;stroke-width:1.5;"/>
   </g>
   <g id="line2d_23">
    <path clip-path="url(#p8237859b86)" d="M 60.621984 279.903523 
L 270.186673 279.903523 
L 270.186673 279.903523 
" style="fill:none;stroke:#000000;stroke-linecap:square;stroke-width:0.5;"/>
   </g>
   <g id="line2d_24">
    <path clip-path="url(#p8237859b86)" d="M 60.621984 66.048977 
L 270.186673 66.048977 
L 270.186673 66.048977 
" style="fill:none;stroke:#000000;stroke-linecap:square;stroke-width:0.5;"/>
   </g>
   <g id="line2d_25">
    <path clip-path="url(#p8237859b86)" d="M 60.621984 189.413455 
L 62.129644 178.071358 
L 63.637304 223.129084 
L 65.144963 234.972114 
L 66.652623 235.408158 
L 68.160283 220.086792 
L 69.667942 207.548455 
L 71.175602 207.32482 
L 72.683261 204.482861 
L 74.190921 204.48326 
L 75.698581 208.649828 
L 77.20624 210.481447 
L 78.7139 209.726576 
L 80.22156 208.414343 
L 81.729219 207.562065 
L 83.236879 209.150289 
L 84.744539 212.562189 
L 86.252198 208.549564 
L 87.759858 212.112781 
L 89.267517 211.665189 
L 93.790496 217.975008 
L 95.298156 215.234979 
L 96.805816 211.682855 
L 98.313475 211.401491 
L 99.821135 211.895406 
L 101.328794 210.348088 
L 102.836454 207.934345 
L 104.344114 209.045258 
L 105.851773 212.636358 
L 107.359433 211.338693 
L 108.867093 210.880892 
L 110.374752 214.454923 
L 111.882412 212.490865 
L 113.390072 215.719857 
L 114.897731 213.93059 
L 116.405391 211.226634 
L 117.91305 208.896569 
L 119.42071 209.298006 
L 120.92837 210.535052 
L 122.436029 211.127742 
L 123.943689 210.150863 
L 125.451349 211.619906 
L 126.959008 211.536815 
L 128.466668 208.790529 
L 129.974327 208.472542 
L 131.481987 212.318708 
L 132.989647 210.625494 
L 134.497306 206.405371 
L 136.004966 205.371642 
L 137.512626 205.281014 
L 139.020285 206.76672 
L 140.527945 208.482446 
L 142.035605 207.747402 
L 143.543264 208.744282 
L 145.050924 212.213808 
L 146.558583 212.403757 
L 148.066243 207.152253 
L 149.573903 212.259284 
L 151.081562 213.518087 
L 152.589222 212.478294 
L 154.096882 208.874355 
L 155.604541 211.507904 
L 158.61986 210.453378 
L 160.12752 210.615668 
L 161.63518 211.872339 
L 163.142839 210.168025 
L 164.650499 211.953092 
L 166.158159 211.57976 
L 167.665818 214.613831 
L 169.173478 213.175774 
L 170.681138 214.678433 
L 172.188797 215.422531 
L 173.696457 212.310039 
L 175.204116 211.423965 
L 176.711776 210.393153 
L 178.219436 213.921943 
L 179.727095 218.276145 
L 181.234755 217.719349 
L 182.742415 212.568051 
L 184.250074 215.296855 
L 185.757734 215.286781 
L 187.265393 217.580498 
L 188.773053 215.874431 
L 190.280713 213.82157 
L 191.788372 212.628828 
L 193.296032 210.276452 
L 194.803692 214.487967 
L 196.311351 216.400387 
L 197.819011 217.568383 
L 199.326671 213.653819 
L 200.83433 213.188768 
L 202.34199 211.746452 
L 203.849649 206.57903 
L 205.357309 209.711957 
L 206.864969 210.642578 
L 208.372628 211.317696 
L 209.880288 212.801659 
L 211.387948 211.479825 
L 214.403267 212.959365 
L 215.910926 215.579401 
L 217.418586 215.358252 
L 218.926246 209.941683 
L 220.433905 210.981495 
L 223.449225 220.69526 
L 224.956884 220.172685 
L 226.464544 217.133473 
L 227.972204 218.692763 
L 229.479863 216.420812 
L 230.987523 217.670614 
L 232.495182 218.43673 
L 234.002842 218.785023 
L 235.510502 217.054459 
L 237.018161 215.95196 
L 238.525821 214.194701 
L 240.033481 217.900971 
L 241.54114 221.143645 
L 243.0488 220.507309 
L 244.556459 219.661038 
L 246.064119 219.999506 
L 247.571779 220.183111 
L 249.079438 216.79534 
L 252.094758 218.625114 
L 253.602417 219.990115 
L 255.110077 216.031013 
L 256.617736 217.086798 
L 258.125396 217.688145 
L 259.633056 217.819906 
L 261.140715 219.613408 
L 262.648375 218.021461 
L 264.156035 218.525103 
L 265.663694 218.67656 
L 267.171354 217.618994 
L 268.679014 216.089406 
L 270.186673 215.905477 
L 270.186673 215.905477 
" style="fill:none;stroke:#d62728;stroke-linecap:square;stroke-width:1.5;"/>
   </g>
   <g id="patch_3">
    <path d="M 50.14375 290.59625 
L 50.14375 55.35625 
" style="fill:none;stroke:#000000;stroke-linecap:square;stroke-linejoin:miter;stroke-width:0.8;"/>
   </g>
   <g id="patch_4">
    <path d="M 280.664908 290.59625 
L 280.664908 55.35625 
" style="fill:none;stroke:#000000;stroke-linecap:square;stroke-linejoin:miter;stroke-width:0.8;"/>
   </g>
   <g id="patch_5">
    <path d="M 50.14375 290.59625 
L 280.664908 290.59625 
" style="fill:none;stroke:#000000;stroke-linecap:square;stroke-linejoin:miter;stroke-width:0.8;"/>
   </g>
   <g id="patch_6">
    <path d="M 50.14375 55.35625 
L 280.664908 55.35625 
" style="fill:none;stroke:#000000;stroke-linecap:square;stroke-linejoin:miter;stroke-width:0.8;"/>
   </g>
  </g>
  <g id="axes_2">
   <g id="patch_7">
    <path d="M 330.802592 290.59625 
L 561.32375 290.59625 
L 561.32375 55.35625 
L 330.802592 55.35625 
z
" style="fill:#ffffff;"/>
   </g>
   <g id="matplotlib.axis_3">
    <g id="xtick_7">
     <g id="line2d_26">
      <g>
       <use style="stroke:#000000;stroke-width:0.8;" x="341.280827" xlink:href="#m7dafc3e407" y="290.59625"/>
      </g>
     </g>
     <g id="text_16">
      <!-- 0.00 -->
      <g transform="translate(330.148014 305.194687)scale(0.1 -0.1)">
       <use xlink:href="#DejaVuSans-48"/>
       <use x="63.623047" xlink:href="#DejaVuSans-46"/>
       <use x="95.410156" xlink:href="#DejaVuSans-48"/>
       <use x="159.033203" xlink:href="#DejaVuSans-48"/>
      </g>
     </g>
    </g>
    <g id="xtick_8">
     <g id="line2d_27">
      <g>
       <use style="stroke:#000000;stroke-width:0.8;" x="374.634083" xlink:href="#m7dafc3e407" y="290.59625"/>
      </g>
     </g>
     <g id="text_17">
      <!-- 0.05 -->
      <g transform="translate(363.50127 305.194687)scale(0.1 -0.1)">
       <use xlink:href="#DejaVuSans-48"/>
       <use x="63.623047" xlink:href="#DejaVuSans-46"/>
       <use x="95.410156" xlink:href="#DejaVuSans-48"/>
       <use x="159.033203" xlink:href="#DejaVuSans-53"/>
      </g>
     </g>
    </g>
    <g id="xtick_9">
     <g id="line2d_28">
      <g>
       <use style="stroke:#000000;stroke-width:0.8;" x="407.987339" xlink:href="#m7dafc3e407" y="290.59625"/>
      </g>
     </g>
     <g id="text_18">
      <!-- 0.10 -->
      <g transform="translate(396.854527 305.194687)scale(0.1 -0.1)">
       <use xlink:href="#DejaVuSans-48"/>
       <use x="63.623047" xlink:href="#DejaVuSans-46"/>
       <use x="95.410156" xlink:href="#DejaVuSans-49"/>
       <use x="159.033203" xlink:href="#DejaVuSans-48"/>
      </g>
     </g>
    </g>
    <g id="xtick_10">
     <g id="line2d_29">
      <g>
       <use style="stroke:#000000;stroke-width:0.8;" x="441.340595" xlink:href="#m7dafc3e407" y="290.59625"/>
      </g>
     </g>
     <g id="text_19">
      <!-- 0.15 -->
      <g transform="translate(430.207783 305.194687)scale(0.1 -0.1)">
       <use xlink:href="#DejaVuSans-48"/>
       <use x="63.623047" xlink:href="#DejaVuSans-46"/>
       <use x="95.410156" xlink:href="#DejaVuSans-49"/>
       <use x="159.033203" xlink:href="#DejaVuSans-53"/>
      </g>
     </g>
    </g>
    <g id="xtick_11">
     <g id="line2d_30">
      <g>
       <use style="stroke:#000000;stroke-width:0.8;" x="474.693851" xlink:href="#m7dafc3e407" y="290.59625"/>
      </g>
     </g>
     <g id="text_20">
      <!-- 0.20 -->
      <g transform="translate(463.561039 305.194687)scale(0.1 -0.1)">
       <use xlink:href="#DejaVuSans-48"/>
       <use x="63.623047" xlink:href="#DejaVuSans-46"/>
       <use x="95.410156" xlink:href="#DejaVuSans-50"/>
       <use x="159.033203" xlink:href="#DejaVuSans-48"/>
      </g>
     </g>
    </g>
    <g id="xtick_12">
     <g id="line2d_31">
      <g>
       <use style="stroke:#000000;stroke-width:0.8;" x="508.047107" xlink:href="#m7dafc3e407" y="290.59625"/>
      </g>
     </g>
     <g id="text_21">
      <!-- 0.25 -->
      <g transform="translate(496.914295 305.194687)scale(0.1 -0.1)">
       <use xlink:href="#DejaVuSans-48"/>
       <use x="63.623047" xlink:href="#DejaVuSans-46"/>
       <use x="95.410156" xlink:href="#DejaVuSans-50"/>
       <use x="159.033203" xlink:href="#DejaVuSans-53"/>
      </g>
     </g>
    </g>
    <g id="xtick_13">
     <g id="line2d_32">
      <g>
       <use style="stroke:#000000;stroke-width:0.8;" x="541.400363" xlink:href="#m7dafc3e407" y="290.59625"/>
      </g>
     </g>
     <g id="text_22">
      <!-- 0.30 -->
      <g transform="translate(530.267551 305.194687)scale(0.1 -0.1)">
       <use xlink:href="#DejaVuSans-48"/>
       <use x="63.623047" xlink:href="#DejaVuSans-46"/>
       <use x="95.410156" xlink:href="#DejaVuSans-51"/>
       <use x="159.033203" xlink:href="#DejaVuSans-48"/>
      </g>
     </g>
    </g>
    <g id="text_23">
     <!-- Magnitude of Steering Angle (Clipped) -->
     <g transform="translate(350.323327 318.872812)scale(0.1 -0.1)">
      <use xlink:href="#DejaVuSans-77"/>
      <use x="86.279297" xlink:href="#DejaVuSans-97"/>
      <use x="147.558594" xlink:href="#DejaVuSans-103"/>
      <use x="211.035156" xlink:href="#DejaVuSans-110"/>
      <use x="274.414062" xlink:href="#DejaVuSans-105"/>
      <use x="302.197266" xlink:href="#DejaVuSans-116"/>
      <use x="341.40625" xlink:href="#DejaVuSans-117"/>
      <use x="404.785156" xlink:href="#DejaVuSans-100"/>
      <use x="468.261719" xlink:href="#DejaVuSans-101"/>
      <use x="529.785156" xlink:href="#DejaVuSans-32"/>
      <use x="561.572266" xlink:href="#DejaVuSans-111"/>
      <use x="622.753906" xlink:href="#DejaVuSans-102"/>
      <use x="657.958984" xlink:href="#DejaVuSans-32"/>
      <use x="689.746094" xlink:href="#DejaVuSans-83"/>
      <use x="753.222656" xlink:href="#DejaVuSans-116"/>
      <use x="792.431641" xlink:href="#DejaVuSans-101"/>
      <use x="853.955078" xlink:href="#DejaVuSans-101"/>
      <use x="915.478516" xlink:href="#DejaVuSans-114"/>
      <use x="956.591797" xlink:href="#DejaVuSans-105"/>
      <use x="984.375" xlink:href="#DejaVuSans-110"/>
      <use x="1047.753906" xlink:href="#DejaVuSans-103"/>
      <use x="1111.230469" xlink:href="#DejaVuSans-32"/>
      <use x="1143.017578" xlink:href="#DejaVuSans-65"/>
      <use x="1211.425781" xlink:href="#DejaVuSans-110"/>
      <use x="1274.804688" xlink:href="#DejaVuSans-103"/>
      <use x="1338.28125" xlink:href="#DejaVuSans-108"/>
      <use x="1366.064453" xlink:href="#DejaVuSans-101"/>
      <use x="1427.587891" xlink:href="#DejaVuSans-32"/>
      <use x="1459.375" xlink:href="#DejaVuSans-40"/>
      <use x="1498.388672" xlink:href="#DejaVuSans-67"/>
      <use x="1568.212891" xlink:href="#DejaVuSans-108"/>
      <use x="1595.996094" xlink:href="#DejaVuSans-105"/>
      <use x="1623.779297" xlink:href="#DejaVuSans-112"/>
      <use x="1687.255859" xlink:href="#DejaVuSans-112"/>
      <use x="1750.732422" xlink:href="#DejaVuSans-101"/>
      <use x="1812.255859" xlink:href="#DejaVuSans-100"/>
      <use x="1875.732422" xlink:href="#DejaVuSans-41"/>
     </g>
    </g>
   </g>
   <g id="matplotlib.axis_4">
    <g id="ytick_8">
     <g id="line2d_33">
      <g>
       <use style="stroke:#000000;stroke-width:0.8;" x="330.802592" xlink:href="#m6f22b9ee3b" y="234.187015"/>
      </g>
     </g>
     <g id="text_24">
      <!-- $\mathdefault{10^{3}}$ -->
      <g transform="translate(306.202592 237.986234)scale(0.1 -0.1)">
       <use transform="translate(0 0.765625)" xlink:href="#DejaVuSans-49"/>
       <use transform="translate(63.623047 0.765625)" xlink:href="#DejaVuSans-48"/>
       <use transform="translate(128.203125 39.046875)scale(0.7)" xlink:href="#DejaVuSans-51"/>
      </g>
     </g>
    </g>
    <g id="ytick_9">
     <g id="line2d_34">
      <g>
       <use style="stroke:#000000;stroke-width:0.8;" x="330.802592" xlink:href="#m6f22b9ee3b" y="138.978408"/>
      </g>
     </g>
     <g id="text_25">
      <!-- $\mathdefault{10^{4}}$ -->
      <g transform="translate(306.202592 142.777627)scale(0.1 -0.1)">
       <defs>
        <path d="M 37.796875 64.3125 
L 12.890625 25.390625 
L 37.796875 25.390625 
z
M 35.203125 72.90625 
L 47.609375 72.90625 
L 47.609375 25.390625 
L 58.015625 25.390625 
L 58.015625 17.1875 
L 47.609375 17.1875 
L 47.609375 0 
L 37.796875 0 
L 37.796875 17.1875 
L 4.890625 17.1875 
L 4.890625 26.703125 
z
" id="DejaVuSans-52"/>
       </defs>
       <use transform="translate(0 0.684375)" xlink:href="#DejaVuSans-49"/>
       <use transform="translate(63.623047 0.684375)" xlink:href="#DejaVuSans-48"/>
       <use transform="translate(128.203125 38.965625)scale(0.7)" xlink:href="#DejaVuSans-52"/>
      </g>
     </g>
    </g>
    <g id="ytick_10">
     <g id="line2d_35">
      <defs>
       <path d="M 0 0 
L -2 0 
" id="m501a3b8644" style="stroke:#000000;stroke-width:0.6;"/>
      </defs>
      <g>
       <use style="stroke:#000000;stroke-width:0.6;" x="330.802592" xlink:href="#m501a3b8644" y="283.969572"/>
      </g>
     </g>
    </g>
    <g id="ytick_11">
     <g id="line2d_36">
      <g>
       <use style="stroke:#000000;stroke-width:0.6;" x="330.802592" xlink:href="#m501a3b8644" y="272.074329"/>
      </g>
     </g>
    </g>
    <g id="ytick_12">
     <g id="line2d_37">
      <g>
       <use style="stroke:#000000;stroke-width:0.6;" x="330.802592" xlink:href="#m501a3b8644" y="262.847661"/>
      </g>
     </g>
    </g>
    <g id="ytick_13">
     <g id="line2d_38">
      <g>
       <use style="stroke:#000000;stroke-width:0.6;" x="330.802592" xlink:href="#m501a3b8644" y="255.308925"/>
      </g>
     </g>
    </g>
    <g id="ytick_14">
     <g id="line2d_39">
      <g>
       <use style="stroke:#000000;stroke-width:0.6;" x="330.802592" xlink:href="#m501a3b8644" y="248.935015"/>
      </g>
     </g>
    </g>
    <g id="ytick_15">
     <g id="line2d_40">
      <g>
       <use style="stroke:#000000;stroke-width:0.6;" x="330.802592" xlink:href="#m501a3b8644" y="243.413682"/>
      </g>
     </g>
    </g>
    <g id="ytick_16">
     <g id="line2d_41">
      <g>
       <use style="stroke:#000000;stroke-width:0.6;" x="330.802592" xlink:href="#m501a3b8644" y="238.543522"/>
      </g>
     </g>
    </g>
    <g id="ytick_17">
     <g id="line2d_42">
      <g>
       <use style="stroke:#000000;stroke-width:0.6;" x="330.802592" xlink:href="#m501a3b8644" y="205.526369"/>
      </g>
     </g>
    </g>
    <g id="ytick_18">
     <g id="line2d_43">
      <g>
       <use style="stroke:#000000;stroke-width:0.6;" x="330.802592" xlink:href="#m501a3b8644" y="188.760965"/>
      </g>
     </g>
    </g>
    <g id="ytick_19">
     <g id="line2d_44">
      <g>
       <use style="stroke:#000000;stroke-width:0.6;" x="330.802592" xlink:href="#m501a3b8644" y="176.865722"/>
      </g>
     </g>
    </g>
    <g id="ytick_20">
     <g id="line2d_45">
      <g>
       <use style="stroke:#000000;stroke-width:0.6;" x="330.802592" xlink:href="#m501a3b8644" y="167.639055"/>
      </g>
     </g>
    </g>
    <g id="ytick_21">
     <g id="line2d_46">
      <g>
       <use style="stroke:#000000;stroke-width:0.6;" x="330.802592" xlink:href="#m501a3b8644" y="160.100319"/>
      </g>
     </g>
    </g>
    <g id="ytick_22">
     <g id="line2d_47">
      <g>
       <use style="stroke:#000000;stroke-width:0.6;" x="330.802592" xlink:href="#m501a3b8644" y="153.726408"/>
      </g>
     </g>
    </g>
    <g id="ytick_23">
     <g id="line2d_48">
      <g>
       <use style="stroke:#000000;stroke-width:0.6;" x="330.802592" xlink:href="#m501a3b8644" y="148.205076"/>
      </g>
     </g>
    </g>
    <g id="ytick_24">
     <g id="line2d_49">
      <g>
       <use style="stroke:#000000;stroke-width:0.6;" x="330.802592" xlink:href="#m501a3b8644" y="143.334915"/>
      </g>
     </g>
    </g>
    <g id="ytick_25">
     <g id="line2d_50">
      <g>
       <use style="stroke:#000000;stroke-width:0.6;" x="330.802592" xlink:href="#m501a3b8644" y="110.317762"/>
      </g>
     </g>
    </g>
    <g id="ytick_26">
     <g id="line2d_51">
      <g>
       <use style="stroke:#000000;stroke-width:0.6;" x="330.802592" xlink:href="#m501a3b8644" y="93.552358"/>
      </g>
     </g>
    </g>
    <g id="ytick_27">
     <g id="line2d_52">
      <g>
       <use style="stroke:#000000;stroke-width:0.6;" x="330.802592" xlink:href="#m501a3b8644" y="81.657115"/>
      </g>
     </g>
    </g>
    <g id="ytick_28">
     <g id="line2d_53">
      <g>
       <use style="stroke:#000000;stroke-width:0.6;" x="330.802592" xlink:href="#m501a3b8644" y="72.430448"/>
      </g>
     </g>
    </g>
    <g id="ytick_29">
     <g id="line2d_54">
      <g>
       <use style="stroke:#000000;stroke-width:0.6;" x="330.802592" xlink:href="#m501a3b8644" y="64.891712"/>
      </g>
     </g>
    </g>
    <g id="ytick_30">
     <g id="line2d_55">
      <g>
       <use style="stroke:#000000;stroke-width:0.6;" x="330.802592" xlink:href="#m501a3b8644" y="58.517801"/>
      </g>
     </g>
    </g>
    <g id="text_26">
     <!-- Frequency -->
     <g transform="translate(300.122905 198.805937)rotate(-90)scale(0.1 -0.1)">
      <defs>
       <path d="M 9.8125 72.90625 
L 51.703125 72.90625 
L 51.703125 64.59375 
L 19.671875 64.59375 
L 19.671875 43.109375 
L 48.578125 43.109375 
L 48.578125 34.8125 
L 19.671875 34.8125 
L 19.671875 0 
L 9.8125 0 
z
" id="DejaVuSans-70"/>
       <path d="M 14.796875 27.296875 
Q 14.796875 17.390625 18.875 11.75 
Q 22.953125 6.109375 30.078125 6.109375 
Q 37.203125 6.109375 41.296875 11.75 
Q 45.40625 17.390625 45.40625 27.296875 
Q 45.40625 37.203125 41.296875 42.84375 
Q 37.203125 48.484375 30.078125 48.484375 
Q 22.953125 48.484375 18.875 42.84375 
Q 14.796875 37.203125 14.796875 27.296875 
z
M 45.40625 8.203125 
Q 42.578125 3.328125 38.25 0.953125 
Q 33.9375 -1.421875 27.875 -1.421875 
Q 17.96875 -1.421875 11.734375 6.484375 
Q 5.515625 14.40625 5.515625 27.296875 
Q 5.515625 40.1875 11.734375 48.09375 
Q 17.96875 56 27.875 56 
Q 33.9375 56 38.25 53.625 
Q 42.578125 51.265625 45.40625 46.390625 
L 45.40625 54.6875 
L 54.390625 54.6875 
L 54.390625 -20.796875 
L 45.40625 -20.796875 
z
" id="DejaVuSans-113"/>
       <path d="M 48.78125 52.59375 
L 48.78125 44.1875 
Q 44.96875 46.296875 41.140625 47.34375 
Q 37.3125 48.390625 33.40625 48.390625 
Q 24.65625 48.390625 19.8125 42.84375 
Q 14.984375 37.3125 14.984375 27.296875 
Q 14.984375 17.28125 19.8125 11.734375 
Q 24.65625 6.203125 33.40625 6.203125 
Q 37.3125 6.203125 41.140625 7.25 
Q 44.96875 8.296875 48.78125 10.40625 
L 48.78125 2.09375 
Q 45.015625 0.34375 40.984375 -0.53125 
Q 36.96875 -1.421875 32.421875 -1.421875 
Q 20.0625 -1.421875 12.78125 6.34375 
Q 5.515625 14.109375 5.515625 27.296875 
Q 5.515625 40.671875 12.859375 48.328125 
Q 20.21875 56 33.015625 56 
Q 37.15625 56 41.109375 55.140625 
Q 45.0625 54.296875 48.78125 52.59375 
z
" id="DejaVuSans-99"/>
       <path d="M 32.171875 -5.078125 
Q 28.375 -14.84375 24.75 -17.8125 
Q 21.140625 -20.796875 15.09375 -20.796875 
L 7.90625 -20.796875 
L 7.90625 -13.28125 
L 13.1875 -13.28125 
Q 16.890625 -13.28125 18.9375 -11.515625 
Q 21 -9.765625 23.484375 -3.21875 
L 25.09375 0.875 
L 2.984375 54.6875 
L 12.5 54.6875 
L 29.59375 11.921875 
L 46.6875 54.6875 
L 56.203125 54.6875 
z
" id="DejaVuSans-121"/>
      </defs>
      <use xlink:href="#DejaVuSans-70"/>
      <use x="50.269531" xlink:href="#DejaVuSans-114"/>
      <use x="89.132812" xlink:href="#DejaVuSans-101"/>
      <use x="150.65625" xlink:href="#DejaVuSans-113"/>
      <use x="214.132812" xlink:href="#DejaVuSans-117"/>
      <use x="277.511719" xlink:href="#DejaVuSans-101"/>
      <use x="339.035156" xlink:href="#DejaVuSans-110"/>
      <use x="402.414062" xlink:href="#DejaVuSans-99"/>
      <use x="457.394531" xlink:href="#DejaVuSans-121"/>
     </g>
    </g>
   </g>
   <g id="patch_8">
    <path clip-path="url(#p45a098a52b)" d="M 341.280869 329.1525 
L 341.280869 66.048977 
L 362.237334 66.048977 
L 362.237334 94.624667 
L 383.193799 94.624667 
L 383.193799 130.813866 
L 404.150263 130.813866 
L 404.150263 175.723874 
L 425.106728 175.723874 
L 425.106728 203.253787 
L 446.063192 203.253787 
L 446.063192 220.244844 
L 467.019657 220.244844 
L 467.019657 239.378875 
L 487.976122 239.378875 
L 487.976122 260.516415 
L 508.932586 260.516415 
L 508.932586 279.903523 
L 529.889051 279.903523 
L 529.889051 155.903311 
L 550.845516 155.903311 
L 550.845516 329.1525 
" style="fill:none;stroke:#1f77b4;stroke-linejoin:miter;"/>
   </g>
   <g id="patch_9">
    <path clip-path="url(#p45a098a52b)" d="M 341.280827 329.1525 
L 341.280827 89.864039 
L 362.237296 89.864039 
L 362.237296 116.860512 
L 383.193765 116.860512 
L 383.193765 143.736563 
L 404.150233 143.736563 
L 404.150233 167.235811 
L 425.106702 167.235811 
L 425.106702 180.257291 
L 446.063171 180.257291 
L 446.063171 187.807249 
L 467.01964 187.807249 
L 467.01964 199.318184 
L 487.976109 199.318184 
L 487.976109 210.228891 
L 508.932578 210.228891 
L 508.932578 215.562027 
L 529.889047 215.562027 
L 529.889047 78.544817 
L 550.845516 78.544817 
L 550.845516 329.1525 
" style="fill:none;stroke:#ff7f0e;stroke-linejoin:miter;"/>
   </g>
   <g id="patch_10">
    <path clip-path="url(#p45a098a52b)" d="M 341.280827 329.1525 
L 341.280827 75.564741 
L 362.237296 75.564741 
L 362.237296 100.413597 
L 383.193765 100.413597 
L 383.193765 138.403543 
L 404.150233 138.403543 
L 404.150233 172.411129 
L 425.106702 172.411129 
L 425.106702 183.65868 
L 446.063171 183.65868 
L 446.063171 183.768472 
L 467.01964 183.768472 
L 467.01964 199.657621 
L 487.976109 199.657621 
L 487.976109 210.835596 
L 508.932578 210.835596 
L 508.932578 213.380554 
L 529.889047 213.380554 
L 529.889047 104.414945 
L 550.845516 104.414945 
L 550.845516 329.1525 
" style="fill:none;stroke:#2ca02c;stroke-linejoin:miter;"/>
   </g>
   <g id="patch_11">
    <path clip-path="url(#p45a098a52b)" d="M 341.280827 329.1525 
L 341.280827 74.620179 
L 362.237296 74.620179 
L 362.237296 99.059517 
L 383.193765 99.059517 
L 383.193765 137.571942 
L 404.150233 137.571942 
L 404.150233 171.656975 
L 425.106702 171.656975 
L 425.106702 183.005985 
L 446.063171 183.005985 
L 446.063171 184.259991 
L 467.01964 184.259991 
L 467.01964 199.855419 
L 487.976109 199.855419 
L 487.976109 209.04155 
L 508.932578 209.04155 
L 508.932578 215.852936 
L 529.889047 215.852936 
L 529.889047 109.357312 
L 550.845516 109.357312 
L 550.845516 329.1525 
" style="fill:none;stroke:#d62728;stroke-linejoin:miter;"/>
   </g>
   <g id="patch_12">
    <path d="M 330.802592 290.59625 
L 330.802592 55.35625 
" style="fill:none;stroke:#000000;stroke-linecap:square;stroke-linejoin:miter;stroke-width:0.8;"/>
   </g>
   <g id="patch_13">
    <path d="M 561.32375 290.59625 
L 561.32375 55.35625 
" style="fill:none;stroke:#000000;stroke-linecap:square;stroke-linejoin:miter;stroke-width:0.8;"/>
   </g>
   <g id="patch_14">
    <path d="M 330.802592 290.59625 
L 561.32375 290.59625 
" style="fill:none;stroke:#000000;stroke-linecap:square;stroke-linejoin:miter;stroke-width:0.8;"/>
   </g>
   <g id="patch_15">
    <path d="M 330.802592 55.35625 
L 561.32375 55.35625 
" style="fill:none;stroke:#000000;stroke-linecap:square;stroke-linejoin:miter;stroke-width:0.8;"/>
   </g>
  </g>
  <g id="legend_1">
   <g id="patch_16">
    <path d="M 118.194062 39.55625 
L 450.053437 39.55625 
Q 452.053437 39.55625 452.053437 37.55625 
L 452.053437 9.2 
Q 452.053437 7.2 450.053437 7.2 
L 118.194062 7.2 
Q 116.194062 7.2 116.194062 9.2 
L 116.194062 37.55625 
Q 116.194062 39.55625 118.194062 39.55625 
z
" style="fill:#ffffff;opacity:0.8;stroke:#cccccc;stroke-linejoin:miter;"/>
   </g>
   <g id="line2d_56">
    <path d="M 120.194062 15.298437 
L 140.194062 15.298437 
" style="fill:none;stroke:#1f77b4;stroke-linecap:square;stroke-width:1.5;"/>
   </g>
   <g id="line2d_57"/>
   <g id="text_27">
    <!-- Fixed Ref -->
    <g transform="translate(148.194062 18.798437)scale(0.1 -0.1)">
     <defs>
      <path d="M 54.890625 54.6875 
L 35.109375 28.078125 
L 55.90625 0 
L 45.3125 0 
L 29.390625 21.484375 
L 13.484375 0 
L 2.875 0 
L 24.125 28.609375 
L 4.6875 54.6875 
L 15.28125 54.6875 
L 29.78125 35.203125 
L 44.28125 54.6875 
z
" id="DejaVuSans-120"/>
      <path d="M 44.390625 34.1875 
Q 47.5625 33.109375 50.5625 29.59375 
Q 53.5625 26.078125 56.59375 19.921875 
L 66.609375 0 
L 56 0 
L 46.6875 18.703125 
Q 43.0625 26.03125 39.671875 28.421875 
Q 36.28125 30.8125 30.421875 30.8125 
L 19.671875 30.8125 
L 19.671875 0 
L 9.8125 0 
L 9.8125 72.90625 
L 32.078125 72.90625 
Q 44.578125 72.90625 50.734375 67.671875 
Q 56.890625 62.453125 56.890625 51.90625 
Q 56.890625 45.015625 53.6875 40.46875 
Q 50.484375 35.9375 44.390625 34.1875 
z
M 19.671875 64.796875 
L 19.671875 38.921875 
L 32.078125 38.921875 
Q 39.203125 38.921875 42.84375 42.21875 
Q 46.484375 45.515625 46.484375 51.90625 
Q 46.484375 58.296875 42.84375 61.546875 
Q 39.203125 64.796875 32.078125 64.796875 
z
" id="DejaVuSans-82"/>
     </defs>
     <use xlink:href="#DejaVuSans-70"/>
     <use x="50.269531" xlink:href="#DejaVuSans-105"/>
     <use x="78.052734" xlink:href="#DejaVuSans-120"/>
     <use x="134.107422" xlink:href="#DejaVuSans-101"/>
     <use x="195.630859" xlink:href="#DejaVuSans-100"/>
     <use x="259.107422" xlink:href="#DejaVuSans-32"/>
     <use x="290.894531" xlink:href="#DejaVuSans-82"/>
     <use x="355.876953" xlink:href="#DejaVuSans-101"/>
     <use x="417.400391" xlink:href="#DejaVuSans-102"/>
    </g>
   </g>
   <g id="line2d_58">
    <path d="M 120.194062 29.976562 
L 140.194062 29.976562 
" style="fill:none;stroke:#ff7f0e;stroke-linecap:square;stroke-width:1.5;"/>
   </g>
   <g id="line2d_59"/>
   <g id="text_28">
    <!-- 2nd ord. DMP -->
    <g transform="translate(148.194062 33.476562)scale(0.1 -0.1)">
     <defs>
      <path d="M 19.671875 64.796875 
L 19.671875 8.109375 
L 31.59375 8.109375 
Q 46.6875 8.109375 53.6875 14.9375 
Q 60.6875 21.78125 60.6875 36.53125 
Q 60.6875 51.171875 53.6875 57.984375 
Q 46.6875 64.796875 31.59375 64.796875 
z
M 9.8125 72.90625 
L 30.078125 72.90625 
Q 51.265625 72.90625 61.171875 64.09375 
Q 71.09375 55.28125 71.09375 36.53125 
Q 71.09375 17.671875 61.125 8.828125 
Q 51.171875 0 30.078125 0 
L 9.8125 0 
z
" id="DejaVuSans-68"/>
      <path d="M 19.671875 64.796875 
L 19.671875 37.40625 
L 32.078125 37.40625 
Q 38.96875 37.40625 42.71875 40.96875 
Q 46.484375 44.53125 46.484375 51.125 
Q 46.484375 57.671875 42.71875 61.234375 
Q 38.96875 64.796875 32.078125 64.796875 
z
M 9.8125 72.90625 
L 32.078125 72.90625 
Q 44.34375 72.90625 50.609375 67.359375 
Q 56.890625 61.8125 56.890625 51.125 
Q 56.890625 40.328125 50.609375 34.8125 
Q 44.34375 29.296875 32.078125 29.296875 
L 19.671875 29.296875 
L 19.671875 0 
L 9.8125 0 
z
" id="DejaVuSans-80"/>
     </defs>
     <use xlink:href="#DejaVuSans-50"/>
     <use x="63.623047" xlink:href="#DejaVuSans-110"/>
     <use x="127.001953" xlink:href="#DejaVuSans-100"/>
     <use x="190.478516" xlink:href="#DejaVuSans-32"/>
     <use x="222.265625" xlink:href="#DejaVuSans-111"/>
     <use x="283.447266" xlink:href="#DejaVuSans-114"/>
     <use x="322.810547" xlink:href="#DejaVuSans-100"/>
     <use x="386.287109" xlink:href="#DejaVuSans-46"/>
     <use x="418.074219" xlink:href="#DejaVuSans-32"/>
     <use x="449.861328" xlink:href="#DejaVuSans-68"/>
     <use x="526.863281" xlink:href="#DejaVuSans-77"/>
     <use x="613.142578" xlink:href="#DejaVuSans-80"/>
    </g>
   </g>
   <g id="line2d_60">
    <path d="M 235.537812 15.298437 
L 255.537812 15.298437 
" style="fill:none;stroke:#2ca02c;stroke-linecap:square;stroke-width:1.5;"/>
   </g>
   <g id="line2d_61"/>
   <g id="text_29">
    <!-- 3rd ord. DMP -->
    <g transform="translate(263.537812 18.798437)scale(0.1 -0.1)">
     <use xlink:href="#DejaVuSans-51"/>
     <use x="63.623047" xlink:href="#DejaVuSans-114"/>
     <use x="102.986328" xlink:href="#DejaVuSans-100"/>
     <use x="166.462891" xlink:href="#DejaVuSans-32"/>
     <use x="198.25" xlink:href="#DejaVuSans-111"/>
     <use x="259.431641" xlink:href="#DejaVuSans-114"/>
     <use x="298.794922" xlink:href="#DejaVuSans-100"/>
     <use x="362.271484" xlink:href="#DejaVuSans-46"/>
     <use x="394.058594" xlink:href="#DejaVuSans-32"/>
     <use x="425.845703" xlink:href="#DejaVuSans-68"/>
     <use x="502.847656" xlink:href="#DejaVuSans-77"/>
     <use x="589.126953" xlink:href="#DejaVuSans-80"/>
    </g>
   </g>
   <g id="line2d_62">
    <path d="M 348.48 15.298437 
L 368.48 15.298437 
" style="fill:none;stroke:#d62728;stroke-linecap:square;stroke-width:1.5;"/>
   </g>
   <g id="line2d_63"/>
   <g id="text_30">
    <!-- Proposed DMP -->
    <g transform="translate(376.48 18.798437)scale(0.1 -0.1)">
     <use xlink:href="#DejaVuSans-80"/>
     <use x="58.552734" xlink:href="#DejaVuSans-114"/>
     <use x="97.416016" xlink:href="#DejaVuSans-111"/>
     <use x="158.597656" xlink:href="#DejaVuSans-112"/>
     <use x="222.074219" xlink:href="#DejaVuSans-111"/>
     <use x="283.255859" xlink:href="#DejaVuSans-115"/>
     <use x="335.355469" xlink:href="#DejaVuSans-101"/>
     <use x="396.878906" xlink:href="#DejaVuSans-100"/>
     <use x="460.355469" xlink:href="#DejaVuSans-32"/>
     <use x="492.142578" xlink:href="#DejaVuSans-68"/>
     <use x="569.144531" xlink:href="#DejaVuSans-77"/>
     <use x="655.423828" xlink:href="#DejaVuSans-80"/>
    </g>
   </g>
  </g>
 </g>
 <defs>
  <clipPath id="p8237859b86">
   <rect height="235.24" width="230.521158" x="50.14375" y="55.35625"/>
  </clipPath>
  <clipPath id="p45a098a52b">
   <rect height="235.24" width="230.521158" x="330.802592" y="55.35625"/>
  </clipPath>
 </defs>
</svg>
