<?xml version="1.0" encoding="utf-8" standalone="no"?>
<!DOCTYPE svg PUBLIC "-//W3C//DTD SVG 1.1//EN"
  "http://www.w3.org/Graphics/SVG/1.1/DTD/svg11.dtd">
<!-- Created with matplotlib (https://matplotlib.org/) -->
<svg height="189.99625pt" version="1.1" viewBox="0 0 496.433125 189.99625" width="496.433125pt" xmlns="http://www.w3.org/2000/svg" xmlns:xlink="http://www.w3.org/1999/xlink">
 <metadata>
  <rdf:RDF xmlns:cc="http://creativecommons.org/ns#" xmlns:dc="http://purl.org/dc/elements/1.1/" xmlns:rdf="http://www.w3.org/1999/02/22-rdf-syntax-ns#">
   <cc:Work>
    <dc:type rdf:resource="http://purl.org/dc/dcmitype/StillImage"/>
    <dc:date>2022-08-03T17:33:00.431948</dc:date>
    <dc:format>image/svg+xml</dc:format>
    <dc:creator>
     <cc:Agent>
      <dc:title>Matplotlib v3.3.0, https://matplotlib.org/</dc:title>
     </cc:Agent>
    </dc:creator>
   </cc:Work>
  </rdf:RDF>
 </metadata>
 <defs>
  <style type="text/css">*{stroke-linecap:butt;stroke-linejoin:round;}</style>
 </defs>
 <g id="figure_1">
  <g id="patch_1">
   <path d="M -0 189.99625 
L 496.433125 189.99625 
L 496.433125 0 
L -0 0 
z
" style="fill:#ffffff;"/>
  </g>
  <g id="axes_1">
   <g id="patch_2">
    <path d="M 40.603125 152.44 
L 241.058125 152.44 
L 241.058125 7.2 
L 40.603125 7.2 
z
" style="fill:#ffffff;"/>
   </g>
   <g id="matplotlib.axis_1">
    <g id="xtick_1">
     <g id="line2d_1">
      <defs>
       <path d="M 0 0 
L 0 3.5 
" id="mfc43f80302" style="stroke:#000000;stroke-width:0.8;"/>
      </defs>
      <g>
       <use style="stroke:#000000;stroke-width:0.8;" x="49.714716" xlink:href="#mfc43f80302" y="152.44"/>
      </g>
     </g>
     <g id="text_1">
      <!-- 0 -->
      <g transform="translate(46.533466 167.038437)scale(0.1 -0.1)">
       <defs>
        <path d="M 31.78125 66.40625 
Q 24.171875 66.40625 20.328125 58.90625 
Q 16.5 51.421875 16.5 36.375 
Q 16.5 21.390625 20.328125 13.890625 
Q 24.171875 6.390625 31.78125 6.390625 
Q 39.453125 6.390625 43.28125 13.890625 
Q 47.125 21.390625 47.125 36.375 
Q 47.125 51.421875 43.28125 58.90625 
Q 39.453125 66.40625 31.78125 66.40625 
z
M 31.78125 74.21875 
Q 44.046875 74.21875 50.515625 64.515625 
Q 56.984375 54.828125 56.984375 36.375 
Q 56.984375 17.96875 50.515625 8.265625 
Q 44.046875 -1.421875 31.78125 -1.421875 
Q 19.53125 -1.421875 13.0625 8.265625 
Q 6.59375 17.96875 6.59375 36.375 
Q 6.59375 54.828125 13.0625 64.515625 
Q 19.53125 74.21875 31.78125 74.21875 
z
" id="DejaVuSans-48"/>
       </defs>
       <use xlink:href="#DejaVuSans-48"/>
      </g>
     </g>
    </g>
    <g id="xtick_2">
     <g id="line2d_2">
      <g>
       <use style="stroke:#000000;stroke-width:0.8;" x="115.26573" xlink:href="#mfc43f80302" y="152.44"/>
      </g>
     </g>
     <g id="text_2">
      <!-- 5 -->
      <g transform="translate(112.08448 167.038437)scale(0.1 -0.1)">
       <defs>
        <path d="M 10.796875 72.90625 
L 49.515625 72.90625 
L 49.515625 64.59375 
L 19.828125 64.59375 
L 19.828125 46.734375 
Q 21.96875 47.46875 24.109375 47.828125 
Q 26.265625 48.1875 28.421875 48.1875 
Q 40.625 48.1875 47.75 41.5 
Q 54.890625 34.8125 54.890625 23.390625 
Q 54.890625 11.625 47.5625 5.09375 
Q 40.234375 -1.421875 26.90625 -1.421875 
Q 22.3125 -1.421875 17.546875 -0.640625 
Q 12.796875 0.140625 7.71875 1.703125 
L 7.71875 11.625 
Q 12.109375 9.234375 16.796875 8.0625 
Q 21.484375 6.890625 26.703125 6.890625 
Q 35.15625 6.890625 40.078125 11.328125 
Q 45.015625 15.765625 45.015625 23.390625 
Q 45.015625 31 40.078125 35.4375 
Q 35.15625 39.890625 26.703125 39.890625 
Q 22.75 39.890625 18.8125 39.015625 
Q 14.890625 38.140625 10.796875 36.28125 
z
" id="DejaVuSans-53"/>
       </defs>
       <use xlink:href="#DejaVuSans-53"/>
      </g>
     </g>
    </g>
    <g id="xtick_3">
     <g id="line2d_3">
      <g>
       <use style="stroke:#000000;stroke-width:0.8;" x="180.816743" xlink:href="#mfc43f80302" y="152.44"/>
      </g>
     </g>
     <g id="text_3">
      <!-- 10 -->
      <g transform="translate(174.454243 167.038437)scale(0.1 -0.1)">
       <defs>
        <path d="M 12.40625 8.296875 
L 28.515625 8.296875 
L 28.515625 63.921875 
L 10.984375 60.40625 
L 10.984375 69.390625 
L 28.421875 72.90625 
L 38.28125 72.90625 
L 38.28125 8.296875 
L 54.390625 8.296875 
L 54.390625 0 
L 12.40625 0 
z
" id="DejaVuSans-49"/>
       </defs>
       <use xlink:href="#DejaVuSans-49"/>
       <use x="63.623047" xlink:href="#DejaVuSans-48"/>
      </g>
     </g>
    </g>
    <g id="text_4">
     <!-- Time (s) -->
     <g transform="translate(120.501719 180.716563)scale(0.1 -0.1)">
      <defs>
       <path d="M -0.296875 72.90625 
L 61.375 72.90625 
L 61.375 64.59375 
L 35.5 64.59375 
L 35.5 0 
L 25.59375 0 
L 25.59375 64.59375 
L -0.296875 64.59375 
z
" id="DejaVuSans-84"/>
       <path d="M 9.421875 54.6875 
L 18.40625 54.6875 
L 18.40625 0 
L 9.421875 0 
z
M 9.421875 75.984375 
L 18.40625 75.984375 
L 18.40625 64.59375 
L 9.421875 64.59375 
z
" id="DejaVuSans-105"/>
       <path d="M 52 44.1875 
Q 55.375 50.25 60.0625 53.125 
Q 64.75 56 71.09375 56 
Q 79.640625 56 84.28125 50.015625 
Q 88.921875 44.046875 88.921875 33.015625 
L 88.921875 0 
L 79.890625 0 
L 79.890625 32.71875 
Q 79.890625 40.578125 77.09375 44.375 
Q 74.3125 48.1875 68.609375 48.1875 
Q 61.625 48.1875 57.5625 43.546875 
Q 53.515625 38.921875 53.515625 30.90625 
L 53.515625 0 
L 44.484375 0 
L 44.484375 32.71875 
Q 44.484375 40.625 41.703125 44.40625 
Q 38.921875 48.1875 33.109375 48.1875 
Q 26.21875 48.1875 22.15625 43.53125 
Q 18.109375 38.875 18.109375 30.90625 
L 18.109375 0 
L 9.078125 0 
L 9.078125 54.6875 
L 18.109375 54.6875 
L 18.109375 46.1875 
Q 21.1875 51.21875 25.484375 53.609375 
Q 29.78125 56 35.6875 56 
Q 41.65625 56 45.828125 52.96875 
Q 50 49.953125 52 44.1875 
z
" id="DejaVuSans-109"/>
       <path d="M 56.203125 29.59375 
L 56.203125 25.203125 
L 14.890625 25.203125 
Q 15.484375 15.921875 20.484375 11.0625 
Q 25.484375 6.203125 34.421875 6.203125 
Q 39.59375 6.203125 44.453125 7.46875 
Q 49.3125 8.734375 54.109375 11.28125 
L 54.109375 2.78125 
Q 49.265625 0.734375 44.1875 -0.34375 
Q 39.109375 -1.421875 33.890625 -1.421875 
Q 20.796875 -1.421875 13.15625 6.1875 
Q 5.515625 13.8125 5.515625 26.8125 
Q 5.515625 40.234375 12.765625 48.109375 
Q 20.015625 56 32.328125 56 
Q 43.359375 56 49.78125 48.890625 
Q 56.203125 41.796875 56.203125 29.59375 
z
M 47.21875 32.234375 
Q 47.125 39.59375 43.09375 43.984375 
Q 39.0625 48.390625 32.421875 48.390625 
Q 24.90625 48.390625 20.390625 44.140625 
Q 15.875 39.890625 15.1875 32.171875 
z
" id="DejaVuSans-101"/>
       <path id="DejaVuSans-32"/>
       <path d="M 31 75.875 
Q 24.46875 64.65625 21.28125 53.65625 
Q 18.109375 42.671875 18.109375 31.390625 
Q 18.109375 20.125 21.3125 9.0625 
Q 24.515625 -2 31 -13.1875 
L 23.1875 -13.1875 
Q 15.875 -1.703125 12.234375 9.375 
Q 8.59375 20.453125 8.59375 31.390625 
Q 8.59375 42.28125 12.203125 53.3125 
Q 15.828125 64.359375 23.1875 75.875 
z
" id="DejaVuSans-40"/>
       <path d="M 44.28125 53.078125 
L 44.28125 44.578125 
Q 40.484375 46.53125 36.375 47.5 
Q 32.28125 48.484375 27.875 48.484375 
Q 21.1875 48.484375 17.84375 46.4375 
Q 14.5 44.390625 14.5 40.28125 
Q 14.5 37.15625 16.890625 35.375 
Q 19.28125 33.59375 26.515625 31.984375 
L 29.59375 31.296875 
Q 39.15625 29.25 43.1875 25.515625 
Q 47.21875 21.78125 47.21875 15.09375 
Q 47.21875 7.46875 41.1875 3.015625 
Q 35.15625 -1.421875 24.609375 -1.421875 
Q 20.21875 -1.421875 15.453125 -0.5625 
Q 10.6875 0.296875 5.421875 2 
L 5.421875 11.28125 
Q 10.40625 8.6875 15.234375 7.390625 
Q 20.0625 6.109375 24.8125 6.109375 
Q 31.15625 6.109375 34.5625 8.28125 
Q 37.984375 10.453125 37.984375 14.40625 
Q 37.984375 18.0625 35.515625 20.015625 
Q 33.0625 21.96875 24.703125 23.78125 
L 21.578125 24.515625 
Q 13.234375 26.265625 9.515625 29.90625 
Q 5.8125 33.546875 5.8125 39.890625 
Q 5.8125 47.609375 11.28125 51.796875 
Q 16.75 56 26.8125 56 
Q 31.78125 56 36.171875 55.265625 
Q 40.578125 54.546875 44.28125 53.078125 
z
" id="DejaVuSans-115"/>
       <path d="M 8.015625 75.875 
L 15.828125 75.875 
Q 23.140625 64.359375 26.78125 53.3125 
Q 30.421875 42.28125 30.421875 31.390625 
Q 30.421875 20.453125 26.78125 9.375 
Q 23.140625 -1.703125 15.828125 -13.1875 
L 8.015625 -13.1875 
Q 14.5 -2 17.703125 9.0625 
Q 20.90625 20.125 20.90625 31.390625 
Q 20.90625 42.671875 17.703125 53.65625 
Q 14.5 64.65625 8.015625 75.875 
z
" id="DejaVuSans-41"/>
      </defs>
      <use xlink:href="#DejaVuSans-84"/>
      <use x="57.958984" xlink:href="#DejaVuSans-105"/>
      <use x="85.742188" xlink:href="#DejaVuSans-109"/>
      <use x="183.154297" xlink:href="#DejaVuSans-101"/>
      <use x="244.677734" xlink:href="#DejaVuSans-32"/>
      <use x="276.464844" xlink:href="#DejaVuSans-40"/>
      <use x="315.478516" xlink:href="#DejaVuSans-115"/>
      <use x="367.578125" xlink:href="#DejaVuSans-41"/>
     </g>
    </g>
   </g>
   <g id="matplotlib.axis_2">
    <g id="ytick_1">
     <g id="line2d_4">
      <defs>
       <path d="M 0 0 
L -3.5 0 
" id="m50ba0509f4" style="stroke:#000000;stroke-width:0.8;"/>
      </defs>
      <g>
       <use style="stroke:#000000;stroke-width:0.8;" x="40.603125" xlink:href="#m50ba0509f4" y="145.838182"/>
      </g>
     </g>
     <g id="text_5">
      <!-- 0 -->
      <g transform="translate(27.240625 149.637401)scale(0.1 -0.1)">
       <use xlink:href="#DejaVuSans-48"/>
      </g>
     </g>
    </g>
    <g id="ytick_2">
     <g id="line2d_5">
      <g>
       <use style="stroke:#000000;stroke-width:0.8;" x="40.603125" xlink:href="#m50ba0509f4" y="112.632019"/>
      </g>
     </g>
     <g id="text_6">
      <!-- 10 -->
      <g transform="translate(20.878125 116.431238)scale(0.1 -0.1)">
       <use xlink:href="#DejaVuSans-49"/>
       <use x="63.623047" xlink:href="#DejaVuSans-48"/>
      </g>
     </g>
    </g>
    <g id="ytick_3">
     <g id="line2d_6">
      <g>
       <use style="stroke:#000000;stroke-width:0.8;" x="40.603125" xlink:href="#m50ba0509f4" y="79.425856"/>
      </g>
     </g>
     <g id="text_7">
      <!-- 20 -->
      <g transform="translate(20.878125 83.225075)scale(0.1 -0.1)">
       <defs>
        <path d="M 19.1875 8.296875 
L 53.609375 8.296875 
L 53.609375 0 
L 7.328125 0 
L 7.328125 8.296875 
Q 12.9375 14.109375 22.625 23.890625 
Q 32.328125 33.6875 34.8125 36.53125 
Q 39.546875 41.84375 41.421875 45.53125 
Q 43.3125 49.21875 43.3125 52.78125 
Q 43.3125 58.59375 39.234375 62.25 
Q 35.15625 65.921875 28.609375 65.921875 
Q 23.96875 65.921875 18.8125 64.3125 
Q 13.671875 62.703125 7.8125 59.421875 
L 7.8125 69.390625 
Q 13.765625 71.78125 18.9375 73 
Q 24.125 74.21875 28.421875 74.21875 
Q 39.75 74.21875 46.484375 68.546875 
Q 53.21875 62.890625 53.21875 53.421875 
Q 53.21875 48.921875 51.53125 44.890625 
Q 49.859375 40.875 45.40625 35.40625 
Q 44.1875 33.984375 37.640625 27.21875 
Q 31.109375 20.453125 19.1875 8.296875 
z
" id="DejaVuSans-50"/>
       </defs>
       <use xlink:href="#DejaVuSans-50"/>
       <use x="63.623047" xlink:href="#DejaVuSans-48"/>
      </g>
     </g>
    </g>
    <g id="ytick_4">
     <g id="line2d_7">
      <g>
       <use style="stroke:#000000;stroke-width:0.8;" x="40.603125" xlink:href="#m50ba0509f4" y="46.219693"/>
      </g>
     </g>
     <g id="text_8">
      <!-- 30 -->
      <g transform="translate(20.878125 50.018912)scale(0.1 -0.1)">
       <defs>
        <path d="M 40.578125 39.3125 
Q 47.65625 37.796875 51.625 33 
Q 55.609375 28.21875 55.609375 21.1875 
Q 55.609375 10.40625 48.1875 4.484375 
Q 40.765625 -1.421875 27.09375 -1.421875 
Q 22.515625 -1.421875 17.65625 -0.515625 
Q 12.796875 0.390625 7.625 2.203125 
L 7.625 11.71875 
Q 11.71875 9.328125 16.59375 8.109375 
Q 21.484375 6.890625 26.8125 6.890625 
Q 36.078125 6.890625 40.9375 10.546875 
Q 45.796875 14.203125 45.796875 21.1875 
Q 45.796875 27.640625 41.28125 31.265625 
Q 36.765625 34.90625 28.71875 34.90625 
L 20.21875 34.90625 
L 20.21875 43.015625 
L 29.109375 43.015625 
Q 36.375 43.015625 40.234375 45.921875 
Q 44.09375 48.828125 44.09375 54.296875 
Q 44.09375 59.90625 40.109375 62.90625 
Q 36.140625 65.921875 28.71875 65.921875 
Q 24.65625 65.921875 20.015625 65.03125 
Q 15.375 64.15625 9.8125 62.3125 
L 9.8125 71.09375 
Q 15.4375 72.65625 20.34375 73.4375 
Q 25.25 74.21875 29.59375 74.21875 
Q 40.828125 74.21875 47.359375 69.109375 
Q 53.90625 64.015625 53.90625 55.328125 
Q 53.90625 49.265625 50.4375 45.09375 
Q 46.96875 40.921875 40.578125 39.3125 
z
" id="DejaVuSans-51"/>
       </defs>
       <use xlink:href="#DejaVuSans-51"/>
       <use x="63.623047" xlink:href="#DejaVuSans-48"/>
      </g>
     </g>
    </g>
    <g id="ytick_5">
     <g id="line2d_8">
      <g>
       <use style="stroke:#000000;stroke-width:0.8;" x="40.603125" xlink:href="#m50ba0509f4" y="13.01353"/>
      </g>
     </g>
     <g id="text_9">
      <!-- 40 -->
      <g transform="translate(20.878125 16.812749)scale(0.1 -0.1)">
       <defs>
        <path d="M 37.796875 64.3125 
L 12.890625 25.390625 
L 37.796875 25.390625 
z
M 35.203125 72.90625 
L 47.609375 72.90625 
L 47.609375 25.390625 
L 58.015625 25.390625 
L 58.015625 17.1875 
L 47.609375 17.1875 
L 47.609375 0 
L 37.796875 0 
L 37.796875 17.1875 
L 4.890625 17.1875 
L 4.890625 26.703125 
z
" id="DejaVuSans-52"/>
       </defs>
       <use xlink:href="#DejaVuSans-52"/>
       <use x="63.623047" xlink:href="#DejaVuSans-48"/>
      </g>
     </g>
    </g>
    <g id="text_10">
     <!-- Throttle/Brake -->
     <g transform="translate(14.798438 115.455938)rotate(-90)scale(0.1 -0.1)">
      <defs>
       <path d="M 54.890625 33.015625 
L 54.890625 0 
L 45.90625 0 
L 45.90625 32.71875 
Q 45.90625 40.484375 42.875 44.328125 
Q 39.84375 48.1875 33.796875 48.1875 
Q 26.515625 48.1875 22.3125 43.546875 
Q 18.109375 38.921875 18.109375 30.90625 
L 18.109375 0 
L 9.078125 0 
L 9.078125 75.984375 
L 18.109375 75.984375 
L 18.109375 46.1875 
Q 21.34375 51.125 25.703125 53.5625 
Q 30.078125 56 35.796875 56 
Q 45.21875 56 50.046875 50.171875 
Q 54.890625 44.34375 54.890625 33.015625 
z
" id="DejaVuSans-104"/>
       <path d="M 41.109375 46.296875 
Q 39.59375 47.171875 37.8125 47.578125 
Q 36.03125 48 33.890625 48 
Q 26.265625 48 22.1875 43.046875 
Q 18.109375 38.09375 18.109375 28.8125 
L 18.109375 0 
L 9.078125 0 
L 9.078125 54.6875 
L 18.109375 54.6875 
L 18.109375 46.1875 
Q 20.953125 51.171875 25.484375 53.578125 
Q 30.03125 56 36.53125 56 
Q 37.453125 56 38.578125 55.875 
Q 39.703125 55.765625 41.0625 55.515625 
z
" id="DejaVuSans-114"/>
       <path d="M 30.609375 48.390625 
Q 23.390625 48.390625 19.1875 42.75 
Q 14.984375 37.109375 14.984375 27.296875 
Q 14.984375 17.484375 19.15625 11.84375 
Q 23.34375 6.203125 30.609375 6.203125 
Q 37.796875 6.203125 41.984375 11.859375 
Q 46.1875 17.53125 46.1875 27.296875 
Q 46.1875 37.015625 41.984375 42.703125 
Q 37.796875 48.390625 30.609375 48.390625 
z
M 30.609375 56 
Q 42.328125 56 49.015625 48.375 
Q 55.71875 40.765625 55.71875 27.296875 
Q 55.71875 13.875 49.015625 6.21875 
Q 42.328125 -1.421875 30.609375 -1.421875 
Q 18.84375 -1.421875 12.171875 6.21875 
Q 5.515625 13.875 5.515625 27.296875 
Q 5.515625 40.765625 12.171875 48.375 
Q 18.84375 56 30.609375 56 
z
" id="DejaVuSans-111"/>
       <path d="M 18.3125 70.21875 
L 18.3125 54.6875 
L 36.8125 54.6875 
L 36.8125 47.703125 
L 18.3125 47.703125 
L 18.3125 18.015625 
Q 18.3125 11.328125 20.140625 9.421875 
Q 21.96875 7.515625 27.59375 7.515625 
L 36.8125 7.515625 
L 36.8125 0 
L 27.59375 0 
Q 17.1875 0 13.234375 3.875 
Q 9.28125 7.765625 9.28125 18.015625 
L 9.28125 47.703125 
L 2.6875 47.703125 
L 2.6875 54.6875 
L 9.28125 54.6875 
L 9.28125 70.21875 
z
" id="DejaVuSans-116"/>
       <path d="M 9.421875 75.984375 
L 18.40625 75.984375 
L 18.40625 0 
L 9.421875 0 
z
" id="DejaVuSans-108"/>
       <path d="M 25.390625 72.90625 
L 33.6875 72.90625 
L 8.296875 -9.28125 
L 0 -9.28125 
z
" id="DejaVuSans-47"/>
       <path d="M 19.671875 34.8125 
L 19.671875 8.109375 
L 35.5 8.109375 
Q 43.453125 8.109375 47.28125 11.40625 
Q 51.125 14.703125 51.125 21.484375 
Q 51.125 28.328125 47.28125 31.5625 
Q 43.453125 34.8125 35.5 34.8125 
z
M 19.671875 64.796875 
L 19.671875 42.828125 
L 34.28125 42.828125 
Q 41.5 42.828125 45.03125 45.53125 
Q 48.578125 48.25 48.578125 53.8125 
Q 48.578125 59.328125 45.03125 62.0625 
Q 41.5 64.796875 34.28125 64.796875 
z
M 9.8125 72.90625 
L 35.015625 72.90625 
Q 46.296875 72.90625 52.390625 68.21875 
Q 58.5 63.53125 58.5 54.890625 
Q 58.5 48.1875 55.375 44.234375 
Q 52.25 40.28125 46.1875 39.3125 
Q 53.46875 37.75 57.5 32.78125 
Q 61.53125 27.828125 61.53125 20.40625 
Q 61.53125 10.640625 54.890625 5.3125 
Q 48.25 0 35.984375 0 
L 9.8125 0 
z
" id="DejaVuSans-66"/>
       <path d="M 34.28125 27.484375 
Q 23.390625 27.484375 19.1875 25 
Q 14.984375 22.515625 14.984375 16.5 
Q 14.984375 11.71875 18.140625 8.90625 
Q 21.296875 6.109375 26.703125 6.109375 
Q 34.1875 6.109375 38.703125 11.40625 
Q 43.21875 16.703125 43.21875 25.484375 
L 43.21875 27.484375 
z
M 52.203125 31.203125 
L 52.203125 0 
L 43.21875 0 
L 43.21875 8.296875 
Q 40.140625 3.328125 35.546875 0.953125 
Q 30.953125 -1.421875 24.3125 -1.421875 
Q 15.921875 -1.421875 10.953125 3.296875 
Q 6 8.015625 6 15.921875 
Q 6 25.140625 12.171875 29.828125 
Q 18.359375 34.515625 30.609375 34.515625 
L 43.21875 34.515625 
L 43.21875 35.40625 
Q 43.21875 41.609375 39.140625 45 
Q 35.0625 48.390625 27.6875 48.390625 
Q 23 48.390625 18.546875 47.265625 
Q 14.109375 46.140625 10.015625 43.890625 
L 10.015625 52.203125 
Q 14.9375 54.109375 19.578125 55.046875 
Q 24.21875 56 28.609375 56 
Q 40.484375 56 46.34375 49.84375 
Q 52.203125 43.703125 52.203125 31.203125 
z
" id="DejaVuSans-97"/>
       <path d="M 9.078125 75.984375 
L 18.109375 75.984375 
L 18.109375 31.109375 
L 44.921875 54.6875 
L 56.390625 54.6875 
L 27.390625 29.109375 
L 57.625 0 
L 45.90625 0 
L 18.109375 26.703125 
L 18.109375 0 
L 9.078125 0 
z
" id="DejaVuSans-107"/>
      </defs>
      <use xlink:href="#DejaVuSans-84"/>
      <use x="61.083984" xlink:href="#DejaVuSans-104"/>
      <use x="124.462891" xlink:href="#DejaVuSans-114"/>
      <use x="163.326172" xlink:href="#DejaVuSans-111"/>
      <use x="224.507812" xlink:href="#DejaVuSans-116"/>
      <use x="263.716797" xlink:href="#DejaVuSans-116"/>
      <use x="302.925781" xlink:href="#DejaVuSans-108"/>
      <use x="330.708984" xlink:href="#DejaVuSans-101"/>
      <use x="392.232422" xlink:href="#DejaVuSans-47"/>
      <use x="425.923828" xlink:href="#DejaVuSans-66"/>
      <use x="494.527344" xlink:href="#DejaVuSans-114"/>
      <use x="535.640625" xlink:href="#DejaVuSans-97"/>
      <use x="596.919922" xlink:href="#DejaVuSans-107"/>
      <use x="651.205078" xlink:href="#DejaVuSans-101"/>
     </g>
    </g>
   </g>
   <g id="line2d_9">
    <path clip-path="url(#p7a268ea9aa)" d="M 49.714716 145.838182 
L 231.946534 145.838182 
L 231.946534 145.838182 
" style="fill:none;stroke:#000000;stroke-linecap:square;stroke-width:0.5;"/>
   </g>
   <g id="line2d_10">
    <path clip-path="url(#p7a268ea9aa)" d="M 49.714716 142.517566 
L 231.946534 142.517566 
L 231.946534 142.517566 
" style="fill:none;stroke:#000000;stroke-linecap:square;stroke-width:0.5;"/>
   </g>
   <g id="line2d_11">
    <path clip-path="url(#p7a268ea9aa)" d="M 49.714716 121.615106 
L 51.025736 123.165466 
L 52.336756 123.439116 
L 53.647777 120.977702 
L 54.958797 125.01664 
L 56.269817 125.251412 
L 57.580838 124.294146 
L 58.891858 121.776083 
L 60.202878 121.820545 
L 61.513898 120.202912 
L 62.824919 119.546869 
L 64.135939 111.779963 
L 65.446959 101.961288 
L 66.757979 95.173242 
L 68.069 86.574129 
L 69.38002 72.43451 
L 70.69104 53.730664 
L 72.002061 44.368498 
L 73.313081 20.208457 
L 74.624101 22.20951 
L 75.935121 28.343663 
L 77.246142 13.801818 
L 78.557162 23.063574 
L 79.868182 17.719252 
L 81.179203 20.067599 
L 82.490223 31.642122 
L 83.801243 30.339843 
L 85.112263 43.300888 
L 86.423284 43.117679 
L 87.734304 22.084188 
L 89.045324 59.01131 
L 90.356344 24.473658 
L 91.667365 62.876095 
L 92.978385 65.191991 
L 94.289405 71.20634 
L 95.600426 79.066201 
L 96.911446 77.905252 
L 98.222466 70.076519 
L 99.533486 75.136426 
L 100.844507 80.902694 
L 102.155527 82.767584 
L 103.466547 86.860891 
L 104.777567 88.972045 
L 106.088588 89.098973 
L 107.399608 91.939014 
L 108.710628 91.592371 
L 110.021649 88.73309 
L 111.332669 86.762502 
L 112.643689 88.290761 
L 113.954709 92.933529 
L 115.26573 92.309699 
L 116.57675 96.066289 
L 117.88777 88.35417 
L 119.19879 89.959078 
L 120.509811 95.575013 
L 121.820831 98.622086 
L 123.131851 97.928304 
L 124.442872 99.218869 
L 125.753892 99.941396 
L 127.064912 100.89259 
L 128.375932 104.287001 
L 129.686953 105.899014 
L 130.997973 105.861246 
L 132.308993 104.339795 
L 133.620013 104.272197 
L 134.931034 109.621271 
L 136.242054 111.698925 
L 137.553074 110.547727 
L 138.864095 112.302415 
L 140.175115 110.643285 
L 141.486135 111.618382 
L 142.797155 112.363641 
L 144.108176 110.750399 
L 145.419196 108.72193 
L 146.730216 114.11086 
L 148.041237 110.308392 
L 149.352257 110.340081 
L 150.663277 106.797172 
L 151.974297 106.331644 
L 153.285318 108.012216 
L 154.596338 106.501728 
L 155.907358 104.631255 
L 157.218378 103.735802 
L 158.529399 104.527634 
L 159.840419 107.215629 
L 161.151439 108.650912 
L 162.46246 109.688638 
L 163.77348 113.01225 
L 165.0845 112.791819 
L 166.39552 113.676843 
L 169.017561 117.140385 
L 170.328581 117.485759 
L 171.639601 115.819347 
L 172.950622 118.003553 
L 174.261642 118.740606 
L 175.572662 119.836688 
L 176.883683 120.261803 
L 178.194703 120.014157 
L 179.505723 119.385807 
L 180.816743 118.410338 
L 182.127764 117.930207 
L 183.438784 118.178734 
L 184.749804 119.84778 
L 186.060824 115.943421 
L 187.371845 109.454918 
L 188.682865 116.598268 
L 189.993885 117.517337 
L 191.304906 117.427686 
L 192.615926 114.028621 
L 193.926946 118.722027 
L 195.237966 118.95717 
L 196.548987 121.25943 
L 197.860007 120.656954 
L 199.171027 121.162522 
L 200.482047 121.124542 
L 201.793068 123.779511 
L 203.104088 124.431524 
L 204.415108 123.930735 
L 205.726129 124.39741 
L 207.037149 123.098685 
L 208.348169 123.734114 
L 209.659189 123.073665 
L 210.97021 123.971686 
L 213.59225 123.088678 
L 214.903271 122.965874 
L 216.214291 123.291509 
L 217.525311 121.284366 
L 218.836331 122.607057 
L 220.147352 122.297477 
L 221.458372 120.458436 
L 222.769392 120.671707 
L 224.080412 118.590158 
L 225.391433 119.741994 
L 226.702453 118.976862 
L 228.013473 119.269313 
L 229.324494 119.140006 
L 230.635514 120.380969 
L 231.946534 120.771843 
L 231.946534 120.771843 
" style="fill:none;stroke:#1f77b4;stroke-linecap:square;stroke-width:1.5;"/>
   </g>
   <g id="line2d_12">
    <path clip-path="url(#p7a268ea9aa)" d="M 49.714716 145.838182 
L 231.946534 145.838182 
L 231.946534 145.838182 
" style="fill:none;stroke:#000000;stroke-linecap:square;stroke-width:0.5;"/>
   </g>
   <g id="line2d_13">
    <path clip-path="url(#p7a268ea9aa)" d="M 49.714716 142.517566 
L 231.946534 142.517566 
L 231.946534 142.517566 
" style="fill:none;stroke:#000000;stroke-linecap:square;stroke-width:0.5;"/>
   </g>
   <g id="line2d_14">
    <path clip-path="url(#p7a268ea9aa)" d="M 49.714716 106.455124 
L 51.025736 119.210534 
L 52.336756 113.636619 
L 54.958797 109.497691 
L 56.269817 107.4329 
L 57.580838 105.024316 
L 58.891858 106.04839 
L 60.202878 107.921852 
L 61.513898 105.966149 
L 62.824919 101.808698 
L 64.135939 102.379665 
L 65.446959 103.164736 
L 66.757979 103.154783 
L 68.069 103.792433 
L 69.38002 100.242838 
L 70.69104 102.609478 
L 72.002061 102.027689 
L 73.313081 100.024251 
L 74.624101 99.038763 
L 75.935121 99.793503 
L 77.246142 101.490218 
L 78.557162 100.378284 
L 79.868182 103.851169 
L 81.179203 102.568037 
L 82.490223 99.798782 
L 83.801243 96.42262 
L 85.112263 97.34239 
L 86.423284 95.778237 
L 87.734304 95.91426 
L 90.356344 97.041613 
L 91.667365 96.934332 
L 92.978385 97.01626 
L 94.289405 95.4853 
L 95.600426 93.396378 
L 96.911446 94.036479 
L 98.222466 90.903336 
L 99.533486 89.864212 
L 100.844507 88.074706 
L 102.155527 87.505896 
L 103.466547 82.720535 
L 104.777567 81.656573 
L 106.088588 82.027415 
L 108.710628 82.269057 
L 110.021649 78.626602 
L 111.332669 78.418512 
L 112.643689 75.576195 
L 113.954709 77.765034 
L 115.26573 75.714246 
L 116.57675 80.125737 
L 117.88777 81.065419 
L 119.19879 78.590889 
L 120.509811 78.361746 
L 121.820831 76.980704 
L 123.131851 80.593189 
L 124.442872 78.658159 
L 125.753892 80.352334 
L 127.064912 82.48954 
L 128.375932 78.61244 
L 129.686953 78.221993 
L 130.997973 81.129802 
L 132.308993 78.117529 
L 133.620013 77.283804 
L 134.931034 85.382125 
L 136.242054 81.885606 
L 137.553074 84.155415 
L 138.864095 80.354639 
L 140.175115 83.732083 
L 141.486135 83.629618 
L 142.797155 82.383367 
L 144.108176 83.50646 
L 145.419196 81.426347 
L 146.730216 81.915552 
L 148.041237 86.003545 
L 150.663277 85.099118 
L 151.974297 85.493715 
L 153.285318 84.22249 
L 154.596338 82.625188 
L 155.907358 82.094167 
L 157.218378 82.462282 
L 158.529399 85.991536 
L 159.840419 88.088299 
L 161.151439 85.283258 
L 162.46246 87.389248 
L 163.77348 87.386481 
L 165.0845 83.668241 
L 166.39552 85.290299 
L 167.706541 83.29949 
L 169.017561 81.540606 
L 170.328581 80.114709 
L 171.639601 79.124711 
L 172.950622 80.771911 
L 174.261642 84.983173 
L 175.572662 82.668197 
L 176.883683 82.90358 
L 178.194703 82.61025 
L 179.505723 83.877908 
L 180.816743 80.335642 
L 182.127764 79.062505 
L 183.438784 77.40231 
L 184.749804 80.05972 
L 186.060824 79.796634 
L 187.371845 82.304837 
L 188.682865 82.425296 
L 189.993885 80.992242 
L 191.304906 78.82789 
L 192.615926 82.179648 
L 193.926946 83.168445 
L 195.237966 84.365059 
L 196.548987 82.347314 
L 197.860007 83.046175 
L 199.171027 80.497385 
L 200.482047 80.574959 
L 201.793068 83.812652 
L 203.104088 83.388052 
L 204.415108 81.120386 
L 205.726129 82.620027 
L 207.037149 83.610392 
L 208.348169 82.481108 
L 209.659189 83.138242 
L 210.97021 83.641916 
L 212.28123 81.081177 
L 214.903271 82.532292 
L 216.214291 84.192451 
L 217.525311 87.359202 
L 218.836331 83.500704 
L 220.147352 85.232608 
L 221.458372 86.644426 
L 222.769392 84.611178 
L 224.080412 88.49485 
L 225.391433 84.550005 
L 226.702453 83.475292 
L 229.324494 87.660598 
L 230.635514 89.18983 
L 231.946534 88.744276 
L 231.946534 88.744276 
" style="fill:none;stroke:#ff7f0e;stroke-linecap:square;stroke-width:1.5;"/>
   </g>
   <g id="line2d_15">
    <path clip-path="url(#p7a268ea9aa)" d="M 49.714716 145.838182 
L 231.946534 145.838182 
L 231.946534 145.838182 
" style="fill:none;stroke:#000000;stroke-linecap:square;stroke-width:0.5;"/>
   </g>
   <g id="line2d_16">
    <path clip-path="url(#p7a268ea9aa)" d="M 49.714716 142.517566 
L 231.946534 142.517566 
L 231.946534 142.517566 
" style="fill:none;stroke:#000000;stroke-linecap:square;stroke-width:0.5;"/>
   </g>
   <g id="line2d_17">
    <path clip-path="url(#p7a268ea9aa)" d="M 49.714716 134.894018 
L 51.025736 133.986164 
L 52.336756 135.331546 
L 53.647777 133.830812 
L 54.958797 133.799583 
L 56.269817 131.865922 
L 57.580838 130.791796 
L 58.891858 129.868999 
L 60.202878 128.058372 
L 61.513898 127.014196 
L 64.135939 126.818626 
L 66.757979 125.253083 
L 68.069 123.790748 
L 69.38002 124.172 
L 70.69104 124.325373 
L 72.002061 125.310174 
L 73.313081 125.668957 
L 74.624101 125.610128 
L 75.935121 125.722402 
L 77.246142 125.384102 
L 78.557162 123.954495 
L 79.868182 124.532752 
L 81.179203 123.410806 
L 82.490223 123.398234 
L 83.801243 121.732402 
L 85.112263 120.685528 
L 86.423284 120.991674 
L 87.734304 122.838161 
L 89.045324 122.096864 
L 90.356344 122.38423 
L 91.667365 122.811447 
L 92.978385 123.702023 
L 94.289405 122.411128 
L 96.911446 122.070509 
L 98.222466 121.143583 
L 99.533486 121.430967 
L 100.844507 120.459931 
L 102.155527 119.244291 
L 103.466547 117.876293 
L 104.777567 119.304947 
L 107.399608 118.657583 
L 108.710628 119.055196 
L 110.021649 117.987652 
L 111.332669 114.566743 
L 112.643689 115.409258 
L 113.954709 114.542348 
L 115.26573 110.645721 
L 116.57675 113.436188 
L 117.88777 113.480653 
L 119.19879 113.15322 
L 120.509811 113.465179 
L 121.820831 113.3117 
L 123.131851 114.621251 
L 124.442872 113.255583 
L 125.753892 111.227164 
L 127.064912 114.055067 
L 128.375932 114.493715 
L 129.686953 115.824157 
L 130.997973 114.795991 
L 132.308993 116.024956 
L 134.931034 115.569589 
L 136.242054 116.574553 
L 137.553074 116.039902 
L 138.864095 115.778861 
L 140.175115 116.452194 
L 141.486135 116.181335 
L 142.797155 117.301582 
L 144.108176 117.924526 
L 145.419196 118.181335 
L 146.730216 117.986573 
L 148.041237 118.228086 
L 150.663277 118.222956 
L 151.974297 118.349051 
L 153.285318 119.621878 
L 154.596338 119.403404 
L 157.218378 118.772519 
L 158.529399 119.600251 
L 159.840419 118.835231 
L 161.151439 119.388201 
L 162.46246 120.235431 
L 165.0845 118.382254 
L 166.39552 118.54233 
L 167.706541 119.069132 
L 169.017561 119.11621 
L 170.328581 119.331224 
L 171.639601 117.855426 
L 172.950622 117.8242 
L 174.261642 116.918647 
L 175.572662 116.437072 
L 176.883683 117.205502 
L 178.194703 110.684954 
L 179.505723 112.634971 
L 180.816743 115.753608 
L 182.127764 114.754772 
L 183.438784 115.704215 
L 184.749804 115.251033 
L 186.060824 115.482508 
L 188.682865 117.367173 
L 189.993885 117.656657 
L 191.304906 117.547794 
L 192.615926 117.860821 
L 193.926946 117.649001 
L 195.237966 119.811854 
L 196.548987 120.292615 
L 199.171027 120.512834 
L 200.482047 116.333766 
L 201.793068 116.598885 
L 203.104088 117.008863 
L 204.415108 120.834413 
L 205.726129 121.317874 
L 207.037149 121.162594 
L 208.348169 121.274078 
L 209.659189 122.371788 
L 210.97021 122.085557 
L 212.28123 122.024977 
L 213.59225 121.77762 
L 214.903271 122.18427 
L 216.214291 121.744031 
L 217.525311 121.915154 
L 218.836331 122.271206 
L 220.147352 122.05001 
L 221.458372 122.769015 
L 224.080412 123.051003 
L 225.391433 122.937497 
L 226.702453 122.1603 
L 228.013473 122.488235 
L 229.324494 121.743854 
L 230.635514 121.934401 
L 231.946534 123.012535 
L 231.946534 123.012535 
" style="fill:none;stroke:#2ca02c;stroke-linecap:square;stroke-width:1.5;"/>
   </g>
   <g id="line2d_18">
    <path clip-path="url(#p7a268ea9aa)" d="M 49.714716 145.838182 
L 231.946534 145.838182 
L 231.946534 145.838182 
" style="fill:none;stroke:#000000;stroke-linecap:square;stroke-width:0.5;"/>
   </g>
   <g id="line2d_19">
    <path clip-path="url(#p7a268ea9aa)" d="M 49.714716 142.517566 
L 231.946534 142.517566 
L 231.946534 142.517566 
" style="fill:none;stroke:#000000;stroke-linecap:square;stroke-width:0.5;"/>
   </g>
   <g id="line2d_20">
    <path clip-path="url(#p7a268ea9aa)" d="M 49.714716 136.485485 
L 51.025736 136.36944 
L 52.336756 137.081132 
L 53.647777 136.23253 
L 54.958797 135.061839 
L 56.269817 132.43229 
L 57.580838 130.131762 
L 58.891858 128.639878 
L 60.202878 127.604507 
L 61.513898 127.607234 
L 62.824919 126.828218 
L 64.135939 126.614827 
L 65.446959 127.149884 
L 66.757979 126.018543 
L 68.069 125.892348 
L 69.38002 125.907672 
L 70.69104 126.092406 
L 72.002061 125.889893 
L 73.313081 126.22568 
L 74.624101 125.263419 
L 75.935121 126.102377 
L 77.246142 125.069001 
L 78.557162 121.785253 
L 79.868182 119.50326 
L 81.179203 122.324292 
L 82.490223 121.299722 
L 83.801243 118.857591 
L 85.112263 125.032574 
L 86.423284 123.696928 
L 87.734304 123.941733 
L 89.045324 123.468182 
L 90.356344 123.485603 
L 91.667365 123.011589 
L 92.978385 123.706624 
L 94.289405 123.786888 
L 95.600426 123.548358 
L 96.911446 124.3514 
L 102.155527 123.045801 
L 103.466547 121.899162 
L 104.777567 120.562423 
L 106.088588 119.955122 
L 107.399608 120.32665 
L 108.710628 119.635804 
L 110.021649 118.691845 
L 111.332669 116.223474 
L 112.643689 117.269065 
L 113.954709 112.957954 
L 115.26573 109.881307 
L 116.57675 113.898434 
L 117.88777 115.094469 
L 119.19879 115.139653 
L 120.509811 114.247541 
L 121.820831 113.709756 
L 123.131851 114.713126 
L 124.442872 116.035918 
L 125.753892 116.514665 
L 127.064912 116.84948 
L 128.375932 115.669414 
L 129.686953 115.586814 
L 130.997973 116.738507 
L 132.308993 119.602597 
L 133.620013 118.840825 
L 134.931034 118.926347 
L 136.242054 119.135065 
L 137.553074 118.577433 
L 138.864095 118.850297 
L 140.175115 118.428695 
L 141.486135 119.343803 
L 144.108176 120.217387 
L 145.419196 118.063866 
L 146.730216 119.218615 
L 148.041237 120.728563 
L 149.352257 122.413135 
L 151.974297 121.377198 
L 153.285318 121.615547 
L 154.596338 120.66383 
L 155.907358 120.638001 
L 157.218378 121.036256 
L 158.529399 121.244492 
L 159.840419 120.638613 
L 162.46246 121.845373 
L 163.77348 121.6353 
L 165.0845 121.579644 
L 166.39552 122.347194 
L 167.706541 121.591998 
L 169.017561 115.679768 
L 170.328581 117.005397 
L 171.639601 113.821021 
L 172.950622 115.655591 
L 174.261642 115.373372 
L 175.572662 119.173122 
L 176.883683 117.791231 
L 178.194703 118.917192 
L 179.505723 117.735473 
L 180.816743 117.792248 
L 182.127764 117.726151 
L 183.438784 117.278257 
L 184.749804 117.98054 
L 186.060824 118.410419 
L 187.371845 118.07372 
L 188.682865 120.001251 
L 189.993885 120.730905 
L 191.304906 120.390503 
L 192.615926 120.738436 
L 193.926946 121.746645 
L 195.237966 121.750546 
L 196.548987 122.335994 
L 197.860007 122.413613 
L 199.171027 122.783684 
L 200.482047 122.533692 
L 201.793068 122.662061 
L 203.104088 123.346468 
L 204.415108 122.301205 
L 205.726129 123.139697 
L 207.037149 123.373097 
L 208.348169 123.291859 
L 209.659189 124.486268 
L 210.97021 124.869544 
L 212.28123 125.404394 
L 213.59225 124.998274 
L 216.214291 126.276422 
L 217.525311 127.512071 
L 218.836331 125.982631 
L 220.147352 126.259906 
L 221.458372 125.637325 
L 222.769392 124.873882 
L 224.080412 125.923979 
L 225.391433 125.993667 
L 226.702453 125.294592 
L 228.013473 125.084536 
L 229.324494 123.668481 
L 230.635514 123.153747 
L 231.946534 124.441276 
L 231.946534 124.441276 
" style="fill:none;stroke:#d62728;stroke-linecap:square;stroke-width:1.5;"/>
   </g>
   <g id="patch_3">
    <path d="M 40.603125 152.44 
L 40.603125 7.2 
" style="fill:none;stroke:#000000;stroke-linecap:square;stroke-linejoin:miter;stroke-width:0.8;"/>
   </g>
   <g id="patch_4">
    <path d="M 241.058125 152.44 
L 241.058125 7.2 
" style="fill:none;stroke:#000000;stroke-linecap:square;stroke-linejoin:miter;stroke-width:0.8;"/>
   </g>
   <g id="patch_5">
    <path d="M 40.603125 152.44 
L 241.058125 152.44 
" style="fill:none;stroke:#000000;stroke-linecap:square;stroke-linejoin:miter;stroke-width:0.8;"/>
   </g>
   <g id="patch_6">
    <path d="M 40.603125 7.2 
L 241.058125 7.2 
" style="fill:none;stroke:#000000;stroke-linecap:square;stroke-linejoin:miter;stroke-width:0.8;"/>
   </g>
  </g>
  <g id="axes_2">
   <g id="patch_7">
    <path d="M 288.778125 152.44 
L 489.233125 152.44 
L 489.233125 7.2 
L 288.778125 7.2 
z
" style="fill:#ffffff;"/>
   </g>
   <g id="matplotlib.axis_3">
    <g id="xtick_4">
     <g id="line2d_21">
      <g>
       <use style="stroke:#000000;stroke-width:0.8;" x="297.889716" xlink:href="#mfc43f80302" y="152.44"/>
      </g>
     </g>
     <g id="text_11">
      <!-- 0 -->
      <g transform="translate(294.708466 167.038437)scale(0.1 -0.1)">
       <use xlink:href="#DejaVuSans-48"/>
      </g>
     </g>
    </g>
    <g id="xtick_5">
     <g id="line2d_22">
      <g>
       <use style="stroke:#000000;stroke-width:0.8;" x="363.44073" xlink:href="#mfc43f80302" y="152.44"/>
      </g>
     </g>
     <g id="text_12">
      <!-- 5 -->
      <g transform="translate(360.25948 167.038437)scale(0.1 -0.1)">
       <use xlink:href="#DejaVuSans-53"/>
      </g>
     </g>
    </g>
    <g id="xtick_6">
     <g id="line2d_23">
      <g>
       <use style="stroke:#000000;stroke-width:0.8;" x="428.991743" xlink:href="#mfc43f80302" y="152.44"/>
      </g>
     </g>
     <g id="text_13">
      <!-- 10 -->
      <g transform="translate(422.629243 167.038437)scale(0.1 -0.1)">
       <use xlink:href="#DejaVuSans-49"/>
       <use x="63.623047" xlink:href="#DejaVuSans-48"/>
      </g>
     </g>
    </g>
    <g id="text_14">
     <!-- Time (s) -->
     <g transform="translate(368.676719 180.716563)scale(0.1 -0.1)">
      <use xlink:href="#DejaVuSans-84"/>
      <use x="57.958984" xlink:href="#DejaVuSans-105"/>
      <use x="85.742188" xlink:href="#DejaVuSans-109"/>
      <use x="183.154297" xlink:href="#DejaVuSans-101"/>
      <use x="244.677734" xlink:href="#DejaVuSans-32"/>
      <use x="276.464844" xlink:href="#DejaVuSans-40"/>
      <use x="315.478516" xlink:href="#DejaVuSans-115"/>
      <use x="367.578125" xlink:href="#DejaVuSans-41"/>
     </g>
    </g>
   </g>
   <g id="matplotlib.axis_4">
    <g id="ytick_6">
     <g id="line2d_24">
      <g>
       <use style="stroke:#000000;stroke-width:0.8;" x="288.778125" xlink:href="#m50ba0509f4" y="145.838182"/>
      </g>
     </g>
     <g id="text_15">
      <!-- 0.0 -->
      <g transform="translate(265.875 149.637401)scale(0.1 -0.1)">
       <defs>
        <path d="M 10.6875 12.40625 
L 21 12.40625 
L 21 0 
L 10.6875 0 
z
" id="DejaVuSans-46"/>
       </defs>
       <use xlink:href="#DejaVuSans-48"/>
       <use x="63.623047" xlink:href="#DejaVuSans-46"/>
       <use x="95.410156" xlink:href="#DejaVuSans-48"/>
      </g>
     </g>
    </g>
    <g id="ytick_7">
     <g id="line2d_25">
      <g>
       <use style="stroke:#000000;stroke-width:0.8;" x="288.778125" xlink:href="#m50ba0509f4" y="110.646878"/>
      </g>
     </g>
     <g id="text_16">
      <!-- 0.2 -->
      <g transform="translate(265.875 114.446096)scale(0.1 -0.1)">
       <use xlink:href="#DejaVuSans-48"/>
       <use x="63.623047" xlink:href="#DejaVuSans-46"/>
       <use x="95.410156" xlink:href="#DejaVuSans-50"/>
      </g>
     </g>
    </g>
    <g id="ytick_8">
     <g id="line2d_26">
      <g>
       <use style="stroke:#000000;stroke-width:0.8;" x="288.778125" xlink:href="#m50ba0509f4" y="75.455573"/>
      </g>
     </g>
     <g id="text_17">
      <!-- 0.4 -->
      <g transform="translate(265.875 79.254792)scale(0.1 -0.1)">
       <use xlink:href="#DejaVuSans-48"/>
       <use x="63.623047" xlink:href="#DejaVuSans-46"/>
       <use x="95.410156" xlink:href="#DejaVuSans-52"/>
      </g>
     </g>
    </g>
    <g id="ytick_9">
     <g id="line2d_27">
      <g>
       <use style="stroke:#000000;stroke-width:0.8;" x="288.778125" xlink:href="#m50ba0509f4" y="40.264269"/>
      </g>
     </g>
     <g id="text_18">
      <!-- 0.6 -->
      <g transform="translate(265.875 44.063488)scale(0.1 -0.1)">
       <defs>
        <path d="M 33.015625 40.375 
Q 26.375 40.375 22.484375 35.828125 
Q 18.609375 31.296875 18.609375 23.390625 
Q 18.609375 15.53125 22.484375 10.953125 
Q 26.375 6.390625 33.015625 6.390625 
Q 39.65625 6.390625 43.53125 10.953125 
Q 47.40625 15.53125 47.40625 23.390625 
Q 47.40625 31.296875 43.53125 35.828125 
Q 39.65625 40.375 33.015625 40.375 
z
M 52.59375 71.296875 
L 52.59375 62.3125 
Q 48.875 64.0625 45.09375 64.984375 
Q 41.3125 65.921875 37.59375 65.921875 
Q 27.828125 65.921875 22.671875 59.328125 
Q 17.53125 52.734375 16.796875 39.40625 
Q 19.671875 43.65625 24.015625 45.921875 
Q 28.375 48.1875 33.59375 48.1875 
Q 44.578125 48.1875 50.953125 41.515625 
Q 57.328125 34.859375 57.328125 23.390625 
Q 57.328125 12.15625 50.6875 5.359375 
Q 44.046875 -1.421875 33.015625 -1.421875 
Q 20.359375 -1.421875 13.671875 8.265625 
Q 6.984375 17.96875 6.984375 36.375 
Q 6.984375 53.65625 15.1875 63.9375 
Q 23.390625 74.21875 37.203125 74.21875 
Q 40.921875 74.21875 44.703125 73.484375 
Q 48.484375 72.75 52.59375 71.296875 
z
" id="DejaVuSans-54"/>
       </defs>
       <use xlink:href="#DejaVuSans-48"/>
       <use x="63.623047" xlink:href="#DejaVuSans-46"/>
       <use x="95.410156" xlink:href="#DejaVuSans-54"/>
      </g>
     </g>
    </g>
    <g id="text_19">
     <!-- Steering Angle -->
     <g transform="translate(259.795313 116.712969)rotate(-90)scale(0.1 -0.1)">
      <defs>
       <path d="M 53.515625 70.515625 
L 53.515625 60.890625 
Q 47.90625 63.578125 42.921875 64.890625 
Q 37.9375 66.21875 33.296875 66.21875 
Q 25.25 66.21875 20.875 63.09375 
Q 16.5 59.96875 16.5 54.203125 
Q 16.5 49.359375 19.40625 46.890625 
Q 22.3125 44.4375 30.421875 42.921875 
L 36.375 41.703125 
Q 47.40625 39.59375 52.65625 34.296875 
Q 57.90625 29 57.90625 20.125 
Q 57.90625 9.515625 50.796875 4.046875 
Q 43.703125 -1.421875 29.984375 -1.421875 
Q 24.8125 -1.421875 18.96875 -0.25 
Q 13.140625 0.921875 6.890625 3.21875 
L 6.890625 13.375 
Q 12.890625 10.015625 18.65625 8.296875 
Q 24.421875 6.59375 29.984375 6.59375 
Q 38.421875 6.59375 43.015625 9.90625 
Q 47.609375 13.234375 47.609375 19.390625 
Q 47.609375 24.75 44.3125 27.78125 
Q 41.015625 30.8125 33.5 32.328125 
L 27.484375 33.5 
Q 16.453125 35.6875 11.515625 40.375 
Q 6.59375 45.0625 6.59375 53.421875 
Q 6.59375 63.09375 13.40625 68.65625 
Q 20.21875 74.21875 32.171875 74.21875 
Q 37.3125 74.21875 42.625 73.28125 
Q 47.953125 72.359375 53.515625 70.515625 
z
" id="DejaVuSans-83"/>
       <path d="M 54.890625 33.015625 
L 54.890625 0 
L 45.90625 0 
L 45.90625 32.71875 
Q 45.90625 40.484375 42.875 44.328125 
Q 39.84375 48.1875 33.796875 48.1875 
Q 26.515625 48.1875 22.3125 43.546875 
Q 18.109375 38.921875 18.109375 30.90625 
L 18.109375 0 
L 9.078125 0 
L 9.078125 54.6875 
L 18.109375 54.6875 
L 18.109375 46.1875 
Q 21.34375 51.125 25.703125 53.5625 
Q 30.078125 56 35.796875 56 
Q 45.21875 56 50.046875 50.171875 
Q 54.890625 44.34375 54.890625 33.015625 
z
" id="DejaVuSans-110"/>
       <path d="M 45.40625 27.984375 
Q 45.40625 37.75 41.375 43.109375 
Q 37.359375 48.484375 30.078125 48.484375 
Q 22.859375 48.484375 18.828125 43.109375 
Q 14.796875 37.75 14.796875 27.984375 
Q 14.796875 18.265625 18.828125 12.890625 
Q 22.859375 7.515625 30.078125 7.515625 
Q 37.359375 7.515625 41.375 12.890625 
Q 45.40625 18.265625 45.40625 27.984375 
z
M 54.390625 6.78125 
Q 54.390625 -7.171875 48.1875 -13.984375 
Q 42 -20.796875 29.203125 -20.796875 
Q 24.46875 -20.796875 20.265625 -20.09375 
Q 16.0625 -19.390625 12.109375 -17.921875 
L 12.109375 -9.1875 
Q 16.0625 -11.328125 19.921875 -12.34375 
Q 23.78125 -13.375 27.78125 -13.375 
Q 36.625 -13.375 41.015625 -8.765625 
Q 45.40625 -4.15625 45.40625 5.171875 
L 45.40625 9.625 
Q 42.625 4.78125 38.28125 2.390625 
Q 33.9375 0 27.875 0 
Q 17.828125 0 11.671875 7.65625 
Q 5.515625 15.328125 5.515625 27.984375 
Q 5.515625 40.671875 11.671875 48.328125 
Q 17.828125 56 27.875 56 
Q 33.9375 56 38.28125 53.609375 
Q 42.625 51.21875 45.40625 46.390625 
L 45.40625 54.6875 
L 54.390625 54.6875 
z
" id="DejaVuSans-103"/>
       <path d="M 34.1875 63.1875 
L 20.796875 26.90625 
L 47.609375 26.90625 
z
M 28.609375 72.90625 
L 39.796875 72.90625 
L 67.578125 0 
L 57.328125 0 
L 50.6875 18.703125 
L 17.828125 18.703125 
L 11.1875 0 
L 0.78125 0 
z
" id="DejaVuSans-65"/>
      </defs>
      <use xlink:href="#DejaVuSans-83"/>
      <use x="63.476562" xlink:href="#DejaVuSans-116"/>
      <use x="102.685547" xlink:href="#DejaVuSans-101"/>
      <use x="164.208984" xlink:href="#DejaVuSans-101"/>
      <use x="225.732422" xlink:href="#DejaVuSans-114"/>
      <use x="266.845703" xlink:href="#DejaVuSans-105"/>
      <use x="294.628906" xlink:href="#DejaVuSans-110"/>
      <use x="358.007812" xlink:href="#DejaVuSans-103"/>
      <use x="421.484375" xlink:href="#DejaVuSans-32"/>
      <use x="453.271484" xlink:href="#DejaVuSans-65"/>
      <use x="521.679688" xlink:href="#DejaVuSans-110"/>
      <use x="585.058594" xlink:href="#DejaVuSans-103"/>
      <use x="648.535156" xlink:href="#DejaVuSans-108"/>
      <use x="676.318359" xlink:href="#DejaVuSans-101"/>
     </g>
    </g>
   </g>
   <g id="line2d_28">
    <path clip-path="url(#pa2c3dfe8bf)" d="M 297.889716 145.838182 
L 480.121534 145.838182 
L 480.121534 145.838182 
" style="fill:none;stroke:#000000;stroke-linecap:square;stroke-width:0.5;"/>
   </g>
   <g id="line2d_29">
    <path clip-path="url(#pa2c3dfe8bf)" d="M 297.889716 90.55981 
L 480.121534 90.55981 
L 480.121534 90.55981 
" style="fill:none;stroke:#000000;stroke-linecap:square;stroke-width:0.5;"/>
   </g>
   <g id="line2d_30">
    <path clip-path="url(#pa2c3dfe8bf)" d="M 297.889716 120.620808 
L 299.200736 129.775033 
L 300.511756 136.671567 
L 301.822777 135.011123 
L 303.133797 134.472961 
L 304.444817 133.468288 
L 305.755838 129.304247 
L 307.066858 123.364897 
L 308.377878 125.584677 
L 309.688898 123.413847 
L 310.999919 122.026665 
L 312.310939 125.328867 
L 313.621959 117.932395 
L 314.932979 97.709128 
L 316.244 102.872799 
L 317.55502 97.067734 
L 318.86604 105.489475 
L 320.177061 105.255176 
L 321.488081 104.296539 
L 322.799101 91.212513 
L 324.110121 98.086065 
L 325.421142 90.893358 
L 326.732162 101.590425 
L 328.043182 95.964919 
L 329.354203 85.840214 
L 330.665223 86.049503 
L 331.976243 83.572459 
L 333.287263 73.372291 
L 334.598284 57.346166 
L 335.909304 54.771006 
L 337.220324 56.382298 
L 338.531344 54.376977 
L 339.842365 57.156094 
L 341.153385 67.405168 
L 342.464405 47.983647 
L 343.775426 62.358072 
L 345.086446 57.188762 
L 346.397466 59.280728 
L 347.708486 72.64832 
L 349.019507 89.863944 
L 350.330527 84.908947 
L 351.641547 81.344574 
L 352.952567 91.35814 
L 354.263588 91.485259 
L 355.574608 98.813327 
L 356.885628 92.613138 
L 358.196649 93.837521 
L 359.507669 89.676419 
L 360.818689 89.22312 
L 362.129709 85.768144 
L 363.44073 83.967488 
L 366.06277 54.486483 
L 367.37379 73.237743 
L 368.684811 98.464909 
L 369.995831 92.983707 
L 371.306851 98.473962 
L 372.617872 107.349307 
L 373.928892 103.429618 
L 375.239912 107.916069 
L 376.550932 114.950486 
L 377.861953 116.586945 
L 379.172973 115.660308 
L 380.483993 110.720618 
L 381.795013 118.906408 
L 383.106034 115.897168 
L 384.417054 116.698218 
L 385.728074 114.076476 
L 387.039095 117.077988 
L 388.350115 114.619798 
L 389.661135 114.318021 
L 390.972155 109.109653 
L 392.283176 106.993389 
L 393.594196 107.105083 
L 394.905216 112.128865 
L 396.216237 108.520941 
L 397.527257 100.73797 
L 398.838277 96.172069 
L 401.460318 112.320954 
L 402.771338 106.984444 
L 404.082358 109.225273 
L 405.393378 112.964191 
L 406.704399 115.455259 
L 408.015419 111.20083 
L 409.326439 112.583253 
L 410.63746 114.41524 
L 411.94848 117.749172 
L 413.2595 115.129823 
L 414.57052 114.495461 
L 415.881541 108.593347 
L 417.192561 121.373297 
L 418.503581 119.582108 
L 421.125622 118.842473 
L 422.436642 117.845537 
L 423.747662 118.744217 
L 425.058683 123.028879 
L 426.369703 122.669388 
L 427.680723 120.613896 
L 428.991743 120.812224 
L 430.302764 118.566049 
L 431.613784 119.439445 
L 432.924804 122.15956 
L 434.235824 110.209652 
L 435.546845 112.872192 
L 436.857865 117.136445 
L 438.168885 120.113845 
L 439.479906 122.381143 
L 440.790926 122.861678 
L 442.101946 127.965179 
L 443.412966 128.925337 
L 444.723987 128.030525 
L 446.035007 128.31695 
L 447.346027 126.913982 
L 448.657047 125.144397 
L 449.968068 129.642254 
L 451.279088 131.898783 
L 452.590108 132.791565 
L 453.901129 131.526909 
L 455.212149 127.714241 
L 456.523169 131.734206 
L 457.834189 127.680426 
L 459.14521 133.033531 
L 460.45623 131.079792 
L 461.76725 128.818955 
L 463.078271 130.652443 
L 464.389291 127.065379 
L 465.700311 125.822264 
L 467.011331 126.203129 
L 468.322352 128.546061 
L 469.633372 130.084299 
L 470.944392 128.601178 
L 472.255412 129.396895 
L 474.877453 133.141939 
L 476.188473 134.506526 
L 477.499494 135.014797 
L 478.810514 135.227595 
L 480.121534 133.557553 
L 480.121534 133.557553 
" style="fill:none;stroke:#1f77b4;stroke-linecap:square;stroke-width:1.5;"/>
   </g>
   <g id="line2d_31">
    <path clip-path="url(#pa2c3dfe8bf)" d="M 297.889716 145.838182 
L 480.121534 145.838182 
L 480.121534 145.838182 
" style="fill:none;stroke:#000000;stroke-linecap:square;stroke-width:0.5;"/>
   </g>
   <g id="line2d_32">
    <path clip-path="url(#pa2c3dfe8bf)" d="M 297.889716 90.55981 
L 480.121534 90.55981 
L 480.121534 90.55981 
" style="fill:none;stroke:#000000;stroke-linecap:square;stroke-width:0.5;"/>
   </g>
   <g id="line2d_33">
    <path clip-path="url(#pa2c3dfe8bf)" d="M 297.889716 49.945505 
L 299.200736 81.659572 
L 300.511756 107.077037 
L 301.822777 99.549226 
L 303.133797 110.794224 
L 304.444817 97.190338 
L 305.755838 69.953501 
L 307.066858 74.975129 
L 308.377878 69.993006 
L 309.688898 73.585641 
L 310.999919 86.189749 
L 312.310939 76.488143 
L 313.621959 81.504712 
L 314.932979 76.438444 
L 316.244 72.435045 
L 317.55502 58.738077 
L 318.86604 75.770243 
L 320.177061 74.119235 
L 321.488081 70.017708 
L 322.799101 68.353818 
L 324.110121 72.539565 
L 325.421142 70.484626 
L 326.732162 69.001121 
L 328.043182 69.875593 
L 329.354203 68.604857 
L 330.665223 64.101186 
L 331.976243 62.940287 
L 333.287263 59.685139 
L 334.598284 62.411516 
L 335.909304 56.021479 
L 337.220324 69.194845 
L 338.531344 54.924607 
L 339.842365 61.967582 
L 341.153385 63.899348 
L 342.464405 71.13804 
L 343.775426 40.758109 
L 345.086446 55.943889 
L 346.397466 57.058613 
L 347.708486 56.890689 
L 349.019507 46.885587 
L 350.330527 28.863484 
L 351.641547 25.919661 
L 352.952567 27.801116 
L 354.263588 20.950693 
L 355.574608 24.883309 
L 356.885628 49.720449 
L 358.196649 46.636039 
L 359.507669 40.127053 
L 360.818689 55.186735 
L 362.129709 34.667853 
L 363.44073 26.324121 
L 364.75175 37.454048 
L 366.06277 44.272608 
L 367.37379 40.474542 
L 368.684811 42.298188 
L 369.995831 48.328519 
L 371.306851 34.822569 
L 372.617872 32.936781 
L 373.928892 42.627608 
L 375.239912 44.617541 
L 376.550932 55.023057 
L 377.861953 44.668639 
L 379.172973 44.455292 
L 380.483993 24.400908 
L 381.795013 35.54331 
L 383.106034 44.547967 
L 384.417054 49.526968 
L 385.728074 40.96591 
L 387.039095 37.145924 
L 388.350115 40.758871 
L 389.661135 41.815051 
L 390.972155 45.689493 
L 392.283176 45.705635 
L 393.594196 42.766371 
L 394.905216 36.474899 
L 396.216237 37.465544 
L 397.527257 52.124589 
L 398.838277 42.150275 
L 400.149297 41.8089 
L 401.460318 48.577098 
L 402.771338 54.092339 
L 404.082358 13.801818 
L 405.393378 32.56102 
L 406.704399 54.475102 
L 408.015419 50.702134 
L 409.326439 40.824293 
L 410.63746 36.121494 
L 411.94848 47.623271 
L 413.2595 20.375793 
L 414.57052 40.395582 
L 415.881541 53.26417 
L 417.192561 48.036011 
L 418.503581 45.187418 
L 419.814601 28.432726 
L 421.125622 37.183305 
L 422.436642 41.816307 
L 423.747662 34.265918 
L 425.058683 43.858586 
L 426.369703 47.63911 
L 427.680723 16.786961 
L 430.302764 53.221239 
L 431.613784 29.313498 
L 432.924804 40.143805 
L 434.235824 42.858288 
L 435.546845 50.087046 
L 436.857865 26.813805 
L 438.168885 41.064647 
L 439.479906 44.044434 
L 440.790926 51.080354 
L 442.101946 52.784674 
L 443.412966 41.440931 
L 444.723987 49.757073 
L 446.035007 43.868498 
L 447.346027 40.56356 
L 448.657047 46.613558 
L 449.968068 40.740196 
L 451.279088 42.884895 
L 452.590108 14.358733 
L 453.901129 30.460496 
L 455.212149 48.219594 
L 456.523169 37.327093 
L 457.834189 35.100682 
L 459.14521 41.416169 
L 460.45623 37.602909 
L 461.76725 51.631274 
L 463.078271 47.392128 
L 464.389291 33.595234 
L 465.700311 41.686176 
L 467.011331 32.55424 
L 468.322352 34.424473 
L 469.633372 46.190594 
L 470.944392 52.513311 
L 472.255412 51.387937 
L 473.566433 46.323756 
L 474.877453 31.480428 
L 476.188473 33.615002 
L 477.499494 41.463982 
L 478.810514 45.976138 
L 480.121534 51.46589 
L 480.121534 51.46589 
" style="fill:none;stroke:#ff7f0e;stroke-linecap:square;stroke-width:1.5;"/>
   </g>
   <g id="line2d_34">
    <path clip-path="url(#pa2c3dfe8bf)" d="M 297.889716 145.838182 
L 480.121534 145.838182 
L 480.121534 145.838182 
" style="fill:none;stroke:#000000;stroke-linecap:square;stroke-width:0.5;"/>
   </g>
   <g id="line2d_35">
    <path clip-path="url(#pa2c3dfe8bf)" d="M 297.889716 90.55981 
L 480.121534 90.55981 
L 480.121534 90.55981 
" style="fill:none;stroke:#000000;stroke-linecap:square;stroke-width:0.5;"/>
   </g>
   <g id="line2d_36">
    <path clip-path="url(#pa2c3dfe8bf)" d="M 297.889716 111.535174 
L 299.200736 106.366841 
L 300.511756 119.979055 
L 301.822777 123.520869 
L 303.133797 124.406292 
L 305.755838 110.597033 
L 307.066858 113.714721 
L 308.377878 101.502121 
L 309.688898 105.263107 
L 310.999919 106.506912 
L 312.310939 99.885905 
L 313.621959 95.781993 
L 316.244 101.187212 
L 318.86604 108.689135 
L 320.177061 105.277938 
L 321.488081 105.070345 
L 322.799101 98.703616 
L 324.110121 102.198203 
L 325.421142 107.599695 
L 326.732162 105.052658 
L 328.043182 112.058125 
L 329.354203 108.203131 
L 330.665223 108.23398 
L 331.976243 108.999773 
L 333.287263 108.748683 
L 334.598284 103.385518 
L 335.909304 103.733493 
L 337.220324 104.650361 
L 338.531344 99.723134 
L 339.842365 101.623469 
L 341.153385 102.620473 
L 342.464405 102.756537 
L 343.775426 102.28458 
L 345.086446 99.113768 
L 346.397466 95.626005 
L 347.708486 93.718966 
L 349.019507 91.493769 
L 350.330527 93.753951 
L 351.641547 98.275749 
L 352.952567 91.797267 
L 354.263588 96.251308 
L 355.574608 97.527432 
L 356.885628 93.033659 
L 358.196649 100.837684 
L 359.507669 94.979647 
L 360.818689 97.686242 
L 362.129709 93.54123 
L 363.44073 90.943254 
L 364.75175 93.704021 
L 366.06277 86.574471 
L 367.37379 88.924302 
L 368.684811 89.144587 
L 369.995831 98.97503 
L 371.306851 94.774649 
L 372.617872 97.754391 
L 373.928892 91.883047 
L 375.239912 97.990673 
L 376.550932 91.549889 
L 377.861953 94.688157 
L 379.172973 96.130936 
L 380.483993 98.357003 
L 381.795013 93.276285 
L 383.106034 93.027895 
L 384.417054 97.883193 
L 385.728074 97.893059 
L 387.039095 92.658507 
L 388.350115 100.181252 
L 389.661135 102.679395 
L 390.972155 100.958972 
L 392.283176 103.631025 
L 393.594196 104.396583 
L 394.905216 103.253534 
L 396.216237 103.915719 
L 397.527257 99.518101 
L 398.838277 99.141332 
L 400.149297 98.070808 
L 401.460318 97.38116 
L 402.771338 98.22949 
L 404.082358 97.985389 
L 405.393378 100.993493 
L 406.704399 101.140277 
L 408.015419 100.198623 
L 409.326439 104.255377 
L 410.63746 106.986112 
L 411.94848 100.28756 
L 413.2595 99.11834 
L 414.57052 106.191324 
L 415.881541 106.761401 
L 417.192561 94.993592 
L 418.503581 106.888779 
L 419.814601 106.013123 
L 421.125622 104.051035 
L 422.436642 102.75337 
L 423.747662 99.822976 
L 425.058683 106.573527 
L 426.369703 114.515501 
L 427.680723 105.791151 
L 428.991743 104.849205 
L 430.302764 108.065091 
L 431.613784 96.563025 
L 432.924804 98.524721 
L 434.235824 101.800342 
L 435.546845 103.447171 
L 436.857865 103.507226 
L 438.168885 104.27688 
L 440.790926 109.386502 
L 442.101946 107.706609 
L 443.412966 102.407856 
L 444.723987 103.937479 
L 446.035007 107.841167 
L 447.346027 102.145481 
L 448.657047 108.183001 
L 449.968068 107.018533 
L 451.279088 108.550301 
L 452.590108 113.525462 
L 453.901129 106.212351 
L 455.212149 110.550142 
L 456.523169 107.12373 
L 457.834189 112.322457 
L 459.14521 112.323748 
L 460.45623 110.94251 
L 461.76725 111.483368 
L 463.078271 109.437715 
L 464.389291 109.806358 
L 465.700311 109.195965 
L 467.011331 111.575831 
L 468.322352 110.203153 
L 470.944392 110.43408 
L 472.255412 104.611022 
L 473.566433 106.36192 
L 474.877453 104.291335 
L 476.188473 108.090339 
L 477.499494 101.392889 
L 478.810514 107.193663 
L 480.121534 103.376864 
L 480.121534 103.376864 
" style="fill:none;stroke:#2ca02c;stroke-linecap:square;stroke-width:1.5;"/>
   </g>
   <g id="line2d_37">
    <path clip-path="url(#pa2c3dfe8bf)" d="M 297.889716 145.838182 
L 480.121534 145.838182 
L 480.121534 145.838182 
" style="fill:none;stroke:#000000;stroke-linecap:square;stroke-width:0.5;"/>
   </g>
   <g id="line2d_38">
    <path clip-path="url(#pa2c3dfe8bf)" d="M 297.889716 90.55981 
L 480.121534 90.55981 
L 480.121534 90.55981 
" style="fill:none;stroke:#000000;stroke-linecap:square;stroke-width:0.5;"/>
   </g>
   <g id="line2d_39">
    <path clip-path="url(#pa2c3dfe8bf)" d="M 297.889716 113.602137 
L 299.200736 109.411884 
L 300.511756 122.695948 
L 301.822777 125.271853 
L 303.133797 127.194945 
L 304.444817 118.715868 
L 305.755838 116.320135 
L 307.066858 114.71983 
L 308.377878 106.176185 
L 309.688898 102.788999 
L 310.999919 109.003212 
L 312.310939 104.961084 
L 313.621959 101.40293 
L 314.932979 99.615557 
L 316.244 100.265345 
L 317.55502 105.865661 
L 318.86604 108.361118 
L 320.177061 102.662657 
L 321.488081 105.393895 
L 322.799101 106.807882 
L 324.110121 104.348343 
L 325.421142 107.97952 
L 326.732162 114.937891 
L 328.043182 104.330023 
L 329.354203 106.408196 
L 330.665223 102.85665 
L 331.976243 105.535354 
L 333.287263 103.278776 
L 334.598284 97.089144 
L 335.909304 106.15503 
L 337.220324 105.058073 
L 338.531344 104.305073 
L 339.842365 104.681366 
L 341.153385 108.158371 
L 342.464405 101.311863 
L 343.775426 107.865839 
L 345.086446 105.556772 
L 346.397466 102.238923 
L 347.708486 100.636526 
L 349.019507 100.405737 
L 350.330527 95.028044 
L 351.641547 91.704869 
L 352.952567 96.695746 
L 354.263588 99.280177 
L 355.574608 97.533143 
L 356.885628 99.513202 
L 358.196649 94.986183 
L 359.507669 102.103173 
L 360.818689 99.649453 
L 362.129709 102.240058 
L 363.44073 100.401964 
L 364.75175 95.965242 
L 366.06277 98.355161 
L 367.37379 101.804437 
L 368.684811 96.298821 
L 369.995831 94.067314 
L 371.306851 100.214259 
L 372.617872 101.774101 
L 373.928892 104.101607 
L 375.239912 100.840796 
L 376.550932 103.581029 
L 379.172973 104.308059 
L 380.483993 111.434871 
L 381.795013 105.248637 
L 383.106034 105.53749 
L 384.417054 100.506095 
L 385.728074 105.256047 
L 387.039095 103.412517 
L 388.350115 105.262853 
L 389.661135 102.323976 
L 390.972155 107.759623 
L 392.283176 107.197994 
L 393.594196 103.551612 
L 394.905216 104.977592 
L 396.216237 106.084961 
L 397.527257 104.870374 
L 398.838277 106.942995 
L 400.149297 108.195089 
L 401.460318 114.108229 
L 402.771338 108.897851 
L 404.082358 108.963891 
L 405.393378 113.489009 
L 406.704399 109.254641 
L 408.015419 109.882802 
L 409.326439 109.012114 
L 410.63746 109.254586 
L 411.94848 108.015717 
L 413.2595 107.425912 
L 414.57052 105.119596 
L 415.881541 104.223945 
L 417.192561 107.627476 
L 418.503581 108.643729 
L 419.814601 109.428694 
L 421.125622 107.062073 
L 422.436642 104.047027 
L 423.747662 106.179685 
L 425.058683 104.177032 
L 427.680723 109.477763 
L 428.991743 111.364481 
L 430.302764 111.018053 
L 431.613784 108.748658 
L 432.924804 113.494009 
L 434.235824 110.434376 
L 435.546845 110.011045 
L 436.857865 104.452083 
L 438.168885 113.468711 
L 439.479906 114.574137 
L 440.790926 114.693946 
L 442.101946 111.795302 
L 443.412966 114.890208 
L 444.723987 114.567252 
L 446.035007 117.299825 
L 447.346027 118.160075 
L 448.657047 117.832739 
L 449.968068 112.628954 
L 451.279088 118.160542 
L 452.590108 115.964832 
L 455.212149 121.532863 
L 456.523169 121.636535 
L 457.834189 122.055407 
L 459.14521 118.633657 
L 460.45623 120.904015 
L 461.76725 117.007934 
L 463.078271 114.719377 
L 464.389291 111.2064 
L 465.700311 112.497062 
L 467.011331 110.85704 
L 468.322352 118.373886 
L 469.633372 117.035093 
L 470.944392 118.317791 
L 472.255412 114.909974 
L 473.566433 110.844973 
L 474.877453 114.510155 
L 476.188473 115.337817 
L 477.499494 114.260707 
L 478.810514 113.418932 
L 480.121534 114.912873 
L 480.121534 114.912873 
" style="fill:none;stroke:#d62728;stroke-linecap:square;stroke-width:1.5;"/>
   </g>
   <g id="patch_8">
    <path d="M 288.778125 152.44 
L 288.778125 7.2 
" style="fill:none;stroke:#000000;stroke-linecap:square;stroke-linejoin:miter;stroke-width:0.8;"/>
   </g>
   <g id="patch_9">
    <path d="M 489.233125 152.44 
L 489.233125 7.2 
" style="fill:none;stroke:#000000;stroke-linecap:square;stroke-linejoin:miter;stroke-width:0.8;"/>
   </g>
   <g id="patch_10">
    <path d="M 288.778125 152.44 
L 489.233125 152.44 
" style="fill:none;stroke:#000000;stroke-linecap:square;stroke-linejoin:miter;stroke-width:0.8;"/>
   </g>
   <g id="patch_11">
    <path d="M 288.778125 7.2 
L 489.233125 7.2 
" style="fill:none;stroke:#000000;stroke-linecap:square;stroke-linejoin:miter;stroke-width:0.8;"/>
   </g>
  </g>
 </g>
 <defs>
  <clipPath id="p7a268ea9aa">
   <rect height="145.24" width="200.455" x="40.603125" y="7.2"/>
  </clipPath>
  <clipPath id="pa2c3dfe8bf">
   <rect height="145.24" width="200.455" x="288.778125" y="7.2"/>
  </clipPath>
 </defs>
</svg>
