<?xml version="1.0" encoding="utf-8" standalone="no"?>
<!DOCTYPE svg PUBLIC "-//W3C//DTD SVG 1.1//EN"
  "http://www.w3.org/Graphics/SVG/1.1/DTD/svg11.dtd">
<!-- Created with matplotlib (https://matplotlib.org/) -->
<svg height="189.99625pt" version="1.1" viewBox="0 0 496.46125 189.99625" width="496.46125pt" xmlns="http://www.w3.org/2000/svg" xmlns:xlink="http://www.w3.org/1999/xlink">
 <metadata>
  <rdf:RDF xmlns:cc="http://creativecommons.org/ns#" xmlns:dc="http://purl.org/dc/elements/1.1/" xmlns:rdf="http://www.w3.org/1999/02/22-rdf-syntax-ns#">
   <cc:Work>
    <dc:type rdf:resource="http://purl.org/dc/dcmitype/StillImage"/>
    <dc:date>2022-08-03T17:32:14.842956</dc:date>
    <dc:format>image/svg+xml</dc:format>
    <dc:creator>
     <cc:Agent>
      <dc:title>Matplotlib v3.3.0, https://matplotlib.org/</dc:title>
     </cc:Agent>
    </dc:creator>
   </cc:Work>
  </rdf:RDF>
 </metadata>
 <defs>
  <style type="text/css">*{stroke-linecap:butt;stroke-linejoin:round;}</style>
 </defs>
 <g id="figure_1">
  <g id="patch_1">
   <path d="M 0 189.99625 
L 496.46125 189.99625 
L 496.46125 0 
L 0 0 
z
" style="fill:#ffffff;"/>
  </g>
  <g id="axes_1">
   <g id="patch_2">
    <path d="M 43.78125 152.44 
L 239.51125 152.44 
L 239.51125 7.2 
L 43.78125 7.2 
z
" style="fill:#ffffff;"/>
   </g>
   <g id="matplotlib.axis_1">
    <g id="xtick_1">
     <g id="line2d_1">
      <defs>
       <path d="M 0 0 
L 0 3.5 
" id="maa8b8de292" style="stroke:#000000;stroke-width:0.8;"/>
      </defs>
      <g>
       <use style="stroke:#000000;stroke-width:0.8;" x="52.678068" xlink:href="#maa8b8de292" y="152.44"/>
      </g>
     </g>
     <g id="text_1">
      <!-- 0 -->
      <g transform="translate(49.496818 167.038437)scale(0.1 -0.1)">
       <defs>
        <path d="M 31.78125 66.40625 
Q 24.171875 66.40625 20.328125 58.90625 
Q 16.5 51.421875 16.5 36.375 
Q 16.5 21.390625 20.328125 13.890625 
Q 24.171875 6.390625 31.78125 6.390625 
Q 39.453125 6.390625 43.28125 13.890625 
Q 47.125 21.390625 47.125 36.375 
Q 47.125 51.421875 43.28125 58.90625 
Q 39.453125 66.40625 31.78125 66.40625 
z
M 31.78125 74.21875 
Q 44.046875 74.21875 50.515625 64.515625 
Q 56.984375 54.828125 56.984375 36.375 
Q 56.984375 17.96875 50.515625 8.265625 
Q 44.046875 -1.421875 31.78125 -1.421875 
Q 19.53125 -1.421875 13.0625 8.265625 
Q 6.59375 17.96875 6.59375 36.375 
Q 6.59375 54.828125 13.0625 64.515625 
Q 19.53125 74.21875 31.78125 74.21875 
z
" id="DejaVuSans-48"/>
       </defs>
       <use xlink:href="#DejaVuSans-48"/>
      </g>
     </g>
    </g>
    <g id="xtick_2">
     <g id="line2d_2">
      <g>
       <use style="stroke:#000000;stroke-width:0.8;" x="116.683954" xlink:href="#maa8b8de292" y="152.44"/>
      </g>
     </g>
     <g id="text_2">
      <!-- 5 -->
      <g transform="translate(113.502704 167.038437)scale(0.1 -0.1)">
       <defs>
        <path d="M 10.796875 72.90625 
L 49.515625 72.90625 
L 49.515625 64.59375 
L 19.828125 64.59375 
L 19.828125 46.734375 
Q 21.96875 47.46875 24.109375 47.828125 
Q 26.265625 48.1875 28.421875 48.1875 
Q 40.625 48.1875 47.75 41.5 
Q 54.890625 34.8125 54.890625 23.390625 
Q 54.890625 11.625 47.5625 5.09375 
Q 40.234375 -1.421875 26.90625 -1.421875 
Q 22.3125 -1.421875 17.546875 -0.640625 
Q 12.796875 0.140625 7.71875 1.703125 
L 7.71875 11.625 
Q 12.109375 9.234375 16.796875 8.0625 
Q 21.484375 6.890625 26.703125 6.890625 
Q 35.15625 6.890625 40.078125 11.328125 
Q 45.015625 15.765625 45.015625 23.390625 
Q 45.015625 31 40.078125 35.4375 
Q 35.15625 39.890625 26.703125 39.890625 
Q 22.75 39.890625 18.8125 39.015625 
Q 14.890625 38.140625 10.796875 36.28125 
z
" id="DejaVuSans-53"/>
       </defs>
       <use xlink:href="#DejaVuSans-53"/>
      </g>
     </g>
    </g>
    <g id="xtick_3">
     <g id="line2d_3">
      <g>
       <use style="stroke:#000000;stroke-width:0.8;" x="180.689841" xlink:href="#maa8b8de292" y="152.44"/>
      </g>
     </g>
     <g id="text_3">
      <!-- 10 -->
      <g transform="translate(174.327341 167.038437)scale(0.1 -0.1)">
       <defs>
        <path d="M 12.40625 8.296875 
L 28.515625 8.296875 
L 28.515625 63.921875 
L 10.984375 60.40625 
L 10.984375 69.390625 
L 28.421875 72.90625 
L 38.28125 72.90625 
L 38.28125 8.296875 
L 54.390625 8.296875 
L 54.390625 0 
L 12.40625 0 
z
" id="DejaVuSans-49"/>
       </defs>
       <use xlink:href="#DejaVuSans-49"/>
       <use x="63.623047" xlink:href="#DejaVuSans-48"/>
      </g>
     </g>
    </g>
    <g id="text_4">
     <!-- Time (s) -->
     <g transform="translate(121.317344 180.716562)scale(0.1 -0.1)">
      <defs>
       <path d="M -0.296875 72.90625 
L 61.375 72.90625 
L 61.375 64.59375 
L 35.5 64.59375 
L 35.5 0 
L 25.59375 0 
L 25.59375 64.59375 
L -0.296875 64.59375 
z
" id="DejaVuSans-84"/>
       <path d="M 9.421875 54.6875 
L 18.40625 54.6875 
L 18.40625 0 
L 9.421875 0 
z
M 9.421875 75.984375 
L 18.40625 75.984375 
L 18.40625 64.59375 
L 9.421875 64.59375 
z
" id="DejaVuSans-105"/>
       <path d="M 52 44.1875 
Q 55.375 50.25 60.0625 53.125 
Q 64.75 56 71.09375 56 
Q 79.640625 56 84.28125 50.015625 
Q 88.921875 44.046875 88.921875 33.015625 
L 88.921875 0 
L 79.890625 0 
L 79.890625 32.71875 
Q 79.890625 40.578125 77.09375 44.375 
Q 74.3125 48.1875 68.609375 48.1875 
Q 61.625 48.1875 57.5625 43.546875 
Q 53.515625 38.921875 53.515625 30.90625 
L 53.515625 0 
L 44.484375 0 
L 44.484375 32.71875 
Q 44.484375 40.625 41.703125 44.40625 
Q 38.921875 48.1875 33.109375 48.1875 
Q 26.21875 48.1875 22.15625 43.53125 
Q 18.109375 38.875 18.109375 30.90625 
L 18.109375 0 
L 9.078125 0 
L 9.078125 54.6875 
L 18.109375 54.6875 
L 18.109375 46.1875 
Q 21.1875 51.21875 25.484375 53.609375 
Q 29.78125 56 35.6875 56 
Q 41.65625 56 45.828125 52.96875 
Q 50 49.953125 52 44.1875 
z
" id="DejaVuSans-109"/>
       <path d="M 56.203125 29.59375 
L 56.203125 25.203125 
L 14.890625 25.203125 
Q 15.484375 15.921875 20.484375 11.0625 
Q 25.484375 6.203125 34.421875 6.203125 
Q 39.59375 6.203125 44.453125 7.46875 
Q 49.3125 8.734375 54.109375 11.28125 
L 54.109375 2.78125 
Q 49.265625 0.734375 44.1875 -0.34375 
Q 39.109375 -1.421875 33.890625 -1.421875 
Q 20.796875 -1.421875 13.15625 6.1875 
Q 5.515625 13.8125 5.515625 26.8125 
Q 5.515625 40.234375 12.765625 48.109375 
Q 20.015625 56 32.328125 56 
Q 43.359375 56 49.78125 48.890625 
Q 56.203125 41.796875 56.203125 29.59375 
z
M 47.21875 32.234375 
Q 47.125 39.59375 43.09375 43.984375 
Q 39.0625 48.390625 32.421875 48.390625 
Q 24.90625 48.390625 20.390625 44.140625 
Q 15.875 39.890625 15.1875 32.171875 
z
" id="DejaVuSans-101"/>
       <path id="DejaVuSans-32"/>
       <path d="M 31 75.875 
Q 24.46875 64.65625 21.28125 53.65625 
Q 18.109375 42.671875 18.109375 31.390625 
Q 18.109375 20.125 21.3125 9.0625 
Q 24.515625 -2 31 -13.1875 
L 23.1875 -13.1875 
Q 15.875 -1.703125 12.234375 9.375 
Q 8.59375 20.453125 8.59375 31.390625 
Q 8.59375 42.28125 12.203125 53.3125 
Q 15.828125 64.359375 23.1875 75.875 
z
" id="DejaVuSans-40"/>
       <path d="M 44.28125 53.078125 
L 44.28125 44.578125 
Q 40.484375 46.53125 36.375 47.5 
Q 32.28125 48.484375 27.875 48.484375 
Q 21.1875 48.484375 17.84375 46.4375 
Q 14.5 44.390625 14.5 40.28125 
Q 14.5 37.15625 16.890625 35.375 
Q 19.28125 33.59375 26.515625 31.984375 
L 29.59375 31.296875 
Q 39.15625 29.25 43.1875 25.515625 
Q 47.21875 21.78125 47.21875 15.09375 
Q 47.21875 7.46875 41.1875 3.015625 
Q 35.15625 -1.421875 24.609375 -1.421875 
Q 20.21875 -1.421875 15.453125 -0.5625 
Q 10.6875 0.296875 5.421875 2 
L 5.421875 11.28125 
Q 10.40625 8.6875 15.234375 7.390625 
Q 20.0625 6.109375 24.8125 6.109375 
Q 31.15625 6.109375 34.5625 8.28125 
Q 37.984375 10.453125 37.984375 14.40625 
Q 37.984375 18.0625 35.515625 20.015625 
Q 33.0625 21.96875 24.703125 23.78125 
L 21.578125 24.515625 
Q 13.234375 26.265625 9.515625 29.90625 
Q 5.8125 33.546875 5.8125 39.890625 
Q 5.8125 47.609375 11.28125 51.796875 
Q 16.75 56 26.8125 56 
Q 31.78125 56 36.171875 55.265625 
Q 40.578125 54.546875 44.28125 53.078125 
z
" id="DejaVuSans-115"/>
       <path d="M 8.015625 75.875 
L 15.828125 75.875 
Q 23.140625 64.359375 26.78125 53.3125 
Q 30.421875 42.28125 30.421875 31.390625 
Q 30.421875 20.453125 26.78125 9.375 
Q 23.140625 -1.703125 15.828125 -13.1875 
L 8.015625 -13.1875 
Q 14.5 -2 17.703125 9.0625 
Q 20.90625 20.125 20.90625 31.390625 
Q 20.90625 42.671875 17.703125 53.65625 
Q 14.5 64.65625 8.015625 75.875 
z
" id="DejaVuSans-41"/>
      </defs>
      <use xlink:href="#DejaVuSans-84"/>
      <use x="57.958984" xlink:href="#DejaVuSans-105"/>
      <use x="85.742188" xlink:href="#DejaVuSans-109"/>
      <use x="183.154297" xlink:href="#DejaVuSans-101"/>
      <use x="244.677734" xlink:href="#DejaVuSans-32"/>
      <use x="276.464844" xlink:href="#DejaVuSans-40"/>
      <use x="315.478516" xlink:href="#DejaVuSans-115"/>
      <use x="367.578125" xlink:href="#DejaVuSans-41"/>
     </g>
    </g>
   </g>
   <g id="matplotlib.axis_2">
    <g id="ytick_1">
     <g id="line2d_4">
      <defs>
       <path d="M 0 0 
L -3.5 0 
" id="m701c2e1247" style="stroke:#000000;stroke-width:0.8;"/>
      </defs>
      <g>
       <use style="stroke:#000000;stroke-width:0.8;" x="43.78125" xlink:href="#m701c2e1247" y="145.838182"/>
      </g>
     </g>
     <g id="text_5">
      <!-- 0.0 -->
      <g transform="translate(20.878125 149.637401)scale(0.1 -0.1)">
       <defs>
        <path d="M 10.6875 12.40625 
L 21 12.40625 
L 21 0 
L 10.6875 0 
z
" id="DejaVuSans-46"/>
       </defs>
       <use xlink:href="#DejaVuSans-48"/>
       <use x="63.623047" xlink:href="#DejaVuSans-46"/>
       <use x="95.410156" xlink:href="#DejaVuSans-48"/>
      </g>
     </g>
    </g>
    <g id="ytick_2">
     <g id="line2d_5">
      <g>
       <use style="stroke:#000000;stroke-width:0.8;" x="43.78125" xlink:href="#m701c2e1247" y="119.430909"/>
      </g>
     </g>
     <g id="text_6">
      <!-- 0.2 -->
      <g transform="translate(20.878125 123.230128)scale(0.1 -0.1)">
       <defs>
        <path d="M 19.1875 8.296875 
L 53.609375 8.296875 
L 53.609375 0 
L 7.328125 0 
L 7.328125 8.296875 
Q 12.9375 14.109375 22.625 23.890625 
Q 32.328125 33.6875 34.8125 36.53125 
Q 39.546875 41.84375 41.421875 45.53125 
Q 43.3125 49.21875 43.3125 52.78125 
Q 43.3125 58.59375 39.234375 62.25 
Q 35.15625 65.921875 28.609375 65.921875 
Q 23.96875 65.921875 18.8125 64.3125 
Q 13.671875 62.703125 7.8125 59.421875 
L 7.8125 69.390625 
Q 13.765625 71.78125 18.9375 73 
Q 24.125 74.21875 28.421875 74.21875 
Q 39.75 74.21875 46.484375 68.546875 
Q 53.21875 62.890625 53.21875 53.421875 
Q 53.21875 48.921875 51.53125 44.890625 
Q 49.859375 40.875 45.40625 35.40625 
Q 44.1875 33.984375 37.640625 27.21875 
Q 31.109375 20.453125 19.1875 8.296875 
z
" id="DejaVuSans-50"/>
       </defs>
       <use xlink:href="#DejaVuSans-48"/>
       <use x="63.623047" xlink:href="#DejaVuSans-46"/>
       <use x="95.410156" xlink:href="#DejaVuSans-50"/>
      </g>
     </g>
    </g>
    <g id="ytick_3">
     <g id="line2d_6">
      <g>
       <use style="stroke:#000000;stroke-width:0.8;" x="43.78125" xlink:href="#m701c2e1247" y="93.023636"/>
      </g>
     </g>
     <g id="text_7">
      <!-- 0.4 -->
      <g transform="translate(20.878125 96.822855)scale(0.1 -0.1)">
       <defs>
        <path d="M 37.796875 64.3125 
L 12.890625 25.390625 
L 37.796875 25.390625 
z
M 35.203125 72.90625 
L 47.609375 72.90625 
L 47.609375 25.390625 
L 58.015625 25.390625 
L 58.015625 17.1875 
L 47.609375 17.1875 
L 47.609375 0 
L 37.796875 0 
L 37.796875 17.1875 
L 4.890625 17.1875 
L 4.890625 26.703125 
z
" id="DejaVuSans-52"/>
       </defs>
       <use xlink:href="#DejaVuSans-48"/>
       <use x="63.623047" xlink:href="#DejaVuSans-46"/>
       <use x="95.410156" xlink:href="#DejaVuSans-52"/>
      </g>
     </g>
    </g>
    <g id="ytick_4">
     <g id="line2d_7">
      <g>
       <use style="stroke:#000000;stroke-width:0.8;" x="43.78125" xlink:href="#m701c2e1247" y="66.616364"/>
      </g>
     </g>
     <g id="text_8">
      <!-- 0.6 -->
      <g transform="translate(20.878125 70.415582)scale(0.1 -0.1)">
       <defs>
        <path d="M 33.015625 40.375 
Q 26.375 40.375 22.484375 35.828125 
Q 18.609375 31.296875 18.609375 23.390625 
Q 18.609375 15.53125 22.484375 10.953125 
Q 26.375 6.390625 33.015625 6.390625 
Q 39.65625 6.390625 43.53125 10.953125 
Q 47.40625 15.53125 47.40625 23.390625 
Q 47.40625 31.296875 43.53125 35.828125 
Q 39.65625 40.375 33.015625 40.375 
z
M 52.59375 71.296875 
L 52.59375 62.3125 
Q 48.875 64.0625 45.09375 64.984375 
Q 41.3125 65.921875 37.59375 65.921875 
Q 27.828125 65.921875 22.671875 59.328125 
Q 17.53125 52.734375 16.796875 39.40625 
Q 19.671875 43.65625 24.015625 45.921875 
Q 28.375 48.1875 33.59375 48.1875 
Q 44.578125 48.1875 50.953125 41.515625 
Q 57.328125 34.859375 57.328125 23.390625 
Q 57.328125 12.15625 50.6875 5.359375 
Q 44.046875 -1.421875 33.015625 -1.421875 
Q 20.359375 -1.421875 13.671875 8.265625 
Q 6.984375 17.96875 6.984375 36.375 
Q 6.984375 53.65625 15.1875 63.9375 
Q 23.390625 74.21875 37.203125 74.21875 
Q 40.921875 74.21875 44.703125 73.484375 
Q 48.484375 72.75 52.59375 71.296875 
z
" id="DejaVuSans-54"/>
       </defs>
       <use xlink:href="#DejaVuSans-48"/>
       <use x="63.623047" xlink:href="#DejaVuSans-46"/>
       <use x="95.410156" xlink:href="#DejaVuSans-54"/>
      </g>
     </g>
    </g>
    <g id="ytick_5">
     <g id="line2d_8">
      <g>
       <use style="stroke:#000000;stroke-width:0.8;" x="43.78125" xlink:href="#m701c2e1247" y="40.209091"/>
      </g>
     </g>
     <g id="text_9">
      <!-- 0.8 -->
      <g transform="translate(20.878125 44.00831)scale(0.1 -0.1)">
       <defs>
        <path d="M 31.78125 34.625 
Q 24.75 34.625 20.71875 30.859375 
Q 16.703125 27.09375 16.703125 20.515625 
Q 16.703125 13.921875 20.71875 10.15625 
Q 24.75 6.390625 31.78125 6.390625 
Q 38.8125 6.390625 42.859375 10.171875 
Q 46.921875 13.96875 46.921875 20.515625 
Q 46.921875 27.09375 42.890625 30.859375 
Q 38.875 34.625 31.78125 34.625 
z
M 21.921875 38.8125 
Q 15.578125 40.375 12.03125 44.71875 
Q 8.5 49.078125 8.5 55.328125 
Q 8.5 64.0625 14.71875 69.140625 
Q 20.953125 74.21875 31.78125 74.21875 
Q 42.671875 74.21875 48.875 69.140625 
Q 55.078125 64.0625 55.078125 55.328125 
Q 55.078125 49.078125 51.53125 44.71875 
Q 48 40.375 41.703125 38.8125 
Q 48.828125 37.15625 52.796875 32.3125 
Q 56.78125 27.484375 56.78125 20.515625 
Q 56.78125 9.90625 50.3125 4.234375 
Q 43.84375 -1.421875 31.78125 -1.421875 
Q 19.734375 -1.421875 13.25 4.234375 
Q 6.78125 9.90625 6.78125 20.515625 
Q 6.78125 27.484375 10.78125 32.3125 
Q 14.796875 37.15625 21.921875 38.8125 
z
M 18.3125 54.390625 
Q 18.3125 48.734375 21.84375 45.5625 
Q 25.390625 42.390625 31.78125 42.390625 
Q 38.140625 42.390625 41.71875 45.5625 
Q 45.3125 48.734375 45.3125 54.390625 
Q 45.3125 60.0625 41.71875 63.234375 
Q 38.140625 66.40625 31.78125 66.40625 
Q 25.390625 66.40625 21.84375 63.234375 
Q 18.3125 60.0625 18.3125 54.390625 
z
" id="DejaVuSans-56"/>
       </defs>
       <use xlink:href="#DejaVuSans-48"/>
       <use x="63.623047" xlink:href="#DejaVuSans-46"/>
       <use x="95.410156" xlink:href="#DejaVuSans-56"/>
      </g>
     </g>
    </g>
    <g id="ytick_6">
     <g id="line2d_9">
      <g>
       <use style="stroke:#000000;stroke-width:0.8;" x="43.78125" xlink:href="#m701c2e1247" y="13.801818"/>
      </g>
     </g>
     <g id="text_10">
      <!-- 1.0 -->
      <g transform="translate(20.878125 17.601037)scale(0.1 -0.1)">
       <use xlink:href="#DejaVuSans-49"/>
       <use x="63.623047" xlink:href="#DejaVuSans-46"/>
       <use x="95.410156" xlink:href="#DejaVuSans-48"/>
      </g>
     </g>
    </g>
    <g id="text_11">
     <!-- Throttle/Brake (Clipped) -->
     <g transform="translate(14.798438 139.815312)rotate(-90)scale(0.1 -0.1)">
      <defs>
       <path d="M 54.890625 33.015625 
L 54.890625 0 
L 45.90625 0 
L 45.90625 32.71875 
Q 45.90625 40.484375 42.875 44.328125 
Q 39.84375 48.1875 33.796875 48.1875 
Q 26.515625 48.1875 22.3125 43.546875 
Q 18.109375 38.921875 18.109375 30.90625 
L 18.109375 0 
L 9.078125 0 
L 9.078125 75.984375 
L 18.109375 75.984375 
L 18.109375 46.1875 
Q 21.34375 51.125 25.703125 53.5625 
Q 30.078125 56 35.796875 56 
Q 45.21875 56 50.046875 50.171875 
Q 54.890625 44.34375 54.890625 33.015625 
z
" id="DejaVuSans-104"/>
       <path d="M 41.109375 46.296875 
Q 39.59375 47.171875 37.8125 47.578125 
Q 36.03125 48 33.890625 48 
Q 26.265625 48 22.1875 43.046875 
Q 18.109375 38.09375 18.109375 28.8125 
L 18.109375 0 
L 9.078125 0 
L 9.078125 54.6875 
L 18.109375 54.6875 
L 18.109375 46.1875 
Q 20.953125 51.171875 25.484375 53.578125 
Q 30.03125 56 36.53125 56 
Q 37.453125 56 38.578125 55.875 
Q 39.703125 55.765625 41.0625 55.515625 
z
" id="DejaVuSans-114"/>
       <path d="M 30.609375 48.390625 
Q 23.390625 48.390625 19.1875 42.75 
Q 14.984375 37.109375 14.984375 27.296875 
Q 14.984375 17.484375 19.15625 11.84375 
Q 23.34375 6.203125 30.609375 6.203125 
Q 37.796875 6.203125 41.984375 11.859375 
Q 46.1875 17.53125 46.1875 27.296875 
Q 46.1875 37.015625 41.984375 42.703125 
Q 37.796875 48.390625 30.609375 48.390625 
z
M 30.609375 56 
Q 42.328125 56 49.015625 48.375 
Q 55.71875 40.765625 55.71875 27.296875 
Q 55.71875 13.875 49.015625 6.21875 
Q 42.328125 -1.421875 30.609375 -1.421875 
Q 18.84375 -1.421875 12.171875 6.21875 
Q 5.515625 13.875 5.515625 27.296875 
Q 5.515625 40.765625 12.171875 48.375 
Q 18.84375 56 30.609375 56 
z
" id="DejaVuSans-111"/>
       <path d="M 18.3125 70.21875 
L 18.3125 54.6875 
L 36.8125 54.6875 
L 36.8125 47.703125 
L 18.3125 47.703125 
L 18.3125 18.015625 
Q 18.3125 11.328125 20.140625 9.421875 
Q 21.96875 7.515625 27.59375 7.515625 
L 36.8125 7.515625 
L 36.8125 0 
L 27.59375 0 
Q 17.1875 0 13.234375 3.875 
Q 9.28125 7.765625 9.28125 18.015625 
L 9.28125 47.703125 
L 2.6875 47.703125 
L 2.6875 54.6875 
L 9.28125 54.6875 
L 9.28125 70.21875 
z
" id="DejaVuSans-116"/>
       <path d="M 9.421875 75.984375 
L 18.40625 75.984375 
L 18.40625 0 
L 9.421875 0 
z
" id="DejaVuSans-108"/>
       <path d="M 25.390625 72.90625 
L 33.6875 72.90625 
L 8.296875 -9.28125 
L 0 -9.28125 
z
" id="DejaVuSans-47"/>
       <path d="M 19.671875 34.8125 
L 19.671875 8.109375 
L 35.5 8.109375 
Q 43.453125 8.109375 47.28125 11.40625 
Q 51.125 14.703125 51.125 21.484375 
Q 51.125 28.328125 47.28125 31.5625 
Q 43.453125 34.8125 35.5 34.8125 
z
M 19.671875 64.796875 
L 19.671875 42.828125 
L 34.28125 42.828125 
Q 41.5 42.828125 45.03125 45.53125 
Q 48.578125 48.25 48.578125 53.8125 
Q 48.578125 59.328125 45.03125 62.0625 
Q 41.5 64.796875 34.28125 64.796875 
z
M 9.8125 72.90625 
L 35.015625 72.90625 
Q 46.296875 72.90625 52.390625 68.21875 
Q 58.5 63.53125 58.5 54.890625 
Q 58.5 48.1875 55.375 44.234375 
Q 52.25 40.28125 46.1875 39.3125 
Q 53.46875 37.75 57.5 32.78125 
Q 61.53125 27.828125 61.53125 20.40625 
Q 61.53125 10.640625 54.890625 5.3125 
Q 48.25 0 35.984375 0 
L 9.8125 0 
z
" id="DejaVuSans-66"/>
       <path d="M 34.28125 27.484375 
Q 23.390625 27.484375 19.1875 25 
Q 14.984375 22.515625 14.984375 16.5 
Q 14.984375 11.71875 18.140625 8.90625 
Q 21.296875 6.109375 26.703125 6.109375 
Q 34.1875 6.109375 38.703125 11.40625 
Q 43.21875 16.703125 43.21875 25.484375 
L 43.21875 27.484375 
z
M 52.203125 31.203125 
L 52.203125 0 
L 43.21875 0 
L 43.21875 8.296875 
Q 40.140625 3.328125 35.546875 0.953125 
Q 30.953125 -1.421875 24.3125 -1.421875 
Q 15.921875 -1.421875 10.953125 3.296875 
Q 6 8.015625 6 15.921875 
Q 6 25.140625 12.171875 29.828125 
Q 18.359375 34.515625 30.609375 34.515625 
L 43.21875 34.515625 
L 43.21875 35.40625 
Q 43.21875 41.609375 39.140625 45 
Q 35.0625 48.390625 27.6875 48.390625 
Q 23 48.390625 18.546875 47.265625 
Q 14.109375 46.140625 10.015625 43.890625 
L 10.015625 52.203125 
Q 14.9375 54.109375 19.578125 55.046875 
Q 24.21875 56 28.609375 56 
Q 40.484375 56 46.34375 49.84375 
Q 52.203125 43.703125 52.203125 31.203125 
z
" id="DejaVuSans-97"/>
       <path d="M 9.078125 75.984375 
L 18.109375 75.984375 
L 18.109375 31.109375 
L 44.921875 54.6875 
L 56.390625 54.6875 
L 27.390625 29.109375 
L 57.625 0 
L 45.90625 0 
L 18.109375 26.703125 
L 18.109375 0 
L 9.078125 0 
z
" id="DejaVuSans-107"/>
       <path d="M 64.40625 67.28125 
L 64.40625 56.890625 
Q 59.421875 61.53125 53.78125 63.8125 
Q 48.140625 66.109375 41.796875 66.109375 
Q 29.296875 66.109375 22.65625 58.46875 
Q 16.015625 50.828125 16.015625 36.375 
Q 16.015625 21.96875 22.65625 14.328125 
Q 29.296875 6.6875 41.796875 6.6875 
Q 48.140625 6.6875 53.78125 8.984375 
Q 59.421875 11.28125 64.40625 15.921875 
L 64.40625 5.609375 
Q 59.234375 2.09375 53.4375 0.328125 
Q 47.65625 -1.421875 41.21875 -1.421875 
Q 24.65625 -1.421875 15.125 8.703125 
Q 5.609375 18.84375 5.609375 36.375 
Q 5.609375 53.953125 15.125 64.078125 
Q 24.65625 74.21875 41.21875 74.21875 
Q 47.75 74.21875 53.53125 72.484375 
Q 59.328125 70.75 64.40625 67.28125 
z
" id="DejaVuSans-67"/>
       <path d="M 18.109375 8.203125 
L 18.109375 -20.796875 
L 9.078125 -20.796875 
L 9.078125 54.6875 
L 18.109375 54.6875 
L 18.109375 46.390625 
Q 20.953125 51.265625 25.265625 53.625 
Q 29.59375 56 35.59375 56 
Q 45.5625 56 51.78125 48.09375 
Q 58.015625 40.1875 58.015625 27.296875 
Q 58.015625 14.40625 51.78125 6.484375 
Q 45.5625 -1.421875 35.59375 -1.421875 
Q 29.59375 -1.421875 25.265625 0.953125 
Q 20.953125 3.328125 18.109375 8.203125 
z
M 48.6875 27.296875 
Q 48.6875 37.203125 44.609375 42.84375 
Q 40.53125 48.484375 33.40625 48.484375 
Q 26.265625 48.484375 22.1875 42.84375 
Q 18.109375 37.203125 18.109375 27.296875 
Q 18.109375 17.390625 22.1875 11.75 
Q 26.265625 6.109375 33.40625 6.109375 
Q 40.53125 6.109375 44.609375 11.75 
Q 48.6875 17.390625 48.6875 27.296875 
z
" id="DejaVuSans-112"/>
       <path d="M 45.40625 46.390625 
L 45.40625 75.984375 
L 54.390625 75.984375 
L 54.390625 0 
L 45.40625 0 
L 45.40625 8.203125 
Q 42.578125 3.328125 38.25 0.953125 
Q 33.9375 -1.421875 27.875 -1.421875 
Q 17.96875 -1.421875 11.734375 6.484375 
Q 5.515625 14.40625 5.515625 27.296875 
Q 5.515625 40.1875 11.734375 48.09375 
Q 17.96875 56 27.875 56 
Q 33.9375 56 38.25 53.625 
Q 42.578125 51.265625 45.40625 46.390625 
z
M 14.796875 27.296875 
Q 14.796875 17.390625 18.875 11.75 
Q 22.953125 6.109375 30.078125 6.109375 
Q 37.203125 6.109375 41.296875 11.75 
Q 45.40625 17.390625 45.40625 27.296875 
Q 45.40625 37.203125 41.296875 42.84375 
Q 37.203125 48.484375 30.078125 48.484375 
Q 22.953125 48.484375 18.875 42.84375 
Q 14.796875 37.203125 14.796875 27.296875 
z
" id="DejaVuSans-100"/>
      </defs>
      <use xlink:href="#DejaVuSans-84"/>
      <use x="61.083984" xlink:href="#DejaVuSans-104"/>
      <use x="124.462891" xlink:href="#DejaVuSans-114"/>
      <use x="163.326172" xlink:href="#DejaVuSans-111"/>
      <use x="224.507812" xlink:href="#DejaVuSans-116"/>
      <use x="263.716797" xlink:href="#DejaVuSans-116"/>
      <use x="302.925781" xlink:href="#DejaVuSans-108"/>
      <use x="330.708984" xlink:href="#DejaVuSans-101"/>
      <use x="392.232422" xlink:href="#DejaVuSans-47"/>
      <use x="425.923828" xlink:href="#DejaVuSans-66"/>
      <use x="494.527344" xlink:href="#DejaVuSans-114"/>
      <use x="535.640625" xlink:href="#DejaVuSans-97"/>
      <use x="596.919922" xlink:href="#DejaVuSans-107"/>
      <use x="651.205078" xlink:href="#DejaVuSans-101"/>
      <use x="712.728516" xlink:href="#DejaVuSans-32"/>
      <use x="744.515625" xlink:href="#DejaVuSans-40"/>
      <use x="783.529297" xlink:href="#DejaVuSans-67"/>
      <use x="853.353516" xlink:href="#DejaVuSans-108"/>
      <use x="881.136719" xlink:href="#DejaVuSans-105"/>
      <use x="908.919922" xlink:href="#DejaVuSans-112"/>
      <use x="972.396484" xlink:href="#DejaVuSans-112"/>
      <use x="1035.873047" xlink:href="#DejaVuSans-101"/>
      <use x="1097.396484" xlink:href="#DejaVuSans-100"/>
      <use x="1160.873047" xlink:href="#DejaVuSans-41"/>
     </g>
    </g>
   </g>
   <g id="line2d_10">
    <path clip-path="url(#p9d43c2ea38)" d="M 52.678068 145.838182 
L 230.614432 145.838182 
L 230.614432 145.838182 
" style="fill:none;stroke:#000000;stroke-linecap:square;stroke-width:0.5;"/>
   </g>
   <g id="line2d_11">
    <path clip-path="url(#p9d43c2ea38)" d="M 52.678068 13.801818 
L 230.614432 13.801818 
L 230.614432 13.801818 
" style="fill:none;stroke:#000000;stroke-linecap:square;stroke-width:0.5;"/>
   </g>
   <g id="line2d_12">
    <path clip-path="url(#p9d43c2ea38)" d="M 52.678068 22.963757 
L 53.958186 24.077667 
L 55.238304 24.284216 
L 56.518421 23.591574 
L 57.798539 23.875742 
L 59.078657 25.466556 
L 60.358775 23.548522 
L 61.638892 23.151029 
L 62.91901 22.39492 
L 64.199128 23.44104 
L 65.479245 23.010189 
L 66.759363 21.562788 
L 68.039481 23.850132 
L 69.319599 23.147867 
L 70.599716 22.289535 
L 71.879834 23.437307 
L 73.159952 22.624073 
L 74.440069 21.563745 
L 77.000305 20.526155 
L 78.280423 21.838812 
L 80.840658 21.937508 
L 82.120776 20.97203 
L 83.400894 21.610544 
L 84.681011 21.493331 
L 85.961129 21.125433 
L 87.241247 19.514085 
L 88.521364 20.948198 
L 89.801482 20.165756 
L 91.0816 20.702277 
L 92.361718 20.888513 
L 93.641835 20.641921 
L 94.921953 20.881012 
L 96.202071 20.408594 
L 97.482189 20.970781 
L 98.762306 22.290901 
L 100.042424 21.025673 
L 101.322542 22.181079 
L 102.602659 22.080769 
L 103.882777 22.463955 
L 105.162895 22.23797 
L 106.443013 22.2225 
L 107.72313 20.658702 
L 109.003248 21.13672 
L 110.283366 21.022169 
L 111.563483 21.9001 
L 112.843601 20.589093 
L 114.123719 21.627298 
L 115.403837 20.334136 
L 117.964072 21.371624 
L 119.24419 21.663755 
L 120.524308 21.128971 
L 121.804425 21.624356 
L 123.084543 20.332935 
L 124.364661 20.87352 
L 125.644778 22.941817 
L 126.924896 23.318318 
L 128.205014 22.290009 
L 129.485132 22.019514 
L 130.765249 22.41649 
L 132.045367 21.920002 
L 134.605603 21.697027 
L 135.88572 22.908195 
L 137.165838 22.787632 
L 138.445956 23.327546 
L 139.726073 21.668163 
L 141.006191 22.032508 
L 142.286309 21.621912 
L 143.566427 23.361162 
L 146.126662 23.342196 
L 147.40678 23.340882 
L 148.686897 21.365151 
L 149.967015 22.091226 
L 151.247133 21.826703 
L 153.807368 23.115994 
L 155.087486 22.906346 
L 156.367604 22.379568 
L 157.647722 20.259793 
L 158.927839 21.898219 
L 160.207957 23.023731 
L 161.488075 23.448672 
L 162.768192 22.265356 
L 164.04831 21.762812 
L 165.328428 21.648441 
L 166.608546 22.793027 
L 167.888663 21.513309 
L 169.168781 23.71369 
L 170.448899 22.275012 
L 171.729017 22.158459 
L 173.009134 22.29336 
L 174.289252 23.527261 
L 175.56937 22.442468 
L 176.849487 23.063519 
L 178.129605 22.880389 
L 179.409723 21.999337 
L 180.689841 23.176236 
L 181.969958 23.420246 
L 183.250076 23.961967 
L 184.530194 21.437789 
L 185.810311 23.059168 
L 187.090429 23.709839 
L 188.370547 22.359877 
L 189.650665 23.713126 
L 190.930782 24.640821 
L 192.2109 24.284363 
L 193.491018 23.308332 
L 194.771136 24.09213 
L 196.051253 23.382123 
L 198.611489 22.87907 
L 199.891606 21.268082 
L 201.171724 22.347953 
L 202.451842 22.859251 
L 203.73196 22.881799 
L 205.012077 23.195294 
L 206.292195 23.630481 
L 207.572313 22.652225 
L 208.852431 22.381502 
L 210.132548 21.186751 
L 211.412666 23.4677 
L 212.692784 22.427063 
L 213.972901 22.73684 
L 215.253019 23.620984 
L 216.533137 25.259441 
L 217.813255 23.763213 
L 219.093372 25.144373 
L 220.37349 24.096965 
L 221.653608 25.579711 
L 222.933725 24.409227 
L 225.493961 23.04239 
L 226.774079 24.400578 
L 228.054196 23.871241 
L 229.334314 23.77351 
L 230.614432 24.714344 
L 230.614432 24.714344 
" style="fill:none;stroke:#1f77b4;stroke-linecap:square;stroke-width:1.5;"/>
   </g>
   <g id="line2d_13">
    <path clip-path="url(#p9d43c2ea38)" d="M 52.678068 145.838182 
L 230.614432 145.838182 
L 230.614432 145.838182 
" style="fill:none;stroke:#000000;stroke-linecap:square;stroke-width:0.5;"/>
   </g>
   <g id="line2d_14">
    <path clip-path="url(#p9d43c2ea38)" d="M 52.678068 13.801818 
L 230.614432 13.801818 
L 230.614432 13.801818 
" style="fill:none;stroke:#000000;stroke-linecap:square;stroke-width:0.5;"/>
   </g>
   <g id="line2d_15">
    <path clip-path="url(#p9d43c2ea38)" d="M 52.678068 33.28915 
L 53.958186 36.638057 
L 55.238304 33.599874 
L 56.518421 32.706951 
L 57.798539 35.325765 
L 59.078657 29.546589 
L 61.638892 25.257416 
L 62.91901 27.533248 
L 64.199128 26.262725 
L 65.479245 26.411978 
L 66.759363 26.824696 
L 68.039481 27.005729 
L 69.319599 29.215028 
L 70.599716 28.813438 
L 73.159952 24.677006 
L 74.440069 25.329411 
L 75.720187 21.634223 
L 77.000305 22.565876 
L 78.280423 23.106175 
L 79.56054 25.657098 
L 80.840658 23.617579 
L 82.120776 23.62759 
L 83.400894 22.790297 
L 84.681011 23.926261 
L 85.961129 23.455451 
L 87.241247 24.429656 
L 88.521364 24.233647 
L 89.801482 22.912417 
L 91.0816 21.858293 
L 92.361718 22.504936 
L 93.641835 24.084466 
L 94.921953 23.707759 
L 96.202071 23.836761 
L 97.482189 22.780264 
L 98.762306 23.77181 
L 100.042424 23.467973 
L 101.322542 23.534219 
L 102.602659 22.558181 
L 103.882777 22.548638 
L 105.162895 21.785173 
L 106.443013 21.700707 
L 107.72313 21.369878 
L 109.003248 21.568583 
L 110.283366 20.482533 
L 111.563483 20.981461 
L 112.843601 20.257574 
L 114.123719 21.205023 
L 116.683954 21.532003 
L 117.964072 23.305811 
L 119.24419 22.292242 
L 120.524308 22.131193 
L 121.804425 20.167222 
L 124.364661 19.951642 
L 125.644778 23.186318 
L 126.924896 22.072917 
L 128.205014 21.531776 
L 129.485132 22.210813 
L 130.765249 22.475562 
L 132.045367 21.827982 
L 133.325485 21.574437 
L 134.605603 22.489297 
L 135.88572 20.482696 
L 138.445956 22.367109 
L 139.726073 22.459478 
L 141.006191 21.2468 
L 142.286309 20.396252 
L 143.566427 23.366643 
L 144.846544 21.713446 
L 146.126662 21.263203 
L 147.40678 21.997474 
L 148.686897 22.100929 
L 149.967015 23.638723 
L 152.527251 23.295265 
L 153.807368 21.803819 
L 155.087486 22.299834 
L 156.367604 21.736524 
L 157.647722 21.665903 
L 158.927839 22.097714 
L 160.207957 22.045984 
L 161.488075 21.819661 
L 162.768192 21.367954 
L 164.04831 22.505701 
L 165.328428 20.815027 
L 166.608546 22.432223 
L 167.888663 22.371831 
L 169.168781 21.09006 
L 170.448899 21.83061 
L 171.729017 21.089329 
L 173.009134 22.754437 
L 174.289252 20.643145 
L 175.56937 21.466653 
L 176.849487 21.673836 
L 178.129605 22.609692 
L 179.409723 22.033879 
L 180.689841 21.827255 
L 181.969958 22.586328 
L 183.250076 21.283832 
L 184.530194 22.743917 
L 185.810311 22.429545 
L 187.090429 20.878235 
L 188.370547 22.380581 
L 189.650665 21.470579 
L 190.930782 20.911375 
L 192.2109 21.462669 
L 193.491018 20.350008 
L 194.771136 22.872517 
L 196.051253 22.165499 
L 197.331371 22.925133 
L 199.891606 20.220809 
L 201.171724 21.567659 
L 202.451842 20.707291 
L 203.73196 20.867506 
L 205.012077 19.824977 
L 206.292195 21.256236 
L 207.572313 19.217519 
L 208.852431 19.993817 
L 210.132548 21.272426 
L 211.412666 20.831374 
L 212.692784 21.021028 
L 213.972901 20.551101 
L 215.253019 22.655978 
L 216.533137 20.992583 
L 217.813255 20.806615 
L 219.093372 21.402315 
L 220.37349 20.664815 
L 221.653608 20.900077 
L 222.933725 20.725114 
L 224.213843 20.322221 
L 225.493961 19.773164 
L 226.774079 20.05866 
L 228.054196 20.777299 
L 229.334314 21.058951 
L 230.614432 20.385426 
L 230.614432 20.385426 
" style="fill:none;stroke:#ff7f0e;stroke-linecap:square;stroke-width:1.5;"/>
   </g>
   <g id="line2d_16">
    <path clip-path="url(#p9d43c2ea38)" d="M 52.678068 145.838182 
L 230.614432 145.838182 
L 230.614432 145.838182 
" style="fill:none;stroke:#000000;stroke-linecap:square;stroke-width:0.5;"/>
   </g>
   <g id="line2d_17">
    <path clip-path="url(#p9d43c2ea38)" d="M 52.678068 13.801818 
L 230.614432 13.801818 
L 230.614432 13.801818 
" style="fill:none;stroke:#000000;stroke-linecap:square;stroke-width:0.5;"/>
   </g>
   <g id="line2d_18">
    <path clip-path="url(#p9d43c2ea38)" d="M 52.678068 50.377552 
L 53.958186 51.639014 
L 55.238304 60.722965 
L 56.518421 44.938478 
L 59.078657 34.732182 
L 60.358775 29.625018 
L 61.638892 30.309889 
L 62.91901 31.938704 
L 64.199128 30.754583 
L 65.479245 32.058385 
L 66.759363 28.64909 
L 68.039481 28.862574 
L 69.319599 28.789209 
L 70.599716 30.486338 
L 71.879834 28.572217 
L 73.159952 27.911156 
L 74.440069 28.386201 
L 75.720187 28.483283 
L 77.000305 29.32645 
L 78.280423 29.583193 
L 79.56054 29.670298 
L 80.840658 28.527179 
L 82.120776 29.190092 
L 83.400894 27.0058 
L 84.681011 28.688388 
L 85.961129 28.751753 
L 87.241247 26.781335 
L 88.521364 25.969676 
L 89.801482 28.785739 
L 91.0816 27.285857 
L 92.361718 28.859392 
L 93.641835 27.964915 
L 94.921953 27.411031 
L 96.202071 27.915938 
L 97.482189 28.728805 
L 98.762306 26.020075 
L 100.042424 26.615447 
L 101.322542 25.146521 
L 102.602659 25.823775 
L 103.882777 26.350271 
L 105.162895 25.884118 
L 106.443013 26.176772 
L 107.72313 26.302588 
L 110.283366 25.43294 
L 111.563483 25.525683 
L 112.843601 24.27286 
L 114.123719 23.962509 
L 115.403837 23.971252 
L 116.683954 22.477957 
L 117.964072 21.50439 
L 119.24419 21.378857 
L 120.524308 22.639221 
L 121.804425 21.441016 
L 123.084543 21.630357 
L 124.364661 23.068052 
L 125.644778 23.30167 
L 126.924896 24.158077 
L 128.205014 23.397687 
L 129.485132 24.215026 
L 130.765249 24.724403 
L 132.045367 23.807903 
L 133.325485 24.365729 
L 135.88572 23.88337 
L 137.165838 24.065206 
L 138.445956 24.061867 
L 139.726073 23.376987 
L 141.006191 23.996383 
L 142.286309 26.064655 
L 143.566427 24.294862 
L 144.846544 23.61349 
L 146.126662 24.671139 
L 147.40678 23.979483 
L 148.686897 25.193649 
L 149.967015 23.148294 
L 151.247133 23.311561 
L 152.527251 23.901319 
L 153.807368 24.215775 
L 155.087486 25.300106 
L 156.367604 24.832083 
L 157.647722 25.825958 
L 158.927839 25.943029 
L 160.207957 25.187209 
L 161.488075 25.232664 
L 162.768192 24.295768 
L 164.04831 24.778598 
L 165.328428 24.070343 
L 166.608546 25.509852 
L 167.888663 25.119495 
L 170.448899 24.78941 
L 171.729017 25.825859 
L 173.009134 22.366104 
L 174.289252 23.337109 
L 175.56937 23.902929 
L 176.849487 24.258103 
L 178.129605 24.242421 
L 179.409723 25.574065 
L 180.689841 24.176298 
L 181.969958 22.159374 
L 183.250076 22.959754 
L 184.530194 22.97928 
L 185.810311 24.136368 
L 187.090429 22.72667 
L 188.370547 23.739978 
L 189.650665 23.399337 
L 190.930782 22.601687 
L 192.2109 23.018563 
L 193.491018 23.661842 
L 194.771136 23.349699 
L 196.051253 24.417827 
L 197.331371 24.431497 
L 198.611489 24.164242 
L 199.891606 24.72966 
L 201.171724 22.404871 
L 202.451842 22.267232 
L 203.73196 24.181567 
L 205.012077 24.966479 
L 206.292195 23.849897 
L 207.572313 23.714755 
L 208.852431 22.923953 
L 210.132548 23.091417 
L 211.412666 24.436773 
L 212.692784 23.398547 
L 213.972901 23.763315 
L 215.253019 23.698773 
L 216.533137 24.069809 
L 217.813255 24.612826 
L 219.093372 24.777799 
L 220.37349 25.424518 
L 224.213843 24.002135 
L 225.493961 23.5487 
L 226.774079 24.219059 
L 228.054196 23.888061 
L 229.334314 24.349719 
L 230.614432 24.466174 
L 230.614432 24.466174 
" style="fill:none;stroke:#2ca02c;stroke-linecap:square;stroke-width:1.5;"/>
   </g>
   <g id="line2d_19">
    <path clip-path="url(#p9d43c2ea38)" d="M 52.678068 145.838182 
L 230.614432 145.838182 
L 230.614432 145.838182 
" style="fill:none;stroke:#000000;stroke-linecap:square;stroke-width:0.5;"/>
   </g>
   <g id="line2d_20">
    <path clip-path="url(#p9d43c2ea38)" d="M 52.678068 13.801818 
L 230.614432 13.801818 
L 230.614432 13.801818 
" style="fill:none;stroke:#000000;stroke-linecap:square;stroke-width:0.5;"/>
   </g>
   <g id="line2d_21">
    <path clip-path="url(#p9d43c2ea38)" d="M 52.678068 51.691346 
L 53.958186 53.587688 
L 55.238304 62.886462 
L 56.518421 48.958643 
L 57.798539 40.03329 
L 59.078657 35.289836 
L 60.358775 31.334232 
L 61.638892 28.687388 
L 62.91901 29.093143 
L 64.199128 30.560175 
L 65.479245 29.741365 
L 68.039481 26.042921 
L 69.319599 28.663068 
L 70.599716 29.846038 
L 71.879834 29.704046 
L 73.159952 27.082883 
L 74.440069 26.336555 
L 75.720187 27.21618 
L 77.000305 29.410968 
L 78.280423 30.521722 
L 79.56054 30.260225 
L 80.840658 28.560783 
L 82.120776 27.521285 
L 83.400894 27.186075 
L 84.681011 27.772345 
L 85.961129 28.013338 
L 87.241247 27.29739 
L 88.521364 28.10105 
L 89.801482 25.941779 
L 91.0816 27.258944 
L 92.361718 27.39753 
L 93.641835 27.882154 
L 94.921953 29.355051 
L 97.482189 27.2972 
L 100.042424 28.440049 
L 101.322542 28.091852 
L 102.602659 26.200478 
L 103.882777 26.280696 
L 105.162895 25.98093 
L 106.443013 25.287089 
L 109.003248 25.852091 
L 110.283366 26.282049 
L 111.563483 25.498136 
L 112.843601 24.327933 
L 114.123719 23.966194 
L 115.403837 23.41988 
L 119.24419 22.29861 
L 120.524308 22.58245 
L 121.804425 22.262575 
L 123.084543 22.703303 
L 124.364661 24.54442 
L 125.644778 25.816409 
L 126.924896 25.398039 
L 128.205014 24.29095 
L 129.485132 24.715547 
L 130.765249 24.302336 
L 132.045367 24.7339 
L 133.325485 25.02606 
L 134.605603 23.809045 
L 135.88572 24.398401 
L 137.165838 23.828303 
L 138.445956 23.66444 
L 139.726073 23.204444 
L 141.006191 24.435148 
L 142.286309 24.867211 
L 143.566427 25.46149 
L 144.846544 24.142284 
L 146.126662 25.670388 
L 147.40678 23.75794 
L 148.686897 23.150526 
L 149.967015 24.208293 
L 151.247133 22.484549 
L 152.527251 23.477248 
L 153.807368 25.344909 
L 155.087486 26.001179 
L 156.367604 25.440629 
L 157.647722 25.84014 
L 158.927839 25.233067 
L 160.207957 27.165767 
L 161.488075 25.301417 
L 162.768192 25.171446 
L 164.04831 25.297033 
L 165.328428 24.918735 
L 166.608546 25.745006 
L 167.888663 25.583635 
L 169.168781 24.28375 
L 170.448899 23.773178 
L 171.729017 22.625444 
L 173.009134 24.0155 
L 174.289252 23.268406 
L 175.56937 24.795627 
L 176.849487 24.375308 
L 178.129605 25.373458 
L 179.409723 25.010243 
L 180.689841 22.616495 
L 181.969958 23.147889 
L 183.250076 22.185269 
L 184.530194 23.038666 
L 185.810311 23.062277 
L 187.090429 22.519744 
L 189.650665 24.44659 
L 190.930782 24.03315 
L 193.491018 24.463499 
L 194.771136 26.340727 
L 196.051253 26.226038 
L 197.331371 24.14759 
L 198.611489 24.292583 
L 199.891606 22.989877 
L 201.171724 23.110142 
L 202.451842 24.770851 
L 203.73196 23.970888 
L 205.012077 24.156319 
L 207.572313 24.96594 
L 208.852431 25.15711 
L 210.132548 25.849335 
L 211.412666 25.762173 
L 212.692784 26.514722 
L 213.972901 25.772181 
L 215.253019 25.278111 
L 216.533137 25.50287 
L 217.813255 25.213345 
L 219.093372 26.186279 
L 220.37349 26.763616 
L 221.653608 25.70539 
L 222.933725 26.135749 
L 224.213843 25.109634 
L 225.493961 24.501663 
L 226.774079 25.228644 
L 228.054196 23.44968 
L 229.334314 23.759267 
L 230.614432 22.665006 
L 230.614432 22.665006 
" style="fill:none;stroke:#d62728;stroke-linecap:square;stroke-width:1.5;"/>
   </g>
   <g id="patch_3">
    <path d="M 43.78125 152.44 
L 43.78125 7.2 
" style="fill:none;stroke:#000000;stroke-linecap:square;stroke-linejoin:miter;stroke-width:0.8;"/>
   </g>
   <g id="patch_4">
    <path d="M 239.51125 152.44 
L 239.51125 7.2 
" style="fill:none;stroke:#000000;stroke-linecap:square;stroke-linejoin:miter;stroke-width:0.8;"/>
   </g>
   <g id="patch_5">
    <path d="M 43.78125 152.44 
L 239.51125 152.44 
" style="fill:none;stroke:#000000;stroke-linecap:square;stroke-linejoin:miter;stroke-width:0.8;"/>
   </g>
   <g id="patch_6">
    <path d="M 43.78125 7.2 
L 239.51125 7.2 
" style="fill:none;stroke:#000000;stroke-linecap:square;stroke-linejoin:miter;stroke-width:0.8;"/>
   </g>
  </g>
  <g id="axes_2">
   <g id="patch_7">
    <path d="M 293.53125 152.44 
L 489.26125 152.44 
L 489.26125 7.2 
L 293.53125 7.2 
z
" style="fill:#ffffff;"/>
   </g>
   <g id="matplotlib.axis_3">
    <g id="xtick_4">
     <g id="line2d_22">
      <g>
       <use style="stroke:#000000;stroke-width:0.8;" x="302.428068" xlink:href="#maa8b8de292" y="152.44"/>
      </g>
     </g>
     <g id="text_12">
      <!-- 0 -->
      <g transform="translate(299.246818 167.038437)scale(0.1 -0.1)">
       <use xlink:href="#DejaVuSans-48"/>
      </g>
     </g>
    </g>
    <g id="xtick_5">
     <g id="line2d_23">
      <g>
       <use style="stroke:#000000;stroke-width:0.8;" x="366.433954" xlink:href="#maa8b8de292" y="152.44"/>
      </g>
     </g>
     <g id="text_13">
      <!-- 5 -->
      <g transform="translate(363.252704 167.038437)scale(0.1 -0.1)">
       <use xlink:href="#DejaVuSans-53"/>
      </g>
     </g>
    </g>
    <g id="xtick_6">
     <g id="line2d_24">
      <g>
       <use style="stroke:#000000;stroke-width:0.8;" x="430.439841" xlink:href="#maa8b8de292" y="152.44"/>
      </g>
     </g>
     <g id="text_14">
      <!-- 10 -->
      <g transform="translate(424.077341 167.038437)scale(0.1 -0.1)">
       <use xlink:href="#DejaVuSans-49"/>
       <use x="63.623047" xlink:href="#DejaVuSans-48"/>
      </g>
     </g>
    </g>
    <g id="text_15">
     <!-- Time (s) -->
     <g transform="translate(371.067344 180.716562)scale(0.1 -0.1)">
      <use xlink:href="#DejaVuSans-84"/>
      <use x="57.958984" xlink:href="#DejaVuSans-105"/>
      <use x="85.742188" xlink:href="#DejaVuSans-109"/>
      <use x="183.154297" xlink:href="#DejaVuSans-101"/>
      <use x="244.677734" xlink:href="#DejaVuSans-32"/>
      <use x="276.464844" xlink:href="#DejaVuSans-40"/>
      <use x="315.478516" xlink:href="#DejaVuSans-115"/>
      <use x="367.578125" xlink:href="#DejaVuSans-41"/>
     </g>
    </g>
   </g>
   <g id="matplotlib.axis_4">
    <g id="ytick_7">
     <g id="line2d_25">
      <g>
       <use style="stroke:#000000;stroke-width:0.8;" x="293.53125" xlink:href="#m701c2e1247" y="145.838182"/>
      </g>
     </g>
     <g id="text_16">
      <!-- 0.00 -->
      <g transform="translate(264.265625 149.637401)scale(0.1 -0.1)">
       <use xlink:href="#DejaVuSans-48"/>
       <use x="63.623047" xlink:href="#DejaVuSans-46"/>
       <use x="95.410156" xlink:href="#DejaVuSans-48"/>
       <use x="159.033203" xlink:href="#DejaVuSans-48"/>
      </g>
     </g>
    </g>
    <g id="ytick_8">
     <g id="line2d_26">
      <g>
       <use style="stroke:#000000;stroke-width:0.8;" x="293.53125" xlink:href="#m701c2e1247" y="124.823942"/>
      </g>
     </g>
     <g id="text_17">
      <!-- 0.05 -->
      <g transform="translate(264.265625 128.623161)scale(0.1 -0.1)">
       <use xlink:href="#DejaVuSans-48"/>
       <use x="63.623047" xlink:href="#DejaVuSans-46"/>
       <use x="95.410156" xlink:href="#DejaVuSans-48"/>
       <use x="159.033203" xlink:href="#DejaVuSans-53"/>
      </g>
     </g>
    </g>
    <g id="ytick_9">
     <g id="line2d_27">
      <g>
       <use style="stroke:#000000;stroke-width:0.8;" x="293.53125" xlink:href="#m701c2e1247" y="103.809702"/>
      </g>
     </g>
     <g id="text_18">
      <!-- 0.10 -->
      <g transform="translate(264.265625 107.608921)scale(0.1 -0.1)">
       <use xlink:href="#DejaVuSans-48"/>
       <use x="63.623047" xlink:href="#DejaVuSans-46"/>
       <use x="95.410156" xlink:href="#DejaVuSans-49"/>
       <use x="159.033203" xlink:href="#DejaVuSans-48"/>
      </g>
     </g>
    </g>
    <g id="ytick_10">
     <g id="line2d_28">
      <g>
       <use style="stroke:#000000;stroke-width:0.8;" x="293.53125" xlink:href="#m701c2e1247" y="82.795462"/>
      </g>
     </g>
     <g id="text_19">
      <!-- 0.15 -->
      <g transform="translate(264.265625 86.594681)scale(0.1 -0.1)">
       <use xlink:href="#DejaVuSans-48"/>
       <use x="63.623047" xlink:href="#DejaVuSans-46"/>
       <use x="95.410156" xlink:href="#DejaVuSans-49"/>
       <use x="159.033203" xlink:href="#DejaVuSans-53"/>
      </g>
     </g>
    </g>
    <g id="ytick_11">
     <g id="line2d_29">
      <g>
       <use style="stroke:#000000;stroke-width:0.8;" x="293.53125" xlink:href="#m701c2e1247" y="61.781222"/>
      </g>
     </g>
     <g id="text_20">
      <!-- 0.20 -->
      <g transform="translate(264.265625 65.580441)scale(0.1 -0.1)">
       <use xlink:href="#DejaVuSans-48"/>
       <use x="63.623047" xlink:href="#DejaVuSans-46"/>
       <use x="95.410156" xlink:href="#DejaVuSans-50"/>
       <use x="159.033203" xlink:href="#DejaVuSans-48"/>
      </g>
     </g>
    </g>
    <g id="ytick_12">
     <g id="line2d_30">
      <g>
       <use style="stroke:#000000;stroke-width:0.8;" x="293.53125" xlink:href="#m701c2e1247" y="40.766982"/>
      </g>
     </g>
     <g id="text_21">
      <!-- 0.25 -->
      <g transform="translate(264.265625 44.566201)scale(0.1 -0.1)">
       <use xlink:href="#DejaVuSans-48"/>
       <use x="63.623047" xlink:href="#DejaVuSans-46"/>
       <use x="95.410156" xlink:href="#DejaVuSans-50"/>
       <use x="159.033203" xlink:href="#DejaVuSans-53"/>
      </g>
     </g>
    </g>
    <g id="ytick_13">
     <g id="line2d_31">
      <g>
       <use style="stroke:#000000;stroke-width:0.8;" x="293.53125" xlink:href="#m701c2e1247" y="19.752742"/>
      </g>
     </g>
     <g id="text_22">
      <!-- 0.30 -->
      <g transform="translate(264.265625 23.551961)scale(0.1 -0.1)">
       <defs>
        <path d="M 40.578125 39.3125 
Q 47.65625 37.796875 51.625 33 
Q 55.609375 28.21875 55.609375 21.1875 
Q 55.609375 10.40625 48.1875 4.484375 
Q 40.765625 -1.421875 27.09375 -1.421875 
Q 22.515625 -1.421875 17.65625 -0.515625 
Q 12.796875 0.390625 7.625 2.203125 
L 7.625 11.71875 
Q 11.71875 9.328125 16.59375 8.109375 
Q 21.484375 6.890625 26.8125 6.890625 
Q 36.078125 6.890625 40.9375 10.546875 
Q 45.796875 14.203125 45.796875 21.1875 
Q 45.796875 27.640625 41.28125 31.265625 
Q 36.765625 34.90625 28.71875 34.90625 
L 20.21875 34.90625 
L 20.21875 43.015625 
L 29.109375 43.015625 
Q 36.375 43.015625 40.234375 45.921875 
Q 44.09375 48.828125 44.09375 54.296875 
Q 44.09375 59.90625 40.109375 62.90625 
Q 36.140625 65.921875 28.71875 65.921875 
Q 24.65625 65.921875 20.015625 65.03125 
Q 15.375 64.15625 9.8125 62.3125 
L 9.8125 71.09375 
Q 15.4375 72.65625 20.34375 73.4375 
Q 25.25 74.21875 29.59375 74.21875 
Q 40.828125 74.21875 47.359375 69.109375 
Q 53.90625 64.015625 53.90625 55.328125 
Q 53.90625 49.265625 50.4375 45.09375 
Q 46.96875 40.921875 40.578125 39.3125 
z
" id="DejaVuSans-51"/>
       </defs>
       <use xlink:href="#DejaVuSans-48"/>
       <use x="63.623047" xlink:href="#DejaVuSans-46"/>
       <use x="95.410156" xlink:href="#DejaVuSans-51"/>
       <use x="159.033203" xlink:href="#DejaVuSans-48"/>
      </g>
     </g>
    </g>
    <g id="text_23">
     <!-- Steering Angle (Clipped) -->
     <g transform="translate(258.185938 141.072344)rotate(-90)scale(0.1 -0.1)">
      <defs>
       <path d="M 53.515625 70.515625 
L 53.515625 60.890625 
Q 47.90625 63.578125 42.921875 64.890625 
Q 37.9375 66.21875 33.296875 66.21875 
Q 25.25 66.21875 20.875 63.09375 
Q 16.5 59.96875 16.5 54.203125 
Q 16.5 49.359375 19.40625 46.890625 
Q 22.3125 44.4375 30.421875 42.921875 
L 36.375 41.703125 
Q 47.40625 39.59375 52.65625 34.296875 
Q 57.90625 29 57.90625 20.125 
Q 57.90625 9.515625 50.796875 4.046875 
Q 43.703125 -1.421875 29.984375 -1.421875 
Q 24.8125 -1.421875 18.96875 -0.25 
Q 13.140625 0.921875 6.890625 3.21875 
L 6.890625 13.375 
Q 12.890625 10.015625 18.65625 8.296875 
Q 24.421875 6.59375 29.984375 6.59375 
Q 38.421875 6.59375 43.015625 9.90625 
Q 47.609375 13.234375 47.609375 19.390625 
Q 47.609375 24.75 44.3125 27.78125 
Q 41.015625 30.8125 33.5 32.328125 
L 27.484375 33.5 
Q 16.453125 35.6875 11.515625 40.375 
Q 6.59375 45.0625 6.59375 53.421875 
Q 6.59375 63.09375 13.40625 68.65625 
Q 20.21875 74.21875 32.171875 74.21875 
Q 37.3125 74.21875 42.625 73.28125 
Q 47.953125 72.359375 53.515625 70.515625 
z
" id="DejaVuSans-83"/>
       <path d="M 54.890625 33.015625 
L 54.890625 0 
L 45.90625 0 
L 45.90625 32.71875 
Q 45.90625 40.484375 42.875 44.328125 
Q 39.84375 48.1875 33.796875 48.1875 
Q 26.515625 48.1875 22.3125 43.546875 
Q 18.109375 38.921875 18.109375 30.90625 
L 18.109375 0 
L 9.078125 0 
L 9.078125 54.6875 
L 18.109375 54.6875 
L 18.109375 46.1875 
Q 21.34375 51.125 25.703125 53.5625 
Q 30.078125 56 35.796875 56 
Q 45.21875 56 50.046875 50.171875 
Q 54.890625 44.34375 54.890625 33.015625 
z
" id="DejaVuSans-110"/>
       <path d="M 45.40625 27.984375 
Q 45.40625 37.75 41.375 43.109375 
Q 37.359375 48.484375 30.078125 48.484375 
Q 22.859375 48.484375 18.828125 43.109375 
Q 14.796875 37.75 14.796875 27.984375 
Q 14.796875 18.265625 18.828125 12.890625 
Q 22.859375 7.515625 30.078125 7.515625 
Q 37.359375 7.515625 41.375 12.890625 
Q 45.40625 18.265625 45.40625 27.984375 
z
M 54.390625 6.78125 
Q 54.390625 -7.171875 48.1875 -13.984375 
Q 42 -20.796875 29.203125 -20.796875 
Q 24.46875 -20.796875 20.265625 -20.09375 
Q 16.0625 -19.390625 12.109375 -17.921875 
L 12.109375 -9.1875 
Q 16.0625 -11.328125 19.921875 -12.34375 
Q 23.78125 -13.375 27.78125 -13.375 
Q 36.625 -13.375 41.015625 -8.765625 
Q 45.40625 -4.15625 45.40625 5.171875 
L 45.40625 9.625 
Q 42.625 4.78125 38.28125 2.390625 
Q 33.9375 0 27.875 0 
Q 17.828125 0 11.671875 7.65625 
Q 5.515625 15.328125 5.515625 27.984375 
Q 5.515625 40.671875 11.671875 48.328125 
Q 17.828125 56 27.875 56 
Q 33.9375 56 38.28125 53.609375 
Q 42.625 51.21875 45.40625 46.390625 
L 45.40625 54.6875 
L 54.390625 54.6875 
z
" id="DejaVuSans-103"/>
       <path d="M 34.1875 63.1875 
L 20.796875 26.90625 
L 47.609375 26.90625 
z
M 28.609375 72.90625 
L 39.796875 72.90625 
L 67.578125 0 
L 57.328125 0 
L 50.6875 18.703125 
L 17.828125 18.703125 
L 11.1875 0 
L 0.78125 0 
z
" id="DejaVuSans-65"/>
      </defs>
      <use xlink:href="#DejaVuSans-83"/>
      <use x="63.476562" xlink:href="#DejaVuSans-116"/>
      <use x="102.685547" xlink:href="#DejaVuSans-101"/>
      <use x="164.208984" xlink:href="#DejaVuSans-101"/>
      <use x="225.732422" xlink:href="#DejaVuSans-114"/>
      <use x="266.845703" xlink:href="#DejaVuSans-105"/>
      <use x="294.628906" xlink:href="#DejaVuSans-110"/>
      <use x="358.007812" xlink:href="#DejaVuSans-103"/>
      <use x="421.484375" xlink:href="#DejaVuSans-32"/>
      <use x="453.271484" xlink:href="#DejaVuSans-65"/>
      <use x="521.679688" xlink:href="#DejaVuSans-110"/>
      <use x="585.058594" xlink:href="#DejaVuSans-103"/>
      <use x="648.535156" xlink:href="#DejaVuSans-108"/>
      <use x="676.318359" xlink:href="#DejaVuSans-101"/>
      <use x="737.841797" xlink:href="#DejaVuSans-32"/>
      <use x="769.628906" xlink:href="#DejaVuSans-40"/>
      <use x="808.642578" xlink:href="#DejaVuSans-67"/>
      <use x="878.466797" xlink:href="#DejaVuSans-108"/>
      <use x="906.25" xlink:href="#DejaVuSans-105"/>
      <use x="934.033203" xlink:href="#DejaVuSans-112"/>
      <use x="997.509766" xlink:href="#DejaVuSans-112"/>
      <use x="1060.986328" xlink:href="#DejaVuSans-101"/>
      <use x="1122.509766" xlink:href="#DejaVuSans-100"/>
      <use x="1185.986328" xlink:href="#DejaVuSans-41"/>
     </g>
    </g>
   </g>
   <g id="line2d_32">
    <path clip-path="url(#p3a3ee28925)" d="M 302.428068 145.838182 
L 480.364432 145.838182 
L 480.364432 145.838182 
" style="fill:none;stroke:#000000;stroke-linecap:square;stroke-width:0.5;"/>
   </g>
   <g id="line2d_33">
    <path clip-path="url(#p3a3ee28925)" d="M 302.428068 13.801818 
L 480.364432 13.801818 
L 480.364432 13.801818 
" style="fill:none;stroke:#000000;stroke-linecap:square;stroke-width:0.5;"/>
   </g>
   <g id="line2d_34">
    <path clip-path="url(#p3a3ee28925)" d="M 302.428068 102.996811 
L 303.708186 121.23531 
L 304.988304 127.645493 
L 306.268421 127.168224 
L 307.548539 124.370302 
L 310.108775 121.72974 
L 311.388892 119.543419 
L 312.66901 119.298921 
L 315.229245 120.129376 
L 316.509363 121.884836 
L 317.789481 121.329072 
L 319.069599 119.261915 
L 320.349716 119.27671 
L 321.629834 119.417037 
L 322.909952 119.263334 
L 324.190069 119.425453 
L 325.470187 118.448262 
L 326.750305 117.073322 
L 328.030423 116.663588 
L 329.31054 115.48374 
L 330.590658 115.439832 
L 331.870776 115.98074 
L 333.150894 116.400083 
L 334.431011 115.288088 
L 335.711129 115.742772 
L 336.991247 115.69312 
L 338.271364 116.442728 
L 340.8316 115.532522 
L 342.111718 115.368774 
L 343.391835 116.104803 
L 344.671953 115.992944 
L 345.952071 116.526463 
L 347.232189 116.721208 
L 348.512306 117.713835 
L 349.792424 117.618165 
L 351.072542 118.530324 
L 352.352659 119.12035 
L 353.632777 119.137638 
L 354.912895 118.333008 
L 356.193013 119.741986 
L 358.753248 118.344013 
L 360.033366 119.847175 
L 361.313483 120.058459 
L 362.593601 119.315947 
L 363.873719 119.317826 
L 365.153837 119.142437 
L 366.433954 119.960578 
L 368.99419 120.940932 
L 370.274308 120.621929 
L 371.554425 121.485962 
L 372.834543 122.643981 
L 374.114661 121.832345 
L 375.394778 120.821679 
L 376.674896 121.909362 
L 377.955014 122.471542 
L 379.235132 123.158671 
L 380.515249 124.061447 
L 381.795367 124.155359 
L 383.075485 122.275904 
L 384.355603 123.940389 
L 385.63572 123.261121 
L 388.195956 123.120088 
L 390.756191 123.534452 
L 392.036309 123.052294 
L 393.316427 124.061449 
L 394.596544 124.643282 
L 397.15678 124.743119 
L 398.436897 123.032371 
L 399.717015 124.710026 
L 400.997133 123.055567 
L 402.277251 123.77755 
L 403.557368 124.904232 
L 404.837486 124.663209 
L 407.397722 125.075635 
L 408.677839 124.909169 
L 409.957957 123.566892 
L 411.238075 123.090057 
L 412.518192 125.319305 
L 413.79831 124.678896 
L 415.078428 125.378645 
L 416.358546 124.51642 
L 417.638663 124.537357 
L 418.918781 125.8316 
L 420.198899 126.12997 
L 421.479017 124.555498 
L 422.759134 124.725805 
L 424.039252 125.529427 
L 425.31937 125.04625 
L 427.879605 126.359371 
L 429.159723 126.837899 
L 430.439841 125.948021 
L 433.000076 125.403537 
L 434.280194 125.851615 
L 436.840429 125.680036 
L 438.120547 126.104222 
L 441.9609 125.341677 
L 443.241018 125.508533 
L 444.521136 125.921504 
L 445.801253 125.821677 
L 447.081371 126.590575 
L 448.361489 127.145125 
L 449.641606 125.99298 
L 450.921724 125.727266 
L 453.48196 125.587037 
L 454.762077 126.416222 
L 456.042195 125.951703 
L 457.322313 126.227802 
L 458.602431 127.016724 
L 459.882548 126.706455 
L 461.162666 126.164629 
L 462.442784 125.857534 
L 463.722901 126.583756 
L 465.003019 127.514587 
L 466.283137 127.367224 
L 467.563255 127.012991 
L 468.843372 128.225171 
L 470.12349 128.21531 
L 471.403608 127.133923 
L 473.963843 127.614427 
L 475.243961 126.954532 
L 476.524079 127.088665 
L 480.364432 127.993644 
L 480.364432 127.993644 
" style="fill:none;stroke:#1f77b4;stroke-linecap:square;stroke-width:1.5;"/>
   </g>
   <g id="line2d_35">
    <path clip-path="url(#p3a3ee28925)" d="M 302.428068 145.838182 
L 480.364432 145.838182 
L 480.364432 145.838182 
" style="fill:none;stroke:#000000;stroke-linecap:square;stroke-width:0.5;"/>
   </g>
   <g id="line2d_36">
    <path clip-path="url(#p3a3ee28925)" d="M 302.428068 13.801818 
L 480.364432 13.801818 
L 480.364432 13.801818 
" style="fill:none;stroke:#000000;stroke-linecap:square;stroke-width:0.5;"/>
   </g>
   <g id="line2d_37">
    <path clip-path="url(#p3a3ee28925)" d="M 302.428068 45.977465 
L 303.708186 63.336742 
L 304.988304 97.716204 
L 307.548539 105.357129 
L 308.828657 95.063126 
L 310.108775 87.173131 
L 311.388892 81.402265 
L 312.66901 80.872489 
L 313.949128 87.624461 
L 315.229245 93.6512 
L 316.509363 90.915803 
L 317.789481 85.847555 
L 319.069599 85.225783 
L 320.349716 83.746036 
L 321.629834 86.180395 
L 322.909952 87.5747 
L 324.190069 88.430422 
L 325.470187 84.112323 
L 326.750305 83.543828 
L 328.030423 86.838489 
L 329.31054 89.286084 
L 330.590658 90.30927 
L 331.870776 90.123665 
L 333.150894 86.281241 
L 334.431011 84.657531 
L 335.711129 85.303565 
L 336.991247 84.631317 
L 338.271364 85.941792 
L 339.551482 84.375444 
L 342.111718 85.553753 
L 343.391835 88.490847 
L 344.671953 87.059626 
L 345.952071 86.468605 
L 347.232189 86.260429 
L 348.512306 85.221412 
L 349.792424 84.80459 
L 351.072542 83.933427 
L 352.352659 84.355871 
L 353.632777 80.87419 
L 354.912895 78.695472 
L 356.193013 79.228578 
L 357.47313 80.398579 
L 358.753248 80.016016 
L 360.033366 83.638376 
L 361.313483 80.891816 
L 362.593601 83.115171 
L 363.873719 80.488357 
L 366.433954 79.317344 
L 367.714072 79.422247 
L 368.99419 80.66072 
L 370.274308 78.537754 
L 371.554425 79.178279 
L 372.834543 77.196258 
L 374.114661 79.459711 
L 375.394778 80.740894 
L 376.674896 81.657039 
L 377.955014 81.837394 
L 379.235132 81.550508 
L 380.515249 79.690423 
L 381.795367 79.560032 
L 383.075485 78.97192 
L 384.355603 78.235761 
L 385.63572 79.361907 
L 386.915838 79.124012 
L 388.195956 79.756279 
L 389.476073 81.360246 
L 390.756191 81.244003 
L 392.036309 81.404179 
L 393.316427 81.240836 
L 395.876662 78.464437 
L 397.15678 79.666368 
L 398.436897 78.399549 
L 399.717015 79.520677 
L 400.997133 79.884852 
L 402.277251 77.783336 
L 404.837486 80.430451 
L 406.117604 78.89128 
L 407.397722 77.059748 
L 408.677839 79.544474 
L 409.957957 78.700818 
L 411.238075 78.811583 
L 412.518192 78.274939 
L 413.79831 80.532443 
L 415.078428 78.840107 
L 416.358546 80.543843 
L 417.638663 79.904041 
L 418.918781 77.396556 
L 420.198899 76.503571 
L 421.479017 77.081667 
L 422.759134 79.183471 
L 424.039252 80.581944 
L 425.31937 81.493608 
L 426.599487 77.25023 
L 427.879605 76.790299 
L 429.159723 78.492696 
L 430.439841 77.628453 
L 431.719958 78.940726 
L 433.000076 76.886817 
L 434.280194 81.342087 
L 435.560311 79.461154 
L 436.840429 79.242028 
L 438.120547 79.654519 
L 439.400665 78.22002 
L 440.680782 78.244944 
L 441.9609 76.75973 
L 443.241018 76.440939 
L 444.521136 78.569405 
L 445.801253 76.195288 
L 447.081371 76.469441 
L 448.361489 75.988575 
L 449.641606 79.906738 
L 450.921724 78.824612 
L 452.201842 78.757454 
L 453.48196 77.389181 
L 454.762077 78.517152 
L 456.042195 77.338591 
L 458.602431 78.606075 
L 459.882548 79.031659 
L 461.162666 80.374738 
L 462.442784 82.229993 
L 463.722901 79.423743 
L 465.003019 80.419715 
L 466.283137 79.499483 
L 467.563255 78.994763 
L 468.843372 79.264541 
L 470.12349 80.978637 
L 471.403608 81.889014 
L 472.683725 82.039155 
L 473.963843 79.201954 
L 475.243961 79.926067 
L 476.524079 80.007745 
L 477.804196 79.969356 
L 479.084314 80.872142 
L 480.364432 82.030181 
L 480.364432 82.030181 
" style="fill:none;stroke:#ff7f0e;stroke-linecap:square;stroke-width:1.5;"/>
   </g>
   <g id="line2d_38">
    <path clip-path="url(#p3a3ee28925)" d="M 302.428068 145.838182 
L 480.364432 145.838182 
L 480.364432 145.838182 
" style="fill:none;stroke:#000000;stroke-linecap:square;stroke-width:0.5;"/>
   </g>
   <g id="line2d_39">
    <path clip-path="url(#p3a3ee28925)" d="M 302.428068 13.801818 
L 480.364432 13.801818 
L 480.364432 13.801818 
" style="fill:none;stroke:#000000;stroke-linecap:square;stroke-width:0.5;"/>
   </g>
   <g id="line2d_40">
    <path clip-path="url(#p3a3ee28925)" d="M 302.428068 88.037982 
L 303.708186 80.232945 
L 304.988304 109.674011 
L 306.268421 116.990692 
L 307.548539 118.878507 
L 308.828657 107.233947 
L 310.108775 96.841001 
L 311.388892 99.372966 
L 312.66901 97.123297 
L 313.949128 97.848092 
L 315.229245 101.487523 
L 316.509363 100.422491 
L 317.789481 99.614504 
L 319.069599 101.612124 
L 320.349716 101.111264 
L 321.629834 103.719736 
L 322.909952 103.865839 
L 324.190069 102.338 
L 326.750305 101.798953 
L 328.030423 102.785515 
L 329.31054 104.121335 
L 330.590658 102.966333 
L 331.870776 103.817789 
L 333.150894 102.238365 
L 334.431011 104.734375 
L 335.711129 103.447458 
L 336.991247 103.788329 
L 338.271364 100.549427 
L 339.551482 100.785535 
L 340.8316 101.648954 
L 342.111718 103.705624 
L 343.391835 102.453033 
L 345.952071 104.351044 
L 347.232189 103.005149 
L 348.512306 101.385279 
L 349.792424 100.604732 
L 351.072542 101.964718 
L 352.352659 99.108128 
L 353.632777 99.026012 
L 354.912895 99.197714 
L 356.193013 99.574925 
L 357.47313 101.283879 
L 358.753248 100.558744 
L 361.313483 101.783989 
L 362.593601 100.089568 
L 363.873719 101.042404 
L 366.433954 97.286156 
L 367.714072 97.368343 
L 368.99419 97.811142 
L 370.274308 98.97502 
L 371.554425 98.98602 
L 372.834543 97.472314 
L 374.114661 98.441696 
L 375.394778 98.649454 
L 376.674896 97.449699 
L 377.955014 100.016503 
L 379.235132 99.310047 
L 380.515249 102.417316 
L 381.795367 100.749282 
L 383.075485 101.074083 
L 384.355603 100.760081 
L 385.63572 100.12545 
L 386.915838 101.553482 
L 388.195956 99.726098 
L 389.476073 98.872843 
L 392.036309 100.814533 
L 393.316427 102.032856 
L 394.596544 101.242848 
L 395.876662 101.59764 
L 397.15678 102.638671 
L 398.436897 102.241231 
L 399.717015 103.40293 
L 400.997133 101.818047 
L 402.277251 100.652192 
L 403.557368 101.262609 
L 404.837486 102.133972 
L 406.117604 101.490424 
L 407.397722 101.868982 
L 408.677839 103.222116 
L 409.957957 103.02075 
L 411.238075 101.717416 
L 412.518192 102.172883 
L 413.79831 103.00881 
L 415.078428 102.269701 
L 416.358546 101.876594 
L 418.918781 103.061706 
L 420.198899 103.678513 
L 421.479017 100.576317 
L 422.759134 101.851098 
L 424.039252 101.771007 
L 425.31937 98.474495 
L 426.599487 99.777249 
L 427.879605 102.115036 
L 430.439841 104.142397 
L 431.719958 102.493992 
L 434.280194 101.480572 
L 435.560311 101.727381 
L 436.840429 101.847223 
L 438.120547 103.684405 
L 439.400665 103.014718 
L 440.680782 105.953554 
L 441.9609 105.352391 
L 443.241018 105.600196 
L 444.521136 106.591291 
L 445.801253 107.359879 
L 448.361489 105.291804 
L 449.641606 105.845574 
L 450.921724 103.876336 
L 452.201842 103.978925 
L 453.48196 105.932493 
L 454.762077 102.564095 
L 456.042195 104.089622 
L 457.322313 105.053191 
L 459.882548 104.864215 
L 462.442784 106.082985 
L 463.722901 105.228426 
L 465.003019 104.572121 
L 466.283137 104.366573 
L 468.843372 103.372707 
L 470.12349 104.370275 
L 471.403608 103.218333 
L 472.683725 105.94812 
L 473.963843 105.185742 
L 475.243961 102.020562 
L 476.524079 104.327872 
L 477.804196 104.681228 
L 479.084314 103.193929 
L 480.364432 105.178379 
L 480.364432 105.178379 
" style="fill:none;stroke:#2ca02c;stroke-linecap:square;stroke-width:1.5;"/>
   </g>
   <g id="line2d_41">
    <path clip-path="url(#p3a3ee28925)" d="M 302.428068 145.838182 
L 480.364432 145.838182 
L 480.364432 145.838182 
" style="fill:none;stroke:#000000;stroke-linecap:square;stroke-width:0.5;"/>
   </g>
   <g id="line2d_42">
    <path clip-path="url(#p3a3ee28925)" d="M 302.428068 13.801818 
L 480.364432 13.801818 
L 480.364432 13.801818 
" style="fill:none;stroke:#000000;stroke-linecap:square;stroke-width:0.5;"/>
   </g>
   <g id="line2d_43">
    <path clip-path="url(#p3a3ee28925)" d="M 302.428068 89.968528 
L 303.708186 82.965781 
L 304.988304 110.784962 
L 306.268421 118.09699 
L 307.548539 118.36621 
L 308.828657 108.906614 
L 310.108775 101.165294 
L 311.388892 101.027219 
L 312.66901 99.27256 
L 313.949128 99.272806 
L 315.229245 101.845295 
L 316.509363 102.976159 
L 317.789481 102.510093 
L 319.069599 101.699904 
L 320.349716 101.173697 
L 321.629834 102.154286 
L 322.909952 104.260834 
L 324.190069 101.783391 
L 325.470187 103.983364 
L 326.750305 103.707015 
L 330.590658 107.602773 
L 331.870776 105.911047 
L 333.150894 103.717922 
L 334.431011 103.544205 
L 335.711129 103.849154 
L 336.991247 102.893821 
L 338.271364 101.403547 
L 339.551482 102.089439 
L 340.8316 104.306627 
L 342.111718 103.505433 
L 343.391835 103.222781 
L 344.671953 105.429431 
L 345.952071 104.216798 
L 347.232189 106.210416 
L 348.512306 105.105701 
L 349.792424 103.436246 
L 351.072542 101.997636 
L 352.352659 102.245488 
L 353.632777 103.009255 
L 354.912895 103.375189 
L 356.193013 102.772052 
L 357.47313 103.679057 
L 358.753248 103.627756 
L 360.033366 101.932166 
L 361.313483 101.735837 
L 362.593601 104.110506 
L 363.873719 103.065095 
L 365.153837 100.45954 
L 366.433954 99.821304 
L 367.714072 99.765349 
L 368.99419 100.682642 
L 370.274308 101.741952 
L 371.554425 101.288127 
L 372.834543 101.903612 
L 374.114661 104.04574 
L 375.394778 104.163016 
L 376.674896 100.920675 
L 377.955014 104.073817 
L 379.235132 104.851017 
L 380.515249 104.209036 
L 381.795367 101.983921 
L 383.075485 103.609906 
L 385.63572 102.958829 
L 386.915838 103.059029 
L 388.195956 103.834912 
L 389.476073 102.782648 
L 390.756191 103.88477 
L 392.036309 103.65427 
L 393.316427 105.527542 
L 394.596544 104.639669 
L 395.876662 105.567428 
L 397.15678 106.026844 
L 398.436897 104.105153 
L 400.997133 102.921645 
L 402.277251 105.100363 
L 403.557368 107.788699 
L 404.837486 107.444926 
L 406.117604 104.264453 
L 407.397722 105.94925 
L 408.677839 105.94303 
L 409.957957 107.359198 
L 411.238075 106.305852 
L 412.518192 105.038391 
L 413.79831 104.301978 
L 415.078428 102.849592 
L 416.358546 105.449833 
L 417.638663 106.630584 
L 418.918781 107.351718 
L 420.198899 104.93482 
L 421.479017 104.647692 
L 422.759134 103.757188 
L 424.039252 100.56676 
L 425.31937 102.501067 
L 426.599487 103.075643 
L 427.879605 103.492469 
L 429.159723 104.408685 
L 430.439841 103.592569 
L 433.000076 104.506055 
L 434.280194 106.123697 
L 435.560311 105.987157 
L 436.840429 102.642902 
L 438.120547 103.284895 
L 440.680782 109.28229 
L 441.9609 108.959645 
L 443.241018 107.083199 
L 444.521136 108.045924 
L 445.801253 106.643194 
L 447.081371 107.414837 
L 448.361489 107.887846 
L 449.641606 108.102886 
L 450.921724 107.034415 
L 452.201842 106.353719 
L 453.48196 105.268766 
L 454.762077 107.557062 
L 456.042195 109.559128 
L 457.322313 109.166246 
L 458.602431 108.643749 
L 461.162666 108.966083 
L 462.442784 106.874432 
L 465.003019 108.004157 
L 466.283137 108.846925 
L 467.563255 106.402528 
L 468.843372 107.054382 
L 470.12349 107.425661 
L 471.403608 107.507012 
L 472.683725 108.614341 
L 473.963843 107.631454 
L 475.243961 107.942409 
L 476.524079 108.03592 
L 477.804196 107.382966 
L 479.084314 106.43858 
L 480.364432 106.32502 
L 480.364432 106.32502 
" style="fill:none;stroke:#d62728;stroke-linecap:square;stroke-width:1.5;"/>
   </g>
   <g id="patch_8">
    <path d="M 293.53125 152.44 
L 293.53125 7.2 
" style="fill:none;stroke:#000000;stroke-linecap:square;stroke-linejoin:miter;stroke-width:0.8;"/>
   </g>
   <g id="patch_9">
    <path d="M 489.26125 152.44 
L 489.26125 7.2 
" style="fill:none;stroke:#000000;stroke-linecap:square;stroke-linejoin:miter;stroke-width:0.8;"/>
   </g>
   <g id="patch_10">
    <path d="M 293.53125 152.44 
L 489.26125 152.44 
" style="fill:none;stroke:#000000;stroke-linecap:square;stroke-linejoin:miter;stroke-width:0.8;"/>
   </g>
   <g id="patch_11">
    <path d="M 293.53125 7.2 
L 489.26125 7.2 
" style="fill:none;stroke:#000000;stroke-linecap:square;stroke-linejoin:miter;stroke-width:0.8;"/>
   </g>
  </g>
 </g>
 <defs>
  <clipPath id="p9d43c2ea38">
   <rect height="145.24" width="195.73" x="43.78125" y="7.2"/>
  </clipPath>
  <clipPath id="p3a3ee28925">
   <rect height="145.24" width="195.73" x="293.53125" y="7.2"/>
  </clipPath>
 </defs>
</svg>
