<?xml version="1.0" encoding="utf-8" standalone="no"?>
<!DOCTYPE svg PUBLIC "-//W3C//DTD SVG 1.1//EN"
  "http://www.w3.org/Graphics/SVG/1.1/DTD/svg11.dtd">
<!-- Created with matplotlib (https://matplotlib.org/) -->
<svg height="223.474375pt" version="1.1" viewBox="0 0 496.46125 223.474375" width="496.46125pt" xmlns="http://www.w3.org/2000/svg" xmlns:xlink="http://www.w3.org/1999/xlink">
 <metadata>
  <rdf:RDF xmlns:cc="http://creativecommons.org/ns#" xmlns:dc="http://purl.org/dc/elements/1.1/" xmlns:rdf="http://www.w3.org/1999/02/22-rdf-syntax-ns#">
   <cc:Work>
    <dc:type rdf:resource="http://purl.org/dc/dcmitype/StillImage"/>
    <dc:date>2022-08-03T17:30:34.190409</dc:date>
    <dc:format>image/svg+xml</dc:format>
    <dc:creator>
     <cc:Agent>
      <dc:title>Matplotlib v3.3.0, https://matplotlib.org/</dc:title>
     </cc:Agent>
    </dc:creator>
   </cc:Work>
  </rdf:RDF>
 </metadata>
 <defs>
  <style type="text/css">*{stroke-linecap:butt;stroke-linejoin:round;}</style>
 </defs>
 <g id="figure_1">
  <g id="patch_1">
   <path d="M 0 223.474375 
L 496.46125 223.474375 
L 496.46125 0 
L 0 0 
z
" style="fill:#ffffff;"/>
  </g>
  <g id="axes_1">
   <g id="patch_2">
    <path d="M 43.78125 185.918125 
L 239.51125 185.918125 
L 239.51125 40.678125 
L 43.78125 40.678125 
z
" style="fill:#ffffff;"/>
   </g>
   <g id="matplotlib.axis_1">
    <g id="xtick_1">
     <g id="line2d_1">
      <defs>
       <path d="M 0 0 
L 0 3.5 
" id="m1897b55fd8" style="stroke:#000000;stroke-width:0.8;"/>
      </defs>
      <g>
       <use style="stroke:#000000;stroke-width:0.8;" x="52.678068" xlink:href="#m1897b55fd8" y="185.918125"/>
      </g>
     </g>
     <g id="text_1">
      <!-- 0 -->
      <g transform="translate(49.496818 200.516562)scale(0.1 -0.1)">
       <defs>
        <path d="M 31.78125 66.40625 
Q 24.171875 66.40625 20.328125 58.90625 
Q 16.5 51.421875 16.5 36.375 
Q 16.5 21.390625 20.328125 13.890625 
Q 24.171875 6.390625 31.78125 6.390625 
Q 39.453125 6.390625 43.28125 13.890625 
Q 47.125 21.390625 47.125 36.375 
Q 47.125 51.421875 43.28125 58.90625 
Q 39.453125 66.40625 31.78125 66.40625 
z
M 31.78125 74.21875 
Q 44.046875 74.21875 50.515625 64.515625 
Q 56.984375 54.828125 56.984375 36.375 
Q 56.984375 17.96875 50.515625 8.265625 
Q 44.046875 -1.421875 31.78125 -1.421875 
Q 19.53125 -1.421875 13.0625 8.265625 
Q 6.59375 17.96875 6.59375 36.375 
Q 6.59375 54.828125 13.0625 64.515625 
Q 19.53125 74.21875 31.78125 74.21875 
z
" id="DejaVuSans-48"/>
       </defs>
       <use xlink:href="#DejaVuSans-48"/>
      </g>
     </g>
    </g>
    <g id="xtick_2">
     <g id="line2d_2">
      <g>
       <use style="stroke:#000000;stroke-width:0.8;" x="116.683954" xlink:href="#m1897b55fd8" y="185.918125"/>
      </g>
     </g>
     <g id="text_2">
      <!-- 5 -->
      <g transform="translate(113.502704 200.516562)scale(0.1 -0.1)">
       <defs>
        <path d="M 10.796875 72.90625 
L 49.515625 72.90625 
L 49.515625 64.59375 
L 19.828125 64.59375 
L 19.828125 46.734375 
Q 21.96875 47.46875 24.109375 47.828125 
Q 26.265625 48.1875 28.421875 48.1875 
Q 40.625 48.1875 47.75 41.5 
Q 54.890625 34.8125 54.890625 23.390625 
Q 54.890625 11.625 47.5625 5.09375 
Q 40.234375 -1.421875 26.90625 -1.421875 
Q 22.3125 -1.421875 17.546875 -0.640625 
Q 12.796875 0.140625 7.71875 1.703125 
L 7.71875 11.625 
Q 12.109375 9.234375 16.796875 8.0625 
Q 21.484375 6.890625 26.703125 6.890625 
Q 35.15625 6.890625 40.078125 11.328125 
Q 45.015625 15.765625 45.015625 23.390625 
Q 45.015625 31 40.078125 35.4375 
Q 35.15625 39.890625 26.703125 39.890625 
Q 22.75 39.890625 18.8125 39.015625 
Q 14.890625 38.140625 10.796875 36.28125 
z
" id="DejaVuSans-53"/>
       </defs>
       <use xlink:href="#DejaVuSans-53"/>
      </g>
     </g>
    </g>
    <g id="xtick_3">
     <g id="line2d_3">
      <g>
       <use style="stroke:#000000;stroke-width:0.8;" x="180.689841" xlink:href="#m1897b55fd8" y="185.918125"/>
      </g>
     </g>
     <g id="text_3">
      <!-- 10 -->
      <g transform="translate(174.327341 200.516562)scale(0.1 -0.1)">
       <defs>
        <path d="M 12.40625 8.296875 
L 28.515625 8.296875 
L 28.515625 63.921875 
L 10.984375 60.40625 
L 10.984375 69.390625 
L 28.421875 72.90625 
L 38.28125 72.90625 
L 38.28125 8.296875 
L 54.390625 8.296875 
L 54.390625 0 
L 12.40625 0 
z
" id="DejaVuSans-49"/>
       </defs>
       <use xlink:href="#DejaVuSans-49"/>
       <use x="63.623047" xlink:href="#DejaVuSans-48"/>
      </g>
     </g>
    </g>
    <g id="text_4">
     <!-- Time (s) -->
     <g transform="translate(121.317344 214.194687)scale(0.1 -0.1)">
      <defs>
       <path d="M -0.296875 72.90625 
L 61.375 72.90625 
L 61.375 64.59375 
L 35.5 64.59375 
L 35.5 0 
L 25.59375 0 
L 25.59375 64.59375 
L -0.296875 64.59375 
z
" id="DejaVuSans-84"/>
       <path d="M 9.421875 54.6875 
L 18.40625 54.6875 
L 18.40625 0 
L 9.421875 0 
z
M 9.421875 75.984375 
L 18.40625 75.984375 
L 18.40625 64.59375 
L 9.421875 64.59375 
z
" id="DejaVuSans-105"/>
       <path d="M 52 44.1875 
Q 55.375 50.25 60.0625 53.125 
Q 64.75 56 71.09375 56 
Q 79.640625 56 84.28125 50.015625 
Q 88.921875 44.046875 88.921875 33.015625 
L 88.921875 0 
L 79.890625 0 
L 79.890625 32.71875 
Q 79.890625 40.578125 77.09375 44.375 
Q 74.3125 48.1875 68.609375 48.1875 
Q 61.625 48.1875 57.5625 43.546875 
Q 53.515625 38.921875 53.515625 30.90625 
L 53.515625 0 
L 44.484375 0 
L 44.484375 32.71875 
Q 44.484375 40.625 41.703125 44.40625 
Q 38.921875 48.1875 33.109375 48.1875 
Q 26.21875 48.1875 22.15625 43.53125 
Q 18.109375 38.875 18.109375 30.90625 
L 18.109375 0 
L 9.078125 0 
L 9.078125 54.6875 
L 18.109375 54.6875 
L 18.109375 46.1875 
Q 21.1875 51.21875 25.484375 53.609375 
Q 29.78125 56 35.6875 56 
Q 41.65625 56 45.828125 52.96875 
Q 50 49.953125 52 44.1875 
z
" id="DejaVuSans-109"/>
       <path d="M 56.203125 29.59375 
L 56.203125 25.203125 
L 14.890625 25.203125 
Q 15.484375 15.921875 20.484375 11.0625 
Q 25.484375 6.203125 34.421875 6.203125 
Q 39.59375 6.203125 44.453125 7.46875 
Q 49.3125 8.734375 54.109375 11.28125 
L 54.109375 2.78125 
Q 49.265625 0.734375 44.1875 -0.34375 
Q 39.109375 -1.421875 33.890625 -1.421875 
Q 20.796875 -1.421875 13.15625 6.1875 
Q 5.515625 13.8125 5.515625 26.8125 
Q 5.515625 40.234375 12.765625 48.109375 
Q 20.015625 56 32.328125 56 
Q 43.359375 56 49.78125 48.890625 
Q 56.203125 41.796875 56.203125 29.59375 
z
M 47.21875 32.234375 
Q 47.125 39.59375 43.09375 43.984375 
Q 39.0625 48.390625 32.421875 48.390625 
Q 24.90625 48.390625 20.390625 44.140625 
Q 15.875 39.890625 15.1875 32.171875 
z
" id="DejaVuSans-101"/>
       <path id="DejaVuSans-32"/>
       <path d="M 31 75.875 
Q 24.46875 64.65625 21.28125 53.65625 
Q 18.109375 42.671875 18.109375 31.390625 
Q 18.109375 20.125 21.3125 9.0625 
Q 24.515625 -2 31 -13.1875 
L 23.1875 -13.1875 
Q 15.875 -1.703125 12.234375 9.375 
Q 8.59375 20.453125 8.59375 31.390625 
Q 8.59375 42.28125 12.203125 53.3125 
Q 15.828125 64.359375 23.1875 75.875 
z
" id="DejaVuSans-40"/>
       <path d="M 44.28125 53.078125 
L 44.28125 44.578125 
Q 40.484375 46.53125 36.375 47.5 
Q 32.28125 48.484375 27.875 48.484375 
Q 21.1875 48.484375 17.84375 46.4375 
Q 14.5 44.390625 14.5 40.28125 
Q 14.5 37.15625 16.890625 35.375 
Q 19.28125 33.59375 26.515625 31.984375 
L 29.59375 31.296875 
Q 39.15625 29.25 43.1875 25.515625 
Q 47.21875 21.78125 47.21875 15.09375 
Q 47.21875 7.46875 41.1875 3.015625 
Q 35.15625 -1.421875 24.609375 -1.421875 
Q 20.21875 -1.421875 15.453125 -0.5625 
Q 10.6875 0.296875 5.421875 2 
L 5.421875 11.28125 
Q 10.40625 8.6875 15.234375 7.390625 
Q 20.0625 6.109375 24.8125 6.109375 
Q 31.15625 6.109375 34.5625 8.28125 
Q 37.984375 10.453125 37.984375 14.40625 
Q 37.984375 18.0625 35.515625 20.015625 
Q 33.0625 21.96875 24.703125 23.78125 
L 21.578125 24.515625 
Q 13.234375 26.265625 9.515625 29.90625 
Q 5.8125 33.546875 5.8125 39.890625 
Q 5.8125 47.609375 11.28125 51.796875 
Q 16.75 56 26.8125 56 
Q 31.78125 56 36.171875 55.265625 
Q 40.578125 54.546875 44.28125 53.078125 
z
" id="DejaVuSans-115"/>
       <path d="M 8.015625 75.875 
L 15.828125 75.875 
Q 23.140625 64.359375 26.78125 53.3125 
Q 30.421875 42.28125 30.421875 31.390625 
Q 30.421875 20.453125 26.78125 9.375 
Q 23.140625 -1.703125 15.828125 -13.1875 
L 8.015625 -13.1875 
Q 14.5 -2 17.703125 9.0625 
Q 20.90625 20.125 20.90625 31.390625 
Q 20.90625 42.671875 17.703125 53.65625 
Q 14.5 64.65625 8.015625 75.875 
z
" id="DejaVuSans-41"/>
      </defs>
      <use xlink:href="#DejaVuSans-84"/>
      <use x="57.958984" xlink:href="#DejaVuSans-105"/>
      <use x="85.742188" xlink:href="#DejaVuSans-109"/>
      <use x="183.154297" xlink:href="#DejaVuSans-101"/>
      <use x="244.677734" xlink:href="#DejaVuSans-32"/>
      <use x="276.464844" xlink:href="#DejaVuSans-40"/>
      <use x="315.478516" xlink:href="#DejaVuSans-115"/>
      <use x="367.578125" xlink:href="#DejaVuSans-41"/>
     </g>
    </g>
   </g>
   <g id="matplotlib.axis_2">
    <g id="ytick_1">
     <g id="line2d_4">
      <defs>
       <path d="M 0 0 
L -3.5 0 
" id="mbaadfcb294" style="stroke:#000000;stroke-width:0.8;"/>
      </defs>
      <g>
       <use style="stroke:#000000;stroke-width:0.8;" x="43.78125" xlink:href="#mbaadfcb294" y="179.316307"/>
      </g>
     </g>
     <g id="text_5">
      <!-- 0.0 -->
      <g transform="translate(20.878125 183.115526)scale(0.1 -0.1)">
       <defs>
        <path d="M 10.6875 12.40625 
L 21 12.40625 
L 21 0 
L 10.6875 0 
z
" id="DejaVuSans-46"/>
       </defs>
       <use xlink:href="#DejaVuSans-48"/>
       <use x="63.623047" xlink:href="#DejaVuSans-46"/>
       <use x="95.410156" xlink:href="#DejaVuSans-48"/>
      </g>
     </g>
    </g>
    <g id="ytick_2">
     <g id="line2d_5">
      <g>
       <use style="stroke:#000000;stroke-width:0.8;" x="43.78125" xlink:href="#mbaadfcb294" y="152.909034"/>
      </g>
     </g>
     <g id="text_6">
      <!-- 0.2 -->
      <g transform="translate(20.878125 156.708253)scale(0.1 -0.1)">
       <defs>
        <path d="M 19.1875 8.296875 
L 53.609375 8.296875 
L 53.609375 0 
L 7.328125 0 
L 7.328125 8.296875 
Q 12.9375 14.109375 22.625 23.890625 
Q 32.328125 33.6875 34.8125 36.53125 
Q 39.546875 41.84375 41.421875 45.53125 
Q 43.3125 49.21875 43.3125 52.78125 
Q 43.3125 58.59375 39.234375 62.25 
Q 35.15625 65.921875 28.609375 65.921875 
Q 23.96875 65.921875 18.8125 64.3125 
Q 13.671875 62.703125 7.8125 59.421875 
L 7.8125 69.390625 
Q 13.765625 71.78125 18.9375 73 
Q 24.125 74.21875 28.421875 74.21875 
Q 39.75 74.21875 46.484375 68.546875 
Q 53.21875 62.890625 53.21875 53.421875 
Q 53.21875 48.921875 51.53125 44.890625 
Q 49.859375 40.875 45.40625 35.40625 
Q 44.1875 33.984375 37.640625 27.21875 
Q 31.109375 20.453125 19.1875 8.296875 
z
" id="DejaVuSans-50"/>
       </defs>
       <use xlink:href="#DejaVuSans-48"/>
       <use x="63.623047" xlink:href="#DejaVuSans-46"/>
       <use x="95.410156" xlink:href="#DejaVuSans-50"/>
      </g>
     </g>
    </g>
    <g id="ytick_3">
     <g id="line2d_6">
      <g>
       <use style="stroke:#000000;stroke-width:0.8;" x="43.78125" xlink:href="#mbaadfcb294" y="126.501761"/>
      </g>
     </g>
     <g id="text_7">
      <!-- 0.4 -->
      <g transform="translate(20.878125 130.30098)scale(0.1 -0.1)">
       <defs>
        <path d="M 37.796875 64.3125 
L 12.890625 25.390625 
L 37.796875 25.390625 
z
M 35.203125 72.90625 
L 47.609375 72.90625 
L 47.609375 25.390625 
L 58.015625 25.390625 
L 58.015625 17.1875 
L 47.609375 17.1875 
L 47.609375 0 
L 37.796875 0 
L 37.796875 17.1875 
L 4.890625 17.1875 
L 4.890625 26.703125 
z
" id="DejaVuSans-52"/>
       </defs>
       <use xlink:href="#DejaVuSans-48"/>
       <use x="63.623047" xlink:href="#DejaVuSans-46"/>
       <use x="95.410156" xlink:href="#DejaVuSans-52"/>
      </g>
     </g>
    </g>
    <g id="ytick_4">
     <g id="line2d_7">
      <g>
       <use style="stroke:#000000;stroke-width:0.8;" x="43.78125" xlink:href="#mbaadfcb294" y="100.094489"/>
      </g>
     </g>
     <g id="text_8">
      <!-- 0.6 -->
      <g transform="translate(20.878125 103.893707)scale(0.1 -0.1)">
       <defs>
        <path d="M 33.015625 40.375 
Q 26.375 40.375 22.484375 35.828125 
Q 18.609375 31.296875 18.609375 23.390625 
Q 18.609375 15.53125 22.484375 10.953125 
Q 26.375 6.390625 33.015625 6.390625 
Q 39.65625 6.390625 43.53125 10.953125 
Q 47.40625 15.53125 47.40625 23.390625 
Q 47.40625 31.296875 43.53125 35.828125 
Q 39.65625 40.375 33.015625 40.375 
z
M 52.59375 71.296875 
L 52.59375 62.3125 
Q 48.875 64.0625 45.09375 64.984375 
Q 41.3125 65.921875 37.59375 65.921875 
Q 27.828125 65.921875 22.671875 59.328125 
Q 17.53125 52.734375 16.796875 39.40625 
Q 19.671875 43.65625 24.015625 45.921875 
Q 28.375 48.1875 33.59375 48.1875 
Q 44.578125 48.1875 50.953125 41.515625 
Q 57.328125 34.859375 57.328125 23.390625 
Q 57.328125 12.15625 50.6875 5.359375 
Q 44.046875 -1.421875 33.015625 -1.421875 
Q 20.359375 -1.421875 13.671875 8.265625 
Q 6.984375 17.96875 6.984375 36.375 
Q 6.984375 53.65625 15.1875 63.9375 
Q 23.390625 74.21875 37.203125 74.21875 
Q 40.921875 74.21875 44.703125 73.484375 
Q 48.484375 72.75 52.59375 71.296875 
z
" id="DejaVuSans-54"/>
       </defs>
       <use xlink:href="#DejaVuSans-48"/>
       <use x="63.623047" xlink:href="#DejaVuSans-46"/>
       <use x="95.410156" xlink:href="#DejaVuSans-54"/>
      </g>
     </g>
    </g>
    <g id="ytick_5">
     <g id="line2d_8">
      <g>
       <use style="stroke:#000000;stroke-width:0.8;" x="43.78125" xlink:href="#mbaadfcb294" y="73.687216"/>
      </g>
     </g>
     <g id="text_9">
      <!-- 0.8 -->
      <g transform="translate(20.878125 77.486435)scale(0.1 -0.1)">
       <defs>
        <path d="M 31.78125 34.625 
Q 24.75 34.625 20.71875 30.859375 
Q 16.703125 27.09375 16.703125 20.515625 
Q 16.703125 13.921875 20.71875 10.15625 
Q 24.75 6.390625 31.78125 6.390625 
Q 38.8125 6.390625 42.859375 10.171875 
Q 46.921875 13.96875 46.921875 20.515625 
Q 46.921875 27.09375 42.890625 30.859375 
Q 38.875 34.625 31.78125 34.625 
z
M 21.921875 38.8125 
Q 15.578125 40.375 12.03125 44.71875 
Q 8.5 49.078125 8.5 55.328125 
Q 8.5 64.0625 14.71875 69.140625 
Q 20.953125 74.21875 31.78125 74.21875 
Q 42.671875 74.21875 48.875 69.140625 
Q 55.078125 64.0625 55.078125 55.328125 
Q 55.078125 49.078125 51.53125 44.71875 
Q 48 40.375 41.703125 38.8125 
Q 48.828125 37.15625 52.796875 32.3125 
Q 56.78125 27.484375 56.78125 20.515625 
Q 56.78125 9.90625 50.3125 4.234375 
Q 43.84375 -1.421875 31.78125 -1.421875 
Q 19.734375 -1.421875 13.25 4.234375 
Q 6.78125 9.90625 6.78125 20.515625 
Q 6.78125 27.484375 10.78125 32.3125 
Q 14.796875 37.15625 21.921875 38.8125 
z
M 18.3125 54.390625 
Q 18.3125 48.734375 21.84375 45.5625 
Q 25.390625 42.390625 31.78125 42.390625 
Q 38.140625 42.390625 41.71875 45.5625 
Q 45.3125 48.734375 45.3125 54.390625 
Q 45.3125 60.0625 41.71875 63.234375 
Q 38.140625 66.40625 31.78125 66.40625 
Q 25.390625 66.40625 21.84375 63.234375 
Q 18.3125 60.0625 18.3125 54.390625 
z
" id="DejaVuSans-56"/>
       </defs>
       <use xlink:href="#DejaVuSans-48"/>
       <use x="63.623047" xlink:href="#DejaVuSans-46"/>
       <use x="95.410156" xlink:href="#DejaVuSans-56"/>
      </g>
     </g>
    </g>
    <g id="ytick_6">
     <g id="line2d_9">
      <g>
       <use style="stroke:#000000;stroke-width:0.8;" x="43.78125" xlink:href="#mbaadfcb294" y="47.279943"/>
      </g>
     </g>
     <g id="text_10">
      <!-- 1.0 -->
      <g transform="translate(20.878125 51.079162)scale(0.1 -0.1)">
       <use xlink:href="#DejaVuSans-49"/>
       <use x="63.623047" xlink:href="#DejaVuSans-46"/>
       <use x="95.410156" xlink:href="#DejaVuSans-48"/>
      </g>
     </g>
    </g>
    <g id="text_11">
     <!-- Throttle/Brake (Clipped) -->
     <g transform="translate(14.798438 173.293437)rotate(-90)scale(0.1 -0.1)">
      <defs>
       <path d="M 54.890625 33.015625 
L 54.890625 0 
L 45.90625 0 
L 45.90625 32.71875 
Q 45.90625 40.484375 42.875 44.328125 
Q 39.84375 48.1875 33.796875 48.1875 
Q 26.515625 48.1875 22.3125 43.546875 
Q 18.109375 38.921875 18.109375 30.90625 
L 18.109375 0 
L 9.078125 0 
L 9.078125 75.984375 
L 18.109375 75.984375 
L 18.109375 46.1875 
Q 21.34375 51.125 25.703125 53.5625 
Q 30.078125 56 35.796875 56 
Q 45.21875 56 50.046875 50.171875 
Q 54.890625 44.34375 54.890625 33.015625 
z
" id="DejaVuSans-104"/>
       <path d="M 41.109375 46.296875 
Q 39.59375 47.171875 37.8125 47.578125 
Q 36.03125 48 33.890625 48 
Q 26.265625 48 22.1875 43.046875 
Q 18.109375 38.09375 18.109375 28.8125 
L 18.109375 0 
L 9.078125 0 
L 9.078125 54.6875 
L 18.109375 54.6875 
L 18.109375 46.1875 
Q 20.953125 51.171875 25.484375 53.578125 
Q 30.03125 56 36.53125 56 
Q 37.453125 56 38.578125 55.875 
Q 39.703125 55.765625 41.0625 55.515625 
z
" id="DejaVuSans-114"/>
       <path d="M 30.609375 48.390625 
Q 23.390625 48.390625 19.1875 42.75 
Q 14.984375 37.109375 14.984375 27.296875 
Q 14.984375 17.484375 19.15625 11.84375 
Q 23.34375 6.203125 30.609375 6.203125 
Q 37.796875 6.203125 41.984375 11.859375 
Q 46.1875 17.53125 46.1875 27.296875 
Q 46.1875 37.015625 41.984375 42.703125 
Q 37.796875 48.390625 30.609375 48.390625 
z
M 30.609375 56 
Q 42.328125 56 49.015625 48.375 
Q 55.71875 40.765625 55.71875 27.296875 
Q 55.71875 13.875 49.015625 6.21875 
Q 42.328125 -1.421875 30.609375 -1.421875 
Q 18.84375 -1.421875 12.171875 6.21875 
Q 5.515625 13.875 5.515625 27.296875 
Q 5.515625 40.765625 12.171875 48.375 
Q 18.84375 56 30.609375 56 
z
" id="DejaVuSans-111"/>
       <path d="M 18.3125 70.21875 
L 18.3125 54.6875 
L 36.8125 54.6875 
L 36.8125 47.703125 
L 18.3125 47.703125 
L 18.3125 18.015625 
Q 18.3125 11.328125 20.140625 9.421875 
Q 21.96875 7.515625 27.59375 7.515625 
L 36.8125 7.515625 
L 36.8125 0 
L 27.59375 0 
Q 17.1875 0 13.234375 3.875 
Q 9.28125 7.765625 9.28125 18.015625 
L 9.28125 47.703125 
L 2.6875 47.703125 
L 2.6875 54.6875 
L 9.28125 54.6875 
L 9.28125 70.21875 
z
" id="DejaVuSans-116"/>
       <path d="M 9.421875 75.984375 
L 18.40625 75.984375 
L 18.40625 0 
L 9.421875 0 
z
" id="DejaVuSans-108"/>
       <path d="M 25.390625 72.90625 
L 33.6875 72.90625 
L 8.296875 -9.28125 
L 0 -9.28125 
z
" id="DejaVuSans-47"/>
       <path d="M 19.671875 34.8125 
L 19.671875 8.109375 
L 35.5 8.109375 
Q 43.453125 8.109375 47.28125 11.40625 
Q 51.125 14.703125 51.125 21.484375 
Q 51.125 28.328125 47.28125 31.5625 
Q 43.453125 34.8125 35.5 34.8125 
z
M 19.671875 64.796875 
L 19.671875 42.828125 
L 34.28125 42.828125 
Q 41.5 42.828125 45.03125 45.53125 
Q 48.578125 48.25 48.578125 53.8125 
Q 48.578125 59.328125 45.03125 62.0625 
Q 41.5 64.796875 34.28125 64.796875 
z
M 9.8125 72.90625 
L 35.015625 72.90625 
Q 46.296875 72.90625 52.390625 68.21875 
Q 58.5 63.53125 58.5 54.890625 
Q 58.5 48.1875 55.375 44.234375 
Q 52.25 40.28125 46.1875 39.3125 
Q 53.46875 37.75 57.5 32.78125 
Q 61.53125 27.828125 61.53125 20.40625 
Q 61.53125 10.640625 54.890625 5.3125 
Q 48.25 0 35.984375 0 
L 9.8125 0 
z
" id="DejaVuSans-66"/>
       <path d="M 34.28125 27.484375 
Q 23.390625 27.484375 19.1875 25 
Q 14.984375 22.515625 14.984375 16.5 
Q 14.984375 11.71875 18.140625 8.90625 
Q 21.296875 6.109375 26.703125 6.109375 
Q 34.1875 6.109375 38.703125 11.40625 
Q 43.21875 16.703125 43.21875 25.484375 
L 43.21875 27.484375 
z
M 52.203125 31.203125 
L 52.203125 0 
L 43.21875 0 
L 43.21875 8.296875 
Q 40.140625 3.328125 35.546875 0.953125 
Q 30.953125 -1.421875 24.3125 -1.421875 
Q 15.921875 -1.421875 10.953125 3.296875 
Q 6 8.015625 6 15.921875 
Q 6 25.140625 12.171875 29.828125 
Q 18.359375 34.515625 30.609375 34.515625 
L 43.21875 34.515625 
L 43.21875 35.40625 
Q 43.21875 41.609375 39.140625 45 
Q 35.0625 48.390625 27.6875 48.390625 
Q 23 48.390625 18.546875 47.265625 
Q 14.109375 46.140625 10.015625 43.890625 
L 10.015625 52.203125 
Q 14.9375 54.109375 19.578125 55.046875 
Q 24.21875 56 28.609375 56 
Q 40.484375 56 46.34375 49.84375 
Q 52.203125 43.703125 52.203125 31.203125 
z
" id="DejaVuSans-97"/>
       <path d="M 9.078125 75.984375 
L 18.109375 75.984375 
L 18.109375 31.109375 
L 44.921875 54.6875 
L 56.390625 54.6875 
L 27.390625 29.109375 
L 57.625 0 
L 45.90625 0 
L 18.109375 26.703125 
L 18.109375 0 
L 9.078125 0 
z
" id="DejaVuSans-107"/>
       <path d="M 64.40625 67.28125 
L 64.40625 56.890625 
Q 59.421875 61.53125 53.78125 63.8125 
Q 48.140625 66.109375 41.796875 66.109375 
Q 29.296875 66.109375 22.65625 58.46875 
Q 16.015625 50.828125 16.015625 36.375 
Q 16.015625 21.96875 22.65625 14.328125 
Q 29.296875 6.6875 41.796875 6.6875 
Q 48.140625 6.6875 53.78125 8.984375 
Q 59.421875 11.28125 64.40625 15.921875 
L 64.40625 5.609375 
Q 59.234375 2.09375 53.4375 0.328125 
Q 47.65625 -1.421875 41.21875 -1.421875 
Q 24.65625 -1.421875 15.125 8.703125 
Q 5.609375 18.84375 5.609375 36.375 
Q 5.609375 53.953125 15.125 64.078125 
Q 24.65625 74.21875 41.21875 74.21875 
Q 47.75 74.21875 53.53125 72.484375 
Q 59.328125 70.75 64.40625 67.28125 
z
" id="DejaVuSans-67"/>
       <path d="M 18.109375 8.203125 
L 18.109375 -20.796875 
L 9.078125 -20.796875 
L 9.078125 54.6875 
L 18.109375 54.6875 
L 18.109375 46.390625 
Q 20.953125 51.265625 25.265625 53.625 
Q 29.59375 56 35.59375 56 
Q 45.5625 56 51.78125 48.09375 
Q 58.015625 40.1875 58.015625 27.296875 
Q 58.015625 14.40625 51.78125 6.484375 
Q 45.5625 -1.421875 35.59375 -1.421875 
Q 29.59375 -1.421875 25.265625 0.953125 
Q 20.953125 3.328125 18.109375 8.203125 
z
M 48.6875 27.296875 
Q 48.6875 37.203125 44.609375 42.84375 
Q 40.53125 48.484375 33.40625 48.484375 
Q 26.265625 48.484375 22.1875 42.84375 
Q 18.109375 37.203125 18.109375 27.296875 
Q 18.109375 17.390625 22.1875 11.75 
Q 26.265625 6.109375 33.40625 6.109375 
Q 40.53125 6.109375 44.609375 11.75 
Q 48.6875 17.390625 48.6875 27.296875 
z
" id="DejaVuSans-112"/>
       <path d="M 45.40625 46.390625 
L 45.40625 75.984375 
L 54.390625 75.984375 
L 54.390625 0 
L 45.40625 0 
L 45.40625 8.203125 
Q 42.578125 3.328125 38.25 0.953125 
Q 33.9375 -1.421875 27.875 -1.421875 
Q 17.96875 -1.421875 11.734375 6.484375 
Q 5.515625 14.40625 5.515625 27.296875 
Q 5.515625 40.1875 11.734375 48.09375 
Q 17.96875 56 27.875 56 
Q 33.9375 56 38.25 53.625 
Q 42.578125 51.265625 45.40625 46.390625 
z
M 14.796875 27.296875 
Q 14.796875 17.390625 18.875 11.75 
Q 22.953125 6.109375 30.078125 6.109375 
Q 37.203125 6.109375 41.296875 11.75 
Q 45.40625 17.390625 45.40625 27.296875 
Q 45.40625 37.203125 41.296875 42.84375 
Q 37.203125 48.484375 30.078125 48.484375 
Q 22.953125 48.484375 18.875 42.84375 
Q 14.796875 37.203125 14.796875 27.296875 
z
" id="DejaVuSans-100"/>
      </defs>
      <use xlink:href="#DejaVuSans-84"/>
      <use x="61.083984" xlink:href="#DejaVuSans-104"/>
      <use x="124.462891" xlink:href="#DejaVuSans-114"/>
      <use x="163.326172" xlink:href="#DejaVuSans-111"/>
      <use x="224.507812" xlink:href="#DejaVuSans-116"/>
      <use x="263.716797" xlink:href="#DejaVuSans-116"/>
      <use x="302.925781" xlink:href="#DejaVuSans-108"/>
      <use x="330.708984" xlink:href="#DejaVuSans-101"/>
      <use x="392.232422" xlink:href="#DejaVuSans-47"/>
      <use x="425.923828" xlink:href="#DejaVuSans-66"/>
      <use x="494.527344" xlink:href="#DejaVuSans-114"/>
      <use x="535.640625" xlink:href="#DejaVuSans-97"/>
      <use x="596.919922" xlink:href="#DejaVuSans-107"/>
      <use x="651.205078" xlink:href="#DejaVuSans-101"/>
      <use x="712.728516" xlink:href="#DejaVuSans-32"/>
      <use x="744.515625" xlink:href="#DejaVuSans-40"/>
      <use x="783.529297" xlink:href="#DejaVuSans-67"/>
      <use x="853.353516" xlink:href="#DejaVuSans-108"/>
      <use x="881.136719" xlink:href="#DejaVuSans-105"/>
      <use x="908.919922" xlink:href="#DejaVuSans-112"/>
      <use x="972.396484" xlink:href="#DejaVuSans-112"/>
      <use x="1035.873047" xlink:href="#DejaVuSans-101"/>
      <use x="1097.396484" xlink:href="#DejaVuSans-100"/>
      <use x="1160.873047" xlink:href="#DejaVuSans-41"/>
     </g>
    </g>
   </g>
   <g id="line2d_10">
    <path clip-path="url(#p6b1b8fa3b1)" d="M 52.678068 179.316307 
L 230.614432 179.316307 
L 230.614432 179.316307 
" style="fill:none;stroke:#000000;stroke-linecap:square;stroke-width:0.5;"/>
   </g>
   <g id="line2d_11">
    <path clip-path="url(#p6b1b8fa3b1)" d="M 52.678068 47.279943 
L 230.614432 47.279943 
L 230.614432 47.279943 
" style="fill:none;stroke:#000000;stroke-linecap:square;stroke-width:0.5;"/>
   </g>
   <g id="line2d_12">
    <path clip-path="url(#p6b1b8fa3b1)" d="M 52.678068 56.441882 
L 53.958186 57.555792 
L 55.238304 57.762341 
L 56.518421 57.069699 
L 57.798539 57.353867 
L 59.078657 58.944681 
L 60.358775 57.026647 
L 61.638892 56.629154 
L 62.91901 55.873045 
L 64.199128 56.919165 
L 65.479245 56.488314 
L 66.759363 55.040913 
L 68.039481 57.328257 
L 69.319599 56.625992 
L 70.599716 55.76766 
L 71.879834 56.915432 
L 73.159952 56.102198 
L 74.440069 55.04187 
L 77.000305 54.00428 
L 78.280423 55.316937 
L 80.840658 55.415633 
L 82.120776 54.450155 
L 83.400894 55.088669 
L 84.681011 54.971456 
L 85.961129 54.603558 
L 87.241247 52.99221 
L 88.521364 54.426323 
L 89.801482 53.643881 
L 91.0816 54.180402 
L 92.361718 54.366638 
L 93.641835 54.120046 
L 94.921953 54.359137 
L 96.202071 53.886719 
L 97.482189 54.448906 
L 98.762306 55.769026 
L 100.042424 54.503798 
L 101.322542 55.659204 
L 102.602659 55.558894 
L 103.882777 55.94208 
L 105.162895 55.716095 
L 106.443013 55.700625 
L 107.72313 54.136827 
L 109.003248 54.614845 
L 110.283366 54.500294 
L 111.563483 55.378225 
L 112.843601 54.067218 
L 114.123719 55.105423 
L 115.403837 53.812261 
L 117.964072 54.849749 
L 119.24419 55.14188 
L 120.524308 54.607096 
L 121.804425 55.102481 
L 123.084543 53.81106 
L 124.364661 54.351645 
L 125.644778 56.419942 
L 126.924896 56.796443 
L 128.205014 55.768134 
L 129.485132 55.497639 
L 130.765249 55.894615 
L 132.045367 55.398127 
L 134.605603 55.175152 
L 135.88572 56.38632 
L 137.165838 56.265757 
L 138.445956 56.805671 
L 139.726073 55.146288 
L 141.006191 55.510633 
L 142.286309 55.100037 
L 143.566427 56.839287 
L 146.126662 56.820321 
L 147.40678 56.819007 
L 148.686897 54.843276 
L 149.967015 55.569351 
L 151.247133 55.304828 
L 153.807368 56.594119 
L 155.087486 56.384471 
L 156.367604 55.857693 
L 157.647722 53.737918 
L 158.927839 55.376344 
L 160.207957 56.501856 
L 161.488075 56.926797 
L 162.768192 55.743481 
L 164.04831 55.240937 
L 165.328428 55.126566 
L 166.608546 56.271152 
L 167.888663 54.991434 
L 169.168781 57.191815 
L 170.448899 55.753137 
L 171.729017 55.636584 
L 173.009134 55.771485 
L 174.289252 57.005386 
L 175.56937 55.920593 
L 176.849487 56.541644 
L 178.129605 56.358514 
L 179.409723 55.477462 
L 180.689841 56.654361 
L 181.969958 56.898371 
L 183.250076 57.440092 
L 184.530194 54.915914 
L 185.810311 56.537293 
L 187.090429 57.187964 
L 188.370547 55.838002 
L 189.650665 57.191251 
L 190.930782 58.118946 
L 192.2109 57.762488 
L 193.491018 56.786457 
L 194.771136 57.570255 
L 196.051253 56.860248 
L 198.611489 56.357195 
L 199.891606 54.746207 
L 201.171724 55.826078 
L 202.451842 56.337376 
L 203.73196 56.359924 
L 205.012077 56.673419 
L 206.292195 57.108606 
L 207.572313 56.13035 
L 208.852431 55.859627 
L 210.132548 54.664876 
L 211.412666 56.945825 
L 212.692784 55.905188 
L 213.972901 56.214965 
L 215.253019 57.099109 
L 216.533137 58.737566 
L 217.813255 57.241338 
L 219.093372 58.622498 
L 220.37349 57.57509 
L 221.653608 59.057836 
L 222.933725 57.887352 
L 225.493961 56.520515 
L 226.774079 57.878703 
L 228.054196 57.349366 
L 229.334314 57.251635 
L 230.614432 58.192469 
L 230.614432 58.192469 
" style="fill:none;stroke:#1f77b4;stroke-linecap:square;stroke-width:1.5;"/>
   </g>
   <g id="line2d_13">
    <path clip-path="url(#p6b1b8fa3b1)" d="M 52.678068 179.316307 
L 230.614432 179.316307 
L 230.614432 179.316307 
" style="fill:none;stroke:#000000;stroke-linecap:square;stroke-width:0.5;"/>
   </g>
   <g id="line2d_14">
    <path clip-path="url(#p6b1b8fa3b1)" d="M 52.678068 47.279943 
L 230.614432 47.279943 
L 230.614432 47.279943 
" style="fill:none;stroke:#000000;stroke-linecap:square;stroke-width:0.5;"/>
   </g>
   <g id="line2d_15">
    <path clip-path="url(#p6b1b8fa3b1)" d="M 52.678068 66.767275 
L 53.958186 70.116182 
L 55.238304 67.077999 
L 56.518421 66.185076 
L 57.798539 68.80389 
L 59.078657 63.024714 
L 61.638892 58.735541 
L 62.91901 61.011373 
L 64.199128 59.74085 
L 65.479245 59.890103 
L 66.759363 60.302821 
L 68.039481 60.483854 
L 69.319599 62.693153 
L 70.599716 62.291563 
L 73.159952 58.155131 
L 74.440069 58.807536 
L 75.720187 55.112348 
L 77.000305 56.044001 
L 78.280423 56.5843 
L 79.56054 59.135223 
L 80.840658 57.095704 
L 82.120776 57.105715 
L 83.400894 56.268422 
L 84.681011 57.404386 
L 85.961129 56.933576 
L 87.241247 57.907781 
L 88.521364 57.711772 
L 89.801482 56.390542 
L 91.0816 55.336418 
L 92.361718 55.983061 
L 93.641835 57.562591 
L 94.921953 57.185884 
L 96.202071 57.314886 
L 97.482189 56.258389 
L 98.762306 57.249935 
L 100.042424 56.946098 
L 101.322542 57.012344 
L 102.602659 56.036306 
L 103.882777 56.026763 
L 105.162895 55.263298 
L 106.443013 55.178832 
L 107.72313 54.848003 
L 109.003248 55.046708 
L 110.283366 53.960658 
L 111.563483 54.459586 
L 112.843601 53.735699 
L 114.123719 54.683148 
L 116.683954 55.010128 
L 117.964072 56.783936 
L 119.24419 55.770367 
L 120.524308 55.609318 
L 121.804425 53.645347 
L 124.364661 53.429767 
L 125.644778 56.664443 
L 126.924896 55.551042 
L 128.205014 55.009901 
L 129.485132 55.688938 
L 130.765249 55.953687 
L 132.045367 55.306107 
L 133.325485 55.052562 
L 134.605603 55.967422 
L 135.88572 53.960821 
L 138.445956 55.845234 
L 139.726073 55.937603 
L 141.006191 54.724925 
L 142.286309 53.874377 
L 143.566427 56.844768 
L 144.846544 55.191571 
L 146.126662 54.741328 
L 147.40678 55.475599 
L 148.686897 55.579054 
L 149.967015 57.116848 
L 152.527251 56.77339 
L 153.807368 55.281944 
L 155.087486 55.777959 
L 156.367604 55.214649 
L 157.647722 55.144028 
L 158.927839 55.575839 
L 160.207957 55.524109 
L 161.488075 55.297786 
L 162.768192 54.846079 
L 164.04831 55.983826 
L 165.328428 54.293152 
L 166.608546 55.910348 
L 167.888663 55.849956 
L 169.168781 54.568185 
L 170.448899 55.308735 
L 171.729017 54.567454 
L 173.009134 56.232562 
L 174.289252 54.12127 
L 175.56937 54.944778 
L 176.849487 55.151961 
L 178.129605 56.087817 
L 179.409723 55.512004 
L 180.689841 55.30538 
L 181.969958 56.064453 
L 183.250076 54.761957 
L 184.530194 56.222042 
L 185.810311 55.90767 
L 187.090429 54.35636 
L 188.370547 55.858706 
L 189.650665 54.948704 
L 190.930782 54.3895 
L 192.2109 54.940794 
L 193.491018 53.828133 
L 194.771136 56.350642 
L 196.051253 55.643624 
L 197.331371 56.403258 
L 199.891606 53.698934 
L 201.171724 55.045784 
L 202.451842 54.185416 
L 203.73196 54.345631 
L 205.012077 53.303102 
L 206.292195 54.734361 
L 207.572313 52.695644 
L 208.852431 53.471942 
L 210.132548 54.750551 
L 211.412666 54.309499 
L 212.692784 54.499153 
L 213.972901 54.029226 
L 215.253019 56.134103 
L 216.533137 54.470708 
L 217.813255 54.28474 
L 219.093372 54.88044 
L 220.37349 54.14294 
L 221.653608 54.378202 
L 222.933725 54.203239 
L 224.213843 53.800346 
L 225.493961 53.251289 
L 226.774079 53.536785 
L 228.054196 54.255424 
L 229.334314 54.537076 
L 230.614432 53.863551 
L 230.614432 53.863551 
" style="fill:none;stroke:#ff7f0e;stroke-linecap:square;stroke-width:1.5;"/>
   </g>
   <g id="line2d_16">
    <path clip-path="url(#p6b1b8fa3b1)" d="M 52.678068 179.316307 
L 230.614432 179.316307 
L 230.614432 179.316307 
" style="fill:none;stroke:#000000;stroke-linecap:square;stroke-width:0.5;"/>
   </g>
   <g id="line2d_17">
    <path clip-path="url(#p6b1b8fa3b1)" d="M 52.678068 47.279943 
L 230.614432 47.279943 
L 230.614432 47.279943 
" style="fill:none;stroke:#000000;stroke-linecap:square;stroke-width:0.5;"/>
   </g>
   <g id="line2d_18">
    <path clip-path="url(#p6b1b8fa3b1)" d="M 52.678068 83.855677 
L 53.958186 85.117139 
L 55.238304 94.20109 
L 56.518421 78.416603 
L 59.078657 68.210307 
L 60.358775 63.103143 
L 61.638892 63.788014 
L 62.91901 65.416829 
L 64.199128 64.232708 
L 65.479245 65.53651 
L 66.759363 62.127215 
L 68.039481 62.340699 
L 69.319599 62.267334 
L 70.599716 63.964463 
L 71.879834 62.050342 
L 73.159952 61.389281 
L 74.440069 61.864326 
L 75.720187 61.961408 
L 77.000305 62.804575 
L 78.280423 63.061318 
L 79.56054 63.148423 
L 80.840658 62.005304 
L 82.120776 62.668217 
L 83.400894 60.483925 
L 84.681011 62.166513 
L 85.961129 62.229878 
L 87.241247 60.25946 
L 88.521364 59.447801 
L 89.801482 62.263864 
L 91.0816 60.763982 
L 92.361718 62.337517 
L 93.641835 61.44304 
L 94.921953 60.889156 
L 96.202071 61.394063 
L 97.482189 62.20693 
L 98.762306 59.4982 
L 100.042424 60.093572 
L 101.322542 58.624646 
L 102.602659 59.3019 
L 103.882777 59.828396 
L 105.162895 59.362243 
L 106.443013 59.654897 
L 107.72313 59.780713 
L 110.283366 58.911065 
L 111.563483 59.003808 
L 112.843601 57.750985 
L 114.123719 57.440634 
L 115.403837 57.449377 
L 116.683954 55.956082 
L 117.964072 54.982515 
L 119.24419 54.856982 
L 120.524308 56.117346 
L 121.804425 54.919141 
L 123.084543 55.108482 
L 124.364661 56.546177 
L 125.644778 56.779795 
L 126.924896 57.636202 
L 128.205014 56.875812 
L 129.485132 57.693151 
L 130.765249 58.202528 
L 132.045367 57.286028 
L 133.325485 57.843854 
L 135.88572 57.361495 
L 137.165838 57.543331 
L 138.445956 57.539992 
L 139.726073 56.855112 
L 141.006191 57.474508 
L 142.286309 59.54278 
L 143.566427 57.772987 
L 144.846544 57.091615 
L 146.126662 58.149264 
L 147.40678 57.457608 
L 148.686897 58.671774 
L 149.967015 56.626419 
L 151.247133 56.789686 
L 152.527251 57.379444 
L 153.807368 57.6939 
L 155.087486 58.778231 
L 156.367604 58.310208 
L 157.647722 59.304083 
L 158.927839 59.421154 
L 160.207957 58.665334 
L 161.488075 58.710789 
L 162.768192 57.773893 
L 164.04831 58.256723 
L 165.328428 57.548468 
L 166.608546 58.987977 
L 167.888663 58.59762 
L 170.448899 58.267535 
L 171.729017 59.303984 
L 173.009134 55.844229 
L 174.289252 56.815234 
L 175.56937 57.381054 
L 176.849487 57.736228 
L 178.129605 57.720546 
L 179.409723 59.05219 
L 180.689841 57.654423 
L 181.969958 55.637499 
L 183.250076 56.437879 
L 184.530194 56.457405 
L 185.810311 57.614493 
L 187.090429 56.204795 
L 188.370547 57.218103 
L 189.650665 56.877462 
L 190.930782 56.079812 
L 192.2109 56.496688 
L 193.491018 57.139967 
L 194.771136 56.827824 
L 196.051253 57.895952 
L 197.331371 57.909622 
L 198.611489 57.642367 
L 199.891606 58.207785 
L 201.171724 55.882996 
L 202.451842 55.745357 
L 203.73196 57.659692 
L 205.012077 58.444604 
L 206.292195 57.328022 
L 207.572313 57.19288 
L 208.852431 56.402078 
L 210.132548 56.569542 
L 211.412666 57.914898 
L 212.692784 56.876672 
L 213.972901 57.24144 
L 215.253019 57.176898 
L 216.533137 57.547934 
L 217.813255 58.090951 
L 219.093372 58.255924 
L 220.37349 58.902643 
L 224.213843 57.48026 
L 225.493961 57.026825 
L 226.774079 57.697184 
L 228.054196 57.366186 
L 229.334314 57.827844 
L 230.614432 57.944299 
L 230.614432 57.944299 
" style="fill:none;stroke:#2ca02c;stroke-linecap:square;stroke-width:1.5;"/>
   </g>
   <g id="line2d_19">
    <path clip-path="url(#p6b1b8fa3b1)" d="M 52.678068 179.316307 
L 230.614432 179.316307 
L 230.614432 179.316307 
" style="fill:none;stroke:#000000;stroke-linecap:square;stroke-width:0.5;"/>
   </g>
   <g id="line2d_20">
    <path clip-path="url(#p6b1b8fa3b1)" d="M 52.678068 47.279943 
L 230.614432 47.279943 
L 230.614432 47.279943 
" style="fill:none;stroke:#000000;stroke-linecap:square;stroke-width:0.5;"/>
   </g>
   <g id="line2d_21">
    <path clip-path="url(#p6b1b8fa3b1)" d="M 52.678068 85.169471 
L 53.958186 87.065813 
L 55.238304 96.364587 
L 56.518421 82.436768 
L 57.798539 73.511415 
L 59.078657 68.767961 
L 60.358775 64.812357 
L 61.638892 62.165513 
L 62.91901 62.571268 
L 64.199128 64.0383 
L 65.479245 63.21949 
L 68.039481 59.521046 
L 69.319599 62.141193 
L 70.599716 63.324163 
L 71.879834 63.182171 
L 73.159952 60.561008 
L 74.440069 59.81468 
L 75.720187 60.694305 
L 77.000305 62.889093 
L 78.280423 63.999847 
L 79.56054 63.73835 
L 80.840658 62.038908 
L 82.120776 60.99941 
L 83.400894 60.6642 
L 84.681011 61.25047 
L 85.961129 61.491463 
L 87.241247 60.775515 
L 88.521364 61.579175 
L 89.801482 59.419904 
L 91.0816 60.737069 
L 92.361718 60.875655 
L 93.641835 61.360279 
L 94.921953 62.833176 
L 97.482189 60.775325 
L 100.042424 61.918174 
L 101.322542 61.569977 
L 102.602659 59.678603 
L 103.882777 59.758821 
L 105.162895 59.459055 
L 106.443013 58.765214 
L 109.003248 59.330216 
L 110.283366 59.760174 
L 111.563483 58.976261 
L 112.843601 57.806058 
L 114.123719 57.444319 
L 115.403837 56.898005 
L 119.24419 55.776735 
L 120.524308 56.060575 
L 121.804425 55.7407 
L 123.084543 56.181428 
L 124.364661 58.022545 
L 125.644778 59.294534 
L 126.924896 58.876164 
L 128.205014 57.769075 
L 129.485132 58.193672 
L 130.765249 57.780461 
L 132.045367 58.212025 
L 133.325485 58.504185 
L 134.605603 57.28717 
L 135.88572 57.876526 
L 137.165838 57.306428 
L 138.445956 57.142565 
L 139.726073 56.682569 
L 141.006191 57.913273 
L 142.286309 58.345336 
L 143.566427 58.939615 
L 144.846544 57.620409 
L 146.126662 59.148513 
L 147.40678 57.236065 
L 148.686897 56.628651 
L 149.967015 57.686418 
L 151.247133 55.962674 
L 152.527251 56.955373 
L 153.807368 58.823034 
L 155.087486 59.479304 
L 156.367604 58.918754 
L 157.647722 59.318265 
L 158.927839 58.711192 
L 160.207957 60.643892 
L 161.488075 58.779542 
L 162.768192 58.649571 
L 164.04831 58.775158 
L 165.328428 58.39686 
L 166.608546 59.223131 
L 167.888663 59.06176 
L 169.168781 57.761875 
L 170.448899 57.251303 
L 171.729017 56.103569 
L 173.009134 57.493625 
L 174.289252 56.746531 
L 175.56937 58.273752 
L 176.849487 57.853433 
L 178.129605 58.851583 
L 179.409723 58.488368 
L 180.689841 56.09462 
L 181.969958 56.626014 
L 183.250076 55.663394 
L 184.530194 56.516791 
L 185.810311 56.540402 
L 187.090429 55.997869 
L 189.650665 57.924715 
L 190.930782 57.511275 
L 193.491018 57.941624 
L 194.771136 59.818852 
L 196.051253 59.704163 
L 197.331371 57.625715 
L 198.611489 57.770708 
L 199.891606 56.468002 
L 201.171724 56.588267 
L 202.451842 58.248976 
L 203.73196 57.449013 
L 205.012077 57.634444 
L 207.572313 58.444065 
L 208.852431 58.635235 
L 210.132548 59.32746 
L 211.412666 59.240298 
L 212.692784 59.992847 
L 213.972901 59.250306 
L 215.253019 58.756236 
L 216.533137 58.980995 
L 217.813255 58.69147 
L 219.093372 59.664404 
L 220.37349 60.241741 
L 221.653608 59.183515 
L 222.933725 59.613874 
L 224.213843 58.587759 
L 225.493961 57.979788 
L 226.774079 58.706769 
L 228.054196 56.927805 
L 229.334314 57.237392 
L 230.614432 56.143131 
L 230.614432 56.143131 
" style="fill:none;stroke:#d62728;stroke-linecap:square;stroke-width:1.5;"/>
   </g>
   <g id="patch_3">
    <path d="M 43.78125 185.918125 
L 43.78125 40.678125 
" style="fill:none;stroke:#000000;stroke-linecap:square;stroke-linejoin:miter;stroke-width:0.8;"/>
   </g>
   <g id="patch_4">
    <path d="M 239.51125 185.918125 
L 239.51125 40.678125 
" style="fill:none;stroke:#000000;stroke-linecap:square;stroke-linejoin:miter;stroke-width:0.8;"/>
   </g>
   <g id="patch_5">
    <path d="M 43.78125 185.918125 
L 239.51125 185.918125 
" style="fill:none;stroke:#000000;stroke-linecap:square;stroke-linejoin:miter;stroke-width:0.8;"/>
   </g>
   <g id="patch_6">
    <path d="M 43.78125 40.678125 
L 239.51125 40.678125 
" style="fill:none;stroke:#000000;stroke-linecap:square;stroke-linejoin:miter;stroke-width:0.8;"/>
   </g>
  </g>
  <g id="axes_2">
   <g id="patch_7">
    <path d="M 293.53125 185.918125 
L 489.26125 185.918125 
L 489.26125 40.678125 
L 293.53125 40.678125 
z
" style="fill:#ffffff;"/>
   </g>
   <g id="matplotlib.axis_3">
    <g id="xtick_4">
     <g id="line2d_22">
      <g>
       <use style="stroke:#000000;stroke-width:0.8;" x="302.428068" xlink:href="#m1897b55fd8" y="185.918125"/>
      </g>
     </g>
     <g id="text_12">
      <!-- 0 -->
      <g transform="translate(299.246818 200.516562)scale(0.1 -0.1)">
       <use xlink:href="#DejaVuSans-48"/>
      </g>
     </g>
    </g>
    <g id="xtick_5">
     <g id="line2d_23">
      <g>
       <use style="stroke:#000000;stroke-width:0.8;" x="366.433954" xlink:href="#m1897b55fd8" y="185.918125"/>
      </g>
     </g>
     <g id="text_13">
      <!-- 5 -->
      <g transform="translate(363.252704 200.516562)scale(0.1 -0.1)">
       <use xlink:href="#DejaVuSans-53"/>
      </g>
     </g>
    </g>
    <g id="xtick_6">
     <g id="line2d_24">
      <g>
       <use style="stroke:#000000;stroke-width:0.8;" x="430.439841" xlink:href="#m1897b55fd8" y="185.918125"/>
      </g>
     </g>
     <g id="text_14">
      <!-- 10 -->
      <g transform="translate(424.077341 200.516562)scale(0.1 -0.1)">
       <use xlink:href="#DejaVuSans-49"/>
       <use x="63.623047" xlink:href="#DejaVuSans-48"/>
      </g>
     </g>
    </g>
    <g id="text_15">
     <!-- Time (s) -->
     <g transform="translate(371.067344 214.194687)scale(0.1 -0.1)">
      <use xlink:href="#DejaVuSans-84"/>
      <use x="57.958984" xlink:href="#DejaVuSans-105"/>
      <use x="85.742188" xlink:href="#DejaVuSans-109"/>
      <use x="183.154297" xlink:href="#DejaVuSans-101"/>
      <use x="244.677734" xlink:href="#DejaVuSans-32"/>
      <use x="276.464844" xlink:href="#DejaVuSans-40"/>
      <use x="315.478516" xlink:href="#DejaVuSans-115"/>
      <use x="367.578125" xlink:href="#DejaVuSans-41"/>
     </g>
    </g>
   </g>
   <g id="matplotlib.axis_4">
    <g id="ytick_7">
     <g id="line2d_25">
      <g>
       <use style="stroke:#000000;stroke-width:0.8;" x="293.53125" xlink:href="#mbaadfcb294" y="179.316307"/>
      </g>
     </g>
     <g id="text_16">
      <!-- 0.00 -->
      <g transform="translate(264.265625 183.115526)scale(0.1 -0.1)">
       <use xlink:href="#DejaVuSans-48"/>
       <use x="63.623047" xlink:href="#DejaVuSans-46"/>
       <use x="95.410156" xlink:href="#DejaVuSans-48"/>
       <use x="159.033203" xlink:href="#DejaVuSans-48"/>
      </g>
     </g>
    </g>
    <g id="ytick_8">
     <g id="line2d_26">
      <g>
       <use style="stroke:#000000;stroke-width:0.8;" x="293.53125" xlink:href="#mbaadfcb294" y="158.302067"/>
      </g>
     </g>
     <g id="text_17">
      <!-- 0.05 -->
      <g transform="translate(264.265625 162.101286)scale(0.1 -0.1)">
       <use xlink:href="#DejaVuSans-48"/>
       <use x="63.623047" xlink:href="#DejaVuSans-46"/>
       <use x="95.410156" xlink:href="#DejaVuSans-48"/>
       <use x="159.033203" xlink:href="#DejaVuSans-53"/>
      </g>
     </g>
    </g>
    <g id="ytick_9">
     <g id="line2d_27">
      <g>
       <use style="stroke:#000000;stroke-width:0.8;" x="293.53125" xlink:href="#mbaadfcb294" y="137.287827"/>
      </g>
     </g>
     <g id="text_18">
      <!-- 0.10 -->
      <g transform="translate(264.265625 141.087046)scale(0.1 -0.1)">
       <use xlink:href="#DejaVuSans-48"/>
       <use x="63.623047" xlink:href="#DejaVuSans-46"/>
       <use x="95.410156" xlink:href="#DejaVuSans-49"/>
       <use x="159.033203" xlink:href="#DejaVuSans-48"/>
      </g>
     </g>
    </g>
    <g id="ytick_10">
     <g id="line2d_28">
      <g>
       <use style="stroke:#000000;stroke-width:0.8;" x="293.53125" xlink:href="#mbaadfcb294" y="116.273587"/>
      </g>
     </g>
     <g id="text_19">
      <!-- 0.15 -->
      <g transform="translate(264.265625 120.072806)scale(0.1 -0.1)">
       <use xlink:href="#DejaVuSans-48"/>
       <use x="63.623047" xlink:href="#DejaVuSans-46"/>
       <use x="95.410156" xlink:href="#DejaVuSans-49"/>
       <use x="159.033203" xlink:href="#DejaVuSans-53"/>
      </g>
     </g>
    </g>
    <g id="ytick_11">
     <g id="line2d_29">
      <g>
       <use style="stroke:#000000;stroke-width:0.8;" x="293.53125" xlink:href="#mbaadfcb294" y="95.259347"/>
      </g>
     </g>
     <g id="text_20">
      <!-- 0.20 -->
      <g transform="translate(264.265625 99.058566)scale(0.1 -0.1)">
       <use xlink:href="#DejaVuSans-48"/>
       <use x="63.623047" xlink:href="#DejaVuSans-46"/>
       <use x="95.410156" xlink:href="#DejaVuSans-50"/>
       <use x="159.033203" xlink:href="#DejaVuSans-48"/>
      </g>
     </g>
    </g>
    <g id="ytick_12">
     <g id="line2d_30">
      <g>
       <use style="stroke:#000000;stroke-width:0.8;" x="293.53125" xlink:href="#mbaadfcb294" y="74.245107"/>
      </g>
     </g>
     <g id="text_21">
      <!-- 0.25 -->
      <g transform="translate(264.265625 78.044326)scale(0.1 -0.1)">
       <use xlink:href="#DejaVuSans-48"/>
       <use x="63.623047" xlink:href="#DejaVuSans-46"/>
       <use x="95.410156" xlink:href="#DejaVuSans-50"/>
       <use x="159.033203" xlink:href="#DejaVuSans-53"/>
      </g>
     </g>
    </g>
    <g id="ytick_13">
     <g id="line2d_31">
      <g>
       <use style="stroke:#000000;stroke-width:0.8;" x="293.53125" xlink:href="#mbaadfcb294" y="53.230867"/>
      </g>
     </g>
     <g id="text_22">
      <!-- 0.30 -->
      <g transform="translate(264.265625 57.030086)scale(0.1 -0.1)">
       <defs>
        <path d="M 40.578125 39.3125 
Q 47.65625 37.796875 51.625 33 
Q 55.609375 28.21875 55.609375 21.1875 
Q 55.609375 10.40625 48.1875 4.484375 
Q 40.765625 -1.421875 27.09375 -1.421875 
Q 22.515625 -1.421875 17.65625 -0.515625 
Q 12.796875 0.390625 7.625 2.203125 
L 7.625 11.71875 
Q 11.71875 9.328125 16.59375 8.109375 
Q 21.484375 6.890625 26.8125 6.890625 
Q 36.078125 6.890625 40.9375 10.546875 
Q 45.796875 14.203125 45.796875 21.1875 
Q 45.796875 27.640625 41.28125 31.265625 
Q 36.765625 34.90625 28.71875 34.90625 
L 20.21875 34.90625 
L 20.21875 43.015625 
L 29.109375 43.015625 
Q 36.375 43.015625 40.234375 45.921875 
Q 44.09375 48.828125 44.09375 54.296875 
Q 44.09375 59.90625 40.109375 62.90625 
Q 36.140625 65.921875 28.71875 65.921875 
Q 24.65625 65.921875 20.015625 65.03125 
Q 15.375 64.15625 9.8125 62.3125 
L 9.8125 71.09375 
Q 15.4375 72.65625 20.34375 73.4375 
Q 25.25 74.21875 29.59375 74.21875 
Q 40.828125 74.21875 47.359375 69.109375 
Q 53.90625 64.015625 53.90625 55.328125 
Q 53.90625 49.265625 50.4375 45.09375 
Q 46.96875 40.921875 40.578125 39.3125 
z
" id="DejaVuSans-51"/>
       </defs>
       <use xlink:href="#DejaVuSans-48"/>
       <use x="63.623047" xlink:href="#DejaVuSans-46"/>
       <use x="95.410156" xlink:href="#DejaVuSans-51"/>
       <use x="159.033203" xlink:href="#DejaVuSans-48"/>
      </g>
     </g>
    </g>
    <g id="text_23">
     <!-- Steering Angle (Clipped) -->
     <g transform="translate(258.185938 174.550469)rotate(-90)scale(0.1 -0.1)">
      <defs>
       <path d="M 53.515625 70.515625 
L 53.515625 60.890625 
Q 47.90625 63.578125 42.921875 64.890625 
Q 37.9375 66.21875 33.296875 66.21875 
Q 25.25 66.21875 20.875 63.09375 
Q 16.5 59.96875 16.5 54.203125 
Q 16.5 49.359375 19.40625 46.890625 
Q 22.3125 44.4375 30.421875 42.921875 
L 36.375 41.703125 
Q 47.40625 39.59375 52.65625 34.296875 
Q 57.90625 29 57.90625 20.125 
Q 57.90625 9.515625 50.796875 4.046875 
Q 43.703125 -1.421875 29.984375 -1.421875 
Q 24.8125 -1.421875 18.96875 -0.25 
Q 13.140625 0.921875 6.890625 3.21875 
L 6.890625 13.375 
Q 12.890625 10.015625 18.65625 8.296875 
Q 24.421875 6.59375 29.984375 6.59375 
Q 38.421875 6.59375 43.015625 9.90625 
Q 47.609375 13.234375 47.609375 19.390625 
Q 47.609375 24.75 44.3125 27.78125 
Q 41.015625 30.8125 33.5 32.328125 
L 27.484375 33.5 
Q 16.453125 35.6875 11.515625 40.375 
Q 6.59375 45.0625 6.59375 53.421875 
Q 6.59375 63.09375 13.40625 68.65625 
Q 20.21875 74.21875 32.171875 74.21875 
Q 37.3125 74.21875 42.625 73.28125 
Q 47.953125 72.359375 53.515625 70.515625 
z
" id="DejaVuSans-83"/>
       <path d="M 54.890625 33.015625 
L 54.890625 0 
L 45.90625 0 
L 45.90625 32.71875 
Q 45.90625 40.484375 42.875 44.328125 
Q 39.84375 48.1875 33.796875 48.1875 
Q 26.515625 48.1875 22.3125 43.546875 
Q 18.109375 38.921875 18.109375 30.90625 
L 18.109375 0 
L 9.078125 0 
L 9.078125 54.6875 
L 18.109375 54.6875 
L 18.109375 46.1875 
Q 21.34375 51.125 25.703125 53.5625 
Q 30.078125 56 35.796875 56 
Q 45.21875 56 50.046875 50.171875 
Q 54.890625 44.34375 54.890625 33.015625 
z
" id="DejaVuSans-110"/>
       <path d="M 45.40625 27.984375 
Q 45.40625 37.75 41.375 43.109375 
Q 37.359375 48.484375 30.078125 48.484375 
Q 22.859375 48.484375 18.828125 43.109375 
Q 14.796875 37.75 14.796875 27.984375 
Q 14.796875 18.265625 18.828125 12.890625 
Q 22.859375 7.515625 30.078125 7.515625 
Q 37.359375 7.515625 41.375 12.890625 
Q 45.40625 18.265625 45.40625 27.984375 
z
M 54.390625 6.78125 
Q 54.390625 -7.171875 48.1875 -13.984375 
Q 42 -20.796875 29.203125 -20.796875 
Q 24.46875 -20.796875 20.265625 -20.09375 
Q 16.0625 -19.390625 12.109375 -17.921875 
L 12.109375 -9.1875 
Q 16.0625 -11.328125 19.921875 -12.34375 
Q 23.78125 -13.375 27.78125 -13.375 
Q 36.625 -13.375 41.015625 -8.765625 
Q 45.40625 -4.15625 45.40625 5.171875 
L 45.40625 9.625 
Q 42.625 4.78125 38.28125 2.390625 
Q 33.9375 0 27.875 0 
Q 17.828125 0 11.671875 7.65625 
Q 5.515625 15.328125 5.515625 27.984375 
Q 5.515625 40.671875 11.671875 48.328125 
Q 17.828125 56 27.875 56 
Q 33.9375 56 38.28125 53.609375 
Q 42.625 51.21875 45.40625 46.390625 
L 45.40625 54.6875 
L 54.390625 54.6875 
z
" id="DejaVuSans-103"/>
       <path d="M 34.1875 63.1875 
L 20.796875 26.90625 
L 47.609375 26.90625 
z
M 28.609375 72.90625 
L 39.796875 72.90625 
L 67.578125 0 
L 57.328125 0 
L 50.6875 18.703125 
L 17.828125 18.703125 
L 11.1875 0 
L 0.78125 0 
z
" id="DejaVuSans-65"/>
      </defs>
      <use xlink:href="#DejaVuSans-83"/>
      <use x="63.476562" xlink:href="#DejaVuSans-116"/>
      <use x="102.685547" xlink:href="#DejaVuSans-101"/>
      <use x="164.208984" xlink:href="#DejaVuSans-101"/>
      <use x="225.732422" xlink:href="#DejaVuSans-114"/>
      <use x="266.845703" xlink:href="#DejaVuSans-105"/>
      <use x="294.628906" xlink:href="#DejaVuSans-110"/>
      <use x="358.007812" xlink:href="#DejaVuSans-103"/>
      <use x="421.484375" xlink:href="#DejaVuSans-32"/>
      <use x="453.271484" xlink:href="#DejaVuSans-65"/>
      <use x="521.679688" xlink:href="#DejaVuSans-110"/>
      <use x="585.058594" xlink:href="#DejaVuSans-103"/>
      <use x="648.535156" xlink:href="#DejaVuSans-108"/>
      <use x="676.318359" xlink:href="#DejaVuSans-101"/>
      <use x="737.841797" xlink:href="#DejaVuSans-32"/>
      <use x="769.628906" xlink:href="#DejaVuSans-40"/>
      <use x="808.642578" xlink:href="#DejaVuSans-67"/>
      <use x="878.466797" xlink:href="#DejaVuSans-108"/>
      <use x="906.25" xlink:href="#DejaVuSans-105"/>
      <use x="934.033203" xlink:href="#DejaVuSans-112"/>
      <use x="997.509766" xlink:href="#DejaVuSans-112"/>
      <use x="1060.986328" xlink:href="#DejaVuSans-101"/>
      <use x="1122.509766" xlink:href="#DejaVuSans-100"/>
      <use x="1185.986328" xlink:href="#DejaVuSans-41"/>
     </g>
    </g>
   </g>
   <g id="line2d_32">
    <path clip-path="url(#p276aac00c6)" d="M 302.428068 179.316307 
L 480.364432 179.316307 
L 480.364432 179.316307 
" style="fill:none;stroke:#000000;stroke-linecap:square;stroke-width:0.5;"/>
   </g>
   <g id="line2d_33">
    <path clip-path="url(#p276aac00c6)" d="M 302.428068 47.279943 
L 480.364432 47.279943 
L 480.364432 47.279943 
" style="fill:none;stroke:#000000;stroke-linecap:square;stroke-width:0.5;"/>
   </g>
   <g id="line2d_34">
    <path clip-path="url(#p276aac00c6)" d="M 302.428068 136.474936 
L 303.708186 154.713435 
L 304.988304 161.123618 
L 306.268421 160.646349 
L 307.548539 157.848427 
L 310.108775 155.207865 
L 311.388892 153.021544 
L 312.66901 152.777046 
L 315.229245 153.607501 
L 316.509363 155.362961 
L 317.789481 154.807197 
L 319.069599 152.74004 
L 320.349716 152.754835 
L 321.629834 152.895162 
L 322.909952 152.741459 
L 324.190069 152.903578 
L 325.470187 151.926387 
L 326.750305 150.551447 
L 328.030423 150.141713 
L 329.31054 148.961865 
L 330.590658 148.917957 
L 331.870776 149.458865 
L 333.150894 149.878208 
L 334.431011 148.766213 
L 335.711129 149.220897 
L 336.991247 149.171245 
L 338.271364 149.920853 
L 340.8316 149.010647 
L 342.111718 148.846899 
L 343.391835 149.582928 
L 344.671953 149.471069 
L 345.952071 150.004588 
L 347.232189 150.199333 
L 348.512306 151.19196 
L 349.792424 151.09629 
L 351.072542 152.008449 
L 352.352659 152.598475 
L 353.632777 152.615763 
L 354.912895 151.811133 
L 356.193013 153.220111 
L 358.753248 151.822138 
L 360.033366 153.3253 
L 361.313483 153.536584 
L 362.593601 152.794072 
L 363.873719 152.795951 
L 365.153837 152.620562 
L 366.433954 153.438703 
L 368.99419 154.419057 
L 370.274308 154.100054 
L 371.554425 154.964087 
L 372.834543 156.122106 
L 374.114661 155.31047 
L 375.394778 154.299804 
L 376.674896 155.387487 
L 377.955014 155.949667 
L 379.235132 156.636796 
L 380.515249 157.539572 
L 381.795367 157.633484 
L 383.075485 155.754029 
L 384.355603 157.418514 
L 385.63572 156.739246 
L 388.195956 156.598213 
L 390.756191 157.012577 
L 392.036309 156.530419 
L 393.316427 157.539574 
L 394.596544 158.121407 
L 397.15678 158.221244 
L 398.436897 156.510496 
L 399.717015 158.188151 
L 400.997133 156.533692 
L 402.277251 157.255675 
L 403.557368 158.382357 
L 404.837486 158.141334 
L 407.397722 158.55376 
L 408.677839 158.387294 
L 409.957957 157.045017 
L 411.238075 156.568182 
L 412.518192 158.79743 
L 413.79831 158.157021 
L 415.078428 158.85677 
L 416.358546 157.994545 
L 417.638663 158.015482 
L 418.918781 159.309725 
L 420.198899 159.608095 
L 421.479017 158.033623 
L 422.759134 158.20393 
L 424.039252 159.007552 
L 425.31937 158.524375 
L 427.879605 159.837496 
L 429.159723 160.316024 
L 430.439841 159.426146 
L 433.000076 158.881662 
L 434.280194 159.32974 
L 436.840429 159.158161 
L 438.120547 159.582347 
L 441.9609 158.819802 
L 443.241018 158.986658 
L 444.521136 159.399629 
L 445.801253 159.299802 
L 447.081371 160.0687 
L 448.361489 160.62325 
L 449.641606 159.471105 
L 450.921724 159.205391 
L 453.48196 159.065162 
L 454.762077 159.894347 
L 456.042195 159.429828 
L 457.322313 159.705927 
L 458.602431 160.494849 
L 459.882548 160.18458 
L 461.162666 159.642754 
L 462.442784 159.335659 
L 463.722901 160.061881 
L 465.003019 160.992712 
L 466.283137 160.845349 
L 467.563255 160.491116 
L 468.843372 161.703296 
L 470.12349 161.693435 
L 471.403608 160.612048 
L 473.963843 161.092552 
L 475.243961 160.432657 
L 476.524079 160.56679 
L 480.364432 161.471769 
L 480.364432 161.471769 
" style="fill:none;stroke:#1f77b4;stroke-linecap:square;stroke-width:1.5;"/>
   </g>
   <g id="line2d_35">
    <path clip-path="url(#p276aac00c6)" d="M 302.428068 179.316307 
L 480.364432 179.316307 
L 480.364432 179.316307 
" style="fill:none;stroke:#000000;stroke-linecap:square;stroke-width:0.5;"/>
   </g>
   <g id="line2d_36">
    <path clip-path="url(#p276aac00c6)" d="M 302.428068 47.279943 
L 480.364432 47.279943 
L 480.364432 47.279943 
" style="fill:none;stroke:#000000;stroke-linecap:square;stroke-width:0.5;"/>
   </g>
   <g id="line2d_37">
    <path clip-path="url(#p276aac00c6)" d="M 302.428068 79.45559 
L 303.708186 96.814867 
L 304.988304 131.194329 
L 307.548539 138.835254 
L 308.828657 128.541251 
L 310.108775 120.651256 
L 311.388892 114.88039 
L 312.66901 114.350614 
L 313.949128 121.102586 
L 315.229245 127.129325 
L 316.509363 124.393928 
L 317.789481 119.32568 
L 319.069599 118.703908 
L 320.349716 117.224161 
L 321.629834 119.65852 
L 322.909952 121.052825 
L 324.190069 121.908547 
L 325.470187 117.590448 
L 326.750305 117.021953 
L 328.030423 120.316614 
L 329.31054 122.764209 
L 330.590658 123.787395 
L 331.870776 123.60179 
L 333.150894 119.759366 
L 334.431011 118.135656 
L 335.711129 118.78169 
L 336.991247 118.109442 
L 338.271364 119.419917 
L 339.551482 117.853569 
L 342.111718 119.031878 
L 343.391835 121.968972 
L 344.671953 120.537751 
L 345.952071 119.94673 
L 347.232189 119.738554 
L 348.512306 118.699537 
L 349.792424 118.282715 
L 351.072542 117.411552 
L 352.352659 117.833996 
L 353.632777 114.352315 
L 354.912895 112.173597 
L 356.193013 112.706703 
L 357.47313 113.876704 
L 358.753248 113.494141 
L 360.033366 117.116501 
L 361.313483 114.369941 
L 362.593601 116.593296 
L 363.873719 113.966482 
L 366.433954 112.795469 
L 367.714072 112.900372 
L 368.99419 114.138845 
L 370.274308 112.015879 
L 371.554425 112.656404 
L 372.834543 110.674383 
L 374.114661 112.937836 
L 375.394778 114.219019 
L 376.674896 115.135164 
L 377.955014 115.315519 
L 379.235132 115.028633 
L 380.515249 113.168548 
L 381.795367 113.038157 
L 383.075485 112.450045 
L 384.355603 111.713886 
L 385.63572 112.840032 
L 386.915838 112.602137 
L 388.195956 113.234404 
L 389.476073 114.838371 
L 390.756191 114.722128 
L 392.036309 114.882304 
L 393.316427 114.718961 
L 395.876662 111.942562 
L 397.15678 113.144493 
L 398.436897 111.877674 
L 399.717015 112.998802 
L 400.997133 113.362977 
L 402.277251 111.261461 
L 404.837486 113.908576 
L 406.117604 112.369405 
L 407.397722 110.537873 
L 408.677839 113.022599 
L 409.957957 112.178943 
L 411.238075 112.289708 
L 412.518192 111.753064 
L 413.79831 114.010568 
L 415.078428 112.318232 
L 416.358546 114.021968 
L 417.638663 113.382166 
L 418.918781 110.874681 
L 420.198899 109.981696 
L 421.479017 110.559792 
L 422.759134 112.661596 
L 424.039252 114.060069 
L 425.31937 114.971733 
L 426.599487 110.728355 
L 427.879605 110.268424 
L 429.159723 111.970821 
L 430.439841 111.106578 
L 431.719958 112.418851 
L 433.000076 110.364942 
L 434.280194 114.820212 
L 435.560311 112.939279 
L 436.840429 112.720153 
L 438.120547 113.132644 
L 439.400665 111.698145 
L 440.680782 111.723069 
L 441.9609 110.237855 
L 443.241018 109.919064 
L 444.521136 112.04753 
L 445.801253 109.673413 
L 447.081371 109.947566 
L 448.361489 109.4667 
L 449.641606 113.384863 
L 450.921724 112.302737 
L 452.201842 112.235579 
L 453.48196 110.867306 
L 454.762077 111.995277 
L 456.042195 110.816716 
L 458.602431 112.0842 
L 459.882548 112.509784 
L 461.162666 113.852863 
L 462.442784 115.708118 
L 463.722901 112.901868 
L 465.003019 113.89784 
L 466.283137 112.977608 
L 467.563255 112.472888 
L 468.843372 112.742666 
L 470.12349 114.456762 
L 471.403608 115.367139 
L 472.683725 115.51728 
L 473.963843 112.680079 
L 475.243961 113.404192 
L 476.524079 113.48587 
L 477.804196 113.447481 
L 479.084314 114.350267 
L 480.364432 115.508306 
L 480.364432 115.508306 
" style="fill:none;stroke:#ff7f0e;stroke-linecap:square;stroke-width:1.5;"/>
   </g>
   <g id="line2d_38">
    <path clip-path="url(#p276aac00c6)" d="M 302.428068 179.316307 
L 480.364432 179.316307 
L 480.364432 179.316307 
" style="fill:none;stroke:#000000;stroke-linecap:square;stroke-width:0.5;"/>
   </g>
   <g id="line2d_39">
    <path clip-path="url(#p276aac00c6)" d="M 302.428068 47.279943 
L 480.364432 47.279943 
L 480.364432 47.279943 
" style="fill:none;stroke:#000000;stroke-linecap:square;stroke-width:0.5;"/>
   </g>
   <g id="line2d_40">
    <path clip-path="url(#p276aac00c6)" d="M 302.428068 121.516107 
L 303.708186 113.71107 
L 304.988304 143.152136 
L 306.268421 150.468817 
L 307.548539 152.356632 
L 308.828657 140.712072 
L 310.108775 130.319126 
L 311.388892 132.851091 
L 312.66901 130.601422 
L 313.949128 131.326217 
L 315.229245 134.965648 
L 316.509363 133.900616 
L 317.789481 133.092629 
L 319.069599 135.090249 
L 320.349716 134.589389 
L 321.629834 137.197861 
L 322.909952 137.343964 
L 324.190069 135.816125 
L 326.750305 135.277078 
L 328.030423 136.26364 
L 329.31054 137.59946 
L 330.590658 136.444458 
L 331.870776 137.295914 
L 333.150894 135.71649 
L 334.431011 138.2125 
L 335.711129 136.925583 
L 336.991247 137.266454 
L 338.271364 134.027552 
L 339.551482 134.26366 
L 340.8316 135.127079 
L 342.111718 137.183749 
L 343.391835 135.931158 
L 345.952071 137.829169 
L 347.232189 136.483274 
L 348.512306 134.863404 
L 349.792424 134.082857 
L 351.072542 135.442843 
L 352.352659 132.586253 
L 353.632777 132.504137 
L 354.912895 132.675839 
L 356.193013 133.05305 
L 357.47313 134.762004 
L 358.753248 134.036869 
L 361.313483 135.262114 
L 362.593601 133.567693 
L 363.873719 134.520529 
L 366.433954 130.764281 
L 367.714072 130.846468 
L 368.99419 131.289267 
L 370.274308 132.453145 
L 371.554425 132.464145 
L 372.834543 130.950439 
L 374.114661 131.919821 
L 375.394778 132.127579 
L 376.674896 130.927824 
L 377.955014 133.494628 
L 379.235132 132.788172 
L 380.515249 135.895441 
L 381.795367 134.227407 
L 383.075485 134.552208 
L 384.355603 134.238206 
L 385.63572 133.603575 
L 386.915838 135.031607 
L 388.195956 133.204223 
L 389.476073 132.350968 
L 392.036309 134.292658 
L 393.316427 135.510981 
L 394.596544 134.720973 
L 395.876662 135.075765 
L 397.15678 136.116796 
L 398.436897 135.719356 
L 399.717015 136.881055 
L 400.997133 135.296172 
L 402.277251 134.130317 
L 403.557368 134.740734 
L 404.837486 135.612097 
L 406.117604 134.968549 
L 407.397722 135.347107 
L 408.677839 136.700241 
L 409.957957 136.498875 
L 411.238075 135.195541 
L 412.518192 135.651008 
L 413.79831 136.486935 
L 415.078428 135.747826 
L 416.358546 135.354719 
L 418.918781 136.539831 
L 420.198899 137.156638 
L 421.479017 134.054442 
L 422.759134 135.329223 
L 424.039252 135.249132 
L 425.31937 131.95262 
L 426.599487 133.255374 
L 427.879605 135.593161 
L 430.439841 137.620522 
L 431.719958 135.972117 
L 434.280194 134.958697 
L 435.560311 135.205506 
L 436.840429 135.325348 
L 438.120547 137.16253 
L 439.400665 136.492843 
L 440.680782 139.431679 
L 441.9609 138.830516 
L 443.241018 139.078321 
L 444.521136 140.069416 
L 445.801253 140.838004 
L 448.361489 138.769929 
L 449.641606 139.323699 
L 450.921724 137.354461 
L 452.201842 137.45705 
L 453.48196 139.410618 
L 454.762077 136.04222 
L 456.042195 137.567747 
L 457.322313 138.531316 
L 459.882548 138.34234 
L 462.442784 139.56111 
L 463.722901 138.706551 
L 465.003019 138.050246 
L 466.283137 137.844698 
L 468.843372 136.850832 
L 470.12349 137.8484 
L 471.403608 136.696458 
L 472.683725 139.426245 
L 473.963843 138.663867 
L 475.243961 135.498687 
L 476.524079 137.805997 
L 477.804196 138.159353 
L 479.084314 136.672054 
L 480.364432 138.656504 
L 480.364432 138.656504 
" style="fill:none;stroke:#2ca02c;stroke-linecap:square;stroke-width:1.5;"/>
   </g>
   <g id="line2d_41">
    <path clip-path="url(#p276aac00c6)" d="M 302.428068 179.316307 
L 480.364432 179.316307 
L 480.364432 179.316307 
" style="fill:none;stroke:#000000;stroke-linecap:square;stroke-width:0.5;"/>
   </g>
   <g id="line2d_42">
    <path clip-path="url(#p276aac00c6)" d="M 302.428068 47.279943 
L 480.364432 47.279943 
L 480.364432 47.279943 
" style="fill:none;stroke:#000000;stroke-linecap:square;stroke-width:0.5;"/>
   </g>
   <g id="line2d_43">
    <path clip-path="url(#p276aac00c6)" d="M 302.428068 123.446653 
L 303.708186 116.443906 
L 304.988304 144.263087 
L 306.268421 151.575115 
L 307.548539 151.844335 
L 308.828657 142.384739 
L 310.108775 134.643419 
L 311.388892 134.505344 
L 312.66901 132.750685 
L 313.949128 132.750931 
L 315.229245 135.32342 
L 316.509363 136.454284 
L 317.789481 135.988218 
L 319.069599 135.178029 
L 320.349716 134.651822 
L 321.629834 135.632411 
L 322.909952 137.738959 
L 324.190069 135.261516 
L 325.470187 137.461489 
L 326.750305 137.18514 
L 330.590658 141.080898 
L 331.870776 139.389172 
L 333.150894 137.196047 
L 334.431011 137.02233 
L 335.711129 137.327279 
L 336.991247 136.371946 
L 338.271364 134.881672 
L 339.551482 135.567564 
L 340.8316 137.784752 
L 342.111718 136.983558 
L 343.391835 136.700906 
L 344.671953 138.907556 
L 345.952071 137.694923 
L 347.232189 139.688541 
L 348.512306 138.583826 
L 349.792424 136.914371 
L 351.072542 135.475761 
L 352.352659 135.723613 
L 353.632777 136.48738 
L 354.912895 136.853314 
L 356.193013 136.250177 
L 357.47313 137.157182 
L 358.753248 137.105881 
L 360.033366 135.410291 
L 361.313483 135.213962 
L 362.593601 137.588631 
L 363.873719 136.54322 
L 365.153837 133.937665 
L 366.433954 133.299429 
L 367.714072 133.243474 
L 368.99419 134.160767 
L 370.274308 135.220077 
L 371.554425 134.766252 
L 372.834543 135.381737 
L 374.114661 137.523865 
L 375.394778 137.641141 
L 376.674896 134.3988 
L 377.955014 137.551942 
L 379.235132 138.329142 
L 380.515249 137.687161 
L 381.795367 135.462046 
L 383.075485 137.088031 
L 385.63572 136.436954 
L 386.915838 136.537154 
L 388.195956 137.313037 
L 389.476073 136.260773 
L 390.756191 137.362895 
L 392.036309 137.132395 
L 393.316427 139.005667 
L 394.596544 138.117794 
L 395.876662 139.045553 
L 397.15678 139.504969 
L 398.436897 137.583278 
L 400.997133 136.39977 
L 402.277251 138.578488 
L 403.557368 141.266824 
L 404.837486 140.923051 
L 406.117604 137.742578 
L 407.397722 139.427375 
L 408.677839 139.421155 
L 409.957957 140.837323 
L 411.238075 139.783977 
L 412.518192 138.516516 
L 413.79831 137.780103 
L 415.078428 136.327717 
L 416.358546 138.927958 
L 417.638663 140.108709 
L 418.918781 140.829843 
L 420.198899 138.412945 
L 421.479017 138.125817 
L 422.759134 137.235313 
L 424.039252 134.044885 
L 425.31937 135.979192 
L 426.599487 136.553768 
L 427.879605 136.970594 
L 429.159723 137.88681 
L 430.439841 137.070694 
L 433.000076 137.98418 
L 434.280194 139.601822 
L 435.560311 139.465282 
L 436.840429 136.121027 
L 438.120547 136.76302 
L 440.680782 142.760415 
L 441.9609 142.43777 
L 443.241018 140.561324 
L 444.521136 141.524049 
L 445.801253 140.121319 
L 447.081371 140.892962 
L 448.361489 141.365971 
L 449.641606 141.581011 
L 450.921724 140.51254 
L 452.201842 139.831844 
L 453.48196 138.746891 
L 454.762077 141.035187 
L 456.042195 143.037253 
L 457.322313 142.644371 
L 458.602431 142.121874 
L 461.162666 142.444208 
L 462.442784 140.352557 
L 465.003019 141.482282 
L 466.283137 142.32505 
L 467.563255 139.880653 
L 468.843372 140.532507 
L 470.12349 140.903786 
L 471.403608 140.985137 
L 472.683725 142.092466 
L 473.963843 141.109579 
L 475.243961 141.420534 
L 476.524079 141.514045 
L 477.804196 140.861091 
L 479.084314 139.916705 
L 480.364432 139.803145 
L 480.364432 139.803145 
" style="fill:none;stroke:#d62728;stroke-linecap:square;stroke-width:1.5;"/>
   </g>
   <g id="patch_8">
    <path d="M 293.53125 185.918125 
L 293.53125 40.678125 
" style="fill:none;stroke:#000000;stroke-linecap:square;stroke-linejoin:miter;stroke-width:0.8;"/>
   </g>
   <g id="patch_9">
    <path d="M 489.26125 185.918125 
L 489.26125 40.678125 
" style="fill:none;stroke:#000000;stroke-linecap:square;stroke-linejoin:miter;stroke-width:0.8;"/>
   </g>
   <g id="patch_10">
    <path d="M 293.53125 185.918125 
L 489.26125 185.918125 
" style="fill:none;stroke:#000000;stroke-linecap:square;stroke-linejoin:miter;stroke-width:0.8;"/>
   </g>
   <g id="patch_11">
    <path d="M 293.53125 40.678125 
L 489.26125 40.678125 
" style="fill:none;stroke:#000000;stroke-linecap:square;stroke-linejoin:miter;stroke-width:0.8;"/>
   </g>
  </g>
  <g id="legend_1">
   <g id="patch_12">
    <path d="M 35.500313 24.878125 
L 460.622187 24.878125 
Q 462.622187 24.878125 462.622187 22.878125 
L 462.622187 9.2 
Q 462.622187 7.2 460.622187 7.2 
L 35.500313 7.2 
Q 33.500313 7.2 33.500313 9.2 
L 33.500313 22.878125 
Q 33.500313 24.878125 35.500313 24.878125 
z
" style="fill:#ffffff;opacity:0.8;stroke:#cccccc;stroke-linejoin:miter;"/>
   </g>
   <g id="line2d_44">
    <path d="M 37.500313 15.298437 
L 57.500313 15.298437 
" style="fill:none;stroke:#1f77b4;stroke-linecap:square;stroke-width:1.5;"/>
   </g>
   <g id="line2d_45"/>
   <g id="text_24">
    <!-- Fixed Ref -->
    <g transform="translate(65.500313 18.798437)scale(0.1 -0.1)">
     <defs>
      <path d="M 9.8125 72.90625 
L 51.703125 72.90625 
L 51.703125 64.59375 
L 19.671875 64.59375 
L 19.671875 43.109375 
L 48.578125 43.109375 
L 48.578125 34.8125 
L 19.671875 34.8125 
L 19.671875 0 
L 9.8125 0 
z
" id="DejaVuSans-70"/>
      <path d="M 54.890625 54.6875 
L 35.109375 28.078125 
L 55.90625 0 
L 45.3125 0 
L 29.390625 21.484375 
L 13.484375 0 
L 2.875 0 
L 24.125 28.609375 
L 4.6875 54.6875 
L 15.28125 54.6875 
L 29.78125 35.203125 
L 44.28125 54.6875 
z
" id="DejaVuSans-120"/>
      <path d="M 44.390625 34.1875 
Q 47.5625 33.109375 50.5625 29.59375 
Q 53.5625 26.078125 56.59375 19.921875 
L 66.609375 0 
L 56 0 
L 46.6875 18.703125 
Q 43.0625 26.03125 39.671875 28.421875 
Q 36.28125 30.8125 30.421875 30.8125 
L 19.671875 30.8125 
L 19.671875 0 
L 9.8125 0 
L 9.8125 72.90625 
L 32.078125 72.90625 
Q 44.578125 72.90625 50.734375 67.671875 
Q 56.890625 62.453125 56.890625 51.90625 
Q 56.890625 45.015625 53.6875 40.46875 
Q 50.484375 35.9375 44.390625 34.1875 
z
M 19.671875 64.796875 
L 19.671875 38.921875 
L 32.078125 38.921875 
Q 39.203125 38.921875 42.84375 42.21875 
Q 46.484375 45.515625 46.484375 51.90625 
Q 46.484375 58.296875 42.84375 61.546875 
Q 39.203125 64.796875 32.078125 64.796875 
z
" id="DejaVuSans-82"/>
      <path d="M 37.109375 75.984375 
L 37.109375 68.5 
L 28.515625 68.5 
Q 23.6875 68.5 21.796875 66.546875 
Q 19.921875 64.59375 19.921875 59.515625 
L 19.921875 54.6875 
L 34.71875 54.6875 
L 34.71875 47.703125 
L 19.921875 47.703125 
L 19.921875 0 
L 10.890625 0 
L 10.890625 47.703125 
L 2.296875 47.703125 
L 2.296875 54.6875 
L 10.890625 54.6875 
L 10.890625 58.5 
Q 10.890625 67.625 15.140625 71.796875 
Q 19.390625 75.984375 28.609375 75.984375 
z
" id="DejaVuSans-102"/>
     </defs>
     <use xlink:href="#DejaVuSans-70"/>
     <use x="50.269531" xlink:href="#DejaVuSans-105"/>
     <use x="78.052734" xlink:href="#DejaVuSans-120"/>
     <use x="134.107422" xlink:href="#DejaVuSans-101"/>
     <use x="195.630859" xlink:href="#DejaVuSans-100"/>
     <use x="259.107422" xlink:href="#DejaVuSans-32"/>
     <use x="290.894531" xlink:href="#DejaVuSans-82"/>
     <use x="355.876953" xlink:href="#DejaVuSans-101"/>
     <use x="417.400391" xlink:href="#DejaVuSans-102"/>
    </g>
   </g>
   <g id="line2d_46">
    <path d="M 130.762812 15.298437 
L 150.762812 15.298437 
" style="fill:none;stroke:#ff7f0e;stroke-linecap:square;stroke-width:1.5;"/>
   </g>
   <g id="line2d_47"/>
   <g id="text_25">
    <!-- 2nd ord. DMP -->
    <g transform="translate(158.762812 18.798437)scale(0.1 -0.1)">
     <defs>
      <path d="M 19.671875 64.796875 
L 19.671875 8.109375 
L 31.59375 8.109375 
Q 46.6875 8.109375 53.6875 14.9375 
Q 60.6875 21.78125 60.6875 36.53125 
Q 60.6875 51.171875 53.6875 57.984375 
Q 46.6875 64.796875 31.59375 64.796875 
z
M 9.8125 72.90625 
L 30.078125 72.90625 
Q 51.265625 72.90625 61.171875 64.09375 
Q 71.09375 55.28125 71.09375 36.53125 
Q 71.09375 17.671875 61.125 8.828125 
Q 51.171875 0 30.078125 0 
L 9.8125 0 
z
" id="DejaVuSans-68"/>
      <path d="M 9.8125 72.90625 
L 24.515625 72.90625 
L 43.109375 23.296875 
L 61.8125 72.90625 
L 76.515625 72.90625 
L 76.515625 0 
L 66.890625 0 
L 66.890625 64.015625 
L 48.09375 14.015625 
L 38.1875 14.015625 
L 19.390625 64.015625 
L 19.390625 0 
L 9.8125 0 
z
" id="DejaVuSans-77"/>
      <path d="M 19.671875 64.796875 
L 19.671875 37.40625 
L 32.078125 37.40625 
Q 38.96875 37.40625 42.71875 40.96875 
Q 46.484375 44.53125 46.484375 51.125 
Q 46.484375 57.671875 42.71875 61.234375 
Q 38.96875 64.796875 32.078125 64.796875 
z
M 9.8125 72.90625 
L 32.078125 72.90625 
Q 44.34375 72.90625 50.609375 67.359375 
Q 56.890625 61.8125 56.890625 51.125 
Q 56.890625 40.328125 50.609375 34.8125 
Q 44.34375 29.296875 32.078125 29.296875 
L 19.671875 29.296875 
L 19.671875 0 
L 9.8125 0 
z
" id="DejaVuSans-80"/>
     </defs>
     <use xlink:href="#DejaVuSans-50"/>
     <use x="63.623047" xlink:href="#DejaVuSans-110"/>
     <use x="127.001953" xlink:href="#DejaVuSans-100"/>
     <use x="190.478516" xlink:href="#DejaVuSans-32"/>
     <use x="222.265625" xlink:href="#DejaVuSans-111"/>
     <use x="283.447266" xlink:href="#DejaVuSans-114"/>
     <use x="322.810547" xlink:href="#DejaVuSans-100"/>
     <use x="386.287109" xlink:href="#DejaVuSans-46"/>
     <use x="418.074219" xlink:href="#DejaVuSans-32"/>
     <use x="449.861328" xlink:href="#DejaVuSans-68"/>
     <use x="526.863281" xlink:href="#DejaVuSans-77"/>
     <use x="613.142578" xlink:href="#DejaVuSans-80"/>
    </g>
   </g>
   <g id="line2d_48">
    <path d="M 246.106562 15.298437 
L 266.106562 15.298437 
" style="fill:none;stroke:#2ca02c;stroke-linecap:square;stroke-width:1.5;"/>
   </g>
   <g id="line2d_49"/>
   <g id="text_26">
    <!-- 3rd ord. DMP -->
    <g transform="translate(274.106562 18.798437)scale(0.1 -0.1)">
     <use xlink:href="#DejaVuSans-51"/>
     <use x="63.623047" xlink:href="#DejaVuSans-114"/>
     <use x="102.986328" xlink:href="#DejaVuSans-100"/>
     <use x="166.462891" xlink:href="#DejaVuSans-32"/>
     <use x="198.25" xlink:href="#DejaVuSans-111"/>
     <use x="259.431641" xlink:href="#DejaVuSans-114"/>
     <use x="298.794922" xlink:href="#DejaVuSans-100"/>
     <use x="362.271484" xlink:href="#DejaVuSans-46"/>
     <use x="394.058594" xlink:href="#DejaVuSans-32"/>
     <use x="425.845703" xlink:href="#DejaVuSans-68"/>
     <use x="502.847656" xlink:href="#DejaVuSans-77"/>
     <use x="589.126953" xlink:href="#DejaVuSans-80"/>
    </g>
   </g>
   <g id="line2d_50">
    <path d="M 359.04875 15.298437 
L 379.04875 15.298437 
" style="fill:none;stroke:#d62728;stroke-linecap:square;stroke-width:1.5;"/>
   </g>
   <g id="line2d_51"/>
   <g id="text_27">
    <!-- Proposed DMP -->
    <g transform="translate(387.04875 18.798437)scale(0.1 -0.1)">
     <use xlink:href="#DejaVuSans-80"/>
     <use x="58.552734" xlink:href="#DejaVuSans-114"/>
     <use x="97.416016" xlink:href="#DejaVuSans-111"/>
     <use x="158.597656" xlink:href="#DejaVuSans-112"/>
     <use x="222.074219" xlink:href="#DejaVuSans-111"/>
     <use x="283.255859" xlink:href="#DejaVuSans-115"/>
     <use x="335.355469" xlink:href="#DejaVuSans-101"/>
     <use x="396.878906" xlink:href="#DejaVuSans-100"/>
     <use x="460.355469" xlink:href="#DejaVuSans-32"/>
     <use x="492.142578" xlink:href="#DejaVuSans-68"/>
     <use x="569.144531" xlink:href="#DejaVuSans-77"/>
     <use x="655.423828" xlink:href="#DejaVuSans-80"/>
    </g>
   </g>
  </g>
 </g>
 <defs>
  <clipPath id="p6b1b8fa3b1">
   <rect height="145.24" width="195.73" x="43.78125" y="40.678125"/>
  </clipPath>
  <clipPath id="p276aac00c6">
   <rect height="145.24" width="195.73" x="293.53125" y="40.678125"/>
  </clipPath>
 </defs>
</svg>
