<?xml version="1.0" encoding="utf-8" standalone="no"?>
<!DOCTYPE svg PUBLIC "-//W3C//DTD SVG 1.1//EN"
  "http://www.w3.org/Graphics/SVG/1.1/DTD/svg11.dtd">
<!-- Created with matplotlib (https://matplotlib.org/) -->
<svg height="279.817934pt" version="1.1" viewBox="0 0 568.46125 279.817934" width="568.46125pt" xmlns="http://www.w3.org/2000/svg" xmlns:xlink="http://www.w3.org/1999/xlink">
 <metadata>
  <rdf:RDF xmlns:cc="http://creativecommons.org/ns#" xmlns:dc="http://purl.org/dc/elements/1.1/" xmlns:rdf="http://www.w3.org/1999/02/22-rdf-syntax-ns#">
   <cc:Work>
    <dc:type rdf:resource="http://purl.org/dc/dcmitype/StillImage"/>
    <dc:date>2022-08-03T00:01:48.788049</dc:date>
    <dc:format>image/svg+xml</dc:format>
    <dc:creator>
     <cc:Agent>
      <dc:title>Matplotlib v3.3.0, https://matplotlib.org/</dc:title>
     </cc:Agent>
    </dc:creator>
   </cc:Work>
  </rdf:RDF>
 </metadata>
 <defs>
  <style type="text/css">*{stroke-linecap:butt;stroke-linejoin:round;}</style>
 </defs>
 <g id="figure_1">
  <g id="patch_1">
   <path d="M 0 279.817934 
L 568.46125 279.817934 
L 568.46125 0 
L 0 0 
z
" style="fill:#ffffff;"/>
  </g>
  <g id="axes_1">
   <g id="patch_2">
    <path d="M 43.78125 242.261684 
L 277.452408 242.261684 
L 277.452408 7.2 
L 43.78125 7.2 
z
" style="fill:#ffffff;"/>
   </g>
   <g id="matplotlib.axis_1">
    <g id="xtick_1">
     <g id="line2d_1">
      <defs>
       <path d="M 0 0 
L 0 3.5 
" id="m2065dc4477" style="stroke:#000000;stroke-width:0.8;"/>
      </defs>
      <g>
       <use style="stroke:#000000;stroke-width:0.8;" x="54.402666" xlink:href="#m2065dc4477" y="242.261684"/>
      </g>
     </g>
     <g id="text_1">
      <!-- 0.0 -->
      <g transform="translate(46.451104 256.860122)scale(0.1 -0.1)">
       <defs>
        <path d="M 31.78125 66.40625 
Q 24.171875 66.40625 20.328125 58.90625 
Q 16.5 51.421875 16.5 36.375 
Q 16.5 21.390625 20.328125 13.890625 
Q 24.171875 6.390625 31.78125 6.390625 
Q 39.453125 6.390625 43.28125 13.890625 
Q 47.125 21.390625 47.125 36.375 
Q 47.125 51.421875 43.28125 58.90625 
Q 39.453125 66.40625 31.78125 66.40625 
z
M 31.78125 74.21875 
Q 44.046875 74.21875 50.515625 64.515625 
Q 56.984375 54.828125 56.984375 36.375 
Q 56.984375 17.96875 50.515625 8.265625 
Q 44.046875 -1.421875 31.78125 -1.421875 
Q 19.53125 -1.421875 13.0625 8.265625 
Q 6.59375 17.96875 6.59375 36.375 
Q 6.59375 54.828125 13.0625 64.515625 
Q 19.53125 74.21875 31.78125 74.21875 
z
" id="DejaVuSans-48"/>
        <path d="M 10.6875 12.40625 
L 21 12.40625 
L 21 0 
L 10.6875 0 
z
" id="DejaVuSans-46"/>
       </defs>
       <use xlink:href="#DejaVuSans-48"/>
       <use x="63.623047" xlink:href="#DejaVuSans-46"/>
       <use x="95.410156" xlink:href="#DejaVuSans-48"/>
      </g>
     </g>
    </g>
    <g id="xtick_2">
     <g id="line2d_2">
      <g>
       <use style="stroke:#000000;stroke-width:0.8;" x="92.6092" xlink:href="#m2065dc4477" y="242.261684"/>
      </g>
     </g>
     <g id="text_2">
      <!-- 2.5 -->
      <g transform="translate(84.657637 256.860122)scale(0.1 -0.1)">
       <defs>
        <path d="M 19.1875 8.296875 
L 53.609375 8.296875 
L 53.609375 0 
L 7.328125 0 
L 7.328125 8.296875 
Q 12.9375 14.109375 22.625 23.890625 
Q 32.328125 33.6875 34.8125 36.53125 
Q 39.546875 41.84375 41.421875 45.53125 
Q 43.3125 49.21875 43.3125 52.78125 
Q 43.3125 58.59375 39.234375 62.25 
Q 35.15625 65.921875 28.609375 65.921875 
Q 23.96875 65.921875 18.8125 64.3125 
Q 13.671875 62.703125 7.8125 59.421875 
L 7.8125 69.390625 
Q 13.765625 71.78125 18.9375 73 
Q 24.125 74.21875 28.421875 74.21875 
Q 39.75 74.21875 46.484375 68.546875 
Q 53.21875 62.890625 53.21875 53.421875 
Q 53.21875 48.921875 51.53125 44.890625 
Q 49.859375 40.875 45.40625 35.40625 
Q 44.1875 33.984375 37.640625 27.21875 
Q 31.109375 20.453125 19.1875 8.296875 
z
" id="DejaVuSans-50"/>
        <path d="M 10.796875 72.90625 
L 49.515625 72.90625 
L 49.515625 64.59375 
L 19.828125 64.59375 
L 19.828125 46.734375 
Q 21.96875 47.46875 24.109375 47.828125 
Q 26.265625 48.1875 28.421875 48.1875 
Q 40.625 48.1875 47.75 41.5 
Q 54.890625 34.8125 54.890625 23.390625 
Q 54.890625 11.625 47.5625 5.09375 
Q 40.234375 -1.421875 26.90625 -1.421875 
Q 22.3125 -1.421875 17.546875 -0.640625 
Q 12.796875 0.140625 7.71875 1.703125 
L 7.71875 11.625 
Q 12.109375 9.234375 16.796875 8.0625 
Q 21.484375 6.890625 26.703125 6.890625 
Q 35.15625 6.890625 40.078125 11.328125 
Q 45.015625 15.765625 45.015625 23.390625 
Q 45.015625 31 40.078125 35.4375 
Q 35.15625 39.890625 26.703125 39.890625 
Q 22.75 39.890625 18.8125 39.015625 
Q 14.890625 38.140625 10.796875 36.28125 
z
" id="DejaVuSans-53"/>
       </defs>
       <use xlink:href="#DejaVuSans-50"/>
       <use x="63.623047" xlink:href="#DejaVuSans-46"/>
       <use x="95.410156" xlink:href="#DejaVuSans-53"/>
      </g>
     </g>
    </g>
    <g id="xtick_3">
     <g id="line2d_3">
      <g>
       <use style="stroke:#000000;stroke-width:0.8;" x="130.815733" xlink:href="#m2065dc4477" y="242.261684"/>
      </g>
     </g>
     <g id="text_3">
      <!-- 5.0 -->
      <g transform="translate(122.86417 256.860122)scale(0.1 -0.1)">
       <use xlink:href="#DejaVuSans-53"/>
       <use x="63.623047" xlink:href="#DejaVuSans-46"/>
       <use x="95.410156" xlink:href="#DejaVuSans-48"/>
      </g>
     </g>
    </g>
    <g id="xtick_4">
     <g id="line2d_4">
      <g>
       <use style="stroke:#000000;stroke-width:0.8;" x="169.022266" xlink:href="#m2065dc4477" y="242.261684"/>
      </g>
     </g>
     <g id="text_4">
      <!-- 7.5 -->
      <g transform="translate(161.070704 256.860122)scale(0.1 -0.1)">
       <defs>
        <path d="M 8.203125 72.90625 
L 55.078125 72.90625 
L 55.078125 68.703125 
L 28.609375 0 
L 18.3125 0 
L 43.21875 64.59375 
L 8.203125 64.59375 
z
" id="DejaVuSans-55"/>
       </defs>
       <use xlink:href="#DejaVuSans-55"/>
       <use x="63.623047" xlink:href="#DejaVuSans-46"/>
       <use x="95.410156" xlink:href="#DejaVuSans-53"/>
      </g>
     </g>
    </g>
    <g id="xtick_5">
     <g id="line2d_5">
      <g>
       <use style="stroke:#000000;stroke-width:0.8;" x="207.228799" xlink:href="#m2065dc4477" y="242.261684"/>
      </g>
     </g>
     <g id="text_5">
      <!-- 10.0 -->
      <g transform="translate(196.095987 256.860122)scale(0.1 -0.1)">
       <defs>
        <path d="M 12.40625 8.296875 
L 28.515625 8.296875 
L 28.515625 63.921875 
L 10.984375 60.40625 
L 10.984375 69.390625 
L 28.421875 72.90625 
L 38.28125 72.90625 
L 38.28125 8.296875 
L 54.390625 8.296875 
L 54.390625 0 
L 12.40625 0 
z
" id="DejaVuSans-49"/>
       </defs>
       <use xlink:href="#DejaVuSans-49"/>
       <use x="63.623047" xlink:href="#DejaVuSans-48"/>
       <use x="127.246094" xlink:href="#DejaVuSans-46"/>
       <use x="159.033203" xlink:href="#DejaVuSans-48"/>
      </g>
     </g>
    </g>
    <g id="xtick_6">
     <g id="line2d_6">
      <g>
       <use style="stroke:#000000;stroke-width:0.8;" x="245.435333" xlink:href="#m2065dc4477" y="242.261684"/>
      </g>
     </g>
     <g id="text_6">
      <!-- 12.5 -->
      <g transform="translate(234.30252 256.860122)scale(0.1 -0.1)">
       <use xlink:href="#DejaVuSans-49"/>
       <use x="63.623047" xlink:href="#DejaVuSans-50"/>
       <use x="127.246094" xlink:href="#DejaVuSans-46"/>
       <use x="159.033203" xlink:href="#DejaVuSans-53"/>
      </g>
     </g>
    </g>
    <g id="text_7">
     <!-- Time (s) -->
     <g transform="translate(140.287923 270.538247)scale(0.1 -0.1)">
      <defs>
       <path d="M -0.296875 72.90625 
L 61.375 72.90625 
L 61.375 64.59375 
L 35.5 64.59375 
L 35.5 0 
L 25.59375 0 
L 25.59375 64.59375 
L -0.296875 64.59375 
z
" id="DejaVuSans-84"/>
       <path d="M 9.421875 54.6875 
L 18.40625 54.6875 
L 18.40625 0 
L 9.421875 0 
z
M 9.421875 75.984375 
L 18.40625 75.984375 
L 18.40625 64.59375 
L 9.421875 64.59375 
z
" id="DejaVuSans-105"/>
       <path d="M 52 44.1875 
Q 55.375 50.25 60.0625 53.125 
Q 64.75 56 71.09375 56 
Q 79.640625 56 84.28125 50.015625 
Q 88.921875 44.046875 88.921875 33.015625 
L 88.921875 0 
L 79.890625 0 
L 79.890625 32.71875 
Q 79.890625 40.578125 77.09375 44.375 
Q 74.3125 48.1875 68.609375 48.1875 
Q 61.625 48.1875 57.5625 43.546875 
Q 53.515625 38.921875 53.515625 30.90625 
L 53.515625 0 
L 44.484375 0 
L 44.484375 32.71875 
Q 44.484375 40.625 41.703125 44.40625 
Q 38.921875 48.1875 33.109375 48.1875 
Q 26.21875 48.1875 22.15625 43.53125 
Q 18.109375 38.875 18.109375 30.90625 
L 18.109375 0 
L 9.078125 0 
L 9.078125 54.6875 
L 18.109375 54.6875 
L 18.109375 46.1875 
Q 21.1875 51.21875 25.484375 53.609375 
Q 29.78125 56 35.6875 56 
Q 41.65625 56 45.828125 52.96875 
Q 50 49.953125 52 44.1875 
z
" id="DejaVuSans-109"/>
       <path d="M 56.203125 29.59375 
L 56.203125 25.203125 
L 14.890625 25.203125 
Q 15.484375 15.921875 20.484375 11.0625 
Q 25.484375 6.203125 34.421875 6.203125 
Q 39.59375 6.203125 44.453125 7.46875 
Q 49.3125 8.734375 54.109375 11.28125 
L 54.109375 2.78125 
Q 49.265625 0.734375 44.1875 -0.34375 
Q 39.109375 -1.421875 33.890625 -1.421875 
Q 20.796875 -1.421875 13.15625 6.1875 
Q 5.515625 13.8125 5.515625 26.8125 
Q 5.515625 40.234375 12.765625 48.109375 
Q 20.015625 56 32.328125 56 
Q 43.359375 56 49.78125 48.890625 
Q 56.203125 41.796875 56.203125 29.59375 
z
M 47.21875 32.234375 
Q 47.125 39.59375 43.09375 43.984375 
Q 39.0625 48.390625 32.421875 48.390625 
Q 24.90625 48.390625 20.390625 44.140625 
Q 15.875 39.890625 15.1875 32.171875 
z
" id="DejaVuSans-101"/>
       <path id="DejaVuSans-32"/>
       <path d="M 31 75.875 
Q 24.46875 64.65625 21.28125 53.65625 
Q 18.109375 42.671875 18.109375 31.390625 
Q 18.109375 20.125 21.3125 9.0625 
Q 24.515625 -2 31 -13.1875 
L 23.1875 -13.1875 
Q 15.875 -1.703125 12.234375 9.375 
Q 8.59375 20.453125 8.59375 31.390625 
Q 8.59375 42.28125 12.203125 53.3125 
Q 15.828125 64.359375 23.1875 75.875 
z
" id="DejaVuSans-40"/>
       <path d="M 44.28125 53.078125 
L 44.28125 44.578125 
Q 40.484375 46.53125 36.375 47.5 
Q 32.28125 48.484375 27.875 48.484375 
Q 21.1875 48.484375 17.84375 46.4375 
Q 14.5 44.390625 14.5 40.28125 
Q 14.5 37.15625 16.890625 35.375 
Q 19.28125 33.59375 26.515625 31.984375 
L 29.59375 31.296875 
Q 39.15625 29.25 43.1875 25.515625 
Q 47.21875 21.78125 47.21875 15.09375 
Q 47.21875 7.46875 41.1875 3.015625 
Q 35.15625 -1.421875 24.609375 -1.421875 
Q 20.21875 -1.421875 15.453125 -0.5625 
Q 10.6875 0.296875 5.421875 2 
L 5.421875 11.28125 
Q 10.40625 8.6875 15.234375 7.390625 
Q 20.0625 6.109375 24.8125 6.109375 
Q 31.15625 6.109375 34.5625 8.28125 
Q 37.984375 10.453125 37.984375 14.40625 
Q 37.984375 18.0625 35.515625 20.015625 
Q 33.0625 21.96875 24.703125 23.78125 
L 21.578125 24.515625 
Q 13.234375 26.265625 9.515625 29.90625 
Q 5.8125 33.546875 5.8125 39.890625 
Q 5.8125 47.609375 11.28125 51.796875 
Q 16.75 56 26.8125 56 
Q 31.78125 56 36.171875 55.265625 
Q 40.578125 54.546875 44.28125 53.078125 
z
" id="DejaVuSans-115"/>
       <path d="M 8.015625 75.875 
L 15.828125 75.875 
Q 23.140625 64.359375 26.78125 53.3125 
Q 30.421875 42.28125 30.421875 31.390625 
Q 30.421875 20.453125 26.78125 9.375 
Q 23.140625 -1.703125 15.828125 -13.1875 
L 8.015625 -13.1875 
Q 14.5 -2 17.703125 9.0625 
Q 20.90625 20.125 20.90625 31.390625 
Q 20.90625 42.671875 17.703125 53.65625 
Q 14.5 64.65625 8.015625 75.875 
z
" id="DejaVuSans-41"/>
      </defs>
      <use xlink:href="#DejaVuSans-84"/>
      <use x="57.958984" xlink:href="#DejaVuSans-105"/>
      <use x="85.742188" xlink:href="#DejaVuSans-109"/>
      <use x="183.154297" xlink:href="#DejaVuSans-101"/>
      <use x="244.677734" xlink:href="#DejaVuSans-32"/>
      <use x="276.464844" xlink:href="#DejaVuSans-40"/>
      <use x="315.478516" xlink:href="#DejaVuSans-115"/>
      <use x="367.578125" xlink:href="#DejaVuSans-41"/>
     </g>
    </g>
   </g>
   <g id="matplotlib.axis_2">
    <g id="ytick_1">
     <g id="line2d_7">
      <defs>
       <path d="M 0 0 
L -3.5 0 
" id="m71e9d81872" style="stroke:#000000;stroke-width:0.8;"/>
      </defs>
      <g>
       <use style="stroke:#000000;stroke-width:0.8;" x="43.78125" xlink:href="#m71e9d81872" y="231.577062"/>
      </g>
     </g>
     <g id="text_8">
      <!-- 0.0 -->
      <g transform="translate(20.878125 235.376281)scale(0.1 -0.1)">
       <use xlink:href="#DejaVuSans-48"/>
       <use x="63.623047" xlink:href="#DejaVuSans-46"/>
       <use x="95.410156" xlink:href="#DejaVuSans-48"/>
      </g>
     </g>
    </g>
    <g id="ytick_2">
     <g id="line2d_8">
      <g>
       <use style="stroke:#000000;stroke-width:0.8;" x="43.78125" xlink:href="#m71e9d81872" y="188.838574"/>
      </g>
     </g>
     <g id="text_9">
      <!-- 0.2 -->
      <g transform="translate(20.878125 192.637793)scale(0.1 -0.1)">
       <use xlink:href="#DejaVuSans-48"/>
       <use x="63.623047" xlink:href="#DejaVuSans-46"/>
       <use x="95.410156" xlink:href="#DejaVuSans-50"/>
      </g>
     </g>
    </g>
    <g id="ytick_3">
     <g id="line2d_9">
      <g>
       <use style="stroke:#000000;stroke-width:0.8;" x="43.78125" xlink:href="#m71e9d81872" y="146.100086"/>
      </g>
     </g>
     <g id="text_10">
      <!-- 0.4 -->
      <g transform="translate(20.878125 149.899305)scale(0.1 -0.1)">
       <defs>
        <path d="M 37.796875 64.3125 
L 12.890625 25.390625 
L 37.796875 25.390625 
z
M 35.203125 72.90625 
L 47.609375 72.90625 
L 47.609375 25.390625 
L 58.015625 25.390625 
L 58.015625 17.1875 
L 47.609375 17.1875 
L 47.609375 0 
L 37.796875 0 
L 37.796875 17.1875 
L 4.890625 17.1875 
L 4.890625 26.703125 
z
" id="DejaVuSans-52"/>
       </defs>
       <use xlink:href="#DejaVuSans-48"/>
       <use x="63.623047" xlink:href="#DejaVuSans-46"/>
       <use x="95.410156" xlink:href="#DejaVuSans-52"/>
      </g>
     </g>
    </g>
    <g id="ytick_4">
     <g id="line2d_10">
      <g>
       <use style="stroke:#000000;stroke-width:0.8;" x="43.78125" xlink:href="#m71e9d81872" y="103.361598"/>
      </g>
     </g>
     <g id="text_11">
      <!-- 0.6 -->
      <g transform="translate(20.878125 107.160817)scale(0.1 -0.1)">
       <defs>
        <path d="M 33.015625 40.375 
Q 26.375 40.375 22.484375 35.828125 
Q 18.609375 31.296875 18.609375 23.390625 
Q 18.609375 15.53125 22.484375 10.953125 
Q 26.375 6.390625 33.015625 6.390625 
Q 39.65625 6.390625 43.53125 10.953125 
Q 47.40625 15.53125 47.40625 23.390625 
Q 47.40625 31.296875 43.53125 35.828125 
Q 39.65625 40.375 33.015625 40.375 
z
M 52.59375 71.296875 
L 52.59375 62.3125 
Q 48.875 64.0625 45.09375 64.984375 
Q 41.3125 65.921875 37.59375 65.921875 
Q 27.828125 65.921875 22.671875 59.328125 
Q 17.53125 52.734375 16.796875 39.40625 
Q 19.671875 43.65625 24.015625 45.921875 
Q 28.375 48.1875 33.59375 48.1875 
Q 44.578125 48.1875 50.953125 41.515625 
Q 57.328125 34.859375 57.328125 23.390625 
Q 57.328125 12.15625 50.6875 5.359375 
Q 44.046875 -1.421875 33.015625 -1.421875 
Q 20.359375 -1.421875 13.671875 8.265625 
Q 6.984375 17.96875 6.984375 36.375 
Q 6.984375 53.65625 15.1875 63.9375 
Q 23.390625 74.21875 37.203125 74.21875 
Q 40.921875 74.21875 44.703125 73.484375 
Q 48.484375 72.75 52.59375 71.296875 
z
" id="DejaVuSans-54"/>
       </defs>
       <use xlink:href="#DejaVuSans-48"/>
       <use x="63.623047" xlink:href="#DejaVuSans-46"/>
       <use x="95.410156" xlink:href="#DejaVuSans-54"/>
      </g>
     </g>
    </g>
    <g id="ytick_5">
     <g id="line2d_11">
      <g>
       <use style="stroke:#000000;stroke-width:0.8;" x="43.78125" xlink:href="#m71e9d81872" y="60.62311"/>
      </g>
     </g>
     <g id="text_12">
      <!-- 0.8 -->
      <g transform="translate(20.878125 64.422329)scale(0.1 -0.1)">
       <defs>
        <path d="M 31.78125 34.625 
Q 24.75 34.625 20.71875 30.859375 
Q 16.703125 27.09375 16.703125 20.515625 
Q 16.703125 13.921875 20.71875 10.15625 
Q 24.75 6.390625 31.78125 6.390625 
Q 38.8125 6.390625 42.859375 10.171875 
Q 46.921875 13.96875 46.921875 20.515625 
Q 46.921875 27.09375 42.890625 30.859375 
Q 38.875 34.625 31.78125 34.625 
z
M 21.921875 38.8125 
Q 15.578125 40.375 12.03125 44.71875 
Q 8.5 49.078125 8.5 55.328125 
Q 8.5 64.0625 14.71875 69.140625 
Q 20.953125 74.21875 31.78125 74.21875 
Q 42.671875 74.21875 48.875 69.140625 
Q 55.078125 64.0625 55.078125 55.328125 
Q 55.078125 49.078125 51.53125 44.71875 
Q 48 40.375 41.703125 38.8125 
Q 48.828125 37.15625 52.796875 32.3125 
Q 56.78125 27.484375 56.78125 20.515625 
Q 56.78125 9.90625 50.3125 4.234375 
Q 43.84375 -1.421875 31.78125 -1.421875 
Q 19.734375 -1.421875 13.25 4.234375 
Q 6.78125 9.90625 6.78125 20.515625 
Q 6.78125 27.484375 10.78125 32.3125 
Q 14.796875 37.15625 21.921875 38.8125 
z
M 18.3125 54.390625 
Q 18.3125 48.734375 21.84375 45.5625 
Q 25.390625 42.390625 31.78125 42.390625 
Q 38.140625 42.390625 41.71875 45.5625 
Q 45.3125 48.734375 45.3125 54.390625 
Q 45.3125 60.0625 41.71875 63.234375 
Q 38.140625 66.40625 31.78125 66.40625 
Q 25.390625 66.40625 21.84375 63.234375 
Q 18.3125 60.0625 18.3125 54.390625 
z
" id="DejaVuSans-56"/>
       </defs>
       <use xlink:href="#DejaVuSans-48"/>
       <use x="63.623047" xlink:href="#DejaVuSans-46"/>
       <use x="95.410156" xlink:href="#DejaVuSans-56"/>
      </g>
     </g>
    </g>
    <g id="ytick_6">
     <g id="line2d_12">
      <g>
       <use style="stroke:#000000;stroke-width:0.8;" x="43.78125" xlink:href="#m71e9d81872" y="17.884622"/>
      </g>
     </g>
     <g id="text_13">
      <!-- 1.0 -->
      <g transform="translate(20.878125 21.683841)scale(0.1 -0.1)">
       <use xlink:href="#DejaVuSans-49"/>
       <use x="63.623047" xlink:href="#DejaVuSans-46"/>
       <use x="95.410156" xlink:href="#DejaVuSans-48"/>
      </g>
     </g>
    </g>
    <g id="text_14">
     <!-- Mean Magnitude of Throttle/Brake(Clipped) -->
     <g transform="translate(14.798438 232.837092)rotate(-90)scale(0.1 -0.1)">
      <defs>
       <path d="M 9.8125 72.90625 
L 24.515625 72.90625 
L 43.109375 23.296875 
L 61.8125 72.90625 
L 76.515625 72.90625 
L 76.515625 0 
L 66.890625 0 
L 66.890625 64.015625 
L 48.09375 14.015625 
L 38.1875 14.015625 
L 19.390625 64.015625 
L 19.390625 0 
L 9.8125 0 
z
" id="DejaVuSans-77"/>
       <path d="M 34.28125 27.484375 
Q 23.390625 27.484375 19.1875 25 
Q 14.984375 22.515625 14.984375 16.5 
Q 14.984375 11.71875 18.140625 8.90625 
Q 21.296875 6.109375 26.703125 6.109375 
Q 34.1875 6.109375 38.703125 11.40625 
Q 43.21875 16.703125 43.21875 25.484375 
L 43.21875 27.484375 
z
M 52.203125 31.203125 
L 52.203125 0 
L 43.21875 0 
L 43.21875 8.296875 
Q 40.140625 3.328125 35.546875 0.953125 
Q 30.953125 -1.421875 24.3125 -1.421875 
Q 15.921875 -1.421875 10.953125 3.296875 
Q 6 8.015625 6 15.921875 
Q 6 25.140625 12.171875 29.828125 
Q 18.359375 34.515625 30.609375 34.515625 
L 43.21875 34.515625 
L 43.21875 35.40625 
Q 43.21875 41.609375 39.140625 45 
Q 35.0625 48.390625 27.6875 48.390625 
Q 23 48.390625 18.546875 47.265625 
Q 14.109375 46.140625 10.015625 43.890625 
L 10.015625 52.203125 
Q 14.9375 54.109375 19.578125 55.046875 
Q 24.21875 56 28.609375 56 
Q 40.484375 56 46.34375 49.84375 
Q 52.203125 43.703125 52.203125 31.203125 
z
" id="DejaVuSans-97"/>
       <path d="M 54.890625 33.015625 
L 54.890625 0 
L 45.90625 0 
L 45.90625 32.71875 
Q 45.90625 40.484375 42.875 44.328125 
Q 39.84375 48.1875 33.796875 48.1875 
Q 26.515625 48.1875 22.3125 43.546875 
Q 18.109375 38.921875 18.109375 30.90625 
L 18.109375 0 
L 9.078125 0 
L 9.078125 54.6875 
L 18.109375 54.6875 
L 18.109375 46.1875 
Q 21.34375 51.125 25.703125 53.5625 
Q 30.078125 56 35.796875 56 
Q 45.21875 56 50.046875 50.171875 
Q 54.890625 44.34375 54.890625 33.015625 
z
" id="DejaVuSans-110"/>
       <path d="M 45.40625 27.984375 
Q 45.40625 37.75 41.375 43.109375 
Q 37.359375 48.484375 30.078125 48.484375 
Q 22.859375 48.484375 18.828125 43.109375 
Q 14.796875 37.75 14.796875 27.984375 
Q 14.796875 18.265625 18.828125 12.890625 
Q 22.859375 7.515625 30.078125 7.515625 
Q 37.359375 7.515625 41.375 12.890625 
Q 45.40625 18.265625 45.40625 27.984375 
z
M 54.390625 6.78125 
Q 54.390625 -7.171875 48.1875 -13.984375 
Q 42 -20.796875 29.203125 -20.796875 
Q 24.46875 -20.796875 20.265625 -20.09375 
Q 16.0625 -19.390625 12.109375 -17.921875 
L 12.109375 -9.1875 
Q 16.0625 -11.328125 19.921875 -12.34375 
Q 23.78125 -13.375 27.78125 -13.375 
Q 36.625 -13.375 41.015625 -8.765625 
Q 45.40625 -4.15625 45.40625 5.171875 
L 45.40625 9.625 
Q 42.625 4.78125 38.28125 2.390625 
Q 33.9375 0 27.875 0 
Q 17.828125 0 11.671875 7.65625 
Q 5.515625 15.328125 5.515625 27.984375 
Q 5.515625 40.671875 11.671875 48.328125 
Q 17.828125 56 27.875 56 
Q 33.9375 56 38.28125 53.609375 
Q 42.625 51.21875 45.40625 46.390625 
L 45.40625 54.6875 
L 54.390625 54.6875 
z
" id="DejaVuSans-103"/>
       <path d="M 18.3125 70.21875 
L 18.3125 54.6875 
L 36.8125 54.6875 
L 36.8125 47.703125 
L 18.3125 47.703125 
L 18.3125 18.015625 
Q 18.3125 11.328125 20.140625 9.421875 
Q 21.96875 7.515625 27.59375 7.515625 
L 36.8125 7.515625 
L 36.8125 0 
L 27.59375 0 
Q 17.1875 0 13.234375 3.875 
Q 9.28125 7.765625 9.28125 18.015625 
L 9.28125 47.703125 
L 2.6875 47.703125 
L 2.6875 54.6875 
L 9.28125 54.6875 
L 9.28125 70.21875 
z
" id="DejaVuSans-116"/>
       <path d="M 8.5 21.578125 
L 8.5 54.6875 
L 17.484375 54.6875 
L 17.484375 21.921875 
Q 17.484375 14.15625 20.5 10.265625 
Q 23.53125 6.390625 29.59375 6.390625 
Q 36.859375 6.390625 41.078125 11.03125 
Q 45.3125 15.671875 45.3125 23.6875 
L 45.3125 54.6875 
L 54.296875 54.6875 
L 54.296875 0 
L 45.3125 0 
L 45.3125 8.40625 
Q 42.046875 3.421875 37.71875 1 
Q 33.40625 -1.421875 27.6875 -1.421875 
Q 18.265625 -1.421875 13.375 4.4375 
Q 8.5 10.296875 8.5 21.578125 
z
M 31.109375 56 
z
" id="DejaVuSans-117"/>
       <path d="M 45.40625 46.390625 
L 45.40625 75.984375 
L 54.390625 75.984375 
L 54.390625 0 
L 45.40625 0 
L 45.40625 8.203125 
Q 42.578125 3.328125 38.25 0.953125 
Q 33.9375 -1.421875 27.875 -1.421875 
Q 17.96875 -1.421875 11.734375 6.484375 
Q 5.515625 14.40625 5.515625 27.296875 
Q 5.515625 40.1875 11.734375 48.09375 
Q 17.96875 56 27.875 56 
Q 33.9375 56 38.25 53.625 
Q 42.578125 51.265625 45.40625 46.390625 
z
M 14.796875 27.296875 
Q 14.796875 17.390625 18.875 11.75 
Q 22.953125 6.109375 30.078125 6.109375 
Q 37.203125 6.109375 41.296875 11.75 
Q 45.40625 17.390625 45.40625 27.296875 
Q 45.40625 37.203125 41.296875 42.84375 
Q 37.203125 48.484375 30.078125 48.484375 
Q 22.953125 48.484375 18.875 42.84375 
Q 14.796875 37.203125 14.796875 27.296875 
z
" id="DejaVuSans-100"/>
       <path d="M 30.609375 48.390625 
Q 23.390625 48.390625 19.1875 42.75 
Q 14.984375 37.109375 14.984375 27.296875 
Q 14.984375 17.484375 19.15625 11.84375 
Q 23.34375 6.203125 30.609375 6.203125 
Q 37.796875 6.203125 41.984375 11.859375 
Q 46.1875 17.53125 46.1875 27.296875 
Q 46.1875 37.015625 41.984375 42.703125 
Q 37.796875 48.390625 30.609375 48.390625 
z
M 30.609375 56 
Q 42.328125 56 49.015625 48.375 
Q 55.71875 40.765625 55.71875 27.296875 
Q 55.71875 13.875 49.015625 6.21875 
Q 42.328125 -1.421875 30.609375 -1.421875 
Q 18.84375 -1.421875 12.171875 6.21875 
Q 5.515625 13.875 5.515625 27.296875 
Q 5.515625 40.765625 12.171875 48.375 
Q 18.84375 56 30.609375 56 
z
" id="DejaVuSans-111"/>
       <path d="M 37.109375 75.984375 
L 37.109375 68.5 
L 28.515625 68.5 
Q 23.6875 68.5 21.796875 66.546875 
Q 19.921875 64.59375 19.921875 59.515625 
L 19.921875 54.6875 
L 34.71875 54.6875 
L 34.71875 47.703125 
L 19.921875 47.703125 
L 19.921875 0 
L 10.890625 0 
L 10.890625 47.703125 
L 2.296875 47.703125 
L 2.296875 54.6875 
L 10.890625 54.6875 
L 10.890625 58.5 
Q 10.890625 67.625 15.140625 71.796875 
Q 19.390625 75.984375 28.609375 75.984375 
z
" id="DejaVuSans-102"/>
       <path d="M 54.890625 33.015625 
L 54.890625 0 
L 45.90625 0 
L 45.90625 32.71875 
Q 45.90625 40.484375 42.875 44.328125 
Q 39.84375 48.1875 33.796875 48.1875 
Q 26.515625 48.1875 22.3125 43.546875 
Q 18.109375 38.921875 18.109375 30.90625 
L 18.109375 0 
L 9.078125 0 
L 9.078125 75.984375 
L 18.109375 75.984375 
L 18.109375 46.1875 
Q 21.34375 51.125 25.703125 53.5625 
Q 30.078125 56 35.796875 56 
Q 45.21875 56 50.046875 50.171875 
Q 54.890625 44.34375 54.890625 33.015625 
z
" id="DejaVuSans-104"/>
       <path d="M 41.109375 46.296875 
Q 39.59375 47.171875 37.8125 47.578125 
Q 36.03125 48 33.890625 48 
Q 26.265625 48 22.1875 43.046875 
Q 18.109375 38.09375 18.109375 28.8125 
L 18.109375 0 
L 9.078125 0 
L 9.078125 54.6875 
L 18.109375 54.6875 
L 18.109375 46.1875 
Q 20.953125 51.171875 25.484375 53.578125 
Q 30.03125 56 36.53125 56 
Q 37.453125 56 38.578125 55.875 
Q 39.703125 55.765625 41.0625 55.515625 
z
" id="DejaVuSans-114"/>
       <path d="M 9.421875 75.984375 
L 18.40625 75.984375 
L 18.40625 0 
L 9.421875 0 
z
" id="DejaVuSans-108"/>
       <path d="M 25.390625 72.90625 
L 33.6875 72.90625 
L 8.296875 -9.28125 
L 0 -9.28125 
z
" id="DejaVuSans-47"/>
       <path d="M 19.671875 34.8125 
L 19.671875 8.109375 
L 35.5 8.109375 
Q 43.453125 8.109375 47.28125 11.40625 
Q 51.125 14.703125 51.125 21.484375 
Q 51.125 28.328125 47.28125 31.5625 
Q 43.453125 34.8125 35.5 34.8125 
z
M 19.671875 64.796875 
L 19.671875 42.828125 
L 34.28125 42.828125 
Q 41.5 42.828125 45.03125 45.53125 
Q 48.578125 48.25 48.578125 53.8125 
Q 48.578125 59.328125 45.03125 62.0625 
Q 41.5 64.796875 34.28125 64.796875 
z
M 9.8125 72.90625 
L 35.015625 72.90625 
Q 46.296875 72.90625 52.390625 68.21875 
Q 58.5 63.53125 58.5 54.890625 
Q 58.5 48.1875 55.375 44.234375 
Q 52.25 40.28125 46.1875 39.3125 
Q 53.46875 37.75 57.5 32.78125 
Q 61.53125 27.828125 61.53125 20.40625 
Q 61.53125 10.640625 54.890625 5.3125 
Q 48.25 0 35.984375 0 
L 9.8125 0 
z
" id="DejaVuSans-66"/>
       <path d="M 9.078125 75.984375 
L 18.109375 75.984375 
L 18.109375 31.109375 
L 44.921875 54.6875 
L 56.390625 54.6875 
L 27.390625 29.109375 
L 57.625 0 
L 45.90625 0 
L 18.109375 26.703125 
L 18.109375 0 
L 9.078125 0 
z
" id="DejaVuSans-107"/>
       <path d="M 64.40625 67.28125 
L 64.40625 56.890625 
Q 59.421875 61.53125 53.78125 63.8125 
Q 48.140625 66.109375 41.796875 66.109375 
Q 29.296875 66.109375 22.65625 58.46875 
Q 16.015625 50.828125 16.015625 36.375 
Q 16.015625 21.96875 22.65625 14.328125 
Q 29.296875 6.6875 41.796875 6.6875 
Q 48.140625 6.6875 53.78125 8.984375 
Q 59.421875 11.28125 64.40625 15.921875 
L 64.40625 5.609375 
Q 59.234375 2.09375 53.4375 0.328125 
Q 47.65625 -1.421875 41.21875 -1.421875 
Q 24.65625 -1.421875 15.125 8.703125 
Q 5.609375 18.84375 5.609375 36.375 
Q 5.609375 53.953125 15.125 64.078125 
Q 24.65625 74.21875 41.21875 74.21875 
Q 47.75 74.21875 53.53125 72.484375 
Q 59.328125 70.75 64.40625 67.28125 
z
" id="DejaVuSans-67"/>
       <path d="M 18.109375 8.203125 
L 18.109375 -20.796875 
L 9.078125 -20.796875 
L 9.078125 54.6875 
L 18.109375 54.6875 
L 18.109375 46.390625 
Q 20.953125 51.265625 25.265625 53.625 
Q 29.59375 56 35.59375 56 
Q 45.5625 56 51.78125 48.09375 
Q 58.015625 40.1875 58.015625 27.296875 
Q 58.015625 14.40625 51.78125 6.484375 
Q 45.5625 -1.421875 35.59375 -1.421875 
Q 29.59375 -1.421875 25.265625 0.953125 
Q 20.953125 3.328125 18.109375 8.203125 
z
M 48.6875 27.296875 
Q 48.6875 37.203125 44.609375 42.84375 
Q 40.53125 48.484375 33.40625 48.484375 
Q 26.265625 48.484375 22.1875 42.84375 
Q 18.109375 37.203125 18.109375 27.296875 
Q 18.109375 17.390625 22.1875 11.75 
Q 26.265625 6.109375 33.40625 6.109375 
Q 40.53125 6.109375 44.609375 11.75 
Q 48.6875 17.390625 48.6875 27.296875 
z
" id="DejaVuSans-112"/>
      </defs>
      <use xlink:href="#DejaVuSans-77"/>
      <use x="86.279297" xlink:href="#DejaVuSans-101"/>
      <use x="147.802734" xlink:href="#DejaVuSans-97"/>
      <use x="209.082031" xlink:href="#DejaVuSans-110"/>
      <use x="272.460938" xlink:href="#DejaVuSans-32"/>
      <use x="304.248047" xlink:href="#DejaVuSans-77"/>
      <use x="390.527344" xlink:href="#DejaVuSans-97"/>
      <use x="451.806641" xlink:href="#DejaVuSans-103"/>
      <use x="515.283203" xlink:href="#DejaVuSans-110"/>
      <use x="578.662109" xlink:href="#DejaVuSans-105"/>
      <use x="606.445312" xlink:href="#DejaVuSans-116"/>
      <use x="645.654297" xlink:href="#DejaVuSans-117"/>
      <use x="709.033203" xlink:href="#DejaVuSans-100"/>
      <use x="772.509766" xlink:href="#DejaVuSans-101"/>
      <use x="834.033203" xlink:href="#DejaVuSans-32"/>
      <use x="865.820312" xlink:href="#DejaVuSans-111"/>
      <use x="927.001953" xlink:href="#DejaVuSans-102"/>
      <use x="962.207031" xlink:href="#DejaVuSans-32"/>
      <use x="993.994141" xlink:href="#DejaVuSans-84"/>
      <use x="1055.078125" xlink:href="#DejaVuSans-104"/>
      <use x="1118.457031" xlink:href="#DejaVuSans-114"/>
      <use x="1157.320312" xlink:href="#DejaVuSans-111"/>
      <use x="1218.501953" xlink:href="#DejaVuSans-116"/>
      <use x="1257.710938" xlink:href="#DejaVuSans-116"/>
      <use x="1296.919922" xlink:href="#DejaVuSans-108"/>
      <use x="1324.703125" xlink:href="#DejaVuSans-101"/>
      <use x="1386.226562" xlink:href="#DejaVuSans-47"/>
      <use x="1419.917969" xlink:href="#DejaVuSans-66"/>
      <use x="1488.521484" xlink:href="#DejaVuSans-114"/>
      <use x="1529.634766" xlink:href="#DejaVuSans-97"/>
      <use x="1590.914062" xlink:href="#DejaVuSans-107"/>
      <use x="1645.199219" xlink:href="#DejaVuSans-101"/>
      <use x="1706.722656" xlink:href="#DejaVuSans-40"/>
      <use x="1745.736328" xlink:href="#DejaVuSans-67"/>
      <use x="1815.560547" xlink:href="#DejaVuSans-108"/>
      <use x="1843.34375" xlink:href="#DejaVuSans-105"/>
      <use x="1871.126953" xlink:href="#DejaVuSans-112"/>
      <use x="1934.603516" xlink:href="#DejaVuSans-112"/>
      <use x="1998.080078" xlink:href="#DejaVuSans-101"/>
      <use x="2059.603516" xlink:href="#DejaVuSans-100"/>
      <use x="2123.080078" xlink:href="#DejaVuSans-41"/>
     </g>
    </g>
   </g>
   <g id="line2d_13">
    <path clip-path="url(#p6f5c038ca4)" d="M 54.402666 231.577062 
L 266.830991 231.577062 
L 266.830991 231.577062 
" style="fill:none;stroke:#000000;stroke-linecap:square;stroke-width:0.5;"/>
   </g>
   <g id="line2d_14">
    <path clip-path="url(#p6f5c038ca4)" d="M 54.402666 17.884622 
L 266.830991 17.884622 
L 266.830991 17.884622 
" style="fill:none;stroke:#000000;stroke-linecap:square;stroke-width:0.5;"/>
   </g>
   <g id="line2d_15">
    <path clip-path="url(#p6f5c038ca4)" d="M 54.402666 32.712635 
L 55.930928 34.515429 
L 57.459189 34.849715 
L 58.98745 33.728718 
L 60.515712 34.188626 
L 62.043973 36.763257 
L 63.572234 33.659042 
L 65.100496 33.015723 
L 66.628757 31.79201 
L 68.157018 33.485088 
L 69.68528 32.787784 
L 71.213541 30.445257 
L 72.741802 34.147178 
L 74.270064 33.010606 
L 75.798325 31.621451 
L 77.326586 33.479046 
L 78.854848 32.162879 
L 80.383109 30.446805 
L 81.91137 29.53998 
L 83.439632 28.767532 
L 84.967893 30.891984 
L 86.496154 31.038202 
L 88.024416 31.051718 
L 89.552677 29.489154 
L 91.080938 30.522547 
L 92.6092 30.332846 
L 94.137461 29.737427 
L 95.665722 27.129563 
L 97.193984 29.450583 
L 98.722245 28.18425 
L 100.250506 29.052575 
L 101.778768 29.353986 
L 103.307029 28.954892 
L 104.83529 29.341846 
L 106.363552 28.577268 
L 107.891813 29.487132 
L 109.420074 31.623662 
L 110.948336 29.57597 
L 112.476597 31.445922 
L 114.004858 31.283577 
L 115.53312 31.903738 
L 117.061381 31.537997 
L 118.589642 31.512958 
L 120.117904 28.982051 
L 121.646165 29.755693 
L 123.174426 29.570299 
L 124.702688 30.991175 
L 126.230949 28.869394 
L 127.75921 30.549662 
L 129.287472 28.456762 
L 132.343994 30.135871 
L 133.872256 30.608666 
L 135.400517 29.743153 
L 136.928778 30.544901 
L 138.457039 28.454818 
L 139.985301 29.32972 
L 141.513562 32.677127 
L 143.041823 33.286471 
L 144.570085 31.622218 
L 146.098346 31.184439 
L 147.626607 31.82692 
L 149.154869 31.023385 
L 150.68313 30.912428 
L 152.211391 30.662514 
L 153.739653 32.622713 
L 155.267914 32.42759 
L 156.796175 33.301405 
L 158.324437 30.6158 
L 159.852698 31.20547 
L 161.380959 30.540946 
L 162.909221 33.35581 
L 164.437482 33.256197 
L 167.494005 33.322989 
L 169.022266 30.125394 
L 170.550527 31.300501 
L 172.078789 30.872387 
L 173.60705 31.84901 
L 175.135311 32.959022 
L 176.663573 32.61972 
L 178.191834 31.767164 
L 179.720095 28.336443 
L 181.248357 30.988131 
L 182.776618 32.809701 
L 184.304879 33.49744 
L 185.833141 31.582319 
L 187.361402 30.768984 
L 188.889663 30.58388 
L 190.417925 32.43632 
L 191.946186 30.365178 
L 193.474447 33.926355 
L 195.002709 31.597946 
L 196.53097 31.409313 
L 198.059231 31.627641 
L 199.587493 33.624631 
L 201.115754 31.868964 
L 202.644015 32.874095 
L 204.172277 32.57771 
L 205.700538 31.151784 
L 207.228799 33.05652 
L 208.757061 33.451435 
L 210.285322 34.328176 
L 211.813583 30.242954 
L 213.341845 32.867052 
L 214.870106 33.920123 
L 216.398367 31.735294 
L 217.926629 33.925441 
L 219.45489 35.426857 
L 220.983151 34.849952 
L 222.511413 33.270309 
L 224.039674 34.538836 
L 225.567935 33.389735 
L 227.096197 32.910138 
L 228.624458 32.575576 
L 230.152719 29.968294 
L 231.680981 31.715997 
L 233.209242 32.5435 
L 234.737503 32.579992 
L 236.265765 33.087364 
L 237.794026 33.791687 
L 239.322287 32.208441 
L 240.850549 31.770293 
L 242.37881 29.836666 
L 243.907071 33.528236 
L 245.435333 31.844031 
L 246.963594 32.345385 
L 248.491855 33.776316 
L 250.020117 36.428054 
L 251.548378 34.006505 
L 253.076639 36.241824 
L 254.604901 34.546662 
L 256.133162 36.946391 
L 257.661423 35.052037 
L 260.717946 32.839898 
L 262.246207 35.038039 
L 263.774469 34.18134 
L 265.30273 34.02317 
L 266.830991 35.54585 
L 266.830991 35.54585 
" style="fill:none;stroke:#1f77b4;stroke-linecap:square;stroke-width:1.5;"/>
   </g>
   <g id="line2d_16">
    <path clip-path="url(#p6f5c038ca4)" d="M 54.402666 231.577062 
L 266.830991 231.577062 
L 266.830991 231.577062 
" style="fill:none;stroke:#000000;stroke-linecap:square;stroke-width:0.5;"/>
   </g>
   <g id="line2d_17">
    <path clip-path="url(#p6f5c038ca4)" d="M 54.402666 17.884622 
L 266.830991 17.884622 
L 266.830991 17.884622 
" style="fill:none;stroke:#000000;stroke-linecap:square;stroke-width:0.5;"/>
   </g>
   <g id="line2d_18">
    <path clip-path="url(#p6f5c038ca4)" d="M 54.402666 49.423626 
L 55.930928 54.843619 
L 57.459189 49.926514 
L 58.98745 48.481375 
L 60.515712 52.719759 
L 62.043973 43.36653 
L 65.100496 36.424777 
L 66.628757 40.108066 
L 68.157018 38.051806 
L 69.68528 38.293362 
L 71.213541 38.96132 
L 72.741802 39.25431 
L 74.270064 42.829919 
L 75.798325 42.179972 
L 77.326586 38.965585 
L 78.854848 35.48542 
L 80.383109 36.541296 
L 81.91137 30.56087 
L 83.439632 32.068691 
L 84.967893 32.94313 
L 86.496154 37.071637 
L 88.024416 33.770805 
L 89.552677 33.787007 
L 91.080938 32.431902 
L 92.6092 34.270387 
L 94.137461 33.508412 
L 95.665722 35.085101 
L 97.193984 34.767873 
L 98.722245 32.629545 
L 100.250506 30.923512 
L 101.778768 31.970063 
L 103.307029 34.526432 
L 104.83529 33.916756 
L 106.363552 34.125538 
L 107.891813 32.415664 
L 109.420074 34.020418 
L 110.948336 33.528678 
L 112.476597 33.635893 
L 114.004858 32.056237 
L 115.53312 32.040792 
L 117.061381 30.805172 
L 118.589642 30.66847 
L 120.117904 30.133044 
L 121.646165 30.454636 
L 123.174426 28.696933 
L 124.702688 29.504416 
L 126.230949 28.332852 
L 127.75921 29.866238 
L 130.815733 30.395433 
L 132.343994 33.266228 
L 133.872256 31.625831 
L 135.400517 31.365184 
L 136.928778 28.186623 
L 138.457039 28.079714 
L 139.985301 27.837719 
L 141.513562 33.072837 
L 143.041823 31.270868 
L 144.570085 30.395067 
L 146.098346 31.494044 
L 147.626607 31.922523 
L 149.154869 30.874457 
L 150.68313 30.46411 
L 152.211391 31.944752 
L 153.739653 28.697197 
L 155.267914 30.312721 
L 156.796175 31.746999 
L 158.324437 31.896493 
L 159.852698 29.933851 
L 161.380959 28.557293 
L 162.909221 33.364681 
L 164.437482 30.689087 
L 165.965743 29.960398 
L 167.494005 31.148769 
L 169.022266 31.316204 
L 170.550527 33.805026 
L 172.078789 33.602368 
L 173.60705 33.24916 
L 175.135311 30.835351 
L 176.663573 31.638119 
L 178.191834 30.726437 
L 179.720095 30.612141 
L 181.248357 31.311001 
L 182.776618 31.227278 
L 184.304879 30.86099 
L 185.833141 30.129931 
L 187.361402 31.971301 
L 188.889663 29.235053 
L 190.417925 31.852383 
L 191.946186 31.754642 
L 193.474447 29.680178 
L 195.002709 30.87871 
L 196.53097 29.678994 
L 198.059231 32.373865 
L 199.587493 28.956874 
L 201.115754 30.289669 
L 202.644015 30.624981 
L 204.172277 32.139604 
L 205.700538 31.207687 
L 207.228799 30.873281 
L 208.757061 32.101791 
L 210.285322 29.993785 
L 211.813583 32.356839 
L 213.341845 31.848048 
L 214.870106 29.337351 
L 216.398367 31.768802 
L 217.926629 30.296023 
L 219.45489 29.390987 
L 220.983151 30.283221 
L 222.511413 28.482449 
L 224.039674 32.56497 
L 225.567935 31.420707 
L 227.096197 32.650126 
L 230.152719 28.273349 
L 231.680981 30.453141 
L 233.209242 29.060689 
L 234.737503 29.319987 
L 236.265765 27.632722 
L 237.794026 29.949122 
L 239.322287 26.649588 
L 240.850549 27.905978 
L 242.37881 29.975325 
L 243.907071 29.261509 
L 245.435333 29.568453 
L 246.963594 28.807906 
L 248.491855 32.214515 
L 250.020117 29.522417 
L 251.548378 29.22144 
L 253.076639 30.185541 
L 254.604901 28.991946 
L 256.133162 29.372701 
L 257.661423 29.089535 
L 259.189685 28.437478 
L 260.717946 27.548864 
L 262.246207 28.010922 
L 263.774469 29.173992 
L 265.30273 29.629829 
L 266.830991 28.539771 
L 266.830991 28.539771 
" style="fill:none;stroke:#ff7f0e;stroke-linecap:square;stroke-width:1.5;"/>
   </g>
   <g id="line2d_19">
    <path clip-path="url(#p6f5c038ca4)" d="M 54.402666 231.577062 
L 266.830991 231.577062 
L 266.830991 231.577062 
" style="fill:none;stroke:#000000;stroke-linecap:square;stroke-width:0.5;"/>
   </g>
   <g id="line2d_20">
    <path clip-path="url(#p6f5c038ca4)" d="M 54.402666 17.884622 
L 266.830991 17.884622 
L 266.830991 17.884622 
" style="fill:none;stroke:#000000;stroke-linecap:square;stroke-width:0.5;"/>
   </g>
   <g id="line2d_21">
    <path clip-path="url(#p6f5c038ca4)" d="M 54.402666 77.080117 
L 55.930928 79.121711 
L 57.459189 93.823508 
L 58.98745 68.277321 
L 60.515712 60.317533 
L 63.572234 43.493463 
L 65.100496 44.601883 
L 66.628757 47.238015 
L 68.157018 45.321591 
L 69.68528 47.431712 
L 71.213541 41.913986 
L 72.741802 42.259495 
L 74.270064 42.140759 
L 75.798325 44.887453 
L 77.326586 41.789571 
L 78.854848 40.719686 
L 80.383109 41.488516 
L 81.91137 41.645637 
L 83.439632 43.010249 
L 84.967893 43.425771 
L 86.496154 43.566746 
L 88.024416 41.71668 
L 89.552677 42.789562 
L 91.080938 39.254424 
L 92.6092 41.977586 
L 94.137461 42.080139 
L 95.665722 38.891142 
L 97.193984 37.577525 
L 98.722245 42.135142 
L 100.250506 39.70768 
L 101.778768 42.254345 
L 103.307029 40.806692 
L 104.83529 39.910266 
L 106.363552 40.727426 
L 107.891813 42.042999 
L 109.420074 37.659093 
L 110.948336 38.622664 
L 112.476597 36.245301 
L 114.004858 37.341393 
L 115.53312 38.193493 
L 117.061381 37.439055 
L 118.589642 37.912695 
L 120.117904 38.116321 
L 121.646165 37.345343 
L 123.174426 36.708852 
L 124.702688 36.85895 
L 126.230949 34.831336 
L 127.75921 34.329053 
L 129.287472 34.343202 
L 130.815733 31.9264 
L 132.343994 30.350744 
L 133.872256 30.147576 
L 135.400517 32.187395 
L 136.928778 30.248177 
L 138.457039 30.554614 
L 139.985301 32.881431 
L 141.513562 33.259527 
L 143.041823 34.645567 
L 144.570085 33.414924 
L 146.098346 34.737735 
L 147.626607 35.562129 
L 149.154869 34.078833 
L 150.68313 34.981638 
L 152.211391 34.653611 
L 153.739653 34.200972 
L 155.267914 34.495262 
L 156.796175 34.489857 
L 158.324437 33.381422 
L 159.852698 34.383876 
L 161.380959 37.731242 
L 162.909221 34.866945 
L 164.437482 33.764187 
L 165.965743 35.475926 
L 167.494005 34.356523 
L 169.022266 36.321573 
L 170.550527 33.011298 
L 172.078789 33.275536 
L 173.60705 34.23002 
L 175.135311 34.738948 
L 176.663573 36.493868 
L 178.191834 35.736403 
L 179.720095 37.344925 
L 181.248357 37.534398 
L 182.776618 36.311152 
L 184.304879 36.384718 
L 185.833141 34.868412 
L 187.361402 35.64984 
L 188.889663 34.503575 
L 190.417925 36.833329 
L 191.946186 36.201561 
L 193.474447 35.851663 
L 195.002709 35.667339 
L 196.53097 37.344767 
L 198.059231 31.745373 
L 199.587493 33.316883 
L 201.115754 34.232626 
L 202.644015 34.807453 
L 204.172277 34.782072 
L 205.700538 36.937253 
L 207.228799 34.675057 
L 208.757061 31.410794 
L 210.285322 32.706157 
L 211.813583 32.737758 
L 213.341845 34.610433 
L 214.870106 32.328926 
L 216.398367 33.968901 
L 217.926629 33.417594 
L 219.45489 32.126649 
L 220.983151 32.801335 
L 222.511413 33.842442 
L 224.039674 33.337258 
L 225.567935 35.065956 
L 227.096197 35.08808 
L 228.624458 34.655545 
L 230.152719 35.570638 
L 231.680981 31.808115 
L 233.209242 31.585355 
L 234.737503 34.683584 
L 236.265765 35.953914 
L 237.794026 34.146798 
L 239.322287 33.928079 
L 240.850549 32.648216 
L 242.37881 32.919245 
L 243.907071 35.096618 
L 245.435333 33.416316 
L 246.963594 34.006669 
L 248.491855 33.902213 
L 250.020117 34.502711 
L 251.548378 35.38155 
L 253.076639 35.648548 
L 254.604901 36.695221 
L 256.133162 35.882743 
L 257.661423 35.239293 
L 260.717946 33.659329 
L 262.246207 34.744262 
L 263.774469 34.208563 
L 265.30273 34.955727 
L 266.830991 35.144202 
L 266.830991 35.144202 
" style="fill:none;stroke:#2ca02c;stroke-linecap:square;stroke-width:1.5;"/>
   </g>
   <g id="line2d_22">
    <path clip-path="url(#p6f5c038ca4)" d="M 54.402666 231.577062 
L 266.830991 231.577062 
L 266.830991 231.577062 
" style="fill:none;stroke:#000000;stroke-linecap:square;stroke-width:0.5;"/>
   </g>
   <g id="line2d_23">
    <path clip-path="url(#p6f5c038ca4)" d="M 54.402666 17.884622 
L 266.830991 17.884622 
L 266.830991 17.884622 
" style="fill:none;stroke:#000000;stroke-linecap:square;stroke-width:0.5;"/>
   </g>
   <g id="line2d_24">
    <path clip-path="url(#p6f5c038ca4)" d="M 54.402666 79.206408 
L 55.930928 82.275516 
L 57.459189 97.32499 
L 58.98745 74.783703 
L 60.515712 60.338588 
L 62.043973 52.66161 
L 63.572234 46.259716 
L 65.100496 41.975968 
L 66.628757 42.632656 
L 68.157018 45.006954 
L 69.68528 43.681762 
L 71.213541 40.8091 
L 72.741802 37.696066 
L 74.270064 41.936609 
L 75.798325 43.851169 
L 77.326586 43.621364 
L 78.854848 39.379179 
L 80.383109 38.171294 
L 81.91137 39.594912 
L 83.439632 43.147036 
L 84.967893 44.944721 
L 86.496154 44.521505 
L 88.024416 41.771066 
L 89.552677 40.088704 
L 91.080938 39.546188 
L 92.6092 40.49503 
L 94.137461 40.885061 
L 95.665722 39.726345 
L 97.193984 41.027018 
L 98.722245 37.532374 
L 100.250506 39.664122 
L 101.778768 39.888415 
L 103.307029 40.672748 
L 104.83529 43.056539 
L 106.363552 41.274792 
L 107.891813 39.726037 
L 110.948336 41.575666 
L 112.476597 41.012131 
L 114.004858 37.951062 
L 115.53312 38.08089 
L 117.061381 37.595739 
L 118.589642 36.4728 
L 121.646165 37.387221 
L 123.174426 38.08308 
L 124.702688 36.814367 
L 126.230949 34.920468 
L 127.75921 34.335016 
L 129.287472 33.450842 
L 133.872256 31.636138 
L 135.400517 32.095514 
L 136.928778 31.577817 
L 138.457039 32.291108 
L 139.985301 35.270838 
L 141.513562 37.329472 
L 143.041823 36.652367 
L 144.570085 34.860614 
L 146.098346 35.547797 
L 147.626607 34.87904 
L 149.154869 35.5775 
L 150.68313 36.050343 
L 152.211391 34.080682 
L 153.739653 35.034517 
L 155.267914 34.111848 
L 156.796175 33.846647 
L 158.324437 33.102172 
L 159.852698 35.093989 
L 161.380959 35.793255 
L 162.909221 36.755058 
L 164.437482 34.620007 
L 165.965743 37.093146 
L 167.494005 33.99797 
L 169.022266 33.014909 
L 170.550527 34.726839 
L 172.078789 31.937068 
L 173.60705 33.543688 
L 175.135311 36.566379 
L 176.663573 37.62851 
L 178.191834 36.721296 
L 179.720095 37.367879 
L 181.248357 36.385369 
L 182.776618 39.513322 
L 184.304879 36.49599 
L 185.833141 36.285639 
L 187.361402 36.488894 
L 188.889663 35.876643 
L 190.417925 37.213911 
L 191.946186 36.952741 
L 193.474447 34.848961 
L 195.002709 34.022632 
L 196.53097 32.165099 
L 198.059231 34.414815 
L 199.587493 33.205691 
L 201.115754 35.677401 
L 202.644015 34.997141 
L 204.172277 36.612583 
L 205.700538 36.024743 
L 207.228799 32.150615 
L 208.757061 33.010642 
L 210.285322 31.452703 
L 211.813583 32.833872 
L 213.341845 32.872085 
L 214.870106 31.994029 
L 216.398367 33.447199 
L 217.926629 35.112506 
L 219.45489 34.443381 
L 220.983151 34.856196 
L 222.511413 35.139873 
L 224.039674 38.178046 
L 225.567935 37.992431 
L 227.096197 34.628595 
L 228.624458 34.863256 
L 230.152719 32.75491 
L 231.680981 32.949551 
L 233.209242 35.637303 
L 234.737503 34.342614 
L 236.265765 34.642722 
L 239.322287 35.953042 
L 240.850549 36.262438 
L 242.37881 37.38276 
L 243.907071 37.241694 
L 245.435333 38.459647 
L 246.963594 37.257892 
L 248.491855 36.45827 
L 250.020117 36.822029 
L 251.548378 36.353451 
L 253.076639 37.928082 
L 254.604901 38.862466 
L 256.133162 37.149794 
L 257.661423 37.846303 
L 259.189685 36.185601 
L 260.717946 35.201639 
L 262.246207 36.378211 
L 263.774469 33.499071 
L 265.30273 34.000118 
L 266.830991 32.229126 
L 266.830991 32.229126 
" style="fill:none;stroke:#d62728;stroke-linecap:square;stroke-width:1.5;"/>
   </g>
   <g id="patch_3">
    <path d="M 43.78125 242.261684 
L 43.78125 7.2 
" style="fill:none;stroke:#000000;stroke-linecap:square;stroke-linejoin:miter;stroke-width:0.8;"/>
   </g>
   <g id="patch_4">
    <path d="M 277.452408 242.261684 
L 277.452408 7.2 
" style="fill:none;stroke:#000000;stroke-linecap:square;stroke-linejoin:miter;stroke-width:0.8;"/>
   </g>
   <g id="patch_5">
    <path d="M 43.78125 242.261684 
L 277.452408 242.261684 
" style="fill:none;stroke:#000000;stroke-linecap:square;stroke-linejoin:miter;stroke-width:0.8;"/>
   </g>
   <g id="patch_6">
    <path d="M 43.78125 7.2 
L 277.452408 7.2 
" style="fill:none;stroke:#000000;stroke-linecap:square;stroke-linejoin:miter;stroke-width:0.8;"/>
   </g>
  </g>
  <g id="axes_2">
   <g id="patch_7">
    <path d="M 327.590092 242.261684 
L 561.26125 242.261684 
L 561.26125 7.2 
L 327.590092 7.2 
z
" style="fill:#ffffff;"/>
   </g>
   <g id="matplotlib.axis_3">
    <g id="xtick_7">
     <g id="line2d_25">
      <g>
       <use style="stroke:#000000;stroke-width:0.8;" x="338.211509" xlink:href="#m2065dc4477" y="242.261684"/>
      </g>
     </g>
     <g id="text_15">
      <!-- −1.0 -->
      <g transform="translate(326.070102 256.860122)scale(0.1 -0.1)">
       <defs>
        <path d="M 10.59375 35.5 
L 73.1875 35.5 
L 73.1875 27.203125 
L 10.59375 27.203125 
z
" id="DejaVuSans-8722"/>
       </defs>
       <use xlink:href="#DejaVuSans-8722"/>
       <use x="83.789062" xlink:href="#DejaVuSans-49"/>
       <use x="147.412109" xlink:href="#DejaVuSans-46"/>
       <use x="179.199219" xlink:href="#DejaVuSans-48"/>
      </g>
     </g>
    </g>
    <g id="xtick_8">
     <g id="line2d_26">
      <g>
       <use style="stroke:#000000;stroke-width:0.8;" x="391.31859" xlink:href="#m2065dc4477" y="242.261684"/>
      </g>
     </g>
     <g id="text_16">
      <!-- −0.5 -->
      <g transform="translate(379.177184 256.860122)scale(0.1 -0.1)">
       <use xlink:href="#DejaVuSans-8722"/>
       <use x="83.789062" xlink:href="#DejaVuSans-48"/>
       <use x="147.412109" xlink:href="#DejaVuSans-46"/>
       <use x="179.199219" xlink:href="#DejaVuSans-53"/>
      </g>
     </g>
    </g>
    <g id="xtick_9">
     <g id="line2d_27">
      <g>
       <use style="stroke:#000000;stroke-width:0.8;" x="444.425671" xlink:href="#m2065dc4477" y="242.261684"/>
      </g>
     </g>
     <g id="text_17">
      <!-- 0.0 -->
      <g transform="translate(436.474109 256.860122)scale(0.1 -0.1)">
       <use xlink:href="#DejaVuSans-48"/>
       <use x="63.623047" xlink:href="#DejaVuSans-46"/>
       <use x="95.410156" xlink:href="#DejaVuSans-48"/>
      </g>
     </g>
    </g>
    <g id="xtick_10">
     <g id="line2d_28">
      <g>
       <use style="stroke:#000000;stroke-width:0.8;" x="497.532752" xlink:href="#m2065dc4477" y="242.261684"/>
      </g>
     </g>
     <g id="text_18">
      <!-- 0.5 -->
      <g transform="translate(489.58119 256.860122)scale(0.1 -0.1)">
       <use xlink:href="#DejaVuSans-48"/>
       <use x="63.623047" xlink:href="#DejaVuSans-46"/>
       <use x="95.410156" xlink:href="#DejaVuSans-53"/>
      </g>
     </g>
    </g>
    <g id="xtick_11">
     <g id="line2d_29">
      <g>
       <use style="stroke:#000000;stroke-width:0.8;" x="550.639834" xlink:href="#m2065dc4477" y="242.261684"/>
      </g>
     </g>
     <g id="text_19">
      <!-- 1.0 -->
      <g transform="translate(542.688271 256.860122)scale(0.1 -0.1)">
       <use xlink:href="#DejaVuSans-49"/>
       <use x="63.623047" xlink:href="#DejaVuSans-46"/>
       <use x="95.410156" xlink:href="#DejaVuSans-48"/>
      </g>
     </g>
    </g>
    <g id="text_20">
     <!-- Throttle/Brake (Clipped) -->
     <g transform="translate(384.430359 270.538247)scale(0.1 -0.1)">
      <use xlink:href="#DejaVuSans-84"/>
      <use x="61.083984" xlink:href="#DejaVuSans-104"/>
      <use x="124.462891" xlink:href="#DejaVuSans-114"/>
      <use x="163.326172" xlink:href="#DejaVuSans-111"/>
      <use x="224.507812" xlink:href="#DejaVuSans-116"/>
      <use x="263.716797" xlink:href="#DejaVuSans-116"/>
      <use x="302.925781" xlink:href="#DejaVuSans-108"/>
      <use x="330.708984" xlink:href="#DejaVuSans-101"/>
      <use x="392.232422" xlink:href="#DejaVuSans-47"/>
      <use x="425.923828" xlink:href="#DejaVuSans-66"/>
      <use x="494.527344" xlink:href="#DejaVuSans-114"/>
      <use x="535.640625" xlink:href="#DejaVuSans-97"/>
      <use x="596.919922" xlink:href="#DejaVuSans-107"/>
      <use x="651.205078" xlink:href="#DejaVuSans-101"/>
      <use x="712.728516" xlink:href="#DejaVuSans-32"/>
      <use x="744.515625" xlink:href="#DejaVuSans-40"/>
      <use x="783.529297" xlink:href="#DejaVuSans-67"/>
      <use x="853.353516" xlink:href="#DejaVuSans-108"/>
      <use x="881.136719" xlink:href="#DejaVuSans-105"/>
      <use x="908.919922" xlink:href="#DejaVuSans-112"/>
      <use x="972.396484" xlink:href="#DejaVuSans-112"/>
      <use x="1035.873047" xlink:href="#DejaVuSans-101"/>
      <use x="1097.396484" xlink:href="#DejaVuSans-100"/>
      <use x="1160.873047" xlink:href="#DejaVuSans-41"/>
     </g>
    </g>
   </g>
   <g id="matplotlib.axis_4">
    <g id="ytick_7">
     <g id="line2d_30">
      <g>
       <use style="stroke:#000000;stroke-width:0.8;" x="327.590092" xlink:href="#m71e9d81872" y="209.620467"/>
      </g>
     </g>
     <g id="text_21">
      <!-- $\mathdefault{10^{3}}$ -->
      <g transform="translate(302.990092 213.419686)scale(0.1 -0.1)">
       <defs>
        <path d="M 40.578125 39.3125 
Q 47.65625 37.796875 51.625 33 
Q 55.609375 28.21875 55.609375 21.1875 
Q 55.609375 10.40625 48.1875 4.484375 
Q 40.765625 -1.421875 27.09375 -1.421875 
Q 22.515625 -1.421875 17.65625 -0.515625 
Q 12.796875 0.390625 7.625 2.203125 
L 7.625 11.71875 
Q 11.71875 9.328125 16.59375 8.109375 
Q 21.484375 6.890625 26.8125 6.890625 
Q 36.078125 6.890625 40.9375 10.546875 
Q 45.796875 14.203125 45.796875 21.1875 
Q 45.796875 27.640625 41.28125 31.265625 
Q 36.765625 34.90625 28.71875 34.90625 
L 20.21875 34.90625 
L 20.21875 43.015625 
L 29.109375 43.015625 
Q 36.375 43.015625 40.234375 45.921875 
Q 44.09375 48.828125 44.09375 54.296875 
Q 44.09375 59.90625 40.109375 62.90625 
Q 36.140625 65.921875 28.71875 65.921875 
Q 24.65625 65.921875 20.015625 65.03125 
Q 15.375 64.15625 9.8125 62.3125 
L 9.8125 71.09375 
Q 15.4375 72.65625 20.34375 73.4375 
Q 25.25 74.21875 29.59375 74.21875 
Q 40.828125 74.21875 47.359375 69.109375 
Q 53.90625 64.015625 53.90625 55.328125 
Q 53.90625 49.265625 50.4375 45.09375 
Q 46.96875 40.921875 40.578125 39.3125 
z
" id="DejaVuSans-51"/>
       </defs>
       <use transform="translate(0 0.765625)" xlink:href="#DejaVuSans-49"/>
       <use transform="translate(63.623047 0.765625)" xlink:href="#DejaVuSans-48"/>
       <use transform="translate(128.203125 39.046875)scale(0.7)" xlink:href="#DejaVuSans-51"/>
      </g>
     </g>
    </g>
    <g id="ytick_8">
     <g id="line2d_31">
      <g>
       <use style="stroke:#000000;stroke-width:0.8;" x="327.590092" xlink:href="#m71e9d81872" y="111.292158"/>
      </g>
     </g>
     <g id="text_22">
      <!-- $\mathdefault{10^{4}}$ -->
      <g transform="translate(302.990092 115.091377)scale(0.1 -0.1)">
       <use transform="translate(0 0.684375)" xlink:href="#DejaVuSans-49"/>
       <use transform="translate(63.623047 0.684375)" xlink:href="#DejaVuSans-48"/>
       <use transform="translate(128.203125 38.965625)scale(0.7)" xlink:href="#DejaVuSans-52"/>
      </g>
     </g>
    </g>
    <g id="ytick_9">
     <g id="line2d_32">
      <g>
       <use style="stroke:#000000;stroke-width:0.8;" x="327.590092" xlink:href="#m71e9d81872" y="12.963849"/>
      </g>
     </g>
     <g id="text_23">
      <!-- $\mathdefault{10^{5}}$ -->
      <g transform="translate(302.990092 16.763068)scale(0.1 -0.1)">
       <use transform="translate(0 0.684375)" xlink:href="#DejaVuSans-49"/>
       <use transform="translate(63.623047 0.684375)" xlink:href="#DejaVuSans-48"/>
       <use transform="translate(128.203125 38.965625)scale(0.7)" xlink:href="#DejaVuSans-53"/>
      </g>
     </g>
    </g>
    <g id="ytick_10">
     <g id="line2d_33">
      <defs>
       <path d="M 0 0 
L -2 0 
" id="mf4f773b34b" style="stroke:#000000;stroke-width:0.6;"/>
      </defs>
      <g>
       <use style="stroke:#000000;stroke-width:0.6;" x="327.590092" xlink:href="#mf4f773b34b" y="239.220238"/>
      </g>
     </g>
    </g>
    <g id="ytick_11">
     <g id="line2d_34">
      <g>
       <use style="stroke:#000000;stroke-width:0.6;" x="327.590092" xlink:href="#mf4f773b34b" y="231.43448"/>
      </g>
     </g>
    </g>
    <g id="ytick_12">
     <g id="line2d_35">
      <g>
       <use style="stroke:#000000;stroke-width:0.6;" x="327.590092" xlink:href="#mf4f773b34b" y="224.851715"/>
      </g>
     </g>
    </g>
    <g id="ytick_13">
     <g id="line2d_36">
      <g>
       <use style="stroke:#000000;stroke-width:0.6;" x="327.590092" xlink:href="#mf4f773b34b" y="219.149465"/>
      </g>
     </g>
    </g>
    <g id="ytick_14">
     <g id="line2d_37">
      <g>
       <use style="stroke:#000000;stroke-width:0.6;" x="327.590092" xlink:href="#mf4f773b34b" y="214.119724"/>
      </g>
     </g>
    </g>
    <g id="ytick_15">
     <g id="line2d_38">
      <g>
       <use style="stroke:#000000;stroke-width:0.6;" x="327.590092" xlink:href="#mf4f773b34b" y="180.020697"/>
      </g>
     </g>
    </g>
    <g id="ytick_16">
     <g id="line2d_39">
      <g>
       <use style="stroke:#000000;stroke-width:0.6;" x="327.590092" xlink:href="#mf4f773b34b" y="162.705941"/>
      </g>
     </g>
    </g>
    <g id="ytick_17">
     <g id="line2d_40">
      <g>
       <use style="stroke:#000000;stroke-width:0.6;" x="327.590092" xlink:href="#mf4f773b34b" y="150.420926"/>
      </g>
     </g>
    </g>
    <g id="ytick_18">
     <g id="line2d_41">
      <g>
       <use style="stroke:#000000;stroke-width:0.6;" x="327.590092" xlink:href="#mf4f773b34b" y="140.891929"/>
      </g>
     </g>
    </g>
    <g id="ytick_19">
     <g id="line2d_42">
      <g>
       <use style="stroke:#000000;stroke-width:0.6;" x="327.590092" xlink:href="#mf4f773b34b" y="133.106171"/>
      </g>
     </g>
    </g>
    <g id="ytick_20">
     <g id="line2d_43">
      <g>
       <use style="stroke:#000000;stroke-width:0.6;" x="327.590092" xlink:href="#mf4f773b34b" y="126.523406"/>
      </g>
     </g>
    </g>
    <g id="ytick_21">
     <g id="line2d_44">
      <g>
       <use style="stroke:#000000;stroke-width:0.6;" x="327.590092" xlink:href="#mf4f773b34b" y="120.821156"/>
      </g>
     </g>
    </g>
    <g id="ytick_22">
     <g id="line2d_45">
      <g>
       <use style="stroke:#000000;stroke-width:0.6;" x="327.590092" xlink:href="#mf4f773b34b" y="115.791415"/>
      </g>
     </g>
    </g>
    <g id="ytick_23">
     <g id="line2d_46">
      <g>
       <use style="stroke:#000000;stroke-width:0.6;" x="327.590092" xlink:href="#mf4f773b34b" y="81.692388"/>
      </g>
     </g>
    </g>
    <g id="ytick_24">
     <g id="line2d_47">
      <g>
       <use style="stroke:#000000;stroke-width:0.6;" x="327.590092" xlink:href="#mf4f773b34b" y="64.377632"/>
      </g>
     </g>
    </g>
    <g id="ytick_25">
     <g id="line2d_48">
      <g>
       <use style="stroke:#000000;stroke-width:0.6;" x="327.590092" xlink:href="#mf4f773b34b" y="52.092617"/>
      </g>
     </g>
    </g>
    <g id="ytick_26">
     <g id="line2d_49">
      <g>
       <use style="stroke:#000000;stroke-width:0.6;" x="327.590092" xlink:href="#mf4f773b34b" y="42.56362"/>
      </g>
     </g>
    </g>
    <g id="ytick_27">
     <g id="line2d_50">
      <g>
       <use style="stroke:#000000;stroke-width:0.6;" x="327.590092" xlink:href="#mf4f773b34b" y="34.777862"/>
      </g>
     </g>
    </g>
    <g id="ytick_28">
     <g id="line2d_51">
      <g>
       <use style="stroke:#000000;stroke-width:0.6;" x="327.590092" xlink:href="#mf4f773b34b" y="28.195097"/>
      </g>
     </g>
    </g>
    <g id="ytick_29">
     <g id="line2d_52">
      <g>
       <use style="stroke:#000000;stroke-width:0.6;" x="327.590092" xlink:href="#mf4f773b34b" y="22.492847"/>
      </g>
     </g>
    </g>
    <g id="ytick_30">
     <g id="line2d_53">
      <g>
       <use style="stroke:#000000;stroke-width:0.6;" x="327.590092" xlink:href="#mf4f773b34b" y="17.463106"/>
      </g>
     </g>
    </g>
    <g id="text_24">
     <!-- Frequency -->
     <g transform="translate(296.910405 150.56053)rotate(-90)scale(0.1 -0.1)">
      <defs>
       <path d="M 9.8125 72.90625 
L 51.703125 72.90625 
L 51.703125 64.59375 
L 19.671875 64.59375 
L 19.671875 43.109375 
L 48.578125 43.109375 
L 48.578125 34.8125 
L 19.671875 34.8125 
L 19.671875 0 
L 9.8125 0 
z
" id="DejaVuSans-70"/>
       <path d="M 14.796875 27.296875 
Q 14.796875 17.390625 18.875 11.75 
Q 22.953125 6.109375 30.078125 6.109375 
Q 37.203125 6.109375 41.296875 11.75 
Q 45.40625 17.390625 45.40625 27.296875 
Q 45.40625 37.203125 41.296875 42.84375 
Q 37.203125 48.484375 30.078125 48.484375 
Q 22.953125 48.484375 18.875 42.84375 
Q 14.796875 37.203125 14.796875 27.296875 
z
M 45.40625 8.203125 
Q 42.578125 3.328125 38.25 0.953125 
Q 33.9375 -1.421875 27.875 -1.421875 
Q 17.96875 -1.421875 11.734375 6.484375 
Q 5.515625 14.40625 5.515625 27.296875 
Q 5.515625 40.1875 11.734375 48.09375 
Q 17.96875 56 27.875 56 
Q 33.9375 56 38.25 53.625 
Q 42.578125 51.265625 45.40625 46.390625 
L 45.40625 54.6875 
L 54.390625 54.6875 
L 54.390625 -20.796875 
L 45.40625 -20.796875 
z
" id="DejaVuSans-113"/>
       <path d="M 48.78125 52.59375 
L 48.78125 44.1875 
Q 44.96875 46.296875 41.140625 47.34375 
Q 37.3125 48.390625 33.40625 48.390625 
Q 24.65625 48.390625 19.8125 42.84375 
Q 14.984375 37.3125 14.984375 27.296875 
Q 14.984375 17.28125 19.8125 11.734375 
Q 24.65625 6.203125 33.40625 6.203125 
Q 37.3125 6.203125 41.140625 7.25 
Q 44.96875 8.296875 48.78125 10.40625 
L 48.78125 2.09375 
Q 45.015625 0.34375 40.984375 -0.53125 
Q 36.96875 -1.421875 32.421875 -1.421875 
Q 20.0625 -1.421875 12.78125 6.34375 
Q 5.515625 14.109375 5.515625 27.296875 
Q 5.515625 40.671875 12.859375 48.328125 
Q 20.21875 56 33.015625 56 
Q 37.15625 56 41.109375 55.140625 
Q 45.0625 54.296875 48.78125 52.59375 
z
" id="DejaVuSans-99"/>
       <path d="M 32.171875 -5.078125 
Q 28.375 -14.84375 24.75 -17.8125 
Q 21.140625 -20.796875 15.09375 -20.796875 
L 7.90625 -20.796875 
L 7.90625 -13.28125 
L 13.1875 -13.28125 
Q 16.890625 -13.28125 18.9375 -11.515625 
Q 21 -9.765625 23.484375 -3.21875 
L 25.09375 0.875 
L 2.984375 54.6875 
L 12.5 54.6875 
L 29.59375 11.921875 
L 46.6875 54.6875 
L 56.203125 54.6875 
z
" id="DejaVuSans-121"/>
      </defs>
      <use xlink:href="#DejaVuSans-70"/>
      <use x="50.269531" xlink:href="#DejaVuSans-114"/>
      <use x="89.132812" xlink:href="#DejaVuSans-101"/>
      <use x="150.65625" xlink:href="#DejaVuSans-113"/>
      <use x="214.132812" xlink:href="#DejaVuSans-117"/>
      <use x="277.511719" xlink:href="#DejaVuSans-101"/>
      <use x="339.035156" xlink:href="#DejaVuSans-110"/>
      <use x="402.414062" xlink:href="#DejaVuSans-99"/>
      <use x="457.394531" xlink:href="#DejaVuSans-121"/>
     </g>
    </g>
   </g>
   <g id="patch_8">
    <path clip-path="url(#p5a0b395f87)" d="M 338.211509 280.817934 
L 338.211509 82.494151 
L 359.454341 82.494151 
L 359.454341 201.374576 
L 380.697174 201.374576 
L 380.697174 206.097381 
L 401.940006 206.097381 
L 401.940006 196.741751 
L 423.182839 196.741751 
L 423.182839 194.616149 
L 444.425671 194.616149 
L 444.425671 201.905941 
L 465.668504 201.905941 
L 465.668504 200.296939 
L 486.911336 200.296939 
L 486.911336 197.732298 
L 508.154169 197.732298 
L 508.154169 188.183908 
L 529.397001 188.183908 
L 529.397001 19.577158 
L 550.639834 19.577158 
L 550.639834 280.817934 
" style="fill:none;stroke:#1f77b4;stroke-linejoin:miter;"/>
   </g>
   <g id="patch_9">
    <path clip-path="url(#p5a0b395f87)" d="M 338.211509 280.817934 
L 338.211509 80.260478 
L 359.454341 80.260478 
L 359.454341 231.577062 
L 380.697174 231.577062 
L 380.697174 226.089582 
L 401.940006 226.089582 
L 401.940006 218.989626 
L 423.182839 218.989626 
L 423.182839 207.986688 
L 444.425671 207.986688 
L 444.425671 153.888875 
L 465.668504 153.888875 
L 465.668504 191.768198 
L 486.911336 191.768198 
L 486.911336 189.496348 
L 508.154169 189.496348 
L 508.154169 189.230614 
L 529.397001 189.230614 
L 529.397001 18.826967 
L 550.639834 18.826967 
L 550.639834 280.817934 
" style="fill:none;stroke:#ff7f0e;stroke-linejoin:miter;"/>
   </g>
   <g id="patch_10">
    <path clip-path="url(#p5a0b395f87)" d="M 338.211509 280.817934 
L 338.211509 93.366858 
L 359.454341 93.366858 
L 359.454341 203.615034 
L 380.697174 203.615034 
L 380.697174 192.305711 
L 401.940006 192.305711 
L 401.940006 184.686346 
L 423.182839 184.686346 
L 423.182839 178.551637 
L 444.425671 178.551637 
L 444.425671 159.498593 
L 465.668504 159.498593 
L 465.668504 173.389156 
L 486.911336 173.389156 
L 486.911336 169.595849 
L 508.154169 169.595849 
L 508.154169 163.351345 
L 529.397001 163.351345 
L 529.397001 17.884622 
L 550.639834 17.884622 
L 550.639834 280.817934 
" style="fill:none;stroke:#2ca02c;stroke-linejoin:miter;"/>
   </g>
   <g id="patch_11">
    <path clip-path="url(#p5a0b395f87)" d="M 338.211509 280.817934 
L 338.211509 94.741472 
L 359.454341 94.741472 
L 359.454341 203.763697 
L 380.697174 203.763697 
L 380.697174 191.071097 
L 401.940006 191.071097 
L 401.940006 183.604593 
L 423.182839 183.604593 
L 423.182839 179.426995 
L 444.425671 179.426995 
L 444.425671 158.36498 
L 465.668504 158.36498 
L 465.668504 171.232588 
L 486.911336 171.232588 
L 486.911336 167.922919 
L 508.154169 167.922919 
L 508.154169 162.056124 
L 529.397001 162.056124 
L 529.397001 18.063254 
L 550.639834 18.063254 
L 550.639834 280.817934 
" style="fill:none;stroke:#d62728;stroke-linejoin:miter;"/>
   </g>
   <g id="patch_12">
    <path d="M 327.590092 242.261684 
L 327.590092 7.2 
" style="fill:none;stroke:#000000;stroke-linecap:square;stroke-linejoin:miter;stroke-width:0.8;"/>
   </g>
   <g id="patch_13">
    <path d="M 561.26125 242.261684 
L 561.26125 7.2 
" style="fill:none;stroke:#000000;stroke-linecap:square;stroke-linejoin:miter;stroke-width:0.8;"/>
   </g>
   <g id="patch_14">
    <path d="M 327.590092 242.261684 
L 561.26125 242.261684 
" style="fill:none;stroke:#000000;stroke-linecap:square;stroke-linejoin:miter;stroke-width:0.8;"/>
   </g>
   <g id="patch_15">
    <path d="M 327.590092 7.2 
L 561.26125 7.2 
" style="fill:none;stroke:#000000;stroke-linecap:square;stroke-linejoin:miter;stroke-width:0.8;"/>
   </g>
  </g>
 </g>
 <defs>
  <clipPath id="p6f5c038ca4">
   <rect height="235.061684" width="233.671158" x="43.78125" y="7.2"/>
  </clipPath>
  <clipPath id="p5a0b395f87">
   <rect height="235.061684" width="233.671158" x="327.590092" y="7.2"/>
  </clipPath>
 </defs>
</svg>
