<?xml version="1.0" encoding="utf-8" standalone="no"?>
<!DOCTYPE svg PUBLIC "-//W3C//DTD SVG 1.1//EN"
  "http://www.w3.org/Graphics/SVG/1.1/DTD/svg11.dtd">
<!-- Created with matplotlib (https://matplotlib.org/) -->
<svg height="328.1525pt" version="1.1" viewBox="0 0 567.457296 328.1525" width="567.457296pt" xmlns="http://www.w3.org/2000/svg" xmlns:xlink="http://www.w3.org/1999/xlink">
 <metadata>
  <rdf:RDF xmlns:cc="http://creativecommons.org/ns#" xmlns:dc="http://purl.org/dc/elements/1.1/" xmlns:rdf="http://www.w3.org/1999/02/22-rdf-syntax-ns#">
   <cc:Work>
    <dc:type rdf:resource="http://purl.org/dc/dcmitype/StillImage"/>
    <dc:date>2022-08-03T00:03:17.810673</dc:date>
    <dc:format>image/svg+xml</dc:format>
    <dc:creator>
     <cc:Agent>
      <dc:title>Matplotlib v3.3.0, https://matplotlib.org/</dc:title>
     </cc:Agent>
    </dc:creator>
   </cc:Work>
  </rdf:RDF>
 </metadata>
 <defs>
  <style type="text/css">*{stroke-linecap:butt;stroke-linejoin:round;}</style>
 </defs>
 <g id="figure_1">
  <g id="patch_1">
   <path d="M 0 328.1525 
L 567.457296 328.1525 
L 567.457296 0 
L 0 0 
z
" style="fill:#ffffff;"/>
  </g>
  <g id="axes_1">
   <g id="patch_2">
    <path d="M 43.78125 290.59625 
L 276.310602 290.59625 
L 276.310602 55.35625 
L 43.78125 55.35625 
z
" style="fill:#ffffff;"/>
   </g>
   <g id="matplotlib.axis_1">
    <g id="xtick_1">
     <g id="line2d_1">
      <defs>
       <path d="M 0 0 
L 0 3.5 
" id="m12d70c81b5" style="stroke:#000000;stroke-width:0.8;"/>
      </defs>
      <g>
       <use style="stroke:#000000;stroke-width:0.8;" x="54.350766" xlink:href="#m12d70c81b5" y="290.59625"/>
      </g>
     </g>
     <g id="text_1">
      <!-- 0.0 -->
      <g transform="translate(46.399203 305.194687)scale(0.1 -0.1)">
       <defs>
        <path d="M 31.78125 66.40625 
Q 24.171875 66.40625 20.328125 58.90625 
Q 16.5 51.421875 16.5 36.375 
Q 16.5 21.390625 20.328125 13.890625 
Q 24.171875 6.390625 31.78125 6.390625 
Q 39.453125 6.390625 43.28125 13.890625 
Q 47.125 21.390625 47.125 36.375 
Q 47.125 51.421875 43.28125 58.90625 
Q 39.453125 66.40625 31.78125 66.40625 
z
M 31.78125 74.21875 
Q 44.046875 74.21875 50.515625 64.515625 
Q 56.984375 54.828125 56.984375 36.375 
Q 56.984375 17.96875 50.515625 8.265625 
Q 44.046875 -1.421875 31.78125 -1.421875 
Q 19.53125 -1.421875 13.0625 8.265625 
Q 6.59375 17.96875 6.59375 36.375 
Q 6.59375 54.828125 13.0625 64.515625 
Q 19.53125 74.21875 31.78125 74.21875 
z
" id="DejaVuSans-48"/>
        <path d="M 10.6875 12.40625 
L 21 12.40625 
L 21 0 
L 10.6875 0 
z
" id="DejaVuSans-46"/>
       </defs>
       <use xlink:href="#DejaVuSans-48"/>
       <use x="63.623047" xlink:href="#DejaVuSans-46"/>
       <use x="95.410156" xlink:href="#DejaVuSans-48"/>
      </g>
     </g>
    </g>
    <g id="xtick_2">
     <g id="line2d_2">
      <g>
       <use style="stroke:#000000;stroke-width:0.8;" x="92.370608" xlink:href="#m12d70c81b5" y="290.59625"/>
      </g>
     </g>
     <g id="text_2">
      <!-- 2.5 -->
      <g transform="translate(84.419045 305.194687)scale(0.1 -0.1)">
       <defs>
        <path d="M 19.1875 8.296875 
L 53.609375 8.296875 
L 53.609375 0 
L 7.328125 0 
L 7.328125 8.296875 
Q 12.9375 14.109375 22.625 23.890625 
Q 32.328125 33.6875 34.8125 36.53125 
Q 39.546875 41.84375 41.421875 45.53125 
Q 43.3125 49.21875 43.3125 52.78125 
Q 43.3125 58.59375 39.234375 62.25 
Q 35.15625 65.921875 28.609375 65.921875 
Q 23.96875 65.921875 18.8125 64.3125 
Q 13.671875 62.703125 7.8125 59.421875 
L 7.8125 69.390625 
Q 13.765625 71.78125 18.9375 73 
Q 24.125 74.21875 28.421875 74.21875 
Q 39.75 74.21875 46.484375 68.546875 
Q 53.21875 62.890625 53.21875 53.421875 
Q 53.21875 48.921875 51.53125 44.890625 
Q 49.859375 40.875 45.40625 35.40625 
Q 44.1875 33.984375 37.640625 27.21875 
Q 31.109375 20.453125 19.1875 8.296875 
z
" id="DejaVuSans-50"/>
        <path d="M 10.796875 72.90625 
L 49.515625 72.90625 
L 49.515625 64.59375 
L 19.828125 64.59375 
L 19.828125 46.734375 
Q 21.96875 47.46875 24.109375 47.828125 
Q 26.265625 48.1875 28.421875 48.1875 
Q 40.625 48.1875 47.75 41.5 
Q 54.890625 34.8125 54.890625 23.390625 
Q 54.890625 11.625 47.5625 5.09375 
Q 40.234375 -1.421875 26.90625 -1.421875 
Q 22.3125 -1.421875 17.546875 -0.640625 
Q 12.796875 0.140625 7.71875 1.703125 
L 7.71875 11.625 
Q 12.109375 9.234375 16.796875 8.0625 
Q 21.484375 6.890625 26.703125 6.890625 
Q 35.15625 6.890625 40.078125 11.328125 
Q 45.015625 15.765625 45.015625 23.390625 
Q 45.015625 31 40.078125 35.4375 
Q 35.15625 39.890625 26.703125 39.890625 
Q 22.75 39.890625 18.8125 39.015625 
Q 14.890625 38.140625 10.796875 36.28125 
z
" id="DejaVuSans-53"/>
       </defs>
       <use xlink:href="#DejaVuSans-50"/>
       <use x="63.623047" xlink:href="#DejaVuSans-46"/>
       <use x="95.410156" xlink:href="#DejaVuSans-53"/>
      </g>
     </g>
    </g>
    <g id="xtick_3">
     <g id="line2d_3">
      <g>
       <use style="stroke:#000000;stroke-width:0.8;" x="130.390449" xlink:href="#m12d70c81b5" y="290.59625"/>
      </g>
     </g>
     <g id="text_3">
      <!-- 5.0 -->
      <g transform="translate(122.438887 305.194687)scale(0.1 -0.1)">
       <use xlink:href="#DejaVuSans-53"/>
       <use x="63.623047" xlink:href="#DejaVuSans-46"/>
       <use x="95.410156" xlink:href="#DejaVuSans-48"/>
      </g>
     </g>
    </g>
    <g id="xtick_4">
     <g id="line2d_4">
      <g>
       <use style="stroke:#000000;stroke-width:0.8;" x="168.410291" xlink:href="#m12d70c81b5" y="290.59625"/>
      </g>
     </g>
     <g id="text_4">
      <!-- 7.5 -->
      <g transform="translate(160.458729 305.194687)scale(0.1 -0.1)">
       <defs>
        <path d="M 8.203125 72.90625 
L 55.078125 72.90625 
L 55.078125 68.703125 
L 28.609375 0 
L 18.3125 0 
L 43.21875 64.59375 
L 8.203125 64.59375 
z
" id="DejaVuSans-55"/>
       </defs>
       <use xlink:href="#DejaVuSans-55"/>
       <use x="63.623047" xlink:href="#DejaVuSans-46"/>
       <use x="95.410156" xlink:href="#DejaVuSans-53"/>
      </g>
     </g>
    </g>
    <g id="xtick_5">
     <g id="line2d_5">
      <g>
       <use style="stroke:#000000;stroke-width:0.8;" x="206.430133" xlink:href="#m12d70c81b5" y="290.59625"/>
      </g>
     </g>
     <g id="text_5">
      <!-- 10.0 -->
      <g transform="translate(195.29732 305.194687)scale(0.1 -0.1)">
       <defs>
        <path d="M 12.40625 8.296875 
L 28.515625 8.296875 
L 28.515625 63.921875 
L 10.984375 60.40625 
L 10.984375 69.390625 
L 28.421875 72.90625 
L 38.28125 72.90625 
L 38.28125 8.296875 
L 54.390625 8.296875 
L 54.390625 0 
L 12.40625 0 
z
" id="DejaVuSans-49"/>
       </defs>
       <use xlink:href="#DejaVuSans-49"/>
       <use x="63.623047" xlink:href="#DejaVuSans-48"/>
       <use x="127.246094" xlink:href="#DejaVuSans-46"/>
       <use x="159.033203" xlink:href="#DejaVuSans-48"/>
      </g>
     </g>
    </g>
    <g id="xtick_6">
     <g id="line2d_6">
      <g>
       <use style="stroke:#000000;stroke-width:0.8;" x="244.449975" xlink:href="#m12d70c81b5" y="290.59625"/>
      </g>
     </g>
     <g id="text_6">
      <!-- 12.5 -->
      <g transform="translate(233.317162 305.194687)scale(0.1 -0.1)">
       <use xlink:href="#DejaVuSans-49"/>
       <use x="63.623047" xlink:href="#DejaVuSans-50"/>
       <use x="127.246094" xlink:href="#DejaVuSans-46"/>
       <use x="159.033203" xlink:href="#DejaVuSans-53"/>
      </g>
     </g>
    </g>
    <g id="text_7">
     <!-- Time (s) -->
     <g transform="translate(139.71702 318.872812)scale(0.1 -0.1)">
      <defs>
       <path d="M -0.296875 72.90625 
L 61.375 72.90625 
L 61.375 64.59375 
L 35.5 64.59375 
L 35.5 0 
L 25.59375 0 
L 25.59375 64.59375 
L -0.296875 64.59375 
z
" id="DejaVuSans-84"/>
       <path d="M 9.421875 54.6875 
L 18.40625 54.6875 
L 18.40625 0 
L 9.421875 0 
z
M 9.421875 75.984375 
L 18.40625 75.984375 
L 18.40625 64.59375 
L 9.421875 64.59375 
z
" id="DejaVuSans-105"/>
       <path d="M 52 44.1875 
Q 55.375 50.25 60.0625 53.125 
Q 64.75 56 71.09375 56 
Q 79.640625 56 84.28125 50.015625 
Q 88.921875 44.046875 88.921875 33.015625 
L 88.921875 0 
L 79.890625 0 
L 79.890625 32.71875 
Q 79.890625 40.578125 77.09375 44.375 
Q 74.3125 48.1875 68.609375 48.1875 
Q 61.625 48.1875 57.5625 43.546875 
Q 53.515625 38.921875 53.515625 30.90625 
L 53.515625 0 
L 44.484375 0 
L 44.484375 32.71875 
Q 44.484375 40.625 41.703125 44.40625 
Q 38.921875 48.1875 33.109375 48.1875 
Q 26.21875 48.1875 22.15625 43.53125 
Q 18.109375 38.875 18.109375 30.90625 
L 18.109375 0 
L 9.078125 0 
L 9.078125 54.6875 
L 18.109375 54.6875 
L 18.109375 46.1875 
Q 21.1875 51.21875 25.484375 53.609375 
Q 29.78125 56 35.6875 56 
Q 41.65625 56 45.828125 52.96875 
Q 50 49.953125 52 44.1875 
z
" id="DejaVuSans-109"/>
       <path d="M 56.203125 29.59375 
L 56.203125 25.203125 
L 14.890625 25.203125 
Q 15.484375 15.921875 20.484375 11.0625 
Q 25.484375 6.203125 34.421875 6.203125 
Q 39.59375 6.203125 44.453125 7.46875 
Q 49.3125 8.734375 54.109375 11.28125 
L 54.109375 2.78125 
Q 49.265625 0.734375 44.1875 -0.34375 
Q 39.109375 -1.421875 33.890625 -1.421875 
Q 20.796875 -1.421875 13.15625 6.1875 
Q 5.515625 13.8125 5.515625 26.8125 
Q 5.515625 40.234375 12.765625 48.109375 
Q 20.015625 56 32.328125 56 
Q 43.359375 56 49.78125 48.890625 
Q 56.203125 41.796875 56.203125 29.59375 
z
M 47.21875 32.234375 
Q 47.125 39.59375 43.09375 43.984375 
Q 39.0625 48.390625 32.421875 48.390625 
Q 24.90625 48.390625 20.390625 44.140625 
Q 15.875 39.890625 15.1875 32.171875 
z
" id="DejaVuSans-101"/>
       <path id="DejaVuSans-32"/>
       <path d="M 31 75.875 
Q 24.46875 64.65625 21.28125 53.65625 
Q 18.109375 42.671875 18.109375 31.390625 
Q 18.109375 20.125 21.3125 9.0625 
Q 24.515625 -2 31 -13.1875 
L 23.1875 -13.1875 
Q 15.875 -1.703125 12.234375 9.375 
Q 8.59375 20.453125 8.59375 31.390625 
Q 8.59375 42.28125 12.203125 53.3125 
Q 15.828125 64.359375 23.1875 75.875 
z
" id="DejaVuSans-40"/>
       <path d="M 44.28125 53.078125 
L 44.28125 44.578125 
Q 40.484375 46.53125 36.375 47.5 
Q 32.28125 48.484375 27.875 48.484375 
Q 21.1875 48.484375 17.84375 46.4375 
Q 14.5 44.390625 14.5 40.28125 
Q 14.5 37.15625 16.890625 35.375 
Q 19.28125 33.59375 26.515625 31.984375 
L 29.59375 31.296875 
Q 39.15625 29.25 43.1875 25.515625 
Q 47.21875 21.78125 47.21875 15.09375 
Q 47.21875 7.46875 41.1875 3.015625 
Q 35.15625 -1.421875 24.609375 -1.421875 
Q 20.21875 -1.421875 15.453125 -0.5625 
Q 10.6875 0.296875 5.421875 2 
L 5.421875 11.28125 
Q 10.40625 8.6875 15.234375 7.390625 
Q 20.0625 6.109375 24.8125 6.109375 
Q 31.15625 6.109375 34.5625 8.28125 
Q 37.984375 10.453125 37.984375 14.40625 
Q 37.984375 18.0625 35.515625 20.015625 
Q 33.0625 21.96875 24.703125 23.78125 
L 21.578125 24.515625 
Q 13.234375 26.265625 9.515625 29.90625 
Q 5.8125 33.546875 5.8125 39.890625 
Q 5.8125 47.609375 11.28125 51.796875 
Q 16.75 56 26.8125 56 
Q 31.78125 56 36.171875 55.265625 
Q 40.578125 54.546875 44.28125 53.078125 
z
" id="DejaVuSans-115"/>
       <path d="M 8.015625 75.875 
L 15.828125 75.875 
Q 23.140625 64.359375 26.78125 53.3125 
Q 30.421875 42.28125 30.421875 31.390625 
Q 30.421875 20.453125 26.78125 9.375 
Q 23.140625 -1.703125 15.828125 -13.1875 
L 8.015625 -13.1875 
Q 14.5 -2 17.703125 9.0625 
Q 20.90625 20.125 20.90625 31.390625 
Q 20.90625 42.671875 17.703125 53.65625 
Q 14.5 64.65625 8.015625 75.875 
z
" id="DejaVuSans-41"/>
      </defs>
      <use xlink:href="#DejaVuSans-84"/>
      <use x="57.958984" xlink:href="#DejaVuSans-105"/>
      <use x="85.742188" xlink:href="#DejaVuSans-109"/>
      <use x="183.154297" xlink:href="#DejaVuSans-101"/>
      <use x="244.677734" xlink:href="#DejaVuSans-32"/>
      <use x="276.464844" xlink:href="#DejaVuSans-40"/>
      <use x="315.478516" xlink:href="#DejaVuSans-115"/>
      <use x="367.578125" xlink:href="#DejaVuSans-41"/>
     </g>
    </g>
   </g>
   <g id="matplotlib.axis_2">
    <g id="ytick_1">
     <g id="line2d_7">
      <defs>
       <path d="M 0 0 
L -3.5 0 
" id="m3ac2e664c6" style="stroke:#000000;stroke-width:0.8;"/>
      </defs>
      <g>
       <use style="stroke:#000000;stroke-width:0.8;" x="43.78125" xlink:href="#m3ac2e664c6" y="279.903523"/>
      </g>
     </g>
     <g id="text_8">
      <!-- 0.0 -->
      <g transform="translate(20.878125 283.702741)scale(0.1 -0.1)">
       <use xlink:href="#DejaVuSans-48"/>
       <use x="63.623047" xlink:href="#DejaVuSans-46"/>
       <use x="95.410156" xlink:href="#DejaVuSans-48"/>
      </g>
     </g>
    </g>
    <g id="ytick_2">
     <g id="line2d_8">
      <g>
       <use style="stroke:#000000;stroke-width:0.8;" x="43.78125" xlink:href="#m3ac2e664c6" y="251.404478"/>
      </g>
     </g>
     <g id="text_9">
      <!-- 0.1 -->
      <g transform="translate(20.878125 255.203697)scale(0.1 -0.1)">
       <use xlink:href="#DejaVuSans-48"/>
       <use x="63.623047" xlink:href="#DejaVuSans-46"/>
       <use x="95.410156" xlink:href="#DejaVuSans-49"/>
      </g>
     </g>
    </g>
    <g id="ytick_3">
     <g id="line2d_9">
      <g>
       <use style="stroke:#000000;stroke-width:0.8;" x="43.78125" xlink:href="#m3ac2e664c6" y="222.905434"/>
      </g>
     </g>
     <g id="text_10">
      <!-- 0.2 -->
      <g transform="translate(20.878125 226.704653)scale(0.1 -0.1)">
       <use xlink:href="#DejaVuSans-48"/>
       <use x="63.623047" xlink:href="#DejaVuSans-46"/>
       <use x="95.410156" xlink:href="#DejaVuSans-50"/>
      </g>
     </g>
    </g>
    <g id="ytick_4">
     <g id="line2d_10">
      <g>
       <use style="stroke:#000000;stroke-width:0.8;" x="43.78125" xlink:href="#m3ac2e664c6" y="194.40639"/>
      </g>
     </g>
     <g id="text_11">
      <!-- 0.3 -->
      <g transform="translate(20.878125 198.205608)scale(0.1 -0.1)">
       <defs>
        <path d="M 40.578125 39.3125 
Q 47.65625 37.796875 51.625 33 
Q 55.609375 28.21875 55.609375 21.1875 
Q 55.609375 10.40625 48.1875 4.484375 
Q 40.765625 -1.421875 27.09375 -1.421875 
Q 22.515625 -1.421875 17.65625 -0.515625 
Q 12.796875 0.390625 7.625 2.203125 
L 7.625 11.71875 
Q 11.71875 9.328125 16.59375 8.109375 
Q 21.484375 6.890625 26.8125 6.890625 
Q 36.078125 6.890625 40.9375 10.546875 
Q 45.796875 14.203125 45.796875 21.1875 
Q 45.796875 27.640625 41.28125 31.265625 
Q 36.765625 34.90625 28.71875 34.90625 
L 20.21875 34.90625 
L 20.21875 43.015625 
L 29.109375 43.015625 
Q 36.375 43.015625 40.234375 45.921875 
Q 44.09375 48.828125 44.09375 54.296875 
Q 44.09375 59.90625 40.109375 62.90625 
Q 36.140625 65.921875 28.71875 65.921875 
Q 24.65625 65.921875 20.015625 65.03125 
Q 15.375 64.15625 9.8125 62.3125 
L 9.8125 71.09375 
Q 15.4375 72.65625 20.34375 73.4375 
Q 25.25 74.21875 29.59375 74.21875 
Q 40.828125 74.21875 47.359375 69.109375 
Q 53.90625 64.015625 53.90625 55.328125 
Q 53.90625 49.265625 50.4375 45.09375 
Q 46.96875 40.921875 40.578125 39.3125 
z
" id="DejaVuSans-51"/>
       </defs>
       <use xlink:href="#DejaVuSans-48"/>
       <use x="63.623047" xlink:href="#DejaVuSans-46"/>
       <use x="95.410156" xlink:href="#DejaVuSans-51"/>
      </g>
     </g>
    </g>
    <g id="ytick_5">
     <g id="line2d_11">
      <g>
       <use style="stroke:#000000;stroke-width:0.8;" x="43.78125" xlink:href="#m3ac2e664c6" y="165.907345"/>
      </g>
     </g>
     <g id="text_12">
      <!-- 0.4 -->
      <g transform="translate(20.878125 169.706564)scale(0.1 -0.1)">
       <defs>
        <path d="M 37.796875 64.3125 
L 12.890625 25.390625 
L 37.796875 25.390625 
z
M 35.203125 72.90625 
L 47.609375 72.90625 
L 47.609375 25.390625 
L 58.015625 25.390625 
L 58.015625 17.1875 
L 47.609375 17.1875 
L 47.609375 0 
L 37.796875 0 
L 37.796875 17.1875 
L 4.890625 17.1875 
L 4.890625 26.703125 
z
" id="DejaVuSans-52"/>
       </defs>
       <use xlink:href="#DejaVuSans-48"/>
       <use x="63.623047" xlink:href="#DejaVuSans-46"/>
       <use x="95.410156" xlink:href="#DejaVuSans-52"/>
      </g>
     </g>
    </g>
    <g id="ytick_6">
     <g id="line2d_12">
      <g>
       <use style="stroke:#000000;stroke-width:0.8;" x="43.78125" xlink:href="#m3ac2e664c6" y="137.408301"/>
      </g>
     </g>
     <g id="text_13">
      <!-- 0.5 -->
      <g transform="translate(20.878125 141.20752)scale(0.1 -0.1)">
       <use xlink:href="#DejaVuSans-48"/>
       <use x="63.623047" xlink:href="#DejaVuSans-46"/>
       <use x="95.410156" xlink:href="#DejaVuSans-53"/>
      </g>
     </g>
    </g>
    <g id="ytick_7">
     <g id="line2d_13">
      <g>
       <use style="stroke:#000000;stroke-width:0.8;" x="43.78125" xlink:href="#m3ac2e664c6" y="108.909257"/>
      </g>
     </g>
     <g id="text_14">
      <!-- 0.6 -->
      <g transform="translate(20.878125 112.708475)scale(0.1 -0.1)">
       <defs>
        <path d="M 33.015625 40.375 
Q 26.375 40.375 22.484375 35.828125 
Q 18.609375 31.296875 18.609375 23.390625 
Q 18.609375 15.53125 22.484375 10.953125 
Q 26.375 6.390625 33.015625 6.390625 
Q 39.65625 6.390625 43.53125 10.953125 
Q 47.40625 15.53125 47.40625 23.390625 
Q 47.40625 31.296875 43.53125 35.828125 
Q 39.65625 40.375 33.015625 40.375 
z
M 52.59375 71.296875 
L 52.59375 62.3125 
Q 48.875 64.0625 45.09375 64.984375 
Q 41.3125 65.921875 37.59375 65.921875 
Q 27.828125 65.921875 22.671875 59.328125 
Q 17.53125 52.734375 16.796875 39.40625 
Q 19.671875 43.65625 24.015625 45.921875 
Q 28.375 48.1875 33.59375 48.1875 
Q 44.578125 48.1875 50.953125 41.515625 
Q 57.328125 34.859375 57.328125 23.390625 
Q 57.328125 12.15625 50.6875 5.359375 
Q 44.046875 -1.421875 33.015625 -1.421875 
Q 20.359375 -1.421875 13.671875 8.265625 
Q 6.984375 17.96875 6.984375 36.375 
Q 6.984375 53.65625 15.1875 63.9375 
Q 23.390625 74.21875 37.203125 74.21875 
Q 40.921875 74.21875 44.703125 73.484375 
Q 48.484375 72.75 52.59375 71.296875 
z
" id="DejaVuSans-54"/>
       </defs>
       <use xlink:href="#DejaVuSans-48"/>
       <use x="63.623047" xlink:href="#DejaVuSans-46"/>
       <use x="95.410156" xlink:href="#DejaVuSans-54"/>
      </g>
     </g>
    </g>
    <g id="ytick_8">
     <g id="line2d_14">
      <g>
       <use style="stroke:#000000;stroke-width:0.8;" x="43.78125" xlink:href="#m3ac2e664c6" y="80.410212"/>
      </g>
     </g>
     <g id="text_15">
      <!-- 0.7 -->
      <g transform="translate(20.878125 84.209431)scale(0.1 -0.1)">
       <use xlink:href="#DejaVuSans-48"/>
       <use x="63.623047" xlink:href="#DejaVuSans-46"/>
       <use x="95.410156" xlink:href="#DejaVuSans-55"/>
      </g>
     </g>
    </g>
    <g id="text_16">
     <!-- Mean Magnitude of Steering Angle -->
     <g transform="translate(14.798437 259.569219)rotate(-90)scale(0.1 -0.1)">
      <defs>
       <path d="M 9.8125 72.90625 
L 24.515625 72.90625 
L 43.109375 23.296875 
L 61.8125 72.90625 
L 76.515625 72.90625 
L 76.515625 0 
L 66.890625 0 
L 66.890625 64.015625 
L 48.09375 14.015625 
L 38.1875 14.015625 
L 19.390625 64.015625 
L 19.390625 0 
L 9.8125 0 
z
" id="DejaVuSans-77"/>
       <path d="M 34.28125 27.484375 
Q 23.390625 27.484375 19.1875 25 
Q 14.984375 22.515625 14.984375 16.5 
Q 14.984375 11.71875 18.140625 8.90625 
Q 21.296875 6.109375 26.703125 6.109375 
Q 34.1875 6.109375 38.703125 11.40625 
Q 43.21875 16.703125 43.21875 25.484375 
L 43.21875 27.484375 
z
M 52.203125 31.203125 
L 52.203125 0 
L 43.21875 0 
L 43.21875 8.296875 
Q 40.140625 3.328125 35.546875 0.953125 
Q 30.953125 -1.421875 24.3125 -1.421875 
Q 15.921875 -1.421875 10.953125 3.296875 
Q 6 8.015625 6 15.921875 
Q 6 25.140625 12.171875 29.828125 
Q 18.359375 34.515625 30.609375 34.515625 
L 43.21875 34.515625 
L 43.21875 35.40625 
Q 43.21875 41.609375 39.140625 45 
Q 35.0625 48.390625 27.6875 48.390625 
Q 23 48.390625 18.546875 47.265625 
Q 14.109375 46.140625 10.015625 43.890625 
L 10.015625 52.203125 
Q 14.9375 54.109375 19.578125 55.046875 
Q 24.21875 56 28.609375 56 
Q 40.484375 56 46.34375 49.84375 
Q 52.203125 43.703125 52.203125 31.203125 
z
" id="DejaVuSans-97"/>
       <path d="M 54.890625 33.015625 
L 54.890625 0 
L 45.90625 0 
L 45.90625 32.71875 
Q 45.90625 40.484375 42.875 44.328125 
Q 39.84375 48.1875 33.796875 48.1875 
Q 26.515625 48.1875 22.3125 43.546875 
Q 18.109375 38.921875 18.109375 30.90625 
L 18.109375 0 
L 9.078125 0 
L 9.078125 54.6875 
L 18.109375 54.6875 
L 18.109375 46.1875 
Q 21.34375 51.125 25.703125 53.5625 
Q 30.078125 56 35.796875 56 
Q 45.21875 56 50.046875 50.171875 
Q 54.890625 44.34375 54.890625 33.015625 
z
" id="DejaVuSans-110"/>
       <path d="M 45.40625 27.984375 
Q 45.40625 37.75 41.375 43.109375 
Q 37.359375 48.484375 30.078125 48.484375 
Q 22.859375 48.484375 18.828125 43.109375 
Q 14.796875 37.75 14.796875 27.984375 
Q 14.796875 18.265625 18.828125 12.890625 
Q 22.859375 7.515625 30.078125 7.515625 
Q 37.359375 7.515625 41.375 12.890625 
Q 45.40625 18.265625 45.40625 27.984375 
z
M 54.390625 6.78125 
Q 54.390625 -7.171875 48.1875 -13.984375 
Q 42 -20.796875 29.203125 -20.796875 
Q 24.46875 -20.796875 20.265625 -20.09375 
Q 16.0625 -19.390625 12.109375 -17.921875 
L 12.109375 -9.1875 
Q 16.0625 -11.328125 19.921875 -12.34375 
Q 23.78125 -13.375 27.78125 -13.375 
Q 36.625 -13.375 41.015625 -8.765625 
Q 45.40625 -4.15625 45.40625 5.171875 
L 45.40625 9.625 
Q 42.625 4.78125 38.28125 2.390625 
Q 33.9375 0 27.875 0 
Q 17.828125 0 11.671875 7.65625 
Q 5.515625 15.328125 5.515625 27.984375 
Q 5.515625 40.671875 11.671875 48.328125 
Q 17.828125 56 27.875 56 
Q 33.9375 56 38.28125 53.609375 
Q 42.625 51.21875 45.40625 46.390625 
L 45.40625 54.6875 
L 54.390625 54.6875 
z
" id="DejaVuSans-103"/>
       <path d="M 18.3125 70.21875 
L 18.3125 54.6875 
L 36.8125 54.6875 
L 36.8125 47.703125 
L 18.3125 47.703125 
L 18.3125 18.015625 
Q 18.3125 11.328125 20.140625 9.421875 
Q 21.96875 7.515625 27.59375 7.515625 
L 36.8125 7.515625 
L 36.8125 0 
L 27.59375 0 
Q 17.1875 0 13.234375 3.875 
Q 9.28125 7.765625 9.28125 18.015625 
L 9.28125 47.703125 
L 2.6875 47.703125 
L 2.6875 54.6875 
L 9.28125 54.6875 
L 9.28125 70.21875 
z
" id="DejaVuSans-116"/>
       <path d="M 8.5 21.578125 
L 8.5 54.6875 
L 17.484375 54.6875 
L 17.484375 21.921875 
Q 17.484375 14.15625 20.5 10.265625 
Q 23.53125 6.390625 29.59375 6.390625 
Q 36.859375 6.390625 41.078125 11.03125 
Q 45.3125 15.671875 45.3125 23.6875 
L 45.3125 54.6875 
L 54.296875 54.6875 
L 54.296875 0 
L 45.3125 0 
L 45.3125 8.40625 
Q 42.046875 3.421875 37.71875 1 
Q 33.40625 -1.421875 27.6875 -1.421875 
Q 18.265625 -1.421875 13.375 4.4375 
Q 8.5 10.296875 8.5 21.578125 
z
M 31.109375 56 
z
" id="DejaVuSans-117"/>
       <path d="M 45.40625 46.390625 
L 45.40625 75.984375 
L 54.390625 75.984375 
L 54.390625 0 
L 45.40625 0 
L 45.40625 8.203125 
Q 42.578125 3.328125 38.25 0.953125 
Q 33.9375 -1.421875 27.875 -1.421875 
Q 17.96875 -1.421875 11.734375 6.484375 
Q 5.515625 14.40625 5.515625 27.296875 
Q 5.515625 40.1875 11.734375 48.09375 
Q 17.96875 56 27.875 56 
Q 33.9375 56 38.25 53.625 
Q 42.578125 51.265625 45.40625 46.390625 
z
M 14.796875 27.296875 
Q 14.796875 17.390625 18.875 11.75 
Q 22.953125 6.109375 30.078125 6.109375 
Q 37.203125 6.109375 41.296875 11.75 
Q 45.40625 17.390625 45.40625 27.296875 
Q 45.40625 37.203125 41.296875 42.84375 
Q 37.203125 48.484375 30.078125 48.484375 
Q 22.953125 48.484375 18.875 42.84375 
Q 14.796875 37.203125 14.796875 27.296875 
z
" id="DejaVuSans-100"/>
       <path d="M 30.609375 48.390625 
Q 23.390625 48.390625 19.1875 42.75 
Q 14.984375 37.109375 14.984375 27.296875 
Q 14.984375 17.484375 19.15625 11.84375 
Q 23.34375 6.203125 30.609375 6.203125 
Q 37.796875 6.203125 41.984375 11.859375 
Q 46.1875 17.53125 46.1875 27.296875 
Q 46.1875 37.015625 41.984375 42.703125 
Q 37.796875 48.390625 30.609375 48.390625 
z
M 30.609375 56 
Q 42.328125 56 49.015625 48.375 
Q 55.71875 40.765625 55.71875 27.296875 
Q 55.71875 13.875 49.015625 6.21875 
Q 42.328125 -1.421875 30.609375 -1.421875 
Q 18.84375 -1.421875 12.171875 6.21875 
Q 5.515625 13.875 5.515625 27.296875 
Q 5.515625 40.765625 12.171875 48.375 
Q 18.84375 56 30.609375 56 
z
" id="DejaVuSans-111"/>
       <path d="M 37.109375 75.984375 
L 37.109375 68.5 
L 28.515625 68.5 
Q 23.6875 68.5 21.796875 66.546875 
Q 19.921875 64.59375 19.921875 59.515625 
L 19.921875 54.6875 
L 34.71875 54.6875 
L 34.71875 47.703125 
L 19.921875 47.703125 
L 19.921875 0 
L 10.890625 0 
L 10.890625 47.703125 
L 2.296875 47.703125 
L 2.296875 54.6875 
L 10.890625 54.6875 
L 10.890625 58.5 
Q 10.890625 67.625 15.140625 71.796875 
Q 19.390625 75.984375 28.609375 75.984375 
z
" id="DejaVuSans-102"/>
       <path d="M 53.515625 70.515625 
L 53.515625 60.890625 
Q 47.90625 63.578125 42.921875 64.890625 
Q 37.9375 66.21875 33.296875 66.21875 
Q 25.25 66.21875 20.875 63.09375 
Q 16.5 59.96875 16.5 54.203125 
Q 16.5 49.359375 19.40625 46.890625 
Q 22.3125 44.4375 30.421875 42.921875 
L 36.375 41.703125 
Q 47.40625 39.59375 52.65625 34.296875 
Q 57.90625 29 57.90625 20.125 
Q 57.90625 9.515625 50.796875 4.046875 
Q 43.703125 -1.421875 29.984375 -1.421875 
Q 24.8125 -1.421875 18.96875 -0.25 
Q 13.140625 0.921875 6.890625 3.21875 
L 6.890625 13.375 
Q 12.890625 10.015625 18.65625 8.296875 
Q 24.421875 6.59375 29.984375 6.59375 
Q 38.421875 6.59375 43.015625 9.90625 
Q 47.609375 13.234375 47.609375 19.390625 
Q 47.609375 24.75 44.3125 27.78125 
Q 41.015625 30.8125 33.5 32.328125 
L 27.484375 33.5 
Q 16.453125 35.6875 11.515625 40.375 
Q 6.59375 45.0625 6.59375 53.421875 
Q 6.59375 63.09375 13.40625 68.65625 
Q 20.21875 74.21875 32.171875 74.21875 
Q 37.3125 74.21875 42.625 73.28125 
Q 47.953125 72.359375 53.515625 70.515625 
z
" id="DejaVuSans-83"/>
       <path d="M 41.109375 46.296875 
Q 39.59375 47.171875 37.8125 47.578125 
Q 36.03125 48 33.890625 48 
Q 26.265625 48 22.1875 43.046875 
Q 18.109375 38.09375 18.109375 28.8125 
L 18.109375 0 
L 9.078125 0 
L 9.078125 54.6875 
L 18.109375 54.6875 
L 18.109375 46.1875 
Q 20.953125 51.171875 25.484375 53.578125 
Q 30.03125 56 36.53125 56 
Q 37.453125 56 38.578125 55.875 
Q 39.703125 55.765625 41.0625 55.515625 
z
" id="DejaVuSans-114"/>
       <path d="M 34.1875 63.1875 
L 20.796875 26.90625 
L 47.609375 26.90625 
z
M 28.609375 72.90625 
L 39.796875 72.90625 
L 67.578125 0 
L 57.328125 0 
L 50.6875 18.703125 
L 17.828125 18.703125 
L 11.1875 0 
L 0.78125 0 
z
" id="DejaVuSans-65"/>
       <path d="M 9.421875 75.984375 
L 18.40625 75.984375 
L 18.40625 0 
L 9.421875 0 
z
" id="DejaVuSans-108"/>
      </defs>
      <use xlink:href="#DejaVuSans-77"/>
      <use x="86.279297" xlink:href="#DejaVuSans-101"/>
      <use x="147.802734" xlink:href="#DejaVuSans-97"/>
      <use x="209.082031" xlink:href="#DejaVuSans-110"/>
      <use x="272.460938" xlink:href="#DejaVuSans-32"/>
      <use x="304.248047" xlink:href="#DejaVuSans-77"/>
      <use x="390.527344" xlink:href="#DejaVuSans-97"/>
      <use x="451.806641" xlink:href="#DejaVuSans-103"/>
      <use x="515.283203" xlink:href="#DejaVuSans-110"/>
      <use x="578.662109" xlink:href="#DejaVuSans-105"/>
      <use x="606.445312" xlink:href="#DejaVuSans-116"/>
      <use x="645.654297" xlink:href="#DejaVuSans-117"/>
      <use x="709.033203" xlink:href="#DejaVuSans-100"/>
      <use x="772.509766" xlink:href="#DejaVuSans-101"/>
      <use x="834.033203" xlink:href="#DejaVuSans-32"/>
      <use x="865.820312" xlink:href="#DejaVuSans-111"/>
      <use x="927.001953" xlink:href="#DejaVuSans-102"/>
      <use x="962.207031" xlink:href="#DejaVuSans-32"/>
      <use x="993.994141" xlink:href="#DejaVuSans-83"/>
      <use x="1057.470703" xlink:href="#DejaVuSans-116"/>
      <use x="1096.679688" xlink:href="#DejaVuSans-101"/>
      <use x="1158.203125" xlink:href="#DejaVuSans-101"/>
      <use x="1219.726562" xlink:href="#DejaVuSans-114"/>
      <use x="1260.839844" xlink:href="#DejaVuSans-105"/>
      <use x="1288.623047" xlink:href="#DejaVuSans-110"/>
      <use x="1352.001953" xlink:href="#DejaVuSans-103"/>
      <use x="1415.478516" xlink:href="#DejaVuSans-32"/>
      <use x="1447.265625" xlink:href="#DejaVuSans-65"/>
      <use x="1515.673828" xlink:href="#DejaVuSans-110"/>
      <use x="1579.052734" xlink:href="#DejaVuSans-103"/>
      <use x="1642.529297" xlink:href="#DejaVuSans-108"/>
      <use x="1670.3125" xlink:href="#DejaVuSans-101"/>
     </g>
    </g>
   </g>
   <g id="line2d_15">
    <path clip-path="url(#p26cd23daae)" d="M 54.350766 279.903523 
L 265.741086 279.903523 
L 265.741086 279.903523 
" style="fill:none;stroke:#000000;stroke-linecap:square;stroke-width:0.5;"/>
   </g>
   <g id="line2d_16">
    <path clip-path="url(#p26cd23daae)" d="M 54.350766 190.371134 
L 265.741086 190.371134 
L 265.741086 190.371134 
" style="fill:none;stroke:#000000;stroke-linecap:square;stroke-width:0.5;"/>
   </g>
   <g id="line2d_17">
    <path clip-path="url(#p26cd23daae)" d="M 54.350766 239.05985 
L 55.87156 253.886619 
L 57.392353 265.056686 
L 58.913147 262.367325 
L 60.433941 261.495684 
L 61.954734 259.868451 
L 63.475528 253.124104 
L 64.996322 243.504353 
L 66.517115 247.09965 
L 68.037909 243.583635 
L 69.558703 241.336867 
L 71.079496 246.685324 
L 72.60029 234.705524 
L 74.121084 201.950627 
L 75.641877 210.314039 
L 77.162671 200.911784 
L 78.683465 214.552175 
L 80.204258 214.17269 
L 81.725052 212.620019 
L 83.245846 191.428293 
L 84.766639 202.561138 
L 86.287433 190.911369 
L 87.808227 208.237023 
L 89.32902 199.125593 
L 90.849814 182.726974 
L 92.370608 183.065952 
L 93.891401 179.053972 
L 95.412195 162.533128 
L 96.932989 136.57619 
L 98.453782 132.405296 
L 99.974576 135.015048 
L 101.49537 131.767102 
L 103.016163 136.268337 
L 104.536957 152.868393 
L 106.057751 121.412055 
L 107.578544 144.693793 
L 109.099338 136.321248 
L 110.620132 139.709531 
L 112.140925 161.360537 
L 113.661719 189.244064 
L 115.182513 181.218635 
L 116.703306 175.445547 
L 118.2241 191.664159 
L 119.744894 191.87005 
L 121.265687 203.739058 
L 122.786481 193.696835 
L 124.307275 195.679924 
L 125.828068 188.940337 
L 127.348862 188.206145 
L 128.869656 182.610244 
L 130.390449 179.693786 
L 131.911243 156.742619 
L 133.432037 131.944464 
L 134.95283 162.315205 
L 136.473624 203.174738 
L 137.994418 194.297032 
L 139.515211 203.1894 
L 141.036005 217.564478 
L 142.556799 211.215899 
L 144.077592 218.482442 
L 145.598386 229.875834 
L 147.11918 232.526347 
L 148.639973 231.025508 
L 150.160767 223.024869 
L 151.681561 236.283099 
L 153.202354 231.409141 
L 154.723148 232.706573 
L 156.243942 228.46023 
L 157.764735 233.321672 
L 159.285529 229.34023 
L 160.806323 228.851453 
L 162.327116 220.415646 
L 163.84791 216.98801 
L 165.368704 217.168916 
L 166.889497 225.305755 
L 168.410291 219.462131 
L 169.931085 206.856333 
L 171.451878 199.461107 
L 174.493466 225.616875 
L 176.014259 216.973522 
L 177.535053 220.602912 
L 179.055847 226.658703 
L 180.57664 230.693397 
L 182.097434 223.802651 
L 183.618228 226.041712 
L 185.139021 229.008915 
L 186.659815 234.408764 
L 188.180609 230.166299 
L 189.701402 229.138846 
L 191.222196 219.579404 
L 192.74299 240.27863 
L 194.263783 237.377505 
L 197.305371 236.179545 
L 198.826164 234.564843 
L 200.346958 236.020403 
L 201.867752 242.960116 
L 203.388545 242.377861 
L 204.909339 239.048655 
L 206.430133 239.369879 
L 207.950926 235.731832 
L 209.47172 237.146439 
L 210.992514 241.552112 
L 212.513307 222.197275 
L 214.034101 226.509696 
L 215.554895 233.416352 
L 217.075689 238.23874 
L 218.596482 241.911002 
L 220.117276 242.689306 
L 221.63807 250.955264 
L 223.158863 252.510397 
L 224.679657 251.061102 
L 226.200451 251.525014 
L 227.721244 249.252678 
L 229.242038 246.386544 
L 230.762832 253.671561 
L 232.283625 257.32638 
L 233.804419 258.772386 
L 235.325213 256.724069 
L 236.846006 250.548828 
L 238.3668 257.059821 
L 239.887594 250.494059 
L 241.408387 259.16429 
L 242.929181 255.99989 
L 244.449975 252.338094 
L 245.970768 255.307728 
L 247.491562 249.497889 
L 249.012356 247.48446 
L 250.533149 248.101335 
L 252.053943 251.896097 
L 253.574737 254.387526 
L 255.09553 251.985367 
L 256.616324 253.274163 
L 259.657911 259.339875 
L 261.178705 261.550047 
L 262.699499 262.373276 
L 264.220292 262.717937 
L 265.741086 260.01303 
L 265.741086 260.01303 
" style="fill:none;stroke:#1f77b4;stroke-linecap:square;stroke-width:1.5;"/>
   </g>
   <g id="line2d_18">
    <path clip-path="url(#p26cd23daae)" d="M 54.350766 279.903523 
L 265.741086 279.903523 
L 265.741086 279.903523 
" style="fill:none;stroke:#000000;stroke-linecap:square;stroke-width:0.5;"/>
   </g>
   <g id="line2d_19">
    <path clip-path="url(#p26cd23daae)" d="M 54.350766 190.371134 
L 265.741086 190.371134 
L 265.741086 190.371134 
" style="fill:none;stroke:#000000;stroke-linecap:square;stroke-width:0.5;"/>
   </g>
   <g id="line2d_20">
    <path clip-path="url(#p26cd23daae)" d="M 54.350766 124.589605 
L 55.87156 175.955739 
L 57.392353 217.123492 
L 58.913147 204.930967 
L 60.433941 223.144086 
L 61.954734 201.110361 
L 63.475528 156.995837 
L 64.996322 165.129187 
L 66.517115 157.059821 
L 68.037909 162.878683 
L 69.558703 183.293103 
L 71.079496 167.579762 
L 72.60029 175.704917 
L 74.121084 167.499266 
L 75.641877 161.015104 
L 77.162671 138.830619 
L 78.683465 166.417004 
L 80.204258 163.742926 
L 81.725052 157.099831 
L 83.245846 154.404887 
L 84.766639 161.184391 
L 86.287433 157.856081 
L 87.808227 155.453302 
L 89.32902 156.869652 
L 90.849814 154.811486 
L 92.370608 147.517053 
L 93.891401 145.636787 
L 95.412195 140.36454 
L 96.932989 144.780355 
L 98.453782 134.430642 
L 99.974576 155.767069 
L 101.49537 132.654078 
L 103.016163 144.061332 
L 104.536957 147.190143 
L 106.057751 158.914392 
L 107.578544 109.709111 
L 109.099338 134.304972 
L 110.620132 136.110452 
L 112.140925 135.83847 
L 113.661719 119.633567 
L 115.182513 90.443815 
L 116.703306 85.675811 
L 118.2241 88.723136 
L 119.744894 77.627753 
L 121.265687 83.99727 
L 122.786481 124.22509 
L 124.307275 119.229383 
L 125.828068 108.687012 
L 127.348862 133.078638 
L 128.869656 99.844942 
L 130.390449 86.3309 
L 131.911243 104.357643 
L 133.432037 115.401419 
L 134.95283 109.249828 
L 136.473624 112.203522 
L 137.994418 121.970632 
L 139.515211 100.095531 
L 141.036005 97.041187 
L 142.556799 112.737071 
L 144.077592 115.960095 
L 145.598386 132.813534 
L 147.11918 116.042857 
L 148.639973 115.697305 
L 150.160767 83.215942 
L 151.681561 101.262889 
L 153.202354 115.847407 
L 154.723148 123.911717 
L 156.243942 110.045679 
L 157.764735 103.858585 
L 159.285529 109.710345 
L 160.806323 111.421002 
L 162.327116 117.696296 
L 163.84791 117.722441 
L 165.368704 112.961821 
L 166.889497 102.771751 
L 168.410291 104.376262 
L 169.931085 128.118989 
L 171.451878 111.963952 
L 172.972672 111.411039 
L 174.493466 122.373247 
L 176.014259 131.306084 
L 177.535053 66.048977 
L 179.055847 96.432581 
L 180.57664 131.926032 
L 182.097434 125.815091 
L 183.618228 109.816306 
L 185.139021 102.199352 
L 186.659815 120.828367 
L 188.180609 76.696608 
L 189.701402 109.12194 
L 191.222196 129.964728 
L 192.74299 121.496868 
L 194.263783 116.883104 
L 195.784577 89.746132 
L 197.305371 103.91913 
L 198.826164 111.423037 
L 200.346958 99.193943 
L 201.867752 114.730843 
L 203.388545 120.85402 
L 204.909339 70.883906 
L 207.950926 129.895195 
L 209.47172 91.172687 
L 210.992514 108.714145 
L 212.513307 113.110695 
L 214.034101 124.818855 
L 215.554895 87.124024 
L 217.075689 110.2056 
L 218.596482 115.031853 
L 220.117276 126.42768 
L 221.63807 129.188106 
L 223.158863 110.815053 
L 224.679657 124.284409 
L 226.200451 114.746897 
L 227.721244 109.394007 
L 229.242038 119.192971 
L 230.762832 109.680099 
L 232.283625 113.15379 
L 233.804419 66.950993 
L 235.325213 93.030438 
L 236.846006 121.79421 
L 238.3668 104.152018 
L 239.887594 100.545981 
L 241.408387 110.774947 
L 242.929181 104.598748 
L 244.449975 127.319984 
L 245.970768 120.453992 
L 247.491562 98.107661 
L 249.012356 111.212268 
L 250.533149 96.421599 
L 252.053943 99.450749 
L 253.574737 118.507912 
L 255.09553 128.748589 
L 256.616324 126.92586 
L 258.137118 118.723589 
L 259.657911 94.682385 
L 261.178705 98.139678 
L 262.699499 110.852389 
L 264.220292 118.160566 
L 265.741086 127.052119 
L 265.741086 127.052119 
" style="fill:none;stroke:#ff7f0e;stroke-linecap:square;stroke-width:1.5;"/>
   </g>
   <g id="line2d_21">
    <path clip-path="url(#p26cd23daae)" d="M 54.350766 279.903523 
L 265.741086 279.903523 
L 265.741086 279.903523 
" style="fill:none;stroke:#000000;stroke-linecap:square;stroke-width:0.5;"/>
   </g>
   <g id="line2d_22">
    <path clip-path="url(#p26cd23daae)" d="M 54.350766 190.371134 
L 265.741086 190.371134 
L 265.741086 190.371134 
" style="fill:none;stroke:#000000;stroke-linecap:square;stroke-width:0.5;"/>
   </g>
   <g id="line2d_23">
    <path clip-path="url(#p26cd23daae)" d="M 54.350766 224.344175 
L 55.87156 215.973212 
L 57.392353 238.020426 
L 58.913147 243.756974 
L 60.433941 245.191062 
L 63.475528 222.824703 
L 64.996322 227.87431 
L 66.517115 208.094001 
L 68.037909 214.185534 
L 69.558703 216.20008 
L 71.079496 205.476274 
L 72.60029 198.829315 
L 74.121084 203.414816 
L 75.641877 207.583953 
L 78.683465 219.734549 
L 80.204258 214.209556 
L 81.725052 213.873324 
L 83.245846 203.561363 
L 84.766639 209.22142 
L 86.287433 217.970022 
L 87.808227 213.844677 
L 89.32902 225.19118 
L 90.849814 218.947386 
L 92.370608 218.997351 
L 93.891401 220.237679 
L 95.412195 219.830997 
L 96.932989 211.144472 
L 98.453782 211.708073 
L 99.974576 213.193092 
L 101.49537 205.212639 
L 103.016163 208.290544 
L 104.536957 209.905356 
L 106.057751 210.125733 
L 107.578544 209.361321 
L 109.099338 204.225672 
L 110.620132 198.576667 
L 112.140925 195.487904 
L 113.661719 191.883833 
L 115.182513 195.544569 
L 116.703306 202.868362 
L 118.2241 192.375398 
L 119.744894 199.589448 
L 121.265687 201.65634 
L 122.786481 194.377938 
L 124.307275 207.017837 
L 125.828068 197.529785 
L 127.348862 201.913559 
L 128.869656 195.200032 
L 130.390449 190.992184 
L 131.911243 195.463699 
L 133.432037 183.916224 
L 134.95283 187.722161 
L 136.473624 188.078948 
L 137.994418 204.000963 
L 139.515211 197.197757 
L 141.036005 202.023938 
L 142.556799 192.514333 
L 144.077592 202.406635 
L 145.598386 191.974729 
L 147.11918 197.057668 
L 148.639973 199.394486 
L 150.160767 202.999966 
L 151.681561 194.770911 
L 153.202354 194.368602 
L 154.723148 202.232554 
L 156.243942 202.248533 
L 157.764735 193.770317 
L 159.285529 205.954637 
L 160.806323 210.000789 
L 162.327116 207.214282 
L 163.84791 211.54211 
L 165.368704 212.782056 
L 166.889497 210.930701 
L 168.410291 212.003219 
L 169.931085 204.880555 
L 171.451878 204.270316 
L 172.972672 202.536427 
L 174.493466 201.419429 
L 176.014259 202.793438 
L 177.535053 202.398077 
L 179.055847 207.270195 
L 180.57664 207.507936 
L 182.097434 205.982772 
L 183.618228 212.553351 
L 185.139021 216.976223 
L 186.659815 206.12682 
L 188.180609 204.233077 
L 189.701402 215.688934 
L 191.222196 216.612268 
L 192.74299 197.552371 
L 194.263783 216.818577 
L 195.784577 215.400309 
L 197.305371 212.222385 
L 198.826164 210.120603 
L 200.346958 205.37435 
L 201.867752 216.307975 
L 203.388545 229.171304 
L 204.909339 215.040789 
L 206.430133 213.515152 
L 207.950926 218.723807 
L 209.47172 200.094325 
L 210.992514 203.271614 
L 212.513307 208.577018 
L 214.034101 211.244328 
L 215.554895 211.341597 
L 217.075689 212.588179 
L 220.117276 220.864049 
L 221.63807 218.143188 
L 223.158863 209.560987 
L 224.679657 212.038463 
L 226.200451 218.361126 
L 227.721244 209.136028 
L 229.242038 218.914782 
L 230.762832 217.028735 
L 232.283625 219.509685 
L 233.804419 227.567774 
L 235.325213 215.722991 
L 236.846006 222.748756 
L 238.3668 217.199119 
L 239.887594 225.61931 
L 241.408387 225.621401 
L 242.929181 223.38426 
L 244.449975 224.260268 
L 245.970768 220.946996 
L 247.491562 221.544074 
L 249.012356 220.555443 
L 250.533149 224.410026 
L 252.053943 222.18675 
L 255.09553 222.560774 
L 256.616324 213.129375 
L 258.137118 215.965242 
L 259.657911 212.611591 
L 261.178705 218.7647 
L 262.699499 207.917082 
L 264.220292 217.312387 
L 265.741086 211.130455 
L 265.741086 211.130455 
" style="fill:none;stroke:#2ca02c;stroke-linecap:square;stroke-width:1.5;"/>
   </g>
   <g id="line2d_24">
    <path clip-path="url(#p26cd23daae)" d="M 54.350766 279.903523 
L 265.741086 279.903523 
L 265.741086 279.903523 
" style="fill:none;stroke:#000000;stroke-linecap:square;stroke-width:0.5;"/>
   </g>
   <g id="line2d_25">
    <path clip-path="url(#p26cd23daae)" d="M 54.350766 190.371134 
L 265.741086 190.371134 
L 265.741086 190.371134 
" style="fill:none;stroke:#000000;stroke-linecap:square;stroke-width:0.5;"/>
   </g>
   <g id="line2d_26">
    <path clip-path="url(#p26cd23daae)" d="M 54.350766 227.691962 
L 55.87156 220.905159 
L 57.392353 242.420879 
L 58.913147 246.59298 
L 60.433941 249.707743 
L 61.954734 235.974487 
L 63.475528 232.094205 
L 64.996322 229.502248 
L 66.517115 215.664414 
L 68.037909 210.17831 
L 69.558703 220.243248 
L 71.079496 213.696358 
L 72.60029 207.933345 
L 74.121084 205.038401 
L 75.641877 206.09084 
L 77.162671 215.16147 
L 78.683465 219.203271 
L 80.204258 209.97368 
L 81.725052 214.397367 
L 83.245846 216.687551 
L 84.766639 212.703924 
L 86.287433 218.58521 
L 87.808227 229.855434 
L 89.32902 212.674251 
L 90.849814 216.040194 
L 92.370608 210.287883 
L 93.891401 214.626483 
L 95.412195 210.971586 
L 96.932989 200.94646 
L 98.453782 215.63015 
L 99.974576 213.853448 
L 101.49537 212.633842 
L 103.016163 213.243309 
L 104.536957 218.874889 
L 106.057751 207.785847 
L 107.578544 218.401086 
L 109.099338 214.661173 
L 110.620132 209.287373 
L 112.140925 206.692027 
L 113.661719 206.318227 
L 115.182513 197.608172 
L 116.703306 192.225744 
L 118.2241 200.309288 
L 119.744894 204.495198 
L 121.265687 201.665589 
L 122.786481 204.87262 
L 124.307275 197.540371 
L 125.828068 209.067503 
L 127.348862 205.093301 
L 128.869656 209.289211 
L 130.390449 206.312116 
L 131.911243 199.126117 
L 133.432037 202.996983 
L 134.95283 208.583651 
L 136.473624 199.666402 
L 137.994418 196.052112 
L 139.515211 206.008098 
L 141.036005 208.534517 
L 142.556799 212.304294 
L 144.077592 207.022877 
L 145.598386 211.461134 
L 148.639973 212.638677 
L 150.160767 224.181719 
L 151.681561 214.162098 
L 153.202354 214.629943 
L 154.723148 206.480773 
L 156.243942 214.1741 
L 157.764735 211.1882 
L 159.285529 214.185124 
L 160.806323 209.425129 
L 162.327116 218.229051 
L 163.84791 217.319401 
L 165.368704 211.413488 
L 166.889497 213.723097 
L 168.410291 215.516662 
L 169.931085 213.549439 
L 171.451878 216.906389 
L 172.972672 218.934361 
L 174.493466 228.511659 
L 176.014259 220.072598 
L 177.535053 220.179562 
L 179.055847 227.508732 
L 180.57664 220.650479 
L 182.097434 221.667888 
L 183.618228 220.257667 
L 185.139021 220.650389 
L 186.659815 218.643839 
L 188.180609 217.688553 
L 189.701402 213.953094 
L 191.222196 212.502442 
L 192.74299 218.015018 
L 194.263783 219.661007 
L 195.784577 220.932386 
L 197.305371 217.099255 
L 198.826164 212.215893 
L 200.346958 215.670083 
L 201.867752 212.426458 
L 203.388545 216.557448 
L 204.909339 221.011861 
L 206.430133 224.06771 
L 207.950926 223.506613 
L 209.47172 219.830956 
L 210.992514 227.516831 
L 212.513307 222.561253 
L 214.034101 221.875598 
L 215.554895 212.871948 
L 217.075689 227.475856 
L 218.596482 229.266274 
L 220.117276 229.460325 
L 221.63807 224.765496 
L 223.158863 229.778204 
L 224.679657 229.255123 
L 226.200451 233.680973 
L 227.721244 235.07429 
L 229.242038 234.544115 
L 230.762832 226.115732 
L 232.283625 235.075045 
L 233.804419 231.518733 
L 236.846006 240.537073 
L 238.3668 240.704987 
L 239.887594 241.383418 
L 241.408387 235.841333 
L 242.929181 239.51855 
L 244.449975 233.208208 
L 245.970768 229.501515 
L 247.491562 223.811672 
L 249.012356 225.902111 
L 250.533149 223.245826 
L 252.053943 235.420592 
L 253.574737 233.252197 
L 255.09553 235.329736 
L 256.616324 229.810218 
L 258.137118 223.226282 
L 259.657911 229.162645 
L 261.178705 230.50318 
L 262.699499 228.758623 
L 264.220292 227.39523 
L 265.741086 229.814913 
L 265.741086 229.814913 
" style="fill:none;stroke:#d62728;stroke-linecap:square;stroke-width:1.5;"/>
   </g>
   <g id="patch_3">
    <path d="M 43.78125 290.59625 
L 43.78125 55.35625 
" style="fill:none;stroke:#000000;stroke-linecap:square;stroke-linejoin:miter;stroke-width:0.8;"/>
   </g>
   <g id="patch_4">
    <path d="M 276.310602 290.59625 
L 276.310602 55.35625 
" style="fill:none;stroke:#000000;stroke-linecap:square;stroke-linejoin:miter;stroke-width:0.8;"/>
   </g>
   <g id="patch_5">
    <path d="M 43.78125 290.59625 
L 276.310602 290.59625 
" style="fill:none;stroke:#000000;stroke-linecap:square;stroke-linejoin:miter;stroke-width:0.8;"/>
   </g>
   <g id="patch_6">
    <path d="M 43.78125 55.35625 
L 276.310602 55.35625 
" style="fill:none;stroke:#000000;stroke-linecap:square;stroke-linejoin:miter;stroke-width:0.8;"/>
   </g>
  </g>
  <g id="axes_2">
   <g id="patch_7">
    <path d="M 326.448287 290.59625 
L 558.977639 290.59625 
L 558.977639 55.35625 
L 326.448287 55.35625 
z
" style="fill:#ffffff;"/>
   </g>
   <g id="matplotlib.axis_3">
    <g id="xtick_7">
     <g id="line2d_27">
      <g>
       <use style="stroke:#000000;stroke-width:0.8;" x="337.017803" xlink:href="#m12d70c81b5" y="290.59625"/>
      </g>
     </g>
     <g id="text_17">
      <!-- 0 -->
      <g transform="translate(333.836553 305.194687)scale(0.1 -0.1)">
       <use xlink:href="#DejaVuSans-48"/>
      </g>
     </g>
    </g>
    <g id="xtick_8">
     <g id="line2d_28">
      <g>
       <use style="stroke:#000000;stroke-width:0.8;" x="379.756951" xlink:href="#m12d70c81b5" y="290.59625"/>
      </g>
     </g>
     <g id="text_18">
      <!-- 20 -->
      <g transform="translate(373.394451 305.194687)scale(0.1 -0.1)">
       <use xlink:href="#DejaVuSans-50"/>
       <use x="63.623047" xlink:href="#DejaVuSans-48"/>
      </g>
     </g>
    </g>
    <g id="xtick_9">
     <g id="line2d_29">
      <g>
       <use style="stroke:#000000;stroke-width:0.8;" x="422.4961" xlink:href="#m12d70c81b5" y="290.59625"/>
      </g>
     </g>
     <g id="text_19">
      <!-- 40 -->
      <g transform="translate(416.1336 305.194687)scale(0.1 -0.1)">
       <use xlink:href="#DejaVuSans-52"/>
       <use x="63.623047" xlink:href="#DejaVuSans-48"/>
      </g>
     </g>
    </g>
    <g id="xtick_10">
     <g id="line2d_30">
      <g>
       <use style="stroke:#000000;stroke-width:0.8;" x="465.235249" xlink:href="#m12d70c81b5" y="290.59625"/>
      </g>
     </g>
     <g id="text_20">
      <!-- 60 -->
      <g transform="translate(458.872749 305.194687)scale(0.1 -0.1)">
       <use xlink:href="#DejaVuSans-54"/>
       <use x="63.623047" xlink:href="#DejaVuSans-48"/>
      </g>
     </g>
    </g>
    <g id="xtick_11">
     <g id="line2d_31">
      <g>
       <use style="stroke:#000000;stroke-width:0.8;" x="507.974397" xlink:href="#m12d70c81b5" y="290.59625"/>
      </g>
     </g>
     <g id="text_21">
      <!-- 80 -->
      <g transform="translate(501.611897 305.194687)scale(0.1 -0.1)">
       <defs>
        <path d="M 31.78125 34.625 
Q 24.75 34.625 20.71875 30.859375 
Q 16.703125 27.09375 16.703125 20.515625 
Q 16.703125 13.921875 20.71875 10.15625 
Q 24.75 6.390625 31.78125 6.390625 
Q 38.8125 6.390625 42.859375 10.171875 
Q 46.921875 13.96875 46.921875 20.515625 
Q 46.921875 27.09375 42.890625 30.859375 
Q 38.875 34.625 31.78125 34.625 
z
M 21.921875 38.8125 
Q 15.578125 40.375 12.03125 44.71875 
Q 8.5 49.078125 8.5 55.328125 
Q 8.5 64.0625 14.71875 69.140625 
Q 20.953125 74.21875 31.78125 74.21875 
Q 42.671875 74.21875 48.875 69.140625 
Q 55.078125 64.0625 55.078125 55.328125 
Q 55.078125 49.078125 51.53125 44.71875 
Q 48 40.375 41.703125 38.8125 
Q 48.828125 37.15625 52.796875 32.3125 
Q 56.78125 27.484375 56.78125 20.515625 
Q 56.78125 9.90625 50.3125 4.234375 
Q 43.84375 -1.421875 31.78125 -1.421875 
Q 19.734375 -1.421875 13.25 4.234375 
Q 6.78125 9.90625 6.78125 20.515625 
Q 6.78125 27.484375 10.78125 32.3125 
Q 14.796875 37.15625 21.921875 38.8125 
z
M 18.3125 54.390625 
Q 18.3125 48.734375 21.84375 45.5625 
Q 25.390625 42.390625 31.78125 42.390625 
Q 38.140625 42.390625 41.71875 45.5625 
Q 45.3125 48.734375 45.3125 54.390625 
Q 45.3125 60.0625 41.71875 63.234375 
Q 38.140625 66.40625 31.78125 66.40625 
Q 25.390625 66.40625 21.84375 63.234375 
Q 18.3125 60.0625 18.3125 54.390625 
z
" id="DejaVuSans-56"/>
       </defs>
       <use xlink:href="#DejaVuSans-56"/>
       <use x="63.623047" xlink:href="#DejaVuSans-48"/>
      </g>
     </g>
    </g>
    <g id="xtick_12">
     <g id="line2d_32">
      <g>
       <use style="stroke:#000000;stroke-width:0.8;" x="550.713546" xlink:href="#m12d70c81b5" y="290.59625"/>
      </g>
     </g>
     <g id="text_22">
      <!-- 100 -->
      <g transform="translate(541.169796 305.194687)scale(0.1 -0.1)">
       <use xlink:href="#DejaVuSans-49"/>
       <use x="63.623047" xlink:href="#DejaVuSans-48"/>
       <use x="127.246094" xlink:href="#DejaVuSans-48"/>
      </g>
     </g>
    </g>
    <g id="text_23">
     <!-- Magnitude of Steering Angle -->
     <g transform="translate(371.332494 318.872812)scale(0.1 -0.1)">
      <use xlink:href="#DejaVuSans-77"/>
      <use x="86.279297" xlink:href="#DejaVuSans-97"/>
      <use x="147.558594" xlink:href="#DejaVuSans-103"/>
      <use x="211.035156" xlink:href="#DejaVuSans-110"/>
      <use x="274.414062" xlink:href="#DejaVuSans-105"/>
      <use x="302.197266" xlink:href="#DejaVuSans-116"/>
      <use x="341.40625" xlink:href="#DejaVuSans-117"/>
      <use x="404.785156" xlink:href="#DejaVuSans-100"/>
      <use x="468.261719" xlink:href="#DejaVuSans-101"/>
      <use x="529.785156" xlink:href="#DejaVuSans-32"/>
      <use x="561.572266" xlink:href="#DejaVuSans-111"/>
      <use x="622.753906" xlink:href="#DejaVuSans-102"/>
      <use x="657.958984" xlink:href="#DejaVuSans-32"/>
      <use x="689.746094" xlink:href="#DejaVuSans-83"/>
      <use x="753.222656" xlink:href="#DejaVuSans-116"/>
      <use x="792.431641" xlink:href="#DejaVuSans-101"/>
      <use x="853.955078" xlink:href="#DejaVuSans-101"/>
      <use x="915.478516" xlink:href="#DejaVuSans-114"/>
      <use x="956.591797" xlink:href="#DejaVuSans-105"/>
      <use x="984.375" xlink:href="#DejaVuSans-110"/>
      <use x="1047.753906" xlink:href="#DejaVuSans-103"/>
      <use x="1111.230469" xlink:href="#DejaVuSans-32"/>
      <use x="1143.017578" xlink:href="#DejaVuSans-65"/>
      <use x="1211.425781" xlink:href="#DejaVuSans-110"/>
      <use x="1274.804688" xlink:href="#DejaVuSans-103"/>
      <use x="1338.28125" xlink:href="#DejaVuSans-108"/>
      <use x="1366.064453" xlink:href="#DejaVuSans-101"/>
     </g>
    </g>
   </g>
   <g id="matplotlib.axis_4">
    <g id="ytick_9">
     <g id="line2d_33">
      <g>
       <use style="stroke:#000000;stroke-width:0.8;" x="326.448287" xlink:href="#m3ac2e664c6" y="279.903523"/>
      </g>
     </g>
     <g id="text_24">
      <!-- $\mathdefault{10^{0}}$ -->
      <g transform="translate(301.848287 283.702741)scale(0.1 -0.1)">
       <use transform="translate(0 0.765625)" xlink:href="#DejaVuSans-49"/>
       <use transform="translate(63.623047 0.765625)" xlink:href="#DejaVuSans-48"/>
       <use transform="translate(128.203125 39.046875)scale(0.7)" xlink:href="#DejaVuSans-48"/>
      </g>
     </g>
    </g>
    <g id="ytick_10">
     <g id="line2d_34">
      <g>
       <use style="stroke:#000000;stroke-width:0.8;" x="326.448287" xlink:href="#m3ac2e664c6" y="237.829181"/>
      </g>
     </g>
     <g id="text_25">
      <!-- $\mathdefault{10^{1}}$ -->
      <g transform="translate(301.848287 241.6284)scale(0.1 -0.1)">
       <use transform="translate(0 0.684375)" xlink:href="#DejaVuSans-49"/>
       <use transform="translate(63.623047 0.684375)" xlink:href="#DejaVuSans-48"/>
       <use transform="translate(128.203125 38.965625)scale(0.7)" xlink:href="#DejaVuSans-49"/>
      </g>
     </g>
    </g>
    <g id="ytick_11">
     <g id="line2d_35">
      <g>
       <use style="stroke:#000000;stroke-width:0.8;" x="326.448287" xlink:href="#m3ac2e664c6" y="195.75484"/>
      </g>
     </g>
     <g id="text_26">
      <!-- $\mathdefault{10^{2}}$ -->
      <g transform="translate(301.848287 199.554058)scale(0.1 -0.1)">
       <use transform="translate(0 0.765625)" xlink:href="#DejaVuSans-49"/>
       <use transform="translate(63.623047 0.765625)" xlink:href="#DejaVuSans-48"/>
       <use transform="translate(128.203125 39.046875)scale(0.7)" xlink:href="#DejaVuSans-50"/>
      </g>
     </g>
    </g>
    <g id="ytick_12">
     <g id="line2d_36">
      <g>
       <use style="stroke:#000000;stroke-width:0.8;" x="326.448287" xlink:href="#m3ac2e664c6" y="153.680498"/>
      </g>
     </g>
     <g id="text_27">
      <!-- $\mathdefault{10^{3}}$ -->
      <g transform="translate(301.848287 157.479717)scale(0.1 -0.1)">
       <use transform="translate(0 0.765625)" xlink:href="#DejaVuSans-49"/>
       <use transform="translate(63.623047 0.765625)" xlink:href="#DejaVuSans-48"/>
       <use transform="translate(128.203125 39.046875)scale(0.7)" xlink:href="#DejaVuSans-51"/>
      </g>
     </g>
    </g>
    <g id="ytick_13">
     <g id="line2d_37">
      <g>
       <use style="stroke:#000000;stroke-width:0.8;" x="326.448287" xlink:href="#m3ac2e664c6" y="111.606157"/>
      </g>
     </g>
     <g id="text_28">
      <!-- $\mathdefault{10^{4}}$ -->
      <g transform="translate(301.848287 115.405375)scale(0.1 -0.1)">
       <use transform="translate(0 0.684375)" xlink:href="#DejaVuSans-49"/>
       <use transform="translate(63.623047 0.684375)" xlink:href="#DejaVuSans-48"/>
       <use transform="translate(128.203125 38.965625)scale(0.7)" xlink:href="#DejaVuSans-52"/>
      </g>
     </g>
    </g>
    <g id="ytick_14">
     <g id="line2d_38">
      <g>
       <use style="stroke:#000000;stroke-width:0.8;" x="326.448287" xlink:href="#m3ac2e664c6" y="69.531815"/>
      </g>
     </g>
     <g id="text_29">
      <!-- $\mathdefault{10^{5}}$ -->
      <g transform="translate(301.848287 73.331034)scale(0.1 -0.1)">
       <use transform="translate(0 0.684375)" xlink:href="#DejaVuSans-49"/>
       <use transform="translate(63.623047 0.684375)" xlink:href="#DejaVuSans-48"/>
       <use transform="translate(128.203125 38.965625)scale(0.7)" xlink:href="#DejaVuSans-53"/>
      </g>
     </g>
    </g>
    <g id="ytick_15">
     <g id="line2d_39">
      <defs>
       <path d="M 0 0 
L -2 0 
" id="mce40051d68" style="stroke:#000000;stroke-width:0.6;"/>
      </defs>
      <g>
       <use style="stroke:#000000;stroke-width:0.6;" x="326.448287" xlink:href="#mce40051d68" y="289.237663"/>
      </g>
     </g>
    </g>
    <g id="ytick_16">
     <g id="line2d_40">
      <g>
       <use style="stroke:#000000;stroke-width:0.6;" x="326.448287" xlink:href="#mce40051d68" y="286.420921"/>
      </g>
     </g>
    </g>
    <g id="ytick_17">
     <g id="line2d_41">
      <g>
       <use style="stroke:#000000;stroke-width:0.6;" x="326.448287" xlink:href="#mce40051d68" y="283.980948"/>
      </g>
     </g>
    </g>
    <g id="ytick_18">
     <g id="line2d_42">
      <g>
       <use style="stroke:#000000;stroke-width:0.6;" x="326.448287" xlink:href="#mce40051d68" y="281.828739"/>
      </g>
     </g>
    </g>
    <g id="ytick_19">
     <g id="line2d_43">
      <g>
       <use style="stroke:#000000;stroke-width:0.6;" x="326.448287" xlink:href="#mce40051d68" y="267.237884"/>
      </g>
     </g>
    </g>
    <g id="ytick_20">
     <g id="line2d_44">
      <g>
       <use style="stroke:#000000;stroke-width:0.6;" x="326.448287" xlink:href="#mce40051d68" y="259.82896"/>
      </g>
     </g>
    </g>
    <g id="ytick_21">
     <g id="line2d_45">
      <g>
       <use style="stroke:#000000;stroke-width:0.6;" x="326.448287" xlink:href="#mce40051d68" y="254.572245"/>
      </g>
     </g>
    </g>
    <g id="ytick_22">
     <g id="line2d_46">
      <g>
       <use style="stroke:#000000;stroke-width:0.6;" x="326.448287" xlink:href="#mce40051d68" y="250.49482"/>
      </g>
     </g>
    </g>
    <g id="ytick_23">
     <g id="line2d_47">
      <g>
       <use style="stroke:#000000;stroke-width:0.6;" x="326.448287" xlink:href="#mce40051d68" y="247.163321"/>
      </g>
     </g>
    </g>
    <g id="ytick_24">
     <g id="line2d_48">
      <g>
       <use style="stroke:#000000;stroke-width:0.6;" x="326.448287" xlink:href="#mce40051d68" y="244.346579"/>
      </g>
     </g>
    </g>
    <g id="ytick_25">
     <g id="line2d_49">
      <g>
       <use style="stroke:#000000;stroke-width:0.6;" x="326.448287" xlink:href="#mce40051d68" y="241.906606"/>
      </g>
     </g>
    </g>
    <g id="ytick_26">
     <g id="line2d_50">
      <g>
       <use style="stroke:#000000;stroke-width:0.6;" x="326.448287" xlink:href="#mce40051d68" y="239.754398"/>
      </g>
     </g>
    </g>
    <g id="ytick_27">
     <g id="line2d_51">
      <g>
       <use style="stroke:#000000;stroke-width:0.6;" x="326.448287" xlink:href="#mce40051d68" y="225.163542"/>
      </g>
     </g>
    </g>
    <g id="ytick_28">
     <g id="line2d_52">
      <g>
       <use style="stroke:#000000;stroke-width:0.6;" x="326.448287" xlink:href="#mce40051d68" y="217.754619"/>
      </g>
     </g>
    </g>
    <g id="ytick_29">
     <g id="line2d_53">
      <g>
       <use style="stroke:#000000;stroke-width:0.6;" x="326.448287" xlink:href="#mce40051d68" y="212.497904"/>
      </g>
     </g>
    </g>
    <g id="ytick_30">
     <g id="line2d_54">
      <g>
       <use style="stroke:#000000;stroke-width:0.6;" x="326.448287" xlink:href="#mce40051d68" y="208.420479"/>
      </g>
     </g>
    </g>
    <g id="ytick_31">
     <g id="line2d_55">
      <g>
       <use style="stroke:#000000;stroke-width:0.6;" x="326.448287" xlink:href="#mce40051d68" y="205.08898"/>
      </g>
     </g>
    </g>
    <g id="ytick_32">
     <g id="line2d_56">
      <g>
       <use style="stroke:#000000;stroke-width:0.6;" x="326.448287" xlink:href="#mce40051d68" y="202.272238"/>
      </g>
     </g>
    </g>
    <g id="ytick_33">
     <g id="line2d_57">
      <g>
       <use style="stroke:#000000;stroke-width:0.6;" x="326.448287" xlink:href="#mce40051d68" y="199.832265"/>
      </g>
     </g>
    </g>
    <g id="ytick_34">
     <g id="line2d_58">
      <g>
       <use style="stroke:#000000;stroke-width:0.6;" x="326.448287" xlink:href="#mce40051d68" y="197.680056"/>
      </g>
     </g>
    </g>
    <g id="ytick_35">
     <g id="line2d_59">
      <g>
       <use style="stroke:#000000;stroke-width:0.6;" x="326.448287" xlink:href="#mce40051d68" y="183.089201"/>
      </g>
     </g>
    </g>
    <g id="ytick_36">
     <g id="line2d_60">
      <g>
       <use style="stroke:#000000;stroke-width:0.6;" x="326.448287" xlink:href="#mce40051d68" y="175.680277"/>
      </g>
     </g>
    </g>
    <g id="ytick_37">
     <g id="line2d_61">
      <g>
       <use style="stroke:#000000;stroke-width:0.6;" x="326.448287" xlink:href="#mce40051d68" y="170.423562"/>
      </g>
     </g>
    </g>
    <g id="ytick_38">
     <g id="line2d_62">
      <g>
       <use style="stroke:#000000;stroke-width:0.6;" x="326.448287" xlink:href="#mce40051d68" y="166.346137"/>
      </g>
     </g>
    </g>
    <g id="ytick_39">
     <g id="line2d_63">
      <g>
       <use style="stroke:#000000;stroke-width:0.6;" x="326.448287" xlink:href="#mce40051d68" y="163.014638"/>
      </g>
     </g>
    </g>
    <g id="ytick_40">
     <g id="line2d_64">
      <g>
       <use style="stroke:#000000;stroke-width:0.6;" x="326.448287" xlink:href="#mce40051d68" y="160.197896"/>
      </g>
     </g>
    </g>
    <g id="ytick_41">
     <g id="line2d_65">
      <g>
       <use style="stroke:#000000;stroke-width:0.6;" x="326.448287" xlink:href="#mce40051d68" y="157.757923"/>
      </g>
     </g>
    </g>
    <g id="ytick_42">
     <g id="line2d_66">
      <g>
       <use style="stroke:#000000;stroke-width:0.6;" x="326.448287" xlink:href="#mce40051d68" y="155.605714"/>
      </g>
     </g>
    </g>
    <g id="ytick_43">
     <g id="line2d_67">
      <g>
       <use style="stroke:#000000;stroke-width:0.6;" x="326.448287" xlink:href="#mce40051d68" y="141.014859"/>
      </g>
     </g>
    </g>
    <g id="ytick_44">
     <g id="line2d_68">
      <g>
       <use style="stroke:#000000;stroke-width:0.6;" x="326.448287" xlink:href="#mce40051d68" y="133.605936"/>
      </g>
     </g>
    </g>
    <g id="ytick_45">
     <g id="line2d_69">
      <g>
       <use style="stroke:#000000;stroke-width:0.6;" x="326.448287" xlink:href="#mce40051d68" y="128.349221"/>
      </g>
     </g>
    </g>
    <g id="ytick_46">
     <g id="line2d_70">
      <g>
       <use style="stroke:#000000;stroke-width:0.6;" x="326.448287" xlink:href="#mce40051d68" y="124.271796"/>
      </g>
     </g>
    </g>
    <g id="ytick_47">
     <g id="line2d_71">
      <g>
       <use style="stroke:#000000;stroke-width:0.6;" x="326.448287" xlink:href="#mce40051d68" y="120.940297"/>
      </g>
     </g>
    </g>
    <g id="ytick_48">
     <g id="line2d_72">
      <g>
       <use style="stroke:#000000;stroke-width:0.6;" x="326.448287" xlink:href="#mce40051d68" y="118.123555"/>
      </g>
     </g>
    </g>
    <g id="ytick_49">
     <g id="line2d_73">
      <g>
       <use style="stroke:#000000;stroke-width:0.6;" x="326.448287" xlink:href="#mce40051d68" y="115.683582"/>
      </g>
     </g>
    </g>
    <g id="ytick_50">
     <g id="line2d_74">
      <g>
       <use style="stroke:#000000;stroke-width:0.6;" x="326.448287" xlink:href="#mce40051d68" y="113.531373"/>
      </g>
     </g>
    </g>
    <g id="ytick_51">
     <g id="line2d_75">
      <g>
       <use style="stroke:#000000;stroke-width:0.6;" x="326.448287" xlink:href="#mce40051d68" y="98.940518"/>
      </g>
     </g>
    </g>
    <g id="ytick_52">
     <g id="line2d_76">
      <g>
       <use style="stroke:#000000;stroke-width:0.6;" x="326.448287" xlink:href="#mce40051d68" y="91.531594"/>
      </g>
     </g>
    </g>
    <g id="ytick_53">
     <g id="line2d_77">
      <g>
       <use style="stroke:#000000;stroke-width:0.6;" x="326.448287" xlink:href="#mce40051d68" y="86.274879"/>
      </g>
     </g>
    </g>
    <g id="ytick_54">
     <g id="line2d_78">
      <g>
       <use style="stroke:#000000;stroke-width:0.6;" x="326.448287" xlink:href="#mce40051d68" y="82.197454"/>
      </g>
     </g>
    </g>
    <g id="ytick_55">
     <g id="line2d_79">
      <g>
       <use style="stroke:#000000;stroke-width:0.6;" x="326.448287" xlink:href="#mce40051d68" y="78.865955"/>
      </g>
     </g>
    </g>
    <g id="ytick_56">
     <g id="line2d_80">
      <g>
       <use style="stroke:#000000;stroke-width:0.6;" x="326.448287" xlink:href="#mce40051d68" y="76.049213"/>
      </g>
     </g>
    </g>
    <g id="ytick_57">
     <g id="line2d_81">
      <g>
       <use style="stroke:#000000;stroke-width:0.6;" x="326.448287" xlink:href="#mce40051d68" y="73.60924"/>
      </g>
     </g>
    </g>
    <g id="ytick_58">
     <g id="line2d_82">
      <g>
       <use style="stroke:#000000;stroke-width:0.6;" x="326.448287" xlink:href="#mce40051d68" y="71.457031"/>
      </g>
     </g>
    </g>
    <g id="ytick_59">
     <g id="line2d_83">
      <g>
       <use style="stroke:#000000;stroke-width:0.6;" x="326.448287" xlink:href="#mce40051d68" y="56.866176"/>
      </g>
     </g>
    </g>
    <g id="text_30">
     <!-- Frequency -->
     <g transform="translate(295.768599 198.805937)rotate(-90)scale(0.1 -0.1)">
      <defs>
       <path d="M 9.8125 72.90625 
L 51.703125 72.90625 
L 51.703125 64.59375 
L 19.671875 64.59375 
L 19.671875 43.109375 
L 48.578125 43.109375 
L 48.578125 34.8125 
L 19.671875 34.8125 
L 19.671875 0 
L 9.8125 0 
z
" id="DejaVuSans-70"/>
       <path d="M 14.796875 27.296875 
Q 14.796875 17.390625 18.875 11.75 
Q 22.953125 6.109375 30.078125 6.109375 
Q 37.203125 6.109375 41.296875 11.75 
Q 45.40625 17.390625 45.40625 27.296875 
Q 45.40625 37.203125 41.296875 42.84375 
Q 37.203125 48.484375 30.078125 48.484375 
Q 22.953125 48.484375 18.875 42.84375 
Q 14.796875 37.203125 14.796875 27.296875 
z
M 45.40625 8.203125 
Q 42.578125 3.328125 38.25 0.953125 
Q 33.9375 -1.421875 27.875 -1.421875 
Q 17.96875 -1.421875 11.734375 6.484375 
Q 5.515625 14.40625 5.515625 27.296875 
Q 5.515625 40.1875 11.734375 48.09375 
Q 17.96875 56 27.875 56 
Q 33.9375 56 38.25 53.625 
Q 42.578125 51.265625 45.40625 46.390625 
L 45.40625 54.6875 
L 54.390625 54.6875 
L 54.390625 -20.796875 
L 45.40625 -20.796875 
z
" id="DejaVuSans-113"/>
       <path d="M 48.78125 52.59375 
L 48.78125 44.1875 
Q 44.96875 46.296875 41.140625 47.34375 
Q 37.3125 48.390625 33.40625 48.390625 
Q 24.65625 48.390625 19.8125 42.84375 
Q 14.984375 37.3125 14.984375 27.296875 
Q 14.984375 17.28125 19.8125 11.734375 
Q 24.65625 6.203125 33.40625 6.203125 
Q 37.3125 6.203125 41.140625 7.25 
Q 44.96875 8.296875 48.78125 10.40625 
L 48.78125 2.09375 
Q 45.015625 0.34375 40.984375 -0.53125 
Q 36.96875 -1.421875 32.421875 -1.421875 
Q 20.0625 -1.421875 12.78125 6.34375 
Q 5.515625 14.109375 5.515625 27.296875 
Q 5.515625 40.671875 12.859375 48.328125 
Q 20.21875 56 33.015625 56 
Q 37.15625 56 41.109375 55.140625 
Q 45.0625 54.296875 48.78125 52.59375 
z
" id="DejaVuSans-99"/>
       <path d="M 32.171875 -5.078125 
Q 28.375 -14.84375 24.75 -17.8125 
Q 21.140625 -20.796875 15.09375 -20.796875 
L 7.90625 -20.796875 
L 7.90625 -13.28125 
L 13.1875 -13.28125 
Q 16.890625 -13.28125 18.9375 -11.515625 
Q 21 -9.765625 23.484375 -3.21875 
L 25.09375 0.875 
L 2.984375 54.6875 
L 12.5 54.6875 
L 29.59375 11.921875 
L 46.6875 54.6875 
L 56.203125 54.6875 
z
" id="DejaVuSans-121"/>
      </defs>
      <use xlink:href="#DejaVuSans-70"/>
      <use x="50.269531" xlink:href="#DejaVuSans-114"/>
      <use x="89.132812" xlink:href="#DejaVuSans-101"/>
      <use x="150.65625" xlink:href="#DejaVuSans-113"/>
      <use x="214.132812" xlink:href="#DejaVuSans-117"/>
      <use x="277.511719" xlink:href="#DejaVuSans-101"/>
      <use x="339.035156" xlink:href="#DejaVuSans-110"/>
      <use x="402.414062" xlink:href="#DejaVuSans-99"/>
      <use x="457.394531" xlink:href="#DejaVuSans-121"/>
     </g>
    </g>
   </g>
   <g id="patch_8">
    <path clip-path="url(#p186280a2e4)" d="M 337.017803 329.1525 
L 337.017803 66.995798 
L 350.827552 66.995798 
L 350.827552 163.919874 
L 364.637302 163.919874 
L 364.637302 185.116215 
L 378.447051 185.116215 
L 378.447051 200.062112 
L 392.256801 200.062112 
L 392.256801 221.832044 
L 406.06655 221.832044 
L 406.06655 229.240967 
L 419.8763 229.240967 
L 419.8763 250.49482 
L 433.686049 250.49482 
L 433.686049 259.82896 
L 447.495799 259.82896 
L 447.495799 267.237884 
L 461.305548 267.237884 
L 461.305548 279.903523 
L 475.115298 279.903523 
L 475.115298 329.1525 
" style="fill:none;stroke:#1f77b4;stroke-linejoin:miter;"/>
   </g>
   <g id="patch_9">
    <path clip-path="url(#p186280a2e4)" d="M 337.017803 329.1525 
L 337.017803 66.365361 
L 358.156835 66.365361 
L 358.156835 171.798807 
L 379.295867 171.798807 
L 379.295867 203.626387 
L 400.434899 203.626387 
L 400.434899 226.100807 
L 421.573931 226.100807 
L 421.573931 236.087611 
L 442.712963 236.087611 
L 442.712963 259.82896 
L 463.851995 259.82896 
L 463.851995 329.1525 
M 484.991027 329.1525 
L 484.991027 279.903523 
L 506.130059 279.903523 
L 506.130059 329.1525 
M 527.269091 329.1525 
L 527.269091 259.82896 
L 548.408123 259.82896 
L 548.408123 329.1525 
" style="fill:none;stroke:#ff7f0e;stroke-linejoin:miter;"/>
   </g>
   <g id="patch_10">
    <path clip-path="url(#p186280a2e4)" d="M 337.017803 329.1525 
L 337.017803 66.048977 
L 345.679944 66.048977 
L 345.679944 158.791614 
L 354.342086 158.791614 
L 354.342086 190.271132 
L 363.004227 190.271132 
L 363.004227 219.679835 
L 371.666368 219.679835 
L 371.666368 247.163321 
L 380.32851 247.163321 
L 380.32851 279.903523 
L 388.990651 279.903523 
L 388.990651 329.1525 
M 414.977076 329.1525 
L 414.977076 279.903523 
L 423.639217 279.903523 
L 423.639217 329.1525 
" style="fill:none;stroke:#2ca02c;stroke-linejoin:miter;"/>
   </g>
   <g id="patch_11">
    <path clip-path="url(#p186280a2e4)" d="M 337.017803 329.1525 
L 337.017803 66.078449 
L 346.070248 66.078449 
L 346.070248 162.094131 
L 355.122693 162.094131 
L 355.122693 202.801917 
L 364.175138 202.801917 
L 364.175138 241.906606 
L 373.227584 241.906606 
L 373.227584 259.82896 
L 382.280029 259.82896 
L 382.280029 329.1525 
M 391.332474 329.1525 
L 391.332474 279.903523 
L 400.38492 279.903523 
L 400.38492 329.1525 
M 418.48981 329.1525 
L 418.48981 279.903523 
L 427.542255 279.903523 
L 427.542255 329.1525 
" style="fill:none;stroke:#d62728;stroke-linejoin:miter;"/>
   </g>
   <g id="patch_12">
    <path d="M 326.448287 290.59625 
L 326.448287 55.35625 
" style="fill:none;stroke:#000000;stroke-linecap:square;stroke-linejoin:miter;stroke-width:0.8;"/>
   </g>
   <g id="patch_13">
    <path d="M 558.977639 290.59625 
L 558.977639 55.35625 
" style="fill:none;stroke:#000000;stroke-linecap:square;stroke-linejoin:miter;stroke-width:0.8;"/>
   </g>
   <g id="patch_14">
    <path d="M 326.448287 290.59625 
L 558.977639 290.59625 
" style="fill:none;stroke:#000000;stroke-linecap:square;stroke-linejoin:miter;stroke-width:0.8;"/>
   </g>
   <g id="patch_15">
    <path d="M 326.448287 55.35625 
L 558.977639 55.35625 
" style="fill:none;stroke:#000000;stroke-linecap:square;stroke-linejoin:miter;stroke-width:0.8;"/>
   </g>
  </g>
  <g id="legend_1">
   <g id="patch_16">
    <path d="M 118.131562 39.55625 
L 449.990937 39.55625 
Q 451.990937 39.55625 451.990937 37.55625 
L 451.990937 9.2 
Q 451.990937 7.2 449.990937 7.2 
L 118.131562 7.2 
Q 116.131562 7.2 116.131562 9.2 
L 116.131562 37.55625 
Q 116.131562 39.55625 118.131562 39.55625 
z
" style="fill:#ffffff;opacity:0.8;stroke:#cccccc;stroke-linejoin:miter;"/>
   </g>
   <g id="line2d_84">
    <path d="M 120.131562 15.298437 
L 140.131562 15.298437 
" style="fill:none;stroke:#1f77b4;stroke-linecap:square;stroke-width:1.5;"/>
   </g>
   <g id="line2d_85"/>
   <g id="text_31">
    <!-- Fixed Ref -->
    <g transform="translate(148.131562 18.798437)scale(0.1 -0.1)">
     <defs>
      <path d="M 54.890625 54.6875 
L 35.109375 28.078125 
L 55.90625 0 
L 45.3125 0 
L 29.390625 21.484375 
L 13.484375 0 
L 2.875 0 
L 24.125 28.609375 
L 4.6875 54.6875 
L 15.28125 54.6875 
L 29.78125 35.203125 
L 44.28125 54.6875 
z
" id="DejaVuSans-120"/>
      <path d="M 44.390625 34.1875 
Q 47.5625 33.109375 50.5625 29.59375 
Q 53.5625 26.078125 56.59375 19.921875 
L 66.609375 0 
L 56 0 
L 46.6875 18.703125 
Q 43.0625 26.03125 39.671875 28.421875 
Q 36.28125 30.8125 30.421875 30.8125 
L 19.671875 30.8125 
L 19.671875 0 
L 9.8125 0 
L 9.8125 72.90625 
L 32.078125 72.90625 
Q 44.578125 72.90625 50.734375 67.671875 
Q 56.890625 62.453125 56.890625 51.90625 
Q 56.890625 45.015625 53.6875 40.46875 
Q 50.484375 35.9375 44.390625 34.1875 
z
M 19.671875 64.796875 
L 19.671875 38.921875 
L 32.078125 38.921875 
Q 39.203125 38.921875 42.84375 42.21875 
Q 46.484375 45.515625 46.484375 51.90625 
Q 46.484375 58.296875 42.84375 61.546875 
Q 39.203125 64.796875 32.078125 64.796875 
z
" id="DejaVuSans-82"/>
     </defs>
     <use xlink:href="#DejaVuSans-70"/>
     <use x="50.269531" xlink:href="#DejaVuSans-105"/>
     <use x="78.052734" xlink:href="#DejaVuSans-120"/>
     <use x="134.107422" xlink:href="#DejaVuSans-101"/>
     <use x="195.630859" xlink:href="#DejaVuSans-100"/>
     <use x="259.107422" xlink:href="#DejaVuSans-32"/>
     <use x="290.894531" xlink:href="#DejaVuSans-82"/>
     <use x="355.876953" xlink:href="#DejaVuSans-101"/>
     <use x="417.400391" xlink:href="#DejaVuSans-102"/>
    </g>
   </g>
   <g id="line2d_86">
    <path d="M 120.131562 29.976562 
L 140.131562 29.976562 
" style="fill:none;stroke:#ff7f0e;stroke-linecap:square;stroke-width:1.5;"/>
   </g>
   <g id="line2d_87"/>
   <g id="text_32">
    <!-- 2nd ord. DMP -->
    <g transform="translate(148.131562 33.476562)scale(0.1 -0.1)">
     <defs>
      <path d="M 19.671875 64.796875 
L 19.671875 8.109375 
L 31.59375 8.109375 
Q 46.6875 8.109375 53.6875 14.9375 
Q 60.6875 21.78125 60.6875 36.53125 
Q 60.6875 51.171875 53.6875 57.984375 
Q 46.6875 64.796875 31.59375 64.796875 
z
M 9.8125 72.90625 
L 30.078125 72.90625 
Q 51.265625 72.90625 61.171875 64.09375 
Q 71.09375 55.28125 71.09375 36.53125 
Q 71.09375 17.671875 61.125 8.828125 
Q 51.171875 0 30.078125 0 
L 9.8125 0 
z
" id="DejaVuSans-68"/>
      <path d="M 19.671875 64.796875 
L 19.671875 37.40625 
L 32.078125 37.40625 
Q 38.96875 37.40625 42.71875 40.96875 
Q 46.484375 44.53125 46.484375 51.125 
Q 46.484375 57.671875 42.71875 61.234375 
Q 38.96875 64.796875 32.078125 64.796875 
z
M 9.8125 72.90625 
L 32.078125 72.90625 
Q 44.34375 72.90625 50.609375 67.359375 
Q 56.890625 61.8125 56.890625 51.125 
Q 56.890625 40.328125 50.609375 34.8125 
Q 44.34375 29.296875 32.078125 29.296875 
L 19.671875 29.296875 
L 19.671875 0 
L 9.8125 0 
z
" id="DejaVuSans-80"/>
     </defs>
     <use xlink:href="#DejaVuSans-50"/>
     <use x="63.623047" xlink:href="#DejaVuSans-110"/>
     <use x="127.001953" xlink:href="#DejaVuSans-100"/>
     <use x="190.478516" xlink:href="#DejaVuSans-32"/>
     <use x="222.265625" xlink:href="#DejaVuSans-111"/>
     <use x="283.447266" xlink:href="#DejaVuSans-114"/>
     <use x="322.810547" xlink:href="#DejaVuSans-100"/>
     <use x="386.287109" xlink:href="#DejaVuSans-46"/>
     <use x="418.074219" xlink:href="#DejaVuSans-32"/>
     <use x="449.861328" xlink:href="#DejaVuSans-68"/>
     <use x="526.863281" xlink:href="#DejaVuSans-77"/>
     <use x="613.142578" xlink:href="#DejaVuSans-80"/>
    </g>
   </g>
   <g id="line2d_88">
    <path d="M 235.475312 15.298437 
L 255.475312 15.298437 
" style="fill:none;stroke:#2ca02c;stroke-linecap:square;stroke-width:1.5;"/>
   </g>
   <g id="line2d_89"/>
   <g id="text_33">
    <!-- 3rd ord. DMP -->
    <g transform="translate(263.475312 18.798437)scale(0.1 -0.1)">
     <use xlink:href="#DejaVuSans-51"/>
     <use x="63.623047" xlink:href="#DejaVuSans-114"/>
     <use x="102.986328" xlink:href="#DejaVuSans-100"/>
     <use x="166.462891" xlink:href="#DejaVuSans-32"/>
     <use x="198.25" xlink:href="#DejaVuSans-111"/>
     <use x="259.431641" xlink:href="#DejaVuSans-114"/>
     <use x="298.794922" xlink:href="#DejaVuSans-100"/>
     <use x="362.271484" xlink:href="#DejaVuSans-46"/>
     <use x="394.058594" xlink:href="#DejaVuSans-32"/>
     <use x="425.845703" xlink:href="#DejaVuSans-68"/>
     <use x="502.847656" xlink:href="#DejaVuSans-77"/>
     <use x="589.126953" xlink:href="#DejaVuSans-80"/>
    </g>
   </g>
   <g id="line2d_90">
    <path d="M 348.4175 15.298437 
L 368.4175 15.298437 
" style="fill:none;stroke:#d62728;stroke-linecap:square;stroke-width:1.5;"/>
   </g>
   <g id="line2d_91"/>
   <g id="text_34">
    <!-- Proposed DMP -->
    <g transform="translate(376.4175 18.798437)scale(0.1 -0.1)">
     <defs>
      <path d="M 18.109375 8.203125 
L 18.109375 -20.796875 
L 9.078125 -20.796875 
L 9.078125 54.6875 
L 18.109375 54.6875 
L 18.109375 46.390625 
Q 20.953125 51.265625 25.265625 53.625 
Q 29.59375 56 35.59375 56 
Q 45.5625 56 51.78125 48.09375 
Q 58.015625 40.1875 58.015625 27.296875 
Q 58.015625 14.40625 51.78125 6.484375 
Q 45.5625 -1.421875 35.59375 -1.421875 
Q 29.59375 -1.421875 25.265625 0.953125 
Q 20.953125 3.328125 18.109375 8.203125 
z
M 48.6875 27.296875 
Q 48.6875 37.203125 44.609375 42.84375 
Q 40.53125 48.484375 33.40625 48.484375 
Q 26.265625 48.484375 22.1875 42.84375 
Q 18.109375 37.203125 18.109375 27.296875 
Q 18.109375 17.390625 22.1875 11.75 
Q 26.265625 6.109375 33.40625 6.109375 
Q 40.53125 6.109375 44.609375 11.75 
Q 48.6875 17.390625 48.6875 27.296875 
z
" id="DejaVuSans-112"/>
     </defs>
     <use xlink:href="#DejaVuSans-80"/>
     <use x="58.552734" xlink:href="#DejaVuSans-114"/>
     <use x="97.416016" xlink:href="#DejaVuSans-111"/>
     <use x="158.597656" xlink:href="#DejaVuSans-112"/>
     <use x="222.074219" xlink:href="#DejaVuSans-111"/>
     <use x="283.255859" xlink:href="#DejaVuSans-115"/>
     <use x="335.355469" xlink:href="#DejaVuSans-101"/>
     <use x="396.878906" xlink:href="#DejaVuSans-100"/>
     <use x="460.355469" xlink:href="#DejaVuSans-32"/>
     <use x="492.142578" xlink:href="#DejaVuSans-68"/>
     <use x="569.144531" xlink:href="#DejaVuSans-77"/>
     <use x="655.423828" xlink:href="#DejaVuSans-80"/>
    </g>
   </g>
  </g>
 </g>
 <defs>
  <clipPath id="p26cd23daae">
   <rect height="235.24" width="232.529352" x="43.78125" y="55.35625"/>
  </clipPath>
  <clipPath id="p186280a2e4">
   <rect height="235.24" width="232.529352" x="326.448287" y="55.35625"/>
  </clipPath>
 </defs>
</svg>
