<?xml version="1.0" encoding="utf-8" standalone="no"?>
<!DOCTYPE svg PUBLIC "-//W3C//DTD SVG 1.1//EN"
  "http://www.w3.org/Graphics/SVG/1.1/DTD/svg11.dtd">
<!-- Created with matplotlib (https://matplotlib.org/) -->
<svg height="216pt" version="1.1" viewBox="0 0 432 216" width="432pt" xmlns="http://www.w3.org/2000/svg" xmlns:xlink="http://www.w3.org/1999/xlink">
 <metadata>
  <rdf:RDF xmlns:cc="http://creativecommons.org/ns#" xmlns:dc="http://purl.org/dc/elements/1.1/" xmlns:rdf="http://www.w3.org/1999/02/22-rdf-syntax-ns#">
   <cc:Work>
    <dc:type rdf:resource="http://purl.org/dc/dcmitype/StillImage"/>
    <dc:date>2022-09-14T01:01:20.891855</dc:date>
    <dc:format>image/svg+xml</dc:format>
    <dc:creator>
     <cc:Agent>
      <dc:title>Matplotlib v3.3.0, https://matplotlib.org/</dc:title>
     </cc:Agent>
    </dc:creator>
   </cc:Work>
  </rdf:RDF>
 </metadata>
 <defs>
  <style type="text/css">*{stroke-linecap:butt;stroke-linejoin:round;}</style>
 </defs>
 <g id="figure_1">
  <g id="patch_1">
   <path d="M 0 216 
L 432 216 
L 432 0 
L 0 0 
z
" style="fill:#ffffff;"/>
  </g>
  <g id="axes_1">
   <g id="matplotlib.axis_1"/>
   <g id="matplotlib.axis_2"/>
   <g id="line2d_1">
    <path clip-path="url(#pdfdd32ecc5)" d="M 29.88673 171.555507 
L 32.360325 171.682476 
L 34.845783 171.870467 
L 37.337021 172.09783 
L 39.839819 172.385352 
L 42.3399 172.726912 
L 44.849506 173.096426 
L 47.372182 173.482419 
L 49.907706 173.863713 
L 52.453324 174.228786 
L 55.014619 174.581011 
L 57.592023 174.920007 
L 60.18464 175.243415 
L 62.790672 175.55353 
L 65.411408 175.849091 
L 68.045484 176.12747 
L 70.693194 176.382095 
L 73.353089 176.61016 
L 76.026937 176.818904 
L 78.713764 177.01052 
L 81.413726 177.181875 
L 84.124791 177.318075 
L 86.804356 177.410823 
L 89.404168 177.485671 
L 91.912365 177.502886 
L 94.336513 177.459758 
L 96.723284 177.391144 
L 99.03114 177.279924 
L 101.304159 177.152981 
L 103.50114 176.98663 
L 105.719576 176.801158 
L 107.920235 176.551124 
L 110.115629 176.248782 
L 112.286847 175.906018 
L 114.464043 175.556841 
L 116.519638 175.197891 
L 118.502211 174.824246 
L 120.443459 174.420198 
L 122.301206 173.989133 
L 124.119439 173.53551 
L 125.886326 173.089664 
L 127.597444 172.634792 
L 129.248042 172.162162 
L 130.894516 171.660382 
L 132.536036 171.123705 
L 134.138427 170.569853 
L 135.727706 169.982042 
L 137.295598 169.363359 
L 138.818276 168.746208 
L 140.321265 168.115502 
L 141.818878 167.441878 
L 143.290273 166.757837 
L 144.742168 166.05024 
L 146.17802 165.319531 
L 147.58921 164.57851 
L 148.97498 163.818834 
L 150.337814 163.030763 
L 151.483776 162.207975 
L 152.63849 161.384273 
L 153.790901 160.53321 
L 154.919199 159.655612 
L 155.795769 158.734552 
L 156.714919 157.812052 
L 157.654377 156.869204 
L 158.576454 155.912618 
L 159.456098 154.976908 
L 160.24572 154.049511 
L 161.007023 153.078545 
L 161.761845 152.06022 
L 162.536574 151.032772 
L 163.298034 149.999372 
L 164.021216 148.947684 
L 164.701035 147.863081 
L 165.389764 146.780596 
L 166.059005 145.673988 
L 166.738492 144.567768 
L 167.402977 143.439378 
L 168.038656 142.30915 
L 168.629324 141.158185 
L 169.215584 139.991958 
L 169.786693 138.818751 
L 170.326246 137.6518 
L 170.811415 136.497219 
L 171.280183 135.317269 
L 171.720417 134.144843 
L 172.140179 133.001914 
L 172.525608 131.865633 
L 172.863877 130.722339 
L 173.200401 129.612581 
L 173.510078 128.525363 
L 173.769039 127.444127 
L 174.028745 126.391899 
L 174.261298 125.374125 
L 174.461713 124.392266 
L 174.645074 123.447342 
L 174.804827 122.551344 
L 174.953416 121.693888 
L 175.087291 120.883985 
L 175.21485 120.123953 
L 175.344013 119.411908 
L 175.509288 118.757915 
L 175.682008 118.134925 
L 175.81303 117.53958 
L 175.958711 116.999637 
L 176.098428 116.503589 
L 176.209948 116.044715 
L 176.340914 115.63248 
L 176.511597 115.278039 
L 176.701001 114.983001 
L 176.887211 114.743291 
L 177.066694 114.544348 
L 177.230931 114.382148 
L 177.380968 114.260336 
L 177.516218 114.184338 
L 177.605999 114.111762 
" style="fill:none;stroke:#1f77b4;stroke-dasharray:9.6,2.4,1.5,2.4;stroke-dashoffset:0;stroke-opacity:0.9;stroke-width:1.5;"/>
   </g>
   <g id="line2d_2">
    <defs>
     <path d="M 0 3 
C 0.795609 3 1.55874 2.683901 2.12132 2.12132 
C 2.683901 1.55874 3 0.795609 3 0 
C 3 -0.795609 2.683901 -1.55874 2.12132 -2.12132 
C 1.55874 -2.683901 0.795609 -3 0 -3 
C -0.795609 -3 -1.55874 -2.683901 -2.12132 -2.12132 
C -2.683901 -1.55874 -3 -0.795609 -3 0 
C -3 0.795609 -2.683901 1.55874 -2.12132 2.12132 
C -1.55874 2.683901 -0.795609 3 0 3 
z
" id="m0fc0ef2835" style="stroke:#1f77b4;stroke-opacity:0.7;"/>
    </defs>
    <g clip-path="url(#pdfdd32ecc5)">
     <use style="fill:#1f77b4;fill-opacity:0.7;stroke:#1f77b4;stroke-opacity:0.7;" x="177.605999" xlink:href="#m0fc0ef2835" y="114.111762"/>
    </g>
   </g>
   <g id="line2d_3">
    <path clip-path="url(#pdfdd32ecc5)" d="M 29.88673 171.555507 
L 34.765863 171.769146 
L 39.520543 172.273216 
L 44.290258 173.060466 
L 52.717848 174.5445 
L 57.586451 175.08887 
L 60.033724 175.258587 
L 67.038586 175.474763 
L 71.980768 175.324599 
L 81.95633 174.556901 
L 86.933598 173.917687 
L 96.987851 172.297062 
L 101.942656 171.184938 
L 106.913513 169.923238 
L 111.851145 168.450353 
L 116.70976 166.727387 
L 125.152104 163.32732 
L 130.987774 160.859242 
L 133.22904 159.828197 
L 139.321728 156.43072 
L 143.005768 153.867087 
L 147.353985 150.892038 
L 152.603315 147.929477 
L 156.216166 145.939112 
L 160.212665 143.296264 
L 166.648824 138.474935 
L 170.471991 135.476198 
L 174.903953 131.700241 
L 176.356373 130.436778 
L 182.369889 118.392928 
L 184.517876 113.571021 
L 186.806538 107.494842 
L 189.153439 99.705616 
L 189.937994 97.010481 
L 191.363345 93.255521 
L 193.322775 89.504355 
L 195.4953 85.685486 
L 197.034653 83.479548 
L 198.782222 81.42443 
L 200.792889 79.497501 
L 204.108592 76.731159 
L 206.492476 74.9843 
L 209.869544 72.897122 
L 215.908198 69.743195 
L 218.376095 68.320962 
L 222.717123 66.056883 
L 226.694284 63.799327 
L 235.39288 59.629867 
L 238.355002 58.382011 
L 242.072174 57.24601 
L 251.675365 54.822463 
L 251.675365 54.822463 
" style="fill:none;stroke:#ff7f0e;stroke-dasharray:1.5,2.475;stroke-dashoffset:0;stroke-opacity:0.9;stroke-width:1.5;"/>
   </g>
   <g id="line2d_4">
    <defs>
     <path d="M 0 3 
C 0.795609 3 1.55874 2.683901 2.12132 2.12132 
C 2.683901 1.55874 3 0.795609 3 0 
C 3 -0.795609 2.683901 -1.55874 2.12132 -2.12132 
C 1.55874 -2.683901 0.795609 -3 0 -3 
C -0.795609 -3 -1.55874 -2.683901 -2.12132 -2.12132 
C -2.683901 -1.55874 -3 -0.795609 -3 0 
C -3 0.795609 -2.683901 1.55874 -2.12132 2.12132 
C -1.55874 2.683901 -0.795609 3 0 3 
z
" id="md7b73e93e8" style="stroke:#ff7f0e;stroke-opacity:0.7;"/>
    </defs>
    <g clip-path="url(#pdfdd32ecc5)">
     <use style="fill:#ff7f0e;fill-opacity:0.7;stroke:#ff7f0e;stroke-opacity:0.7;" x="251.675365" xlink:href="#md7b73e93e8" y="54.822463"/>
    </g>
   </g>
   <g id="line2d_5">
    <path clip-path="url(#pdfdd32ecc5)" d="M 29.88673 171.555507 
L 34.762098 171.768798 
L 39.33645 172.259762 
L 50.342039 174.373257 
L 56.892802 175.037018 
L 61.579667 175.178695 
L 73.465536 174.928086 
L 78.251672 174.626908 
L 87.943079 173.710384 
L 92.775176 172.992297 
L 97.618914 172.094491 
L 104.130112 170.711093 
L 108.995824 169.45333 
L 115.818079 167.273466 
L 120.588206 165.463855 
L 125.302154 163.442774 
L 129.901306 161.166539 
L 134.382224 158.657733 
L 138.781488 155.971852 
L 143.394625 152.813056 
L 147.31768 149.795875 
L 150.810917 146.736719 
L 154.117904 143.410752 
L 157.305247 139.921298 
L 160.308015 136.274977 
L 161.728087 134.380085 
L 165.306048 129.109175 
L 167.916058 125.041204 
L 172.19492 119.191485 
L 175.060724 115.28014 
L 183.284704 103.043824 
L 187.86835 97.075332 
L 191.065358 93.116101 
L 194.46767 89.318166 
L 199.920168 83.883417 
L 203.70997 80.376423 
L 209.590875 75.330721 
L 213.57326 72.092986 
L 217.681504 68.999424 
L 219.811632 67.545741 
L 225.704096 63.979271 
L 230.678326 61.407371 
L 235.422043 59.281114 
L 240.286184 57.35911 
L 245.236102 55.676763 
L 250.284282 54.186486 
L 263.18121 50.823259 
L 271.052386 49.298357 
L 276.371529 48.328423 
L 293.438063 45.727827 
L 304.435535 44.308376 
L 336.878257 40.357318 
L 351.432261 38.973807 
L 354.362135 38.796608 
L 354.362135 38.796608 
" style="fill:none;stroke:#2ca02c;stroke-dasharray:5.55,2.4;stroke-dashoffset:0;stroke-opacity:0.9;stroke-width:1.5;"/>
   </g>
   <g id="line2d_6">
    <defs>
     <path d="M 0 3 
C 0.795609 3 1.55874 2.683901 2.12132 2.12132 
C 2.683901 1.55874 3 0.795609 3 0 
C 3 -0.795609 2.683901 -1.55874 2.12132 -2.12132 
C 1.55874 -2.683901 0.795609 -3 0 -3 
C -0.795609 -3 -1.55874 -2.683901 -2.12132 -2.12132 
C -2.683901 -1.55874 -3 -0.795609 -3 0 
C -3 0.795609 -2.683901 1.55874 -2.12132 2.12132 
C -1.55874 2.683901 -0.795609 3 0 3 
z
" id="m3846489073" style="stroke:#2ca02c;stroke-opacity:0.7;"/>
    </defs>
    <g clip-path="url(#pdfdd32ecc5)">
     <use style="fill:#2ca02c;fill-opacity:0.7;stroke:#2ca02c;stroke-opacity:0.7;" x="354.362135" xlink:href="#m3846489073" y="38.796608"/>
    </g>
   </g>
   <g id="line2d_7">
    <path clip-path="url(#pdfdd32ecc5)" d="M 29.88673 171.555507 
L 34.762098 171.768798 
L 39.336386 172.259728 
L 48.498646 173.805772 
L 55.480954 174.427441 
L 60.2177 174.775286 
L 64.971161 174.928436 
L 74.630529 174.856172 
L 80.719664 174.492667 
L 90.547848 173.526895 
L 97.063159 172.4629 
L 101.947561 171.435136 
L 106.840225 170.242634 
L 111.729993 168.856672 
L 116.574591 167.261123 
L 121.376335 165.422011 
L 123.753899 164.411739 
L 129.54572 161.600304 
L 134.053896 159.072452 
L 138.418015 156.288921 
L 142.931693 152.988082 
L 155.252513 143.36863 
L 158.881998 139.989571 
L 162.118622 136.485548 
L 165.07272 132.816873 
L 172.543771 122.430169 
L 175.049829 118.324188 
L 177.35969 114.03581 
L 181.655256 105.602854 
L 184.152598 101.339408 
L 186.90962 97.178766 
L 189.891681 93.130738 
L 193.129157 89.248874 
L 196.607218 85.519481 
L 200.312809 81.974982 
L 204.241049 78.639609 
L 208.36004 75.50151 
L 214.530849 71.120051 
L 218.835622 68.305562 
L 223.291061 65.755139 
L 230.612346 62.021925 
L 235.34533 59.775233 
L 240.170164 57.788062 
L 245.138645 56.093712 
L 252.756969 53.735509 
L 257.934371 52.265428 
L 264.922195 50.77932 
L 267.563173 50.27243 
L 275.401565 48.398134 
L 280.644791 47.135953 
L 285.86521 46.087179 
L 291.15694 45.300727 
L 299.185291 44.392797 
L 314.51786 42.842965 
L 333.968753 40.602316 
L 357.43783 38.373674 
L 363.189056 38.128099 
L 363.189056 38.128099 
" style="fill:none;stroke:#d62728;stroke-linecap:square;stroke-opacity:0.7;stroke-width:1.5;"/>
   </g>
   <g id="line2d_8">
    <defs>
     <path d="M 0 3 
C 0.795609 3 1.55874 2.683901 2.12132 2.12132 
C 2.683901 1.55874 3 0.795609 3 0 
C 3 -0.795609 2.683901 -1.55874 2.12132 -2.12132 
C 1.55874 -2.683901 0.795609 -3 0 -3 
C -0.795609 -3 -1.55874 -2.683901 -2.12132 -2.12132 
C -2.683901 -1.55874 -3 -0.795609 -3 0 
C -3 0.795609 -2.683901 1.55874 -2.12132 2.12132 
C -1.55874 2.683901 -0.795609 3 0 3 
z
" id="m40776a414b" style="stroke:#d62728;stroke-opacity:0.7;"/>
    </defs>
    <g clip-path="url(#pdfdd32ecc5)">
     <use style="fill:#d62728;fill-opacity:0.7;stroke:#d62728;stroke-opacity:0.7;" x="363.189056" xlink:href="#m40776a414b" y="38.128099"/>
    </g>
   </g>
   <g id="line2d_9">
    <defs>
     <path d="M 0 -3 
L -0.673542 -0.927051 
L -2.85317 -0.927051 
L -1.089814 0.354102 
L -1.763356 2.427051 
L -0 1.145898 
L 1.763356 2.427051 
L 1.089814 0.354102 
L 2.85317 -0.927051 
L 0.673542 -0.927051 
z
" id="me4496d5b09" style="stroke:#000000;stroke-linejoin:bevel;"/>
    </defs>
    <g clip-path="url(#pdfdd32ecc5)">
     <use style="stroke:#000000;stroke-linejoin:bevel;" x="29.88673" xlink:href="#me4496d5b09" y="171.555507"/>
    </g>
   </g>
   <g id="line2d_10">
    <path clip-path="url(#pdfdd32ecc5)" d="M 29.5934 176.00399 
L 38.910347 176.28619 
L 49.279904 176.362805 
L 59.404862 176.210164 
L 67.896153 175.884677 
L 76.032829 175.349181 
L 84.249762 174.592964 
L 90.649956 173.801799 
L 96.599269 172.843516 
L 102.544639 171.651913 
L 107.557335 170.432473 
L 112.529117 168.974598 
L 117.001354 167.435657 
L 121.86759 165.530811 
L 126.219689 163.578239 
L 130.043909 161.606227 
L 133.777322 159.444326 
L 137.806506 156.83009 
L 141.303756 154.271845 
L 144.680531 151.542057 
L 147.561052 148.964342 
L 152.066786 144.568216 
L 156.07675 140.331705 
L 159.617232 136.281611 
L 163.022219 132.085854 
L 166.270657 127.73442 
L 169.95192 122.431571 
L 175.437306 114.04861 
L 182.130586 103.882193 
L 185.403649 99.30804 
L 188.563311 95.264321 
L 191.888661 91.332151 
L 195.388177 87.530107 
L 199.061082 83.871829 
L 202.913111 80.383546 
L 206.909465 77.049749 
L 211.063795 73.918426 
L 216.598043 70.010072 
L 220.5582 67.465063 
L 225.545525 64.560516 
L 230.194688 62.090628 
L 234.957214 59.811869 
L 239.821848 57.719304 
L 244.784558 55.825348 
L 249.833409 54.128011 
L 254.966633 52.655752 
L 260.17008 51.393207 
L 265.963905 50.235245 
L 273.952299 48.895509 
L 286.889346 47.005566 
L 303.840968 44.75343 
L 319.352822 42.662174 
L 330.519115 41.170281 
L 345.756922 39.513164 
L 355.404409 38.638696 
L 363.589326 38.099031 
L 368.809991 37.949517 
L 373.788845 38.033236 
L 378.575713 38.332652 
L 383.208435 38.869863 
L 387.258976 39.54738 
L 391.185667 40.429 
L 395.390607 41.601005 
L 399.003655 42.827207 
L 401.312476 43.746276 
L 401.312476 43.746276 
" style="fill:none;stroke:#000000;stroke-dasharray:5.55,2.4;stroke-dashoffset:0;stroke-opacity:0.25;stroke-width:1.5;"/>
   </g>
   <g id="line2d_11">
    <path clip-path="url(#pdfdd32ecc5)" d="M 29.454545 171.259194 
L 45.921146 170.532513 
L 107.438888 167.810602 
L 113.062076 167.112914 
L 117.105287 166.415685 
L 119.078525 165.932926 
L 122.940753 164.798682 
L 125.274239 163.954606 
L 128.039086 162.807231 
L 130.306901 161.717047 
L 133.880542 159.807352 
L 136.451008 158.164657 
L 140.184021 155.550096 
L 146.035377 150.860801 
L 147.879424 149.149724 
L 149.288575 147.698308 
L 151.618992 145.013579 
L 153.46997 142.594728 
L 156.940229 137.658671 
L 159.502008 133.755335 
L 164.275823 126.136162 
L 169.450807 117.499348 
L 176.303751 106.104792 
L 188.64199 87.028154 
L 189.152117 85.380332 
L 189.519073 84.300612 
L 190.043396 83.338272 
L 194.721815 76.711716 
L 196.491707 74.543427 
L 198.044152 72.796388 
L 200.197303 70.653413 
L 202.053917 69.05369 
L 204.031222 67.626136 
L 206.090807 66.394058 
L 208.648933 65.054598 
L 215.734327 62.26839 
L 219.853736 60.806343 
L 225.060472 59.113167 
L 230.322291 57.589237 
L 237.203842 55.799513 
L 243.559657 54.329065 
L 249.890522 53.044343 
L 258.334087 51.539217 
L 272.099458 49.327645 
L 289.003476 46.577339 
L 305.929989 43.815321 
L 315.521026 42.426864 
L 319.265816 41.99981 
L 333.176141 40.584781 
L 347.080292 39.330389 
L 360.990951 38.249929 
L 371.822076 37.585973 
L 387.272143 36.896972 
L 393.901681 36.729543 
L 397.177562 36.845389 
L 399.87819 37.065467 
L 402.545455 37.44373 
L 402.545455 37.44373 
" style="fill:none;stroke:#000000;stroke-linecap:square;stroke-opacity:0.25;"/>
   </g>
   <g id="line2d_12">
    <path clip-path="url(#pdfdd32ecc5)" d="M 29.825071 179.270457 
L 73.317391 177.459414 
L 102.303678 176.21208 
L 110.099378 175.580238 
L 113.974332 175.080044 
L 118.356167 174.334669 
L 120.50505 173.847912 
L 124.693147 172.633808 
L 127.748141 171.564431 
L 131.296455 170.126611 
L 133.81334 168.934917 
L 137.271268 167.068924 
L 139.670986 165.591311 
L 144.337159 162.434763 
L 149.610414 158.321773 
L 151.713164 156.514443 
L 154.915423 153.394699 
L 156.43087 151.730351 
L 159.59708 147.754017 
L 161.917533 144.57452 
L 165.624815 139.107476 
L 169.371379 133.202235 
L 175.179436 123.559923 
L 193.886828 92.181037 
L 198.485538 85.186866 
L 200.012709 83.077217 
L 202.771257 79.540942 
L 204.021118 78.14795 
L 205.66265 76.497863 
L 207.846806 74.69249 
L 210.227961 73.227354 
L 211.976587 72.38889 
L 215.783384 70.848466 
L 223.124288 68.172282 
L 227.603405 66.73412 
L 232.114929 65.400224 
L 239.179221 63.527543 
L 244.260324 62.34775 
L 253.567534 60.463146 
L 258.80114 59.551217 
L 272.446511 57.392328 
L 287.691137 54.956793 
L 310.248168 51.231327 
L 320.761952 49.866899 
L 331.840069 48.732812 
L 345.589777 47.491499 
L 367.833237 45.77883 
L 389.167379 44.861861 
L 394.881769 44.737125 
L 397.967969 44.900254 
L 400.995548 45.30703 
L 400.995548 45.30703 
" style="fill:none;stroke:#000000;stroke-linecap:square;stroke-opacity:0.25;"/>
   </g>
   <g id="line2d_13">
    <path clip-path="url(#pdfdd32ecc5)" d="M 401.689666 43.907445 
" style="fill:none;stroke:#000000;stroke-dasharray:5.55,2.4;stroke-dashoffset:0;stroke-opacity:0.25;stroke-width:1.5;"/>
    <defs>
     <path d="M 0 3 
C 0.795609 3 1.55874 2.683901 2.12132 2.12132 
C 2.683901 1.55874 3 0.795609 3 0 
C 3 -0.795609 2.683901 -1.55874 2.12132 -2.12132 
C 1.55874 -2.683901 0.795609 -3 0 -3 
C -0.795609 -3 -1.55874 -2.683901 -2.12132 -2.12132 
C -2.683901 -1.55874 -3 -0.795609 -3 0 
C -3 0.795609 -2.683901 1.55874 -2.12132 2.12132 
C -1.55874 2.683901 -0.795609 3 0 3 
z
" id="md3aef0e46c" style="stroke:#000000;stroke-opacity:0.25;"/>
    </defs>
    <g clip-path="url(#pdfdd32ecc5)">
     <use style="fill-opacity:0.25;stroke:#000000;stroke-opacity:0.25;" x="401.689666" xlink:href="#md3aef0e46c" y="43.907445"/>
    </g>
   </g>
   <g id="legend_1">
    <g id="patch_2">
     <path d="M 288.626562 123.546875 
L 414.2 123.546875 
Q 416.2 123.546875 416.2 121.546875 
L 416.2 17.8 
Q 416.2 15.8 414.2 15.8 
L 288.626562 15.8 
Q 286.626562 15.8 286.626562 17.8 
L 286.626562 121.546875 
Q 286.626562 123.546875 288.626562 123.546875 
z
" style="fill:#ffffff;opacity:0.8;stroke:#cccccc;stroke-linejoin:miter;"/>
    </g>
    <g id="line2d_14">
     <path d="M 291.626562 24.898438 
L 331.626562 24.898438 
" style="fill:none;stroke:#1f77b4;stroke-dasharray:9.6,2.4,1.5,2.4;stroke-dashoffset:0;stroke-opacity:0.9;stroke-width:1.5;"/>
    </g>
    <g id="line2d_15"/>
    <g id="text_1">
     <!-- Fixed Ref -->
     <g transform="translate(339.626562 28.398438)scale(0.1 -0.1)">
      <defs>
       <path d="M 9.8125 72.90625 
L 51.703125 72.90625 
L 51.703125 64.59375 
L 19.671875 64.59375 
L 19.671875 43.109375 
L 48.578125 43.109375 
L 48.578125 34.8125 
L 19.671875 34.8125 
L 19.671875 0 
L 9.8125 0 
z
" id="DejaVuSans-70"/>
       <path d="M 9.421875 54.6875 
L 18.40625 54.6875 
L 18.40625 0 
L 9.421875 0 
z
M 9.421875 75.984375 
L 18.40625 75.984375 
L 18.40625 64.59375 
L 9.421875 64.59375 
z
" id="DejaVuSans-105"/>
       <path d="M 54.890625 54.6875 
L 35.109375 28.078125 
L 55.90625 0 
L 45.3125 0 
L 29.390625 21.484375 
L 13.484375 0 
L 2.875 0 
L 24.125 28.609375 
L 4.6875 54.6875 
L 15.28125 54.6875 
L 29.78125 35.203125 
L 44.28125 54.6875 
z
" id="DejaVuSans-120"/>
       <path d="M 56.203125 29.59375 
L 56.203125 25.203125 
L 14.890625 25.203125 
Q 15.484375 15.921875 20.484375 11.0625 
Q 25.484375 6.203125 34.421875 6.203125 
Q 39.59375 6.203125 44.453125 7.46875 
Q 49.3125 8.734375 54.109375 11.28125 
L 54.109375 2.78125 
Q 49.265625 0.734375 44.1875 -0.34375 
Q 39.109375 -1.421875 33.890625 -1.421875 
Q 20.796875 -1.421875 13.15625 6.1875 
Q 5.515625 13.8125 5.515625 26.8125 
Q 5.515625 40.234375 12.765625 48.109375 
Q 20.015625 56 32.328125 56 
Q 43.359375 56 49.78125 48.890625 
Q 56.203125 41.796875 56.203125 29.59375 
z
M 47.21875 32.234375 
Q 47.125 39.59375 43.09375 43.984375 
Q 39.0625 48.390625 32.421875 48.390625 
Q 24.90625 48.390625 20.390625 44.140625 
Q 15.875 39.890625 15.1875 32.171875 
z
" id="DejaVuSans-101"/>
       <path d="M 45.40625 46.390625 
L 45.40625 75.984375 
L 54.390625 75.984375 
L 54.390625 0 
L 45.40625 0 
L 45.40625 8.203125 
Q 42.578125 3.328125 38.25 0.953125 
Q 33.9375 -1.421875 27.875 -1.421875 
Q 17.96875 -1.421875 11.734375 6.484375 
Q 5.515625 14.40625 5.515625 27.296875 
Q 5.515625 40.1875 11.734375 48.09375 
Q 17.96875 56 27.875 56 
Q 33.9375 56 38.25 53.625 
Q 42.578125 51.265625 45.40625 46.390625 
z
M 14.796875 27.296875 
Q 14.796875 17.390625 18.875 11.75 
Q 22.953125 6.109375 30.078125 6.109375 
Q 37.203125 6.109375 41.296875 11.75 
Q 45.40625 17.390625 45.40625 27.296875 
Q 45.40625 37.203125 41.296875 42.84375 
Q 37.203125 48.484375 30.078125 48.484375 
Q 22.953125 48.484375 18.875 42.84375 
Q 14.796875 37.203125 14.796875 27.296875 
z
" id="DejaVuSans-100"/>
       <path id="DejaVuSans-32"/>
       <path d="M 44.390625 34.1875 
Q 47.5625 33.109375 50.5625 29.59375 
Q 53.5625 26.078125 56.59375 19.921875 
L 66.609375 0 
L 56 0 
L 46.6875 18.703125 
Q 43.0625 26.03125 39.671875 28.421875 
Q 36.28125 30.8125 30.421875 30.8125 
L 19.671875 30.8125 
L 19.671875 0 
L 9.8125 0 
L 9.8125 72.90625 
L 32.078125 72.90625 
Q 44.578125 72.90625 50.734375 67.671875 
Q 56.890625 62.453125 56.890625 51.90625 
Q 56.890625 45.015625 53.6875 40.46875 
Q 50.484375 35.9375 44.390625 34.1875 
z
M 19.671875 64.796875 
L 19.671875 38.921875 
L 32.078125 38.921875 
Q 39.203125 38.921875 42.84375 42.21875 
Q 46.484375 45.515625 46.484375 51.90625 
Q 46.484375 58.296875 42.84375 61.546875 
Q 39.203125 64.796875 32.078125 64.796875 
z
" id="DejaVuSans-82"/>
       <path d="M 37.109375 75.984375 
L 37.109375 68.5 
L 28.515625 68.5 
Q 23.6875 68.5 21.796875 66.546875 
Q 19.921875 64.59375 19.921875 59.515625 
L 19.921875 54.6875 
L 34.71875 54.6875 
L 34.71875 47.703125 
L 19.921875 47.703125 
L 19.921875 0 
L 10.890625 0 
L 10.890625 47.703125 
L 2.296875 47.703125 
L 2.296875 54.6875 
L 10.890625 54.6875 
L 10.890625 58.5 
Q 10.890625 67.625 15.140625 71.796875 
Q 19.390625 75.984375 28.609375 75.984375 
z
" id="DejaVuSans-102"/>
      </defs>
      <use xlink:href="#DejaVuSans-70"/>
      <use x="50.269531" xlink:href="#DejaVuSans-105"/>
      <use x="78.052734" xlink:href="#DejaVuSans-120"/>
      <use x="134.107422" xlink:href="#DejaVuSans-101"/>
      <use x="195.630859" xlink:href="#DejaVuSans-100"/>
      <use x="259.107422" xlink:href="#DejaVuSans-32"/>
      <use x="290.894531" xlink:href="#DejaVuSans-82"/>
      <use x="355.876953" xlink:href="#DejaVuSans-101"/>
      <use x="417.400391" xlink:href="#DejaVuSans-102"/>
     </g>
    </g>
    <g id="line2d_16">
     <path d="M 291.626562 39.576563 
L 331.626562 39.576563 
" style="fill:none;stroke:#ff7f0e;stroke-dasharray:1.5,2.475;stroke-dashoffset:0;stroke-opacity:0.9;stroke-width:1.5;"/>
    </g>
    <g id="line2d_17"/>
    <g id="text_2">
     <!-- 2nd ord. DMP -->
     <g transform="translate(339.626562 43.076563)scale(0.1 -0.1)">
      <defs>
       <path d="M 19.1875 8.296875 
L 53.609375 8.296875 
L 53.609375 0 
L 7.328125 0 
L 7.328125 8.296875 
Q 12.9375 14.109375 22.625 23.890625 
Q 32.328125 33.6875 34.8125 36.53125 
Q 39.546875 41.84375 41.421875 45.53125 
Q 43.3125 49.21875 43.3125 52.78125 
Q 43.3125 58.59375 39.234375 62.25 
Q 35.15625 65.921875 28.609375 65.921875 
Q 23.96875 65.921875 18.8125 64.3125 
Q 13.671875 62.703125 7.8125 59.421875 
L 7.8125 69.390625 
Q 13.765625 71.78125 18.9375 73 
Q 24.125 74.21875 28.421875 74.21875 
Q 39.75 74.21875 46.484375 68.546875 
Q 53.21875 62.890625 53.21875 53.421875 
Q 53.21875 48.921875 51.53125 44.890625 
Q 49.859375 40.875 45.40625 35.40625 
Q 44.1875 33.984375 37.640625 27.21875 
Q 31.109375 20.453125 19.1875 8.296875 
z
" id="DejaVuSans-50"/>
       <path d="M 54.890625 33.015625 
L 54.890625 0 
L 45.90625 0 
L 45.90625 32.71875 
Q 45.90625 40.484375 42.875 44.328125 
Q 39.84375 48.1875 33.796875 48.1875 
Q 26.515625 48.1875 22.3125 43.546875 
Q 18.109375 38.921875 18.109375 30.90625 
L 18.109375 0 
L 9.078125 0 
L 9.078125 54.6875 
L 18.109375 54.6875 
L 18.109375 46.1875 
Q 21.34375 51.125 25.703125 53.5625 
Q 30.078125 56 35.796875 56 
Q 45.21875 56 50.046875 50.171875 
Q 54.890625 44.34375 54.890625 33.015625 
z
" id="DejaVuSans-110"/>
       <path d="M 30.609375 48.390625 
Q 23.390625 48.390625 19.1875 42.75 
Q 14.984375 37.109375 14.984375 27.296875 
Q 14.984375 17.484375 19.15625 11.84375 
Q 23.34375 6.203125 30.609375 6.203125 
Q 37.796875 6.203125 41.984375 11.859375 
Q 46.1875 17.53125 46.1875 27.296875 
Q 46.1875 37.015625 41.984375 42.703125 
Q 37.796875 48.390625 30.609375 48.390625 
z
M 30.609375 56 
Q 42.328125 56 49.015625 48.375 
Q 55.71875 40.765625 55.71875 27.296875 
Q 55.71875 13.875 49.015625 6.21875 
Q 42.328125 -1.421875 30.609375 -1.421875 
Q 18.84375 -1.421875 12.171875 6.21875 
Q 5.515625 13.875 5.515625 27.296875 
Q 5.515625 40.765625 12.171875 48.375 
Q 18.84375 56 30.609375 56 
z
" id="DejaVuSans-111"/>
       <path d="M 41.109375 46.296875 
Q 39.59375 47.171875 37.8125 47.578125 
Q 36.03125 48 33.890625 48 
Q 26.265625 48 22.1875 43.046875 
Q 18.109375 38.09375 18.109375 28.8125 
L 18.109375 0 
L 9.078125 0 
L 9.078125 54.6875 
L 18.109375 54.6875 
L 18.109375 46.1875 
Q 20.953125 51.171875 25.484375 53.578125 
Q 30.03125 56 36.53125 56 
Q 37.453125 56 38.578125 55.875 
Q 39.703125 55.765625 41.0625 55.515625 
z
" id="DejaVuSans-114"/>
       <path d="M 10.6875 12.40625 
L 21 12.40625 
L 21 0 
L 10.6875 0 
z
" id="DejaVuSans-46"/>
       <path d="M 19.671875 64.796875 
L 19.671875 8.109375 
L 31.59375 8.109375 
Q 46.6875 8.109375 53.6875 14.9375 
Q 60.6875 21.78125 60.6875 36.53125 
Q 60.6875 51.171875 53.6875 57.984375 
Q 46.6875 64.796875 31.59375 64.796875 
z
M 9.8125 72.90625 
L 30.078125 72.90625 
Q 51.265625 72.90625 61.171875 64.09375 
Q 71.09375 55.28125 71.09375 36.53125 
Q 71.09375 17.671875 61.125 8.828125 
Q 51.171875 0 30.078125 0 
L 9.8125 0 
z
" id="DejaVuSans-68"/>
       <path d="M 9.8125 72.90625 
L 24.515625 72.90625 
L 43.109375 23.296875 
L 61.8125 72.90625 
L 76.515625 72.90625 
L 76.515625 0 
L 66.890625 0 
L 66.890625 64.015625 
L 48.09375 14.015625 
L 38.1875 14.015625 
L 19.390625 64.015625 
L 19.390625 0 
L 9.8125 0 
z
" id="DejaVuSans-77"/>
       <path d="M 19.671875 64.796875 
L 19.671875 37.40625 
L 32.078125 37.40625 
Q 38.96875 37.40625 42.71875 40.96875 
Q 46.484375 44.53125 46.484375 51.125 
Q 46.484375 57.671875 42.71875 61.234375 
Q 38.96875 64.796875 32.078125 64.796875 
z
M 9.8125 72.90625 
L 32.078125 72.90625 
Q 44.34375 72.90625 50.609375 67.359375 
Q 56.890625 61.8125 56.890625 51.125 
Q 56.890625 40.328125 50.609375 34.8125 
Q 44.34375 29.296875 32.078125 29.296875 
L 19.671875 29.296875 
L 19.671875 0 
L 9.8125 0 
z
" id="DejaVuSans-80"/>
      </defs>
      <use xlink:href="#DejaVuSans-50"/>
      <use x="63.623047" xlink:href="#DejaVuSans-110"/>
      <use x="127.001953" xlink:href="#DejaVuSans-100"/>
      <use x="190.478516" xlink:href="#DejaVuSans-32"/>
      <use x="222.265625" xlink:href="#DejaVuSans-111"/>
      <use x="283.447266" xlink:href="#DejaVuSans-114"/>
      <use x="322.810547" xlink:href="#DejaVuSans-100"/>
      <use x="386.287109" xlink:href="#DejaVuSans-46"/>
      <use x="418.074219" xlink:href="#DejaVuSans-32"/>
      <use x="449.861328" xlink:href="#DejaVuSans-68"/>
      <use x="526.863281" xlink:href="#DejaVuSans-77"/>
      <use x="613.142578" xlink:href="#DejaVuSans-80"/>
     </g>
    </g>
    <g id="line2d_18">
     <path d="M 291.626562 54.254687 
L 331.626562 54.254687 
" style="fill:none;stroke:#2ca02c;stroke-dasharray:5.55,2.4;stroke-dashoffset:0;stroke-opacity:0.9;stroke-width:1.5;"/>
    </g>
    <g id="line2d_19"/>
    <g id="text_3">
     <!-- 3rd ord. DMP -->
     <g transform="translate(339.626562 57.754687)scale(0.1 -0.1)">
      <defs>
       <path d="M 40.578125 39.3125 
Q 47.65625 37.796875 51.625 33 
Q 55.609375 28.21875 55.609375 21.1875 
Q 55.609375 10.40625 48.1875 4.484375 
Q 40.765625 -1.421875 27.09375 -1.421875 
Q 22.515625 -1.421875 17.65625 -0.515625 
Q 12.796875 0.390625 7.625 2.203125 
L 7.625 11.71875 
Q 11.71875 9.328125 16.59375 8.109375 
Q 21.484375 6.890625 26.8125 6.890625 
Q 36.078125 6.890625 40.9375 10.546875 
Q 45.796875 14.203125 45.796875 21.1875 
Q 45.796875 27.640625 41.28125 31.265625 
Q 36.765625 34.90625 28.71875 34.90625 
L 20.21875 34.90625 
L 20.21875 43.015625 
L 29.109375 43.015625 
Q 36.375 43.015625 40.234375 45.921875 
Q 44.09375 48.828125 44.09375 54.296875 
Q 44.09375 59.90625 40.109375 62.90625 
Q 36.140625 65.921875 28.71875 65.921875 
Q 24.65625 65.921875 20.015625 65.03125 
Q 15.375 64.15625 9.8125 62.3125 
L 9.8125 71.09375 
Q 15.4375 72.65625 20.34375 73.4375 
Q 25.25 74.21875 29.59375 74.21875 
Q 40.828125 74.21875 47.359375 69.109375 
Q 53.90625 64.015625 53.90625 55.328125 
Q 53.90625 49.265625 50.4375 45.09375 
Q 46.96875 40.921875 40.578125 39.3125 
z
" id="DejaVuSans-51"/>
      </defs>
      <use xlink:href="#DejaVuSans-51"/>
      <use x="63.623047" xlink:href="#DejaVuSans-114"/>
      <use x="102.986328" xlink:href="#DejaVuSans-100"/>
      <use x="166.462891" xlink:href="#DejaVuSans-32"/>
      <use x="198.25" xlink:href="#DejaVuSans-111"/>
      <use x="259.431641" xlink:href="#DejaVuSans-114"/>
      <use x="298.794922" xlink:href="#DejaVuSans-100"/>
      <use x="362.271484" xlink:href="#DejaVuSans-46"/>
      <use x="394.058594" xlink:href="#DejaVuSans-32"/>
      <use x="425.845703" xlink:href="#DejaVuSans-68"/>
      <use x="502.847656" xlink:href="#DejaVuSans-77"/>
      <use x="589.126953" xlink:href="#DejaVuSans-80"/>
     </g>
    </g>
    <g id="line2d_20">
     <path d="M 291.626562 68.932813 
L 331.626562 68.932813 
" style="fill:none;stroke:#d62728;stroke-linecap:square;stroke-opacity:0.7;stroke-width:1.5;"/>
    </g>
    <g id="line2d_21"/>
    <g id="text_4">
     <!-- Proposed DMP -->
     <g transform="translate(339.626562 72.432813)scale(0.1 -0.1)">
      <defs>
       <path d="M 18.109375 8.203125 
L 18.109375 -20.796875 
L 9.078125 -20.796875 
L 9.078125 54.6875 
L 18.109375 54.6875 
L 18.109375 46.390625 
Q 20.953125 51.265625 25.265625 53.625 
Q 29.59375 56 35.59375 56 
Q 45.5625 56 51.78125 48.09375 
Q 58.015625 40.1875 58.015625 27.296875 
Q 58.015625 14.40625 51.78125 6.484375 
Q 45.5625 -1.421875 35.59375 -1.421875 
Q 29.59375 -1.421875 25.265625 0.953125 
Q 20.953125 3.328125 18.109375 8.203125 
z
M 48.6875 27.296875 
Q 48.6875 37.203125 44.609375 42.84375 
Q 40.53125 48.484375 33.40625 48.484375 
Q 26.265625 48.484375 22.1875 42.84375 
Q 18.109375 37.203125 18.109375 27.296875 
Q 18.109375 17.390625 22.1875 11.75 
Q 26.265625 6.109375 33.40625 6.109375 
Q 40.53125 6.109375 44.609375 11.75 
Q 48.6875 17.390625 48.6875 27.296875 
z
" id="DejaVuSans-112"/>
       <path d="M 44.28125 53.078125 
L 44.28125 44.578125 
Q 40.484375 46.53125 36.375 47.5 
Q 32.28125 48.484375 27.875 48.484375 
Q 21.1875 48.484375 17.84375 46.4375 
Q 14.5 44.390625 14.5 40.28125 
Q 14.5 37.15625 16.890625 35.375 
Q 19.28125 33.59375 26.515625 31.984375 
L 29.59375 31.296875 
Q 39.15625 29.25 43.1875 25.515625 
Q 47.21875 21.78125 47.21875 15.09375 
Q 47.21875 7.46875 41.1875 3.015625 
Q 35.15625 -1.421875 24.609375 -1.421875 
Q 20.21875 -1.421875 15.453125 -0.5625 
Q 10.6875 0.296875 5.421875 2 
L 5.421875 11.28125 
Q 10.40625 8.6875 15.234375 7.390625 
Q 20.0625 6.109375 24.8125 6.109375 
Q 31.15625 6.109375 34.5625 8.28125 
Q 37.984375 10.453125 37.984375 14.40625 
Q 37.984375 18.0625 35.515625 20.015625 
Q 33.0625 21.96875 24.703125 23.78125 
L 21.578125 24.515625 
Q 13.234375 26.265625 9.515625 29.90625 
Q 5.8125 33.546875 5.8125 39.890625 
Q 5.8125 47.609375 11.28125 51.796875 
Q 16.75 56 26.8125 56 
Q 31.78125 56 36.171875 55.265625 
Q 40.578125 54.546875 44.28125 53.078125 
z
" id="DejaVuSans-115"/>
      </defs>
      <use xlink:href="#DejaVuSans-80"/>
      <use x="58.552734" xlink:href="#DejaVuSans-114"/>
      <use x="97.416016" xlink:href="#DejaVuSans-111"/>
      <use x="158.597656" xlink:href="#DejaVuSans-112"/>
      <use x="222.074219" xlink:href="#DejaVuSans-111"/>
      <use x="283.255859" xlink:href="#DejaVuSans-115"/>
      <use x="335.355469" xlink:href="#DejaVuSans-101"/>
      <use x="396.878906" xlink:href="#DejaVuSans-100"/>
      <use x="460.355469" xlink:href="#DejaVuSans-32"/>
      <use x="492.142578" xlink:href="#DejaVuSans-68"/>
      <use x="569.144531" xlink:href="#DejaVuSans-77"/>
      <use x="655.423828" xlink:href="#DejaVuSans-80"/>
     </g>
    </g>
    <g id="line2d_22">
     <path d="M 291.626562 83.610938 
L 331.626562 83.610938 
" style="fill:none;stroke:#000000;stroke-dasharray:5.55,2.4;stroke-dashoffset:0;stroke-opacity:0.25;stroke-width:1.5;"/>
    </g>
    <g id="line2d_23"/>
    <g id="text_5">
     <!-- Reference -->
     <g transform="translate(339.626562 87.110938)scale(0.1 -0.1)">
      <defs>
       <path d="M 48.78125 52.59375 
L 48.78125 44.1875 
Q 44.96875 46.296875 41.140625 47.34375 
Q 37.3125 48.390625 33.40625 48.390625 
Q 24.65625 48.390625 19.8125 42.84375 
Q 14.984375 37.3125 14.984375 27.296875 
Q 14.984375 17.28125 19.8125 11.734375 
Q 24.65625 6.203125 33.40625 6.203125 
Q 37.3125 6.203125 41.140625 7.25 
Q 44.96875 8.296875 48.78125 10.40625 
L 48.78125 2.09375 
Q 45.015625 0.34375 40.984375 -0.53125 
Q 36.96875 -1.421875 32.421875 -1.421875 
Q 20.0625 -1.421875 12.78125 6.34375 
Q 5.515625 14.109375 5.515625 27.296875 
Q 5.515625 40.671875 12.859375 48.328125 
Q 20.21875 56 33.015625 56 
Q 37.15625 56 41.109375 55.140625 
Q 45.0625 54.296875 48.78125 52.59375 
z
" id="DejaVuSans-99"/>
      </defs>
      <use xlink:href="#DejaVuSans-82"/>
      <use x="64.982422" xlink:href="#DejaVuSans-101"/>
      <use x="126.505859" xlink:href="#DejaVuSans-102"/>
      <use x="161.710938" xlink:href="#DejaVuSans-101"/>
      <use x="223.234375" xlink:href="#DejaVuSans-114"/>
      <use x="262.097656" xlink:href="#DejaVuSans-101"/>
      <use x="323.621094" xlink:href="#DejaVuSans-110"/>
      <use x="387" xlink:href="#DejaVuSans-99"/>
      <use x="441.980469" xlink:href="#DejaVuSans-101"/>
     </g>
    </g>
    <g id="line2d_24"/>
    <g id="line2d_25">
     <g>
      <use style="stroke:#000000;stroke-linejoin:bevel;" x="311.626562" xlink:href="#me4496d5b09" y="98.289062"/>
     </g>
    </g>
    <g id="text_6">
     <!-- Start -->
     <g transform="translate(339.626562 101.789062)scale(0.1 -0.1)">
      <defs>
       <path d="M 53.515625 70.515625 
L 53.515625 60.890625 
Q 47.90625 63.578125 42.921875 64.890625 
Q 37.9375 66.21875 33.296875 66.21875 
Q 25.25 66.21875 20.875 63.09375 
Q 16.5 59.96875 16.5 54.203125 
Q 16.5 49.359375 19.40625 46.890625 
Q 22.3125 44.4375 30.421875 42.921875 
L 36.375 41.703125 
Q 47.40625 39.59375 52.65625 34.296875 
Q 57.90625 29 57.90625 20.125 
Q 57.90625 9.515625 50.796875 4.046875 
Q 43.703125 -1.421875 29.984375 -1.421875 
Q 24.8125 -1.421875 18.96875 -0.25 
Q 13.140625 0.921875 6.890625 3.21875 
L 6.890625 13.375 
Q 12.890625 10.015625 18.65625 8.296875 
Q 24.421875 6.59375 29.984375 6.59375 
Q 38.421875 6.59375 43.015625 9.90625 
Q 47.609375 13.234375 47.609375 19.390625 
Q 47.609375 24.75 44.3125 27.78125 
Q 41.015625 30.8125 33.5 32.328125 
L 27.484375 33.5 
Q 16.453125 35.6875 11.515625 40.375 
Q 6.59375 45.0625 6.59375 53.421875 
Q 6.59375 63.09375 13.40625 68.65625 
Q 20.21875 74.21875 32.171875 74.21875 
Q 37.3125 74.21875 42.625 73.28125 
Q 47.953125 72.359375 53.515625 70.515625 
z
" id="DejaVuSans-83"/>
       <path d="M 18.3125 70.21875 
L 18.3125 54.6875 
L 36.8125 54.6875 
L 36.8125 47.703125 
L 18.3125 47.703125 
L 18.3125 18.015625 
Q 18.3125 11.328125 20.140625 9.421875 
Q 21.96875 7.515625 27.59375 7.515625 
L 36.8125 7.515625 
L 36.8125 0 
L 27.59375 0 
Q 17.1875 0 13.234375 3.875 
Q 9.28125 7.765625 9.28125 18.015625 
L 9.28125 47.703125 
L 2.6875 47.703125 
L 2.6875 54.6875 
L 9.28125 54.6875 
L 9.28125 70.21875 
z
" id="DejaVuSans-116"/>
       <path d="M 34.28125 27.484375 
Q 23.390625 27.484375 19.1875 25 
Q 14.984375 22.515625 14.984375 16.5 
Q 14.984375 11.71875 18.140625 8.90625 
Q 21.296875 6.109375 26.703125 6.109375 
Q 34.1875 6.109375 38.703125 11.40625 
Q 43.21875 16.703125 43.21875 25.484375 
L 43.21875 27.484375 
z
M 52.203125 31.203125 
L 52.203125 0 
L 43.21875 0 
L 43.21875 8.296875 
Q 40.140625 3.328125 35.546875 0.953125 
Q 30.953125 -1.421875 24.3125 -1.421875 
Q 15.921875 -1.421875 10.953125 3.296875 
Q 6 8.015625 6 15.921875 
Q 6 25.140625 12.171875 29.828125 
Q 18.359375 34.515625 30.609375 34.515625 
L 43.21875 34.515625 
L 43.21875 35.40625 
Q 43.21875 41.609375 39.140625 45 
Q 35.0625 48.390625 27.6875 48.390625 
Q 23 48.390625 18.546875 47.265625 
Q 14.109375 46.140625 10.015625 43.890625 
L 10.015625 52.203125 
Q 14.9375 54.109375 19.578125 55.046875 
Q 24.21875 56 28.609375 56 
Q 40.484375 56 46.34375 49.84375 
Q 52.203125 43.703125 52.203125 31.203125 
z
" id="DejaVuSans-97"/>
      </defs>
      <use xlink:href="#DejaVuSans-83"/>
      <use x="63.476562" xlink:href="#DejaVuSans-116"/>
      <use x="102.685547" xlink:href="#DejaVuSans-97"/>
      <use x="163.964844" xlink:href="#DejaVuSans-114"/>
      <use x="205.078125" xlink:href="#DejaVuSans-116"/>
     </g>
    </g>
    <g id="line2d_26">
     <path d="M 291.626562 112.967187 
L 298.626562 112.967187 
" style="fill:none;stroke:#1f77b4;stroke-linecap:square;stroke-opacity:0.7;stroke-width:1.5;"/>
    </g>
    <g id="line2d_27">
     <g>
      <use style="fill:#1f77b4;fill-opacity:0.7;stroke:#1f77b4;stroke-opacity:0.7;" x="295.126562" xlink:href="#m0fc0ef2835" y="112.967187"/>
     </g>
    </g>
    <g id="line2d_28">
     <path d="M 302.626562 112.967187 
L 309.626562 112.967187 
" style="fill:none;stroke:#ff7f0e;stroke-linecap:square;stroke-opacity:0.7;stroke-width:1.5;"/>
    </g>
    <g id="line2d_29">
     <g>
      <use style="fill:#ff7f0e;fill-opacity:0.7;stroke:#ff7f0e;stroke-opacity:0.7;" x="306.126562" xlink:href="#md7b73e93e8" y="112.967187"/>
     </g>
    </g>
    <g id="line2d_30">
     <path d="M 313.626562 112.967187 
L 320.626562 112.967187 
" style="fill:none;stroke:#2ca02c;stroke-linecap:square;stroke-opacity:0.7;stroke-width:1.5;"/>
    </g>
    <g id="line2d_31">
     <g>
      <use style="fill:#2ca02c;fill-opacity:0.7;stroke:#2ca02c;stroke-opacity:0.7;" x="317.126562" xlink:href="#m3846489073" y="112.967187"/>
     </g>
    </g>
    <g id="line2d_32">
     <path d="M 324.626562 112.967187 
L 331.626562 112.967187 
" style="fill:none;stroke:#d62728;stroke-linecap:square;stroke-opacity:0.7;stroke-width:1.5;"/>
    </g>
    <g id="line2d_33">
     <g>
      <use style="fill:#d62728;fill-opacity:0.7;stroke:#d62728;stroke-opacity:0.7;" x="328.126562" xlink:href="#m40776a414b" y="112.967187"/>
     </g>
    </g>
    <g id="text_7">
     <!-- End -->
     <g transform="translate(339.626562 116.467187)scale(0.1 -0.1)">
      <defs>
       <path d="M 9.8125 72.90625 
L 55.90625 72.90625 
L 55.90625 64.59375 
L 19.671875 64.59375 
L 19.671875 43.015625 
L 54.390625 43.015625 
L 54.390625 34.71875 
L 19.671875 34.71875 
L 19.671875 8.296875 
L 56.78125 8.296875 
L 56.78125 0 
L 9.8125 0 
z
" id="DejaVuSans-69"/>
      </defs>
      <use xlink:href="#DejaVuSans-69"/>
      <use x="63.183594" xlink:href="#DejaVuSans-110"/>
      <use x="126.5625" xlink:href="#DejaVuSans-100"/>
     </g>
    </g>
   </g>
  </g>
 </g>
 <defs>
  <clipPath id="pdfdd32ecc5">
   <rect height="194.4" width="410.4" x="10.8" y="10.8"/>
  </clipPath>
 </defs>
</svg>
