<?xml version="1.0" encoding="utf-8" standalone="no"?>
<!DOCTYPE svg PUBLIC "-//W3C//DTD SVG 1.1//EN"
  "http://www.w3.org/Graphics/SVG/1.1/DTD/svg11.dtd">
<!-- Created with matplotlib (https://matplotlib.org/) -->
<svg height="216pt" version="1.1" viewBox="0 0 432 216" width="432pt" xmlns="http://www.w3.org/2000/svg" xmlns:xlink="http://www.w3.org/1999/xlink">
 <metadata>
  <rdf:RDF xmlns:cc="http://creativecommons.org/ns#" xmlns:dc="http://purl.org/dc/elements/1.1/" xmlns:rdf="http://www.w3.org/1999/02/22-rdf-syntax-ns#">
   <cc:Work>
    <dc:type rdf:resource="http://purl.org/dc/dcmitype/StillImage"/>
    <dc:date>2022-11-03T18:30:32.989464</dc:date>
    <dc:format>image/svg+xml</dc:format>
    <dc:creator>
     <cc:Agent>
      <dc:title>Matplotlib v3.3.0, https://matplotlib.org/</dc:title>
     </cc:Agent>
    </dc:creator>
   </cc:Work>
  </rdf:RDF>
 </metadata>
 <defs>
  <style type="text/css">*{stroke-linecap:butt;stroke-linejoin:round;}</style>
 </defs>
 <g id="figure_1">
  <g id="patch_1">
   <path d="M 0 216 
L 432 216 
L 432 0 
L 0 0 
z
" style="fill:#ffffff;"/>
  </g>
  <g id="axes_1">
   <g id="matplotlib.axis_1"/>
   <g id="matplotlib.axis_2"/>
   <g id="line2d_1">
    <path clip-path="url(#p82f08bba7a)" d="M 66.843536 151.931382 
L 64.654663 149.396047 
L 62.414044 146.872303 
L 60.134566 144.371144 
L 57.798185 141.904178 
L 55.479814 139.45907 
L 53.204484 137.034669 
L 50.964638 134.603866 
L 48.859889 132.257123 
L 46.902916 129.959618 
L 45.050728 127.707471 
L 43.307692 125.505051 
L 41.710019 123.357467 
L 40.221688 121.27128 
L 38.910327 119.248889 
L 37.763364 117.2646 
L 36.7632 115.284601 
L 35.904141 113.357074 
L 35.166884 111.494444 
L 34.57305 109.656828 
L 34.118791 107.863719 
L 33.787595 106.125162 
L 33.575031 104.458679 
L 33.472155 102.870848 
L 33.46315 101.377139 
L 33.521361 99.977206 
L 33.6337 98.69499 
L 33.790024 97.513031 
L 33.95988 96.385924 
L 34.14546 95.332201 
L 34.346528 94.373579 
L 34.552563 93.487614 
L 34.765207 92.622831 
L 35.071894 91.805408 
L 35.456333 91.011737 
L 35.880153 90.235871 
L 36.335958 89.497983 
L 36.844154 88.84283 
L 37.392551 88.224409 
L 37.971339 87.656881 
L 38.583768 87.172389 
L 39.218749 86.758268 
L 39.862451 86.424155 
L 40.516358 86.150461 
L 41.197975 85.9393 
L 41.878503 85.796886 
L 42.546083 85.723723 
L 43.184093 85.725332 
L 43.790118 85.781572 
L 44.34823 85.890709 
L 44.848004 86.048689 
L 45.282644 86.285431 
L 45.693358 86.534585 
" style="fill:none;stroke:#1f77b4;stroke-dasharray:9.6,2.4,1.5,2.4;stroke-dashoffset:0;stroke-opacity:0.9;stroke-width:1.5;"/>
   </g>
   <g id="line2d_2">
    <defs>
     <path d="M 0 3 
C 0.795609 3 1.55874 2.683901 2.12132 2.12132 
C 2.683901 1.55874 3 0.795609 3 0 
C 3 -0.795609 2.683901 -1.55874 2.12132 -2.12132 
C 1.55874 -2.683901 0.795609 -3 0 -3 
C -0.795609 -3 -1.55874 -2.683901 -2.12132 -2.12132 
C -2.683901 -1.55874 -3 -0.795609 -3 0 
C -3 0.795609 -2.683901 1.55874 -2.12132 2.12132 
C -1.55874 2.683901 -0.795609 3 0 3 
z
" id="mc896355c81" style="stroke:#1f77b4;stroke-opacity:0.7;"/>
    </defs>
    <g clip-path="url(#p82f08bba7a)">
     <use style="fill:#1f77b4;fill-opacity:0.7;stroke:#1f77b4;stroke-opacity:0.7;" x="45.693358" xlink:href="#mc896355c81" y="86.534585"/>
    </g>
   </g>
   <g id="line2d_3">
    <path clip-path="url(#p82f08bba7a)" d="M 66.843536 151.931382 
L 60.504291 144.529598 
L 50.33811 133.23035 
L 43.513112 125.25853 
L 39.970658 121.360908 
L 38.564921 119.62978 
L 36.219724 116.127984 
L 34.214302 112.89802 
L 32.629972 109.926327 
L 30.989244 105.966913 
L 30.28919 103.664377 
L 29.769733 101.288079 
L 29.516274 98.66452 
L 29.464434 96.145303 
L 29.606627 95.084151 
L 30.050572 93.911923 
L 30.789201 92.688486 
L 31.495248 91.828576 
L 32.422485 90.98584 
L 33.59249 90.217371 
L 35.009645 89.586475 
L 36.601813 89.023789 
L 41.289858 87.920513 
L 44.542752 87.683172 
L 49.260273 87.279397 
L 51.125568 86.911359 
L 53.035148 86.198752 
L 54.931196 85.114291 
L 56.811758 83.774052 
L 58.776458 81.984318 
L 60.46051 80.303862 
L 68.585878 73.517913 
L 70.751393 72.236217 
L 73.207478 71.019057 
L 77.184508 69.037087 
L 81.331379 66.705579 
L 83.286412 65.808354 
L 85.887955 64.952086 
L 90.233227 63.894263 
L 95.079836 63.009986 
L 102.818572 61.961941 
L 106.584678 61.164989 
L 110.523715 60.592446 
L 114.641914 60.406235 
L 118.912542 60.595395 
L 123.287622 61.183047 
L 127.722522 62.175215 
L 132.087068 63.478502 
L 139.07574 66.014704 
L 144.449959 67.561247 
L 149.16871 68.876946 
L 153.828737 70.520631 
L 160.884406 73.391499 
L 173.173922 78.28393 
L 180.655468 81.682748 
L 180.655468 81.682748 
" style="fill:none;stroke:#ff7f0e;stroke-dasharray:1.5,2.475;stroke-dashoffset:0;stroke-opacity:0.9;stroke-width:1.5;"/>
   </g>
   <g id="line2d_4">
    <defs>
     <path d="M 0 3 
C 0.795609 3 1.55874 2.683901 2.12132 2.12132 
C 2.683901 1.55874 3 0.795609 3 0 
C 3 -0.795609 2.683901 -1.55874 2.12132 -2.12132 
C 1.55874 -2.683901 0.795609 -3 0 -3 
C -0.795609 -3 -1.55874 -2.683901 -2.12132 -2.12132 
C -2.683901 -1.55874 -3 -0.795609 -3 0 
C -3 0.795609 -2.683901 1.55874 -2.12132 2.12132 
C -1.55874 2.683901 -0.795609 3 0 3 
z
" id="m84b80ae36b" style="stroke:#ff7f0e;stroke-opacity:0.7;"/>
    </defs>
    <g clip-path="url(#p82f08bba7a)">
     <use style="fill:#ff7f0e;fill-opacity:0.7;stroke:#ff7f0e;stroke-opacity:0.7;" x="180.655468" xlink:href="#m84b80ae36b" y="81.682748"/>
    </g>
   </g>
   <g id="line2d_5">
    <path clip-path="url(#p82f08bba7a)" d="M 66.843536 151.931382 
L 62.544236 146.945529 
L 58.338822 142.338139 
L 48.702997 132.244127 
L 45.54607 128.397178 
L 42.192587 123.827102 
L 41.081851 122.049685 
L 40.134016 120.291146 
L 39.347537 118.568928 
L 38.171902 115.267395 
L 37.758759 113.702889 
L 37.326028 110.745626 
L 37.280102 109.363499 
L 37.356545 107.91764 
L 37.957145 104.759452 
L 38.920184 101.87387 
L 39.562325 100.46695 
L 40.316174 99.095342 
L 41.176747 97.767626 
L 42.140274 96.492711 
L 43.205873 95.278989 
L 44.366619 94.134171 
L 50.664748 88.639082 
L 53.130028 86.205755 
L 58.1402 80.972388 
L 61.034709 78.632238 
L 67.971509 73.797016 
L 71.463622 71.673247 
L 75.202743 69.832319 
L 81.203916 67.312487 
L 83.286349 66.486832 
L 87.226396 65.175502 
L 91.693943 64.091892 
L 96.320495 63.191702 
L 101.108829 62.511962 
L 103.544301 62.291181 
L 109.371832 62.079846 
L 114.479455 62.238962 
L 119.683344 62.649471 
L 124.953079 63.38031 
L 130.302616 64.252396 
L 135.637739 65.408774 
L 140.959897 66.869 
L 149.123281 69.234818 
L 154.571286 71.085595 
L 165.653128 75.244752 
L 176.932434 79.879766 
L 185.454889 83.686183 
L 197.036206 89.068083 
L 218.540684 99.569859 
L 227.549943 103.908815 
L 233.575482 106.926971 
L 242.602652 111.674587 
L 251.81614 116.31341 
L 261.043365 121.157747 
L 276.859469 129.06641 
L 283.420694 131.90878 
L 290.151692 134.623982 
L 296.97521 137.00279 
L 303.718781 138.975502 
L 310.330314 140.454068 
L 316.960429 141.577312 
L 320.284199 142.008261 
L 320.284199 142.008261 
" style="fill:none;stroke:#2ca02c;stroke-dasharray:5.55,2.4;stroke-dashoffset:0;stroke-opacity:0.9;stroke-width:1.5;"/>
   </g>
   <g id="line2d_6">
    <defs>
     <path d="M 0 3 
C 0.795609 3 1.55874 2.683901 2.12132 2.12132 
C 2.683901 1.55874 3 0.795609 3 0 
C 3 -0.795609 2.683901 -1.55874 2.12132 -2.12132 
C 1.55874 -2.683901 0.795609 -3 0 -3 
C -0.795609 -3 -1.55874 -2.683901 -2.12132 -2.12132 
C -2.683901 -1.55874 -3 -0.795609 -3 0 
C -3 0.795609 -2.683901 1.55874 -2.12132 2.12132 
C -1.55874 2.683901 -0.795609 3 0 3 
z
" id="m89db7201d6" style="stroke:#2ca02c;stroke-opacity:0.7;"/>
    </defs>
    <g clip-path="url(#p82f08bba7a)">
     <use style="fill:#2ca02c;fill-opacity:0.7;stroke:#2ca02c;stroke-opacity:0.7;" x="320.284199" xlink:href="#m89db7201d6" y="142.008261"/>
    </g>
   </g>
   <g id="line2d_7">
    <path clip-path="url(#p82f08bba7a)" d="M 66.843536 151.931382 
L 62.540971 146.945482 
L 50.786345 133.905815 
L 47.593775 129.92254 
L 44.849313 126.064314 
L 43.575897 124.057914 
L 42.492098 122.078625 
L 41.544216 120.115959 
L 40.76712 118.210022 
L 39.611941 114.461801 
L 38.844829 110.4091 
L 38.592032 108.362484 
L 38.479662 106.04864 
L 38.618685 102.438842 
L 38.831376 100.77728 
L 39.184352 99.070029 
L 40.23399 95.641207 
L 41.595835 92.24992 
L 42.439233 90.606132 
L 43.394985 88.999438 
L 44.63708 87.176174 
L 47.071952 84.190602 
L 50.09077 81.152259 
L 53.037861 78.456278 
L 56.268707 75.919776 
L 59.682531 73.524805 
L 63.286635 71.323142 
L 65.147151 70.26516 
L 69.388144 68.219995 
L 73.486408 66.513879 
L 77.61716 65.109436 
L 81.98016 63.968593 
L 89.176571 62.317787 
L 94.322612 61.378405 
L 99.202372 60.859674 
L 104.224892 60.695858 
L 109.371091 60.749023 
L 114.630448 61.075834 
L 119.951077 61.664653 
L 126.710467 62.802358 
L 134.898383 64.611948 
L 140.419038 66.034481 
L 145.882617 67.776492 
L 157.03595 71.626801 
L 165.473738 74.909227 
L 174.001998 78.44848 
L 182.651806 82.280494 
L 194.278134 87.7474 
L 215.779466 98.246724 
L 224.647579 102.647417 
L 248.867398 115.048971 
L 270.406853 126.171026 
L 278.100317 129.849767 
L 284.864829 132.815937 
L 291.776272 135.509523 
L 298.72252 137.825401 
L 305.48536 139.713418 
L 311.855501 141.201229 
L 318.184315 142.259992 
L 324.548627 142.926412 
L 330.904687 143.268146 
L 337.034678 143.217142 
L 337.034678 143.217142 
" style="fill:none;stroke:#d62728;stroke-linecap:square;stroke-opacity:0.7;stroke-width:1.5;"/>
   </g>
   <g id="line2d_8">
    <defs>
     <path d="M 0 3 
C 0.795609 3 1.55874 2.683901 2.12132 2.12132 
C 2.683901 1.55874 3 0.795609 3 0 
C 3 -0.795609 2.683901 -1.55874 2.12132 -2.12132 
C 1.55874 -2.683901 0.795609 -3 0 -3 
C -0.795609 -3 -1.55874 -2.683901 -2.12132 -2.12132 
C -2.683901 -1.55874 -3 -0.795609 -3 0 
C -3 0.795609 -2.683901 1.55874 -2.12132 2.12132 
C -1.55874 2.683901 -0.795609 3 0 3 
z
" id="m0161bec1be" style="stroke:#d62728;stroke-opacity:0.7;"/>
    </defs>
    <g clip-path="url(#p82f08bba7a)">
     <use style="fill:#d62728;fill-opacity:0.7;stroke:#d62728;stroke-opacity:0.7;" x="337.034678" xlink:href="#m0161bec1be" y="143.217142"/>
    </g>
   </g>
   <g id="line2d_9">
    <defs>
     <path d="M 0 -3 
L -0.673542 -0.927051 
L -2.85317 -0.927051 
L -1.089814 0.354102 
L -1.763356 2.427051 
L -0 1.145898 
L 1.763356 2.427051 
L 1.089814 0.354102 
L 2.85317 -0.927051 
L 0.673542 -0.927051 
z
" id="mfa18b1c7b6" style="stroke:#000000;stroke-linejoin:bevel;"/>
    </defs>
    <g clip-path="url(#p82f08bba7a)">
     <use style="stroke:#000000;stroke-linejoin:bevel;" x="66.843536" xlink:href="#mfa18b1c7b6" y="151.931382"/>
    </g>
   </g>
   <g id="line2d_10">
    <path clip-path="url(#p82f08bba7a)" d="M 60.583139 157.798302 
L 57.630726 154.478482 
L 54.937584 151.108502 
L 52.484559 147.671857 
L 50.260674 144.164447 
L 48.268689 140.60108 
L 46.511159 136.999957 
L 44.997531 133.371723 
L 43.719888 129.726062 
L 42.67689 126.073304 
L 41.975969 122.876618 
L 41.504899 119.687408 
L 41.29093 116.519362 
L 41.300566 113.379358 
L 41.532987 110.283104 
L 41.984155 107.245613 
L 42.690911 104.297671 
L 43.586007 101.433726 
L 44.684788 98.686852 
L 45.963314 96.063513 
L 47.611817 93.215892 
L 49.433457 90.488605 
L 51.688695 87.522179 
L 54.149448 84.684052 
L 56.803872 81.949321 
L 59.652361 79.317372 
L 62.698636 76.813185 
L 65.929041 74.440262 
L 69.333513 72.206457 
L 72.913897 70.136641 
L 76.232888 68.442338 
L 80.11761 66.714773 
L 84.138784 65.16801 
L 87.829819 63.965738 
L 92.101692 62.818618 
L 96.478838 61.859349 
L 100.454118 61.197888 
L 104.498492 60.734403 
L 108.595998 60.470156 
L 112.710286 60.41308 
L 116.858465 60.583125 
L 121.023504 60.977832 
L 125.196208 61.583652 
L 129.890688 62.504203 
L 134.574096 63.667599 
L 140.294462 65.32946 
L 146.543495 67.369973 
L 153.32487 69.812747 
L 162.77827 73.476466 
L 172.329672 77.415835 
L 182.526007 81.848922 
L 191.167882 85.851596 
L 203.159488 91.69217 
L 235.7643 107.953007 
L 250.763734 115.645695 
L 277.318826 129.597495 
L 283.393532 132.558077 
L 288.917997 134.981478 
L 293.826646 136.887285 
L 298.726013 138.563329 
L 303.612132 139.989052 
L 308.464993 141.161224 
L 313.275946 142.108667 
L 317.45128 142.755914 
L 322.768989 143.33336 
L 328.023676 143.668876 
L 332.635577 143.748757 
L 337.182038 143.600376 
L 341.095765 143.256818 
L 344.950511 142.719655 
L 349.280563 141.89321 
L 353.514772 140.827593 
L 357.640261 139.521409 
L 361.651373 137.997703 
L 365.053661 136.489588 
L 368.348454 134.807991 
L 372.033515 132.678011 
L 375.169979 130.629842 
L 379.094535 127.788479 
L 382.478233 125.064422 
L 385.734129 122.133518 
L 388.863412 119.018025 
L 392.254337 115.326944 
L 395.136586 111.877424 
L 397.208818 109.188291 
L 397.208818 109.188291 
" style="fill:none;stroke:#000000;stroke-dasharray:5.55,2.4;stroke-dashoffset:0;stroke-opacity:0.25;stroke-width:1.5;"/>
   </g>
   <g id="line2d_11">
    <path clip-path="url(#p82f08bba7a)" d="M 58.405328 159.839962 
L 55.701947 157.1051 
L 52.544726 153.745556 
L 48.047965 148.524568 
L 43.302273 142.59273 
L 41.066334 139.564455 
L 37.704312 134.569422 
L 35.564912 131.118761 
L 33.453132 127.440077 
L 32.699772 125.912956 
L 31.485884 122.759799 
L 30.874602 120.356441 
L 30.380539 117.91517 
L 29.99302 112.6769 
L 30.180813 109.133868 
L 30.557186 106.531087 
L 31.147854 104.028324 
L 31.915281 101.594389 
L 32.910834 99.179194 
L 34.534852 96.035295 
L 36.999715 92.392629 
L 38.647651 90.430734 
L 41.425099 87.739023 
L 45.027356 84.845072 
L 46.931558 83.497226 
L 51.561711 80.577933 
L 58.366068 76.751211 
L 64.505947 73.538436 
L 69.958076 70.93514 
L 74.785218 68.836602 
L 81.119159 66.374166 
L 88.250452 63.857784 
L 94.015582 62.047819 
L 99.092164 60.637821 
L 104.940832 59.232989 
L 110.910212 58.039185 
L 116.260791 57.191906 
L 122.442523 56.484791 
L 127.093192 56.185858 
L 129.406948 56.186962 
L 134.754519 56.446616 
L 139.318357 56.9034 
L 143.94153 57.625871 
L 147.030885 58.323727 
L 150.857917 59.407646 
L 153.109879 60.191037 
L 156.04909 61.357481 
L 160.270375 63.237633 
L 179.355307 72.445755 
L 201.142132 82.445683 
L 214.361568 88.581335 
L 246.144051 103.382548 
L 273.962862 116.204544 
L 325.11202 139.422705 
L 329.77114 141.147445 
L 332.405474 141.983455 
L 334.944682 142.481935 
L 337.518799 142.761867 
L 342.091115 142.896358 
L 346.648709 142.736507 
L 349.186114 142.410957 
L 351.70284 141.88144 
L 354.887493 141.068373 
L 358.629211 139.628863 
L 362.300976 137.994164 
L 365.263215 136.466943 
L 369.150807 134.089532 
L 372.273069 131.915194 
L 375.822899 129.048939 
L 378.316859 126.779073 
L 381.654236 123.293471 
L 383.899398 120.640742 
L 386.377643 117.293961 
L 388.262537 114.414275 
L 390.257432 110.868474 
L 392.215018 106.66493 
L 392.215018 106.66493 
" style="fill:none;stroke:#000000;stroke-linecap:square;stroke-opacity:0.25;"/>
   </g>
   <g id="line2d_12">
    <path clip-path="url(#p82f08bba7a)" d="M 66.171128 152.098321 
L 62.683743 148.588495 
L 58.427106 143.849906 
L 54.385022 138.954528 
L 50.540554 133.950635 
L 47.791133 130.018279 
L 44.674045 125.051202 
L 42.861014 121.737602 
L 42.354892 120.595008 
L 41.600629 118.271983 
L 41.16159 115.944851 
L 40.954083 112.990949 
L 40.99421 111.201991 
L 41.264525 108.856692 
L 41.776721 106.604573 
L 42.570509 104.420717 
L 43.595593 102.278265 
L 45.183974 99.770079 
L 46.262925 98.365846 
L 47.96371 96.567162 
L 49.985137 94.792841 
L 52.172581 93.168046 
L 55.62143 90.912533 
L 62.18811 87.140659 
L 68.240651 83.915006 
L 73.832774 81.183078 
L 79.649794 78.654078 
L 85.574868 76.324202 
L 92.273383 74.021207 
L 99.721082 71.797861 
L 104.485246 70.578332 
L 110.559793 69.253522 
L 115.268169 68.420224 
L 121.416714 67.602176 
L 125.548841 67.213831 
L 128.995421 67.107673 
L 134.451465 67.400699 
L 137.785611 67.756533 
L 141.71673 68.401482 
L 144.980775 69.128541 
L 148.829807 70.311689 
L 153.166206 72.026479 
L 157.545198 74.087155 
L 170.610783 80.480591 
L 194.503709 91.492989 
L 221.015283 103.772299 
L 268.815824 125.90305 
L 320.215776 149.239209 
L 323.675466 150.612471 
L 327.166083 151.846353 
L 330.774385 152.886558 
L 334.770262 153.479321 
L 337.216426 153.691001 
L 341.333456 153.87519 
L 343.80635 153.839283 
L 347.080136 153.641086 
L 349.497006 153.374352 
L 352.644509 152.860021 
L 355.71507 152.166111 
L 359.522306 150.990107 
L 363.281213 149.547606 
L 365.491048 148.55886 
L 369.81225 146.408699 
L 373.269731 144.436495 
L 377.218921 141.849872 
L 381.057829 138.96731 
L 384.786211 135.75004 
L 388.877361 131.634608 
L 391.093565 129.176891 
L 394.116672 125.309196 
L 396.848959 121.339186 
L 399.251467 117.296796 
L 401.651934 112.544056 
L 402.545455 110.506753 
L 402.545455 110.506753 
" style="fill:none;stroke:#000000;stroke-linecap:square;stroke-opacity:0.25;"/>
   </g>
   <g id="line2d_13">
    <defs>
     <path d="M 0 3 
C 0.795609 3 1.55874 2.683901 2.12132 2.12132 
C 2.683901 1.55874 3 0.795609 3 0 
C 3 -0.795609 2.683901 -1.55874 2.12132 -2.12132 
C 1.55874 -2.683901 0.795609 -3 0 -3 
C -0.795609 -3 -1.55874 -2.683901 -2.12132 -2.12132 
C -2.683901 -1.55874 -3 -0.795609 -3 0 
C -3 0.795609 -2.683901 1.55874 -2.12132 2.12132 
C -1.55874 2.683901 -0.795609 3 0 3 
z
" id="m6bfef288fb" style="stroke:#000000;stroke-opacity:0.25;"/>
    </defs>
    <g clip-path="url(#p82f08bba7a)">
     <use style="fill-opacity:0.25;stroke:#000000;stroke-opacity:0.25;" x="397.546773" xlink:href="#m6bfef288fb" y="108.73207"/>
    </g>
   </g>
   <g id="legend_1">
    <g id="patch_2">
     <path d="M 289.271875 123.546875 
L 414.2 123.546875 
Q 416.2 123.546875 416.2 121.546875 
L 416.2 17.8 
Q 416.2 15.8 414.2 15.8 
L 289.271875 15.8 
Q 287.271875 15.8 287.271875 17.8 
L 287.271875 121.546875 
Q 287.271875 123.546875 289.271875 123.546875 
z
" style="fill:#ffffff;opacity:0.8;stroke:#cccccc;stroke-linejoin:miter;"/>
    </g>
    <g id="line2d_14">
     <path d="M 292.271875 24.898438 
L 332.271875 24.898438 
" style="fill:none;stroke:#1f77b4;stroke-dasharray:9.6,2.4,1.5,2.4;stroke-dashoffset:0;stroke-opacity:0.9;stroke-width:1.5;"/>
    </g>
    <g id="line2d_15"/>
    <g id="text_1">
     <!-- Fixed Ref -->
     <g transform="translate(340.271875 28.398438)scale(0.1 -0.1)">
      <defs>
       <path d="M 9.8125 72.90625 
L 51.703125 72.90625 
L 51.703125 64.59375 
L 19.671875 64.59375 
L 19.671875 43.109375 
L 48.578125 43.109375 
L 48.578125 34.8125 
L 19.671875 34.8125 
L 19.671875 0 
L 9.8125 0 
z
" id="DejaVuSans-70"/>
       <path d="M 9.421875 54.6875 
L 18.40625 54.6875 
L 18.40625 0 
L 9.421875 0 
z
M 9.421875 75.984375 
L 18.40625 75.984375 
L 18.40625 64.59375 
L 9.421875 64.59375 
z
" id="DejaVuSans-105"/>
       <path d="M 54.890625 54.6875 
L 35.109375 28.078125 
L 55.90625 0 
L 45.3125 0 
L 29.390625 21.484375 
L 13.484375 0 
L 2.875 0 
L 24.125 28.609375 
L 4.6875 54.6875 
L 15.28125 54.6875 
L 29.78125 35.203125 
L 44.28125 54.6875 
z
" id="DejaVuSans-120"/>
       <path d="M 56.203125 29.59375 
L 56.203125 25.203125 
L 14.890625 25.203125 
Q 15.484375 15.921875 20.484375 11.0625 
Q 25.484375 6.203125 34.421875 6.203125 
Q 39.59375 6.203125 44.453125 7.46875 
Q 49.3125 8.734375 54.109375 11.28125 
L 54.109375 2.78125 
Q 49.265625 0.734375 44.1875 -0.34375 
Q 39.109375 -1.421875 33.890625 -1.421875 
Q 20.796875 -1.421875 13.15625 6.1875 
Q 5.515625 13.8125 5.515625 26.8125 
Q 5.515625 40.234375 12.765625 48.109375 
Q 20.015625 56 32.328125 56 
Q 43.359375 56 49.78125 48.890625 
Q 56.203125 41.796875 56.203125 29.59375 
z
M 47.21875 32.234375 
Q 47.125 39.59375 43.09375 43.984375 
Q 39.0625 48.390625 32.421875 48.390625 
Q 24.90625 48.390625 20.390625 44.140625 
Q 15.875 39.890625 15.1875 32.171875 
z
" id="DejaVuSans-101"/>
       <path d="M 45.40625 46.390625 
L 45.40625 75.984375 
L 54.390625 75.984375 
L 54.390625 0 
L 45.40625 0 
L 45.40625 8.203125 
Q 42.578125 3.328125 38.25 0.953125 
Q 33.9375 -1.421875 27.875 -1.421875 
Q 17.96875 -1.421875 11.734375 6.484375 
Q 5.515625 14.40625 5.515625 27.296875 
Q 5.515625 40.1875 11.734375 48.09375 
Q 17.96875 56 27.875 56 
Q 33.9375 56 38.25 53.625 
Q 42.578125 51.265625 45.40625 46.390625 
z
M 14.796875 27.296875 
Q 14.796875 17.390625 18.875 11.75 
Q 22.953125 6.109375 30.078125 6.109375 
Q 37.203125 6.109375 41.296875 11.75 
Q 45.40625 17.390625 45.40625 27.296875 
Q 45.40625 37.203125 41.296875 42.84375 
Q 37.203125 48.484375 30.078125 48.484375 
Q 22.953125 48.484375 18.875 42.84375 
Q 14.796875 37.203125 14.796875 27.296875 
z
" id="DejaVuSans-100"/>
       <path id="DejaVuSans-32"/>
       <path d="M 44.390625 34.1875 
Q 47.5625 33.109375 50.5625 29.59375 
Q 53.5625 26.078125 56.59375 19.921875 
L 66.609375 0 
L 56 0 
L 46.6875 18.703125 
Q 43.0625 26.03125 39.671875 28.421875 
Q 36.28125 30.8125 30.421875 30.8125 
L 19.671875 30.8125 
L 19.671875 0 
L 9.8125 0 
L 9.8125 72.90625 
L 32.078125 72.90625 
Q 44.578125 72.90625 50.734375 67.671875 
Q 56.890625 62.453125 56.890625 51.90625 
Q 56.890625 45.015625 53.6875 40.46875 
Q 50.484375 35.9375 44.390625 34.1875 
z
M 19.671875 64.796875 
L 19.671875 38.921875 
L 32.078125 38.921875 
Q 39.203125 38.921875 42.84375 42.21875 
Q 46.484375 45.515625 46.484375 51.90625 
Q 46.484375 58.296875 42.84375 61.546875 
Q 39.203125 64.796875 32.078125 64.796875 
z
" id="DejaVuSans-82"/>
       <path d="M 37.109375 75.984375 
L 37.109375 68.5 
L 28.515625 68.5 
Q 23.6875 68.5 21.796875 66.546875 
Q 19.921875 64.59375 19.921875 59.515625 
L 19.921875 54.6875 
L 34.71875 54.6875 
L 34.71875 47.703125 
L 19.921875 47.703125 
L 19.921875 0 
L 10.890625 0 
L 10.890625 47.703125 
L 2.296875 47.703125 
L 2.296875 54.6875 
L 10.890625 54.6875 
L 10.890625 58.5 
Q 10.890625 67.625 15.140625 71.796875 
Q 19.390625 75.984375 28.609375 75.984375 
z
" id="DejaVuSans-102"/>
      </defs>
      <use xlink:href="#DejaVuSans-70"/>
      <use x="50.269531" xlink:href="#DejaVuSans-105"/>
      <use x="78.052734" xlink:href="#DejaVuSans-120"/>
      <use x="134.107422" xlink:href="#DejaVuSans-101"/>
      <use x="195.630859" xlink:href="#DejaVuSans-100"/>
      <use x="259.107422" xlink:href="#DejaVuSans-32"/>
      <use x="290.894531" xlink:href="#DejaVuSans-82"/>
      <use x="355.876953" xlink:href="#DejaVuSans-101"/>
      <use x="417.400391" xlink:href="#DejaVuSans-102"/>
     </g>
    </g>
    <g id="line2d_16">
     <path d="M 292.271875 39.576563 
L 332.271875 39.576563 
" style="fill:none;stroke:#ff7f0e;stroke-dasharray:1.5,2.475;stroke-dashoffset:0;stroke-opacity:0.9;stroke-width:1.5;"/>
    </g>
    <g id="line2d_17"/>
    <g id="text_2">
     <!-- 2nd ord. DMP -->
     <g transform="translate(340.271875 43.076563)scale(0.1 -0.1)">
      <defs>
       <path d="M 19.1875 8.296875 
L 53.609375 8.296875 
L 53.609375 0 
L 7.328125 0 
L 7.328125 8.296875 
Q 12.9375 14.109375 22.625 23.890625 
Q 32.328125 33.6875 34.8125 36.53125 
Q 39.546875 41.84375 41.421875 45.53125 
Q 43.3125 49.21875 43.3125 52.78125 
Q 43.3125 58.59375 39.234375 62.25 
Q 35.15625 65.921875 28.609375 65.921875 
Q 23.96875 65.921875 18.8125 64.3125 
Q 13.671875 62.703125 7.8125 59.421875 
L 7.8125 69.390625 
Q 13.765625 71.78125 18.9375 73 
Q 24.125 74.21875 28.421875 74.21875 
Q 39.75 74.21875 46.484375 68.546875 
Q 53.21875 62.890625 53.21875 53.421875 
Q 53.21875 48.921875 51.53125 44.890625 
Q 49.859375 40.875 45.40625 35.40625 
Q 44.1875 33.984375 37.640625 27.21875 
Q 31.109375 20.453125 19.1875 8.296875 
z
" id="DejaVuSans-50"/>
       <path d="M 54.890625 33.015625 
L 54.890625 0 
L 45.90625 0 
L 45.90625 32.71875 
Q 45.90625 40.484375 42.875 44.328125 
Q 39.84375 48.1875 33.796875 48.1875 
Q 26.515625 48.1875 22.3125 43.546875 
Q 18.109375 38.921875 18.109375 30.90625 
L 18.109375 0 
L 9.078125 0 
L 9.078125 54.6875 
L 18.109375 54.6875 
L 18.109375 46.1875 
Q 21.34375 51.125 25.703125 53.5625 
Q 30.078125 56 35.796875 56 
Q 45.21875 56 50.046875 50.171875 
Q 54.890625 44.34375 54.890625 33.015625 
z
" id="DejaVuSans-110"/>
       <path d="M 30.609375 48.390625 
Q 23.390625 48.390625 19.1875 42.75 
Q 14.984375 37.109375 14.984375 27.296875 
Q 14.984375 17.484375 19.15625 11.84375 
Q 23.34375 6.203125 30.609375 6.203125 
Q 37.796875 6.203125 41.984375 11.859375 
Q 46.1875 17.53125 46.1875 27.296875 
Q 46.1875 37.015625 41.984375 42.703125 
Q 37.796875 48.390625 30.609375 48.390625 
z
M 30.609375 56 
Q 42.328125 56 49.015625 48.375 
Q 55.71875 40.765625 55.71875 27.296875 
Q 55.71875 13.875 49.015625 6.21875 
Q 42.328125 -1.421875 30.609375 -1.421875 
Q 18.84375 -1.421875 12.171875 6.21875 
Q 5.515625 13.875 5.515625 27.296875 
Q 5.515625 40.765625 12.171875 48.375 
Q 18.84375 56 30.609375 56 
z
" id="DejaVuSans-111"/>
       <path d="M 41.109375 46.296875 
Q 39.59375 47.171875 37.8125 47.578125 
Q 36.03125 48 33.890625 48 
Q 26.265625 48 22.1875 43.046875 
Q 18.109375 38.09375 18.109375 28.8125 
L 18.109375 0 
L 9.078125 0 
L 9.078125 54.6875 
L 18.109375 54.6875 
L 18.109375 46.1875 
Q 20.953125 51.171875 25.484375 53.578125 
Q 30.03125 56 36.53125 56 
Q 37.453125 56 38.578125 55.875 
Q 39.703125 55.765625 41.0625 55.515625 
z
" id="DejaVuSans-114"/>
       <path d="M 10.6875 12.40625 
L 21 12.40625 
L 21 0 
L 10.6875 0 
z
" id="DejaVuSans-46"/>
       <path d="M 19.671875 64.796875 
L 19.671875 8.109375 
L 31.59375 8.109375 
Q 46.6875 8.109375 53.6875 14.9375 
Q 60.6875 21.78125 60.6875 36.53125 
Q 60.6875 51.171875 53.6875 57.984375 
Q 46.6875 64.796875 31.59375 64.796875 
z
M 9.8125 72.90625 
L 30.078125 72.90625 
Q 51.265625 72.90625 61.171875 64.09375 
Q 71.09375 55.28125 71.09375 36.53125 
Q 71.09375 17.671875 61.125 8.828125 
Q 51.171875 0 30.078125 0 
L 9.8125 0 
z
" id="DejaVuSans-68"/>
       <path d="M 9.8125 72.90625 
L 24.515625 72.90625 
L 43.109375 23.296875 
L 61.8125 72.90625 
L 76.515625 72.90625 
L 76.515625 0 
L 66.890625 0 
L 66.890625 64.015625 
L 48.09375 14.015625 
L 38.1875 14.015625 
L 19.390625 64.015625 
L 19.390625 0 
L 9.8125 0 
z
" id="DejaVuSans-77"/>
       <path d="M 19.671875 64.796875 
L 19.671875 37.40625 
L 32.078125 37.40625 
Q 38.96875 37.40625 42.71875 40.96875 
Q 46.484375 44.53125 46.484375 51.125 
Q 46.484375 57.671875 42.71875 61.234375 
Q 38.96875 64.796875 32.078125 64.796875 
z
M 9.8125 72.90625 
L 32.078125 72.90625 
Q 44.34375 72.90625 50.609375 67.359375 
Q 56.890625 61.8125 56.890625 51.125 
Q 56.890625 40.328125 50.609375 34.8125 
Q 44.34375 29.296875 32.078125 29.296875 
L 19.671875 29.296875 
L 19.671875 0 
L 9.8125 0 
z
" id="DejaVuSans-80"/>
      </defs>
      <use xlink:href="#DejaVuSans-50"/>
      <use x="63.623047" xlink:href="#DejaVuSans-110"/>
      <use x="127.001953" xlink:href="#DejaVuSans-100"/>
      <use x="190.478516" xlink:href="#DejaVuSans-32"/>
      <use x="222.265625" xlink:href="#DejaVuSans-111"/>
      <use x="283.447266" xlink:href="#DejaVuSans-114"/>
      <use x="322.810547" xlink:href="#DejaVuSans-100"/>
      <use x="386.287109" xlink:href="#DejaVuSans-46"/>
      <use x="418.074219" xlink:href="#DejaVuSans-32"/>
      <use x="449.861328" xlink:href="#DejaVuSans-68"/>
      <use x="526.863281" xlink:href="#DejaVuSans-77"/>
      <use x="613.142578" xlink:href="#DejaVuSans-80"/>
     </g>
    </g>
    <g id="line2d_18">
     <path d="M 292.271875 54.254687 
L 332.271875 54.254687 
" style="fill:none;stroke:#2ca02c;stroke-dasharray:5.55,2.4;stroke-dashoffset:0;stroke-opacity:0.9;stroke-width:1.5;"/>
    </g>
    <g id="line2d_19"/>
    <g id="text_3">
     <!-- Vel. goal DMP -->
     <g transform="translate(340.271875 57.754687)scale(0.1 -0.1)">
      <defs>
       <path d="M 28.609375 0 
L 0.78125 72.90625 
L 11.078125 72.90625 
L 34.1875 11.53125 
L 57.328125 72.90625 
L 67.578125 72.90625 
L 39.796875 0 
z
" id="DejaVuSans-86"/>
       <path d="M 9.421875 75.984375 
L 18.40625 75.984375 
L 18.40625 0 
L 9.421875 0 
z
" id="DejaVuSans-108"/>
       <path d="M 45.40625 27.984375 
Q 45.40625 37.75 41.375 43.109375 
Q 37.359375 48.484375 30.078125 48.484375 
Q 22.859375 48.484375 18.828125 43.109375 
Q 14.796875 37.75 14.796875 27.984375 
Q 14.796875 18.265625 18.828125 12.890625 
Q 22.859375 7.515625 30.078125 7.515625 
Q 37.359375 7.515625 41.375 12.890625 
Q 45.40625 18.265625 45.40625 27.984375 
z
M 54.390625 6.78125 
Q 54.390625 -7.171875 48.1875 -13.984375 
Q 42 -20.796875 29.203125 -20.796875 
Q 24.46875 -20.796875 20.265625 -20.09375 
Q 16.0625 -19.390625 12.109375 -17.921875 
L 12.109375 -9.1875 
Q 16.0625 -11.328125 19.921875 -12.34375 
Q 23.78125 -13.375 27.78125 -13.375 
Q 36.625 -13.375 41.015625 -8.765625 
Q 45.40625 -4.15625 45.40625 5.171875 
L 45.40625 9.625 
Q 42.625 4.78125 38.28125 2.390625 
Q 33.9375 0 27.875 0 
Q 17.828125 0 11.671875 7.65625 
Q 5.515625 15.328125 5.515625 27.984375 
Q 5.515625 40.671875 11.671875 48.328125 
Q 17.828125 56 27.875 56 
Q 33.9375 56 38.28125 53.609375 
Q 42.625 51.21875 45.40625 46.390625 
L 45.40625 54.6875 
L 54.390625 54.6875 
z
" id="DejaVuSans-103"/>
       <path d="M 34.28125 27.484375 
Q 23.390625 27.484375 19.1875 25 
Q 14.984375 22.515625 14.984375 16.5 
Q 14.984375 11.71875 18.140625 8.90625 
Q 21.296875 6.109375 26.703125 6.109375 
Q 34.1875 6.109375 38.703125 11.40625 
Q 43.21875 16.703125 43.21875 25.484375 
L 43.21875 27.484375 
z
M 52.203125 31.203125 
L 52.203125 0 
L 43.21875 0 
L 43.21875 8.296875 
Q 40.140625 3.328125 35.546875 0.953125 
Q 30.953125 -1.421875 24.3125 -1.421875 
Q 15.921875 -1.421875 10.953125 3.296875 
Q 6 8.015625 6 15.921875 
Q 6 25.140625 12.171875 29.828125 
Q 18.359375 34.515625 30.609375 34.515625 
L 43.21875 34.515625 
L 43.21875 35.40625 
Q 43.21875 41.609375 39.140625 45 
Q 35.0625 48.390625 27.6875 48.390625 
Q 23 48.390625 18.546875 47.265625 
Q 14.109375 46.140625 10.015625 43.890625 
L 10.015625 52.203125 
Q 14.9375 54.109375 19.578125 55.046875 
Q 24.21875 56 28.609375 56 
Q 40.484375 56 46.34375 49.84375 
Q 52.203125 43.703125 52.203125 31.203125 
z
" id="DejaVuSans-97"/>
      </defs>
      <use xlink:href="#DejaVuSans-86"/>
      <use x="60.658203" xlink:href="#DejaVuSans-101"/>
      <use x="122.181641" xlink:href="#DejaVuSans-108"/>
      <use x="149.964844" xlink:href="#DejaVuSans-46"/>
      <use x="181.751953" xlink:href="#DejaVuSans-32"/>
      <use x="213.539062" xlink:href="#DejaVuSans-103"/>
      <use x="277.015625" xlink:href="#DejaVuSans-111"/>
      <use x="338.197266" xlink:href="#DejaVuSans-97"/>
      <use x="399.476562" xlink:href="#DejaVuSans-108"/>
      <use x="427.259766" xlink:href="#DejaVuSans-32"/>
      <use x="459.046875" xlink:href="#DejaVuSans-68"/>
      <use x="536.048828" xlink:href="#DejaVuSans-77"/>
      <use x="622.328125" xlink:href="#DejaVuSans-80"/>
     </g>
    </g>
    <g id="line2d_20">
     <path d="M 292.271875 68.932813 
L 332.271875 68.932813 
" style="fill:none;stroke:#d62728;stroke-linecap:square;stroke-opacity:0.7;stroke-width:1.5;"/>
    </g>
    <g id="line2d_21"/>
    <g id="text_4">
     <!-- Acc. goal DMP -->
     <g transform="translate(340.271875 72.432813)scale(0.1 -0.1)">
      <defs>
       <path d="M 34.1875 63.1875 
L 20.796875 26.90625 
L 47.609375 26.90625 
z
M 28.609375 72.90625 
L 39.796875 72.90625 
L 67.578125 0 
L 57.328125 0 
L 50.6875 18.703125 
L 17.828125 18.703125 
L 11.1875 0 
L 0.78125 0 
z
" id="DejaVuSans-65"/>
       <path d="M 48.78125 52.59375 
L 48.78125 44.1875 
Q 44.96875 46.296875 41.140625 47.34375 
Q 37.3125 48.390625 33.40625 48.390625 
Q 24.65625 48.390625 19.8125 42.84375 
Q 14.984375 37.3125 14.984375 27.296875 
Q 14.984375 17.28125 19.8125 11.734375 
Q 24.65625 6.203125 33.40625 6.203125 
Q 37.3125 6.203125 41.140625 7.25 
Q 44.96875 8.296875 48.78125 10.40625 
L 48.78125 2.09375 
Q 45.015625 0.34375 40.984375 -0.53125 
Q 36.96875 -1.421875 32.421875 -1.421875 
Q 20.0625 -1.421875 12.78125 6.34375 
Q 5.515625 14.109375 5.515625 27.296875 
Q 5.515625 40.671875 12.859375 48.328125 
Q 20.21875 56 33.015625 56 
Q 37.15625 56 41.109375 55.140625 
Q 45.0625 54.296875 48.78125 52.59375 
z
" id="DejaVuSans-99"/>
      </defs>
      <use xlink:href="#DejaVuSans-65"/>
      <use x="66.658203" xlink:href="#DejaVuSans-99"/>
      <use x="121.638672" xlink:href="#DejaVuSans-99"/>
      <use x="176.619141" xlink:href="#DejaVuSans-46"/>
      <use x="208.40625" xlink:href="#DejaVuSans-32"/>
      <use x="240.193359" xlink:href="#DejaVuSans-103"/>
      <use x="303.669922" xlink:href="#DejaVuSans-111"/>
      <use x="364.851562" xlink:href="#DejaVuSans-97"/>
      <use x="426.130859" xlink:href="#DejaVuSans-108"/>
      <use x="453.914062" xlink:href="#DejaVuSans-32"/>
      <use x="485.701172" xlink:href="#DejaVuSans-68"/>
      <use x="562.703125" xlink:href="#DejaVuSans-77"/>
      <use x="648.982422" xlink:href="#DejaVuSans-80"/>
     </g>
    </g>
    <g id="line2d_22">
     <path d="M 292.271875 83.610938 
L 332.271875 83.610938 
" style="fill:none;stroke:#000000;stroke-dasharray:5.55,2.4;stroke-dashoffset:0;stroke-opacity:0.25;stroke-width:1.5;"/>
    </g>
    <g id="line2d_23"/>
    <g id="text_5">
     <!-- Reference -->
     <g transform="translate(340.271875 87.110938)scale(0.1 -0.1)">
      <use xlink:href="#DejaVuSans-82"/>
      <use x="64.982422" xlink:href="#DejaVuSans-101"/>
      <use x="126.505859" xlink:href="#DejaVuSans-102"/>
      <use x="161.710938" xlink:href="#DejaVuSans-101"/>
      <use x="223.234375" xlink:href="#DejaVuSans-114"/>
      <use x="262.097656" xlink:href="#DejaVuSans-101"/>
      <use x="323.621094" xlink:href="#DejaVuSans-110"/>
      <use x="387" xlink:href="#DejaVuSans-99"/>
      <use x="441.980469" xlink:href="#DejaVuSans-101"/>
     </g>
    </g>
    <g id="line2d_24"/>
    <g id="line2d_25">
     <g>
      <use style="stroke:#000000;stroke-linejoin:bevel;" x="312.271875" xlink:href="#mfa18b1c7b6" y="98.289062"/>
     </g>
    </g>
    <g id="text_6">
     <!-- Start -->
     <g transform="translate(340.271875 101.789062)scale(0.1 -0.1)">
      <defs>
       <path d="M 53.515625 70.515625 
L 53.515625 60.890625 
Q 47.90625 63.578125 42.921875 64.890625 
Q 37.9375 66.21875 33.296875 66.21875 
Q 25.25 66.21875 20.875 63.09375 
Q 16.5 59.96875 16.5 54.203125 
Q 16.5 49.359375 19.40625 46.890625 
Q 22.3125 44.4375 30.421875 42.921875 
L 36.375 41.703125 
Q 47.40625 39.59375 52.65625 34.296875 
Q 57.90625 29 57.90625 20.125 
Q 57.90625 9.515625 50.796875 4.046875 
Q 43.703125 -1.421875 29.984375 -1.421875 
Q 24.8125 -1.421875 18.96875 -0.25 
Q 13.140625 0.921875 6.890625 3.21875 
L 6.890625 13.375 
Q 12.890625 10.015625 18.65625 8.296875 
Q 24.421875 6.59375 29.984375 6.59375 
Q 38.421875 6.59375 43.015625 9.90625 
Q 47.609375 13.234375 47.609375 19.390625 
Q 47.609375 24.75 44.3125 27.78125 
Q 41.015625 30.8125 33.5 32.328125 
L 27.484375 33.5 
Q 16.453125 35.6875 11.515625 40.375 
Q 6.59375 45.0625 6.59375 53.421875 
Q 6.59375 63.09375 13.40625 68.65625 
Q 20.21875 74.21875 32.171875 74.21875 
Q 37.3125 74.21875 42.625 73.28125 
Q 47.953125 72.359375 53.515625 70.515625 
z
" id="DejaVuSans-83"/>
       <path d="M 18.3125 70.21875 
L 18.3125 54.6875 
L 36.8125 54.6875 
L 36.8125 47.703125 
L 18.3125 47.703125 
L 18.3125 18.015625 
Q 18.3125 11.328125 20.140625 9.421875 
Q 21.96875 7.515625 27.59375 7.515625 
L 36.8125 7.515625 
L 36.8125 0 
L 27.59375 0 
Q 17.1875 0 13.234375 3.875 
Q 9.28125 7.765625 9.28125 18.015625 
L 9.28125 47.703125 
L 2.6875 47.703125 
L 2.6875 54.6875 
L 9.28125 54.6875 
L 9.28125 70.21875 
z
" id="DejaVuSans-116"/>
      </defs>
      <use xlink:href="#DejaVuSans-83"/>
      <use x="63.476562" xlink:href="#DejaVuSans-116"/>
      <use x="102.685547" xlink:href="#DejaVuSans-97"/>
      <use x="163.964844" xlink:href="#DejaVuSans-114"/>
      <use x="205.078125" xlink:href="#DejaVuSans-116"/>
     </g>
    </g>
    <g id="line2d_26">
     <path d="M 292.271875 112.967187 
L 299.271875 112.967187 
" style="fill:none;stroke:#1f77b4;stroke-linecap:square;stroke-opacity:0.7;stroke-width:1.5;"/>
    </g>
    <g id="line2d_27">
     <g>
      <use style="fill:#1f77b4;fill-opacity:0.7;stroke:#1f77b4;stroke-opacity:0.7;" x="295.771875" xlink:href="#mc896355c81" y="112.967187"/>
     </g>
    </g>
    <g id="line2d_28">
     <path d="M 303.271875 112.967187 
L 310.271875 112.967187 
" style="fill:none;stroke:#ff7f0e;stroke-linecap:square;stroke-opacity:0.7;stroke-width:1.5;"/>
    </g>
    <g id="line2d_29">
     <g>
      <use style="fill:#ff7f0e;fill-opacity:0.7;stroke:#ff7f0e;stroke-opacity:0.7;" x="306.771875" xlink:href="#m84b80ae36b" y="112.967187"/>
     </g>
    </g>
    <g id="line2d_30">
     <path d="M 314.271875 112.967187 
L 321.271875 112.967187 
" style="fill:none;stroke:#2ca02c;stroke-linecap:square;stroke-opacity:0.7;stroke-width:1.5;"/>
    </g>
    <g id="line2d_31">
     <g>
      <use style="fill:#2ca02c;fill-opacity:0.7;stroke:#2ca02c;stroke-opacity:0.7;" x="317.771875" xlink:href="#m89db7201d6" y="112.967187"/>
     </g>
    </g>
    <g id="line2d_32">
     <path d="M 325.271875 112.967187 
L 332.271875 112.967187 
" style="fill:none;stroke:#d62728;stroke-linecap:square;stroke-opacity:0.7;stroke-width:1.5;"/>
    </g>
    <g id="line2d_33">
     <g>
      <use style="fill:#d62728;fill-opacity:0.7;stroke:#d62728;stroke-opacity:0.7;" x="328.771875" xlink:href="#m0161bec1be" y="112.967187"/>
     </g>
    </g>
    <g id="text_7">
     <!-- End -->
     <g transform="translate(340.271875 116.467187)scale(0.1 -0.1)">
      <defs>
       <path d="M 9.8125 72.90625 
L 55.90625 72.90625 
L 55.90625 64.59375 
L 19.671875 64.59375 
L 19.671875 43.015625 
L 54.390625 43.015625 
L 54.390625 34.71875 
L 19.671875 34.71875 
L 19.671875 8.296875 
L 56.78125 8.296875 
L 56.78125 0 
L 9.8125 0 
z
" id="DejaVuSans-69"/>
      </defs>
      <use xlink:href="#DejaVuSans-69"/>
      <use x="63.183594" xlink:href="#DejaVuSans-110"/>
      <use x="126.5625" xlink:href="#DejaVuSans-100"/>
     </g>
    </g>
   </g>
  </g>
 </g>
 <defs>
  <clipPath id="p82f08bba7a">
   <rect height="194.4" width="410.4" x="10.8" y="10.8"/>
  </clipPath>
 </defs>
</svg>
