<?xml version="1.0" encoding="utf-8" standalone="no"?>
<!DOCTYPE svg PUBLIC "-//W3C//DTD SVG 1.1//EN"
  "http://www.w3.org/Graphics/SVG/1.1/DTD/svg11.dtd">
<!-- Created with matplotlib (https://matplotlib.org/) -->
<svg height="216pt" version="1.1" viewBox="0 0 432 216" width="432pt" xmlns="http://www.w3.org/2000/svg" xmlns:xlink="http://www.w3.org/1999/xlink">
 <metadata>
  <rdf:RDF xmlns:cc="http://creativecommons.org/ns#" xmlns:dc="http://purl.org/dc/elements/1.1/" xmlns:rdf="http://www.w3.org/1999/02/22-rdf-syntax-ns#">
   <cc:Work>
    <dc:type rdf:resource="http://purl.org/dc/dcmitype/StillImage"/>
    <dc:date>2022-11-04T02:08:15.156454</dc:date>
    <dc:format>image/svg+xml</dc:format>
    <dc:creator>
     <cc:Agent>
      <dc:title>Matplotlib v3.3.0, https://matplotlib.org/</dc:title>
     </cc:Agent>
    </dc:creator>
   </cc:Work>
  </rdf:RDF>
 </metadata>
 <defs>
  <style type="text/css">*{stroke-linecap:butt;stroke-linejoin:round;}</style>
 </defs>
 <g id="figure_1">
  <g id="patch_1">
   <path d="M 0 216 
L 432 216 
L 432 0 
L 0 0 
z
" style="fill:#ffffff;"/>
  </g>
  <g id="axes_1">
   <g id="matplotlib.axis_1"/>
   <g id="matplotlib.axis_2"/>
   <g id="line2d_1">
    <path clip-path="url(#p9b7f9b3bb3)" d="M 66.766948 173.656399 
L 59.767109 165.003373 
L 55.253237 159.022529 
L 53.173797 156.095917 
L 45.812533 144.795546 
L 42.696186 139.508768 
L 39.977623 134.349116 
L 37.676884 129.149473 
L 34.059479 119.973532 
L 32.750052 115.910617 
L 31.927987 112.041315 
L 31.484517 108.41974 
L 31.248537 103.537293 
L 31.339078 100.660064 
L 31.777436 98.032132 
L 32.41824 95.720947 
L 33.130845 93.747157 
L 34.169747 91.74001 
L 35.471193 89.732662 
L 37.770698 86.820934 
L 39.558991 84.918048 
L 48.014929 76.518801 
L 50.549384 74.440593 
L 57.446286 69.043145 
L 65.872343 61.992554 
L 68.829688 60.135263 
L 72.029785 58.36663 
L 75.499778 56.769597 
L 79.204519 55.36194 
L 83.115068 54.135679 
L 87.255276 53.105654 
L 93.69936 51.856035 
L 105.285948 50.017014 
L 110.203544 49.494548 
L 115.313678 49.185332 
L 120.59326 49.09367 
L 126.004315 49.287754 
L 131.276084 49.756936 
L 136.174066 50.466043 
L 140.658662 51.474324 
L 144.704563 52.659293 
L 148.362464 53.997256 
L 151.826708 55.654725 
L 155.331122 57.683705 
L 158.726288 60.047659 
L 162.029972 62.753736 
L 165.213088 65.791221 
L 168.278762 69.122903 
L 171.249412 72.713723 
L 174.151602 76.560944 
L 186.229844 93.458138 
L 189.66406 97.771784 
L 193.321457 102.020399 
L 197.152998 106.229471 
L 201.217124 110.388554 
L 205.511514 114.468551 
L 205.511514 114.468551 
" style="fill:none;stroke:#1f77b4;stroke-dasharray:9.6,2.4,1.5,2.4;stroke-dashoffset:0;stroke-opacity:0.9;stroke-width:1.5;"/>
   </g>
   <g id="line2d_2">
    <defs>
     <path d="M 0 3 
C 0.795609 3 1.55874 2.683901 2.12132 2.12132 
C 2.683901 1.55874 3 0.795609 3 0 
C 3 -0.795609 2.683901 -1.55874 2.12132 -2.12132 
C 1.55874 -2.683901 0.795609 -3 0 -3 
C -0.795609 -3 -1.55874 -2.683901 -2.12132 -2.12132 
C -2.683901 -1.55874 -3 -0.795609 -3 0 
C -3 0.795609 -2.683901 1.55874 -2.12132 2.12132 
C -1.55874 2.683901 -0.795609 3 0 3 
z
" id="m9857f3c26e" style="stroke:#1f77b4;stroke-opacity:0.7;"/>
    </defs>
    <g clip-path="url(#p9b7f9b3bb3)">
     <use style="fill:#1f77b4;fill-opacity:0.7;stroke:#1f77b4;stroke-opacity:0.7;" x="205.511514" xlink:href="#m9857f3c26e" y="114.468551"/>
    </g>
   </g>
   <g id="line2d_3">
    <path clip-path="url(#p9b7f9b3bb3)" d="M 66.766948 173.656399 
L 62.110394 168.135883 
L 57.69009 163.026242 
L 53.658894 157.911535 
L 51.818236 155.403241 
L 48.564945 150.41808 
L 45.725175 145.623013 
L 44.512835 143.273788 
L 42.483092 138.67935 
L 41.645649 136.459559 
L 40.917667 134.150661 
L 39.745094 129.414012 
L 39.305973 127.140062 
L 39.001958 124.94336 
L 38.818119 122.736839 
L 38.750644 120.49221 
L 38.804713 118.217251 
L 39.52689 111.600603 
L 40.37989 106.904393 
L 42.18838 99.827799 
L 42.901119 97.464317 
L 44.244238 93.885961 
L 46.125627 90.030782 
L 49.192747 84.794016 
L 51.526214 81.225165 
L 53.882321 78.13166 
L 57.14709 74.243752 
L 60.076818 71.27883 
L 63.953809 68.000791 
L 65.367877 66.950411 
L 69.485018 64.478163 
L 73.323677 62.489106 
L 86.594588 57.11589 
L 90.571087 55.431253 
L 94.0652 54.254869 
L 96.229152 53.647152 
L 100.712313 52.726543 
L 104.923806 52.141176 
L 112.675882 51.572913 
L 120.577433 50.130734 
L 125.221188 49.222656 
L 127.32448 48.88979 
L 133.144685 48.301329 
L 138.812927 48.266337 
L 142.446551 48.549975 
L 145.901189 49.186834 
L 147.79725 49.673209 
L 151.568176 50.96885 
L 155.280426 52.707355 
L 157.105135 53.735407 
L 160.656658 56.111644 
L 164.067841 58.880152 
L 167.28197 62.047497 
L 170.280663 65.578307 
L 173.073851 69.417638 
L 177.018014 75.577165 
L 179.56148 79.801547 
L 183.841725 87.51175 
L 188.643753 96.758751 
L 192.988087 104.034966 
L 195.171653 107.506394 
L 200.0259 114.210064 
L 203.442306 118.129153 
L 207.482446 122.229078 
L 211.879773 126.085737 
L 216.579861 129.734347 
L 219.052927 131.450502 
L 222.909429 133.860925 
L 228.290222 136.815715 
L 233.853801 139.361939 
L 239.668072 141.587536 
L 245.673125 143.510172 
L 248.736423 144.330892 
L 253.931679 145.459259 
L 260.31665 146.467764 
L 266.822408 147.123139 
L 273.423956 147.557799 
L 273.423956 147.557799 
" style="fill:none;stroke:#ff7f0e;stroke-dasharray:1.5,2.475;stroke-dashoffset:0;stroke-opacity:0.9;stroke-width:1.5;"/>
   </g>
   <g id="line2d_4">
    <defs>
     <path d="M 0 3 
C 0.795609 3 1.55874 2.683901 2.12132 2.12132 
C 2.683901 1.55874 3 0.795609 3 0 
C 3 -0.795609 2.683901 -1.55874 2.12132 -2.12132 
C 1.55874 -2.683901 0.795609 -3 0 -3 
C -0.795609 -3 -1.55874 -2.683901 -2.12132 -2.12132 
C -2.683901 -1.55874 -3 -0.795609 -3 0 
C -3 0.795609 -2.683901 1.55874 -2.12132 2.12132 
C -1.55874 2.683901 -0.795609 3 0 3 
z
" id="m2ccd99f56e" style="stroke:#ff7f0e;stroke-opacity:0.7;"/>
    </defs>
    <g clip-path="url(#p9b7f9b3bb3)">
     <use style="fill:#ff7f0e;fill-opacity:0.7;stroke:#ff7f0e;stroke-opacity:0.7;" x="273.423956" xlink:href="#m2ccd99f56e" y="147.557799"/>
    </g>
   </g>
   <g id="line2d_5">
    <path clip-path="url(#p9b7f9b3bb3)" d="M 66.766948 173.656399 
L 60.127771 165.494971 
L 56.343922 160.448792 
L 54.602279 157.980534 
L 48.972077 149.338626 
L 45.204458 143.130119 
L 42.970835 138.930328 
L 42.01409 136.827843 
L 40.515691 132.535358 
L 39.46038 128.055067 
L 38.797204 123.445812 
L 38.546204 119.194888 
L 38.704309 114.431966 
L 38.907472 112.177519 
L 39.507768 108.365626 
L 40.033373 106.068609 
L 41.410991 101.462358 
L 43.141247 96.877201 
L 44.132491 94.686932 
L 46.279607 90.71866 
L 48.720181 87.04537 
L 51.374901 83.416308 
L 54.367307 79.886709 
L 57.652699 76.459172 
L 61.225764 73.138161 
L 65.081145 70.003812 
L 69.24841 67.110175 
L 73.699291 64.473276 
L 78.779162 61.77296 
L 83.739193 59.657855 
L 94.158656 55.535109 
L 96.857649 54.599795 
L 102.385921 52.998278 
L 108.120562 51.742652 
L 114.024718 50.777815 
L 119.961602 50.222956 
L 125.586445 49.972293 
L 133.472731 50.039902 
L 138.295718 50.416502 
L 142.852843 50.988352 
L 146.969446 51.990244 
L 148.998449 52.611433 
L 153.077066 54.276546 
L 157.125601 56.283962 
L 160.421293 58.229911 
L 164.259078 60.929756 
L 167.929958 64.037764 
L 171.151967 67.197443 
L 174.518249 70.941974 
L 179.492045 76.809501 
L 185.946889 85.064429 
L 190.45101 91.753079 
L 197.801771 104.218402 
L 201.069969 108.934786 
L 204.676906 113.52483 
L 209.922807 119.463462 
L 216.395562 125.561679 
L 218.68016 127.466516 
L 223.483544 131.076054 
L 228.644776 134.336114 
L 233.553148 137.089961 
L 239.106953 139.773263 
L 244.89791 142.144928 
L 250.890971 144.178347 
L 257.073419 145.834403 
L 263.419856 147.162436 
L 269.914159 148.127407 
L 276.527254 148.792354 
L 283.231602 149.185879 
L 294.059039 149.687968 
L 305.091485 150.464729 
L 305.091485 150.464729 
" style="fill:none;stroke:#2ca02c;stroke-dasharray:5.55,2.4;stroke-dashoffset:0;stroke-opacity:0.9;stroke-width:1.5;"/>
   </g>
   <g id="line2d_6">
    <defs>
     <path d="M 0 3 
C 0.795609 3 1.55874 2.683901 2.12132 2.12132 
C 2.683901 1.55874 3 0.795609 3 0 
C 3 -0.795609 2.683901 -1.55874 2.12132 -2.12132 
C 1.55874 -2.683901 0.795609 -3 0 -3 
C -0.795609 -3 -1.55874 -2.683901 -2.12132 -2.12132 
C -2.683901 -1.55874 -3 -0.795609 -3 0 
C -3 0.795609 -2.683901 1.55874 -2.12132 2.12132 
C -1.55874 2.683901 -0.795609 3 0 3 
z
" id="m4ebbb47189" style="stroke:#2ca02c;stroke-opacity:0.7;"/>
    </defs>
    <g clip-path="url(#p9b7f9b3bb3)">
     <use style="fill:#2ca02c;fill-opacity:0.7;stroke:#2ca02c;stroke-opacity:0.7;" x="305.091485" xlink:href="#m4ebbb47189" y="150.464729"/>
    </g>
   </g>
   <g id="line2d_7">
    <path clip-path="url(#p9b7f9b3bb3)" d="M 66.766948 173.656399 
L 60.053146 165.415369 
L 58.047479 162.830813 
L 53.087851 155.78957 
L 48.49162 148.464106 
L 44.592863 141.601278 
L 42.431938 137.207223 
L 41.525518 135.081021 
L 40.124026 130.6626 
L 39.178198 126.190446 
L 38.70886 121.716879 
L 38.643111 119.446695 
L 38.857101 114.778327 
L 39.455425 110.038472 
L 39.924181 107.661607 
L 40.523985 105.290906 
L 42.076117 100.56495 
L 44.024913 95.872238 
L 46.33399 91.394883 
L 49.001869 87.133019 
L 51.968675 82.910542 
L 53.546855 80.864884 
L 55.770973 78.16524 
L 59.426622 74.273791 
L 63.413455 70.535873 
L 67.652632 67.045144 
L 72.198425 63.944331 
L 74.573609 62.443085 
L 79.934743 59.419206 
L 85.066554 56.804881 
L 90.396416 54.393628 
L 95.964164 52.303652 
L 101.731264 50.549388 
L 107.68449 49.174258 
L 113.738277 48.12482 
L 119.723962 47.528872 
L 122.546203 47.385405 
L 125.261493 47.371866 
L 130.46516 47.678011 
L 132.929708 47.96407 
L 135.340322 48.40012 
L 139.651906 49.528128 
L 141.93563 50.263284 
L 144.213682 51.139799 
L 148.755586 53.225561 
L 153.166285 55.691712 
L 157.424091 58.596401 
L 161.498394 61.921897 
L 163.45851 63.724401 
L 167.193962 67.614977 
L 170.746269 71.829384 
L 172.450656 74.04597 
L 176.783009 80.269563 
L 180.022883 85.100363 
L 181.70501 87.483505 
L 186.822911 94.245525 
L 190.615582 99.067223 
L 194.583797 103.602503 
L 198.369014 107.662952 
L 202.773851 111.959247 
L 207.37071 116.195623 
L 212.175046 120.258628 
L 217.158537 124.210759 
L 219.770262 126.070897 
L 225.214965 129.475322 
L 230.941855 132.544706 
L 236.907057 135.29806 
L 243.027203 137.857128 
L 246.151357 139.06754 
L 252.525428 141.198965 
L 255.755692 142.151204 
L 265.152443 144.370121 
L 275.372965 146.466128 
L 282.308592 147.610007 
L 292.916026 148.941896 
L 300.147063 149.62769 
L 311.158846 150.322406 
L 318.640372 150.642853 
L 322.410281 150.739401 
L 322.410281 150.739401 
" style="fill:none;stroke:#d62728;stroke-linecap:square;stroke-opacity:0.7;stroke-width:1.5;"/>
   </g>
   <g id="line2d_8">
    <defs>
     <path d="M 0 3 
C 0.795609 3 1.55874 2.683901 2.12132 2.12132 
C 2.683901 1.55874 3 0.795609 3 0 
C 3 -0.795609 2.683901 -1.55874 2.12132 -2.12132 
C 1.55874 -2.683901 0.795609 -3 0 -3 
C -0.795609 -3 -1.55874 -2.683901 -2.12132 -2.12132 
C -2.683901 -1.55874 -3 -0.795609 -3 0 
C -3 0.795609 -2.683901 1.55874 -2.12132 2.12132 
C -1.55874 2.683901 -0.795609 3 0 3 
z
" id="meed8861bb4" style="stroke:#d62728;stroke-opacity:0.7;"/>
    </defs>
    <g clip-path="url(#p9b7f9b3bb3)">
     <use style="fill:#d62728;fill-opacity:0.7;stroke:#d62728;stroke-opacity:0.7;" x="322.410281" xlink:href="#meed8861bb4" y="150.739401"/>
    </g>
   </g>
   <g id="line2d_9">
    <defs>
     <path d="M 0 -3 
L -0.673542 -0.927051 
L -2.85317 -0.927051 
L -1.089814 0.354102 
L -1.763356 2.427051 
L -0 1.145898 
L 1.763356 2.427051 
L 1.089814 0.354102 
L 2.85317 -0.927051 
L 0.673542 -0.927051 
z
" id="m2d63440a5c" style="stroke:#000000;stroke-linejoin:bevel;"/>
    </defs>
    <g clip-path="url(#p9b7f9b3bb3)">
     <use style="stroke:#000000;stroke-linejoin:bevel;" x="66.766948" xlink:href="#m2d63440a5c" y="173.656399"/>
    </g>
   </g>
   <g id="line2d_10">
    <path clip-path="url(#p9b7f9b3bb3)" d="M 64.005726 175.946937 
L 60.706593 172.304918 
L 57.627794 168.600424 
L 54.787889 164.853629 
L 52.523286 161.535419 
L 50.189125 157.693107 
L 48.103946 153.803944 
L 46.262571 149.877681 
L 44.886768 146.408719 
L 43.712828 142.916219 
L 42.611988 138.908247 
L 41.759997 134.894828 
L 41.127823 130.885512 
L 40.732326 126.887807 
L 40.590495 122.913527 
L 40.666667 119.465816 
L 40.996663 115.573694 
L 41.489607 112.220985 
L 42.181924 108.918982 
L 43.073929 105.683333 
L 44.302253 102.050057 
L 45.914507 98.027267 
L 47.556418 94.517641 
L 49.651236 90.658539 
L 51.990083 86.879912 
L 54.54395 83.177099 
L 57.004721 79.967498 
L 59.987712 76.465853 
L 62.832526 73.465825 
L 66.245087 70.236072 
L 69.470044 67.515514 
L 72.851289 64.926295 
L 76.836419 62.172515 
L 80.50944 59.846424 
L 85.276845 57.147924 
L 89.212702 55.171936 
L 93.228542 53.402922 
L 97.298922 51.841644 
L 101.410638 50.505743 
L 105.551294 49.405733 
L 109.699034 48.529599 
L 113.324442 47.965751 
L 117.4512 47.566039 
L 121.540881 47.416071 
L 125.077116 47.509818 
L 129.067154 47.865347 
L 132.499207 48.386759 
L 136.344781 49.211223 
L 139.629948 50.131048 
L 142.817951 51.255671 
L 145.915311 52.565524 
L 149.369142 54.291251 
L 152.321153 55.980664 
L 155.583119 58.127847 
L 158.749557 60.480099 
L 161.819334 63.021682 
L 164.774561 65.755915 
L 167.964872 69.039132 
L 171.37823 72.897114 
L 174.667847 76.952564 
L 177.491074 80.787299 
L 181.743231 86.98758 
L 186.976533 94.705224 
L 190.324053 99.173142 
L 193.535918 103.114558 
L 196.929291 106.971621 
L 200.518843 110.718147 
L 204.29682 114.344138 
L 208.269508 117.828254 
L 212.435517 121.15747 
L 216.296626 123.980854 
L 221.300885 127.342911 
L 225.981874 130.193418 
L 230.810779 132.879769 
L 235.237932 135.095525 
L 239.784711 137.123138 
L 246.729652 139.965666 
L 250.881713 141.391121 
L 255.713661 142.828211 
L 261.860006 144.401751 
L 268.737753 145.915327 
L 275.087082 147.101709 
L 281.529936 148.077822 
L 290.019564 149.109012 
L 297.302339 149.795344 
L 305.338145 150.336349 
L 314.148044 150.69867 
L 323.061285 150.85413 
L 335.578076 150.815125 
L 365.49429 150.318191 
L 374.182213 149.963402 
L 382.904596 149.360998 
L 391.541297 148.508469 
L 401.204768 147.321011 
L 401.876523 147.228385 
L 401.876523 147.228385 
" style="fill:none;stroke:#000000;stroke-dasharray:5.55,2.4;stroke-dashoffset:0;stroke-opacity:0.25;stroke-width:1.5;"/>
   </g>
   <g id="line2d_11">
    <path clip-path="url(#p9b7f9b3bb3)" d="M 61.431417 178.795439 
L 55.725771 175.020279 
L 52.680575 172.801418 
L 49.169472 170.008113 
L 46.419213 167.530403 
L 44.242962 165.353228 
L 42.626491 163.57466 
L 40.57313 161.0171 
L 38.2267 157.61328 
L 36.935319 155.498925 
L 35.387141 152.605673 
L 34.039491 149.66582 
L 32.59636 145.922163 
L 31.857573 143.606959 
L 30.840417 139.639291 
L 30.183252 136.412374 
L 29.82287 133.975754 
L 29.542418 130.728469 
L 29.454545 126.707931 
L 29.535607 124.273884 
L 29.836902 120.969391 
L 30.387965 117.653389 
L 31.209539 114.384762 
L 32.517693 110.419563 
L 33.436201 108.159731 
L 34.802543 105.316075 
L 36.318425 102.630458 
L 38.478717 99.383012 
L 40.387692 96.883423 
L 43.957664 92.673274 
L 47.133485 89.257104 
L 58.895087 77.309731 
L 61.69545 74.790879 
L 65.13586 71.852508 
L 75.813139 63.452413 
L 80.634166 59.841157 
L 87.981857 54.632525 
L 96.089397 49.260136 
L 100.009259 46.817373 
L 107.560693 42.3644 
L 109.038386 41.616172 
L 112.068402 40.2837 
L 115.938849 38.924228 
L 119.8342 37.931625 
L 123.871983 37.410457 
L 128.030168 37.223571 
L 130.540116 37.256108 
L 134.703734 37.538569 
L 136.346212 37.731568 
L 139.556635 38.343489 
L 143.48915 39.502317 
L 146.621503 40.683342 
L 149.696317 42.079526 
L 151.942164 43.249218 
L 155.448896 45.498657 
L 158.076835 47.465825 
L 160.570372 49.627758 
L 162.964656 51.989731 
L 165.205144 54.531667 
L 167.252868 57.219874 
L 168.645178 59.304474 
L 170.876192 63.461647 
L 171.792737 65.450811 
L 175.630884 75.581916 
L 176.971865 78.938882 
L 178.734718 82.890618 
L 180.012705 85.46438 
L 183.947362 92.264508 
L 186.215415 95.828805 
L 189.823782 100.919102 
L 193.253766 105.315545 
L 195.543644 107.984571 
L 198.927078 111.588702 
L 201.458783 114.052516 
L 204.625745 116.851074 
L 209.528898 120.794267 
L 213.424776 123.678187 
L 218.018707 126.764251 
L 224.030576 130.344678 
L 225.890684 131.328618 
L 232.222273 134.330385 
L 236.740043 136.129641 
L 239.35582 137.060132 
L 245.995757 139.162059 
L 249.383606 140.053428 
L 252.80675 140.79912 
L 259.004552 141.858963 
L 263.814723 142.465299 
L 268.716943 142.810746 
L 272.320055 142.89865 
L 278.848845 142.802728 
L 289.003962 142.349046 
L 315.058019 140.930277 
L 360.304464 138.547071 
L 401.898446 136.309419 
L 401.898446 136.309419 
" style="fill:none;stroke:#000000;stroke-linecap:square;stroke-opacity:0.25;"/>
   </g>
   <g id="line2d_12">
    <path clip-path="url(#p9b7f9b3bb3)" d="M 68.642404 170.297311 
L 60.879971 165.189336 
L 58.592909 163.499288 
L 55.865129 161.260336 
L 52.414061 157.938816 
L 50.675084 155.992779 
L 49.053234 153.935957 
L 47.150378 151.244877 
L 45.86361 148.954306 
L 44.17905 145.462848 
L 43.013114 142.459688 
L 42.220361 139.960516 
L 41.569734 137.394829 
L 41.066604 134.788055 
L 40.808202 132.824156 
L 40.407485 127.62029 
L 40.515724 125.098237 
L 40.811608 121.924515 
L 41.575606 118.130411 
L 42.10542 116.27867 
L 43.204325 113.310889 
L 44.275477 110.961323 
L 45.226124 109.195029 
L 46.678148 106.886446 
L 49.117049 103.545523 
L 50.414328 101.924594 
L 54.175328 97.817769 
L 65.949251 85.784755 
L 68.068704 83.850081 
L 72.993008 79.655073 
L 79.19719 74.745223 
L 89.528275 66.989787 
L 93.618009 64.094999 
L 100.784041 59.327246 
L 110.753917 53.115921 
L 115.475433 50.755403 
L 117.912962 49.808686 
L 119.760541 49.246128 
L 122.238801 48.715351 
L 125.398754 48.348217 
L 127.977924 48.219386 
L 130.571191 48.236413 
L 133.148503 48.401536 
L 135.045357 48.648247 
L 137.50515 49.167923 
L 140.5122 50.092593 
L 142.903869 51.009315 
L 144.654671 51.820966 
L 147.45149 53.3847 
L 149.03282 54.426185 
L 151.509022 56.3186 
L 153.399823 57.982453 
L 155.216091 59.782866 
L 156.497068 61.221616 
L 158.051467 63.252708 
L 159.72848 65.90573 
L 160.662324 67.667368 
L 161.834599 70.335917 
L 164.789785 78.087993 
L 166.715295 83.012062 
L 168.563628 87.137619 
L 170.965131 91.809018 
L 173.184505 95.704684 
L 176.337814 100.795478 
L 180.249267 106.48115 
L 183.546685 110.884415 
L 186.566691 114.511808 
L 189.20703 117.406124 
L 193.62683 121.779831 
L 196.476157 124.363525 
L 200.555391 127.792575 
L 202.932555 129.640608 
L 209.036575 133.990769 
L 213.479832 136.902039 
L 218.131314 139.633955 
L 221.540989 141.462474 
L 225.023633 143.156902 
L 232.153272 146.1201 
L 235.739647 147.449727 
L 242.284731 149.558176 
L 246.011696 150.559038 
L 249.031443 151.2568 
L 255.140222 152.429712 
L 258.217011 152.88514 
L 263.609975 153.489488 
L 267.387593 153.760781 
L 271.829424 153.892667 
L 278.483355 153.805239 
L 290.339308 153.239232 
L 347.741925 150.218327 
L 402.489036 147.287116 
L 402.489036 147.287116 
" style="fill:none;stroke:#000000;stroke-linecap:square;stroke-opacity:0.25;"/>
   </g>
   <g id="line2d_13">
    <defs>
     <path d="M 0 3 
C 0.795609 3 1.55874 2.683901 2.12132 2.12132 
C 2.683901 1.55874 3 0.795609 3 0 
C 3 -0.795609 2.683901 -1.55874 2.12132 -2.12132 
C 1.55874 -2.683901 0.795609 -3 0 -3 
C -0.795609 -3 -1.55874 -2.683901 -2.12132 -2.12132 
C -2.683901 -1.55874 -3 -0.795609 -3 0 
C -3 0.795609 -2.683901 1.55874 -2.12132 2.12132 
C -1.55874 2.683901 -0.795609 3 0 3 
z
" id="m80b81ceb8d" style="stroke:#000000;stroke-opacity:0.25;"/>
    </defs>
    <g clip-path="url(#p9b7f9b3bb3)">
     <use style="fill-opacity:0.25;stroke:#000000;stroke-opacity:0.25;" x="402.545455" xlink:href="#m80b81ceb8d" y="147.134235"/>
    </g>
   </g>
   <g id="legend_1">
    <g id="patch_2">
     <path d="M 289.271875 123.546875 
L 414.2 123.546875 
Q 416.2 123.546875 416.2 121.546875 
L 416.2 17.8 
Q 416.2 15.8 414.2 15.8 
L 289.271875 15.8 
Q 287.271875 15.8 287.271875 17.8 
L 287.271875 121.546875 
Q 287.271875 123.546875 289.271875 123.546875 
z
" style="fill:#ffffff;opacity:0.8;stroke:#cccccc;stroke-linejoin:miter;"/>
    </g>
    <g id="line2d_14">
     <path d="M 292.271875 24.898438 
L 332.271875 24.898438 
" style="fill:none;stroke:#1f77b4;stroke-dasharray:9.6,2.4,1.5,2.4;stroke-dashoffset:0;stroke-opacity:0.9;stroke-width:1.5;"/>
    </g>
    <g id="line2d_15"/>
    <g id="text_1">
     <!-- Fixed Ref -->
     <g transform="translate(340.271875 28.398438)scale(0.1 -0.1)">
      <defs>
       <path d="M 9.8125 72.90625 
L 51.703125 72.90625 
L 51.703125 64.59375 
L 19.671875 64.59375 
L 19.671875 43.109375 
L 48.578125 43.109375 
L 48.578125 34.8125 
L 19.671875 34.8125 
L 19.671875 0 
L 9.8125 0 
z
" id="DejaVuSans-70"/>
       <path d="M 9.421875 54.6875 
L 18.40625 54.6875 
L 18.40625 0 
L 9.421875 0 
z
M 9.421875 75.984375 
L 18.40625 75.984375 
L 18.40625 64.59375 
L 9.421875 64.59375 
z
" id="DejaVuSans-105"/>
       <path d="M 54.890625 54.6875 
L 35.109375 28.078125 
L 55.90625 0 
L 45.3125 0 
L 29.390625 21.484375 
L 13.484375 0 
L 2.875 0 
L 24.125 28.609375 
L 4.6875 54.6875 
L 15.28125 54.6875 
L 29.78125 35.203125 
L 44.28125 54.6875 
z
" id="DejaVuSans-120"/>
       <path d="M 56.203125 29.59375 
L 56.203125 25.203125 
L 14.890625 25.203125 
Q 15.484375 15.921875 20.484375 11.0625 
Q 25.484375 6.203125 34.421875 6.203125 
Q 39.59375 6.203125 44.453125 7.46875 
Q 49.3125 8.734375 54.109375 11.28125 
L 54.109375 2.78125 
Q 49.265625 0.734375 44.1875 -0.34375 
Q 39.109375 -1.421875 33.890625 -1.421875 
Q 20.796875 -1.421875 13.15625 6.1875 
Q 5.515625 13.8125 5.515625 26.8125 
Q 5.515625 40.234375 12.765625 48.109375 
Q 20.015625 56 32.328125 56 
Q 43.359375 56 49.78125 48.890625 
Q 56.203125 41.796875 56.203125 29.59375 
z
M 47.21875 32.234375 
Q 47.125 39.59375 43.09375 43.984375 
Q 39.0625 48.390625 32.421875 48.390625 
Q 24.90625 48.390625 20.390625 44.140625 
Q 15.875 39.890625 15.1875 32.171875 
z
" id="DejaVuSans-101"/>
       <path d="M 45.40625 46.390625 
L 45.40625 75.984375 
L 54.390625 75.984375 
L 54.390625 0 
L 45.40625 0 
L 45.40625 8.203125 
Q 42.578125 3.328125 38.25 0.953125 
Q 33.9375 -1.421875 27.875 -1.421875 
Q 17.96875 -1.421875 11.734375 6.484375 
Q 5.515625 14.40625 5.515625 27.296875 
Q 5.515625 40.1875 11.734375 48.09375 
Q 17.96875 56 27.875 56 
Q 33.9375 56 38.25 53.625 
Q 42.578125 51.265625 45.40625 46.390625 
z
M 14.796875 27.296875 
Q 14.796875 17.390625 18.875 11.75 
Q 22.953125 6.109375 30.078125 6.109375 
Q 37.203125 6.109375 41.296875 11.75 
Q 45.40625 17.390625 45.40625 27.296875 
Q 45.40625 37.203125 41.296875 42.84375 
Q 37.203125 48.484375 30.078125 48.484375 
Q 22.953125 48.484375 18.875 42.84375 
Q 14.796875 37.203125 14.796875 27.296875 
z
" id="DejaVuSans-100"/>
       <path id="DejaVuSans-32"/>
       <path d="M 44.390625 34.1875 
Q 47.5625 33.109375 50.5625 29.59375 
Q 53.5625 26.078125 56.59375 19.921875 
L 66.609375 0 
L 56 0 
L 46.6875 18.703125 
Q 43.0625 26.03125 39.671875 28.421875 
Q 36.28125 30.8125 30.421875 30.8125 
L 19.671875 30.8125 
L 19.671875 0 
L 9.8125 0 
L 9.8125 72.90625 
L 32.078125 72.90625 
Q 44.578125 72.90625 50.734375 67.671875 
Q 56.890625 62.453125 56.890625 51.90625 
Q 56.890625 45.015625 53.6875 40.46875 
Q 50.484375 35.9375 44.390625 34.1875 
z
M 19.671875 64.796875 
L 19.671875 38.921875 
L 32.078125 38.921875 
Q 39.203125 38.921875 42.84375 42.21875 
Q 46.484375 45.515625 46.484375 51.90625 
Q 46.484375 58.296875 42.84375 61.546875 
Q 39.203125 64.796875 32.078125 64.796875 
z
" id="DejaVuSans-82"/>
       <path d="M 37.109375 75.984375 
L 37.109375 68.5 
L 28.515625 68.5 
Q 23.6875 68.5 21.796875 66.546875 
Q 19.921875 64.59375 19.921875 59.515625 
L 19.921875 54.6875 
L 34.71875 54.6875 
L 34.71875 47.703125 
L 19.921875 47.703125 
L 19.921875 0 
L 10.890625 0 
L 10.890625 47.703125 
L 2.296875 47.703125 
L 2.296875 54.6875 
L 10.890625 54.6875 
L 10.890625 58.5 
Q 10.890625 67.625 15.140625 71.796875 
Q 19.390625 75.984375 28.609375 75.984375 
z
" id="DejaVuSans-102"/>
      </defs>
      <use xlink:href="#DejaVuSans-70"/>
      <use x="50.269531" xlink:href="#DejaVuSans-105"/>
      <use x="78.052734" xlink:href="#DejaVuSans-120"/>
      <use x="134.107422" xlink:href="#DejaVuSans-101"/>
      <use x="195.630859" xlink:href="#DejaVuSans-100"/>
      <use x="259.107422" xlink:href="#DejaVuSans-32"/>
      <use x="290.894531" xlink:href="#DejaVuSans-82"/>
      <use x="355.876953" xlink:href="#DejaVuSans-101"/>
      <use x="417.400391" xlink:href="#DejaVuSans-102"/>
     </g>
    </g>
    <g id="line2d_16">
     <path d="M 292.271875 39.576563 
L 332.271875 39.576563 
" style="fill:none;stroke:#ff7f0e;stroke-dasharray:1.5,2.475;stroke-dashoffset:0;stroke-opacity:0.9;stroke-width:1.5;"/>
    </g>
    <g id="line2d_17"/>
    <g id="text_2">
     <!-- 2nd ord. DMP -->
     <g transform="translate(340.271875 43.076563)scale(0.1 -0.1)">
      <defs>
       <path d="M 19.1875 8.296875 
L 53.609375 8.296875 
L 53.609375 0 
L 7.328125 0 
L 7.328125 8.296875 
Q 12.9375 14.109375 22.625 23.890625 
Q 32.328125 33.6875 34.8125 36.53125 
Q 39.546875 41.84375 41.421875 45.53125 
Q 43.3125 49.21875 43.3125 52.78125 
Q 43.3125 58.59375 39.234375 62.25 
Q 35.15625 65.921875 28.609375 65.921875 
Q 23.96875 65.921875 18.8125 64.3125 
Q 13.671875 62.703125 7.8125 59.421875 
L 7.8125 69.390625 
Q 13.765625 71.78125 18.9375 73 
Q 24.125 74.21875 28.421875 74.21875 
Q 39.75 74.21875 46.484375 68.546875 
Q 53.21875 62.890625 53.21875 53.421875 
Q 53.21875 48.921875 51.53125 44.890625 
Q 49.859375 40.875 45.40625 35.40625 
Q 44.1875 33.984375 37.640625 27.21875 
Q 31.109375 20.453125 19.1875 8.296875 
z
" id="DejaVuSans-50"/>
       <path d="M 54.890625 33.015625 
L 54.890625 0 
L 45.90625 0 
L 45.90625 32.71875 
Q 45.90625 40.484375 42.875 44.328125 
Q 39.84375 48.1875 33.796875 48.1875 
Q 26.515625 48.1875 22.3125 43.546875 
Q 18.109375 38.921875 18.109375 30.90625 
L 18.109375 0 
L 9.078125 0 
L 9.078125 54.6875 
L 18.109375 54.6875 
L 18.109375 46.1875 
Q 21.34375 51.125 25.703125 53.5625 
Q 30.078125 56 35.796875 56 
Q 45.21875 56 50.046875 50.171875 
Q 54.890625 44.34375 54.890625 33.015625 
z
" id="DejaVuSans-110"/>
       <path d="M 30.609375 48.390625 
Q 23.390625 48.390625 19.1875 42.75 
Q 14.984375 37.109375 14.984375 27.296875 
Q 14.984375 17.484375 19.15625 11.84375 
Q 23.34375 6.203125 30.609375 6.203125 
Q 37.796875 6.203125 41.984375 11.859375 
Q 46.1875 17.53125 46.1875 27.296875 
Q 46.1875 37.015625 41.984375 42.703125 
Q 37.796875 48.390625 30.609375 48.390625 
z
M 30.609375 56 
Q 42.328125 56 49.015625 48.375 
Q 55.71875 40.765625 55.71875 27.296875 
Q 55.71875 13.875 49.015625 6.21875 
Q 42.328125 -1.421875 30.609375 -1.421875 
Q 18.84375 -1.421875 12.171875 6.21875 
Q 5.515625 13.875 5.515625 27.296875 
Q 5.515625 40.765625 12.171875 48.375 
Q 18.84375 56 30.609375 56 
z
" id="DejaVuSans-111"/>
       <path d="M 41.109375 46.296875 
Q 39.59375 47.171875 37.8125 47.578125 
Q 36.03125 48 33.890625 48 
Q 26.265625 48 22.1875 43.046875 
Q 18.109375 38.09375 18.109375 28.8125 
L 18.109375 0 
L 9.078125 0 
L 9.078125 54.6875 
L 18.109375 54.6875 
L 18.109375 46.1875 
Q 20.953125 51.171875 25.484375 53.578125 
Q 30.03125 56 36.53125 56 
Q 37.453125 56 38.578125 55.875 
Q 39.703125 55.765625 41.0625 55.515625 
z
" id="DejaVuSans-114"/>
       <path d="M 10.6875 12.40625 
L 21 12.40625 
L 21 0 
L 10.6875 0 
z
" id="DejaVuSans-46"/>
       <path d="M 19.671875 64.796875 
L 19.671875 8.109375 
L 31.59375 8.109375 
Q 46.6875 8.109375 53.6875 14.9375 
Q 60.6875 21.78125 60.6875 36.53125 
Q 60.6875 51.171875 53.6875 57.984375 
Q 46.6875 64.796875 31.59375 64.796875 
z
M 9.8125 72.90625 
L 30.078125 72.90625 
Q 51.265625 72.90625 61.171875 64.09375 
Q 71.09375 55.28125 71.09375 36.53125 
Q 71.09375 17.671875 61.125 8.828125 
Q 51.171875 0 30.078125 0 
L 9.8125 0 
z
" id="DejaVuSans-68"/>
       <path d="M 9.8125 72.90625 
L 24.515625 72.90625 
L 43.109375 23.296875 
L 61.8125 72.90625 
L 76.515625 72.90625 
L 76.515625 0 
L 66.890625 0 
L 66.890625 64.015625 
L 48.09375 14.015625 
L 38.1875 14.015625 
L 19.390625 64.015625 
L 19.390625 0 
L 9.8125 0 
z
" id="DejaVuSans-77"/>
       <path d="M 19.671875 64.796875 
L 19.671875 37.40625 
L 32.078125 37.40625 
Q 38.96875 37.40625 42.71875 40.96875 
Q 46.484375 44.53125 46.484375 51.125 
Q 46.484375 57.671875 42.71875 61.234375 
Q 38.96875 64.796875 32.078125 64.796875 
z
M 9.8125 72.90625 
L 32.078125 72.90625 
Q 44.34375 72.90625 50.609375 67.359375 
Q 56.890625 61.8125 56.890625 51.125 
Q 56.890625 40.328125 50.609375 34.8125 
Q 44.34375 29.296875 32.078125 29.296875 
L 19.671875 29.296875 
L 19.671875 0 
L 9.8125 0 
z
" id="DejaVuSans-80"/>
      </defs>
      <use xlink:href="#DejaVuSans-50"/>
      <use x="63.623047" xlink:href="#DejaVuSans-110"/>
      <use x="127.001953" xlink:href="#DejaVuSans-100"/>
      <use x="190.478516" xlink:href="#DejaVuSans-32"/>
      <use x="222.265625" xlink:href="#DejaVuSans-111"/>
      <use x="283.447266" xlink:href="#DejaVuSans-114"/>
      <use x="322.810547" xlink:href="#DejaVuSans-100"/>
      <use x="386.287109" xlink:href="#DejaVuSans-46"/>
      <use x="418.074219" xlink:href="#DejaVuSans-32"/>
      <use x="449.861328" xlink:href="#DejaVuSans-68"/>
      <use x="526.863281" xlink:href="#DejaVuSans-77"/>
      <use x="613.142578" xlink:href="#DejaVuSans-80"/>
     </g>
    </g>
    <g id="line2d_18">
     <path d="M 292.271875 54.254687 
L 332.271875 54.254687 
" style="fill:none;stroke:#2ca02c;stroke-dasharray:5.55,2.4;stroke-dashoffset:0;stroke-opacity:0.9;stroke-width:1.5;"/>
    </g>
    <g id="line2d_19"/>
    <g id="text_3">
     <!-- Vel. goal DMP -->
     <g transform="translate(340.271875 57.754687)scale(0.1 -0.1)">
      <defs>
       <path d="M 28.609375 0 
L 0.78125 72.90625 
L 11.078125 72.90625 
L 34.1875 11.53125 
L 57.328125 72.90625 
L 67.578125 72.90625 
L 39.796875 0 
z
" id="DejaVuSans-86"/>
       <path d="M 9.421875 75.984375 
L 18.40625 75.984375 
L 18.40625 0 
L 9.421875 0 
z
" id="DejaVuSans-108"/>
       <path d="M 45.40625 27.984375 
Q 45.40625 37.75 41.375 43.109375 
Q 37.359375 48.484375 30.078125 48.484375 
Q 22.859375 48.484375 18.828125 43.109375 
Q 14.796875 37.75 14.796875 27.984375 
Q 14.796875 18.265625 18.828125 12.890625 
Q 22.859375 7.515625 30.078125 7.515625 
Q 37.359375 7.515625 41.375 12.890625 
Q 45.40625 18.265625 45.40625 27.984375 
z
M 54.390625 6.78125 
Q 54.390625 -7.171875 48.1875 -13.984375 
Q 42 -20.796875 29.203125 -20.796875 
Q 24.46875 -20.796875 20.265625 -20.09375 
Q 16.0625 -19.390625 12.109375 -17.921875 
L 12.109375 -9.1875 
Q 16.0625 -11.328125 19.921875 -12.34375 
Q 23.78125 -13.375 27.78125 -13.375 
Q 36.625 -13.375 41.015625 -8.765625 
Q 45.40625 -4.15625 45.40625 5.171875 
L 45.40625 9.625 
Q 42.625 4.78125 38.28125 2.390625 
Q 33.9375 0 27.875 0 
Q 17.828125 0 11.671875 7.65625 
Q 5.515625 15.328125 5.515625 27.984375 
Q 5.515625 40.671875 11.671875 48.328125 
Q 17.828125 56 27.875 56 
Q 33.9375 56 38.28125 53.609375 
Q 42.625 51.21875 45.40625 46.390625 
L 45.40625 54.6875 
L 54.390625 54.6875 
z
" id="DejaVuSans-103"/>
       <path d="M 34.28125 27.484375 
Q 23.390625 27.484375 19.1875 25 
Q 14.984375 22.515625 14.984375 16.5 
Q 14.984375 11.71875 18.140625 8.90625 
Q 21.296875 6.109375 26.703125 6.109375 
Q 34.1875 6.109375 38.703125 11.40625 
Q 43.21875 16.703125 43.21875 25.484375 
L 43.21875 27.484375 
z
M 52.203125 31.203125 
L 52.203125 0 
L 43.21875 0 
L 43.21875 8.296875 
Q 40.140625 3.328125 35.546875 0.953125 
Q 30.953125 -1.421875 24.3125 -1.421875 
Q 15.921875 -1.421875 10.953125 3.296875 
Q 6 8.015625 6 15.921875 
Q 6 25.140625 12.171875 29.828125 
Q 18.359375 34.515625 30.609375 34.515625 
L 43.21875 34.515625 
L 43.21875 35.40625 
Q 43.21875 41.609375 39.140625 45 
Q 35.0625 48.390625 27.6875 48.390625 
Q 23 48.390625 18.546875 47.265625 
Q 14.109375 46.140625 10.015625 43.890625 
L 10.015625 52.203125 
Q 14.9375 54.109375 19.578125 55.046875 
Q 24.21875 56 28.609375 56 
Q 40.484375 56 46.34375 49.84375 
Q 52.203125 43.703125 52.203125 31.203125 
z
" id="DejaVuSans-97"/>
      </defs>
      <use xlink:href="#DejaVuSans-86"/>
      <use x="60.658203" xlink:href="#DejaVuSans-101"/>
      <use x="122.181641" xlink:href="#DejaVuSans-108"/>
      <use x="149.964844" xlink:href="#DejaVuSans-46"/>
      <use x="181.751953" xlink:href="#DejaVuSans-32"/>
      <use x="213.539062" xlink:href="#DejaVuSans-103"/>
      <use x="277.015625" xlink:href="#DejaVuSans-111"/>
      <use x="338.197266" xlink:href="#DejaVuSans-97"/>
      <use x="399.476562" xlink:href="#DejaVuSans-108"/>
      <use x="427.259766" xlink:href="#DejaVuSans-32"/>
      <use x="459.046875" xlink:href="#DejaVuSans-68"/>
      <use x="536.048828" xlink:href="#DejaVuSans-77"/>
      <use x="622.328125" xlink:href="#DejaVuSans-80"/>
     </g>
    </g>
    <g id="line2d_20">
     <path d="M 292.271875 68.932813 
L 332.271875 68.932813 
" style="fill:none;stroke:#d62728;stroke-linecap:square;stroke-opacity:0.7;stroke-width:1.5;"/>
    </g>
    <g id="line2d_21"/>
    <g id="text_4">
     <!-- Acc. goal DMP -->
     <g transform="translate(340.271875 72.432813)scale(0.1 -0.1)">
      <defs>
       <path d="M 34.1875 63.1875 
L 20.796875 26.90625 
L 47.609375 26.90625 
z
M 28.609375 72.90625 
L 39.796875 72.90625 
L 67.578125 0 
L 57.328125 0 
L 50.6875 18.703125 
L 17.828125 18.703125 
L 11.1875 0 
L 0.78125 0 
z
" id="DejaVuSans-65"/>
       <path d="M 48.78125 52.59375 
L 48.78125 44.1875 
Q 44.96875 46.296875 41.140625 47.34375 
Q 37.3125 48.390625 33.40625 48.390625 
Q 24.65625 48.390625 19.8125 42.84375 
Q 14.984375 37.3125 14.984375 27.296875 
Q 14.984375 17.28125 19.8125 11.734375 
Q 24.65625 6.203125 33.40625 6.203125 
Q 37.3125 6.203125 41.140625 7.25 
Q 44.96875 8.296875 48.78125 10.40625 
L 48.78125 2.09375 
Q 45.015625 0.34375 40.984375 -0.53125 
Q 36.96875 -1.421875 32.421875 -1.421875 
Q 20.0625 -1.421875 12.78125 6.34375 
Q 5.515625 14.109375 5.515625 27.296875 
Q 5.515625 40.671875 12.859375 48.328125 
Q 20.21875 56 33.015625 56 
Q 37.15625 56 41.109375 55.140625 
Q 45.0625 54.296875 48.78125 52.59375 
z
" id="DejaVuSans-99"/>
      </defs>
      <use xlink:href="#DejaVuSans-65"/>
      <use x="66.658203" xlink:href="#DejaVuSans-99"/>
      <use x="121.638672" xlink:href="#DejaVuSans-99"/>
      <use x="176.619141" xlink:href="#DejaVuSans-46"/>
      <use x="208.40625" xlink:href="#DejaVuSans-32"/>
      <use x="240.193359" xlink:href="#DejaVuSans-103"/>
      <use x="303.669922" xlink:href="#DejaVuSans-111"/>
      <use x="364.851562" xlink:href="#DejaVuSans-97"/>
      <use x="426.130859" xlink:href="#DejaVuSans-108"/>
      <use x="453.914062" xlink:href="#DejaVuSans-32"/>
      <use x="485.701172" xlink:href="#DejaVuSans-68"/>
      <use x="562.703125" xlink:href="#DejaVuSans-77"/>
      <use x="648.982422" xlink:href="#DejaVuSans-80"/>
     </g>
    </g>
    <g id="line2d_22">
     <path d="M 292.271875 83.610938 
L 332.271875 83.610938 
" style="fill:none;stroke:#000000;stroke-dasharray:5.55,2.4;stroke-dashoffset:0;stroke-opacity:0.25;stroke-width:1.5;"/>
    </g>
    <g id="line2d_23"/>
    <g id="text_5">
     <!-- Reference -->
     <g transform="translate(340.271875 87.110938)scale(0.1 -0.1)">
      <use xlink:href="#DejaVuSans-82"/>
      <use x="64.982422" xlink:href="#DejaVuSans-101"/>
      <use x="126.505859" xlink:href="#DejaVuSans-102"/>
      <use x="161.710938" xlink:href="#DejaVuSans-101"/>
      <use x="223.234375" xlink:href="#DejaVuSans-114"/>
      <use x="262.097656" xlink:href="#DejaVuSans-101"/>
      <use x="323.621094" xlink:href="#DejaVuSans-110"/>
      <use x="387" xlink:href="#DejaVuSans-99"/>
      <use x="441.980469" xlink:href="#DejaVuSans-101"/>
     </g>
    </g>
    <g id="line2d_24"/>
    <g id="line2d_25">
     <g>
      <use style="stroke:#000000;stroke-linejoin:bevel;" x="312.271875" xlink:href="#m2d63440a5c" y="98.289062"/>
     </g>
    </g>
    <g id="text_6">
     <!-- Start -->
     <g transform="translate(340.271875 101.789062)scale(0.1 -0.1)">
      <defs>
       <path d="M 53.515625 70.515625 
L 53.515625 60.890625 
Q 47.90625 63.578125 42.921875 64.890625 
Q 37.9375 66.21875 33.296875 66.21875 
Q 25.25 66.21875 20.875 63.09375 
Q 16.5 59.96875 16.5 54.203125 
Q 16.5 49.359375 19.40625 46.890625 
Q 22.3125 44.4375 30.421875 42.921875 
L 36.375 41.703125 
Q 47.40625 39.59375 52.65625 34.296875 
Q 57.90625 29 57.90625 20.125 
Q 57.90625 9.515625 50.796875 4.046875 
Q 43.703125 -1.421875 29.984375 -1.421875 
Q 24.8125 -1.421875 18.96875 -0.25 
Q 13.140625 0.921875 6.890625 3.21875 
L 6.890625 13.375 
Q 12.890625 10.015625 18.65625 8.296875 
Q 24.421875 6.59375 29.984375 6.59375 
Q 38.421875 6.59375 43.015625 9.90625 
Q 47.609375 13.234375 47.609375 19.390625 
Q 47.609375 24.75 44.3125 27.78125 
Q 41.015625 30.8125 33.5 32.328125 
L 27.484375 33.5 
Q 16.453125 35.6875 11.515625 40.375 
Q 6.59375 45.0625 6.59375 53.421875 
Q 6.59375 63.09375 13.40625 68.65625 
Q 20.21875 74.21875 32.171875 74.21875 
Q 37.3125 74.21875 42.625 73.28125 
Q 47.953125 72.359375 53.515625 70.515625 
z
" id="DejaVuSans-83"/>
       <path d="M 18.3125 70.21875 
L 18.3125 54.6875 
L 36.8125 54.6875 
L 36.8125 47.703125 
L 18.3125 47.703125 
L 18.3125 18.015625 
Q 18.3125 11.328125 20.140625 9.421875 
Q 21.96875 7.515625 27.59375 7.515625 
L 36.8125 7.515625 
L 36.8125 0 
L 27.59375 0 
Q 17.1875 0 13.234375 3.875 
Q 9.28125 7.765625 9.28125 18.015625 
L 9.28125 47.703125 
L 2.6875 47.703125 
L 2.6875 54.6875 
L 9.28125 54.6875 
L 9.28125 70.21875 
z
" id="DejaVuSans-116"/>
      </defs>
      <use xlink:href="#DejaVuSans-83"/>
      <use x="63.476562" xlink:href="#DejaVuSans-116"/>
      <use x="102.685547" xlink:href="#DejaVuSans-97"/>
      <use x="163.964844" xlink:href="#DejaVuSans-114"/>
      <use x="205.078125" xlink:href="#DejaVuSans-116"/>
     </g>
    </g>
    <g id="line2d_26">
     <path d="M 292.271875 112.967187 
L 299.271875 112.967187 
" style="fill:none;stroke:#1f77b4;stroke-linecap:square;stroke-opacity:0.7;stroke-width:1.5;"/>
    </g>
    <g id="line2d_27">
     <g>
      <use style="fill:#1f77b4;fill-opacity:0.7;stroke:#1f77b4;stroke-opacity:0.7;" x="295.771875" xlink:href="#m9857f3c26e" y="112.967187"/>
     </g>
    </g>
    <g id="line2d_28">
     <path d="M 303.271875 112.967187 
L 310.271875 112.967187 
" style="fill:none;stroke:#ff7f0e;stroke-linecap:square;stroke-opacity:0.7;stroke-width:1.5;"/>
    </g>
    <g id="line2d_29">
     <g>
      <use style="fill:#ff7f0e;fill-opacity:0.7;stroke:#ff7f0e;stroke-opacity:0.7;" x="306.771875" xlink:href="#m2ccd99f56e" y="112.967187"/>
     </g>
    </g>
    <g id="line2d_30">
     <path d="M 314.271875 112.967187 
L 321.271875 112.967187 
" style="fill:none;stroke:#2ca02c;stroke-linecap:square;stroke-opacity:0.7;stroke-width:1.5;"/>
    </g>
    <g id="line2d_31">
     <g>
      <use style="fill:#2ca02c;fill-opacity:0.7;stroke:#2ca02c;stroke-opacity:0.7;" x="317.771875" xlink:href="#m4ebbb47189" y="112.967187"/>
     </g>
    </g>
    <g id="line2d_32">
     <path d="M 325.271875 112.967187 
L 332.271875 112.967187 
" style="fill:none;stroke:#d62728;stroke-linecap:square;stroke-opacity:0.7;stroke-width:1.5;"/>
    </g>
    <g id="line2d_33">
     <g>
      <use style="fill:#d62728;fill-opacity:0.7;stroke:#d62728;stroke-opacity:0.7;" x="328.771875" xlink:href="#meed8861bb4" y="112.967187"/>
     </g>
    </g>
    <g id="text_7">
     <!-- End -->
     <g transform="translate(340.271875 116.467187)scale(0.1 -0.1)">
      <defs>
       <path d="M 9.8125 72.90625 
L 55.90625 72.90625 
L 55.90625 64.59375 
L 19.671875 64.59375 
L 19.671875 43.015625 
L 54.390625 43.015625 
L 54.390625 34.71875 
L 19.671875 34.71875 
L 19.671875 8.296875 
L 56.78125 8.296875 
L 56.78125 0 
L 9.8125 0 
z
" id="DejaVuSans-69"/>
      </defs>
      <use xlink:href="#DejaVuSans-69"/>
      <use x="63.183594" xlink:href="#DejaVuSans-110"/>
      <use x="126.5625" xlink:href="#DejaVuSans-100"/>
     </g>
    </g>
   </g>
  </g>
 </g>
 <defs>
  <clipPath id="p9b7f9b3bb3">
   <rect height="194.4" width="410.4" x="10.8" y="10.8"/>
  </clipPath>
 </defs>
</svg>
