<?xml version="1.0" encoding="utf-8" standalone="no"?>
<!DOCTYPE svg PUBLIC "-//W3C//DTD SVG 1.1//EN"
  "http://www.w3.org/Graphics/SVG/1.1/DTD/svg11.dtd">
<!-- Created with matplotlib (https://matplotlib.org/) -->
<svg height="337.59625pt" version="1.1" viewBox="0 0 554.042812 337.59625" width="554.042812pt" xmlns="http://www.w3.org/2000/svg" xmlns:xlink="http://www.w3.org/1999/xlink">
 <metadata>
  <rdf:RDF xmlns:cc="http://creativecommons.org/ns#" xmlns:dc="http://purl.org/dc/elements/1.1/" xmlns:rdf="http://www.w3.org/1999/02/22-rdf-syntax-ns#">
   <cc:Work>
    <dc:type rdf:resource="http://purl.org/dc/dcmitype/StillImage"/>
    <dc:date>2022-07-29T19:08:49.014280</dc:date>
    <dc:format>image/svg+xml</dc:format>
    <dc:creator>
     <cc:Agent>
      <dc:title>Matplotlib v3.3.0, https://matplotlib.org/</dc:title>
     </cc:Agent>
    </dc:creator>
   </cc:Work>
  </rdf:RDF>
 </metadata>
 <defs>
  <style type="text/css">*{stroke-linecap:butt;stroke-linejoin:round;}</style>
 </defs>
 <g id="figure_1">
  <g id="patch_1">
   <path d="M 0 337.59625 
L 554.042812 337.59625 
L 554.042812 0 
L 0 0 
z
" style="fill:#ffffff;"/>
  </g>
  <g id="axes_1">
   <g id="patch_2">
    <path d="M 41.782813 137.7 
L 271.442812 137.7 
L 271.442812 0 
L 41.782813 0 
z
" style="fill:#ffffff;"/>
   </g>
   <g id="matplotlib.axis_1">
    <g id="xtick_1">
     <g id="line2d_1">
      <defs>
       <path d="M 0 0 
L 0 3.5 
" id="ma19620287d" style="stroke:#000000;stroke-width:0.8;"/>
      </defs>
      <g>
       <use style="stroke:#000000;stroke-width:0.8;" x="52.221903" xlink:href="#ma19620287d" y="137.7"/>
      </g>
     </g>
     <g id="text_1">
      <!-- 0 -->
      <g transform="translate(49.040653 152.298437)scale(0.1 -0.1)">
       <defs>
        <path d="M 31.78125 66.40625 
Q 24.171875 66.40625 20.328125 58.90625 
Q 16.5 51.421875 16.5 36.375 
Q 16.5 21.390625 20.328125 13.890625 
Q 24.171875 6.390625 31.78125 6.390625 
Q 39.453125 6.390625 43.28125 13.890625 
Q 47.125 21.390625 47.125 36.375 
Q 47.125 51.421875 43.28125 58.90625 
Q 39.453125 66.40625 31.78125 66.40625 
z
M 31.78125 74.21875 
Q 44.046875 74.21875 50.515625 64.515625 
Q 56.984375 54.828125 56.984375 36.375 
Q 56.984375 17.96875 50.515625 8.265625 
Q 44.046875 -1.421875 31.78125 -1.421875 
Q 19.53125 -1.421875 13.0625 8.265625 
Q 6.59375 17.96875 6.59375 36.375 
Q 6.59375 54.828125 13.0625 64.515625 
Q 19.53125 74.21875 31.78125 74.21875 
z
" id="DejaVuSans-48"/>
       </defs>
       <use xlink:href="#DejaVuSans-48"/>
      </g>
     </g>
    </g>
    <g id="xtick_2">
     <g id="line2d_2">
      <g>
       <use style="stroke:#000000;stroke-width:0.8;" x="93.978267" xlink:href="#ma19620287d" y="137.7"/>
      </g>
     </g>
     <g id="text_2">
      <!-- 1 -->
      <g transform="translate(90.797017 152.298437)scale(0.1 -0.1)">
       <defs>
        <path d="M 12.40625 8.296875 
L 28.515625 8.296875 
L 28.515625 63.921875 
L 10.984375 60.40625 
L 10.984375 69.390625 
L 28.421875 72.90625 
L 38.28125 72.90625 
L 38.28125 8.296875 
L 54.390625 8.296875 
L 54.390625 0 
L 12.40625 0 
z
" id="DejaVuSans-49"/>
       </defs>
       <use xlink:href="#DejaVuSans-49"/>
      </g>
     </g>
    </g>
    <g id="xtick_3">
     <g id="line2d_3">
      <g>
       <use style="stroke:#000000;stroke-width:0.8;" x="135.734631" xlink:href="#ma19620287d" y="137.7"/>
      </g>
     </g>
     <g id="text_3">
      <!-- 2 -->
      <g transform="translate(132.553381 152.298437)scale(0.1 -0.1)">
       <defs>
        <path d="M 19.1875 8.296875 
L 53.609375 8.296875 
L 53.609375 0 
L 7.328125 0 
L 7.328125 8.296875 
Q 12.9375 14.109375 22.625 23.890625 
Q 32.328125 33.6875 34.8125 36.53125 
Q 39.546875 41.84375 41.421875 45.53125 
Q 43.3125 49.21875 43.3125 52.78125 
Q 43.3125 58.59375 39.234375 62.25 
Q 35.15625 65.921875 28.609375 65.921875 
Q 23.96875 65.921875 18.8125 64.3125 
Q 13.671875 62.703125 7.8125 59.421875 
L 7.8125 69.390625 
Q 13.765625 71.78125 18.9375 73 
Q 24.125 74.21875 28.421875 74.21875 
Q 39.75 74.21875 46.484375 68.546875 
Q 53.21875 62.890625 53.21875 53.421875 
Q 53.21875 48.921875 51.53125 44.890625 
Q 49.859375 40.875 45.40625 35.40625 
Q 44.1875 33.984375 37.640625 27.21875 
Q 31.109375 20.453125 19.1875 8.296875 
z
" id="DejaVuSans-50"/>
       </defs>
       <use xlink:href="#DejaVuSans-50"/>
      </g>
     </g>
    </g>
    <g id="xtick_4">
     <g id="line2d_4">
      <g>
       <use style="stroke:#000000;stroke-width:0.8;" x="177.490994" xlink:href="#ma19620287d" y="137.7"/>
      </g>
     </g>
     <g id="text_4">
      <!-- 3 -->
      <g transform="translate(174.309744 152.298437)scale(0.1 -0.1)">
       <defs>
        <path d="M 40.578125 39.3125 
Q 47.65625 37.796875 51.625 33 
Q 55.609375 28.21875 55.609375 21.1875 
Q 55.609375 10.40625 48.1875 4.484375 
Q 40.765625 -1.421875 27.09375 -1.421875 
Q 22.515625 -1.421875 17.65625 -0.515625 
Q 12.796875 0.390625 7.625 2.203125 
L 7.625 11.71875 
Q 11.71875 9.328125 16.59375 8.109375 
Q 21.484375 6.890625 26.8125 6.890625 
Q 36.078125 6.890625 40.9375 10.546875 
Q 45.796875 14.203125 45.796875 21.1875 
Q 45.796875 27.640625 41.28125 31.265625 
Q 36.765625 34.90625 28.71875 34.90625 
L 20.21875 34.90625 
L 20.21875 43.015625 
L 29.109375 43.015625 
Q 36.375 43.015625 40.234375 45.921875 
Q 44.09375 48.828125 44.09375 54.296875 
Q 44.09375 59.90625 40.109375 62.90625 
Q 36.140625 65.921875 28.71875 65.921875 
Q 24.65625 65.921875 20.015625 65.03125 
Q 15.375 64.15625 9.8125 62.3125 
L 9.8125 71.09375 
Q 15.4375 72.65625 20.34375 73.4375 
Q 25.25 74.21875 29.59375 74.21875 
Q 40.828125 74.21875 47.359375 69.109375 
Q 53.90625 64.015625 53.90625 55.328125 
Q 53.90625 49.265625 50.4375 45.09375 
Q 46.96875 40.921875 40.578125 39.3125 
z
" id="DejaVuSans-51"/>
       </defs>
       <use xlink:href="#DejaVuSans-51"/>
      </g>
     </g>
    </g>
    <g id="xtick_5">
     <g id="line2d_5">
      <g>
       <use style="stroke:#000000;stroke-width:0.8;" x="219.247358" xlink:href="#ma19620287d" y="137.7"/>
      </g>
     </g>
     <g id="text_5">
      <!-- 4 -->
      <g transform="translate(216.066108 152.298437)scale(0.1 -0.1)">
       <defs>
        <path d="M 37.796875 64.3125 
L 12.890625 25.390625 
L 37.796875 25.390625 
z
M 35.203125 72.90625 
L 47.609375 72.90625 
L 47.609375 25.390625 
L 58.015625 25.390625 
L 58.015625 17.1875 
L 47.609375 17.1875 
L 47.609375 0 
L 37.796875 0 
L 37.796875 17.1875 
L 4.890625 17.1875 
L 4.890625 26.703125 
z
" id="DejaVuSans-52"/>
       </defs>
       <use xlink:href="#DejaVuSans-52"/>
      </g>
     </g>
    </g>
    <g id="xtick_6">
     <g id="line2d_6">
      <g>
       <use style="stroke:#000000;stroke-width:0.8;" x="261.003722" xlink:href="#ma19620287d" y="137.7"/>
      </g>
     </g>
     <g id="text_6">
      <!-- 5 -->
      <g transform="translate(257.822472 152.298437)scale(0.1 -0.1)">
       <defs>
        <path d="M 10.796875 72.90625 
L 49.515625 72.90625 
L 49.515625 64.59375 
L 19.828125 64.59375 
L 19.828125 46.734375 
Q 21.96875 47.46875 24.109375 47.828125 
Q 26.265625 48.1875 28.421875 48.1875 
Q 40.625 48.1875 47.75 41.5 
Q 54.890625 34.8125 54.890625 23.390625 
Q 54.890625 11.625 47.5625 5.09375 
Q 40.234375 -1.421875 26.90625 -1.421875 
Q 22.3125 -1.421875 17.546875 -0.640625 
Q 12.796875 0.140625 7.71875 1.703125 
L 7.71875 11.625 
Q 12.109375 9.234375 16.796875 8.0625 
Q 21.484375 6.890625 26.703125 6.890625 
Q 35.15625 6.890625 40.078125 11.328125 
Q 45.015625 15.765625 45.015625 23.390625 
Q 45.015625 31 40.078125 35.4375 
Q 35.15625 39.890625 26.703125 39.890625 
Q 22.75 39.890625 18.8125 39.015625 
Q 14.890625 38.140625 10.796875 36.28125 
z
" id="DejaVuSans-53"/>
       </defs>
       <use xlink:href="#DejaVuSans-53"/>
      </g>
     </g>
    </g>
   </g>
   <g id="matplotlib.axis_2">
    <g id="ytick_1">
     <g id="line2d_7">
      <defs>
       <path d="M 0 0 
L -3.5 0 
" id="m810ebde39a" style="stroke:#000000;stroke-width:0.8;"/>
      </defs>
      <g>
       <use style="stroke:#000000;stroke-width:0.8;" x="41.782813" xlink:href="#m810ebde39a" y="128.561085"/>
      </g>
     </g>
     <g id="text_7">
      <!-- 0 -->
      <g transform="translate(28.420313 132.360304)scale(0.1 -0.1)">
       <use xlink:href="#DejaVuSans-48"/>
      </g>
     </g>
    </g>
    <g id="ytick_2">
     <g id="line2d_8">
      <g>
       <use style="stroke:#000000;stroke-width:0.8;" x="41.782813" xlink:href="#m810ebde39a" y="102.773774"/>
      </g>
     </g>
     <g id="text_8">
      <!-- 20 -->
      <g transform="translate(22.057813 106.572993)scale(0.1 -0.1)">
       <use xlink:href="#DejaVuSans-50"/>
       <use x="63.623047" xlink:href="#DejaVuSans-48"/>
      </g>
     </g>
    </g>
    <g id="ytick_3">
     <g id="line2d_9">
      <g>
       <use style="stroke:#000000;stroke-width:0.8;" x="41.782813" xlink:href="#m810ebde39a" y="76.986464"/>
      </g>
     </g>
     <g id="text_9">
      <!-- 40 -->
      <g transform="translate(22.057813 80.785683)scale(0.1 -0.1)">
       <use xlink:href="#DejaVuSans-52"/>
       <use x="63.623047" xlink:href="#DejaVuSans-48"/>
      </g>
     </g>
    </g>
    <g id="ytick_4">
     <g id="line2d_10">
      <g>
       <use style="stroke:#000000;stroke-width:0.8;" x="41.782813" xlink:href="#m810ebde39a" y="51.199153"/>
      </g>
     </g>
     <g id="text_10">
      <!-- 60 -->
      <g transform="translate(22.057813 54.998372)scale(0.1 -0.1)">
       <defs>
        <path d="M 33.015625 40.375 
Q 26.375 40.375 22.484375 35.828125 
Q 18.609375 31.296875 18.609375 23.390625 
Q 18.609375 15.53125 22.484375 10.953125 
Q 26.375 6.390625 33.015625 6.390625 
Q 39.65625 6.390625 43.53125 10.953125 
Q 47.40625 15.53125 47.40625 23.390625 
Q 47.40625 31.296875 43.53125 35.828125 
Q 39.65625 40.375 33.015625 40.375 
z
M 52.59375 71.296875 
L 52.59375 62.3125 
Q 48.875 64.0625 45.09375 64.984375 
Q 41.3125 65.921875 37.59375 65.921875 
Q 27.828125 65.921875 22.671875 59.328125 
Q 17.53125 52.734375 16.796875 39.40625 
Q 19.671875 43.65625 24.015625 45.921875 
Q 28.375 48.1875 33.59375 48.1875 
Q 44.578125 48.1875 50.953125 41.515625 
Q 57.328125 34.859375 57.328125 23.390625 
Q 57.328125 12.15625 50.6875 5.359375 
Q 44.046875 -1.421875 33.015625 -1.421875 
Q 20.359375 -1.421875 13.671875 8.265625 
Q 6.984375 17.96875 6.984375 36.375 
Q 6.984375 53.65625 15.1875 63.9375 
Q 23.390625 74.21875 37.203125 74.21875 
Q 40.921875 74.21875 44.703125 73.484375 
Q 48.484375 72.75 52.59375 71.296875 
z
" id="DejaVuSans-54"/>
       </defs>
       <use xlink:href="#DejaVuSans-54"/>
       <use x="63.623047" xlink:href="#DejaVuSans-48"/>
      </g>
     </g>
    </g>
    <g id="ytick_5">
     <g id="line2d_11">
      <g>
       <use style="stroke:#000000;stroke-width:0.8;" x="41.782813" xlink:href="#m810ebde39a" y="25.411843"/>
      </g>
     </g>
     <g id="text_11">
      <!-- 80 -->
      <g transform="translate(22.057813 29.211062)scale(0.1 -0.1)">
       <defs>
        <path d="M 31.78125 34.625 
Q 24.75 34.625 20.71875 30.859375 
Q 16.703125 27.09375 16.703125 20.515625 
Q 16.703125 13.921875 20.71875 10.15625 
Q 24.75 6.390625 31.78125 6.390625 
Q 38.8125 6.390625 42.859375 10.171875 
Q 46.921875 13.96875 46.921875 20.515625 
Q 46.921875 27.09375 42.890625 30.859375 
Q 38.875 34.625 31.78125 34.625 
z
M 21.921875 38.8125 
Q 15.578125 40.375 12.03125 44.71875 
Q 8.5 49.078125 8.5 55.328125 
Q 8.5 64.0625 14.71875 69.140625 
Q 20.953125 74.21875 31.78125 74.21875 
Q 42.671875 74.21875 48.875 69.140625 
Q 55.078125 64.0625 55.078125 55.328125 
Q 55.078125 49.078125 51.53125 44.71875 
Q 48 40.375 41.703125 38.8125 
Q 48.828125 37.15625 52.796875 32.3125 
Q 56.78125 27.484375 56.78125 20.515625 
Q 56.78125 9.90625 50.3125 4.234375 
Q 43.84375 -1.421875 31.78125 -1.421875 
Q 19.734375 -1.421875 13.25 4.234375 
Q 6.78125 9.90625 6.78125 20.515625 
Q 6.78125 27.484375 10.78125 32.3125 
Q 14.796875 37.15625 21.921875 38.8125 
z
M 18.3125 54.390625 
Q 18.3125 48.734375 21.84375 45.5625 
Q 25.390625 42.390625 31.78125 42.390625 
Q 38.140625 42.390625 41.71875 45.5625 
Q 45.3125 48.734375 45.3125 54.390625 
Q 45.3125 60.0625 41.71875 63.234375 
Q 38.140625 66.40625 31.78125 66.40625 
Q 25.390625 66.40625 21.84375 63.234375 
Q 18.3125 60.0625 18.3125 54.390625 
z
" id="DejaVuSans-56"/>
       </defs>
       <use xlink:href="#DejaVuSans-56"/>
       <use x="63.623047" xlink:href="#DejaVuSans-48"/>
      </g>
     </g>
    </g>
    <g id="text_12">
     <!-- Position (m) -->
     <g transform="translate(15.978125 98.675)rotate(-90)scale(0.1 -0.1)">
      <defs>
       <path d="M 19.671875 64.796875 
L 19.671875 37.40625 
L 32.078125 37.40625 
Q 38.96875 37.40625 42.71875 40.96875 
Q 46.484375 44.53125 46.484375 51.125 
Q 46.484375 57.671875 42.71875 61.234375 
Q 38.96875 64.796875 32.078125 64.796875 
z
M 9.8125 72.90625 
L 32.078125 72.90625 
Q 44.34375 72.90625 50.609375 67.359375 
Q 56.890625 61.8125 56.890625 51.125 
Q 56.890625 40.328125 50.609375 34.8125 
Q 44.34375 29.296875 32.078125 29.296875 
L 19.671875 29.296875 
L 19.671875 0 
L 9.8125 0 
z
" id="DejaVuSans-80"/>
       <path d="M 30.609375 48.390625 
Q 23.390625 48.390625 19.1875 42.75 
Q 14.984375 37.109375 14.984375 27.296875 
Q 14.984375 17.484375 19.15625 11.84375 
Q 23.34375 6.203125 30.609375 6.203125 
Q 37.796875 6.203125 41.984375 11.859375 
Q 46.1875 17.53125 46.1875 27.296875 
Q 46.1875 37.015625 41.984375 42.703125 
Q 37.796875 48.390625 30.609375 48.390625 
z
M 30.609375 56 
Q 42.328125 56 49.015625 48.375 
Q 55.71875 40.765625 55.71875 27.296875 
Q 55.71875 13.875 49.015625 6.21875 
Q 42.328125 -1.421875 30.609375 -1.421875 
Q 18.84375 -1.421875 12.171875 6.21875 
Q 5.515625 13.875 5.515625 27.296875 
Q 5.515625 40.765625 12.171875 48.375 
Q 18.84375 56 30.609375 56 
z
" id="DejaVuSans-111"/>
       <path d="M 44.28125 53.078125 
L 44.28125 44.578125 
Q 40.484375 46.53125 36.375 47.5 
Q 32.28125 48.484375 27.875 48.484375 
Q 21.1875 48.484375 17.84375 46.4375 
Q 14.5 44.390625 14.5 40.28125 
Q 14.5 37.15625 16.890625 35.375 
Q 19.28125 33.59375 26.515625 31.984375 
L 29.59375 31.296875 
Q 39.15625 29.25 43.1875 25.515625 
Q 47.21875 21.78125 47.21875 15.09375 
Q 47.21875 7.46875 41.1875 3.015625 
Q 35.15625 -1.421875 24.609375 -1.421875 
Q 20.21875 -1.421875 15.453125 -0.5625 
Q 10.6875 0.296875 5.421875 2 
L 5.421875 11.28125 
Q 10.40625 8.6875 15.234375 7.390625 
Q 20.0625 6.109375 24.8125 6.109375 
Q 31.15625 6.109375 34.5625 8.28125 
Q 37.984375 10.453125 37.984375 14.40625 
Q 37.984375 18.0625 35.515625 20.015625 
Q 33.0625 21.96875 24.703125 23.78125 
L 21.578125 24.515625 
Q 13.234375 26.265625 9.515625 29.90625 
Q 5.8125 33.546875 5.8125 39.890625 
Q 5.8125 47.609375 11.28125 51.796875 
Q 16.75 56 26.8125 56 
Q 31.78125 56 36.171875 55.265625 
Q 40.578125 54.546875 44.28125 53.078125 
z
" id="DejaVuSans-115"/>
       <path d="M 9.421875 54.6875 
L 18.40625 54.6875 
L 18.40625 0 
L 9.421875 0 
z
M 9.421875 75.984375 
L 18.40625 75.984375 
L 18.40625 64.59375 
L 9.421875 64.59375 
z
" id="DejaVuSans-105"/>
       <path d="M 18.3125 70.21875 
L 18.3125 54.6875 
L 36.8125 54.6875 
L 36.8125 47.703125 
L 18.3125 47.703125 
L 18.3125 18.015625 
Q 18.3125 11.328125 20.140625 9.421875 
Q 21.96875 7.515625 27.59375 7.515625 
L 36.8125 7.515625 
L 36.8125 0 
L 27.59375 0 
Q 17.1875 0 13.234375 3.875 
Q 9.28125 7.765625 9.28125 18.015625 
L 9.28125 47.703125 
L 2.6875 47.703125 
L 2.6875 54.6875 
L 9.28125 54.6875 
L 9.28125 70.21875 
z
" id="DejaVuSans-116"/>
       <path d="M 54.890625 33.015625 
L 54.890625 0 
L 45.90625 0 
L 45.90625 32.71875 
Q 45.90625 40.484375 42.875 44.328125 
Q 39.84375 48.1875 33.796875 48.1875 
Q 26.515625 48.1875 22.3125 43.546875 
Q 18.109375 38.921875 18.109375 30.90625 
L 18.109375 0 
L 9.078125 0 
L 9.078125 54.6875 
L 18.109375 54.6875 
L 18.109375 46.1875 
Q 21.34375 51.125 25.703125 53.5625 
Q 30.078125 56 35.796875 56 
Q 45.21875 56 50.046875 50.171875 
Q 54.890625 44.34375 54.890625 33.015625 
z
" id="DejaVuSans-110"/>
       <path id="DejaVuSans-32"/>
       <path d="M 31 75.875 
Q 24.46875 64.65625 21.28125 53.65625 
Q 18.109375 42.671875 18.109375 31.390625 
Q 18.109375 20.125 21.3125 9.0625 
Q 24.515625 -2 31 -13.1875 
L 23.1875 -13.1875 
Q 15.875 -1.703125 12.234375 9.375 
Q 8.59375 20.453125 8.59375 31.390625 
Q 8.59375 42.28125 12.203125 53.3125 
Q 15.828125 64.359375 23.1875 75.875 
z
" id="DejaVuSans-40"/>
       <path d="M 52 44.1875 
Q 55.375 50.25 60.0625 53.125 
Q 64.75 56 71.09375 56 
Q 79.640625 56 84.28125 50.015625 
Q 88.921875 44.046875 88.921875 33.015625 
L 88.921875 0 
L 79.890625 0 
L 79.890625 32.71875 
Q 79.890625 40.578125 77.09375 44.375 
Q 74.3125 48.1875 68.609375 48.1875 
Q 61.625 48.1875 57.5625 43.546875 
Q 53.515625 38.921875 53.515625 30.90625 
L 53.515625 0 
L 44.484375 0 
L 44.484375 32.71875 
Q 44.484375 40.625 41.703125 44.40625 
Q 38.921875 48.1875 33.109375 48.1875 
Q 26.21875 48.1875 22.15625 43.53125 
Q 18.109375 38.875 18.109375 30.90625 
L 18.109375 0 
L 9.078125 0 
L 9.078125 54.6875 
L 18.109375 54.6875 
L 18.109375 46.1875 
Q 21.1875 51.21875 25.484375 53.609375 
Q 29.78125 56 35.6875 56 
Q 41.65625 56 45.828125 52.96875 
Q 50 49.953125 52 44.1875 
z
" id="DejaVuSans-109"/>
       <path d="M 8.015625 75.875 
L 15.828125 75.875 
Q 23.140625 64.359375 26.78125 53.3125 
Q 30.421875 42.28125 30.421875 31.390625 
Q 30.421875 20.453125 26.78125 9.375 
Q 23.140625 -1.703125 15.828125 -13.1875 
L 8.015625 -13.1875 
Q 14.5 -2 17.703125 9.0625 
Q 20.90625 20.125 20.90625 31.390625 
Q 20.90625 42.671875 17.703125 53.65625 
Q 14.5 64.65625 8.015625 75.875 
z
" id="DejaVuSans-41"/>
      </defs>
      <use xlink:href="#DejaVuSans-80"/>
      <use x="56.677734" xlink:href="#DejaVuSans-111"/>
      <use x="117.859375" xlink:href="#DejaVuSans-115"/>
      <use x="169.958984" xlink:href="#DejaVuSans-105"/>
      <use x="197.742188" xlink:href="#DejaVuSans-116"/>
      <use x="236.951172" xlink:href="#DejaVuSans-105"/>
      <use x="264.734375" xlink:href="#DejaVuSans-111"/>
      <use x="325.916016" xlink:href="#DejaVuSans-110"/>
      <use x="389.294922" xlink:href="#DejaVuSans-32"/>
      <use x="421.082031" xlink:href="#DejaVuSans-40"/>
      <use x="460.095703" xlink:href="#DejaVuSans-109"/>
      <use x="557.507812" xlink:href="#DejaVuSans-41"/>
     </g>
    </g>
   </g>
   <g id="line2d_12">
    <path clip-path="url(#p55f1fa1c5e)" d="M 52.221903 130.146527 
L 56.39754 130.639659 
L 60.573176 130.954761 
L 64.748812 131.091457 
L 68.924449 131.038277 
L 73.100085 130.79176 
L 77.275722 130.357158 
L 81.451358 129.752001 
L 85.626994 128.969324 
L 89.802631 128.008241 
L 93.978267 126.873632 
L 98.153903 125.571852 
L 102.32954 124.116339 
L 106.505176 122.503628 
L 110.680812 120.731125 
L 114.856449 118.810907 
L 119.032085 116.753148 
L 123.207722 114.563277 
L 127.383358 112.255459 
L 131.558994 109.840161 
L 135.734631 107.319882 
L 139.910267 104.7116 
L 144.085903 102.015709 
L 148.26154 99.238309 
L 152.437176 96.388566 
L 156.612812 93.473741 
L 160.788449 90.499698 
L 164.964085 87.470094 
L 169.139722 84.388413 
L 173.315358 81.257389 
L 177.490994 78.081921 
L 181.666631 74.866967 
L 185.842267 71.617741 
L 190.017903 68.338216 
L 194.19354 65.032151 
L 198.369176 61.704386 
L 202.544812 58.361983 
L 206.720449 55.012221 
L 210.896085 51.658171 
L 215.071722 48.29873 
L 219.247358 44.932974 
L 223.422994 41.557499 
L 227.598631 38.165536 
L 231.774267 34.751244 
L 235.949903 31.314759 
L 240.12554 27.86281 
L 244.301176 24.401123 
L 248.476812 18.604034 
L 252.652449 14.517987 
L 256.828085 9.81606 
L 261.003722 6.259091 
" style="fill:none;stroke:#000000;stroke-linecap:square;stroke-width:1.5;"/>
   </g>
   <g id="line2d_13">
    <path clip-path="url(#p55f1fa1c5e)" d="M 52.221903 130.146527 
L 56.39754 130.746569 
L 60.573176 130.927374 
L 64.748812 130.839628 
L 68.924449 130.803171 
L 73.100085 130.772362 
L 77.275722 130.482305 
L 81.451358 129.803626 
L 85.626994 128.839494 
L 89.802631 127.847385 
L 93.978267 126.846364 
L 98.153903 125.655133 
L 102.32954 124.1682 
L 106.505176 122.43351 
L 110.680812 120.617408 
L 114.856449 118.767073 
L 119.032085 116.786023 
L 123.207722 114.608311 
L 127.383358 112.251937 
L 131.558994 109.805357 
L 135.734631 107.313291 
L 139.910267 104.739891 
L 144.085903 102.054684 
L 148.26154 99.261701 
L 152.437176 96.392993 
L 156.612812 93.474646 
L 160.788449 90.507784 
L 164.964085 87.490378 
L 169.139722 84.424357 
L 173.315358 81.310352 
L 177.490994 78.153279 
" style="fill:none;stroke:#1f77b4;stroke-dasharray:1.5,2.475;stroke-dashoffset:0;stroke-width:1.5;"/>
   </g>
   <g id="line2d_14">
    <path clip-path="url(#p55f1fa1c5e)" d="M 177.490994 78.153279 
L 181.666631 74.969115 
L 185.842267 72.846923 
L 190.017903 70.289656 
L 194.19354 67.258892 
L 198.369176 64.219077 
L 202.544812 61.020807 
L 206.720449 57.277523 
L 210.896085 52.939923 
L 215.071722 48.544146 
L 219.247358 44.877532 
L 223.422994 41.736494 
L 227.598631 38.402531 
L 231.774267 34.533215 
L 235.949903 30.443961 
L 240.12554 26.867888 
L 244.301176 23.741468 
L 248.476812 20.414489 
L 252.652449 16.519714 
L 256.828085 12.232834 
L 261.003722 8.142577 
" style="fill:none;stroke:#ff7f0e;stroke-dasharray:1.5,2.475;stroke-dashoffset:0;stroke-width:1.5;"/>
   </g>
   <g id="line2d_15">
    <path clip-path="url(#p55f1fa1c5e)" d="M 52.221903 130.146527 
L 56.39754 130.746569 
L 60.573176 131.177197 
L 64.748812 131.405712 
L 68.924449 131.416848 
L 73.100085 131.22709 
L 77.275722 130.854344 
L 81.451358 130.297545 
L 85.626994 129.545521 
L 89.802631 128.594334 
L 93.978267 127.458939 
L 98.153903 126.157631 
L 102.32954 124.697828 
L 106.505176 123.079393 
L 110.680812 121.303052 
L 114.856449 119.376461 
L 119.032085 117.310694 
L 123.207722 115.114861 
L 127.383358 112.7964 
L 131.558994 110.362746 
L 135.734631 107.822792 
L 139.910267 105.186396 
L 144.085903 102.463434 
L 148.26154 99.66327 
L 152.437176 96.793559 
L 156.612812 93.858234 
L 160.788449 90.859735 
L 164.964085 87.803827 
L 169.139722 84.699382 
L 173.315358 81.555118 
L 177.490994 78.375243 
" style="fill:none;stroke:#1f77b4;stroke-dasharray:5.55,2.4;stroke-dashoffset:0;stroke-width:1.5;"/>
   </g>
   <g id="line2d_16">
    <path clip-path="url(#p55f1fa1c5e)" d="M 177.490994 78.375243 
L 181.666631 75.160682 
L 185.842267 71.91545 
L 190.017903 68.77032 
L 194.19354 65.680592 
L 198.369176 62.591179 
L 202.544812 59.501588 
L 206.720449 56.394232 
L 210.896085 53.204501 
L 215.071722 49.861921 
L 219.247358 46.36297 
L 223.422994 42.803069 
L 227.598631 39.257767 
L 231.774267 35.71514 
L 235.949903 32.117091 
L 240.12554 28.439499 
L 244.301176 24.745283 
L 248.476812 21.092657 
L 252.652449 17.462579 
L 256.828085 13.787918 
L 261.003722 10.014612 
" style="fill:none;stroke:#ff7f0e;stroke-dasharray:5.55,2.4;stroke-dashoffset:0;stroke-width:1.5;"/>
   </g>
   <g id="line2d_17">
    <path clip-path="url(#p55f1fa1c5e)" d="M 52.221903 130.146527 
L 56.39754 130.746569 
L 60.573176 131.177197 
L 64.748812 131.41307 
L 68.924449 131.440909 
L 73.100085 131.267954 
L 77.275722 130.904513 
L 81.451358 130.351826 
L 85.626994 129.606471 
L 89.802631 128.668486 
L 93.978267 127.546784 
L 98.153903 126.253011 
L 102.32954 124.795491 
L 106.505176 123.179908 
L 110.680812 121.411103 
L 114.856449 119.493699 
L 119.032085 117.433756 
L 123.207722 115.239871 
L 127.383358 112.922373 
L 131.558994 110.491651 
L 135.734631 107.956459 
L 139.910267 105.324627 
L 144.085903 102.604675 
L 148.26154 99.805416 
L 152.437176 96.934937 
L 156.612812 93.999415 
L 160.788449 91.003553 
L 164.964085 87.951835 
L 169.139722 84.84869 
L 173.315358 81.698188 
L 177.490994 78.503991 
" style="fill:none;stroke:#1f77b4;stroke-linecap:square;stroke-width:1.5;"/>
   </g>
   <g id="line2d_18">
    <path clip-path="url(#p55f1fa1c5e)" d="M 177.490994 78.503991 
L 181.666631 75.269048 
L 185.842267 71.995347 
L 190.017903 68.660518 
L 194.19354 65.284039 
L 198.369176 61.89009 
L 202.544812 58.492344 
L 206.720449 55.099004 
L 210.896085 51.7168 
L 215.071722 48.349135 
L 219.247358 44.994338 
L 223.422994 41.645422 
L 227.598631 38.292572 
L 231.774267 34.925399 
L 235.949903 31.534263 
L 240.12554 28.113478 
L 244.301176 24.663399 
L 248.476812 21.183198 
L 252.652449 17.665341 
L 256.828085 14.096645 
L 261.003722 10.456848 
" style="fill:none;stroke:#ff7f0e;stroke-linecap:square;stroke-width:1.5;"/>
   </g>
   <g id="patch_3">
    <path d="M 41.782813 137.7 
L 41.782813 0 
" style="fill:none;stroke:#000000;stroke-linecap:square;stroke-linejoin:miter;stroke-width:0.8;"/>
   </g>
   <g id="patch_4">
    <path d="M 271.442812 137.7 
L 271.442812 0 
" style="fill:none;stroke:#000000;stroke-linecap:square;stroke-linejoin:miter;stroke-width:0.8;"/>
   </g>
   <g id="patch_5">
    <path d="M 41.782813 137.7 
L 271.442812 137.7 
" style="fill:none;stroke:#000000;stroke-linecap:square;stroke-linejoin:miter;stroke-width:0.8;"/>
   </g>
   <g id="patch_6">
    <path d="M 41.782813 0 
L 271.442812 0 
" style="fill:none;stroke:#000000;stroke-linecap:square;stroke-linejoin:miter;stroke-width:0.8;"/>
   </g>
   <g id="legend_1">
    <g id="patch_7">
     <path d="M 48.782813 96.06875 
L 152.35625 96.06875 
Q 154.35625 96.06875 154.35625 94.06875 
L 154.35625 7 
Q 154.35625 5 152.35625 5 
L 48.782813 5 
Q 46.782813 5 46.782813 7 
L 46.782813 94.06875 
Q 46.782813 96.06875 48.782813 96.06875 
z
" style="fill:#ffffff;opacity:0.8;stroke:#cccccc;stroke-linejoin:miter;"/>
    </g>
    <g id="line2d_19">
     <path d="M 50.782813 13.098437 
L 70.782813 13.098437 
" style="fill:none;stroke:#1f77b4;stroke-linecap:square;stroke-width:1.5;"/>
    </g>
    <g id="line2d_20"/>
    <g id="text_13">
     <!-- DMP1 -->
     <g transform="translate(78.782813 16.598437)scale(0.1 -0.1)">
      <defs>
       <path d="M 19.671875 64.796875 
L 19.671875 8.109375 
L 31.59375 8.109375 
Q 46.6875 8.109375 53.6875 14.9375 
Q 60.6875 21.78125 60.6875 36.53125 
Q 60.6875 51.171875 53.6875 57.984375 
Q 46.6875 64.796875 31.59375 64.796875 
z
M 9.8125 72.90625 
L 30.078125 72.90625 
Q 51.265625 72.90625 61.171875 64.09375 
Q 71.09375 55.28125 71.09375 36.53125 
Q 71.09375 17.671875 61.125 8.828125 
Q 51.171875 0 30.078125 0 
L 9.8125 0 
z
" id="DejaVuSans-68"/>
       <path d="M 9.8125 72.90625 
L 24.515625 72.90625 
L 43.109375 23.296875 
L 61.8125 72.90625 
L 76.515625 72.90625 
L 76.515625 0 
L 66.890625 0 
L 66.890625 64.015625 
L 48.09375 14.015625 
L 38.1875 14.015625 
L 19.390625 64.015625 
L 19.390625 0 
L 9.8125 0 
z
" id="DejaVuSans-77"/>
      </defs>
      <use xlink:href="#DejaVuSans-68"/>
      <use x="77.001953" xlink:href="#DejaVuSans-77"/>
      <use x="163.28125" xlink:href="#DejaVuSans-80"/>
      <use x="223.583984" xlink:href="#DejaVuSans-49"/>
     </g>
    </g>
    <g id="line2d_21">
     <path d="M 50.782813 27.776563 
L 70.782813 27.776563 
" style="fill:none;stroke:#ff7f0e;stroke-linecap:square;stroke-width:1.5;"/>
    </g>
    <g id="line2d_22"/>
    <g id="text_14">
     <!-- DMP2 -->
     <g transform="translate(78.782813 31.276563)scale(0.1 -0.1)">
      <use xlink:href="#DejaVuSans-68"/>
      <use x="77.001953" xlink:href="#DejaVuSans-77"/>
      <use x="163.28125" xlink:href="#DejaVuSans-80"/>
      <use x="223.583984" xlink:href="#DejaVuSans-50"/>
     </g>
    </g>
    <g id="line2d_23">
     <path d="M 50.782813 42.454687 
L 70.782813 42.454687 
" style="fill:none;stroke:#808080;stroke-dasharray:1.5,2.475;stroke-dashoffset:0;stroke-width:1.5;"/>
    </g>
    <g id="line2d_24"/>
    <g id="text_15">
     <!-- 2nd ord. DMP -->
     <g transform="translate(78.782813 45.954687)scale(0.1 -0.1)">
      <defs>
       <path d="M 45.40625 46.390625 
L 45.40625 75.984375 
L 54.390625 75.984375 
L 54.390625 0 
L 45.40625 0 
L 45.40625 8.203125 
Q 42.578125 3.328125 38.25 0.953125 
Q 33.9375 -1.421875 27.875 -1.421875 
Q 17.96875 -1.421875 11.734375 6.484375 
Q 5.515625 14.40625 5.515625 27.296875 
Q 5.515625 40.1875 11.734375 48.09375 
Q 17.96875 56 27.875 56 
Q 33.9375 56 38.25 53.625 
Q 42.578125 51.265625 45.40625 46.390625 
z
M 14.796875 27.296875 
Q 14.796875 17.390625 18.875 11.75 
Q 22.953125 6.109375 30.078125 6.109375 
Q 37.203125 6.109375 41.296875 11.75 
Q 45.40625 17.390625 45.40625 27.296875 
Q 45.40625 37.203125 41.296875 42.84375 
Q 37.203125 48.484375 30.078125 48.484375 
Q 22.953125 48.484375 18.875 42.84375 
Q 14.796875 37.203125 14.796875 27.296875 
z
" id="DejaVuSans-100"/>
       <path d="M 41.109375 46.296875 
Q 39.59375 47.171875 37.8125 47.578125 
Q 36.03125 48 33.890625 48 
Q 26.265625 48 22.1875 43.046875 
Q 18.109375 38.09375 18.109375 28.8125 
L 18.109375 0 
L 9.078125 0 
L 9.078125 54.6875 
L 18.109375 54.6875 
L 18.109375 46.1875 
Q 20.953125 51.171875 25.484375 53.578125 
Q 30.03125 56 36.53125 56 
Q 37.453125 56 38.578125 55.875 
Q 39.703125 55.765625 41.0625 55.515625 
z
" id="DejaVuSans-114"/>
       <path d="M 10.6875 12.40625 
L 21 12.40625 
L 21 0 
L 10.6875 0 
z
" id="DejaVuSans-46"/>
      </defs>
      <use xlink:href="#DejaVuSans-50"/>
      <use x="63.623047" xlink:href="#DejaVuSans-110"/>
      <use x="127.001953" xlink:href="#DejaVuSans-100"/>
      <use x="190.478516" xlink:href="#DejaVuSans-32"/>
      <use x="222.265625" xlink:href="#DejaVuSans-111"/>
      <use x="283.447266" xlink:href="#DejaVuSans-114"/>
      <use x="322.810547" xlink:href="#DejaVuSans-100"/>
      <use x="386.287109" xlink:href="#DejaVuSans-46"/>
      <use x="418.074219" xlink:href="#DejaVuSans-32"/>
      <use x="449.861328" xlink:href="#DejaVuSans-68"/>
      <use x="526.863281" xlink:href="#DejaVuSans-77"/>
      <use x="613.142578" xlink:href="#DejaVuSans-80"/>
     </g>
    </g>
    <g id="line2d_25">
     <path d="M 50.782813 57.132812 
L 70.782813 57.132812 
" style="fill:none;stroke:#808080;stroke-dasharray:5.55,2.4;stroke-dashoffset:0;stroke-width:1.5;"/>
    </g>
    <g id="line2d_26"/>
    <g id="text_16">
     <!-- 3rd ord. DMP -->
     <g transform="translate(78.782813 60.632812)scale(0.1 -0.1)">
      <use xlink:href="#DejaVuSans-51"/>
      <use x="63.623047" xlink:href="#DejaVuSans-114"/>
      <use x="102.986328" xlink:href="#DejaVuSans-100"/>
      <use x="166.462891" xlink:href="#DejaVuSans-32"/>
      <use x="198.25" xlink:href="#DejaVuSans-111"/>
      <use x="259.431641" xlink:href="#DejaVuSans-114"/>
      <use x="298.794922" xlink:href="#DejaVuSans-100"/>
      <use x="362.271484" xlink:href="#DejaVuSans-46"/>
      <use x="394.058594" xlink:href="#DejaVuSans-32"/>
      <use x="425.845703" xlink:href="#DejaVuSans-68"/>
      <use x="502.847656" xlink:href="#DejaVuSans-77"/>
      <use x="589.126953" xlink:href="#DejaVuSans-80"/>
     </g>
    </g>
    <g id="line2d_27">
     <path d="M 50.782813 71.810937 
L 70.782813 71.810937 
" style="fill:none;stroke:#808080;stroke-linecap:square;stroke-width:1.5;"/>
    </g>
    <g id="line2d_28"/>
    <g id="text_17">
     <!-- Proposed DMP -->
     <g transform="translate(78.782813 75.310937)scale(0.1 -0.1)">
      <defs>
       <path d="M 18.109375 8.203125 
L 18.109375 -20.796875 
L 9.078125 -20.796875 
L 9.078125 54.6875 
L 18.109375 54.6875 
L 18.109375 46.390625 
Q 20.953125 51.265625 25.265625 53.625 
Q 29.59375 56 35.59375 56 
Q 45.5625 56 51.78125 48.09375 
Q 58.015625 40.1875 58.015625 27.296875 
Q 58.015625 14.40625 51.78125 6.484375 
Q 45.5625 -1.421875 35.59375 -1.421875 
Q 29.59375 -1.421875 25.265625 0.953125 
Q 20.953125 3.328125 18.109375 8.203125 
z
M 48.6875 27.296875 
Q 48.6875 37.203125 44.609375 42.84375 
Q 40.53125 48.484375 33.40625 48.484375 
Q 26.265625 48.484375 22.1875 42.84375 
Q 18.109375 37.203125 18.109375 27.296875 
Q 18.109375 17.390625 22.1875 11.75 
Q 26.265625 6.109375 33.40625 6.109375 
Q 40.53125 6.109375 44.609375 11.75 
Q 48.6875 17.390625 48.6875 27.296875 
z
" id="DejaVuSans-112"/>
       <path d="M 56.203125 29.59375 
L 56.203125 25.203125 
L 14.890625 25.203125 
Q 15.484375 15.921875 20.484375 11.0625 
Q 25.484375 6.203125 34.421875 6.203125 
Q 39.59375 6.203125 44.453125 7.46875 
Q 49.3125 8.734375 54.109375 11.28125 
L 54.109375 2.78125 
Q 49.265625 0.734375 44.1875 -0.34375 
Q 39.109375 -1.421875 33.890625 -1.421875 
Q 20.796875 -1.421875 13.15625 6.1875 
Q 5.515625 13.8125 5.515625 26.8125 
Q 5.515625 40.234375 12.765625 48.109375 
Q 20.015625 56 32.328125 56 
Q 43.359375 56 49.78125 48.890625 
Q 56.203125 41.796875 56.203125 29.59375 
z
M 47.21875 32.234375 
Q 47.125 39.59375 43.09375 43.984375 
Q 39.0625 48.390625 32.421875 48.390625 
Q 24.90625 48.390625 20.390625 44.140625 
Q 15.875 39.890625 15.1875 32.171875 
z
" id="DejaVuSans-101"/>
      </defs>
      <use xlink:href="#DejaVuSans-80"/>
      <use x="58.552734" xlink:href="#DejaVuSans-114"/>
      <use x="97.416016" xlink:href="#DejaVuSans-111"/>
      <use x="158.597656" xlink:href="#DejaVuSans-112"/>
      <use x="222.074219" xlink:href="#DejaVuSans-111"/>
      <use x="283.255859" xlink:href="#DejaVuSans-115"/>
      <use x="335.355469" xlink:href="#DejaVuSans-101"/>
      <use x="396.878906" xlink:href="#DejaVuSans-100"/>
      <use x="460.355469" xlink:href="#DejaVuSans-32"/>
      <use x="492.142578" xlink:href="#DejaVuSans-68"/>
      <use x="569.144531" xlink:href="#DejaVuSans-77"/>
      <use x="655.423828" xlink:href="#DejaVuSans-80"/>
     </g>
    </g>
    <g id="line2d_29">
     <path d="M 50.782813 86.489062 
L 70.782813 86.489062 
" style="fill:none;stroke:#000000;stroke-linecap:square;stroke-width:1.5;"/>
    </g>
    <g id="line2d_30"/>
    <g id="text_18">
     <!-- Reference -->
     <g transform="translate(78.782813 89.989062)scale(0.1 -0.1)">
      <defs>
       <path d="M 44.390625 34.1875 
Q 47.5625 33.109375 50.5625 29.59375 
Q 53.5625 26.078125 56.59375 19.921875 
L 66.609375 0 
L 56 0 
L 46.6875 18.703125 
Q 43.0625 26.03125 39.671875 28.421875 
Q 36.28125 30.8125 30.421875 30.8125 
L 19.671875 30.8125 
L 19.671875 0 
L 9.8125 0 
L 9.8125 72.90625 
L 32.078125 72.90625 
Q 44.578125 72.90625 50.734375 67.671875 
Q 56.890625 62.453125 56.890625 51.90625 
Q 56.890625 45.015625 53.6875 40.46875 
Q 50.484375 35.9375 44.390625 34.1875 
z
M 19.671875 64.796875 
L 19.671875 38.921875 
L 32.078125 38.921875 
Q 39.203125 38.921875 42.84375 42.21875 
Q 46.484375 45.515625 46.484375 51.90625 
Q 46.484375 58.296875 42.84375 61.546875 
Q 39.203125 64.796875 32.078125 64.796875 
z
" id="DejaVuSans-82"/>
       <path d="M 37.109375 75.984375 
L 37.109375 68.5 
L 28.515625 68.5 
Q 23.6875 68.5 21.796875 66.546875 
Q 19.921875 64.59375 19.921875 59.515625 
L 19.921875 54.6875 
L 34.71875 54.6875 
L 34.71875 47.703125 
L 19.921875 47.703125 
L 19.921875 0 
L 10.890625 0 
L 10.890625 47.703125 
L 2.296875 47.703125 
L 2.296875 54.6875 
L 10.890625 54.6875 
L 10.890625 58.5 
Q 10.890625 67.625 15.140625 71.796875 
Q 19.390625 75.984375 28.609375 75.984375 
z
" id="DejaVuSans-102"/>
       <path d="M 48.78125 52.59375 
L 48.78125 44.1875 
Q 44.96875 46.296875 41.140625 47.34375 
Q 37.3125 48.390625 33.40625 48.390625 
Q 24.65625 48.390625 19.8125 42.84375 
Q 14.984375 37.3125 14.984375 27.296875 
Q 14.984375 17.28125 19.8125 11.734375 
Q 24.65625 6.203125 33.40625 6.203125 
Q 37.3125 6.203125 41.140625 7.25 
Q 44.96875 8.296875 48.78125 10.40625 
L 48.78125 2.09375 
Q 45.015625 0.34375 40.984375 -0.53125 
Q 36.96875 -1.421875 32.421875 -1.421875 
Q 20.0625 -1.421875 12.78125 6.34375 
Q 5.515625 14.109375 5.515625 27.296875 
Q 5.515625 40.671875 12.859375 48.328125 
Q 20.21875 56 33.015625 56 
Q 37.15625 56 41.109375 55.140625 
Q 45.0625 54.296875 48.78125 52.59375 
z
" id="DejaVuSans-99"/>
      </defs>
      <use xlink:href="#DejaVuSans-82"/>
      <use x="64.982422" xlink:href="#DejaVuSans-101"/>
      <use x="126.505859" xlink:href="#DejaVuSans-102"/>
      <use x="161.710938" xlink:href="#DejaVuSans-101"/>
      <use x="223.234375" xlink:href="#DejaVuSans-114"/>
      <use x="262.097656" xlink:href="#DejaVuSans-101"/>
      <use x="323.621094" xlink:href="#DejaVuSans-110"/>
      <use x="387" xlink:href="#DejaVuSans-99"/>
      <use x="441.980469" xlink:href="#DejaVuSans-101"/>
     </g>
    </g>
   </g>
  </g>
  <g id="axes_2">
   <g id="patch_8">
    <path d="M 324.382812 137.7 
L 554.042812 137.7 
L 554.042812 0 
L 324.382812 0 
z
" style="fill:#ffffff;"/>
   </g>
   <g id="matplotlib.axis_3">
    <g id="xtick_7">
     <g id="line2d_31">
      <g>
       <use style="stroke:#000000;stroke-width:0.8;" x="334.821903" xlink:href="#ma19620287d" y="137.7"/>
      </g>
     </g>
     <g id="text_19">
      <!-- 0 -->
      <g transform="translate(331.640653 152.298437)scale(0.1 -0.1)">
       <use xlink:href="#DejaVuSans-48"/>
      </g>
     </g>
    </g>
    <g id="xtick_8">
     <g id="line2d_32">
      <g>
       <use style="stroke:#000000;stroke-width:0.8;" x="376.578267" xlink:href="#ma19620287d" y="137.7"/>
      </g>
     </g>
     <g id="text_20">
      <!-- 1 -->
      <g transform="translate(373.397017 152.298437)scale(0.1 -0.1)">
       <use xlink:href="#DejaVuSans-49"/>
      </g>
     </g>
    </g>
    <g id="xtick_9">
     <g id="line2d_33">
      <g>
       <use style="stroke:#000000;stroke-width:0.8;" x="418.334631" xlink:href="#ma19620287d" y="137.7"/>
      </g>
     </g>
     <g id="text_21">
      <!-- 2 -->
      <g transform="translate(415.153381 152.298437)scale(0.1 -0.1)">
       <use xlink:href="#DejaVuSans-50"/>
      </g>
     </g>
    </g>
    <g id="xtick_10">
     <g id="line2d_34">
      <g>
       <use style="stroke:#000000;stroke-width:0.8;" x="460.090994" xlink:href="#ma19620287d" y="137.7"/>
      </g>
     </g>
     <g id="text_22">
      <!-- 3 -->
      <g transform="translate(456.909744 152.298437)scale(0.1 -0.1)">
       <use xlink:href="#DejaVuSans-51"/>
      </g>
     </g>
    </g>
    <g id="xtick_11">
     <g id="line2d_35">
      <g>
       <use style="stroke:#000000;stroke-width:0.8;" x="501.847358" xlink:href="#ma19620287d" y="137.7"/>
      </g>
     </g>
     <g id="text_23">
      <!-- 4 -->
      <g transform="translate(498.666108 152.298437)scale(0.1 -0.1)">
       <use xlink:href="#DejaVuSans-52"/>
      </g>
     </g>
    </g>
    <g id="xtick_12">
     <g id="line2d_36">
      <g>
       <use style="stroke:#000000;stroke-width:0.8;" x="543.603722" xlink:href="#ma19620287d" y="137.7"/>
      </g>
     </g>
     <g id="text_24">
      <!-- 5 -->
      <g transform="translate(540.422472 152.298437)scale(0.1 -0.1)">
       <use xlink:href="#DejaVuSans-53"/>
      </g>
     </g>
    </g>
   </g>
   <g id="matplotlib.axis_4">
    <g id="ytick_6">
     <g id="line2d_37">
      <g>
       <use style="stroke:#000000;stroke-width:0.8;" x="324.382812" xlink:href="#m810ebde39a" y="116.405389"/>
      </g>
     </g>
     <g id="text_25">
      <!-- 0 -->
      <g transform="translate(311.020312 120.204608)scale(0.1 -0.1)">
       <use xlink:href="#DejaVuSans-48"/>
      </g>
     </g>
    </g>
    <g id="ytick_7">
     <g id="line2d_38">
      <g>
       <use style="stroke:#000000;stroke-width:0.8;" x="324.382812" xlink:href="#m810ebde39a" y="84.097344"/>
      </g>
     </g>
     <g id="text_26">
      <!-- 10 -->
      <g transform="translate(304.657812 87.896563)scale(0.1 -0.1)">
       <use xlink:href="#DejaVuSans-49"/>
       <use x="63.623047" xlink:href="#DejaVuSans-48"/>
      </g>
     </g>
    </g>
    <g id="ytick_8">
     <g id="line2d_39">
      <g>
       <use style="stroke:#000000;stroke-width:0.8;" x="324.382812" xlink:href="#m810ebde39a" y="51.789299"/>
      </g>
     </g>
     <g id="text_27">
      <!-- 20 -->
      <g transform="translate(304.657812 55.588517)scale(0.1 -0.1)">
       <use xlink:href="#DejaVuSans-50"/>
       <use x="63.623047" xlink:href="#DejaVuSans-48"/>
      </g>
     </g>
    </g>
    <g id="ytick_9">
     <g id="line2d_40">
      <g>
       <use style="stroke:#000000;stroke-width:0.8;" x="324.382812" xlink:href="#m810ebde39a" y="19.481253"/>
      </g>
     </g>
     <g id="text_28">
      <!-- 30 -->
      <g transform="translate(304.657812 23.280472)scale(0.1 -0.1)">
       <use xlink:href="#DejaVuSans-51"/>
       <use x="63.623047" xlink:href="#DejaVuSans-48"/>
      </g>
     </g>
    </g>
    <g id="text_29">
     <!-- Velocity (m/s) -->
     <g transform="translate(298.578125 103.115625)rotate(-90)scale(0.1 -0.1)">
      <defs>
       <path d="M 28.609375 0 
L 0.78125 72.90625 
L 11.078125 72.90625 
L 34.1875 11.53125 
L 57.328125 72.90625 
L 67.578125 72.90625 
L 39.796875 0 
z
" id="DejaVuSans-86"/>
       <path d="M 9.421875 75.984375 
L 18.40625 75.984375 
L 18.40625 0 
L 9.421875 0 
z
" id="DejaVuSans-108"/>
       <path d="M 32.171875 -5.078125 
Q 28.375 -14.84375 24.75 -17.8125 
Q 21.140625 -20.796875 15.09375 -20.796875 
L 7.90625 -20.796875 
L 7.90625 -13.28125 
L 13.1875 -13.28125 
Q 16.890625 -13.28125 18.9375 -11.515625 
Q 21 -9.765625 23.484375 -3.21875 
L 25.09375 0.875 
L 2.984375 54.6875 
L 12.5 54.6875 
L 29.59375 11.921875 
L 46.6875 54.6875 
L 56.203125 54.6875 
z
" id="DejaVuSans-121"/>
       <path d="M 25.390625 72.90625 
L 33.6875 72.90625 
L 8.296875 -9.28125 
L 0 -9.28125 
z
" id="DejaVuSans-47"/>
      </defs>
      <use xlink:href="#DejaVuSans-86"/>
      <use x="60.658203" xlink:href="#DejaVuSans-101"/>
      <use x="122.181641" xlink:href="#DejaVuSans-108"/>
      <use x="149.964844" xlink:href="#DejaVuSans-111"/>
      <use x="211.146484" xlink:href="#DejaVuSans-99"/>
      <use x="266.126953" xlink:href="#DejaVuSans-105"/>
      <use x="293.910156" xlink:href="#DejaVuSans-116"/>
      <use x="333.119141" xlink:href="#DejaVuSans-121"/>
      <use x="392.298828" xlink:href="#DejaVuSans-32"/>
      <use x="424.085938" xlink:href="#DejaVuSans-40"/>
      <use x="463.099609" xlink:href="#DejaVuSans-109"/>
      <use x="560.511719" xlink:href="#DejaVuSans-47"/>
      <use x="594.203125" xlink:href="#DejaVuSans-115"/>
      <use x="646.302734" xlink:href="#DejaVuSans-41"/>
     </g>
    </g>
   </g>
   <g id="line2d_41">
    <path clip-path="url(#p18b85f3243)" d="M 334.821903 131.440909 
L 338.99754 126.681246 
L 343.173176 122.314433 
L 347.348813 118.020636 
L 351.524449 112.964229 
L 355.700085 108.298406 
L 359.875722 103.399038 
L 364.051358 99.804634 
L 368.226994 94.860729 
L 372.402631 90.56879 
L 376.578267 86.239531 
L 380.753903 81.905286 
L 384.92954 78.438897 
L 389.105176 74.273699 
L 393.280812 70.453399 
L 397.456449 66.945206 
L 401.632085 63.46783 
L 405.807722 60.303622 
L 409.983358 57.552704 
L 414.158994 54.80976 
L 418.334631 52.296102 
L 422.510267 50.205755 
L 426.685903 48.035687 
L 430.86154 46.098811 
L 435.037176 44.356928 
L 439.212812 42.809816 
L 443.388449 41.359563 
L 447.564085 40.008461 
L 451.739722 38.735114 
L 455.915358 37.5472 
L 460.090994 36.484843 
L 464.266631 35.548406 
L 468.442267 34.740046 
L 472.617903 34.017889 
L 476.79354 33.397805 
L 480.969176 32.918429 
L 485.144812 32.638958 
L 489.320449 32.506469 
L 493.496085 32.39654 
L 497.671722 32.248153 
L 501.847358 32.068683 
L 506.022994 31.768235 
L 510.198631 31.282883 
L 514.374267 30.686701 
L 518.549903 30.188168 
L 522.72554 29.879271 
L 526.901176 29.654238 
L 531.076812 29.012758 
L 535.252449 28.516134 
L 539.428085 27.782811 
L 543.603722 27.027255 
" style="fill:none;stroke:#000000;stroke-linecap:square;stroke-width:1.5;"/>
   </g>
   <g id="line2d_42">
    <path clip-path="url(#p18b85f3243)" d="M 334.821903 131.440909 
L 338.99754 120.935815 
L 343.173176 114.206918 
L 347.348813 115.491549 
L 351.524449 115.633638 
L 355.700085 109.137034 
L 359.875722 99.399539 
L 364.051358 92.247158 
L 368.226994 91.545459 
L 372.402631 91.322628 
L 376.578267 86.556213 
L 380.753903 79.146967 
L 384.92954 72.938865 
L 389.105176 70.89841 
L 393.280812 70.041088 
L 397.456449 66.765804 
L 401.632085 61.837657 
L 405.807722 57.360724 
L 409.983358 55.100589 
L 414.158994 53.961197 
L 418.334631 51.922853 
L 422.510267 49.121368 
L 426.685903 46.420611 
L 430.86154 44.52315 
L 435.037176 43.279308 
L 439.212812 42.063818 
L 443.388449 40.797656 
L 447.564085 39.578815 
L 451.739722 38.376642 
L 455.915358 37.29761 
L 460.090994 36.619002 
" style="fill:none;stroke:#1f77b4;stroke-dasharray:1.5,2.475;stroke-dashoffset:0;stroke-width:1.5;"/>
   </g>
   <g id="line2d_43">
    <path clip-path="url(#p18b85f3243)" d="M 460.090994 36.619002 
L 464.266631 63.229079 
L 468.442267 52.326883 
L 472.617903 40.462774 
L 476.79354 40.235651 
L 480.969176 36.2653 
L 485.144812 22.608569 
L 489.320449 7.716912 
L 493.496085 6.259091 
L 497.671722 24.529619 
L 501.847358 37.699704 
L 506.022994 32.86515 
L 510.198631 19.450374 
L 514.374267 13.939763 
L 518.549903 26.798654 
L 522.72554 38.065275 
L 526.901176 33.040177 
L 531.076812 18.813614 
L 535.252449 8.986758 
L 539.428085 13.914973 
L 543.603722 20.916366 
" style="fill:none;stroke:#ff7f0e;stroke-dasharray:1.5,2.475;stroke-dashoffset:0;stroke-width:1.5;"/>
   </g>
   <g id="line2d_44">
    <path clip-path="url(#p18b85f3243)" d="M 334.821903 131.440909 
L 338.99754 127.195614 
L 343.173176 122.131537 
L 347.348813 116.684195 
L 351.524449 111.65069 
L 355.700085 107.065477 
L 359.875722 102.453298 
L 364.051358 97.561694 
L 368.226994 92.571491 
L 372.402631 87.955129 
L 376.578267 83.798351 
L 380.753903 79.826336 
L 384.92954 75.851671 
L 389.105176 71.895127 
L 393.280812 68.13014 
L 397.456449 64.64276 
L 401.632085 61.384077 
L 405.807722 58.31062 
L 409.983358 55.424977 
L 414.158994 52.760916 
L 418.334631 50.344154 
L 422.510267 48.175281 
L 426.685903 46.240667 
L 430.86154 44.498254 
L 435.037176 42.854197 
L 439.212812 41.271011 
L 443.388449 39.832435 
L 447.564085 38.616311 
L 451.739722 37.618227 
L 455.915358 36.726226 
L 460.090994 35.857395 
" style="fill:none;stroke:#1f77b4;stroke-dasharray:5.55,2.4;stroke-dashoffset:0;stroke-width:1.5;"/>
   </g>
   <g id="line2d_45">
    <path clip-path="url(#p18b85f3243)" d="M 460.090994 35.857395 
L 464.266631 35.08851 
L 468.442267 37.596757 
L 472.617903 38.984988 
L 476.79354 38.993048 
L 480.969176 38.988438 
L 485.144812 38.543584 
L 489.320449 36.479396 
L 493.496085 32.649249 
L 497.671722 28.730766 
L 501.847358 27.204113 
L 506.022994 27.569745 
L 510.198631 27.636495 
L 514.374267 26.247925 
L 518.549903 24.254905 
L 522.72554 23.8378 
L 526.901176 24.880542 
L 531.076812 25.445345 
L 535.252449 24.328052 
L 539.428085 21.85711 
L 543.603722 19.540337 
" style="fill:none;stroke:#ff7f0e;stroke-dasharray:5.55,2.4;stroke-dashoffset:0;stroke-width:1.5;"/>
   </g>
   <g id="line2d_46">
    <path clip-path="url(#p18b85f3243)" d="M 334.821903 131.440909 
L 338.99754 127.195614 
L 343.173176 122.316018 
L 347.348813 117.102927 
L 351.524449 112.071536 
L 355.700085 107.298217 
L 359.875722 102.557008 
L 364.051358 97.72875 
L 368.226994 92.901984 
L 372.402631 88.298484 
L 376.578267 83.986836 
L 380.753903 79.883719 
L 384.92954 75.923385 
L 389.105176 72.083711 
L 393.280812 68.360421 
L 397.456449 64.788741 
L 401.632085 61.432525 
L 405.807722 58.335177 
L 409.983358 55.497981 
L 414.158994 52.880187 
L 418.334631 50.458797 
L 422.510267 48.25043 
L 426.685903 46.263652 
L 430.86154 44.478874 
L 435.037176 42.849156 
L 439.212812 41.337089 
L 443.388449 39.937459 
L 447.564085 38.648842 
L 451.739722 37.462438 
L 455.915358 36.367045 
L 460.090994 35.346444 
" style="fill:none;stroke:#1f77b4;stroke-linecap:square;stroke-width:1.5;"/>
   </g>
   <g id="line2d_47">
    <path clip-path="url(#p18b85f3243)" d="M 460.090994 35.346444 
L 464.266631 34.375165 
L 468.442267 32.843515 
L 472.617903 31.799835 
L 476.79354 31.362456 
L 480.969176 31.266657 
L 485.144812 31.377732 
L 489.320449 31.656057 
L 493.496085 32.020765 
L 497.671722 32.343249 
L 501.847358 32.490521 
L 506.022994 32.392171 
L 510.198631 32.032695 
L 514.374267 31.432996 
L 518.549903 30.689585 
L 522.72554 29.955591 
L 526.901176 29.200904 
L 531.076812 28.257565 
L 535.252449 26.982912 
L 539.428085 25.202262 
L 543.603722 22.670358 
" style="fill:none;stroke:#ff7f0e;stroke-linecap:square;stroke-width:1.5;"/>
   </g>
   <g id="patch_9">
    <path d="M 324.382812 137.7 
L 324.382812 0 
" style="fill:none;stroke:#000000;stroke-linecap:square;stroke-linejoin:miter;stroke-width:0.8;"/>
   </g>
   <g id="patch_10">
    <path d="M 554.042812 137.7 
L 554.042812 0 
" style="fill:none;stroke:#000000;stroke-linecap:square;stroke-linejoin:miter;stroke-width:0.8;"/>
   </g>
   <g id="patch_11">
    <path d="M 324.382812 137.7 
L 554.042812 137.7 
" style="fill:none;stroke:#000000;stroke-linecap:square;stroke-linejoin:miter;stroke-width:0.8;"/>
   </g>
   <g id="patch_12">
    <path d="M 324.382812 0 
L 554.042812 0 
" style="fill:none;stroke:#000000;stroke-linecap:square;stroke-linejoin:miter;stroke-width:0.8;"/>
   </g>
  </g>
  <g id="axes_3">
   <g id="patch_13">
    <path d="M 41.782813 307.24 
L 271.442812 307.24 
L 271.442812 169.54 
L 41.782813 169.54 
z
" style="fill:#ffffff;"/>
   </g>
   <g id="matplotlib.axis_5">
    <g id="xtick_13">
     <g id="line2d_48">
      <g>
       <use style="stroke:#000000;stroke-width:0.8;" x="52.221903" xlink:href="#ma19620287d" y="307.24"/>
      </g>
     </g>
     <g id="text_30">
      <!-- 0 -->
      <g transform="translate(49.040653 321.838437)scale(0.1 -0.1)">
       <use xlink:href="#DejaVuSans-48"/>
      </g>
     </g>
    </g>
    <g id="xtick_14">
     <g id="line2d_49">
      <g>
       <use style="stroke:#000000;stroke-width:0.8;" x="93.978267" xlink:href="#ma19620287d" y="307.24"/>
      </g>
     </g>
     <g id="text_31">
      <!-- 1 -->
      <g transform="translate(90.797017 321.838437)scale(0.1 -0.1)">
       <use xlink:href="#DejaVuSans-49"/>
      </g>
     </g>
    </g>
    <g id="xtick_15">
     <g id="line2d_50">
      <g>
       <use style="stroke:#000000;stroke-width:0.8;" x="135.734631" xlink:href="#ma19620287d" y="307.24"/>
      </g>
     </g>
     <g id="text_32">
      <!-- 2 -->
      <g transform="translate(132.553381 321.838437)scale(0.1 -0.1)">
       <use xlink:href="#DejaVuSans-50"/>
      </g>
     </g>
    </g>
    <g id="xtick_16">
     <g id="line2d_51">
      <g>
       <use style="stroke:#000000;stroke-width:0.8;" x="177.490994" xlink:href="#ma19620287d" y="307.24"/>
      </g>
     </g>
     <g id="text_33">
      <!-- 3 -->
      <g transform="translate(174.309744 321.838437)scale(0.1 -0.1)">
       <use xlink:href="#DejaVuSans-51"/>
      </g>
     </g>
    </g>
    <g id="xtick_17">
     <g id="line2d_52">
      <g>
       <use style="stroke:#000000;stroke-width:0.8;" x="219.247358" xlink:href="#ma19620287d" y="307.24"/>
      </g>
     </g>
     <g id="text_34">
      <!-- 4 -->
      <g transform="translate(216.066108 321.838437)scale(0.1 -0.1)">
       <use xlink:href="#DejaVuSans-52"/>
      </g>
     </g>
    </g>
    <g id="xtick_18">
     <g id="line2d_53">
      <g>
       <use style="stroke:#000000;stroke-width:0.8;" x="261.003722" xlink:href="#ma19620287d" y="307.24"/>
      </g>
     </g>
     <g id="text_35">
      <!-- 5 -->
      <g transform="translate(257.822472 321.838437)scale(0.1 -0.1)">
       <use xlink:href="#DejaVuSans-53"/>
      </g>
     </g>
    </g>
    <g id="text_36">
     <!-- Time (s) -->
     <g transform="translate(136.283906 335.516563)scale(0.1 -0.1)">
      <defs>
       <path d="M -0.296875 72.90625 
L 61.375 72.90625 
L 61.375 64.59375 
L 35.5 64.59375 
L 35.5 0 
L 25.59375 0 
L 25.59375 64.59375 
L -0.296875 64.59375 
z
" id="DejaVuSans-84"/>
      </defs>
      <use xlink:href="#DejaVuSans-84"/>
      <use x="57.958984" xlink:href="#DejaVuSans-105"/>
      <use x="85.742188" xlink:href="#DejaVuSans-109"/>
      <use x="183.154297" xlink:href="#DejaVuSans-101"/>
      <use x="244.677734" xlink:href="#DejaVuSans-32"/>
      <use x="276.464844" xlink:href="#DejaVuSans-40"/>
      <use x="315.478516" xlink:href="#DejaVuSans-115"/>
      <use x="367.578125" xlink:href="#DejaVuSans-41"/>
     </g>
    </g>
   </g>
   <g id="matplotlib.axis_6">
    <g id="ytick_10">
     <g id="line2d_54">
      <g>
       <use style="stroke:#000000;stroke-width:0.8;" x="41.782813" xlink:href="#m810ebde39a" y="307.24"/>
      </g>
     </g>
     <g id="text_37">
      <!-- 10 -->
      <g transform="translate(13.678125 311.039219)scale(0.1 -0.1)">
       <defs>
        <path d="M 10.59375 35.5 
L 73.1875 35.5 
L 73.1875 27.203125 
L 10.59375 27.203125 
z
" id="DejaVuSans-8722"/>
       </defs>
       <use xlink:href="#DejaVuSans-8722"/>
       <use x="83.789062" xlink:href="#DejaVuSans-49"/>
       <use x="147.412109" xlink:href="#DejaVuSans-48"/>
      </g>
     </g>
    </g>
    <g id="ytick_11">
     <g id="line2d_55">
      <g>
       <use style="stroke:#000000;stroke-width:0.8;" x="41.782813" xlink:href="#m810ebde39a" y="284.29"/>
      </g>
     </g>
     <g id="text_38">
      <!-- 5 -->
      <g transform="translate(20.040625 288.089219)scale(0.1 -0.1)">
       <use xlink:href="#DejaVuSans-8722"/>
       <use x="83.789062" xlink:href="#DejaVuSans-53"/>
      </g>
     </g>
    </g>
    <g id="ytick_12">
     <g id="line2d_56">
      <g>
       <use style="stroke:#000000;stroke-width:0.8;" x="41.782813" xlink:href="#m810ebde39a" y="261.34"/>
      </g>
     </g>
     <g id="text_39">
      <!-- 0 -->
      <g transform="translate(28.420313 265.139219)scale(0.1 -0.1)">
       <use xlink:href="#DejaVuSans-48"/>
      </g>
     </g>
    </g>
    <g id="ytick_13">
     <g id="line2d_57">
      <g>
       <use style="stroke:#000000;stroke-width:0.8;" x="41.782813" xlink:href="#m810ebde39a" y="238.39"/>
      </g>
     </g>
     <g id="text_40">
      <!-- 5 -->
      <g transform="translate(28.420313 242.189219)scale(0.1 -0.1)">
       <use xlink:href="#DejaVuSans-53"/>
      </g>
     </g>
    </g>
    <g id="ytick_14">
     <g id="line2d_58">
      <g>
       <use style="stroke:#000000;stroke-width:0.8;" x="41.782813" xlink:href="#m810ebde39a" y="215.44"/>
      </g>
     </g>
     <g id="text_41">
      <!-- 10 -->
      <g transform="translate(22.057813 219.239219)scale(0.1 -0.1)">
       <use xlink:href="#DejaVuSans-49"/>
       <use x="63.623047" xlink:href="#DejaVuSans-48"/>
      </g>
     </g>
    </g>
    <g id="ytick_15">
     <g id="line2d_59">
      <g>
       <use style="stroke:#000000;stroke-width:0.8;" x="41.782813" xlink:href="#m810ebde39a" y="192.49"/>
      </g>
     </g>
     <g id="text_42">
      <!-- 15 -->
      <g transform="translate(22.057813 196.289219)scale(0.1 -0.1)">
       <use xlink:href="#DejaVuSans-49"/>
       <use x="63.623047" xlink:href="#DejaVuSans-53"/>
      </g>
     </g>
    </g>
    <g id="ytick_16">
     <g id="line2d_60">
      <g>
       <use style="stroke:#000000;stroke-width:0.8;" x="41.782813" xlink:href="#m810ebde39a" y="169.54"/>
      </g>
     </g>
     <g id="text_43">
      <!-- 20 -->
      <g transform="translate(22.057813 173.339219)scale(0.1 -0.1)">
       <use xlink:href="#DejaVuSans-50"/>
       <use x="63.623047" xlink:href="#DejaVuSans-48"/>
      </g>
     </g>
    </g>
    <g id="text_44">
     <!-- Acceleration (m/s2) -->
     <g transform="translate(7.598438 287.291562)rotate(-90)scale(0.1 -0.1)">
      <defs>
       <path d="M 34.1875 63.1875 
L 20.796875 26.90625 
L 47.609375 26.90625 
z
M 28.609375 72.90625 
L 39.796875 72.90625 
L 67.578125 0 
L 57.328125 0 
L 50.6875 18.703125 
L 17.828125 18.703125 
L 11.1875 0 
L 0.78125 0 
z
" id="DejaVuSans-65"/>
       <path d="M 34.28125 27.484375 
Q 23.390625 27.484375 19.1875 25 
Q 14.984375 22.515625 14.984375 16.5 
Q 14.984375 11.71875 18.140625 8.90625 
Q 21.296875 6.109375 26.703125 6.109375 
Q 34.1875 6.109375 38.703125 11.40625 
Q 43.21875 16.703125 43.21875 25.484375 
L 43.21875 27.484375 
z
M 52.203125 31.203125 
L 52.203125 0 
L 43.21875 0 
L 43.21875 8.296875 
Q 40.140625 3.328125 35.546875 0.953125 
Q 30.953125 -1.421875 24.3125 -1.421875 
Q 15.921875 -1.421875 10.953125 3.296875 
Q 6 8.015625 6 15.921875 
Q 6 25.140625 12.171875 29.828125 
Q 18.359375 34.515625 30.609375 34.515625 
L 43.21875 34.515625 
L 43.21875 35.40625 
Q 43.21875 41.609375 39.140625 45 
Q 35.0625 48.390625 27.6875 48.390625 
Q 23 48.390625 18.546875 47.265625 
Q 14.109375 46.140625 10.015625 43.890625 
L 10.015625 52.203125 
Q 14.9375 54.109375 19.578125 55.046875 
Q 24.21875 56 28.609375 56 
Q 40.484375 56 46.34375 49.84375 
Q 52.203125 43.703125 52.203125 31.203125 
z
" id="DejaVuSans-97"/>
      </defs>
      <use xlink:href="#DejaVuSans-65"/>
      <use x="66.658203" xlink:href="#DejaVuSans-99"/>
      <use x="121.638672" xlink:href="#DejaVuSans-99"/>
      <use x="176.619141" xlink:href="#DejaVuSans-101"/>
      <use x="238.142578" xlink:href="#DejaVuSans-108"/>
      <use x="265.925781" xlink:href="#DejaVuSans-101"/>
      <use x="327.449219" xlink:href="#DejaVuSans-114"/>
      <use x="368.5625" xlink:href="#DejaVuSans-97"/>
      <use x="429.841797" xlink:href="#DejaVuSans-116"/>
      <use x="469.050781" xlink:href="#DejaVuSans-105"/>
      <use x="496.833984" xlink:href="#DejaVuSans-111"/>
      <use x="558.015625" xlink:href="#DejaVuSans-110"/>
      <use x="621.394531" xlink:href="#DejaVuSans-32"/>
      <use x="653.181641" xlink:href="#DejaVuSans-40"/>
      <use x="692.195312" xlink:href="#DejaVuSans-109"/>
      <use x="789.607422" xlink:href="#DejaVuSans-47"/>
      <use x="823.298828" xlink:href="#DejaVuSans-115"/>
      <use x="875.398438" xlink:href="#DejaVuSans-50"/>
      <use x="939.021484" xlink:href="#DejaVuSans-41"/>
     </g>
    </g>
   </g>
   <g id="line2d_61">
    <path clip-path="url(#pfaabb39dc0)" d="M 52.221903 201.027145 
L 56.39754 197.627761 
L 60.573176 194.644559 
L 64.748812 194.258152 
L 68.924449 195.170296 
L 73.100085 195.869817 
L 77.275722 197.235219 
L 81.451358 198.827169 
L 85.626994 198.254836 
L 89.802631 200.757509 
L 93.978267 202.14286 
L 98.153903 204.479883 
L 102.32954 205.2593 
L 106.505176 206.658974 
L 110.680812 208.80299 
L 114.856449 211.380568 
L 119.032085 215.971496 
L 123.207722 218.576461 
L 127.383358 222.328181 
L 131.558994 225.874077 
L 135.734631 228.186505 
L 139.910267 230.409251 
L 144.085903 233.232538 
L 148.26154 235.280634 
L 152.437176 238.076059 
L 156.612812 240.215297 
L 160.788449 241.605565 
L 164.964085 242.793893 
L 169.139722 243.998763 
L 173.315358 245.562622 
L 177.490994 247.283912 
L 181.666631 249.004943 
L 185.842267 250.450736 
L 190.017903 251.990192 
L 194.19354 253.966767 
L 198.369176 256.325172 
L 202.544812 258.32693 
L 206.720449 259.595638 
L 210.896085 259.893492 
L 215.071722 259.066878 
L 219.247358 257.354477 
L 223.422994 255.33734 
L 227.598631 253.933911 
L 231.774267 254.328856 
L 235.949903 255.634527 
L 240.12554 256.420289 
L 244.301176 255.538513 
L 248.476812 253.993582 
L 252.652449 252.173195 
L 256.828085 250.768639 
L 261.003722 248.413036 
" style="fill:none;stroke:#000000;stroke-linecap:square;stroke-width:1.5;"/>
   </g>
   <g id="line2d_62">
    <path clip-path="url(#pfaabb39dc0)" d="M 52.221903 201.027145 
L 56.39754 112.094262 
L 60.573176 165.742653 
L 64.748812 279.590731 
L 68.924449 263.35866 
L 73.100085 169.042819 
L 77.275722 122.999539 
L 81.451358 159.726201 
L 85.626994 251.37097 
L 89.802631 258.174258 
L 93.978267 193.623597 
L 98.153903 156.07695 
L 102.32954 173.141556 
L 106.505176 232.35128 
L 110.680812 249.160018 
L 114.856449 214.808092 
L 119.032085 191.32591 
L 123.207722 197.73625 
L 127.383358 229.230276 
L 131.558994 245.152712 
L 135.734631 232.381281 
L 139.910267 221.539333 
L 144.085903 222.970359 
L 148.26154 234.382798 
L 152.437176 243.668737 
L 156.612812 244.071503 
L 160.788449 243.351715 
L 164.964085 244.023874 
L 169.139722 244.260786 
L 173.315358 246.010218 
L 177.490994 251.699019 
" style="fill:none;stroke:#1f77b4;stroke-dasharray:1.5,2.475;stroke-dashoffset:0;stroke-width:1.5;"/>
   </g>
   <g id="line2d_63">
    <path clip-path="url(#pfaabb39dc0)" d="M 177.490994 251.699019 
L 178.426926 338.59625 
M 184.023387 338.59625 
L 185.842267 106.452574 
L 190.017903 92.786825 
L 194.19354 258.113219 
L 198.369176 204.933278 
L 202.544812 67.318982 
L 206.720449 49.77452 
L 210.896085 240.62869 
L 212.355612 338.59625 
M 221.040605 338.59625 
L 223.422994 192.655556 
L 227.598631 70.756474 
L 231.774267 183.050834 
L 234.263013 338.59625 
M 241.619464 338.59625 
L 244.301176 189.948519 
L 248.476812 59.223413 
L 252.652449 121.729954 
L 256.828085 331.355049 
L 257.854669 338.59625 
" style="fill:none;stroke:#ff7f0e;stroke-dasharray:1.5,2.475;stroke-dashoffset:0;stroke-width:1.5;"/>
   </g>
   <g id="line2d_64">
    <path clip-path="url(#pfaabb39dc0)" d="M 52.221903 201.027145 
L 56.39754 189.394717 
L 60.573176 183.949691 
L 64.748812 189.829057 
L 68.924449 196.19793 
L 73.100085 195.814828 
L 77.275722 191.845052 
L 81.451358 190.444243 
L 85.626994 195.755405 
L 89.802631 202.284696 
L 93.978267 204.909649 
L 98.153903 204.871981 
L 102.32954 205.129427 
L 106.505176 207.850861 
L 110.680812 211.794867 
L 114.856449 215.043945 
L 119.032085 217.675393 
L 123.207722 220.343682 
L 127.383358 223.491712 
L 131.558994 227.005128 
L 135.734631 230.526841 
L 139.910267 233.854962 
L 144.085903 236.585545 
L 148.26154 237.982958 
L 152.437176 238.847693 
L 156.612812 240.902161 
L 160.788449 244.062517 
L 164.964085 247.160213 
L 169.139722 248.667343 
L 173.315358 248.996583 
L 177.490994 250.416448 
" style="fill:none;stroke:#1f77b4;stroke-dasharray:5.55,2.4;stroke-dashoffset:0;stroke-width:1.5;"/>
   </g>
   <g id="line2d_65">
    <path clip-path="url(#pfaabb39dc0)" d="M 177.490994 250.416448 
L 181.666631 296.97461 
L 185.842267 281.062621 
L 190.017903 261.454467 
L 194.19354 261.274494 
L 198.369176 255.020006 
L 202.544812 232.01412 
L 206.720449 206.925141 
L 210.896085 205.670168 
L 215.071722 239.650826 
L 219.247358 266.534563 
L 223.422994 262.28831 
L 227.598631 241.612559 
L 231.774267 233.025204 
L 235.949903 255.414183 
L 240.12554 276.15422 
L 244.301176 269.364156 
L 248.476812 245.466677 
L 252.652449 226.235364 
L 256.828085 228.425572 
L 261.003722 236.285464 
" style="fill:none;stroke:#ff7f0e;stroke-dasharray:5.55,2.4;stroke-dashoffset:0;stroke-width:1.5;"/>
   </g>
   <g id="line2d_66">
    <path clip-path="url(#pfaabb39dc0)" d="M 52.221903 201.027145 
L 56.39754 192.015647 
L 60.573176 187.277679 
L 64.748812 189.859099 
L 68.924449 193.525501 
L 73.100085 193.981714 
L 77.275722 192.744995 
L 81.451358 192.766199 
L 85.626994 195.938125 
L 89.802631 200.084466 
L 93.978267 203.047097 
L 98.153903 205.075573 
L 102.32954 206.789792 
L 106.505176 208.443281 
L 110.680812 210.597177 
L 114.856449 213.658303 
L 119.032085 217.335955 
L 123.207722 221.032005 
L 127.383358 224.149039 
L 131.558994 226.939321 
L 135.734631 229.965774 
L 139.910267 233.113881 
L 144.085903 235.983712 
L 148.26154 238.186612 
L 152.437176 239.858076 
L 156.612812 241.455456 
L 160.788449 243.0326 
L 164.964085 244.484854 
L 169.139722 245.777754 
L 173.315358 246.840301 
L 177.490994 247.541038 
" style="fill:none;stroke:#1f77b4;stroke-linecap:square;stroke-width:1.5;"/>
   </g>
   <g id="line2d_67">
    <path clip-path="url(#pfaabb39dc0)" d="M 177.490994 247.541038 
L 181.666631 239.579866 
L 185.842267 246.512504 
L 190.017903 255.126143 
L 194.19354 259.978966 
L 198.369176 262.918093 
L 202.544812 265.294088 
L 206.720449 266.521448 
L 210.896085 265.921485 
L 215.071722 263.432339 
L 219.247358 259.942732 
L 223.422994 256.232952 
L 227.598631 252.820075 
L 231.774267 250.77833 
L 235.949903 250.912155 
L 240.12554 250.618185 
L 244.301176 247.937984 
L 248.476812 243.231022 
L 252.652449 236.042347 
L 256.828085 225.369274 
L 261.003722 216.372291 
" style="fill:none;stroke:#ff7f0e;stroke-linecap:square;stroke-width:1.5;"/>
   </g>
   <g id="patch_14">
    <path d="M 41.782813 307.24 
L 41.782813 169.54 
" style="fill:none;stroke:#000000;stroke-linecap:square;stroke-linejoin:miter;stroke-width:0.8;"/>
   </g>
   <g id="patch_15">
    <path d="M 271.442812 307.24 
L 271.442812 169.54 
" style="fill:none;stroke:#000000;stroke-linecap:square;stroke-linejoin:miter;stroke-width:0.8;"/>
   </g>
   <g id="patch_16">
    <path d="M 41.782813 307.24 
L 271.442812 307.24 
" style="fill:none;stroke:#000000;stroke-linecap:square;stroke-linejoin:miter;stroke-width:0.8;"/>
   </g>
   <g id="patch_17">
    <path d="M 41.782813 169.54 
L 271.442812 169.54 
" style="fill:none;stroke:#000000;stroke-linecap:square;stroke-linejoin:miter;stroke-width:0.8;"/>
   </g>
  </g>
  <g id="axes_4">
   <g id="patch_18">
    <path d="M 324.382812 307.24 
L 554.042812 307.24 
L 554.042812 169.54 
L 324.382812 169.54 
z
" style="fill:#ffffff;"/>
   </g>
   <g id="matplotlib.axis_7">
    <g id="xtick_19">
     <g id="line2d_68">
      <g>
       <use style="stroke:#000000;stroke-width:0.8;" x="334.821903" xlink:href="#ma19620287d" y="307.24"/>
      </g>
     </g>
     <g id="text_45">
      <!-- 0 -->
      <g transform="translate(331.640653 321.838437)scale(0.1 -0.1)">
       <use xlink:href="#DejaVuSans-48"/>
      </g>
     </g>
    </g>
    <g id="xtick_20">
     <g id="line2d_69">
      <g>
       <use style="stroke:#000000;stroke-width:0.8;" x="376.578267" xlink:href="#ma19620287d" y="307.24"/>
      </g>
     </g>
     <g id="text_46">
      <!-- 1 -->
      <g transform="translate(373.397017 321.838437)scale(0.1 -0.1)">
       <use xlink:href="#DejaVuSans-49"/>
      </g>
     </g>
    </g>
    <g id="xtick_21">
     <g id="line2d_70">
      <g>
       <use style="stroke:#000000;stroke-width:0.8;" x="418.334631" xlink:href="#ma19620287d" y="307.24"/>
      </g>
     </g>
     <g id="text_47">
      <!-- 2 -->
      <g transform="translate(415.153381 321.838437)scale(0.1 -0.1)">
       <use xlink:href="#DejaVuSans-50"/>
      </g>
     </g>
    </g>
    <g id="xtick_22">
     <g id="line2d_71">
      <g>
       <use style="stroke:#000000;stroke-width:0.8;" x="460.090994" xlink:href="#ma19620287d" y="307.24"/>
      </g>
     </g>
     <g id="text_48">
      <!-- 3 -->
      <g transform="translate(456.909744 321.838437)scale(0.1 -0.1)">
       <use xlink:href="#DejaVuSans-51"/>
      </g>
     </g>
    </g>
    <g id="xtick_23">
     <g id="line2d_72">
      <g>
       <use style="stroke:#000000;stroke-width:0.8;" x="501.847358" xlink:href="#ma19620287d" y="307.24"/>
      </g>
     </g>
     <g id="text_49">
      <!-- 4 -->
      <g transform="translate(498.666108 321.838437)scale(0.1 -0.1)">
       <use xlink:href="#DejaVuSans-52"/>
      </g>
     </g>
    </g>
    <g id="xtick_24">
     <g id="line2d_73">
      <g>
       <use style="stroke:#000000;stroke-width:0.8;" x="543.603722" xlink:href="#ma19620287d" y="307.24"/>
      </g>
     </g>
     <g id="text_50">
      <!-- 5 -->
      <g transform="translate(540.422472 321.838437)scale(0.1 -0.1)">
       <use xlink:href="#DejaVuSans-53"/>
      </g>
     </g>
    </g>
    <g id="text_51">
     <!-- Time (s) -->
     <g transform="translate(418.883906 335.516563)scale(0.1 -0.1)">
      <use xlink:href="#DejaVuSans-84"/>
      <use x="57.958984" xlink:href="#DejaVuSans-105"/>
      <use x="85.742188" xlink:href="#DejaVuSans-109"/>
      <use x="183.154297" xlink:href="#DejaVuSans-101"/>
      <use x="244.677734" xlink:href="#DejaVuSans-32"/>
      <use x="276.464844" xlink:href="#DejaVuSans-40"/>
      <use x="315.478516" xlink:href="#DejaVuSans-115"/>
      <use x="367.578125" xlink:href="#DejaVuSans-41"/>
     </g>
    </g>
   </g>
   <g id="matplotlib.axis_8">
    <g id="ytick_17">
     <g id="line2d_74">
      <g>
       <use style="stroke:#000000;stroke-width:0.8;" x="324.382812" xlink:href="#m810ebde39a" y="307.24"/>
      </g>
     </g>
     <g id="text_52">
      <!-- 20 -->
      <g transform="translate(296.278125 311.039219)scale(0.1 -0.1)">
       <use xlink:href="#DejaVuSans-8722"/>
       <use x="83.789062" xlink:href="#DejaVuSans-50"/>
       <use x="147.412109" xlink:href="#DejaVuSans-48"/>
      </g>
     </g>
    </g>
    <g id="ytick_18">
     <g id="line2d_75">
      <g>
       <use style="stroke:#000000;stroke-width:0.8;" x="324.382812" xlink:href="#m810ebde39a" y="279.7"/>
      </g>
     </g>
     <g id="text_53">
      <!-- 10 -->
      <g transform="translate(296.278125 283.499219)scale(0.1 -0.1)">
       <use xlink:href="#DejaVuSans-8722"/>
       <use x="83.789062" xlink:href="#DejaVuSans-49"/>
       <use x="147.412109" xlink:href="#DejaVuSans-48"/>
      </g>
     </g>
    </g>
    <g id="ytick_19">
     <g id="line2d_76">
      <g>
       <use style="stroke:#000000;stroke-width:0.8;" x="324.382812" xlink:href="#m810ebde39a" y="252.16"/>
      </g>
     </g>
     <g id="text_54">
      <!-- 0 -->
      <g transform="translate(311.020312 255.959219)scale(0.1 -0.1)">
       <use xlink:href="#DejaVuSans-48"/>
      </g>
     </g>
    </g>
    <g id="ytick_20">
     <g id="line2d_77">
      <g>
       <use style="stroke:#000000;stroke-width:0.8;" x="324.382812" xlink:href="#m810ebde39a" y="224.62"/>
      </g>
     </g>
     <g id="text_55">
      <!-- 10 -->
      <g transform="translate(304.657812 228.419219)scale(0.1 -0.1)">
       <use xlink:href="#DejaVuSans-49"/>
       <use x="63.623047" xlink:href="#DejaVuSans-48"/>
      </g>
     </g>
    </g>
    <g id="ytick_21">
     <g id="line2d_78">
      <g>
       <use style="stroke:#000000;stroke-width:0.8;" x="324.382812" xlink:href="#m810ebde39a" y="197.08"/>
      </g>
     </g>
     <g id="text_56">
      <!-- 20 -->
      <g transform="translate(304.657812 200.879219)scale(0.1 -0.1)">
       <use xlink:href="#DejaVuSans-50"/>
       <use x="63.623047" xlink:href="#DejaVuSans-48"/>
      </g>
     </g>
    </g>
    <g id="ytick_22">
     <g id="line2d_79">
      <g>
       <use style="stroke:#000000;stroke-width:0.8;" x="324.382812" xlink:href="#m810ebde39a" y="169.54"/>
      </g>
     </g>
     <g id="text_57">
      <!-- 30 -->
      <g transform="translate(304.657812 173.339219)scale(0.1 -0.1)">
       <use xlink:href="#DejaVuSans-51"/>
       <use x="63.623047" xlink:href="#DejaVuSans-48"/>
      </g>
     </g>
    </g>
    <g id="text_58">
     <!-- Jerk (m/s3) -->
     <g transform="translate(290.198438 265.723594)rotate(-90)scale(0.1 -0.1)">
      <defs>
       <path d="M 9.8125 72.90625 
L 19.671875 72.90625 
L 19.671875 5.078125 
Q 19.671875 -8.109375 14.671875 -14.0625 
Q 9.671875 -20.015625 -1.421875 -20.015625 
L -5.171875 -20.015625 
L -5.171875 -11.71875 
L -2.09375 -11.71875 
Q 4.4375 -11.71875 7.125 -8.046875 
Q 9.8125 -4.390625 9.8125 5.078125 
z
" id="DejaVuSans-74"/>
       <path d="M 9.078125 75.984375 
L 18.109375 75.984375 
L 18.109375 31.109375 
L 44.921875 54.6875 
L 56.390625 54.6875 
L 27.390625 29.109375 
L 57.625 0 
L 45.90625 0 
L 18.109375 26.703125 
L 18.109375 0 
L 9.078125 0 
z
" id="DejaVuSans-107"/>
      </defs>
      <use xlink:href="#DejaVuSans-74"/>
      <use x="29.492188" xlink:href="#DejaVuSans-101"/>
      <use x="91.015625" xlink:href="#DejaVuSans-114"/>
      <use x="132.128906" xlink:href="#DejaVuSans-107"/>
      <use x="190.039062" xlink:href="#DejaVuSans-32"/>
      <use x="221.826172" xlink:href="#DejaVuSans-40"/>
      <use x="260.839844" xlink:href="#DejaVuSans-109"/>
      <use x="358.251953" xlink:href="#DejaVuSans-47"/>
      <use x="391.943359" xlink:href="#DejaVuSans-115"/>
      <use x="444.042969" xlink:href="#DejaVuSans-51"/>
      <use x="507.666016" xlink:href="#DejaVuSans-41"/>
     </g>
    </g>
   </g>
   <g id="line2d_80">
    <path clip-path="url(#pc9b5bd134f)" d="M 334.821903 237.674956 
L 338.99754 233.197331 
L 343.173176 238.719375 
L 347.348813 251.499184 
L 351.524449 252.842576 
L 355.700085 263.211071 
L 359.875722 264.877402 
L 364.051358 258.624096 
L 368.226994 253.976888 
L 372.402631 259.658434 
L 376.578267 267.39314 
L 380.753903 261.263708 
L 384.92954 258.607068 
L 389.105176 260.060792 
L 393.280812 264.126191 
L 397.456449 276.583764 
L 401.632085 277.655587 
L 405.807722 271.059942 
L 409.983358 274.884397 
L 414.158994 270.573076 
L 418.334631 265.107801 
L 422.510267 267.706764 
L 426.685903 266.277373 
L 430.86154 266.038708 
L 435.037176 267.805339 
L 439.212812 263.193136 
L 443.388449 259.66332 
L 447.564085 259.060961 
L 451.739722 260.239264 
L 455.915358 262.091735 
L 460.090994 262.686974 
L 464.266631 261.764579 
L 468.442267 260.833316 
L 472.617903 262.353324 
L 476.79354 265.377252 
L 480.969176 265.951697 
L 485.144812 262.715049 
L 489.320449 257.560768 
L 493.496085 251.044902 
L 497.671722 244.636753 
L 501.847358 240.418813 
L 506.022994 240.526478 
L 510.198631 248.398478 
L 514.374267 258.683504 
L 518.549903 259.578021 
L 522.72554 251.309208 
L 526.901176 245.328748 
L 531.076812 241.18302 
L 535.252449 246.493234 
L 539.428085 241.676606 
L 543.603722 214.3437 
" style="fill:none;stroke:#000000;stroke-linecap:square;stroke-width:1.5;"/>
   </g>
   <g id="line2d_81">
    <path clip-path="url(#pc9b5bd134f)" d="M 334.821903 237.674956 
L 336.074702 338.59625 
M 346.365314 338.59625 
L 347.348813 154.767575 
L 348.737127 -1 
M 355.89431 -1 
L 358.749675 338.59625 
M 367.85281 338.59625 
L 368.226994 292.979726 
L 371.094279 -1 
M 375.859749 -1 
L 376.578267 26.880113 
L 380.550627 338.59625 
M 389.30128 338.59625 
L 393.280812 46.048454 
L 397.456449 111.266905 
L 401.632085 290.622042 
L 402.963115 338.59625 
M 410.204029 338.59625 
L 414.158994 175.531413 
L 418.334631 187.108314 
L 422.510267 260.746158 
L 426.685903 320.634632 
L 430.86154 307.875633 
L 435.037176 254.576594 
L 439.212812 247.841274 
L 443.388449 256.192952 
L 447.564085 253.581477 
L 451.739722 262.656589 
L 455.915358 286.292804 
L 456.010646 338.59625 
" style="fill:none;stroke:#1f77b4;stroke-dasharray:1.5,2.475;stroke-dashoffset:0;stroke-width:1.5;"/>
   </g>
   <g id="line2d_82">
    <path clip-path="url(#pc9b5bd134f)" d="M 461.784079 338.59625 
L 462.040793 -1 
M 468.212867 -1 
L 468.442267 170.165508 
L 469.097143 338.59625 
M 475.501978 338.59625 
L 476.583587 -1 
M 484.287605 -1 
L 485.144812 146.893229 
L 485.784998 338.59625 
M 496.64341 338.59625 
L 497.313413 -1 
M 507.444137 -1 
L 508.453296 338.59625 
M 518.004717 338.59625 
L 518.549903 116.431705 
L 518.941243 -1 
M 528.814302 -1 
L 530.037385 338.59625 
M 539.941185 338.59625 
L 541.871135 -1 
" style="fill:none;stroke:#ff7f0e;stroke-dasharray:1.5,2.475;stroke-dashoffset:0;stroke-width:1.5;"/>
   </g>
   <g id="line2d_83">
    <path clip-path="url(#pc9b5bd134f)" d="M 334.821903 237.674956 
L 338.99754 182.365445 
L 343.173176 219.48981 
L 347.348813 287.43623 
L 351.524449 290.373229 
L 355.700085 249.861389 
L 359.875722 228.341339 
L 364.051358 243.755142 
L 368.226994 284.026983 
L 372.402631 291.335748 
L 376.578267 267.909717 
L 380.753903 251.933988 
L 384.92954 253.704683 
L 389.105176 268.488602 
L 393.280812 275.824028 
L 397.456449 271.654475 
L 401.632085 267.948691 
L 405.807722 268.169737 
L 409.983358 271.048165 
L 414.158994 273.240501 
L 418.334631 273.290282 
L 422.510267 272.128722 
L 426.685903 268.543502 
L 430.86154 260.544473 
L 435.037176 257.34841 
L 439.212812 264.486812 
L 443.388449 271.122136 
L 447.564085 270.746175 
L 451.739722 261.202781 
L 455.915358 254.13544 
L 460.090994 260.679189 
" style="fill:none;stroke:#1f77b4;stroke-dasharray:5.55,2.4;stroke-dashoffset:0;stroke-width:1.5;"/>
   </g>
   <g id="line2d_84">
    <path clip-path="url(#pc9b5bd134f)" d="M 460.090994 260.679189 
L 461.292315 338.59625 
M 466.415746 338.59625 
L 468.442267 156.68806 
L 472.617903 134.511081 
L 476.79354 251.080159 
L 480.969176 214.63307 
L 485.144812 114.12469 
L 489.320449 101.626119 
L 493.496085 244.63015 
L 495.352011 338.59625 
M 503.52106 338.59625 
L 506.022994 226.68248 
L 510.198631 128.105487 
L 514.374267 200.635872 
L 517.473797 338.59625 
M 523.686251 338.59625 
L 526.901176 211.419613 
L 531.076812 108.775126 
L 535.252449 136.772113 
L 539.428085 265.301256 
L 543.603722 299.319345 
" style="fill:none;stroke:#ff7f0e;stroke-dasharray:5.55,2.4;stroke-dashoffset:0;stroke-width:1.5;"/>
   </g>
   <g id="line2d_85">
    <path clip-path="url(#pc9b5bd134f)" d="M 334.821903 237.674956 
L 338.99754 198.091003 
L 343.173176 223.732186 
L 347.348813 267.648534 
L 351.524449 274.158415 
L 355.700085 254.897275 
L 359.875722 244.739698 
L 364.051358 252.287208 
L 368.226994 271.191566 
L 372.402631 277.038053 
L 376.578267 269.935768 
L 380.753903 264.330852 
L 384.92954 262.445317 
L 389.105176 262.080941 
L 393.280812 265.083369 
L 397.456449 270.526756 
L 401.632085 274.225918 
L 405.807722 274.336309 
L 409.983358 270.86221 
L 414.158994 268.901671 
L 418.334631 270.318725 
L 422.510267 271.048644 
L 426.685903 269.378987 
L 430.86154 265.377403 
L 435.037176 262.188778 
L 439.212812 261.744276 
L 443.388449 261.622868 
L 447.564085 260.873524 
L 451.739722 259.917401 
L 455.915358 258.535284 
L 460.090994 256.364421 
" style="fill:none;stroke:#1f77b4;stroke-linecap:square;stroke-width:1.5;"/>
   </g>
   <g id="line2d_86">
    <path clip-path="url(#pc9b5bd134f)" d="M 460.090994 256.364421 
L 464.266631 204.392975 
L 468.442267 293.755823 
L 472.617903 303.841834 
L 476.79354 281.276934 
L 480.969176 269.794765 
L 485.144812 266.415968 
L 489.320449 259.524159 
L 493.496085 248.560225 
L 497.671722 237.225127 
L 501.847358 231.222355 
L 506.022994 229.901322 
L 510.198631 231.682739 
L 514.374267 239.909528 
L 518.549903 252.962952 
L 522.72554 250.396177 
L 526.901176 236.078801 
L 531.076812 223.918229 
L 535.252449 209.027951 
L 539.428085 188.121552 
L 543.603722 198.178101 
" style="fill:none;stroke:#ff7f0e;stroke-linecap:square;stroke-width:1.5;"/>
   </g>
   <g id="patch_19">
    <path d="M 324.382812 307.24 
L 324.382812 169.54 
" style="fill:none;stroke:#000000;stroke-linecap:square;stroke-linejoin:miter;stroke-width:0.8;"/>
   </g>
   <g id="patch_20">
    <path d="M 554.042812 307.24 
L 554.042812 169.54 
" style="fill:none;stroke:#000000;stroke-linecap:square;stroke-linejoin:miter;stroke-width:0.8;"/>
   </g>
   <g id="patch_21">
    <path d="M 324.382812 307.24 
L 554.042812 307.24 
" style="fill:none;stroke:#000000;stroke-linecap:square;stroke-linejoin:miter;stroke-width:0.8;"/>
   </g>
   <g id="patch_22">
    <path d="M 324.382812 169.54 
L 554.042812 169.54 
" style="fill:none;stroke:#000000;stroke-linecap:square;stroke-linejoin:miter;stroke-width:0.8;"/>
   </g>
  </g>
 </g>
 <defs>
  <clipPath id="p55f1fa1c5e">
   <rect height="137.7" width="229.66" x="41.782813" y="0"/>
  </clipPath>
  <clipPath id="p18b85f3243">
   <rect height="137.7" width="229.66" x="324.382812" y="0"/>
  </clipPath>
  <clipPath id="pfaabb39dc0">
   <rect height="137.7" width="229.66" x="41.782813" y="169.54"/>
  </clipPath>
  <clipPath id="pc9b5bd134f">
   <rect height="137.7" width="229.66" x="324.382812" y="169.54"/>
  </clipPath>
 </defs>
</svg>
